{"asset":{"version":"2.0","generator":"Connected Rails CC0 tree importer","copyright":"Mantissa and Poly Haven source models: CC0 1.0; optimisation: Connected Rails"},"scene":0,"scenes":[{"nodes":[0,1,2,3]}],"nodes":[{"name":"crown_LOD0","mesh":0},{"name":"crown_LOD1","mesh":1},{"name":"crown_LOD2","mesh":2},{"name":"crown_LOD3","mesh":3}],"meshes":[{"name":"crown_LOD0","primitives":[{"attributes":{"POSITION":0,"NORMAL":1,"TEXCOORD_0":2},"indices":3,"material":1}]},{"name":"crown_LOD1","primitives":[{"attributes":{"POSITION":4,"NORMAL":5,"TEXCOORD_0":6},"indices":7,"material":1}]},{"name":"crown_LOD2","primitives":[{"attributes":{"POSITION":8,"NORMAL":9,"TEXCOORD_0":10},"indices":11,"material":2}]},{"name":"crown_LOD3","primitives":[{"attributes":{"POSITION":12,"NORMAL":13,"TEXCOORD_0":14},"indices":15,"material":2}]}],"buffers":[{"uri":"adlerfarn_b.bin","byteLength":131208}],"bufferViews":[{"buffer":0,"byteOffset":0,"byteLength":19080,"target":34962},{"buffer":0,"byteOffset":19080,"byteLength":19080,"target":34962},{"buffer":0,"byteOffset":38160,"byteLength":12720,"target":34962},{"buffer":0,"byteOffset":50880,"byteLength":14304,"target":34963},{"buffer":0,"byteOffset":65184,"byteLength":19080,"target":34962},{"buffer":0,"byteOffset":84264,"byteLength":19080,"target":34962},{"buffer":0,"byteOffset":103344,"byteLength":12720,"target":34962},{"buffer":0,"byteOffset":116064,"byteLength":14304,"target":34963},{"buffer":0,"byteOffset":130368,"byteLength":192,"target":34962},{"buffer":0,"byteOffset":130560,"byteLength":192,"target":34962},{"buffer":0,"byteOffset":130752,"byteLength":128,"target":34962},{"buffer":0,"byteOffset":130880,"byteLength":48,"target":34963},{"buffer":0,"byteOffset":130928,"byteLength":96,"target":34962},{"buffer":0,"byteOffset":131024,"byteLength":96,"target":34962},{"buffer":0,"byteOffset":131120,"byteLength":64,"target":34962},{"buffer":0,"byteOffset":131184,"byteLength":24,"target":34963}],"accessors":[{"bufferView":0,"componentType":5126,"count":1590,"type":"VEC3","min":[-0.675,0.0,-0.609489410278921],"max":[0.675,0.9999999999999999,0.609489410278921]},{"bufferView":1,"componentType":5126,"count":1590,"type":"VEC3","min":[-0.9991190433502197,-0.9951193928718567,-0.9951645731925964],"max":[0.9987313151359558,0.9988787770271301,0.9952811598777771]},{"bufferView":2,"componentType":5126,"count":1590,"type":"VEC2"},{"bufferView":3,"componentType":5123,"count":7152,"type":"SCALAR","min":[0],"max":[1589]},{"bufferView":4,"componentType":5126,"count":1590,"type":"VEC3","min":[-0.675,0.0,-0.609489410278921],"max":[0.675,0.9999999999999999,0.609489410278921]},{"bufferView":5,"componentType":5126,"count":1590,"type":"VEC3","min":[-0.9991190433502197,-0.9951193928718567,-0.9951645731925964],"max":[0.9987313151359558,0.9988787770271301,0.9952811598777771]},{"bufferView":6,"componentType":5126,"count":1590,"type":"VEC2"},{"bufferView":7,"componentType":5123,"count":7152,"type":"SCALAR","min":[0],"max":[1589]},{"bufferView":8,"componentType":5126,"count":16,"type":"VEC3","min":[-0.7425000000000002,0,-0.7425000000000002],"max":[0.7425000000000002,1.0,0.7425000000000002]},{"bufferView":9,"componentType":5126,"count":16,"type":"VEC3","min":[-1.0,0,-0.7071067811865475],"max":[-0.0,0,1.0]},{"bufferView":10,"componentType":5126,"count":16,"type":"VEC2"},{"bufferView":11,"componentType":5123,"count":24,"type":"SCALAR","min":[0],"max":[15]},{"bufferView":12,"componentType":5126,"count":8,"type":"VEC3","min":[-0.7425000000000002,0,-0.7425000000000002],"max":[0.7425000000000002,1.0,0.7425000000000002]},{"bufferView":13,"componentType":5126,"count":8,"type":"VEC3","min":[-1.0,0,6.123233995736766e-17],"max":[-0.0,0,1.0]},{"bufferView":14,"componentType":5126,"count":8,"type":"VEC2"},{"bufferView":15,"componentType":5123,"count":12,"type":"SCALAR","min":[0],"max":[7]}],"samplers":[{"magFilter":9729,"minFilter":9987,"wrapS":10497,"wrapT":10497}],"images":[{"uri":"textures/poly_fern_02.png"},{"uri":"textures/poly_fern_02.png"},{"uri":"impostors/adlerfarn_b_summer.png"}],"textures":[{"source":0,"sampler":0},{"source":1,"sampler":0},{"source":2,"sampler":0}],"materials":[{"name":"bark","pbrMetallicRoughness":{"baseColorFactor":[0.82,0.82,0.82,1.0],"baseColorTexture":{"index":0},"metallicFactor":0.0,"roughnessFactor":0.91},"doubleSided":false},{"name":"foliage","pbrMetallicRoughness":{"baseColorFactor":[0.5747058823529412,1.0,0.7347058823529412,1.0],"baseColorTexture":{"index":1},"metallicFactor":0.0,"roughnessFactor":0.78},"doubleSided":true,"alphaMode":"MASK","alphaCutoff":0.18},{"name":"whole_tree_impostor","pbrMetallicRoughness":{"baseColorFactor":[1,1,1,1],"baseColorTexture":{"index":2},"metallicFactor":0.0,"roughnessFactor":0.92},"doubleSided":true,"alphaMode":"MASK","alphaCutoff":0.18}]}