{"asset":{"version":"2.0","generator":"Connected Rails CC0 tree importer","copyright":"Mantissa and Poly Haven source models: CC0 1.0; optimisation: Connected Rails"},"scene":0,"scenes":[{"nodes":[0,1,2,3]}],"nodes":[{"name":"crown_LOD0","mesh":0},{"name":"crown_LOD1","mesh":1},{"name":"crown_LOD2","mesh":2},{"name":"crown_LOD3","mesh":3}],"meshes":[{"name":"crown_LOD0","primitives":[{"attributes":{"POSITION":0,"NORMAL":1,"TEXCOORD_0":2},"indices":3,"material":1}]},{"name":"crown_LOD1","primitives":[{"attributes":{"POSITION":4,"NORMAL":5,"TEXCOORD_0":6},"indices":7,"material":1}]},{"name":"crown_LOD2","primitives":[{"attributes":{"POSITION":8,"NORMAL":9,"TEXCOORD_0":10},"indices":11,"material":2}]},{"name":"crown_LOD3","primitives":[{"attributes":{"POSITION":12,"NORMAL":13,"TEXCOORD_0":14},"indices":15,"material":2}]}],"buffers":[{"uri":"adlerfarn_a.bin","byteLength":43848}],"bufferViews":[{"buffer":0,"byteOffset":0,"byteLength":6300,"target":34962},{"buffer":0,"byteOffset":6300,"byteLength":6300,"target":34962},{"buffer":0,"byteOffset":12600,"byteLength":4200,"target":34962},{"buffer":0,"byteOffset":16800,"byteLength":4704,"target":34963},{"buffer":0,"byteOffset":21504,"byteLength":6300,"target":34962},{"buffer":0,"byteOffset":27804,"byteLength":6300,"target":34962},{"buffer":0,"byteOffset":34104,"byteLength":4200,"target":34962},{"buffer":0,"byteOffset":38304,"byteLength":4704,"target":34963},{"buffer":0,"byteOffset":43008,"byteLength":192,"target":34962},{"buffer":0,"byteOffset":43200,"byteLength":192,"target":34962},{"buffer":0,"byteOffset":43392,"byteLength":128,"target":34962},{"buffer":0,"byteOffset":43520,"byteLength":48,"target":34963},{"buffer":0,"byteOffset":43568,"byteLength":96,"target":34962},{"buffer":0,"byteOffset":43664,"byteLength":96,"target":34962},{"buffer":0,"byteOffset":43760,"byteLength":64,"target":34962},{"buffer":0,"byteOffset":43824,"byteLength":24,"target":34963}],"accessors":[{"bufferView":0,"componentType":5126,"count":525,"type":"VEC3","min":[-0.3036738784285825,0.0,-0.33749999999999997],"max":[0.3036738784285825,0.5,0.33749999999999997]},{"bufferView":1,"componentType":5126,"count":525,"type":"VEC3","min":[-0.9866963624954224,-0.28529295325279236,-0.929901659488678],"max":[0.9979283809661865,0.9986040592193604,0.9917850494384766]},{"bufferView":2,"componentType":5126,"count":525,"type":"VEC2"},{"bufferView":3,"componentType":5123,"count":2352,"type":"SCALAR","min":[0],"max":[524]},{"bufferView":4,"componentType":5126,"count":525,"type":"VEC3","min":[-0.3036738784285825,0.0,-0.33749999999999997],"max":[0.3036738784285825,0.5,0.33749999999999997]},{"bufferView":5,"componentType":5126,"count":525,"type":"VEC3","min":[-0.9866963624954224,-0.28529295325279236,-0.929901659488678],"max":[0.9979283809661865,0.9986040592193604,0.9917850494384766]},{"bufferView":6,"componentType":5126,"count":525,"type":"VEC2"},{"bufferView":7,"componentType":5123,"count":2352,"type":"SCALAR","min":[0],"max":[524]},{"bufferView":8,"componentType":5126,"count":16,"type":"VEC3","min":[-0.3712500000000001,0,-0.3712500000000001],"max":[0.3712500000000001,0.5,0.3712500000000001]},{"bufferView":9,"componentType":5126,"count":16,"type":"VEC3","min":[-1.0,0,-0.7071067811865475],"max":[-0.0,0,1.0]},{"bufferView":10,"componentType":5126,"count":16,"type":"VEC2"},{"bufferView":11,"componentType":5123,"count":24,"type":"SCALAR","min":[0],"max":[15]},{"bufferView":12,"componentType":5126,"count":8,"type":"VEC3","min":[-0.3712500000000001,0,-0.3712500000000001],"max":[0.3712500000000001,0.5,0.3712500000000001]},{"bufferView":13,"componentType":5126,"count":8,"type":"VEC3","min":[-1.0,0,6.123233995736766e-17],"max":[-0.0,0,1.0]},{"bufferView":14,"componentType":5126,"count":8,"type":"VEC2"},{"bufferView":15,"componentType":5123,"count":12,"type":"SCALAR","min":[0],"max":[7]}],"samplers":[{"magFilter":9729,"minFilter":9987,"wrapS":10497,"wrapT":10497}],"images":[{"uri":"textures/poly_fern_02.png"},{"uri":"textures/poly_fern_02.png"},{"uri":"impostors/adlerfarn_a_summer.png"}],"textures":[{"source":0,"sampler":0},{"source":1,"sampler":0},{"source":2,"sampler":0}],"materials":[{"name":"bark","pbrMetallicRoughness":{"baseColorFactor":[0.82,0.82,0.82,1.0],"baseColorTexture":{"index":0},"metallicFactor":0.0,"roughnessFactor":0.91},"doubleSided":false},{"name":"foliage","pbrMetallicRoughness":{"baseColorFactor":[0.5747058823529412,1.0,0.7347058823529412,1.0],"baseColorTexture":{"index":1},"metallicFactor":0.0,"roughnessFactor":0.78},"doubleSided":true,"alphaMode":"MASK","alphaCutoff":0.18},{"name":"whole_tree_impostor","pbrMetallicRoughness":{"baseColorFactor":[1,1,1,1],"baseColorTexture":{"index":2},"metallicFactor":0.0,"roughnessFactor":0.92},"doubleSided":true,"alphaMode":"MASK","alphaCutoff":0.18}]}