{"asset":{"version":"2.0","generator":"Connected Rails CC0 tree importer","copyright":"Mantissa and Poly Haven source models: CC0 1.0; optimisation: Connected Rails"},"scene":0,"scenes":[{"nodes":[0,1,2,3]}],"nodes":[{"name":"crown_LOD0","mesh":0},{"name":"crown_LOD1","mesh":1},{"name":"crown_LOD2","mesh":2},{"name":"crown_LOD3","mesh":3}],"meshes":[{"name":"crown_LOD0","primitives":[{"attributes":{"POSITION":0,"NORMAL":1,"TEXCOORD_0":2},"indices":3,"material":1}]},{"name":"crown_LOD1","primitives":[{"attributes":{"POSITION":4,"NORMAL":5,"TEXCOORD_0":6},"indices":7,"material":1}]},{"name":"crown_LOD2","primitives":[{"attributes":{"POSITION":8,"NORMAL":9,"TEXCOORD_0":10},"indices":11,"material":2}]},{"name":"crown_LOD3","primitives":[{"attributes":{"POSITION":12,"NORMAL":13,"TEXCOORD_0":14},"indices":15,"material":2}]}],"buffers":[{"uri":"adlerfarn_c.bin","byteLength":123816}],"bufferViews":[{"buffer":0,"byteOffset":0,"byteLength":18000,"target":34962},{"buffer":0,"byteOffset":18000,"byteLength":18000,"target":34962},{"buffer":0,"byteOffset":36000,"byteLength":12000,"target":34962},{"buffer":0,"byteOffset":48000,"byteLength":13488,"target":34963},{"buffer":0,"byteOffset":61488,"byteLength":18000,"target":34962},{"buffer":0,"byteOffset":79488,"byteLength":18000,"target":34962},{"buffer":0,"byteOffset":97488,"byteLength":12000,"target":34962},{"buffer":0,"byteOffset":109488,"byteLength":13488,"target":34963},{"buffer":0,"byteOffset":122976,"byteLength":192,"target":34962},{"buffer":0,"byteOffset":123168,"byteLength":192,"target":34962},{"buffer":0,"byteOffset":123360,"byteLength":128,"target":34962},{"buffer":0,"byteOffset":123488,"byteLength":48,"target":34963},{"buffer":0,"byteOffset":123536,"byteLength":96,"target":34962},{"buffer":0,"byteOffset":123632,"byteLength":96,"target":34962},{"buffer":0,"byteOffset":123728,"byteLength":64,"target":34962},{"buffer":0,"byteOffset":123792,"byteLength":24,"target":34963}],"accessors":[{"bufferView":0,"componentType":5126,"count":1500,"type":"VEC3","min":[-1.0125000000000002,0.0,-0.886158213738414],"max":[1.0125000000000002,1.4999999999999998,0.886158213738414]},{"bufferView":1,"componentType":5126,"count":1500,"type":"VEC3","min":[-0.9863577485084534,-0.9634071588516235,-0.999745786190033],"max":[0.9960446953773499,0.9998762011528015,0.9995854496955872]},{"bufferView":2,"componentType":5126,"count":1500,"type":"VEC2"},{"bufferView":3,"componentType":5123,"count":6744,"type":"SCALAR","min":[0],"max":[1499]},{"bufferView":4,"componentType":5126,"count":1500,"type":"VEC3","min":[-1.0125000000000002,0.0,-0.886158213738414],"max":[1.0125000000000002,1.4999999999999998,0.886158213738414]},{"bufferView":5,"componentType":5126,"count":1500,"type":"VEC3","min":[-0.9863577485084534,-0.9634071588516235,-0.999745786190033],"max":[0.9960446953773499,0.9998762011528015,0.9995854496955872]},{"bufferView":6,"componentType":5126,"count":1500,"type":"VEC2"},{"bufferView":7,"componentType":5123,"count":6744,"type":"SCALAR","min":[0],"max":[1499]},{"bufferView":8,"componentType":5126,"count":16,"type":"VEC3","min":[-1.1137500000000002,0,-1.1137500000000002],"max":[1.1137500000000002,1.5,1.1137500000000002]},{"bufferView":9,"componentType":5126,"count":16,"type":"VEC3","min":[-1.0,0,-0.7071067811865475],"max":[-0.0,0,1.0]},{"bufferView":10,"componentType":5126,"count":16,"type":"VEC2"},{"bufferView":11,"componentType":5123,"count":24,"type":"SCALAR","min":[0],"max":[15]},{"bufferView":12,"componentType":5126,"count":8,"type":"VEC3","min":[-1.1137500000000002,0,-1.1137500000000002],"max":[1.1137500000000002,1.5,1.1137500000000002]},{"bufferView":13,"componentType":5126,"count":8,"type":"VEC3","min":[-1.0,0,6.123233995736766e-17],"max":[-0.0,0,1.0]},{"bufferView":14,"componentType":5126,"count":8,"type":"VEC2"},{"bufferView":15,"componentType":5123,"count":12,"type":"SCALAR","min":[0],"max":[7]}],"samplers":[{"magFilter":9729,"minFilter":9987,"wrapS":10497,"wrapT":10497}],"images":[{"uri":"textures/poly_fern_02.png"},{"uri":"textures/poly_fern_02.png"},{"uri":"impostors/adlerfarn_c_summer.png"}],"textures":[{"source":0,"sampler":0},{"source":1,"sampler":0},{"source":2,"sampler":0}],"materials":[{"name":"bark","pbrMetallicRoughness":{"baseColorFactor":[0.82,0.82,0.82,1.0],"baseColorTexture":{"index":0},"metallicFactor":0.0,"roughnessFactor":0.91},"doubleSided":false},{"name":"foliage","pbrMetallicRoughness":{"baseColorFactor":[0.5747058823529412,1.0,0.7347058823529412,1.0],"baseColorTexture":{"index":1},"metallicFactor":0.0,"roughnessFactor":0.78},"doubleSided":true,"alphaMode":"MASK","alphaCutoff":0.18},{"name":"whole_tree_impostor","pbrMetallicRoughness":{"baseColorFactor":[1,1,1,1],"baseColorTexture":{"index":2},"metallicFactor":0.0,"roughnessFactor":0.92},"doubleSided":true,"alphaMode":"MASK","alphaCutoff":0.18}]}