{"asset":{"version":"2.0","generator":"Connected Rails CC0 tree importer","copyright":"Mantissa and Poly Haven source models: CC0 1.0; optimisation: Connected Rails"},"scene":0,"scenes":[{"nodes":[0,1,2,3]}],"nodes":[{"name":"crown_LOD0","mesh":0},{"name":"crown_LOD1","mesh":1},{"name":"crown_LOD2","mesh":2},{"name":"crown_LOD3","mesh":3}],"meshes":[{"name":"crown_LOD0","primitives":[{"attributes":{"POSITION":0,"NORMAL":1,"TEXCOORD_0":2},"indices":3,"material":0},{"attributes":{"POSITION":4,"NORMAL":5,"TEXCOORD_0":6},"indices":7,"material":1}]},{"name":"crown_LOD1","primitives":[{"attributes":{"POSITION":8,"NORMAL":9,"TEXCOORD_0":10},"indices":11,"material":0},{"attributes":{"POSITION":12,"NORMAL":13,"TEXCOORD_0":14},"indices":15,"material":1}]},{"name":"crown_LOD2","primitives":[{"attributes":{"POSITION":16,"NORMAL":17,"TEXCOORD_0":18},"indices":19,"material":2}]},{"name":"crown_LOD3","primitives":[{"attributes":{"POSITION":20,"NORMAL":21,"TEXCOORD_0":22},"indices":23,"material":2}]}],"buffers":[{"uri":"bergahorn_c.bin","byteLength":7544240}],"bufferViews":[{"buffer":0,"byteOffset":0,"byteLength":126480,"target":34962},{"buffer":0,"byteOffset":126480,"byteLength":126480,"target":34962},{"buffer":0,"byteOffset":252960,"byteLength":84320,"target":34962},{"buffer":0,"byteOffset":337280,"byteLength":108000,"target":34963},{"buffer":0,"byteOffset":445280,"byteLength":1408824,"target":34962},{"buffer":0,"byteOffset":1854104,"byteLength":1408824,"target":34962},{"buffer":0,"byteOffset":3262928,"byteLength":939216,"target":34962},{"buffer":0,"byteOffset":4202144,"byteLength":1718028,"target":34963},{"buffer":0,"byteOffset":5920172,"byteLength":27072,"target":34962},{"buffer":0,"byteOffset":5947244,"byteLength":27072,"target":34962},{"buffer":0,"byteOffset":5974316,"byteLength":18048,"target":34962},{"buffer":0,"byteOffset":5992364,"byteLength":19194,"target":34963},{"buffer":0,"byteOffset":6011560,"byteLength":467976,"target":34962},{"buffer":0,"byteOffset":6479536,"byteLength":467976,"target":34962},{"buffer":0,"byteOffset":6947512,"byteLength":311984,"target":34962},{"buffer":0,"byteOffset":7259496,"byteLength":283902,"target":34963},{"buffer":0,"byteOffset":7543400,"byteLength":192,"target":34962},{"buffer":0,"byteOffset":7543592,"byteLength":192,"target":34962},{"buffer":0,"byteOffset":7543784,"byteLength":128,"target":34962},{"buffer":0,"byteOffset":7543912,"byteLength":48,"target":34963},{"buffer":0,"byteOffset":7543960,"byteLength":96,"target":34962},{"buffer":0,"byteOffset":7544056,"byteLength":96,"target":34962},{"buffer":0,"byteOffset":7544152,"byteLength":64,"target":34962},{"buffer":0,"byteOffset":7544216,"byteLength":24,"target":34963}],"accessors":[{"bufferView":0,"componentType":5126,"count":10540,"type":"VEC3","min":[-8.4061186408693,0.0,-9.67049214153522],"max":[8.403325095138426,25.647475114939375,9.013769038600845]},{"bufferView":1,"componentType":5126,"count":10540,"type":"VEC3","min":[-0.9999985098838806,-0.9997934699058533,-0.9997407793998718],"max":[0.9999749064445496,0.9995276927947998,0.9999726414680481]},{"bufferView":2,"componentType":5126,"count":10540,"type":"VEC2"},{"bufferView":3,"componentType":5123,"count":54000,"type":"SCALAR","min":[0],"max":[10539]},{"bufferView":4,"componentType":5126,"count":117402,"type":"VEC3","min":[-11.399881362915039,6.90238618850708,-11.154256820678711],"max":[11.401057243347168,29.670249938964844,10.916773796081543]},{"bufferView":5,"componentType":5126,"count":117402,"type":"VEC3","min":[-0.9999770522117615,-0.9999847412109375,-0.9993880391120911],"max":[0.9999920725822449,0.9999998211860657,0.9999688267707825]},{"bufferView":6,"componentType":5126,"count":117402,"type":"VEC2"},{"bufferView":7,"componentType":5125,"count":429507,"type":"SCALAR","min":[0],"max":[117401]},{"bufferView":8,"componentType":5126,"count":2256,"type":"VEC3","min":[-8.406308656803269,-0.0011805673778001852,-9.67049214153522],"max":[8.405696244793132,25.64790010127035,9.011966067738857]},{"bufferView":9,"componentType":5126,"count":2256,"type":"VEC3","min":[-0.9987205862998962,-0.9974542260169983,-0.9996593594551086],"max":[0.9997397661209106,0.9978811144828796,0.999817430973053]},{"bufferView":10,"componentType":5126,"count":2256,"type":"VEC2"},{"bufferView":11,"componentType":5123,"count":9597,"type":"SCALAR","min":[0],"max":[2255]},{"bufferView":12,"componentType":5126,"count":38998,"type":"VEC3","min":[-11.517616271972656,6.7838640213012695,-11.201017379760742],"max":[11.516682624816895,29.676244735717773,10.656754493713379]},{"bufferView":13,"componentType":5126,"count":38998,"type":"VEC3","min":[-0.9999770522117615,-0.9998657703399658,-0.9993880391120911],"max":[0.9997950792312622,0.999998927116394,0.9997959136962891]},{"bufferView":14,"componentType":5126,"count":38998,"type":"VEC2"},{"bufferView":15,"componentType":5123,"count":141951,"type":"SCALAR","min":[0],"max":[38997]},{"bufferView":16,"componentType":5126,"count":16,"type":"VEC3","min":[-12.870000000000003,0,-12.870000000000003],"max":[12.870000000000003,30.0,12.870000000000003]},{"bufferView":17,"componentType":5126,"count":16,"type":"VEC3","min":[-1.0,0,-0.7071067811865475],"max":[-0.0,0,1.0]},{"bufferView":18,"componentType":5126,"count":16,"type":"VEC2"},{"bufferView":19,"componentType":5123,"count":24,"type":"SCALAR","min":[0],"max":[15]},{"bufferView":20,"componentType":5126,"count":8,"type":"VEC3","min":[-12.870000000000003,0,-12.870000000000003],"max":[12.870000000000003,30.0,12.870000000000003]},{"bufferView":21,"componentType":5126,"count":8,"type":"VEC3","min":[-1.0,0,6.123233995736766e-17],"max":[-0.0,0,1.0]},{"bufferView":22,"componentType":5126,"count":8,"type":"VEC2"},{"bufferView":23,"componentType":5123,"count":12,"type":"SCALAR","min":[0],"max":[7]}],"samplers":[{"magFilter":9729,"minFilter":9987,"wrapS":10497,"wrapT":10497}],"images":[{"uri":"textures/bark_broadleaf.jpg"},{"uri":"textures/foliage_broadleaf.jpg"},{"uri":"impostors/bergahorn_c_autumn.png"}],"textures":[{"source":0,"sampler":0},{"source":1,"sampler":0},{"source":2,"sampler":0}],"materials":[{"name":"bark","pbrMetallicRoughness":{"baseColorFactor":[0.82,0.82,0.82,1.0],"baseColorTexture":{"index":0},"metallicFactor":0.0,"roughnessFactor":0.91},"doubleSided":false},{"name":"foliage","pbrMetallicRoughness":{"baseColorFactor":[0.78,0.28,0.06,1.0],"baseColorTexture":{"index":1},"metallicFactor":0.0,"roughnessFactor":0.78},"doubleSided":true},{"name":"whole_tree_impostor","pbrMetallicRoughness":{"baseColorFactor":[1,1,1,1],"baseColorTexture":{"index":2},"metallicFactor":0.0,"roughnessFactor":0.92},"doubleSided":true,"alphaMode":"MASK","alphaCutoff":0.18}]}