{
 "asset": {
  "version": "2.0",
  "generator": "tools/trees/build_trees.mjs (Connected Rails, geometry by ez-tree)",
  "copyright": "Connected Rails contributors, EUPL-1.2. Generated with ez-tree (MIT, Daniel Greenheck)."
 },
 "scene": 0,
 "scenes": [
  {
   "name": "bergulme_b",
   "nodes": [
    0,
    1,
    2,
    3
   ]
  }
 ],
 "nodes": [
  {
   "name": "crown_LOD0",
   "mesh": 0
  },
  {
   "name": "crown_LOD1",
   "mesh": 1
  },
  {
   "name": "crown_LOD2",
   "mesh": 2
  },
  {
   "name": "crown_LOD3",
   "mesh": 3
  }
 ],
 "meshes": [
  {
   "name": "crown_LOD0",
   "primitives": [
    {
     "attributes": {
      "POSITION": 0,
      "NORMAL": 1,
      "TEXCOORD_0": 2
     },
     "indices": 3,
     "material": 0
    }
   ]
  },
  {
   "name": "crown_LOD1",
   "primitives": [
    {
     "attributes": {
      "POSITION": 4,
      "NORMAL": 5,
      "TEXCOORD_0": 6
     },
     "indices": 7,
     "material": 0
    }
   ]
  },
  {
   "name": "crown_LOD2",
   "primitives": [
    {
     "attributes": {
      "POSITION": 8,
      "NORMAL": 9,
      "TEXCOORD_0": 10
     },
     "indices": 11,
     "material": 0
    }
   ]
  },
  {
   "name": "crown_LOD3",
   "primitives": [
    {
     "attributes": {
      "POSITION": 12,
      "NORMAL": 13,
      "TEXCOORD_0": 14
     },
     "indices": 15,
     "material": 0
    }
   ]
  }
 ],
 "materials": [
  {
   "name": "bergulme_autumn",
   "pbrMetallicRoughness": {
    "baseColorTexture": {
     "index": 0
    },
    "baseColorFactor": [
     1,
     1,
     1,
     1
    ],
    "metallicFactor": 0,
    "roughnessFactor": 0.9
   },
   "alphaMode": "MASK",
   "alphaCutoff": 0.5,
   "doubleSided": true
  }
 ],
 "textures": [
  {
   "source": 0,
   "sampler": 0
  }
 ],
 "images": [
  {
   "uri": "bergulme_autumn.png"
  }
 ],
 "samplers": [
  {
   "magFilter": 9729,
   "minFilter": 9987,
   "wrapS": 33071,
   "wrapT": 33071
  }
 ],
 "accessors": [
  {
   "bufferView": 0,
   "componentType": 5126,
   "count": 9516,
   "type": "VEC3",
   "min": [
    -9.313680239366407,
    0,
    -7.882377718373076
   ],
   "max": [
    8.056862494342596,
    22.999999999999996,
    9.047814145750426
   ]
  },
  {
   "bufferView": 1,
   "componentType": 5126,
   "count": 9516,
   "type": "VEC3"
  },
  {
   "bufferView": 2,
   "componentType": 5126,
   "count": 9516,
   "type": "VEC2"
  },
  {
   "bufferView": 3,
   "componentType": 5123,
   "count": 21738,
   "type": "SCALAR"
  },
  {
   "bufferView": 4,
   "componentType": 5126,
   "count": 2138,
   "type": "VEC3",
   "min": [
    -9.14013389926414,
    0,
    -8.503674301346724
   ],
   "max": [
    7.898207197018508,
    23.11110466176896,
    8.728237634542568
   ]
  },
  {
   "bufferView": 5,
   "componentType": 5126,
   "count": 2138,
   "type": "VEC3"
  },
  {
   "bufferView": 6,
   "componentType": 5126,
   "count": 2138,
   "type": "VEC2"
  },
  {
   "bufferView": 7,
   "componentType": 5123,
   "count": 4374,
   "type": "SCALAR"
  },
  {
   "bufferView": 8,
   "componentType": 5126,
   "count": 1048,
   "type": "VEC3",
   "min": [
    -9.319650747826435,
    0,
    -8.951447824178668
   ],
   "max": [
    8.326773843630898,
    22.693633566327584,
    10.390979402523156
   ]
  },
  {
   "bufferView": 9,
   "componentType": 5126,
   "count": 1048,
   "type": "VEC3"
  },
  {
   "bufferView": 10,
   "componentType": 5126,
   "count": 1048,
   "type": "VEC2"
  },
  {
   "bufferView": 11,
   "componentType": 5123,
   "count": 1656,
   "type": "SCALAR"
  },
  {
   "bufferView": 12,
   "componentType": 5126,
   "count": 8,
   "type": "VEC3",
   "min": [
    -9.313680239366407,
    0,
    -9.313680239366407
   ],
   "max": [
    9.313680239366407,
    22.999999999999996,
    9.313680239366407
   ]
  },
  {
   "bufferView": 13,
   "componentType": 5126,
   "count": 8,
   "type": "VEC3"
  },
  {
   "bufferView": 14,
   "componentType": 5126,
   "count": 8,
   "type": "VEC2"
  },
  {
   "bufferView": 15,
   "componentType": 5123,
   "count": 12,
   "type": "SCALAR"
  }
 ],
 "bufferViews": [
  {
   "buffer": 0,
   "byteOffset": 0,
   "byteLength": 114192,
   "target": 34962,
   "byteStride": 12
  },
  {
   "buffer": 0,
   "byteOffset": 114192,
   "byteLength": 114192,
   "target": 34962,
   "byteStride": 12
  },
  {
   "buffer": 0,
   "byteOffset": 228384,
   "byteLength": 76128,
   "target": 34962,
   "byteStride": 8
  },
  {
   "buffer": 0,
   "byteOffset": 304512,
   "byteLength": 43476,
   "target": 34963
  },
  {
   "buffer": 0,
   "byteOffset": 347988,
   "byteLength": 25656,
   "target": 34962,
   "byteStride": 12
  },
  {
   "buffer": 0,
   "byteOffset": 373644,
   "byteLength": 25656,
   "target": 34962,
   "byteStride": 12
  },
  {
   "buffer": 0,
   "byteOffset": 399300,
   "byteLength": 17104,
   "target": 34962,
   "byteStride": 8
  },
  {
   "buffer": 0,
   "byteOffset": 416404,
   "byteLength": 8748,
   "target": 34963
  },
  {
   "buffer": 0,
   "byteOffset": 425152,
   "byteLength": 12576,
   "target": 34962,
   "byteStride": 12
  },
  {
   "buffer": 0,
   "byteOffset": 437728,
   "byteLength": 12576,
   "target": 34962,
   "byteStride": 12
  },
  {
   "buffer": 0,
   "byteOffset": 450304,
   "byteLength": 8384,
   "target": 34962,
   "byteStride": 8
  },
  {
   "buffer": 0,
   "byteOffset": 458688,
   "byteLength": 3312,
   "target": 34963
  },
  {
   "buffer": 0,
   "byteOffset": 462000,
   "byteLength": 96,
   "target": 34962,
   "byteStride": 12
  },
  {
   "buffer": 0,
   "byteOffset": 462096,
   "byteLength": 96,
   "target": 34962,
   "byteStride": 12
  },
  {
   "buffer": 0,
   "byteOffset": 462192,
   "byteLength": 64,
   "target": 34962,
   "byteStride": 8
  },
  {
   "buffer": 0,
   "byteOffset": 462256,
   "byteLength": 24,
   "target": 34963
  }
 ],
 "buffers": [
  {
   "uri": "bergulme_b.bin",
   "byteLength": 462280
  }
 ]
}
