{"asset":{"version":"2.0","generator":"Connected Rails CC0 tree importer","copyright":"Mantissa and Poly Haven source models: CC0 1.0; optimisation: Connected Rails"},"scene":0,"scenes":[{"nodes":[0,1,2,3]}],"nodes":[{"name":"crown_LOD0","mesh":0},{"name":"crown_LOD1","mesh":1},{"name":"crown_LOD2","mesh":2},{"name":"crown_LOD3","mesh":3}],"meshes":[{"name":"crown_LOD0","primitives":[{"attributes":{"POSITION":0,"NORMAL":1,"TEXCOORD_0":2},"indices":3,"material":1}]},{"name":"crown_LOD1","primitives":[{"attributes":{"POSITION":4,"NORMAL":5,"TEXCOORD_0":6},"indices":7,"material":1}]},{"name":"crown_LOD2","primitives":[{"attributes":{"POSITION":8,"NORMAL":9,"TEXCOORD_0":10},"indices":11,"material":2}]},{"name":"crown_LOD3","primitives":[{"attributes":{"POSITION":12,"NORMAL":13,"TEXCOORD_0":14},"indices":15,"material":2}]}],"buffers":[{"uri":"besenginster_c.bin","byteLength":302476}],"bufferViews":[{"buffer":0,"byteOffset":0,"byteLength":63204,"target":34962},{"buffer":0,"byteOffset":63204,"byteLength":63204,"target":34962},{"buffer":0,"byteOffset":126408,"byteLength":42136,"target":34962},{"buffer":0,"byteOffset":168544,"byteLength":25224,"target":34963},{"buffer":0,"byteOffset":193768,"byteLength":35316,"target":34962},{"buffer":0,"byteOffset":229084,"byteLength":35316,"target":34962},{"buffer":0,"byteOffset":264400,"byteLength":23544,"target":34962},{"buffer":0,"byteOffset":287944,"byteLength":13692,"target":34963},{"buffer":0,"byteOffset":301636,"byteLength":192,"target":34962},{"buffer":0,"byteOffset":301828,"byteLength":192,"target":34962},{"buffer":0,"byteOffset":302020,"byteLength":128,"target":34962},{"buffer":0,"byteOffset":302148,"byteLength":48,"target":34963},{"buffer":0,"byteOffset":302196,"byteLength":96,"target":34962},{"buffer":0,"byteOffset":302292,"byteLength":96,"target":34962},{"buffer":0,"byteOffset":302388,"byteLength":64,"target":34962},{"buffer":0,"byteOffset":302452,"byteLength":24,"target":34963}],"accessors":[{"bufferView":0,"componentType":5126,"count":5267,"type":"VEC3","min":[-0.9573046829726864,0.0,-1.0625],"max":[0.9573046829726864,2.5,1.0625]},{"bufferView":1,"componentType":5126,"count":5267,"type":"VEC3","min":[-0.999940037727356,-0.9999510645866394,-0.9999029636383057],"max":[0.9992337226867676,0.9998316764831543,0.9995586276054382]},{"bufferView":2,"componentType":5126,"count":5267,"type":"VEC2"},{"bufferView":3,"componentType":5123,"count":12612,"type":"SCALAR","min":[0],"max":[5266]},{"bufferView":4,"componentType":5126,"count":2943,"type":"VEC3","min":[-1.0049636795429278,0.0051028114660949695,-1.1078937971377183],"max":[0.9933592022913708,2.556574389013671,1.0766767962234023]},{"bufferView":5,"componentType":5126,"count":2943,"type":"VEC3","min":[-0.999940037727356,-0.9999510645866394,-0.9997138381004333],"max":[0.9996574521064758,0.9998316764831543,0.9995586276054382]},{"bufferView":6,"componentType":5126,"count":2943,"type":"VEC2"},{"bufferView":7,"componentType":5123,"count":6846,"type":"SCALAR","min":[0],"max":[2942]},{"bufferView":8,"componentType":5126,"count":16,"type":"VEC3","min":[-1.1687500000000002,0,-1.1687500000000002],"max":[1.1687500000000002,2.5,1.1687500000000002]},{"bufferView":9,"componentType":5126,"count":16,"type":"VEC3","min":[-1.0,0,-0.7071067811865475],"max":[-0.0,0,1.0]},{"bufferView":10,"componentType":5126,"count":16,"type":"VEC2"},{"bufferView":11,"componentType":5123,"count":24,"type":"SCALAR","min":[0],"max":[15]},{"bufferView":12,"componentType":5126,"count":8,"type":"VEC3","min":[-1.1687500000000002,0,-1.1687500000000002],"max":[1.1687500000000002,2.5,1.1687500000000002]},{"bufferView":13,"componentType":5126,"count":8,"type":"VEC3","min":[-1.0,0,6.123233995736766e-17],"max":[-0.0,0,1.0]},{"bufferView":14,"componentType":5126,"count":8,"type":"VEC2"},{"bufferView":15,"componentType":5123,"count":12,"type":"SCALAR","min":[0],"max":[7]}],"samplers":[{"magFilter":9729,"minFilter":9987,"wrapS":10497,"wrapT":10497}],"images":[{"uri":"textures/poly_wild_rooibos_bush.png"},{"uri":"textures/poly_wild_rooibos_bush.png"},{"uri":"impostors/besenginster_c_summer.png"}],"textures":[{"source":0,"sampler":0},{"source":1,"sampler":0},{"source":2,"sampler":0}],"materials":[{"name":"bark","pbrMetallicRoughness":{"baseColorFactor":[0.82,0.82,0.82,1.0],"baseColorTexture":{"index":0},"metallicFactor":0.0,"roughnessFactor":0.91},"doubleSided":false},{"name":"foliage","pbrMetallicRoughness":{"baseColorFactor":[0.5805882352941176,1.0,0.7405882352941177,1.0],"baseColorTexture":{"index":1},"metallicFactor":0.0,"roughnessFactor":0.78},"doubleSided":true,"alphaMode":"MASK","alphaCutoff":0.18},{"name":"whole_tree_impostor","pbrMetallicRoughness":{"baseColorFactor":[1,1,1,1],"baseColorTexture":{"index":2},"metallicFactor":0.0,"roughnessFactor":0.92},"doubleSided":true,"alphaMode":"MASK","alphaCutoff":0.18}]}