{"asset":{"version":"2.0","generator":"Connected Rails CC0 tree importer","copyright":"Mantissa and Poly Haven source models: CC0 1.0; optimisation: Connected Rails"},"scene":0,"scenes":[{"nodes":[0,1,2,3]}],"nodes":[{"name":"crown_LOD0","mesh":0},{"name":"crown_LOD1","mesh":1},{"name":"crown_LOD2","mesh":2},{"name":"crown_LOD3","mesh":3}],"meshes":[{"name":"crown_LOD0","primitives":[{"attributes":{"POSITION":0,"NORMAL":1,"TEXCOORD_0":2},"indices":3,"material":1}]},{"name":"crown_LOD1","primitives":[{"attributes":{"POSITION":4,"NORMAL":5,"TEXCOORD_0":6},"indices":7,"material":1}]},{"name":"crown_LOD2","primitives":[{"attributes":{"POSITION":8,"NORMAL":9,"TEXCOORD_0":10},"indices":11,"material":2}]},{"name":"crown_LOD3","primitives":[{"attributes":{"POSITION":12,"NORMAL":13,"TEXCOORD_0":14},"indices":15,"material":2}]}],"buffers":[{"uri":"besenginster_a.bin","byteLength":947324}],"bufferViews":[{"buffer":0,"byteOffset":0,"byteLength":200796,"target":34962},{"buffer":0,"byteOffset":200796,"byteLength":200796,"target":34962},{"buffer":0,"byteOffset":401592,"byteLength":133864,"target":34962},{"buffer":0,"byteOffset":535456,"byteLength":78906,"target":34963},{"buffer":0,"byteOffset":614364,"byteLength":109056,"target":34962},{"buffer":0,"byteOffset":723420,"byteLength":109056,"target":34962},{"buffer":0,"byteOffset":832476,"byteLength":72704,"target":34962},{"buffer":0,"byteOffset":905180,"byteLength":41304,"target":34963},{"buffer":0,"byteOffset":946484,"byteLength":192,"target":34962},{"buffer":0,"byteOffset":946676,"byteLength":192,"target":34962},{"buffer":0,"byteOffset":946868,"byteLength":128,"target":34962},{"buffer":0,"byteOffset":946996,"byteLength":48,"target":34963},{"buffer":0,"byteOffset":947044,"byteLength":96,"target":34962},{"buffer":0,"byteOffset":947140,"byteLength":96,"target":34962},{"buffer":0,"byteOffset":947236,"byteLength":64,"target":34962},{"buffer":0,"byteOffset":947300,"byteLength":24,"target":34963}],"accessors":[{"bufferView":0,"componentType":5126,"count":16733,"type":"VEC3","min":[-0.35100028225338553,0.0,-0.425],"max":[0.35100028225338553,1.0,0.425]},{"bufferView":1,"componentType":5126,"count":16733,"type":"VEC3","min":[-0.9999852180480957,-0.9999758005142212,-0.9999967217445374],"max":[0.9999634623527527,0.9995167255401611,0.9999797940254211]},{"bufferView":2,"componentType":5126,"count":16733,"type":"VEC2"},{"bufferView":3,"componentType":5123,"count":39453,"type":"SCALAR","min":[0],"max":[16732]},{"bufferView":4,"componentType":5126,"count":9088,"type":"VEC3","min":[-0.36147054013856567,0.0,-0.33724395257634304],"max":[0.3485223180168824,1.0077126677312052,0.4357572973524576]},{"bufferView":5,"componentType":5126,"count":9088,"type":"VEC3","min":[-0.9999852180480957,-0.9999758005142212,-0.9999966025352478],"max":[0.999873697757721,0.9995166659355164,0.9999797940254211]},{"bufferView":6,"componentType":5126,"count":9088,"type":"VEC2"},{"bufferView":7,"componentType":5123,"count":20652,"type":"SCALAR","min":[0],"max":[9087]},{"bufferView":8,"componentType":5126,"count":16,"type":"VEC3","min":[-0.4675,0,-0.4675],"max":[0.4675,1.0,0.4675]},{"bufferView":9,"componentType":5126,"count":16,"type":"VEC3","min":[-1.0,0,-0.7071067811865475],"max":[-0.0,0,1.0]},{"bufferView":10,"componentType":5126,"count":16,"type":"VEC2"},{"bufferView":11,"componentType":5123,"count":24,"type":"SCALAR","min":[0],"max":[15]},{"bufferView":12,"componentType":5126,"count":8,"type":"VEC3","min":[-0.4675,0,-0.4675],"max":[0.4675,1.0,0.4675]},{"bufferView":13,"componentType":5126,"count":8,"type":"VEC3","min":[-1.0,0,6.123233995736766e-17],"max":[-0.0,0,1.0]},{"bufferView":14,"componentType":5126,"count":8,"type":"VEC2"},{"bufferView":15,"componentType":5123,"count":12,"type":"SCALAR","min":[0],"max":[7]}],"samplers":[{"magFilter":9729,"minFilter":9987,"wrapS":10497,"wrapT":10497}],"images":[{"uri":"textures/poly_wild_rooibos_bush.png"},{"uri":"textures/poly_wild_rooibos_bush.png"},{"uri":"impostors/besenginster_a_winter.png"}],"textures":[{"source":0,"sampler":0},{"source":1,"sampler":0},{"source":2,"sampler":0}],"materials":[{"name":"bark","pbrMetallicRoughness":{"baseColorFactor":[0.82,0.82,0.82,1.0],"baseColorTexture":{"index":0},"metallicFactor":0.0,"roughnessFactor":0.91},"doubleSided":false},{"name":"foliage","pbrMetallicRoughness":{"baseColorFactor":[0.6386470588235295,1.0,0.8146470588235295,1.0],"baseColorTexture":{"index":1},"metallicFactor":0.0,"roughnessFactor":0.78},"doubleSided":true,"alphaMode":"MASK","alphaCutoff":0.18},{"name":"whole_tree_impostor","pbrMetallicRoughness":{"baseColorFactor":[1,1,1,1],"baseColorTexture":{"index":2},"metallicFactor":0.0,"roughnessFactor":0.92},"doubleSided":true,"alphaMode":"MASK","alphaCutoff":0.18}]}