{"asset":{"version":"2.0","generator":"Connected Rails CC0 tree importer","copyright":"Mantissa and Poly Haven source models: CC0 1.0; optimisation: Connected Rails"},"scene":0,"scenes":[{"nodes":[0,1,2,3]}],"nodes":[{"name":"crown_LOD0","mesh":0},{"name":"crown_LOD1","mesh":1},{"name":"crown_LOD2","mesh":2},{"name":"crown_LOD3","mesh":3}],"meshes":[{"name":"crown_LOD0","primitives":[{"attributes":{"POSITION":0,"NORMAL":1,"TEXCOORD_0":2},"indices":3,"material":1}]},{"name":"crown_LOD1","primitives":[{"attributes":{"POSITION":4,"NORMAL":5,"TEXCOORD_0":6},"indices":7,"material":1}]},{"name":"crown_LOD2","primitives":[{"attributes":{"POSITION":8,"NORMAL":9,"TEXCOORD_0":10},"indices":11,"material":2}]},{"name":"crown_LOD3","primitives":[{"attributes":{"POSITION":12,"NORMAL":13,"TEXCOORD_0":14},"indices":15,"material":2}]}],"buffers":[{"uri":"besenheide_b.bin","byteLength":442580}],"bufferViews":[{"buffer":0,"byteOffset":0,"byteLength":90744,"target":34962},{"buffer":0,"byteOffset":90744,"byteLength":90744,"target":34962},{"buffer":0,"byteOffset":181488,"byteLength":60496,"target":34962},{"buffer":0,"byteOffset":241984,"byteLength":37722,"target":34963},{"buffer":0,"byteOffset":279708,"byteLength":52572,"target":34962},{"buffer":0,"byteOffset":332280,"byteLength":52572,"target":34962},{"buffer":0,"byteOffset":384852,"byteLength":35048,"target":34962},{"buffer":0,"byteOffset":419900,"byteLength":21840,"target":34963},{"buffer":0,"byteOffset":441740,"byteLength":192,"target":34962},{"buffer":0,"byteOffset":441932,"byteLength":192,"target":34962},{"buffer":0,"byteOffset":442124,"byteLength":128,"target":34962},{"buffer":0,"byteOffset":442252,"byteLength":48,"target":34963},{"buffer":0,"byteOffset":442300,"byteLength":96,"target":34962},{"buffer":0,"byteOffset":442396,"byteLength":96,"target":34962},{"buffer":0,"byteOffset":442492,"byteLength":64,"target":34962},{"buffer":0,"byteOffset":442556,"byteLength":24,"target":34963}],"accessors":[{"bufferView":0,"componentType":5126,"count":7562,"type":"VEC3","min":[-0.35750000000000004,0.0,-0.32366453476202706],"max":[0.35750000000000004,0.55,0.32366453476202706]},{"bufferView":1,"componentType":5126,"count":7562,"type":"VEC3","min":[-0.9998835325241089,-0.9999902844429016,-0.9999108910560608],"max":[0.9999144077301025,0.9999967217445374,0.9998524188995361]},{"bufferView":2,"componentType":5126,"count":7562,"type":"VEC2"},{"bufferView":3,"componentType":5123,"count":18861,"type":"SCALAR","min":[0],"max":[7561]},{"bufferView":4,"componentType":5126,"count":4381,"type":"VEC3","min":[-0.368917316833992,0.0008994092287854745,-0.33617929107947936],"max":[0.37317395635621725,0.5065807009862598,0.3266225026789428]},{"bufferView":5,"componentType":5126,"count":4381,"type":"VEC3","min":[-0.9998921751976013,-0.9999899864196777,-0.9999104738235474],"max":[0.9999217987060547,0.9999969005584717,0.9998518824577332]},{"bufferView":6,"componentType":5126,"count":4381,"type":"VEC2"},{"bufferView":7,"componentType":5123,"count":10920,"type":"SCALAR","min":[0],"max":[4380]},{"bufferView":8,"componentType":5126,"count":16,"type":"VEC3","min":[-0.3932500000000001,0,-0.3932500000000001],"max":[0.3932500000000001,0.55,0.3932500000000001]},{"bufferView":9,"componentType":5126,"count":16,"type":"VEC3","min":[-1.0,0,-0.7071067811865475],"max":[-0.0,0,1.0]},{"bufferView":10,"componentType":5126,"count":16,"type":"VEC2"},{"bufferView":11,"componentType":5123,"count":24,"type":"SCALAR","min":[0],"max":[15]},{"bufferView":12,"componentType":5126,"count":8,"type":"VEC3","min":[-0.3932500000000001,0,-0.3932500000000001],"max":[0.3932500000000001,0.55,0.3932500000000001]},{"bufferView":13,"componentType":5126,"count":8,"type":"VEC3","min":[-1.0,0,6.123233995736766e-17],"max":[-0.0,0,1.0]},{"bufferView":14,"componentType":5126,"count":8,"type":"VEC2"},{"bufferView":15,"componentType":5123,"count":12,"type":"SCALAR","min":[0],"max":[7]}],"samplers":[{"magFilter":9729,"minFilter":9987,"wrapS":10497,"wrapT":10497}],"images":[{"uri":"textures/poly_wild_rooibos_bush.png"},{"uri":"textures/poly_wild_rooibos_bush.png"},{"uri":"impostors/besenheide_b_summer.png"}],"textures":[{"source":0,"sampler":0},{"source":1,"sampler":0},{"source":2,"sampler":0}],"materials":[{"name":"bark","pbrMetallicRoughness":{"baseColorFactor":[0.82,0.82,0.82,1.0],"baseColorTexture":{"index":0},"metallicFactor":0.0,"roughnessFactor":0.91},"doubleSided":false},{"name":"foliage","pbrMetallicRoughness":{"baseColorFactor":[0.6213725490196078,1.0,0.7813725490196078,1.0],"baseColorTexture":{"index":1},"metallicFactor":0.0,"roughnessFactor":0.78},"doubleSided":true,"alphaMode":"MASK","alphaCutoff":0.18},{"name":"whole_tree_impostor","pbrMetallicRoughness":{"baseColorFactor":[1,1,1,1],"baseColorTexture":{"index":2},"metallicFactor":0.0,"roughnessFactor":0.92},"doubleSided":true,"alphaMode":"MASK","alphaCutoff":0.18}]}