{"asset":{"version":"2.0","generator":"Connected Rails CC0 tree importer","copyright":"Mantissa and Poly Haven source models: CC0 1.0; optimisation: Connected Rails"},"scene":0,"scenes":[{"nodes":[0,1,2,3]}],"nodes":[{"name":"crown_LOD0","mesh":0},{"name":"crown_LOD1","mesh":1},{"name":"crown_LOD2","mesh":2},{"name":"crown_LOD3","mesh":3}],"meshes":[{"name":"crown_LOD0","primitives":[{"attributes":{"POSITION":0,"NORMAL":1,"TEXCOORD_0":2},"indices":3,"material":1}]},{"name":"crown_LOD1","primitives":[{"attributes":{"POSITION":4,"NORMAL":5,"TEXCOORD_0":6},"indices":7,"material":1}]},{"name":"crown_LOD2","primitives":[{"attributes":{"POSITION":8,"NORMAL":9,"TEXCOORD_0":10},"indices":11,"material":2}]},{"name":"crown_LOD3","primitives":[{"attributes":{"POSITION":12,"NORMAL":13,"TEXCOORD_0":14},"indices":15,"material":2}]}],"buffers":[{"uri":"besenheide_c.bin","byteLength":302156}],"bufferViews":[{"buffer":0,"byteOffset":0,"byteLength":63084,"target":34962},{"buffer":0,"byteOffset":63084,"byteLength":63084,"target":34962},{"buffer":0,"byteOffset":126168,"byteLength":42056,"target":34962},{"buffer":0,"byteOffset":168224,"byteLength":25224,"target":34963},{"buffer":0,"byteOffset":193448,"byteLength":35316,"target":34962},{"buffer":0,"byteOffset":228764,"byteLength":35316,"target":34962},{"buffer":0,"byteOffset":264080,"byteLength":23544,"target":34962},{"buffer":0,"byteOffset":287624,"byteLength":13692,"target":34963},{"buffer":0,"byteOffset":301316,"byteLength":192,"target":34962},{"buffer":0,"byteOffset":301508,"byteLength":192,"target":34962},{"buffer":0,"byteOffset":301700,"byteLength":128,"target":34962},{"buffer":0,"byteOffset":301828,"byteLength":48,"target":34963},{"buffer":0,"byteOffset":301876,"byteLength":96,"target":34962},{"buffer":0,"byteOffset":301972,"byteLength":96,"target":34962},{"buffer":0,"byteOffset":302068,"byteLength":64,"target":34962},{"buffer":0,"byteOffset":302132,"byteLength":24,"target":34963}],"accessors":[{"bufferView":0,"componentType":5126,"count":5257,"type":"VEC3","min":[-0.4685161742548677,0.0,-0.52],"max":[0.4685161742548677,0.8,0.52]},{"bufferView":1,"componentType":5126,"count":5257,"type":"VEC3","min":[-0.9998656511306763,-0.9999790787696838,-0.9997736215591431],"max":[0.9992249608039856,0.9999279975891113,0.9995540380477905]},{"bufferView":2,"componentType":5126,"count":5257,"type":"VEC2"},{"bufferView":3,"componentType":5123,"count":12612,"type":"SCALAR","min":[0],"max":[5256]},{"bufferView":4,"componentType":5126,"count":2943,"type":"VEC3","min":[-0.4918410478704211,0.0016328996691503904,-0.5422162583638716],"max":[0.48616168018024725,0.8181038044843748,0.5269382908575709]},{"bufferView":5,"componentType":5126,"count":2943,"type":"VEC3","min":[-0.9998657703399658,-0.9999790787696838,-0.9994456768035889],"max":[0.9996488690376282,0.9999279975891113,0.9995540380477905]},{"bufferView":6,"componentType":5126,"count":2943,"type":"VEC2"},{"bufferView":7,"componentType":5123,"count":6846,"type":"SCALAR","min":[0],"max":[2942]},{"bufferView":8,"componentType":5126,"count":16,"type":"VEC3","min":[-0.5720000000000001,0,-0.5720000000000001],"max":[0.5720000000000001,0.8,0.5720000000000001]},{"bufferView":9,"componentType":5126,"count":16,"type":"VEC3","min":[-1.0,0,-0.7071067811865475],"max":[-0.0,0,1.0]},{"bufferView":10,"componentType":5126,"count":16,"type":"VEC2"},{"bufferView":11,"componentType":5123,"count":24,"type":"SCALAR","min":[0],"max":[15]},{"bufferView":12,"componentType":5126,"count":8,"type":"VEC3","min":[-0.5720000000000001,0,-0.5720000000000001],"max":[0.5720000000000001,0.8,0.5720000000000001]},{"bufferView":13,"componentType":5126,"count":8,"type":"VEC3","min":[-1.0,0,6.123233995736766e-17],"max":[-0.0,0,1.0]},{"bufferView":14,"componentType":5126,"count":8,"type":"VEC2"},{"bufferView":15,"componentType":5123,"count":12,"type":"SCALAR","min":[0],"max":[7]}],"samplers":[{"magFilter":9729,"minFilter":9987,"wrapS":10497,"wrapT":10497}],"images":[{"uri":"textures/poly_wild_rooibos_bush.png"},{"uri":"textures/poly_wild_rooibos_bush.png"},{"uri":"impostors/besenheide_c_summer.png"}],"textures":[{"source":0,"sampler":0},{"source":1,"sampler":0},{"source":2,"sampler":0}],"materials":[{"name":"bark","pbrMetallicRoughness":{"baseColorFactor":[0.82,0.82,0.82,1.0],"baseColorTexture":{"index":0},"metallicFactor":0.0,"roughnessFactor":0.91},"doubleSided":false},{"name":"foliage","pbrMetallicRoughness":{"baseColorFactor":[0.6213725490196078,1.0,0.7813725490196078,1.0],"baseColorTexture":{"index":1},"metallicFactor":0.0,"roughnessFactor":0.78},"doubleSided":true,"alphaMode":"MASK","alphaCutoff":0.18},{"name":"whole_tree_impostor","pbrMetallicRoughness":{"baseColorFactor":[1,1,1,1],"baseColorTexture":{"index":2},"metallicFactor":0.0,"roughnessFactor":0.92},"doubleSided":true,"alphaMode":"MASK","alphaCutoff":0.18}]}