{"asset":{"version":"2.0","generator":"Connected Rails CC0 tree importer","copyright":"Mantissa and Poly Haven source models: CC0 1.0; optimisation: Connected Rails"},"scene":0,"scenes":[{"nodes":[0,1,2,3]}],"nodes":[{"name":"crown_LOD0","mesh":0},{"name":"crown_LOD1","mesh":1},{"name":"crown_LOD2","mesh":2},{"name":"crown_LOD3","mesh":3}],"meshes":[{"name":"crown_LOD0","primitives":[{"attributes":{"POSITION":0,"NORMAL":1,"TEXCOORD_0":2},"indices":3,"material":1}]},{"name":"crown_LOD1","primitives":[{"attributes":{"POSITION":4,"NORMAL":5,"TEXCOORD_0":6},"indices":7,"material":1}]},{"name":"crown_LOD2","primitives":[{"attributes":{"POSITION":8,"NORMAL":9,"TEXCOORD_0":10},"indices":11,"material":2}]},{"name":"crown_LOD3","primitives":[{"attributes":{"POSITION":12,"NORMAL":13,"TEXCOORD_0":14},"indices":15,"material":2}]}],"buffers":[{"uri":"besenginster_b.bin","byteLength":442772}],"bufferViews":[{"buffer":0,"byteOffset":0,"byteLength":90816,"target":34962},{"buffer":0,"byteOffset":90816,"byteLength":90816,"target":34962},{"buffer":0,"byteOffset":181632,"byteLength":60544,"target":34962},{"buffer":0,"byteOffset":242176,"byteLength":37722,"target":34963},{"buffer":0,"byteOffset":279900,"byteLength":52572,"target":34962},{"buffer":0,"byteOffset":332472,"byteLength":52572,"target":34962},{"buffer":0,"byteOffset":385044,"byteLength":35048,"target":34962},{"buffer":0,"byteOffset":420092,"byteLength":21840,"target":34963},{"buffer":0,"byteOffset":441932,"byteLength":192,"target":34962},{"buffer":0,"byteOffset":442124,"byteLength":192,"target":34962},{"buffer":0,"byteOffset":442316,"byteLength":128,"target":34962},{"buffer":0,"byteOffset":442444,"byteLength":48,"target":34963},{"buffer":0,"byteOffset":442492,"byteLength":96,"target":34962},{"buffer":0,"byteOffset":442588,"byteLength":96,"target":34962},{"buffer":0,"byteOffset":442684,"byteLength":64,"target":34962},{"buffer":0,"byteOffset":442748,"byteLength":24,"target":34963}],"accessors":[{"bufferView":0,"componentType":5126,"count":7568,"type":"VEC3","min":[-0.74375,0.0,-0.673358035606315],"max":[0.74375,1.7500000000000002,0.673358035606315]},{"bufferView":1,"componentType":5126,"count":7568,"type":"VEC3","min":[-0.9998891353607178,-0.9999773502349854,-0.9999176263809204],"max":[0.9999200701713562,0.999992311000824,0.9998590350151062]},{"bufferView":2,"componentType":5126,"count":7568,"type":"VEC2"},{"bufferView":3,"componentType":5123,"count":18861,"type":"SCALAR","min":[0],"max":[7567]},{"bufferView":4,"componentType":5126,"count":4381,"type":"VEC3","min":[-0.767502809497291,0.0028617566370446918,-0.6993939796933224],"max":[0.7763584057061161,1.6118476849562815,0.6795118499789194]},{"bufferView":5,"componentType":5126,"count":4381,"type":"VEC3","min":[-0.9998977184295654,-0.9999765753746033,-0.9999170899391174],"max":[0.9999274015426636,0.9999927878379822,0.9998586177825928]},{"bufferView":6,"componentType":5126,"count":4381,"type":"VEC2"},{"bufferView":7,"componentType":5123,"count":10920,"type":"SCALAR","min":[0],"max":[4380]},{"bufferView":8,"componentType":5126,"count":16,"type":"VEC3","min":[-0.8181250000000001,0,-0.8181250000000001],"max":[0.8181250000000001,1.75,0.8181250000000001]},{"bufferView":9,"componentType":5126,"count":16,"type":"VEC3","min":[-1.0,0,-0.7071067811865475],"max":[-0.0,0,1.0]},{"bufferView":10,"componentType":5126,"count":16,"type":"VEC2"},{"bufferView":11,"componentType":5123,"count":24,"type":"SCALAR","min":[0],"max":[15]},{"bufferView":12,"componentType":5126,"count":8,"type":"VEC3","min":[-0.8181250000000001,0,-0.8181250000000001],"max":[0.8181250000000001,1.75,0.8181250000000001]},{"bufferView":13,"componentType":5126,"count":8,"type":"VEC3","min":[-1.0,0,6.123233995736766e-17],"max":[-0.0,0,1.0]},{"bufferView":14,"componentType":5126,"count":8,"type":"VEC2"},{"bufferView":15,"componentType":5123,"count":12,"type":"SCALAR","min":[0],"max":[7]}],"samplers":[{"magFilter":9729,"minFilter":9987,"wrapS":10497,"wrapT":10497}],"images":[{"uri":"textures/poly_wild_rooibos_bush.png"},{"uri":"textures/poly_wild_rooibos_bush.png"},{"uri":"impostors/besenginster_b_summer.png"}],"textures":[{"source":0,"sampler":0},{"source":1,"sampler":0},{"source":2,"sampler":0}],"materials":[{"name":"bark","pbrMetallicRoughness":{"baseColorFactor":[0.82,0.82,0.82,1.0],"baseColorTexture":{"index":0},"metallicFactor":0.0,"roughnessFactor":0.91},"doubleSided":false},{"name":"foliage","pbrMetallicRoughness":{"baseColorFactor":[0.5805882352941176,1.0,0.7405882352941177,1.0],"baseColorTexture":{"index":1},"metallicFactor":0.0,"roughnessFactor":0.78},"doubleSided":true,"alphaMode":"MASK","alphaCutoff":0.18},{"name":"whole_tree_impostor","pbrMetallicRoughness":{"baseColorFactor":[1,1,1,1],"baseColorTexture":{"index":2},"metallicFactor":0.0,"roughnessFactor":0.92},"doubleSided":true,"alphaMode":"MASK","alphaCutoff":0.18}]}