{"asset":{"version":"2.0","generator":"Connected Rails CC0 tree importer","copyright":"Mantissa and Poly Haven source models: CC0 1.0; optimisation: Connected Rails"},"scene":0,"scenes":[{"nodes":[0,1,2,3]}],"nodes":[{"name":"crown_LOD0","mesh":0},{"name":"crown_LOD1","mesh":1},{"name":"crown_LOD2","mesh":2},{"name":"crown_LOD3","mesh":3}],"meshes":[{"name":"crown_LOD0","primitives":[{"attributes":{"POSITION":0,"NORMAL":1,"TEXCOORD_0":2},"indices":3,"material":1}]},{"name":"crown_LOD1","primitives":[{"attributes":{"POSITION":4,"NORMAL":5,"TEXCOORD_0":6},"indices":7,"material":1}]},{"name":"crown_LOD2","primitives":[{"attributes":{"POSITION":8,"NORMAL":9,"TEXCOORD_0":10},"indices":11,"material":2}]},{"name":"crown_LOD3","primitives":[{"attributes":{"POSITION":12,"NORMAL":13,"TEXCOORD_0":14},"indices":15,"material":2}]}],"buffers":[{"uri":"besenheide_a.bin","byteLength":948412}],"bufferViews":[{"buffer":0,"byteOffset":0,"byteLength":201204,"target":34962},{"buffer":0,"byteOffset":201204,"byteLength":201204,"target":34962},{"buffer":0,"byteOffset":402408,"byteLength":134136,"target":34962},{"buffer":0,"byteOffset":536544,"byteLength":78906,"target":34963},{"buffer":0,"byteOffset":615452,"byteLength":109056,"target":34962},{"buffer":0,"byteOffset":724508,"byteLength":109056,"target":34962},{"buffer":0,"byteOffset":833564,"byteLength":72704,"target":34962},{"buffer":0,"byteOffset":906268,"byteLength":41304,"target":34963},{"buffer":0,"byteOffset":947572,"byteLength":192,"target":34962},{"buffer":0,"byteOffset":947764,"byteLength":192,"target":34962},{"buffer":0,"byteOffset":947956,"byteLength":128,"target":34962},{"buffer":0,"byteOffset":948084,"byteLength":48,"target":34963},{"buffer":0,"byteOffset":948132,"byteLength":96,"target":34962},{"buffer":0,"byteOffset":948228,"byteLength":96,"target":34962},{"buffer":0,"byteOffset":948324,"byteLength":64,"target":34962},{"buffer":0,"byteOffset":948388,"byteLength":24,"target":34963}],"accessors":[{"bufferView":0,"componentType":5126,"count":16767,"type":"VEC3","min":[-0.16104718832802395,0.0,-0.195],"max":[0.16104718832802395,0.3,0.195]},{"bufferView":1,"componentType":5126,"count":16767,"type":"VEC3","min":[-0.9999852180480957,-0.9999896287918091,-0.999995231628418],"max":[0.9999622702598572,0.999793291091919,0.9999688863754272]},{"bufferView":2,"componentType":5126,"count":16767,"type":"VEC2"},{"bufferView":3,"componentType":5123,"count":39453,"type":"SCALAR","min":[0],"max":[16766]},{"bufferView":4,"componentType":5126,"count":9088,"type":"VEC3","min":[-0.16585118900475365,0.0,-0.15473546059385151],"max":[0.15991024003127544,0.3023138003193615,0.19993570113818643]},{"bufferView":5,"componentType":5126,"count":9088,"type":"VEC3","min":[-0.9999852180480957,-0.9999896287918091,-0.9999951720237732],"max":[0.9997943639755249,0.999793291091919,0.9999688863754272]},{"bufferView":6,"componentType":5126,"count":9088,"type":"VEC2"},{"bufferView":7,"componentType":5123,"count":20652,"type":"SCALAR","min":[0],"max":[9087]},{"bufferView":8,"componentType":5126,"count":16,"type":"VEC3","min":[-0.21450000000000002,0,-0.21450000000000002],"max":[0.21450000000000002,0.3,0.21450000000000002]},{"bufferView":9,"componentType":5126,"count":16,"type":"VEC3","min":[-1.0,0,-0.7071067811865475],"max":[-0.0,0,1.0]},{"bufferView":10,"componentType":5126,"count":16,"type":"VEC2"},{"bufferView":11,"componentType":5123,"count":24,"type":"SCALAR","min":[0],"max":[15]},{"bufferView":12,"componentType":5126,"count":8,"type":"VEC3","min":[-0.21450000000000002,0,-0.21450000000000002],"max":[0.21450000000000002,0.3,0.21450000000000002]},{"bufferView":13,"componentType":5126,"count":8,"type":"VEC3","min":[-1.0,0,6.123233995736766e-17],"max":[-0.0,0,1.0]},{"bufferView":14,"componentType":5126,"count":8,"type":"VEC2"},{"bufferView":15,"componentType":5123,"count":12,"type":"SCALAR","min":[0],"max":[7]}],"samplers":[{"magFilter":9729,"minFilter":9987,"wrapS":10497,"wrapT":10497}],"images":[{"uri":"textures/poly_wild_rooibos_bush.png"},{"uri":"textures/poly_wild_rooibos_bush.png"},{"uri":"impostors/besenheide_a_summer.png"}],"textures":[{"source":0,"sampler":0},{"source":1,"sampler":0},{"source":2,"sampler":0}],"materials":[{"name":"bark","pbrMetallicRoughness":{"baseColorFactor":[0.82,0.82,0.82,1.0],"baseColorTexture":{"index":0},"metallicFactor":0.0,"roughnessFactor":0.91},"doubleSided":false},{"name":"foliage","pbrMetallicRoughness":{"baseColorFactor":[0.6213725490196078,1.0,0.7813725490196078,1.0],"baseColorTexture":{"index":1},"metallicFactor":0.0,"roughnessFactor":0.78},"doubleSided":true,"alphaMode":"MASK","alphaCutoff":0.18},{"name":"whole_tree_impostor","pbrMetallicRoughness":{"baseColorFactor":[1,1,1,1],"baseColorTexture":{"index":2},"metallicFactor":0.0,"roughnessFactor":0.92},"doubleSided":true,"alphaMode":"MASK","alphaCutoff":0.18}]}