{"asset":{"version":"2.0","generator":"Connected Rails CC0 tree importer","copyright":"Mantissa and Poly Haven source models: CC0 1.0; optimisation: Connected Rails"},"scene":0,"scenes":[{"nodes":[0,1,2,3]}],"nodes":[{"name":"crown_LOD0","mesh":0},{"name":"crown_LOD1","mesh":1},{"name":"crown_LOD2","mesh":2},{"name":"crown_LOD3","mesh":3}],"meshes":[{"name":"crown_LOD0","primitives":[{"attributes":{"POSITION":0,"NORMAL":1,"TEXCOORD_0":2},"indices":3,"material":1}]},{"name":"crown_LOD1","primitives":[{"attributes":{"POSITION":4,"NORMAL":5,"TEXCOORD_0":6},"indices":7,"material":1}]},{"name":"crown_LOD2","primitives":[{"attributes":{"POSITION":8,"NORMAL":9,"TEXCOORD_0":10},"indices":11,"material":2}]},{"name":"crown_LOD3","primitives":[{"attributes":{"POSITION":12,"NORMAL":13,"TEXCOORD_0":14},"indices":15,"material":2}]}],"buffers":[{"uri":"brennnessel_c.bin","byteLength":187696}],"bufferViews":[{"buffer":0,"byteOffset":0,"byteLength":45288,"target":34962},{"buffer":0,"byteOffset":45288,"byteLength":45288,"target":34962},{"buffer":0,"byteOffset":90576,"byteLength":30192,"target":34962},{"buffer":0,"byteOffset":120768,"byteLength":35376,"target":34963},{"buffer":0,"byteOffset":156144,"byteLength":9600,"target":34962},{"buffer":0,"byteOffset":165744,"byteLength":9600,"target":34962},{"buffer":0,"byteOffset":175344,"byteLength":6400,"target":34962},{"buffer":0,"byteOffset":181744,"byteLength":5112,"target":34963},{"buffer":0,"byteOffset":186856,"byteLength":192,"target":34962},{"buffer":0,"byteOffset":187048,"byteLength":192,"target":34962},{"buffer":0,"byteOffset":187240,"byteLength":128,"target":34962},{"buffer":0,"byteOffset":187368,"byteLength":48,"target":34963},{"buffer":0,"byteOffset":187416,"byteLength":96,"target":34962},{"buffer":0,"byteOffset":187512,"byteLength":96,"target":34962},{"buffer":0,"byteOffset":187608,"byteLength":64,"target":34962},{"buffer":0,"byteOffset":187672,"byteLength":24,"target":34963}],"accessors":[{"bufferView":0,"componentType":5126,"count":3774,"type":"VEC3","min":[-0.585745809266519,0.0,-0.675],"max":[0.585745809266519,1.5,0.675]},{"bufferView":1,"componentType":5126,"count":3774,"type":"VEC3","min":[-0.9982737898826599,-0.32999828457832336,-0.992703914642334],"max":[0.9970499873161316,0.9997785687446594,0.999621570110321]},{"bufferView":2,"componentType":5126,"count":3774,"type":"VEC2"},{"bufferView":3,"componentType":5123,"count":17688,"type":"SCALAR","min":[0],"max":[3773]},{"bufferView":4,"componentType":5126,"count":800,"type":"VEC3","min":[-0.5894464338506497,-0.00015763252539199466,-0.6749999435329501],"max":[0.5857453575301196,1.5006796085753995,0.6850333477665902]},{"bufferView":5,"componentType":5126,"count":800,"type":"VEC3","min":[-0.9982279539108276,-0.3382991850376129,-0.9681728482246399],"max":[0.9973695278167725,0.9988581538200378,0.9858667850494385]},{"bufferView":6,"componentType":5126,"count":800,"type":"VEC2"},{"bufferView":7,"componentType":5123,"count":2556,"type":"SCALAR","min":[0],"max":[799]},{"bufferView":8,"componentType":5126,"count":16,"type":"VEC3","min":[-0.7425000000000002,0,-0.7425000000000002],"max":[0.7425000000000002,1.5,0.7425000000000002]},{"bufferView":9,"componentType":5126,"count":16,"type":"VEC3","min":[-1.0,0,-0.7071067811865475],"max":[-0.0,0,1.0]},{"bufferView":10,"componentType":5126,"count":16,"type":"VEC2"},{"bufferView":11,"componentType":5123,"count":24,"type":"SCALAR","min":[0],"max":[15]},{"bufferView":12,"componentType":5126,"count":8,"type":"VEC3","min":[-0.7425000000000002,0,-0.7425000000000002],"max":[0.7425000000000002,1.5,0.7425000000000002]},{"bufferView":13,"componentType":5126,"count":8,"type":"VEC3","min":[-1.0,0,6.123233995736766e-17],"max":[-0.0,0,1.0]},{"bufferView":14,"componentType":5126,"count":8,"type":"VEC2"},{"bufferView":15,"componentType":5123,"count":12,"type":"SCALAR","min":[0],"max":[7]}],"samplers":[{"magFilter":9729,"minFilter":9987,"wrapS":10497,"wrapT":10497}],"images":[{"uri":"textures/poly_nettle_plant.png"},{"uri":"textures/poly_nettle_plant.png"},{"uri":"impostors/brennnessel_c_autumn.png"}],"textures":[{"source":0,"sampler":0},{"source":1,"sampler":0},{"source":2,"sampler":0}],"materials":[{"name":"bark","pbrMetallicRoughness":{"baseColorFactor":[0.82,0.82,0.82,1.0],"baseColorTexture":{"index":0},"metallicFactor":0.0,"roughnessFactor":0.91},"doubleSided":false},{"name":"foliage","pbrMetallicRoughness":{"baseColorFactor":[0.72,0.42,0.09,1.0],"baseColorTexture":{"index":1},"metallicFactor":0.0,"roughnessFactor":0.78},"doubleSided":true,"alphaMode":"MASK","alphaCutoff":0.18},{"name":"whole_tree_impostor","pbrMetallicRoughness":{"baseColorFactor":[1,1,1,1],"baseColorTexture":{"index":2},"metallicFactor":0.0,"roughnessFactor":0.92},"doubleSided":true,"alphaMode":"MASK","alphaCutoff":0.18}]}