{"asset":{"version":"2.0","generator":"Connected Rails CC0 tree importer","copyright":"Mantissa and Poly Haven source models: CC0 1.0; optimisation: Connected Rails"},"scene":0,"scenes":[{"nodes":[0,1,2,3]}],"nodes":[{"name":"crown_LOD0","mesh":0},{"name":"crown_LOD1","mesh":1},{"name":"crown_LOD2","mesh":2},{"name":"crown_LOD3","mesh":3}],"meshes":[{"name":"crown_LOD0","primitives":[{"attributes":{"POSITION":0,"NORMAL":1,"TEXCOORD_0":2},"indices":3,"material":1}]},{"name":"crown_LOD1","primitives":[{"attributes":{"POSITION":4,"NORMAL":5,"TEXCOORD_0":6},"indices":7,"material":1}]},{"name":"crown_LOD2","primitives":[{"attributes":{"POSITION":8,"NORMAL":9,"TEXCOORD_0":10},"indices":11,"material":2}]},{"name":"crown_LOD3","primitives":[{"attributes":{"POSITION":12,"NORMAL":13,"TEXCOORD_0":14},"indices":15,"material":2}]}],"buffers":[{"uri":"brennnessel_a.bin","byteLength":220652}],"bufferViews":[{"buffer":0,"byteOffset":0,"byteLength":53412,"target":34962},{"buffer":0,"byteOffset":53412,"byteLength":53412,"target":34962},{"buffer":0,"byteOffset":106824,"byteLength":35608,"target":34962},{"buffer":0,"byteOffset":142432,"byteLength":41904,"target":34963},{"buffer":0,"byteOffset":184336,"byteLength":11112,"target":34962},{"buffer":0,"byteOffset":195448,"byteLength":11112,"target":34962},{"buffer":0,"byteOffset":206560,"byteLength":7408,"target":34962},{"buffer":0,"byteOffset":213968,"byteLength":5844,"target":34963},{"buffer":0,"byteOffset":219812,"byteLength":192,"target":34962},{"buffer":0,"byteOffset":220004,"byteLength":192,"target":34962},{"buffer":0,"byteOffset":220196,"byteLength":128,"target":34962},{"buffer":0,"byteOffset":220324,"byteLength":48,"target":34963},{"buffer":0,"byteOffset":220372,"byteLength":96,"target":34962},{"buffer":0,"byteOffset":220468,"byteLength":96,"target":34962},{"buffer":0,"byteOffset":220564,"byteLength":64,"target":34962},{"buffer":0,"byteOffset":220628,"byteLength":24,"target":34963}],"accessors":[{"bufferView":0,"componentType":5126,"count":4451,"type":"VEC3","min":[-0.225,0.0,-0.19560474011298726],"max":[0.225,0.5,0.19560474011298726]},{"bufferView":1,"componentType":5126,"count":4451,"type":"VEC3","min":[-0.9999745488166809,-0.5641737580299377,-0.999907374382019],"max":[0.9998157024383545,0.9999769926071167,0.9999508261680603]},{"bufferView":2,"componentType":5126,"count":4451,"type":"VEC2"},{"bufferView":3,"componentType":5123,"count":20952,"type":"SCALAR","min":[0],"max":[4450]},{"bufferView":4,"componentType":5126,"count":926,"type":"VEC3","min":[-0.22887703849653865,-4.9429604850967994e-05,-0.20167067576754744],"max":[0.2266717159521159,0.5005426011059523,0.20226027431743845]},{"bufferView":5,"componentType":5126,"count":926,"type":"VEC3","min":[-0.9883168339729309,-0.5895150899887085,-0.9886581897735596],"max":[0.9980348944664001,0.9994480609893799,0.9790492653846741]},{"bufferView":6,"componentType":5126,"count":926,"type":"VEC2"},{"bufferView":7,"componentType":5123,"count":2922,"type":"SCALAR","min":[0],"max":[925]},{"bufferView":8,"componentType":5126,"count":16,"type":"VEC3","min":[-0.24750000000000003,0,-0.24750000000000003],"max":[0.24750000000000003,0.5,0.24750000000000003]},{"bufferView":9,"componentType":5126,"count":16,"type":"VEC3","min":[-1.0,0,-0.7071067811865475],"max":[-0.0,0,1.0]},{"bufferView":10,"componentType":5126,"count":16,"type":"VEC2"},{"bufferView":11,"componentType":5123,"count":24,"type":"SCALAR","min":[0],"max":[15]},{"bufferView":12,"componentType":5126,"count":8,"type":"VEC3","min":[-0.24750000000000003,0,-0.24750000000000003],"max":[0.24750000000000003,0.5,0.24750000000000003]},{"bufferView":13,"componentType":5126,"count":8,"type":"VEC3","min":[-1.0,0,6.123233995736766e-17],"max":[-0.0,0,1.0]},{"bufferView":14,"componentType":5126,"count":8,"type":"VEC2"},{"bufferView":15,"componentType":5123,"count":12,"type":"SCALAR","min":[0],"max":[7]}],"samplers":[{"magFilter":9729,"minFilter":9987,"wrapS":10497,"wrapT":10497}],"images":[{"uri":"textures/poly_nettle_plant.png"},{"uri":"textures/poly_nettle_plant.png"},{"uri":"impostors/brennnessel_a_winter.png"}],"textures":[{"source":0,"sampler":0},{"source":1,"sampler":0},{"source":2,"sampler":0}],"materials":[{"name":"bark","pbrMetallicRoughness":{"baseColorFactor":[0.82,0.82,0.82,1.0],"baseColorTexture":{"index":0},"metallicFactor":0.0,"roughnessFactor":0.91},"doubleSided":false},{"name":"foliage","pbrMetallicRoughness":{"baseColorFactor":[0.48,0.31,0.17,1.0],"baseColorTexture":{"index":1},"metallicFactor":0.0,"roughnessFactor":0.78},"doubleSided":true,"alphaMode":"MASK","alphaCutoff":0.18},{"name":"whole_tree_impostor","pbrMetallicRoughness":{"baseColorFactor":[1,1,1,1],"baseColorTexture":{"index":2},"metallicFactor":0.0,"roughnessFactor":0.92},"doubleSided":true,"alphaMode":"MASK","alphaCutoff":0.18}]}