{"asset":{"version":"2.0","generator":"Connected Rails CC0 tree importer","copyright":"Mantissa and Poly Haven source models: CC0 1.0; optimisation: Connected Rails"},"scene":0,"scenes":[{"nodes":[0,1,2,3]}],"nodes":[{"name":"crown_LOD0","mesh":0},{"name":"crown_LOD1","mesh":1},{"name":"crown_LOD2","mesh":2},{"name":"crown_LOD3","mesh":3}],"meshes":[{"name":"crown_LOD0","primitives":[{"attributes":{"POSITION":0,"NORMAL":1,"TEXCOORD_0":2},"indices":3,"material":1}]},{"name":"crown_LOD1","primitives":[{"attributes":{"POSITION":4,"NORMAL":5,"TEXCOORD_0":6},"indices":7,"material":1}]},{"name":"crown_LOD2","primitives":[{"attributes":{"POSITION":8,"NORMAL":9,"TEXCOORD_0":10},"indices":11,"material":2}]},{"name":"crown_LOD3","primitives":[{"attributes":{"POSITION":12,"NORMAL":13,"TEXCOORD_0":14},"indices":15,"material":2}]}],"buffers":[{"uri":"brennnessel_b.bin","byteLength":257816}],"bufferViews":[{"buffer":0,"byteOffset":0,"byteLength":62364,"target":34962},{"buffer":0,"byteOffset":62364,"byteLength":62364,"target":34962},{"buffer":0,"byteOffset":124728,"byteLength":41576,"target":34962},{"buffer":0,"byteOffset":166304,"byteLength":48480,"target":34963},{"buffer":0,"byteOffset":214784,"byteLength":13248,"target":34962},{"buffer":0,"byteOffset":228032,"byteLength":13248,"target":34962},{"buffer":0,"byteOffset":241280,"byteLength":8832,"target":34962},{"buffer":0,"byteOffset":250112,"byteLength":6864,"target":34963},{"buffer":0,"byteOffset":256976,"byteLength":192,"target":34962},{"buffer":0,"byteOffset":257168,"byteLength":192,"target":34962},{"buffer":0,"byteOffset":257360,"byteLength":128,"target":34962},{"buffer":0,"byteOffset":257488,"byteLength":48,"target":34963},{"buffer":0,"byteOffset":257536,"byteLength":96,"target":34962},{"buffer":0,"byteOffset":257632,"byteLength":96,"target":34962},{"buffer":0,"byteOffset":257728,"byteLength":64,"target":34962},{"buffer":0,"byteOffset":257792,"byteLength":24,"target":34963}],"accessors":[{"bufferView":0,"componentType":5126,"count":5197,"type":"VEC3","min":[-0.3912568611738561,0.0,-0.45000000000000007],"max":[0.3912568611738561,0.9999999999999999,0.45000000000000007]},{"bufferView":1,"componentType":5126,"count":5197,"type":"VEC3","min":[-0.9996051788330078,-0.9280936121940613,-0.997148334980011],"max":[0.9974991679191589,0.9999342560768127,0.9994565844535828]},{"bufferView":2,"componentType":5126,"count":5197,"type":"VEC2"},{"bufferView":3,"componentType":5123,"count":24240,"type":"SCALAR","min":[0],"max":[5196]},{"bufferView":4,"componentType":5126,"count":1104,"type":"VEC3","min":[-0.3955464559144461,-0.0006504387100420561,-0.4499999291795487],"max":[0.40505594284506297,1.0002539089432583,0.44999996458977437]},{"bufferView":5,"componentType":5126,"count":1104,"type":"VEC3","min":[-0.9963743686676025,-0.8989717364311218,-0.9894868731498718],"max":[0.9988630414009094,0.9994289875030518,0.9981922507286072]},{"bufferView":6,"componentType":5126,"count":1104,"type":"VEC2"},{"bufferView":7,"componentType":5123,"count":3432,"type":"SCALAR","min":[0],"max":[1103]},{"bufferView":8,"componentType":5126,"count":16,"type":"VEC3","min":[-0.49500000000000005,0,-0.49500000000000005],"max":[0.49500000000000005,1.0,0.49500000000000005]},{"bufferView":9,"componentType":5126,"count":16,"type":"VEC3","min":[-1.0,0,-0.7071067811865475],"max":[-0.0,0,1.0]},{"bufferView":10,"componentType":5126,"count":16,"type":"VEC2"},{"bufferView":11,"componentType":5123,"count":24,"type":"SCALAR","min":[0],"max":[15]},{"bufferView":12,"componentType":5126,"count":8,"type":"VEC3","min":[-0.49500000000000005,0,-0.49500000000000005],"max":[0.49500000000000005,1.0,0.49500000000000005]},{"bufferView":13,"componentType":5126,"count":8,"type":"VEC3","min":[-1.0,0,6.123233995736766e-17],"max":[-0.0,0,1.0]},{"bufferView":14,"componentType":5126,"count":8,"type":"VEC2"},{"bufferView":15,"componentType":5123,"count":12,"type":"SCALAR","min":[0],"max":[7]}],"samplers":[{"magFilter":9729,"minFilter":9987,"wrapS":10497,"wrapT":10497}],"images":[{"uri":"textures/poly_nettle_plant.png"},{"uri":"textures/poly_nettle_plant.png"},{"uri":"impostors/brennnessel_b_autumn.png"}],"textures":[{"source":0,"sampler":0},{"source":1,"sampler":0},{"source":2,"sampler":0}],"materials":[{"name":"bark","pbrMetallicRoughness":{"baseColorFactor":[0.82,0.82,0.82,1.0],"baseColorTexture":{"index":0},"metallicFactor":0.0,"roughnessFactor":0.91},"doubleSided":false},{"name":"foliage","pbrMetallicRoughness":{"baseColorFactor":[0.72,0.42,0.09,1.0],"baseColorTexture":{"index":1},"metallicFactor":0.0,"roughnessFactor":0.78},"doubleSided":true,"alphaMode":"MASK","alphaCutoff":0.18},{"name":"whole_tree_impostor","pbrMetallicRoughness":{"baseColorFactor":[1,1,1,1],"baseColorTexture":{"index":2},"metallicFactor":0.0,"roughnessFactor":0.92},"doubleSided":true,"alphaMode":"MASK","alphaCutoff":0.18}]}