{"asset":{"version":"2.0","generator":"Connected Rails CC0 tree importer","copyright":"Mantissa and Poly Haven source models: CC0 1.0; optimisation: Connected Rails"},"scene":0,"scenes":[{"nodes":[0,1,2,3]}],"nodes":[{"name":"crown_LOD0","mesh":0},{"name":"crown_LOD1","mesh":1},{"name":"crown_LOD2","mesh":2},{"name":"crown_LOD3","mesh":3}],"meshes":[{"name":"crown_LOD0","primitives":[{"attributes":{"POSITION":0,"NORMAL":1,"TEXCOORD_0":2},"indices":3,"material":1}]},{"name":"crown_LOD1","primitives":[{"attributes":{"POSITION":4,"NORMAL":5,"TEXCOORD_0":6},"indices":7,"material":1}]},{"name":"crown_LOD2","primitives":[{"attributes":{"POSITION":8,"NORMAL":9,"TEXCOORD_0":10},"indices":11,"material":2}]},{"name":"crown_LOD3","primitives":[{"attributes":{"POSITION":12,"NORMAL":13,"TEXCOORD_0":14},"indices":15,"material":2}]}],"buffers":[{"uri":"brombeere_b.bin","byteLength":1960324}],"bufferViews":[{"buffer":0,"byteOffset":0,"byteLength":410184,"target":34962},{"buffer":0,"byteOffset":410184,"byteLength":410184,"target":34962},{"buffer":0,"byteOffset":820368,"byteLength":273456,"target":34962},{"buffer":0,"byteOffset":1093824,"byteLength":166206,"target":34963},{"buffer":0,"byteOffset":1260032,"byteLength":232068,"target":34962},{"buffer":0,"byteOffset":1492100,"byteLength":232068,"target":34962},{"buffer":0,"byteOffset":1724168,"byteLength":154712,"target":34962},{"buffer":0,"byteOffset":1878880,"byteLength":80604,"target":34963},{"buffer":0,"byteOffset":1959484,"byteLength":192,"target":34962},{"buffer":0,"byteOffset":1959676,"byteLength":192,"target":34962},{"buffer":0,"byteOffset":1959868,"byteLength":128,"target":34962},{"buffer":0,"byteOffset":1959996,"byteLength":48,"target":34963},{"buffer":0,"byteOffset":1960044,"byteLength":96,"target":34962},{"buffer":0,"byteOffset":1960140,"byteLength":96,"target":34962},{"buffer":0,"byteOffset":1960236,"byteLength":64,"target":34962},{"buffer":0,"byteOffset":1960300,"byteLength":24,"target":34963}],"accessors":[{"bufferView":0,"componentType":5126,"count":34182,"type":"VEC3","min":[-1.4437499999999999,0.0,-0.9996035670930591],"max":[1.4437499999999999,1.75,0.9996035670930591]},{"bufferView":1,"componentType":5126,"count":34182,"type":"VEC3","min":[-0.9999123215675354,-0.9997615218162537,-0.9996758103370667],"max":[0.9999278783798218,0.9999171495437622,0.9999476075172424]},{"bufferView":2,"componentType":5126,"count":34182,"type":"VEC2"},{"bufferView":3,"componentType":5123,"count":83103,"type":"SCALAR","min":[0],"max":[34181]},{"bufferView":4,"componentType":5126,"count":19339,"type":"VEC3","min":[-1.4391507797531435,0.00012979867295567852,-1.006940513557796],"max":[1.4437806281768157,1.750097490123069,0.8660390817236774]},{"bufferView":5,"componentType":5126,"count":19339,"type":"VEC3","min":[-0.9995221495628357,-0.9997615814208984,-0.9996165037155151],"max":[0.9990832805633545,0.9997659921646118,0.9997435212135315]},{"bufferView":6,"componentType":5126,"count":19339,"type":"VEC2"},{"bufferView":7,"componentType":5123,"count":40302,"type":"SCALAR","min":[0],"max":[19338]},{"bufferView":8,"componentType":5126,"count":16,"type":"VEC3","min":[-1.588125,0,-1.588125],"max":[1.588125,1.75,1.588125]},{"bufferView":9,"componentType":5126,"count":16,"type":"VEC3","min":[-1.0,0,-0.7071067811865475],"max":[-0.0,0,1.0]},{"bufferView":10,"componentType":5126,"count":16,"type":"VEC2"},{"bufferView":11,"componentType":5123,"count":24,"type":"SCALAR","min":[0],"max":[15]},{"bufferView":12,"componentType":5126,"count":8,"type":"VEC3","min":[-1.588125,0,-1.588125],"max":[1.588125,1.75,1.588125]},{"bufferView":13,"componentType":5126,"count":8,"type":"VEC3","min":[-1.0,0,6.123233995736766e-17],"max":[-0.0,0,1.0]},{"bufferView":14,"componentType":5126,"count":8,"type":"VEC2"},{"bufferView":15,"componentType":5123,"count":12,"type":"SCALAR","min":[0],"max":[7]}],"samplers":[{"magFilter":9729,"minFilter":9987,"wrapS":10497,"wrapT":10497}],"images":[{"uri":"textures/poly_searsia_lucida.png"},{"uri":"textures/poly_searsia_lucida.png"},{"uri":"impostors/brombeere_b_winter.png"}],"textures":[{"source":0,"sampler":0},{"source":1,"sampler":0},{"source":2,"sampler":0}],"materials":[{"name":"bark","pbrMetallicRoughness":{"baseColorFactor":[0.82,0.82,0.82,1.0],"baseColorTexture":{"index":0},"metallicFactor":0.0,"roughnessFactor":0.91},"doubleSided":false},{"name":"foliage","pbrMetallicRoughness":{"baseColorFactor":[0.48,0.31,0.17,1.0],"baseColorTexture":{"index":1},"metallicFactor":0.0,"roughnessFactor":0.78},"doubleSided":true,"alphaMode":"MASK","alphaCutoff":0.18},{"name":"whole_tree_impostor","pbrMetallicRoughness":{"baseColorFactor":[1,1,1,1],"baseColorTexture":{"index":2},"metallicFactor":0.0,"roughnessFactor":0.92},"doubleSided":true,"alphaMode":"MASK","alphaCutoff":0.18}]}