{"asset":{"version":"2.0","generator":"Connected Rails CC0 tree importer","copyright":"Mantissa and Poly Haven source models: CC0 1.0; optimisation: Connected Rails"},"scene":0,"scenes":[{"nodes":[0,1,2,3]}],"nodes":[{"name":"crown_LOD0","mesh":0},{"name":"crown_LOD1","mesh":1},{"name":"crown_LOD2","mesh":2},{"name":"crown_LOD3","mesh":3}],"meshes":[{"name":"crown_LOD0","primitives":[{"attributes":{"POSITION":0,"NORMAL":1,"TEXCOORD_0":2},"indices":3,"material":0},{"attributes":{"POSITION":4,"NORMAL":5,"TEXCOORD_0":6},"indices":7,"material":1}]},{"name":"crown_LOD1","primitives":[{"attributes":{"POSITION":8,"NORMAL":9,"TEXCOORD_0":10},"indices":11,"material":0},{"attributes":{"POSITION":12,"NORMAL":13,"TEXCOORD_0":14},"indices":15,"material":1}]},{"name":"crown_LOD2","primitives":[{"attributes":{"POSITION":16,"NORMAL":17,"TEXCOORD_0":18},"indices":19,"material":2}]},{"name":"crown_LOD3","primitives":[{"attributes":{"POSITION":20,"NORMAL":21,"TEXCOORD_0":22},"indices":23,"material":2}]}],"buffers":[{"uri":"douglasie_a.bin","byteLength":8550812}],"bufferViews":[{"buffer":0,"byteOffset":0,"byteLength":371940,"target":34962},{"buffer":0,"byteOffset":371940,"byteLength":371940,"target":34962},{"buffer":0,"byteOffset":743880,"byteLength":247960,"target":34962},{"buffer":0,"byteOffset":991840,"byteLength":356520,"target":34963},{"buffer":0,"byteOffset":1348360,"byteLength":1517796,"target":34962},{"buffer":0,"byteOffset":2866156,"byteLength":1517796,"target":34962},{"buffer":0,"byteOffset":4383952,"byteLength":1011864,"target":34962},{"buffer":0,"byteOffset":5395816,"byteLength":1138236,"target":34963},{"buffer":0,"byteOffset":6534052,"byteLength":79176,"target":34962},{"buffer":0,"byteOffset":6613228,"byteLength":79176,"target":34962},{"buffer":0,"byteOffset":6692404,"byteLength":52784,"target":34962},{"buffer":0,"byteOffset":6745188,"byteLength":66330,"target":34963},{"buffer":0,"byteOffset":6811520,"byteLength":570924,"target":34962},{"buffer":0,"byteOffset":7382444,"byteLength":570924,"target":34962},{"buffer":0,"byteOffset":7953368,"byteLength":380616,"target":34962},{"buffer":0,"byteOffset":8333984,"byteLength":215988,"target":34963},{"buffer":0,"byteOffset":8549972,"byteLength":192,"target":34962},{"buffer":0,"byteOffset":8550164,"byteLength":192,"target":34962},{"buffer":0,"byteOffset":8550356,"byteLength":128,"target":34962},{"buffer":0,"byteOffset":8550484,"byteLength":48,"target":34963},{"buffer":0,"byteOffset":8550532,"byteLength":96,"target":34962},{"buffer":0,"byteOffset":8550628,"byteLength":96,"target":34962},{"buffer":0,"byteOffset":8550724,"byteLength":64,"target":34962},{"buffer":0,"byteOffset":8550788,"byteLength":24,"target":34963}],"accessors":[{"bufferView":0,"componentType":5126,"count":30995,"type":"VEC3","min":[-5.334753524364452,0.0,-5.259480349823116],"max":[5.008414072292422,29.323960656350792,4.862604155072035]},{"bufferView":1,"componentType":5126,"count":30995,"type":"VEC3","min":[-0.9999991059303284,-0.9978355765342712,-0.9999866485595703],"max":[0.9999947547912598,0.9999942183494568,0.9999951124191284]},{"bufferView":2,"componentType":5126,"count":30995,"type":"VEC2"},{"bufferView":3,"componentType":5123,"count":178260,"type":"SCALAR","min":[0],"max":[30994]},{"bufferView":4,"componentType":5126,"count":126483,"type":"VEC3","min":[-5.994109153747559,14.477693557739258,-5.637885093688965],"max":[5.979165554046631,30.0,5.64345121383667]},{"bufferView":5,"componentType":5126,"count":126483,"type":"VEC3","min":[-0.9999824166297913,-0.9999856352806091,-0.999998927116394],"max":[0.9999933838844299,0.999966561794281,0.9999970197677612]},{"bufferView":6,"componentType":5126,"count":126483,"type":"VEC2"},{"bufferView":7,"componentType":5125,"count":284559,"type":"SCALAR","min":[0],"max":[126482]},{"bufferView":8,"componentType":5126,"count":6598,"type":"VEC3","min":[-5.334753524364452,0.00035976858481496485,-5.259480349823116],"max":[5.00955558889432,29.323960656350792,4.862604155072035]},{"bufferView":9,"componentType":5126,"count":6598,"type":"VEC3","min":[-0.9999873638153076,-0.9991353750228882,-0.9999259114265442],"max":[0.9999715089797974,0.9999049305915833,0.9998522996902466]},{"bufferView":10,"componentType":5126,"count":6598,"type":"VEC2"},{"bufferView":11,"componentType":5123,"count":33165,"type":"SCALAR","min":[0],"max":[6597]},{"bufferView":12,"componentType":5126,"count":47577,"type":"VEC3","min":[-5.930151462554932,14.487374305725098,-5.578953742980957],"max":[6.0036444664001465,29.959205627441406,5.759791374206543]},{"bufferView":13,"componentType":5126,"count":47577,"type":"VEC3","min":[-0.9997564554214478,-0.999900221824646,-0.9999541640281677],"max":[0.9999402165412903,0.9998934864997864,0.9999970197677612]},{"bufferView":14,"componentType":5126,"count":47577,"type":"VEC2"},{"bufferView":15,"componentType":5123,"count":107994,"type":"SCALAR","min":[0],"max":[47576]},{"bufferView":16,"componentType":5126,"count":16,"type":"VEC3","min":[-6.6000000000000005,0,-6.6000000000000005],"max":[6.6000000000000005,30.0,6.6000000000000005]},{"bufferView":17,"componentType":5126,"count":16,"type":"VEC3","min":[-1.0,0,-0.7071067811865475],"max":[-0.0,0,1.0]},{"bufferView":18,"componentType":5126,"count":16,"type":"VEC2"},{"bufferView":19,"componentType":5123,"count":24,"type":"SCALAR","min":[0],"max":[15]},{"bufferView":20,"componentType":5126,"count":8,"type":"VEC3","min":[-6.6000000000000005,0,-6.6000000000000005],"max":[6.6000000000000005,30.0,6.6000000000000005]},{"bufferView":21,"componentType":5126,"count":8,"type":"VEC3","min":[-1.0,0,6.123233995736766e-17],"max":[-0.0,0,1.0]},{"bufferView":22,"componentType":5126,"count":8,"type":"VEC2"},{"bufferView":23,"componentType":5123,"count":12,"type":"SCALAR","min":[0],"max":[7]}],"samplers":[{"magFilter":9729,"minFilter":9987,"wrapS":10497,"wrapT":10497}],"images":[{"uri":"textures/poly_fir_bark.jpg"},{"uri":"textures/poly_fir_foliage.png"},{"uri":"impostors/douglasie_a_summer.png"}],"textures":[{"source":0,"sampler":0},{"source":1,"sampler":0},{"source":2,"sampler":0}],"materials":[{"name":"bark","pbrMetallicRoughness":{"baseColorFactor":[0.82,0.82,0.82,1.0],"baseColorTexture":{"index":0},"metallicFactor":0.0,"roughnessFactor":0.91},"doubleSided":false},{"name":"foliage","pbrMetallicRoughness":{"baseColorFactor":[0.5829411764705882,1.0,0.7429411764705882,1.0],"baseColorTexture":{"index":1},"metallicFactor":0.0,"roughnessFactor":0.78},"doubleSided":true,"alphaMode":"MASK","alphaCutoff":0.18},{"name":"whole_tree_impostor","pbrMetallicRoughness":{"baseColorFactor":[1,1,1,1],"baseColorTexture":{"index":2},"metallicFactor":0.0,"roughnessFactor":0.92},"doubleSided":true,"alphaMode":"MASK","alphaCutoff":0.18}]}