{"asset":{"version":"2.0","generator":"Connected Rails CC0 tree importer","copyright":"Mantissa and Poly Haven source models: CC0 1.0; optimisation: Connected Rails"},"scene":0,"scenes":[{"nodes":[0,1,2,3]}],"nodes":[{"name":"crown_LOD0","mesh":0},{"name":"crown_LOD1","mesh":1},{"name":"crown_LOD2","mesh":2},{"name":"crown_LOD3","mesh":3}],"meshes":[{"name":"crown_LOD0","primitives":[{"attributes":{"POSITION":0,"NORMAL":1,"TEXCOORD_0":2},"indices":3,"material":0},{"attributes":{"POSITION":4,"NORMAL":5,"TEXCOORD_0":6},"indices":7,"material":1}]},{"name":"crown_LOD1","primitives":[{"attributes":{"POSITION":8,"NORMAL":9,"TEXCOORD_0":10},"indices":11,"material":0},{"attributes":{"POSITION":12,"NORMAL":13,"TEXCOORD_0":14},"indices":15,"material":1}]},{"name":"crown_LOD2","primitives":[{"attributes":{"POSITION":16,"NORMAL":17,"TEXCOORD_0":18},"indices":19,"material":2}]},{"name":"crown_LOD3","primitives":[{"attributes":{"POSITION":20,"NORMAL":21,"TEXCOORD_0":22},"indices":23,"material":2}]}],"buffers":[{"uri":"douglasie_c.bin","byteLength":5241536}],"bufferViews":[{"buffer":0,"byteOffset":0,"byteLength":493800,"target":34962},{"buffer":0,"byteOffset":493800,"byteLength":493800,"target":34962},{"buffer":0,"byteOffset":987600,"byteLength":329200,"target":34962},{"buffer":0,"byteOffset":1316800,"byteLength":477492,"target":34963},{"buffer":0,"byteOffset":1794292,"byteLength":515064,"target":34962},{"buffer":0,"byteOffset":2309356,"byteLength":515064,"target":34962},{"buffer":0,"byteOffset":2824420,"byteLength":343376,"target":34962},{"buffer":0,"byteOffset":3167796,"byteLength":210816,"target":34963},{"buffer":0,"byteOffset":3378612,"byteLength":79344,"target":34962},{"buffer":0,"byteOffset":3457956,"byteLength":79344,"target":34962},{"buffer":0,"byteOffset":3537300,"byteLength":52896,"target":34962},{"buffer":0,"byteOffset":3590196,"byteLength":66180,"target":34963},{"buffer":0,"byteOffset":3656376,"byteLength":515064,"target":34962},{"buffer":0,"byteOffset":4171440,"byteLength":515064,"target":34962},{"buffer":0,"byteOffset":4686504,"byteLength":343376,"target":34962},{"buffer":0,"byteOffset":5029880,"byteLength":210816,"target":34963},{"buffer":0,"byteOffset":5240696,"byteLength":192,"target":34962},{"buffer":0,"byteOffset":5240888,"byteLength":192,"target":34962},{"buffer":0,"byteOffset":5241080,"byteLength":128,"target":34962},{"buffer":0,"byteOffset":5241208,"byteLength":48,"target":34963},{"buffer":0,"byteOffset":5241256,"byteLength":96,"target":34962},{"buffer":0,"byteOffset":5241352,"byteLength":96,"target":34962},{"buffer":0,"byteOffset":5241448,"byteLength":64,"target":34962},{"buffer":0,"byteOffset":5241512,"byteLength":24,"target":34963}],"accessors":[{"bufferView":0,"componentType":5126,"count":41150,"type":"VEC3","min":[-6.773489810532626,0.0,-7.550387153718276],"max":[6.804375196535297,43.2765790877883,7.531896407653145]},{"bufferView":1,"componentType":5126,"count":41150,"type":"VEC3","min":[-0.9999595880508423,-0.9979680180549622,-0.9999815225601196],"max":[0.9999953508377075,0.9999907612800598,0.9999951720237732]},{"bufferView":2,"componentType":5126,"count":41150,"type":"VEC2"},{"bufferView":3,"componentType":5123,"count":238746,"type":"SCALAR","min":[0],"max":[41149]},{"bufferView":4,"componentType":5126,"count":42922,"type":"VEC3","min":[-8.33060359954834,12.813700675964355,-9.0],"max":[8.33060359954834,45.0,9.0]},{"bufferView":5,"componentType":5126,"count":42922,"type":"VEC3","min":[-0.9999921321868896,-0.9999992251396179,-0.9999749064445496],"max":[0.9999784231185913,0.9999023079872131,0.9997899532318115]},{"bufferView":6,"componentType":5126,"count":42922,"type":"VEC2"},{"bufferView":7,"componentType":5123,"count":105408,"type":"SCALAR","min":[0],"max":[42921]},{"bufferView":8,"componentType":5126,"count":6612,"type":"VEC3","min":[-6.7751388555547605,-0.002470714290037531,-7.550387153718276],"max":[6.804454192704021,43.2765790877883,7.531896407653145]},{"bufferView":9,"componentType":5126,"count":6612,"type":"VEC3","min":[-0.9999710917472839,-0.9980722665786743,-0.9998652935028076],"max":[0.9999752640724182,0.9998377561569214,0.9999816417694092]},{"bufferView":10,"componentType":5126,"count":6612,"type":"VEC2"},{"bufferView":11,"componentType":5123,"count":33090,"type":"SCALAR","min":[0],"max":[6611]},{"bufferView":12,"componentType":5126,"count":42922,"type":"VEC3","min":[-8.33060359954834,12.813700675964355,-9.0],"max":[8.33060359954834,45.0,9.0]},{"bufferView":13,"componentType":5126,"count":42922,"type":"VEC3","min":[-0.9999921321868896,-0.9999992251396179,-0.9999749064445496],"max":[0.9999784231185913,0.9999023079872131,0.9997899532318115]},{"bufferView":14,"componentType":5126,"count":42922,"type":"VEC2"},{"bufferView":15,"componentType":5123,"count":105408,"type":"SCALAR","min":[0],"max":[42921]},{"bufferView":16,"componentType":5126,"count":16,"type":"VEC3","min":[-9.9,0,-9.9],"max":[9.9,45.0,9.9]},{"bufferView":17,"componentType":5126,"count":16,"type":"VEC3","min":[-1.0,0,-0.7071067811865475],"max":[-0.0,0,1.0]},{"bufferView":18,"componentType":5126,"count":16,"type":"VEC2"},{"bufferView":19,"componentType":5123,"count":24,"type":"SCALAR","min":[0],"max":[15]},{"bufferView":20,"componentType":5126,"count":8,"type":"VEC3","min":[-9.9,0,-9.9],"max":[9.9,45.0,9.9]},{"bufferView":21,"componentType":5126,"count":8,"type":"VEC3","min":[-1.0,0,6.123233995736766e-17],"max":[-0.0,0,1.0]},{"bufferView":22,"componentType":5126,"count":8,"type":"VEC2"},{"bufferView":23,"componentType":5123,"count":12,"type":"SCALAR","min":[0],"max":[7]}],"samplers":[{"magFilter":9729,"minFilter":9987,"wrapS":10497,"wrapT":10497}],"images":[{"uri":"textures/poly_fir_bark.jpg"},{"uri":"textures/poly_fir_foliage.png"},{"uri":"impostors/douglasie_c_winter.png"}],"textures":[{"source":0,"sampler":0},{"source":1,"sampler":0},{"source":2,"sampler":0}],"materials":[{"name":"bark","pbrMetallicRoughness":{"baseColorFactor":[0.82,0.82,0.82,1.0],"baseColorTexture":{"index":0},"metallicFactor":0.0,"roughnessFactor":0.91},"doubleSided":false},{"name":"foliage","pbrMetallicRoughness":{"baseColorFactor":[0.641235294117647,1.0,0.8172352941176471,1.0],"baseColorTexture":{"index":1},"metallicFactor":0.0,"roughnessFactor":0.78},"doubleSided":true,"alphaMode":"MASK","alphaCutoff":0.18},{"name":"whole_tree_impostor","pbrMetallicRoughness":{"baseColorFactor":[1,1,1,1],"baseColorTexture":{"index":2},"metallicFactor":0.0,"roughnessFactor":0.92},"doubleSided":true,"alphaMode":"MASK","alphaCutoff":0.18}]}