{"asset":{"version":"2.0","generator":"Connected Rails CC0 tree importer","copyright":"Mantissa and Poly Haven source models: CC0 1.0; optimisation: Connected Rails"},"scene":0,"scenes":[{"nodes":[0,1,2,3]}],"nodes":[{"name":"crown_LOD0","mesh":0},{"name":"crown_LOD1","mesh":1},{"name":"crown_LOD2","mesh":2},{"name":"crown_LOD3","mesh":3}],"meshes":[{"name":"crown_LOD0","primitives":[{"attributes":{"POSITION":0,"NORMAL":1,"TEXCOORD_0":2},"indices":3,"material":0},{"attributes":{"POSITION":4,"NORMAL":5,"TEXCOORD_0":6},"indices":7,"material":1}]},{"name":"crown_LOD1","primitives":[{"attributes":{"POSITION":8,"NORMAL":9,"TEXCOORD_0":10},"indices":11,"material":0},{"attributes":{"POSITION":12,"NORMAL":13,"TEXCOORD_0":14},"indices":15,"material":1}]},{"name":"crown_LOD2","primitives":[{"attributes":{"POSITION":16,"NORMAL":17,"TEXCOORD_0":18},"indices":19,"material":2}]},{"name":"crown_LOD3","primitives":[{"attributes":{"POSITION":20,"NORMAL":21,"TEXCOORD_0":22},"indices":23,"material":2}]}],"buffers":[{"uri":"douglasie_c.bin","byteLength":8868624}],"bufferViews":[{"buffer":0,"byteOffset":0,"byteLength":493800,"target":34962},{"buffer":0,"byteOffset":493800,"byteLength":493800,"target":34962},{"buffer":0,"byteOffset":987600,"byteLength":329200,"target":34962},{"buffer":0,"byteOffset":1316800,"byteLength":477492,"target":34963},{"buffer":0,"byteOffset":1794292,"byteLength":1478976,"target":34962},{"buffer":0,"byteOffset":3273268,"byteLength":1478976,"target":34962},{"buffer":0,"byteOffset":4752244,"byteLength":985984,"target":34962},{"buffer":0,"byteOffset":5738228,"byteLength":1151964,"target":34963},{"buffer":0,"byteOffset":6890192,"byteLength":79344,"target":34962},{"buffer":0,"byteOffset":6969536,"byteLength":79344,"target":34962},{"buffer":0,"byteOffset":7048880,"byteLength":52896,"target":34962},{"buffer":0,"byteOffset":7101776,"byteLength":66180,"target":34963},{"buffer":0,"byteOffset":7167956,"byteLength":556440,"target":34962},{"buffer":0,"byteOffset":7724396,"byteLength":556440,"target":34962},{"buffer":0,"byteOffset":8280836,"byteLength":370960,"target":34962},{"buffer":0,"byteOffset":8651796,"byteLength":215988,"target":34963},{"buffer":0,"byteOffset":8867784,"byteLength":192,"target":34962},{"buffer":0,"byteOffset":8867976,"byteLength":192,"target":34962},{"buffer":0,"byteOffset":8868168,"byteLength":128,"target":34962},{"buffer":0,"byteOffset":8868296,"byteLength":48,"target":34963},{"buffer":0,"byteOffset":8868344,"byteLength":96,"target":34962},{"buffer":0,"byteOffset":8868440,"byteLength":96,"target":34962},{"buffer":0,"byteOffset":8868536,"byteLength":64,"target":34962},{"buffer":0,"byteOffset":8868600,"byteLength":24,"target":34963}],"accessors":[{"bufferView":0,"componentType":5126,"count":41150,"type":"VEC3","min":[-6.849568551883247,0.0,-7.5987367576412055],"max":[6.790674897862572,43.345305623689775,7.552836737022014]},{"bufferView":1,"componentType":5126,"count":41150,"type":"VEC3","min":[-0.9999595284461975,-0.9979801177978516,-0.9999815225601196],"max":[0.9999952912330627,0.9999908208847046,0.9999951720237732]},{"bufferView":2,"componentType":5126,"count":41150,"type":"VEC2"},{"bufferView":3,"componentType":5123,"count":238746,"type":"SCALAR","min":[0],"max":[41149]},{"bufferView":4,"componentType":5126,"count":123248,"type":"VEC3","min":[-7.933943271636963,12.921253204345703,-8.778640747070312],"max":[8.340106964111328,44.9657096862793,8.91288948059082]},{"bufferView":5,"componentType":5126,"count":123248,"type":"VEC3","min":[-0.9999477863311768,-0.9999954700469971,-0.999971866607666],"max":[0.999995768070221,0.9999731779098511,0.9999761581420898]},{"bufferView":6,"componentType":5126,"count":123248,"type":"VEC2"},{"bufferView":7,"componentType":5125,"count":287991,"type":"SCALAR","min":[0],"max":[123247]},{"bufferView":8,"componentType":5126,"count":6612,"type":"VEC3","min":[-6.851225172828425,-0.0024746379743475154,-7.5987367576412055],"max":[6.790754256949766,43.345305623689775,7.552836737022014]},{"bufferView":9,"componentType":5126,"count":6612,"type":"VEC3","min":[-0.9999709129333496,-0.998083770275116,-0.9998652338981628],"max":[0.9999752044677734,0.9998387694358826,0.9999815225601196]},{"bufferView":10,"componentType":5126,"count":6612,"type":"VEC2"},{"bufferView":11,"componentType":5123,"count":33090,"type":"SCALAR","min":[0],"max":[6611]},{"bufferView":12,"componentType":5126,"count":46370,"type":"VEC3","min":[-7.989683151245117,13.128519058227539,-8.684219360351562],"max":[8.072352409362793,44.744327545166016,8.919821739196777]},{"bufferView":13,"componentType":5126,"count":46370,"type":"VEC3","min":[-0.9999350905418396,-0.9999954700469971,-0.999971866607666],"max":[0.999995768070221,0.9999426603317261,0.9999761581420898]},{"bufferView":14,"componentType":5126,"count":46370,"type":"VEC2"},{"bufferView":15,"componentType":5123,"count":107994,"type":"SCALAR","min":[0],"max":[46369]},{"bufferView":16,"componentType":5126,"count":16,"type":"VEC3","min":[-9.9,0,-9.9],"max":[9.9,45.0,9.9]},{"bufferView":17,"componentType":5126,"count":16,"type":"VEC3","min":[-1.0,0,-0.7071067811865475],"max":[-0.0,0,1.0]},{"bufferView":18,"componentType":5126,"count":16,"type":"VEC2"},{"bufferView":19,"componentType":5123,"count":24,"type":"SCALAR","min":[0],"max":[15]},{"bufferView":20,"componentType":5126,"count":8,"type":"VEC3","min":[-9.9,0,-9.9],"max":[9.9,45.0,9.9]},{"bufferView":21,"componentType":5126,"count":8,"type":"VEC3","min":[-1.0,0,6.123233995736766e-17],"max":[-0.0,0,1.0]},{"bufferView":22,"componentType":5126,"count":8,"type":"VEC2"},{"bufferView":23,"componentType":5123,"count":12,"type":"SCALAR","min":[0],"max":[7]}],"samplers":[{"magFilter":9729,"minFilter":9987,"wrapS":10497,"wrapT":10497}],"images":[{"uri":"textures/poly_fir_bark.jpg"},{"uri":"textures/poly_fir_foliage.png"},{"uri":"impostors/douglasie_c_summer.png"}],"textures":[{"source":0,"sampler":0},{"source":1,"sampler":0},{"source":2,"sampler":0}],"materials":[{"name":"bark","pbrMetallicRoughness":{"baseColorFactor":[0.82,0.82,0.82,1.0],"baseColorTexture":{"index":0},"metallicFactor":0.0,"roughnessFactor":0.91},"doubleSided":false},{"name":"foliage","pbrMetallicRoughness":{"baseColorFactor":[0.5829411764705882,1.0,0.7429411764705882,1.0],"baseColorTexture":{"index":1},"metallicFactor":0.0,"roughnessFactor":0.78},"doubleSided":true,"alphaMode":"MASK","alphaCutoff":0.18},{"name":"whole_tree_impostor","pbrMetallicRoughness":{"baseColorFactor":[1,1,1,1],"baseColorTexture":{"index":2},"metallicFactor":0.0,"roughnessFactor":0.92},"doubleSided":true,"alphaMode":"MASK","alphaCutoff":0.18}]}