{"asset":{"version":"2.0","generator":"Connected Rails CC0 tree importer","copyright":"Mantissa and Poly Haven source models: CC0 1.0; optimisation: Connected Rails"},"scene":0,"scenes":[{"nodes":[0,1,2,3]}],"nodes":[{"name":"crown_LOD0","mesh":0},{"name":"crown_LOD1","mesh":1},{"name":"crown_LOD2","mesh":2},{"name":"crown_LOD3","mesh":3}],"meshes":[{"name":"crown_LOD0","primitives":[{"attributes":{"POSITION":0,"NORMAL":1,"TEXCOORD_0":2},"indices":3,"material":0},{"attributes":{"POSITION":4,"NORMAL":5,"TEXCOORD_0":6},"indices":7,"material":1}]},{"name":"crown_LOD1","primitives":[{"attributes":{"POSITION":8,"NORMAL":9,"TEXCOORD_0":10},"indices":11,"material":0},{"attributes":{"POSITION":12,"NORMAL":13,"TEXCOORD_0":14},"indices":15,"material":1}]},{"name":"crown_LOD2","primitives":[{"attributes":{"POSITION":16,"NORMAL":17,"TEXCOORD_0":18},"indices":19,"material":2}]},{"name":"crown_LOD3","primitives":[{"attributes":{"POSITION":20,"NORMAL":21,"TEXCOORD_0":22},"indices":23,"material":2}]}],"buffers":[{"uri":"douglasie_b.bin","byteLength":7198272}],"bufferViews":[{"buffer":0,"byteOffset":0,"byteLength":509028,"target":34962},{"buffer":0,"byteOffset":509028,"byteLength":509028,"target":34962},{"buffer":0,"byteOffset":1018056,"byteLength":339352,"target":34962},{"buffer":0,"byteOffset":1357408,"byteLength":477762,"target":34963},{"buffer":0,"byteOffset":1835172,"byteLength":964752,"target":34962},{"buffer":0,"byteOffset":2799924,"byteLength":964752,"target":34962},{"buffer":0,"byteOffset":3764676,"byteLength":643168,"target":34962},{"buffer":0,"byteOffset":4407844,"byteLength":800928,"target":34963},{"buffer":0,"byteOffset":5208772,"byteLength":110328,"target":34962},{"buffer":0,"byteOffset":5319100,"byteLength":110328,"target":34962},{"buffer":0,"byteOffset":5429428,"byteLength":73552,"target":34962},{"buffer":0,"byteOffset":5502980,"byteLength":85362,"target":34963},{"buffer":0,"byteOffset":5588344,"byteLength":522408,"target":34962},{"buffer":0,"byteOffset":6110752,"byteLength":522408,"target":34962},{"buffer":0,"byteOffset":6633160,"byteLength":348272,"target":34962},{"buffer":0,"byteOffset":6981432,"byteLength":216000,"target":34963},{"buffer":0,"byteOffset":7197432,"byteLength":192,"target":34962},{"buffer":0,"byteOffset":7197624,"byteLength":192,"target":34962},{"buffer":0,"byteOffset":7197816,"byteLength":128,"target":34962},{"buffer":0,"byteOffset":7197944,"byteLength":48,"target":34963},{"buffer":0,"byteOffset":7197992,"byteLength":96,"target":34962},{"buffer":0,"byteOffset":7198088,"byteLength":96,"target":34962},{"buffer":0,"byteOffset":7198184,"byteLength":64,"target":34962},{"buffer":0,"byteOffset":7198248,"byteLength":24,"target":34963}],"accessors":[{"bufferView":0,"componentType":5126,"count":42419,"type":"VEC3","min":[-6.206492626307139,0.0,-6.09466359020225],"max":[6.238902194593871,36.60213608687268,5.992303460902957]},{"bufferView":1,"componentType":5126,"count":42419,"type":"VEC3","min":[-0.9999819397926331,-0.9994964003562927,-0.9999943375587463],"max":[0.9999879002571106,0.9999982118606567,0.999983549118042]},{"bufferView":2,"componentType":5126,"count":42419,"type":"VEC2"},{"bufferView":3,"componentType":5123,"count":238881,"type":"SCALAR","min":[0],"max":[42418]},{"bufferView":4,"componentType":5126,"count":80396,"type":"VEC3","min":[-7.5,11.526988983154297,-7.367598533630371],"max":[7.5,37.5,7.367598533630371]},{"bufferView":5,"componentType":5126,"count":80396,"type":"VEC3","min":[-0.9999392032623291,-0.9999783635139465,-0.9999816417694092],"max":[0.9999682307243347,0.9999369978904724,0.9999985694885254]},{"bufferView":6,"componentType":5126,"count":80396,"type":"VEC2"},{"bufferView":7,"componentType":5125,"count":200232,"type":"SCALAR","min":[0],"max":[80395]},{"bufferView":8,"componentType":5126,"count":9194,"type":"VEC3","min":[-6.206834322895345,-9.36009959848791e-06,-6.098729725278116],"max":[6.238902194593871,36.5998078247439,5.992303460902957]},{"bufferView":9,"componentType":5126,"count":9194,"type":"VEC3","min":[-0.9999430775642395,-0.999113917350769,-0.9998313188552856],"max":[0.9999339580535889,0.9998403191566467,0.9998988509178162]},{"bufferView":10,"componentType":5126,"count":9194,"type":"VEC2"},{"bufferView":11,"componentType":5123,"count":42681,"type":"SCALAR","min":[0],"max":[9193]},{"bufferView":12,"componentType":5126,"count":43534,"type":"VEC3","min":[-7.639124870300293,11.463491439819336,-7.514794826507568],"max":[7.577365398406982,37.52396011352539,7.4103007316589355]},{"bufferView":13,"componentType":5126,"count":43534,"type":"VEC3","min":[-0.9999392032623291,-0.9999783635139465,-0.9999816417694092],"max":[0.9999682307243347,0.999870240688324,0.9999985694885254]},{"bufferView":14,"componentType":5126,"count":43534,"type":"VEC2"},{"bufferView":15,"componentType":5123,"count":108000,"type":"SCALAR","min":[0],"max":[43533]},{"bufferView":16,"componentType":5126,"count":16,"type":"VEC3","min":[-8.25,0,-8.25],"max":[8.25,37.5,8.25]},{"bufferView":17,"componentType":5126,"count":16,"type":"VEC3","min":[-1.0,0,-0.7071067811865475],"max":[-0.0,0,1.0]},{"bufferView":18,"componentType":5126,"count":16,"type":"VEC2"},{"bufferView":19,"componentType":5123,"count":24,"type":"SCALAR","min":[0],"max":[15]},{"bufferView":20,"componentType":5126,"count":8,"type":"VEC3","min":[-8.25,0,-8.25],"max":[8.25,37.5,8.25]},{"bufferView":21,"componentType":5126,"count":8,"type":"VEC3","min":[-1.0,0,6.123233995736766e-17],"max":[-0.0,0,1.0]},{"bufferView":22,"componentType":5126,"count":8,"type":"VEC2"},{"bufferView":23,"componentType":5123,"count":12,"type":"SCALAR","min":[0],"max":[7]}],"samplers":[{"magFilter":9729,"minFilter":9987,"wrapS":10497,"wrapT":10497}],"images":[{"uri":"textures/poly_fir_bark.jpg"},{"uri":"textures/poly_fir_foliage.png"},{"uri":"impostors/douglasie_b_summer.png"}],"textures":[{"source":0,"sampler":0},{"source":1,"sampler":0},{"source":2,"sampler":0}],"materials":[{"name":"bark","pbrMetallicRoughness":{"baseColorFactor":[0.82,0.82,0.82,1.0],"baseColorTexture":{"index":0},"metallicFactor":0.0,"roughnessFactor":0.91},"doubleSided":false},{"name":"foliage","pbrMetallicRoughness":{"baseColorFactor":[0.5829411764705882,1.0,0.7429411764705882,1.0],"baseColorTexture":{"index":1},"metallicFactor":0.0,"roughnessFactor":0.78},"doubleSided":true,"alphaMode":"MASK","alphaCutoff":0.18},{"name":"whole_tree_impostor","pbrMetallicRoughness":{"baseColorFactor":[1,1,1,1],"baseColorTexture":{"index":2},"metallicFactor":0.0,"roughnessFactor":0.92},"doubleSided":true,"alphaMode":"MASK","alphaCutoff":0.18}]}