{"asset":{"version":"2.0","generator":"Connected Rails CC0 tree importer","copyright":"Mantissa and Poly Haven source models: CC0 1.0; optimisation: Connected Rails"},"scene":0,"scenes":[{"nodes":[0,1,2,3]}],"nodes":[{"name":"crown_LOD0","mesh":0},{"name":"crown_LOD1","mesh":1},{"name":"crown_LOD2","mesh":2},{"name":"crown_LOD3","mesh":3}],"meshes":[{"name":"crown_LOD0","primitives":[{"attributes":{"POSITION":0,"NORMAL":1,"TEXCOORD_0":2},"indices":3,"material":0},{"attributes":{"POSITION":4,"NORMAL":5,"TEXCOORD_0":6},"indices":7,"material":1}]},{"name":"crown_LOD1","primitives":[{"attributes":{"POSITION":8,"NORMAL":9,"TEXCOORD_0":10},"indices":11,"material":0},{"attributes":{"POSITION":12,"NORMAL":13,"TEXCOORD_0":14},"indices":15,"material":1}]},{"name":"crown_LOD2","primitives":[{"attributes":{"POSITION":16,"NORMAL":17,"TEXCOORD_0":18},"indices":19,"material":2}]},{"name":"crown_LOD3","primitives":[{"attributes":{"POSITION":20,"NORMAL":21,"TEXCOORD_0":22},"indices":23,"material":2}]}],"buffers":[{"uri":"douglasie_a.bin","byteLength":2526228}],"bufferViews":[{"buffer":0,"byteOffset":0,"byteLength":371940,"target":34962},{"buffer":0,"byteOffset":371940,"byteLength":371940,"target":34962},{"buffer":0,"byteOffset":743880,"byteLength":247960,"target":34962},{"buffer":0,"byteOffset":991840,"byteLength":356520,"target":34963},{"buffer":0,"byteOffset":1348360,"byteLength":147384,"target":34962},{"buffer":0,"byteOffset":1495744,"byteLength":147384,"target":34962},{"buffer":0,"byteOffset":1643128,"byteLength":98256,"target":34962},{"buffer":0,"byteOffset":1741384,"byteLength":56754,"target":34963},{"buffer":0,"byteOffset":1798140,"byteLength":79176,"target":34962},{"buffer":0,"byteOffset":1877316,"byteLength":79176,"target":34962},{"buffer":0,"byteOffset":1956492,"byteLength":52784,"target":34962},{"buffer":0,"byteOffset":2009276,"byteLength":66330,"target":34963},{"buffer":0,"byteOffset":2075608,"byteLength":147384,"target":34962},{"buffer":0,"byteOffset":2222992,"byteLength":147384,"target":34962},{"buffer":0,"byteOffset":2370376,"byteLength":98256,"target":34962},{"buffer":0,"byteOffset":2468632,"byteLength":56754,"target":34963},{"buffer":0,"byteOffset":2525388,"byteLength":192,"target":34962},{"buffer":0,"byteOffset":2525580,"byteLength":192,"target":34962},{"buffer":0,"byteOffset":2525772,"byteLength":128,"target":34962},{"buffer":0,"byteOffset":2525900,"byteLength":48,"target":34963},{"buffer":0,"byteOffset":2525948,"byteLength":96,"target":34962},{"buffer":0,"byteOffset":2526044,"byteLength":96,"target":34962},{"buffer":0,"byteOffset":2526140,"byteLength":64,"target":34962},{"buffer":0,"byteOffset":2526204,"byteLength":24,"target":34963}],"accessors":[{"bufferView":0,"componentType":5126,"count":30995,"type":"VEC3","min":[-5.3117347765683895,0.0,-5.20950893968277],"max":[4.961216838096142,29.27308916488793,4.843860435472976]},{"bufferView":1,"componentType":5126,"count":30995,"type":"VEC3","min":[-0.9999991059303284,-0.9978135228157043,-0.9999867081642151],"max":[0.9999948143959045,0.9999940991401672,0.9999949932098389]},{"bufferView":2,"componentType":5126,"count":30995,"type":"VEC2"},{"bufferView":3,"componentType":5123,"count":178260,"type":"SCALAR","min":[0],"max":[30994]},{"bufferView":4,"componentType":5126,"count":12282,"type":"VEC3","min":[-6.0,14.423294067382812,-5.675268173217773],"max":[6.0,30.0,5.675268173217773]},{"bufferView":5,"componentType":5126,"count":12282,"type":"VEC3","min":[-0.9997769594192505,-0.999319851398468,-0.99973064661026],"max":[0.999862015247345,0.9999927282333374,0.9996088147163391]},{"bufferView":6,"componentType":5126,"count":12282,"type":"VEC2"},{"bufferView":7,"componentType":5123,"count":28377,"type":"SCALAR","min":[0],"max":[12281]},{"bufferView":8,"componentType":5126,"count":6598,"type":"VEC3","min":[-5.3117347765683895,0.0003591444547833671,-5.20950893968277],"max":[4.962350605359318,29.27308916488793,4.843860435472976]},{"bufferView":9,"componentType":5126,"count":6598,"type":"VEC3","min":[-0.9999874234199524,-0.9991265535354614,-0.9999265074729919],"max":[0.9999716281890869,0.9999038577079773,0.9998533129692078]},{"bufferView":10,"componentType":5126,"count":6598,"type":"VEC2"},{"bufferView":11,"componentType":5123,"count":33165,"type":"SCALAR","min":[0],"max":[6597]},{"bufferView":12,"componentType":5126,"count":12282,"type":"VEC3","min":[-6.0,14.423294067382812,-5.675268173217773],"max":[6.0,30.0,5.675268173217773]},{"bufferView":13,"componentType":5126,"count":12282,"type":"VEC3","min":[-0.9997769594192505,-0.999319851398468,-0.99973064661026],"max":[0.999862015247345,0.9999927282333374,0.9996088147163391]},{"bufferView":14,"componentType":5126,"count":12282,"type":"VEC2"},{"bufferView":15,"componentType":5123,"count":28377,"type":"SCALAR","min":[0],"max":[12281]},{"bufferView":16,"componentType":5126,"count":16,"type":"VEC3","min":[-6.6000000000000005,0,-6.6000000000000005],"max":[6.6000000000000005,30.0,6.6000000000000005]},{"bufferView":17,"componentType":5126,"count":16,"type":"VEC3","min":[-1.0,0,-0.7071067811865475],"max":[-0.0,0,1.0]},{"bufferView":18,"componentType":5126,"count":16,"type":"VEC2"},{"bufferView":19,"componentType":5123,"count":24,"type":"SCALAR","min":[0],"max":[15]},{"bufferView":20,"componentType":5126,"count":8,"type":"VEC3","min":[-6.6000000000000005,0,-6.6000000000000005],"max":[6.6000000000000005,30.0,6.6000000000000005]},{"bufferView":21,"componentType":5126,"count":8,"type":"VEC3","min":[-1.0,0,6.123233995736766e-17],"max":[-0.0,0,1.0]},{"bufferView":22,"componentType":5126,"count":8,"type":"VEC2"},{"bufferView":23,"componentType":5123,"count":12,"type":"SCALAR","min":[0],"max":[7]}],"samplers":[{"magFilter":9729,"minFilter":9987,"wrapS":10497,"wrapT":10497}],"images":[{"uri":"textures/poly_fir_bark.jpg"},{"uri":"textures/poly_fir_foliage.png"},{"uri":"impostors/douglasie_a_winter.png"}],"textures":[{"source":0,"sampler":0},{"source":1,"sampler":0},{"source":2,"sampler":0}],"materials":[{"name":"bark","pbrMetallicRoughness":{"baseColorFactor":[0.82,0.82,0.82,1.0],"baseColorTexture":{"index":0},"metallicFactor":0.0,"roughnessFactor":0.91},"doubleSided":false},{"name":"foliage","pbrMetallicRoughness":{"baseColorFactor":[0.641235294117647,1.0,0.8172352941176471,1.0],"baseColorTexture":{"index":1},"metallicFactor":0.0,"roughnessFactor":0.78},"doubleSided":true,"alphaMode":"MASK","alphaCutoff":0.18},{"name":"whole_tree_impostor","pbrMetallicRoughness":{"baseColorFactor":[1,1,1,1],"baseColorTexture":{"index":2},"metallicFactor":0.0,"roughnessFactor":0.92},"doubleSided":true,"alphaMode":"MASK","alphaCutoff":0.18}]}