{"asset":{"version":"2.0","generator":"Connected Rails CC0 tree importer","copyright":"Mantissa and Poly Haven source models: CC0 1.0; optimisation: Connected Rails"},"scene":0,"scenes":[{"nodes":[0,1,2,3]}],"nodes":[{"name":"crown_LOD0","mesh":0},{"name":"crown_LOD1","mesh":1},{"name":"crown_LOD2","mesh":2},{"name":"crown_LOD3","mesh":3}],"meshes":[{"name":"crown_LOD0","primitives":[{"attributes":{"POSITION":0,"NORMAL":1,"TEXCOORD_0":2},"indices":3,"material":0},{"attributes":{"POSITION":4,"NORMAL":5,"TEXCOORD_0":6},"indices":7,"material":1}]},{"name":"crown_LOD1","primitives":[{"attributes":{"POSITION":8,"NORMAL":9,"TEXCOORD_0":10},"indices":11,"material":0},{"attributes":{"POSITION":12,"NORMAL":13,"TEXCOORD_0":14},"indices":15,"material":1}]},{"name":"crown_LOD2","primitives":[{"attributes":{"POSITION":16,"NORMAL":17,"TEXCOORD_0":18},"indices":19,"material":2}]},{"name":"crown_LOD3","primitives":[{"attributes":{"POSITION":20,"NORMAL":21,"TEXCOORD_0":22},"indices":23,"material":2}]}],"buffers":[{"uri":"eberesche_c.bin","byteLength":8136832}],"bufferViews":[{"buffer":0,"byteOffset":0,"byteLength":222096,"target":34962},{"buffer":0,"byteOffset":222096,"byteLength":222096,"target":34962},{"buffer":0,"byteOffset":444192,"byteLength":148064,"target":34962},{"buffer":0,"byteOffset":592256,"byteLength":72000,"target":34963},{"buffer":0,"byteOffset":664256,"byteLength":1503048,"target":34962},{"buffer":0,"byteOffset":2167304,"byteLength":1503048,"target":34962},{"buffer":0,"byteOffset":3670352,"byteLength":1002032,"target":34962},{"buffer":0,"byteOffset":4672384,"byteLength":1721616,"target":34963},{"buffer":0,"byteOffset":6394000,"byteLength":51084,"target":34962},{"buffer":0,"byteOffset":6445084,"byteLength":51084,"target":34962},{"buffer":0,"byteOffset":6496168,"byteLength":34056,"target":34962},{"buffer":0,"byteOffset":6530224,"byteLength":19194,"target":34963},{"buffer":0,"byteOffset":6549420,"byteLength":490116,"target":34962},{"buffer":0,"byteOffset":7039536,"byteLength":490116,"target":34962},{"buffer":0,"byteOffset":7529652,"byteLength":326744,"target":34962},{"buffer":0,"byteOffset":7856396,"byteLength":279594,"target":34963},{"buffer":0,"byteOffset":8135992,"byteLength":192,"target":34962},{"buffer":0,"byteOffset":8136184,"byteLength":192,"target":34962},{"buffer":0,"byteOffset":8136376,"byteLength":128,"target":34962},{"buffer":0,"byteOffset":8136504,"byteLength":48,"target":34963},{"buffer":0,"byteOffset":8136552,"byteLength":96,"target":34962},{"buffer":0,"byteOffset":8136648,"byteLength":96,"target":34962},{"buffer":0,"byteOffset":8136744,"byteLength":64,"target":34962},{"buffer":0,"byteOffset":8136808,"byteLength":24,"target":34963}],"accessors":[{"bufferView":0,"componentType":5126,"count":18508,"type":"VEC3","min":[-4.2312077489744535,-0.00040988815923854603,-4.5294396552988],"max":[4.238626402678137,13.841835320871075,4.472842156180063]},{"bufferView":1,"componentType":5126,"count":18508,"type":"VEC3","min":[-0.9998369812965393,-0.9999635219573975,-0.9998623728752136],"max":[0.9997722506523132,0.9998269081115723,0.9998701810836792]},{"bufferView":2,"componentType":5126,"count":18508,"type":"VEC2"},{"bufferView":3,"componentType":5123,"count":36000,"type":"SCALAR","min":[0],"max":[18507]},{"bufferView":4,"componentType":5126,"count":125254,"type":"VEC3","min":[-4.348062038421631,3.7267136573791504,-4.658698081970215],"max":[4.236719131469727,13.97093677520752,4.759999752044678]},{"bufferView":5,"componentType":5126,"count":125254,"type":"VEC3","min":[-0.9999644756317139,-0.999968409538269,-0.9999270439147949],"max":[0.9999735951423645,0.999999463558197,0.9999580979347229]},{"bufferView":6,"componentType":5126,"count":125254,"type":"VEC2"},{"bufferView":7,"componentType":5125,"count":430404,"type":"SCALAR","min":[0],"max":[125253]},{"bufferView":8,"componentType":5126,"count":4257,"type":"VEC3","min":[-4.2312077489744535,-0.004479954266220093,-4.395526903021676],"max":[4.238626402678137,13.72707860936088,3.9485365628196134]},{"bufferView":9,"componentType":5126,"count":4257,"type":"VEC3","min":[-0.999603807926178,-0.9999635219573975,-0.9998923540115356],"max":[0.9993453025817871,0.9971522688865662,0.9996364116668701]},{"bufferView":10,"componentType":5126,"count":4257,"type":"VEC2"},{"bufferView":11,"componentType":5123,"count":9597,"type":"SCALAR","min":[0],"max":[4256]},{"bufferView":12,"componentType":5126,"count":40843,"type":"VEC3","min":[-4.376526832580566,3.681938409805298,-4.6554059982299805],"max":[4.27321720123291,13.746246337890625,4.795259475708008]},{"bufferView":13,"componentType":5126,"count":40843,"type":"VEC3","min":[-0.9999644756317139,-0.9999359846115112,-0.9997420907020569],"max":[0.9998757243156433,0.9999880194664001,0.9997581243515015]},{"bufferView":14,"componentType":5126,"count":40843,"type":"VEC2"},{"bufferView":15,"componentType":5123,"count":139797,"type":"SCALAR","min":[0],"max":[40842]},{"bufferView":16,"componentType":5126,"count":16,"type":"VEC3","min":[-5.2360000000000015,0,-5.2360000000000015],"max":[5.2360000000000015,14.0,5.2360000000000015]},{"bufferView":17,"componentType":5126,"count":16,"type":"VEC3","min":[-1.0,0,-0.7071067811865475],"max":[-0.0,0,1.0]},{"bufferView":18,"componentType":5126,"count":16,"type":"VEC2"},{"bufferView":19,"componentType":5123,"count":24,"type":"SCALAR","min":[0],"max":[15]},{"bufferView":20,"componentType":5126,"count":8,"type":"VEC3","min":[-5.2360000000000015,0,-5.2360000000000015],"max":[5.2360000000000015,14.0,5.2360000000000015]},{"bufferView":21,"componentType":5126,"count":8,"type":"VEC3","min":[-1.0,0,6.123233995736766e-17],"max":[-0.0,0,1.0]},{"bufferView":22,"componentType":5126,"count":8,"type":"VEC2"},{"bufferView":23,"componentType":5123,"count":12,"type":"SCALAR","min":[0],"max":[7]}],"samplers":[{"magFilter":9729,"minFilter":9987,"wrapS":10497,"wrapT":10497}],"images":[{"uri":"textures/bark_broadleaf.jpg"},{"uri":"textures/foliage_broadleaf.jpg"},{"uri":"impostors/eberesche_c_autumn.png"}],"textures":[{"source":0,"sampler":0},{"source":1,"sampler":0},{"source":2,"sampler":0}],"materials":[{"name":"bark","pbrMetallicRoughness":{"baseColorFactor":[0.82,0.82,0.82,1.0],"baseColorTexture":{"index":0},"metallicFactor":0.0,"roughnessFactor":0.91},"doubleSided":false},{"name":"foliage","pbrMetallicRoughness":{"baseColorFactor":[0.84,0.34,0.07,1.0],"baseColorTexture":{"index":1},"metallicFactor":0.0,"roughnessFactor":0.78},"doubleSided":true},{"name":"whole_tree_impostor","pbrMetallicRoughness":{"baseColorFactor":[1,1,1,1],"baseColorTexture":{"index":2},"metallicFactor":0.0,"roughnessFactor":0.92},"doubleSided":true,"alphaMode":"MASK","alphaCutoff":0.18}]}