{"asset":{"version":"2.0","generator":"Connected Rails CC0 tree importer","copyright":"Mantissa and Poly Haven source models: CC0 1.0; optimisation: Connected Rails"},"scene":0,"scenes":[{"nodes":[0,1,2,3]}],"nodes":[{"name":"crown_LOD0","mesh":0},{"name":"crown_LOD1","mesh":1},{"name":"crown_LOD2","mesh":2},{"name":"crown_LOD3","mesh":3}],"meshes":[{"name":"crown_LOD0","primitives":[{"attributes":{"POSITION":0,"NORMAL":1,"TEXCOORD_0":2},"indices":3,"material":1}]},{"name":"crown_LOD1","primitives":[{"attributes":{"POSITION":4,"NORMAL":5,"TEXCOORD_0":6},"indices":7,"material":1}]},{"name":"crown_LOD2","primitives":[{"attributes":{"POSITION":8,"NORMAL":9,"TEXCOORD_0":10},"indices":11,"material":2}]},{"name":"crown_LOD3","primitives":[{"attributes":{"POSITION":12,"NORMAL":13,"TEXCOORD_0":14},"indices":15,"material":2}]}],"buffers":[{"uri":"faulbaum_b.bin","byteLength":7326900}],"bufferViews":[{"buffer":0,"byteOffset":0,"byteLength":1330836,"target":34962},{"buffer":0,"byteOffset":1330836,"byteLength":1330836,"target":34962},{"buffer":0,"byteOffset":2661672,"byteLength":887224,"target":34962},{"buffer":0,"byteOffset":3548896,"byteLength":1063548,"target":34963},{"buffer":0,"byteOffset":4612444,"byteLength":806160,"target":34962},{"buffer":0,"byteOffset":5418604,"byteLength":806160,"target":34962},{"buffer":0,"byteOffset":6224764,"byteLength":537440,"target":34962},{"buffer":0,"byteOffset":6762204,"byteLength":563856,"target":34963},{"buffer":0,"byteOffset":7326060,"byteLength":192,"target":34962},{"buffer":0,"byteOffset":7326252,"byteLength":192,"target":34962},{"buffer":0,"byteOffset":7326444,"byteLength":128,"target":34962},{"buffer":0,"byteOffset":7326572,"byteLength":48,"target":34963},{"buffer":0,"byteOffset":7326620,"byteLength":96,"target":34962},{"buffer":0,"byteOffset":7326716,"byteLength":96,"target":34962},{"buffer":0,"byteOffset":7326812,"byteLength":64,"target":34962},{"buffer":0,"byteOffset":7326876,"byteLength":24,"target":34963}],"accessors":[{"bufferView":0,"componentType":5126,"count":110903,"type":"VEC3","min":[-1.5971837827080615,0.0,-1.6624999999999996],"max":[1.5971837827080615,3.5,1.6624999999999996]},{"bufferView":1,"componentType":5126,"count":110903,"type":"VEC3","min":[-0.9999983310699463,-0.9998363256454468,-0.9999710917472839],"max":[0.9999964237213135,0.9999986290931702,0.9998689293861389]},{"bufferView":2,"componentType":5126,"count":110903,"type":"VEC2"},{"bufferView":3,"componentType":5125,"count":265887,"type":"SCALAR","min":[0],"max":[110902]},{"bufferView":4,"componentType":5126,"count":67180,"type":"VEC3","min":[-1.4259312716305694,0.0013762806831466123,-1.3837110106995223],"max":[1.8687530176447746,3.5042499254047343,1.8194837771338654]},{"bufferView":5,"componentType":5126,"count":67180,"type":"VEC3","min":[-0.9997727274894714,-0.9998367428779602,-0.9999563097953796],"max":[0.9999893307685852,0.9999986290931702,0.9998610019683838]},{"bufferView":6,"componentType":5126,"count":67180,"type":"VEC2"},{"bufferView":7,"componentType":5125,"count":140964,"type":"SCALAR","min":[0],"max":[67179]},{"bufferView":8,"componentType":5126,"count":16,"type":"VEC3","min":[-1.82875,0,-1.82875],"max":[1.82875,3.5,1.82875]},{"bufferView":9,"componentType":5126,"count":16,"type":"VEC3","min":[-1.0,0,-0.7071067811865475],"max":[-0.0,0,1.0]},{"bufferView":10,"componentType":5126,"count":16,"type":"VEC2"},{"bufferView":11,"componentType":5123,"count":24,"type":"SCALAR","min":[0],"max":[15]},{"bufferView":12,"componentType":5126,"count":8,"type":"VEC3","min":[-1.82875,0,-1.82875],"max":[1.82875,3.5,1.82875]},{"bufferView":13,"componentType":5126,"count":8,"type":"VEC3","min":[-1.0,0,6.123233995736766e-17],"max":[-0.0,0,1.0]},{"bufferView":14,"componentType":5126,"count":8,"type":"VEC2"},{"bufferView":15,"componentType":5123,"count":12,"type":"SCALAR","min":[0],"max":[7]}],"samplers":[{"magFilter":9729,"minFilter":9987,"wrapS":10497,"wrapT":10497}],"images":[{"uri":"textures/poly_searsia_lucida.png"},{"uri":"textures/poly_searsia_lucida.png"},{"uri":"impostors/faulbaum_b_summer.png"}],"textures":[{"source":0,"sampler":0},{"source":1,"sampler":0},{"source":2,"sampler":0}],"materials":[{"name":"bark","pbrMetallicRoughness":{"baseColorFactor":[0.82,0.82,0.82,1.0],"baseColorTexture":{"index":0},"metallicFactor":0.0,"roughnessFactor":0.91},"doubleSided":false},{"name":"foliage","pbrMetallicRoughness":{"baseColorFactor":[0.606078431372549,1.0,0.766078431372549,1.0],"baseColorTexture":{"index":1},"metallicFactor":0.0,"roughnessFactor":0.78},"doubleSided":true,"alphaMode":"MASK","alphaCutoff":0.18},{"name":"whole_tree_impostor","pbrMetallicRoughness":{"baseColorFactor":[1,1,1,1],"baseColorTexture":{"index":2},"metallicFactor":0.0,"roughnessFactor":0.92},"doubleSided":true,"alphaMode":"MASK","alphaCutoff":0.18}]}