{"asset":{"version":"2.0","generator":"Connected Rails CC0 tree importer","copyright":"Mantissa and Poly Haven source models: CC0 1.0; optimisation: Connected Rails"},"scene":0,"scenes":[{"nodes":[0,1,2,3]}],"nodes":[{"name":"crown_LOD0","mesh":0},{"name":"crown_LOD1","mesh":1},{"name":"crown_LOD2","mesh":2},{"name":"crown_LOD3","mesh":3}],"meshes":[{"name":"crown_LOD0","primitives":[{"attributes":{"POSITION":0,"NORMAL":1,"TEXCOORD_0":2},"indices":3,"material":1}]},{"name":"crown_LOD1","primitives":[{"attributes":{"POSITION":4,"NORMAL":5,"TEXCOORD_0":6},"indices":7,"material":1}]},{"name":"crown_LOD2","primitives":[{"attributes":{"POSITION":8,"NORMAL":9,"TEXCOORD_0":10},"indices":11,"material":2}]},{"name":"crown_LOD3","primitives":[{"attributes":{"POSITION":12,"NORMAL":13,"TEXCOORD_0":14},"indices":15,"material":2}]}],"buffers":[{"uri":"faulbaum_c.bin","byteLength":8762660}],"bufferViews":[{"buffer":0,"byteOffset":0,"byteLength":1635732,"target":34962},{"buffer":0,"byteOffset":1635732,"byteLength":1635732,"target":34962},{"buffer":0,"byteOffset":3271464,"byteLength":1090488,"target":34962},{"buffer":0,"byteOffset":4361952,"byteLength":1360860,"target":34963},{"buffer":0,"byteOffset":5722812,"byteLength":899220,"target":34962},{"buffer":0,"byteOffset":6622032,"byteLength":899220,"target":34962},{"buffer":0,"byteOffset":7521252,"byteLength":599480,"target":34962},{"buffer":0,"byteOffset":8120732,"byteLength":641088,"target":34963},{"buffer":0,"byteOffset":8761820,"byteLength":192,"target":34962},{"buffer":0,"byteOffset":8762012,"byteLength":192,"target":34962},{"buffer":0,"byteOffset":8762204,"byteLength":128,"target":34962},{"buffer":0,"byteOffset":8762332,"byteLength":48,"target":34963},{"buffer":0,"byteOffset":8762380,"byteLength":96,"target":34962},{"buffer":0,"byteOffset":8762476,"byteLength":96,"target":34962},{"buffer":0,"byteOffset":8762572,"byteLength":64,"target":34962},{"buffer":0,"byteOffset":8762636,"byteLength":24,"target":34963}],"accessors":[{"bufferView":0,"componentType":5126,"count":136311,"type":"VEC3","min":[-2.1821072687086414,0.0,-2.375],"max":[2.1821072687086414,5.0,2.375]},{"bufferView":1,"componentType":5126,"count":136311,"type":"VEC3","min":[-0.9999901056289673,-0.9999894499778748,-0.9999955892562866],"max":[0.9999961256980896,0.9999988675117493,0.9999572038650513]},{"bufferView":2,"componentType":5126,"count":136311,"type":"VEC2"},{"bufferView":3,"componentType":5125,"count":340215,"type":"SCALAR","min":[0],"max":[136310]},{"bufferView":4,"componentType":5126,"count":74935,"type":"VEC3","min":[-2.1749542273519396,-0.0005952227883450352,-2.3749297111638263],"max":[2.0925103196929125,4.999933742024577,2.3751800431254457]},{"bufferView":5,"componentType":5126,"count":74935,"type":"VEC3","min":[-0.9999900460243225,-0.9999983906745911,-0.9999957084655762],"max":[0.9998981356620789,1.0,0.9998669028282166]},{"bufferView":6,"componentType":5126,"count":74935,"type":"VEC2"},{"bufferView":7,"componentType":5125,"count":160272,"type":"SCALAR","min":[0],"max":[74934]},{"bufferView":8,"componentType":5126,"count":16,"type":"VEC3","min":[-2.6125000000000003,0,-2.6125000000000003],"max":[2.6125000000000003,5.0,2.6125000000000003]},{"bufferView":9,"componentType":5126,"count":16,"type":"VEC3","min":[-1.0,0,-0.7071067811865475],"max":[-0.0,0,1.0]},{"bufferView":10,"componentType":5126,"count":16,"type":"VEC2"},{"bufferView":11,"componentType":5123,"count":24,"type":"SCALAR","min":[0],"max":[15]},{"bufferView":12,"componentType":5126,"count":8,"type":"VEC3","min":[-2.6125000000000003,0,-2.6125000000000003],"max":[2.6125000000000003,5.0,2.6125000000000003]},{"bufferView":13,"componentType":5126,"count":8,"type":"VEC3","min":[-1.0,0,6.123233995736766e-17],"max":[-0.0,0,1.0]},{"bufferView":14,"componentType":5126,"count":8,"type":"VEC2"},{"bufferView":15,"componentType":5123,"count":12,"type":"SCALAR","min":[0],"max":[7]}],"samplers":[{"magFilter":9729,"minFilter":9987,"wrapS":10497,"wrapT":10497}],"images":[{"uri":"textures/poly_searsia_lucida.png"},{"uri":"textures/poly_searsia_lucida.png"},{"uri":"impostors/faulbaum_c_autumn.png"}],"textures":[{"source":0,"sampler":0},{"source":1,"sampler":0},{"source":2,"sampler":0}],"materials":[{"name":"bark","pbrMetallicRoughness":{"baseColorFactor":[0.82,0.82,0.82,1.0],"baseColorTexture":{"index":0},"metallicFactor":0.0,"roughnessFactor":0.91},"doubleSided":false},{"name":"foliage","pbrMetallicRoughness":{"baseColorFactor":[0.72,0.42,0.09,1.0],"baseColorTexture":{"index":1},"metallicFactor":0.0,"roughnessFactor":0.78},"doubleSided":true,"alphaMode":"MASK","alphaCutoff":0.18},{"name":"whole_tree_impostor","pbrMetallicRoughness":{"baseColorFactor":[1,1,1,1],"baseColorTexture":{"index":2},"metallicFactor":0.0,"roughnessFactor":0.92},"doubleSided":true,"alphaMode":"MASK","alphaCutoff":0.18}]}