{"asset":{"version":"2.0","generator":"Connected Rails CC0 hedge composer","copyright":"Mantissa and Poly Haven source models: CC0 1.0; hedge composition: Connected Rails"},"scene":0,"scenes":[{"nodes":[0,1,2,3,4,5,6,7,8,9,10,11]}],"nodes":[{"name":"hedge_LOD0","children":[12,16,22,24,36,40,42,52,60,62,64,76]},{"name":"hedge_LOD1","children":[13,17,23,25,37,41,43,53,61,63,65,77]},{"name":"hedge_LOD2","children":[14,18,26,38,44,54,66,78]},{"name":"hedge_LOD3","children":[15,19,27,39,45,55,67,79]},{"name":"hedge_LOD4","children":[20,28,46,56,68,80]},{"name":"hedge_LOD5","children":[21,29,47,57,69,81]},{"name":"hedge_LOD6","children":[30,48,58,70,82]},{"name":"hedge_LOD7","children":[31,49,59,71,83]},{"name":"hedge_LOD8","children":[32,50,72,84]},{"name":"hedge_LOD9","children":[33,51,73,85]},{"name":"hedge_LOD10","children":[34,74,86]},{"name":"hedge_LOD11","children":[35,75,87]},{"name":"brombeere_a_part_12_LOD0","mesh":1,"translation":[-4.0,-0.0,-0.2662288165796291],"rotation":[0.0,0.5744724180784173,0.0,0.8185239403139875],"scale":[0.8,2.94158826366537,1.9118171573722538]},{"name":"brombeere_a_part_13_LOD1","mesh":1,"translation":[-4.0,-0.0,-0.2662288165796291],"rotation":[0.0,0.5744724180784173,0.0,0.8185239403139875],"scale":[0.8,2.94158826366537,1.9118171573722538]},{"name":"brombeere_a_part_14_LOD2","mesh":1,"translation":[-4.0,-0.0,-0.2662288165796291],"rotation":[0.0,0.5744724180784173,0.0,0.8185239403139875],"scale":[0.8,2.94158826366537,1.9118171573722538]},{"name":"brombeere_a_part_15_LOD3","mesh":1,"translation":[-4.0,-0.0,-0.2662288165796291],"rotation":[0.0,0.5744724180784173,0.0,0.8185239403139875],"scale":[0.8,2.94158826366537,1.9118171573722538]},{"name":"himbeere_a_part_16_LOD0","mesh":5,"translation":[-3.2,-0.0,-0.002009788141211777],"rotation":[0.0,0.9854480699141251,0.0,0.16997676753758295],"scale":[2.2184873949579833,3.589832157169066,3.7026263035725635]},{"name":"himbeere_a_part_17_LOD1","mesh":5,"translation":[-3.2,-0.0,-0.002009788141211777],"rotation":[0.0,0.9854480699141251,0.0,0.16997676753758295],"scale":[2.2184873949579833,3.589832157169066,3.7026263035725635]},{"name":"himbeere_a_part_18_LOD2","mesh":5,"translation":[-3.2,-0.0,-0.002009788141211777],"rotation":[0.0,0.9854480699141251,0.0,0.16997676753758295],"scale":[2.2184873949579833,3.589832157169066,3.7026263035725635]},{"name":"himbeere_a_part_19_LOD3","mesh":5,"translation":[-3.2,-0.0,-0.002009788141211777],"rotation":[0.0,0.9854480699141251,0.0,0.16997676753758295],"scale":[2.2184873949579833,3.589832157169066,3.7026263035725635]},{"name":"himbeere_a_part_20_LOD4","mesh":5,"translation":[-3.2,-0.0,-0.002009788141211777],"rotation":[0.0,0.9854480699141251,0.0,0.16997676753758295],"scale":[2.2184873949579833,3.589832157169066,3.7026263035725635]},{"name":"himbeere_a_part_21_LOD5","mesh":5,"translation":[-3.2,-0.0,-0.002009788141211777],"rotation":[0.0,0.9854480699141251,0.0,0.16997676753758295],"scale":[2.2184873949579833,3.589832157169066,3.7026263035725635]},{"name":"berberitze_a_part_22_LOD0","mesh":9,"translation":[-2.4,-0.0,0.27244370969954823],"rotation":[0.0,0.9985428630338694,0.0,0.05396434641615781],"scale":[1.1,3.0990899629192983,2.412416383869004]},{"name":"berberitze_a_part_23_LOD1","mesh":9,"translation":[-2.4,-0.0,0.27244370969954823],"rotation":[0.0,0.9985428630338694,0.0,0.05396434641615781],"scale":[1.1,3.0990899629192983,2.412416383869004]},{"name":"heckenkirsche_a_part_24_LOD0","mesh":13,"translation":[-1.5999999999999996,-0.0,0.09424574855369727],"rotation":[0.0,0.8337357210196468,0.0,0.5521636962856665],"scale":[1.2,3.1012433339090126,2.673983076344164]},{"name":"heckenkirsche_a_part_25_LOD1","mesh":13,"translation":[-1.5999999999999996,-0.0,0.09424574855369727],"rotation":[0.0,0.8337357210196468,0.0,0.5521636962856665],"scale":[1.2,3.1012433339090126,2.673983076344164]},{"name":"heckenkirsche_a_part_26_LOD2","mesh":13,"translation":[-1.5999999999999996,-0.0,0.09424574855369727],"rotation":[0.0,0.8337357210196468,0.0,0.5521636962856665],"scale":[1.2,3.1012433339090126,2.673983076344164]},{"name":"heckenkirsche_a_part_27_LOD3","mesh":13,"translation":[-1.5999999999999996,-0.0,0.09424574855369727],"rotation":[0.0,0.8337357210196468,0.0,0.5521636962856665],"scale":[1.2,3.1012433339090126,2.673983076344164]},{"name":"heckenkirsche_a_part_28_LOD4","mesh":13,"translation":[-1.5999999999999996,-0.0,0.09424574855369727],"rotation":[0.0,0.8337357210196468,0.0,0.5521636962856665],"scale":[1.2,3.1012433339090126,2.673983076344164]},{"name":"heckenkirsche_a_part_29_LOD5","mesh":13,"translation":[-1.5999999999999996,-0.0,0.09424574855369727],"rotation":[0.0,0.8337357210196468,0.0,0.5521636962856665],"scale":[1.2,3.1012433339090126,2.673983076344164]},{"name":"heckenkirsche_a_part_30_LOD6","mesh":13,"translation":[-1.5999999999999996,-0.0,0.09424574855369727],"rotation":[0.0,0.8337357210196468,0.0,0.5521636962856665],"scale":[1.2,3.1012433339090126,2.673983076344164]},{"name":"heckenkirsche_a_part_31_LOD7","mesh":13,"translation":[-1.5999999999999996,-0.0,0.09424574855369727],"rotation":[0.0,0.8337357210196468,0.0,0.5521636962856665],"scale":[1.2,3.1012433339090126,2.673983076344164]},{"name":"heckenkirsche_a_part_32_LOD8","mesh":13,"translation":[-1.5999999999999996,-0.0,0.09424574855369727],"rotation":[0.0,0.8337357210196468,0.0,0.5521636962856665],"scale":[1.2,3.1012433339090126,2.673983076344164]},{"name":"heckenkirsche_a_part_33_LOD9","mesh":13,"translation":[-1.5999999999999996,-0.0,0.09424574855369727],"rotation":[0.0,0.8337357210196468,0.0,0.5521636962856665],"scale":[1.2,3.1012433339090126,2.673983076344164]},{"name":"heckenkirsche_a_part_34_LOD10","mesh":13,"translation":[-1.5999999999999996,-0.0,0.09424574855369727],"rotation":[0.0,0.8337357210196468,0.0,0.5521636962856665],"scale":[1.2,3.1012433339090126,2.673983076344164]},{"name":"heckenkirsche_a_part_35_LOD11","mesh":13,"translation":[-1.5999999999999996,-0.0,0.09424574855369727],"rotation":[0.0,0.8337357210196468,0.0,0.5521636962856665],"scale":[1.2,3.1012433339090126,2.673983076344164]},{"name":"hundsrose_a_part_36_LOD0","mesh":17,"translation":[-0.7999999999999998,-0.0,0.17371908200772035],"rotation":[0.0,-0.8574767967479998,0.0,0.5145226360800752],"scale":[0.7040000000000001,1.9271677303413728,1.5320100490493527]},{"name":"hundsrose_a_part_37_LOD1","mesh":17,"translation":[-0.7999999999999998,-0.0,0.17371908200772035],"rotation":[0.0,-0.8574767967479998,0.0,0.5145226360800752],"scale":[0.7040000000000001,1.9271677303413728,1.5320100490493527]},{"name":"hundsrose_a_part_38_LOD2","mesh":17,"translation":[-0.7999999999999998,-0.0,0.17371908200772035],"rotation":[0.0,-0.8574767967479998,0.0,0.5145226360800752],"scale":[0.7040000000000001,1.9271677303413728,1.5320100490493527]},{"name":"hundsrose_a_part_39_LOD3","mesh":17,"translation":[-0.7999999999999998,-0.0,0.17371908200772035],"rotation":[0.0,-0.8574767967479998,0.0,0.5145226360800752],"scale":[0.7040000000000001,1.9271677303413728,1.5320100490493527]},{"name":"brombeere_a_part_40_LOD0","mesh":1,"translation":[0.0,-0.0,0.38710285260797395],"rotation":[0.0,-0.635615153857302,0.0,0.772006072636063],"scale":[0.8,2.8138084663192924,1.6178151075816272]},{"name":"brombeere_a_part_41_LOD1","mesh":1,"translation":[0.0,-0.0,0.38710285260797395],"rotation":[0.0,-0.635615153857302,0.0,0.772006072636063],"scale":[0.8,2.8138084663192924,1.6178151075816272]},{"name":"himbeere_a_part_42_LOD0","mesh":5,"translation":[0.8000000000000007,-0.0,0.48284925734764905],"rotation":[0.0,-0.9973409294993834,0.0,0.07287709067536975],"scale":[2.2184873949579833,4.8180354921906305,3.6031956586055798]},{"name":"himbeere_a_part_43_LOD1","mesh":5,"translation":[0.8000000000000007,-0.0,0.48284925734764905],"rotation":[0.0,-0.9973409294993834,0.0,0.07287709067536975],"scale":[2.2184873949579833,4.8180354921906305,3.6031956586055798]},{"name":"himbeere_a_part_44_LOD2","mesh":5,"translation":[0.8000000000000007,-0.0,0.48284925734764905],"rotation":[0.0,-0.9973409294993834,0.0,0.07287709067536975],"scale":[2.2184873949579833,4.8180354921906305,3.6031956586055798]},{"name":"himbeere_a_part_45_LOD3","mesh":5,"translation":[0.8000000000000007,-0.0,0.48284925734764905],"rotation":[0.0,-0.9973409294993834,0.0,0.07287709067536975],"scale":[2.2184873949579833,4.8180354921906305,3.6031956586055798]},{"name":"himbeere_a_part_46_LOD4","mesh":5,"translation":[0.8000000000000007,-0.0,0.48284925734764905],"rotation":[0.0,-0.9973409294993834,0.0,0.07287709067536975],"scale":[2.2184873949579833,4.8180354921906305,3.6031956586055798]},{"name":"himbeere_a_part_47_LOD5","mesh":5,"translation":[0.8000000000000007,-0.0,0.48284925734764905],"rotation":[0.0,-0.9973409294993834,0.0,0.07287709067536975],"scale":[2.2184873949579833,4.8180354921906305,3.6031956586055798]},{"name":"himbeere_a_part_48_LOD6","mesh":5,"translation":[0.8000000000000007,-0.0,0.48284925734764905],"rotation":[0.0,-0.9973409294993834,0.0,0.07287709067536975],"scale":[2.2184873949579833,4.8180354921906305,3.6031956586055798]},{"name":"himbeere_a_part_49_LOD7","mesh":5,"translation":[0.8000000000000007,-0.0,0.48284925734764905],"rotation":[0.0,-0.9973409294993834,0.0,0.07287709067536975],"scale":[2.2184873949579833,4.8180354921906305,3.6031956586055798]},{"name":"himbeere_a_part_50_LOD8","mesh":5,"translation":[0.8000000000000007,-0.0,0.48284925734764905],"rotation":[0.0,-0.9973409294993834,0.0,0.07287709067536975],"scale":[2.2184873949579833,4.8180354921906305,3.6031956586055798]},{"name":"himbeere_a_part_51_LOD9","mesh":5,"translation":[0.8000000000000007,-0.0,0.48284925734764905],"rotation":[0.0,-0.9973409294993834,0.0,0.07287709067536975],"scale":[2.2184873949579833,4.8180354921906305,3.6031956586055798]},{"name":"berberitze_a_part_52_LOD0","mesh":9,"translation":[1.6000000000000005,-0.0,-0.4389600180682471],"rotation":[0.0,-0.5205779079067209,0.0,0.8538141728733845],"scale":[1.1,3.3010532516749964,2.1583302703715557]},{"name":"berberitze_a_part_53_LOD1","mesh":9,"translation":[1.6000000000000005,-0.0,-0.4389600180682471],"rotation":[0.0,-0.5205779079067209,0.0,0.8538141728733845],"scale":[1.1,3.3010532516749964,2.1583302703715557]},{"name":"berberitze_a_part_54_LOD2","mesh":9,"translation":[1.6000000000000005,-0.0,-0.4389600180682471],"rotation":[0.0,-0.5205779079067209,0.0,0.8538141728733845],"scale":[1.1,3.3010532516749964,2.1583302703715557]},{"name":"berberitze_a_part_55_LOD3","mesh":9,"translation":[1.6000000000000005,-0.0,-0.4389600180682471],"rotation":[0.0,-0.5205779079067209,0.0,0.8538141728733845],"scale":[1.1,3.3010532516749964,2.1583302703715557]},{"name":"berberitze_a_part_56_LOD4","mesh":9,"translation":[1.6000000000000005,-0.0,-0.4389600180682471],"rotation":[0.0,-0.5205779079067209,0.0,0.8538141728733845],"scale":[1.1,3.3010532516749964,2.1583302703715557]},{"name":"berberitze_a_part_57_LOD5","mesh":9,"translation":[1.6000000000000005,-0.0,-0.4389600180682471],"rotation":[0.0,-0.5205779079067209,0.0,0.8538141728733845],"scale":[1.1,3.3010532516749964,2.1583302703715557]},{"name":"berberitze_a_part_58_LOD6","mesh":9,"translation":[1.6000000000000005,-0.0,-0.4389600180682471],"rotation":[0.0,-0.5205779079067209,0.0,0.8538141728733845],"scale":[1.1,3.3010532516749964,2.1583302703715557]},{"name":"berberitze_a_part_59_LOD7","mesh":9,"translation":[1.6000000000000005,-0.0,-0.4389600180682471],"rotation":[0.0,-0.5205779079067209,0.0,0.8538141728733845],"scale":[1.1,3.3010532516749964,2.1583302703715557]},{"name":"heckenkirsche_a_part_60_LOD0","mesh":13,"translation":[2.4000000000000004,-0.0,-0.4356491228430425],"rotation":[0.0,0.21291187825919747,0.0,0.9770714058328289],"scale":[1.2,2.4731857363633716,2.5947293567296588]},{"name":"heckenkirsche_a_part_61_LOD1","mesh":13,"translation":[2.4000000000000004,-0.0,-0.4356491228430425],"rotation":[0.0,0.21291187825919747,0.0,0.9770714058328289],"scale":[1.2,2.4731857363633716,2.5947293567296588]},{"name":"hundsrose_a_part_62_LOD0","mesh":17,"translation":[3.2,-0.0,0.4152895340721572],"rotation":[0.0,-0.9316384552367477,0.0,0.3633865555081619],"scale":[0.7040000000000001,1.8183542018000078,1.6363477963285156]},{"name":"hundsrose_a_part_63_LOD1","mesh":17,"translation":[3.2,-0.0,0.4152895340721572],"rotation":[0.0,-0.9316384552367477,0.0,0.3633865555081619],"scale":[0.7040000000000001,1.8183542018000078,1.6363477963285156]},{"name":"brombeere_a_part_64_LOD0","mesh":1,"translation":[4.0,-0.0,0.09487367438209793],"rotation":[0.0,0.4845591732043923,0.0,0.8747584853337953],"scale":[0.8,3.1186400927698115,1.8067450541150751]},{"name":"brombeere_a_part_65_LOD1","mesh":1,"translation":[4.0,-0.0,0.09487367438209793],"rotation":[0.0,0.4845591732043923,0.0,0.8747584853337953],"scale":[0.8,3.1186400927698115,1.8067450541150751]},{"name":"brombeere_a_part_66_LOD2","mesh":1,"translation":[4.0,-0.0,0.09487367438209793],"rotation":[0.0,0.4845591732043923,0.0,0.8747584853337953],"scale":[0.8,3.1186400927698115,1.8067450541150751]},{"name":"brombeere_a_part_67_LOD3","mesh":1,"translation":[4.0,-0.0,0.09487367438209793],"rotation":[0.0,0.4845591732043923,0.0,0.8747584853337953],"scale":[0.8,3.1186400927698115,1.8067450541150751]},{"name":"brombeere_a_part_68_LOD4","mesh":1,"translation":[4.0,-0.0,0.09487367438209793],"rotation":[0.0,0.4845591732043923,0.0,0.8747584853337953],"scale":[0.8,3.1186400927698115,1.8067450541150751]},{"name":"brombeere_a_part_69_LOD5","mesh":1,"translation":[4.0,-0.0,0.09487367438209793],"rotation":[0.0,0.4845591732043923,0.0,0.8747584853337953],"scale":[0.8,3.1186400927698115,1.8067450541150751]},{"name":"brombeere_a_part_70_LOD6","mesh":1,"translation":[4.0,-0.0,0.09487367438209793],"rotation":[0.0,0.4845591732043923,0.0,0.8747584853337953],"scale":[0.8,3.1186400927698115,1.8067450541150751]},{"name":"brombeere_a_part_71_LOD7","mesh":1,"translation":[4.0,-0.0,0.09487367438209793],"rotation":[0.0,0.4845591732043923,0.0,0.8747584853337953],"scale":[0.8,3.1186400927698115,1.8067450541150751]},{"name":"brombeere_a_part_72_LOD8","mesh":1,"translation":[4.0,-0.0,0.09487367438209793],"rotation":[0.0,0.4845591732043923,0.0,0.8747584853337953],"scale":[0.8,3.1186400927698115,1.8067450541150751]},{"name":"brombeere_a_part_73_LOD9","mesh":1,"translation":[4.0,-0.0,0.09487367438209793],"rotation":[0.0,0.4845591732043923,0.0,0.8747584853337953],"scale":[0.8,3.1186400927698115,1.8067450541150751]},{"name":"brombeere_a_part_74_LOD10","mesh":1,"translation":[4.0,-0.0,0.09487367438209793],"rotation":[0.0,0.4845591732043923,0.0,0.8747584853337953],"scale":[0.8,3.1186400927698115,1.8067450541150751]},{"name":"brombeere_a_part_75_LOD11","mesh":1,"translation":[4.0,-0.0,0.09487367438209793],"rotation":[0.0,0.4845591732043923,0.0,0.8747584853337953],"scale":[0.8,3.1186400927698115,1.8067450541150751]},{"name":"leaf_volume_LOD0","mesh":20},{"name":"leaf_volume_LOD1","mesh":21},{"name":"leaf_volume_LOD2","mesh":22},{"name":"leaf_volume_LOD3","mesh":23},{"name":"leaf_volume_LOD4","mesh":24},{"name":"leaf_volume_LOD5","mesh":25},{"name":"leaf_volume_LOD6","mesh":26},{"name":"leaf_volume_LOD7","mesh":27},{"name":"leaf_volume_LOD8","mesh":28},{"name":"leaf_volume_LOD9","mesh":29},{"name":"leaf_volume_LOD10","mesh":30},{"name":"leaf_volume_LOD11","mesh":31}],"meshes":[{"name":"brombeere_a_crown_LOD0","primitives":[{"attributes":{"POSITION":0,"NORMAL":1,"TEXCOORD_0":2},"indices":3,"material":1}]},{"name":"brombeere_a_crown_LOD1","primitives":[{"attributes":{"POSITION":4,"NORMAL":5,"TEXCOORD_0":6},"indices":7,"material":1}]},{"name":"brombeere_a_crown_LOD2","primitives":[{"attributes":{"POSITION":8,"NORMAL":9,"TEXCOORD_0":10},"indices":11,"material":2}]},{"name":"brombeere_a_crown_LOD3","primitives":[{"attributes":{"POSITION":12,"NORMAL":13,"TEXCOORD_0":14},"indices":15,"material":2}]},{"name":"himbeere_a_crown_LOD0","primitives":[{"attributes":{"POSITION":16,"NORMAL":17,"TEXCOORD_0":18},"indices":19,"material":4}]},{"name":"himbeere_a_crown_LOD1","primitives":[{"attributes":{"POSITION":20,"NORMAL":21,"TEXCOORD_0":22},"indices":23,"material":4}]},{"name":"himbeere_a_crown_LOD2","primitives":[{"attributes":{"POSITION":24,"NORMAL":25,"TEXCOORD_0":26},"indices":27,"material":5}]},{"name":"himbeere_a_crown_LOD3","primitives":[{"attributes":{"POSITION":28,"NORMAL":29,"TEXCOORD_0":30},"indices":31,"material":5}]},{"name":"berberitze_a_crown_LOD0","primitives":[{"attributes":{"POSITION":32,"NORMAL":33,"TEXCOORD_0":34},"indices":35,"material":7}]},{"name":"berberitze_a_crown_LOD1","primitives":[{"attributes":{"POSITION":36,"NORMAL":37,"TEXCOORD_0":38},"indices":39,"material":7}]},{"name":"berberitze_a_crown_LOD2","primitives":[{"attributes":{"POSITION":40,"NORMAL":41,"TEXCOORD_0":42},"indices":43,"material":8}]},{"name":"berberitze_a_crown_LOD3","primitives":[{"attributes":{"POSITION":44,"NORMAL":45,"TEXCOORD_0":46},"indices":47,"material":8}]},{"name":"heckenkirsche_a_crown_LOD0","primitives":[{"attributes":{"POSITION":48,"NORMAL":49,"TEXCOORD_0":50},"indices":51,"material":10}]},{"name":"heckenkirsche_a_crown_LOD1","primitives":[{"attributes":{"POSITION":52,"NORMAL":53,"TEXCOORD_0":54},"indices":55,"material":10}]},{"name":"heckenkirsche_a_crown_LOD2","primitives":[{"attributes":{"POSITION":56,"NORMAL":57,"TEXCOORD_0":58},"indices":59,"material":11}]},{"name":"heckenkirsche_a_crown_LOD3","primitives":[{"attributes":{"POSITION":60,"NORMAL":61,"TEXCOORD_0":62},"indices":63,"material":11}]},{"name":"hundsrose_a_crown_LOD0","primitives":[{"attributes":{"POSITION":64,"NORMAL":65,"TEXCOORD_0":66},"indices":67,"material":13}]},{"name":"hundsrose_a_crown_LOD1","primitives":[{"attributes":{"POSITION":68,"NORMAL":69,"TEXCOORD_0":70},"indices":71,"material":13}]},{"name":"hundsrose_a_crown_LOD2","primitives":[{"attributes":{"POSITION":72,"NORMAL":73,"TEXCOORD_0":74},"indices":75,"material":14}]},{"name":"hundsrose_a_crown_LOD3","primitives":[{"attributes":{"POSITION":76,"NORMAL":77,"TEXCOORD_0":78},"indices":79,"material":14}]},{"name":"feldhecke_leaf_volume_LOD0","primitives":[{"attributes":{"POSITION":80,"NORMAL":81,"TEXCOORD_0":82},"indices":83,"material":15}]},{"name":"feldhecke_leaf_volume_LOD1","primitives":[{"attributes":{"POSITION":84,"NORMAL":85,"TEXCOORD_0":86},"indices":87,"material":16}]},{"name":"feldhecke_leaf_volume_LOD2","primitives":[{"attributes":{"POSITION":88,"NORMAL":89,"TEXCOORD_0":90},"indices":91,"material":17}]},{"name":"feldhecke_leaf_volume_LOD3","primitives":[{"attributes":{"POSITION":92,"NORMAL":93,"TEXCOORD_0":94},"indices":95,"material":18}]},{"name":"feldhecke_leaf_volume_LOD4","primitives":[{"attributes":{"POSITION":96,"NORMAL":97,"TEXCOORD_0":98},"indices":99,"material":19}]},{"name":"feldhecke_leaf_volume_LOD5","primitives":[{"attributes":{"POSITION":100,"NORMAL":101,"TEXCOORD_0":102},"indices":103,"material":20}]},{"name":"feldhecke_leaf_volume_LOD6","primitives":[{"attributes":{"POSITION":104,"NORMAL":105,"TEXCOORD_0":106},"indices":107,"material":21}]},{"name":"feldhecke_leaf_volume_LOD7","primitives":[{"attributes":{"POSITION":108,"NORMAL":109,"TEXCOORD_0":110},"indices":111,"material":22}]},{"name":"feldhecke_leaf_volume_LOD8","primitives":[{"attributes":{"POSITION":112,"NORMAL":113,"TEXCOORD_0":114},"indices":115,"material":23}]},{"name":"feldhecke_leaf_volume_LOD9","primitives":[{"attributes":{"POSITION":116,"NORMAL":117,"TEXCOORD_0":118},"indices":119,"material":24}]},{"name":"feldhecke_leaf_volume_LOD10","primitives":[{"attributes":{"POSITION":120,"NORMAL":121,"TEXCOORD_0":122},"indices":123,"material":25}]},{"name":"feldhecke_leaf_volume_LOD11","primitives":[{"attributes":{"POSITION":124,"NORMAL":125,"TEXCOORD_0":126},"indices":127,"material":26}]}],"buffers":[{"uri":"brombeere_a.bin","byteLength":494748},{"uri":"himbeere_a.bin","byteLength":268460},{"uri":"berberitze_a.bin","byteLength":494748},{"uri":"heckenkirsche_a.bin","byteLength":494748},{"uri":"hundsrose_a.bin","byteLength":494748},{"uri":"feldhecke_b_hedge.bin","byteLength":8841000}],"bufferViews":[{"buffer":0,"byteOffset":0,"byteLength":105048,"target":34962},{"buffer":0,"byteOffset":105048,"byteLength":105048,"target":34962},{"buffer":0,"byteOffset":210096,"byteLength":70032,"target":34962},{"buffer":0,"byteOffset":280128,"byteLength":43392,"target":34963},{"buffer":0,"byteOffset":323520,"byteLength":56400,"target":34962},{"buffer":0,"byteOffset":379920,"byteLength":56400,"target":34962},{"buffer":0,"byteOffset":436320,"byteLength":37600,"target":34962},{"buffer":0,"byteOffset":473920,"byteLength":19986,"target":34963},{"buffer":0,"byteOffset":493908,"byteLength":192,"target":34962},{"buffer":0,"byteOffset":494100,"byteLength":192,"target":34962},{"buffer":0,"byteOffset":494292,"byteLength":128,"target":34962},{"buffer":0,"byteOffset":494420,"byteLength":48,"target":34963},{"buffer":0,"byteOffset":494468,"byteLength":96,"target":34962},{"buffer":0,"byteOffset":494564,"byteLength":96,"target":34962},{"buffer":0,"byteOffset":494660,"byteLength":64,"target":34962},{"buffer":0,"byteOffset":494724,"byteLength":24,"target":34963},{"buffer":1,"byteOffset":0,"byteLength":64836,"target":34962},{"buffer":1,"byteOffset":64836,"byteLength":64836,"target":34962},{"buffer":1,"byteOffset":129672,"byteLength":43224,"target":34962},{"buffer":1,"byteOffset":172896,"byteLength":52680,"target":34963},{"buffer":1,"byteOffset":225576,"byteLength":12792,"target":34962},{"buffer":1,"byteOffset":238368,"byteLength":12792,"target":34962},{"buffer":1,"byteOffset":251160,"byteLength":8528,"target":34962},{"buffer":1,"byteOffset":259688,"byteLength":7932,"target":34963},{"buffer":1,"byteOffset":267620,"byteLength":192,"target":34962},{"buffer":1,"byteOffset":267812,"byteLength":192,"target":34962},{"buffer":1,"byteOffset":268004,"byteLength":128,"target":34962},{"buffer":1,"byteOffset":268132,"byteLength":48,"target":34963},{"buffer":1,"byteOffset":268180,"byteLength":96,"target":34962},{"buffer":1,"byteOffset":268276,"byteLength":96,"target":34962},{"buffer":1,"byteOffset":268372,"byteLength":64,"target":34962},{"buffer":1,"byteOffset":268436,"byteLength":24,"target":34963},{"buffer":2,"byteOffset":0,"byteLength":105048,"target":34962},{"buffer":2,"byteOffset":105048,"byteLength":105048,"target":34962},{"buffer":2,"byteOffset":210096,"byteLength":70032,"target":34962},{"buffer":2,"byteOffset":280128,"byteLength":43392,"target":34963},{"buffer":2,"byteOffset":323520,"byteLength":56400,"target":34962},{"buffer":2,"byteOffset":379920,"byteLength":56400,"target":34962},{"buffer":2,"byteOffset":436320,"byteLength":37600,"target":34962},{"buffer":2,"byteOffset":473920,"byteLength":19986,"target":34963},{"buffer":2,"byteOffset":493908,"byteLength":192,"target":34962},{"buffer":2,"byteOffset":494100,"byteLength":192,"target":34962},{"buffer":2,"byteOffset":494292,"byteLength":128,"target":34962},{"buffer":2,"byteOffset":494420,"byteLength":48,"target":34963},{"buffer":2,"byteOffset":494468,"byteLength":96,"target":34962},{"buffer":2,"byteOffset":494564,"byteLength":96,"target":34962},{"buffer":2,"byteOffset":494660,"byteLength":64,"target":34962},{"buffer":2,"byteOffset":494724,"byteLength":24,"target":34963},{"buffer":3,"byteOffset":0,"byteLength":105048,"target":34962},{"buffer":3,"byteOffset":105048,"byteLength":105048,"target":34962},{"buffer":3,"byteOffset":210096,"byteLength":70032,"target":34962},{"buffer":3,"byteOffset":280128,"byteLength":43392,"target":34963},{"buffer":3,"byteOffset":323520,"byteLength":56400,"target":34962},{"buffer":3,"byteOffset":379920,"byteLength":56400,"target":34962},{"buffer":3,"byteOffset":436320,"byteLength":37600,"target":34962},{"buffer":3,"byteOffset":473920,"byteLength":19986,"target":34963},{"buffer":3,"byteOffset":493908,"byteLength":192,"target":34962},{"buffer":3,"byteOffset":494100,"byteLength":192,"target":34962},{"buffer":3,"byteOffset":494292,"byteLength":128,"target":34962},{"buffer":3,"byteOffset":494420,"byteLength":48,"target":34963},{"buffer":3,"byteOffset":494468,"byteLength":96,"target":34962},{"buffer":3,"byteOffset":494564,"byteLength":96,"target":34962},{"buffer":3,"byteOffset":494660,"byteLength":64,"target":34962},{"buffer":3,"byteOffset":494724,"byteLength":24,"target":34963},{"buffer":4,"byteOffset":0,"byteLength":105048,"target":34962},{"buffer":4,"byteOffset":105048,"byteLength":105048,"target":34962},{"buffer":4,"byteOffset":210096,"byteLength":70032,"target":34962},{"buffer":4,"byteOffset":280128,"byteLength":43392,"target":34963},{"buffer":4,"byteOffset":323520,"byteLength":56400,"target":34962},{"buffer":4,"byteOffset":379920,"byteLength":56400,"target":34962},{"buffer":4,"byteOffset":436320,"byteLength":37600,"target":34962},{"buffer":4,"byteOffset":473920,"byteLength":19986,"target":34963},{"buffer":4,"byteOffset":493908,"byteLength":192,"target":34962},{"buffer":4,"byteOffset":494100,"byteLength":192,"target":34962},{"buffer":4,"byteOffset":494292,"byteLength":128,"target":34962},{"buffer":4,"byteOffset":494420,"byteLength":48,"target":34963},{"buffer":4,"byteOffset":494468,"byteLength":96,"target":34962},{"buffer":4,"byteOffset":494564,"byteLength":96,"target":34962},{"buffer":4,"byteOffset":494660,"byteLength":64,"target":34962},{"buffer":4,"byteOffset":494724,"byteLength":24,"target":34963},{"buffer":5,"byteOffset":0,"byteLength":345600,"target":34962},{"buffer":5,"byteOffset":345600,"byteLength":345600,"target":34962},{"buffer":5,"byteOffset":691200,"byteLength":230400,"target":34962},{"buffer":5,"byteOffset":921600,"byteLength":86400,"target":34963},{"buffer":5,"byteOffset":1008000,"byteLength":268800,"target":34962},{"buffer":5,"byteOffset":1276800,"byteLength":268800,"target":34962},{"buffer":5,"byteOffset":1545600,"byteLength":179200,"target":34962},{"buffer":5,"byteOffset":1724800,"byteLength":67200,"target":34963},{"buffer":5,"byteOffset":1792000,"byteLength":264000,"target":34962},{"buffer":5,"byteOffset":2056000,"byteLength":264000,"target":34962},{"buffer":5,"byteOffset":2320000,"byteLength":176000,"target":34962},{"buffer":5,"byteOffset":2496000,"byteLength":66000,"target":34963},{"buffer":5,"byteOffset":2562000,"byteLength":259200,"target":34962},{"buffer":5,"byteOffset":2821200,"byteLength":259200,"target":34962},{"buffer":5,"byteOffset":3080400,"byteLength":172800,"target":34962},{"buffer":5,"byteOffset":3253200,"byteLength":64800,"target":34963},{"buffer":5,"byteOffset":3318000,"byteLength":254400,"target":34962},{"buffer":5,"byteOffset":3572400,"byteLength":254400,"target":34962},{"buffer":5,"byteOffset":3826800,"byteLength":169600,"target":34962},{"buffer":5,"byteOffset":3996400,"byteLength":63600,"target":34963},{"buffer":5,"byteOffset":4060000,"byteLength":249600,"target":34962},{"buffer":5,"byteOffset":4309600,"byteLength":249600,"target":34962},{"buffer":5,"byteOffset":4559200,"byteLength":166400,"target":34962},{"buffer":5,"byteOffset":4725600,"byteLength":62400,"target":34963},{"buffer":5,"byteOffset":4788000,"byteLength":244800,"target":34962},{"buffer":5,"byteOffset":5032800,"byteLength":244800,"target":34962},{"buffer":5,"byteOffset":5277600,"byteLength":163200,"target":34962},{"buffer":5,"byteOffset":5440800,"byteLength":61200,"target":34963},{"buffer":5,"byteOffset":5502000,"byteLength":240000,"target":34962},{"buffer":5,"byteOffset":5742000,"byteLength":240000,"target":34962},{"buffer":5,"byteOffset":5982000,"byteLength":160000,"target":34962},{"buffer":5,"byteOffset":6142000,"byteLength":60000,"target":34963},{"buffer":5,"byteOffset":6202000,"byteLength":235200,"target":34962},{"buffer":5,"byteOffset":6437200,"byteLength":235200,"target":34962},{"buffer":5,"byteOffset":6672400,"byteLength":156800,"target":34962},{"buffer":5,"byteOffset":6829200,"byteLength":58800,"target":34963},{"buffer":5,"byteOffset":6888000,"byteLength":230400,"target":34962},{"buffer":5,"byteOffset":7118400,"byteLength":230400,"target":34962},{"buffer":5,"byteOffset":7348800,"byteLength":153600,"target":34962},{"buffer":5,"byteOffset":7502400,"byteLength":57600,"target":34963},{"buffer":5,"byteOffset":7560000,"byteLength":223200,"target":34962},{"buffer":5,"byteOffset":7783200,"byteLength":223200,"target":34962},{"buffer":5,"byteOffset":8006400,"byteLength":148800,"target":34962},{"buffer":5,"byteOffset":8155200,"byteLength":55800,"target":34963},{"buffer":5,"byteOffset":8211000,"byteLength":216000,"target":34962},{"buffer":5,"byteOffset":8427000,"byteLength":216000,"target":34962},{"buffer":5,"byteOffset":8643000,"byteLength":144000,"target":34962},{"buffer":5,"byteOffset":8787000,"byteLength":54000,"target":34963}],"accessors":[{"bufferView":0,"componentType":5126,"count":8754,"type":"VEC3","min":[-0.825,0.0,-0.6061675879321495],"max":[0.825,1.0,0.6061675879321495]},{"bufferView":1,"componentType":5126,"count":8754,"type":"VEC3","min":[-0.9995777010917664,-0.9998945593833923,-0.9979756474494934],"max":[0.9988959431648254,0.9999789595603943,0.9998255372047424]},{"bufferView":2,"componentType":5126,"count":8754,"type":"VEC2"},{"bufferView":3,"componentType":5123,"count":21696,"type":"SCALAR","min":[0],"max":[8753]},{"bufferView":4,"componentType":5126,"count":4700,"type":"VEC3","min":[-0.8229564668921534,1.6705947594052684e-05,-0.5904178771318837],"max":[0.8354007834529218,1.000045272121852,0.5900219566120868]},{"bufferView":5,"componentType":5126,"count":4700,"type":"VEC3","min":[-0.9975082874298096,-0.999684751033783,-0.9989455342292786],"max":[0.9987160563468933,0.9999789595603943,0.9997523427009583]},{"bufferView":6,"componentType":5126,"count":4700,"type":"VEC2"},{"bufferView":7,"componentType":5123,"count":9993,"type":"SCALAR","min":[0],"max":[4699]},{"bufferView":8,"componentType":5126,"count":16,"type":"VEC3","min":[-0.9075,0,-0.9075],"max":[0.9075,1.0,0.9075]},{"bufferView":9,"componentType":5126,"count":16,"type":"VEC3","min":[-1.0,0,-0.7071067811865475],"max":[-0.0,0,1.0]},{"bufferView":10,"componentType":5126,"count":16,"type":"VEC2"},{"bufferView":11,"componentType":5123,"count":24,"type":"SCALAR","min":[0],"max":[15]},{"bufferView":12,"componentType":5126,"count":8,"type":"VEC3","min":[-0.9075,0,-0.9075],"max":[0.9075,1.0,0.9075]},{"bufferView":13,"componentType":5126,"count":8,"type":"VEC3","min":[-1.0,0,6.123233995736766e-17],"max":[-0.0,0,1.0]},{"bufferView":14,"componentType":5126,"count":8,"type":"VEC2"},{"bufferView":15,"componentType":5123,"count":12,"type":"SCALAR","min":[0],"max":[7]},{"bufferView":16,"componentType":5126,"count":5403,"type":"VEC3","min":[-0.2975,0.0,-0.2652338277353859],"max":[0.2975,0.7,0.2652338277353859]},{"bufferView":17,"componentType":5126,"count":5403,"type":"VEC3","min":[-0.9994304180145264,-0.8523291945457458,-0.9983596801757812],"max":[0.9999390244483948,0.9999638199806213,0.997063398361206]},{"bufferView":18,"componentType":5126,"count":5403,"type":"VEC2"},{"bufferView":19,"componentType":5123,"count":26340,"type":"SCALAR","min":[0],"max":[5402]},{"bufferView":20,"componentType":5126,"count":1066,"type":"VEC3","min":[-0.2971687657304079,0.00027180425854097585,-0.26515763541526727],"max":[0.2968955243065341,0.699973871411052,0.26440942414684815]},{"bufferView":21,"componentType":5126,"count":1066,"type":"VEC3","min":[-0.9994305372238159,-0.5630797743797302,-0.9959743618965149],"max":[0.9791324138641357,0.9999735355377197,0.9973251223564148]},{"bufferView":22,"componentType":5126,"count":1066,"type":"VEC2"},{"bufferView":23,"componentType":5123,"count":3966,"type":"SCALAR","min":[0],"max":[1065]},{"bufferView":24,"componentType":5126,"count":16,"type":"VEC3","min":[-0.32725,0,-0.32725],"max":[0.32725,0.7,0.32725]},{"bufferView":25,"componentType":5126,"count":16,"type":"VEC3","min":[-1.0,0,-0.7071067811865475],"max":[-0.0,0,1.0]},{"bufferView":26,"componentType":5126,"count":16,"type":"VEC2"},{"bufferView":27,"componentType":5123,"count":24,"type":"SCALAR","min":[0],"max":[15]},{"bufferView":28,"componentType":5126,"count":8,"type":"VEC3","min":[-0.32725,0,-0.32725],"max":[0.32725,0.7,0.32725]},{"bufferView":29,"componentType":5126,"count":8,"type":"VEC3","min":[-1.0,0,6.123233995736766e-17],"max":[-0.0,0,1.0]},{"bufferView":30,"componentType":5126,"count":8,"type":"VEC2"},{"bufferView":31,"componentType":5123,"count":12,"type":"SCALAR","min":[0],"max":[7]},{"bufferView":32,"componentType":5126,"count":8754,"type":"VEC3","min":[-0.6,0.0,-0.44084915485974513],"max":[0.6,1.0,0.44084915485974513]},{"bufferView":33,"componentType":5126,"count":8754,"type":"VEC3","min":[-0.9996581077575684,-0.9998005628585815,-0.9986739158630371],"max":[0.9992280602455139,0.9999603033065796,0.9998832941055298]},{"bufferView":34,"componentType":5126,"count":8754,"type":"VEC2"},{"bufferView":35,"componentType":5123,"count":21696,"type":"SCALAR","min":[0],"max":[8753]},{"bufferView":36,"componentType":5126,"count":4700,"type":"VEC3","min":[-0.5985137941033843,1.6705947594052684e-05,-0.429394819732279],"max":[0.6075642061475794,1.000045272121852,0.42910687753606314]},{"bufferView":37,"componentType":5126,"count":4700,"type":"VEC3","min":[-0.9976669549942017,-0.99940425157547,-0.9989551305770874],"max":[0.9989135265350342,0.9999603033065796,0.9998118281364441]},{"bufferView":38,"componentType":5126,"count":4700,"type":"VEC2"},{"bufferView":39,"componentType":5123,"count":9993,"type":"SCALAR","min":[0],"max":[4699]},{"bufferView":40,"componentType":5126,"count":16,"type":"VEC3","min":[-0.66,0,-0.66],"max":[0.66,1.0,0.66]},{"bufferView":41,"componentType":5126,"count":16,"type":"VEC3","min":[-1.0,0,-0.7071067811865475],"max":[-0.0,0,1.0]},{"bufferView":42,"componentType":5126,"count":16,"type":"VEC2"},{"bufferView":43,"componentType":5123,"count":24,"type":"SCALAR","min":[0],"max":[15]},{"bufferView":44,"componentType":5126,"count":8,"type":"VEC3","min":[-0.66,0,-0.66],"max":[0.66,1.0,0.66]},{"bufferView":45,"componentType":5126,"count":8,"type":"VEC3","min":[-1.0,0,6.123233995736766e-17],"max":[-0.0,0,1.0]},{"bufferView":46,"componentType":5126,"count":8,"type":"VEC2"},{"bufferView":47,"componentType":5123,"count":12,"type":"SCALAR","min":[0],"max":[7]},{"bufferView":48,"componentType":5126,"count":8754,"type":"VEC3","min":[-0.55,0.0,-0.4041117252880997],"max":[0.55,1.0,0.4041117252880997]},{"bufferView":49,"componentType":5126,"count":8754,"type":"VEC3","min":[-0.9996779561042786,-0.9997625946998596,-0.9988284111022949],"max":[0.999296247959137,0.9999527335166931,0.9998937249183655]},{"bufferView":50,"componentType":5126,"count":8754,"type":"VEC2"},{"bufferView":51,"componentType":5123,"count":21696,"type":"SCALAR","min":[0],"max":[8753]},{"bufferView":52,"componentType":5126,"count":4700,"type":"VEC3","min":[-0.5486376445947689,1.6705947594052684e-05,-0.39361191808792245],"max":[0.5569338556352812,1.000045272121852,0.3933479710747246]},{"bufferView":53,"componentType":5126,"count":4700,"type":"VEC3","min":[-0.9976954460144043,-0.999291181564331,-0.9989568591117859],"max":[0.998948872089386,0.9999527335166931,0.9998225569725037]},{"bufferView":54,"componentType":5126,"count":4700,"type":"VEC2"},{"bufferView":55,"componentType":5123,"count":9993,"type":"SCALAR","min":[0],"max":[4699]},{"bufferView":56,"componentType":5126,"count":16,"type":"VEC3","min":[-0.6050000000000001,0,-0.6050000000000001],"max":[0.6050000000000001,1.0,0.6050000000000001]},{"bufferView":57,"componentType":5126,"count":16,"type":"VEC3","min":[-1.0,0,-0.7071067811865475],"max":[-0.0,0,1.0]},{"bufferView":58,"componentType":5126,"count":16,"type":"VEC2"},{"bufferView":59,"componentType":5123,"count":24,"type":"SCALAR","min":[0],"max":[15]},{"bufferView":60,"componentType":5126,"count":8,"type":"VEC3","min":[-0.6050000000000001,0,-0.6050000000000001],"max":[0.6050000000000001,1.0,0.6050000000000001]},{"bufferView":61,"componentType":5126,"count":8,"type":"VEC3","min":[-1.0,0,6.123233995736766e-17],"max":[-0.0,0,1.0]},{"bufferView":62,"componentType":5126,"count":8,"type":"VEC2"},{"bufferView":63,"componentType":5123,"count":12,"type":"SCALAR","min":[0],"max":[7]},{"bufferView":64,"componentType":5126,"count":8754,"type":"VEC3","min":[-0.9375,0.0,-0.6888268044683518],"max":[0.9375,1.5000000000000002,0.6888268044683518]},{"bufferView":65,"componentType":5126,"count":8754,"type":"VEC3","min":[-0.9996474385261536,-0.9998162388801575,-0.9986070990562439],"max":[0.9991918206214905,0.9999634027481079,0.9998778700828552]},{"bufferView":66,"componentType":5126,"count":8754,"type":"VEC2"},{"bufferView":67,"componentType":5123,"count":21696,"type":"SCALAR","min":[0],"max":[8753]},{"bufferView":68,"componentType":5126,"count":4700,"type":"VEC3","min":[-0.935177803286538,2.5058921391079027e-05,-0.6709294058316859],"max":[0.949319072105593,1.5000679081827781,0.6704794961500986]},{"bufferView":69,"componentType":5126,"count":4700,"type":"VEC3","min":[-0.9976518154144287,-0.9994509816169739,-0.9989542961120605],"max":[0.9988946318626404,0.9999633431434631,0.9998062252998352]},{"bufferView":70,"componentType":5126,"count":4700,"type":"VEC2"},{"bufferView":71,"componentType":5123,"count":9993,"type":"SCALAR","min":[0],"max":[4699]},{"bufferView":72,"componentType":5126,"count":16,"type":"VEC3","min":[-1.03125,0,-1.03125],"max":[1.03125,1.5,1.03125]},{"bufferView":73,"componentType":5126,"count":16,"type":"VEC3","min":[-1.0,0,-0.7071067811865475],"max":[-0.0,0,1.0]},{"bufferView":74,"componentType":5126,"count":16,"type":"VEC2"},{"bufferView":75,"componentType":5123,"count":24,"type":"SCALAR","min":[0],"max":[15]},{"bufferView":76,"componentType":5126,"count":8,"type":"VEC3","min":[-1.03125,0,-1.03125],"max":[1.03125,1.5,1.03125]},{"bufferView":77,"componentType":5126,"count":8,"type":"VEC3","min":[-1.0,0,6.123233995736766e-17],"max":[-0.0,0,1.0]},{"bufferView":78,"componentType":5126,"count":8,"type":"VEC2"},{"bufferView":79,"componentType":5123,"count":12,"type":"SCALAR","min":[0],"max":[7]},{"bufferView":80,"componentType":5126,"count":28800,"type":"VEC3","min":[-4.131175499899341,0.009901054538664092,-1.2970905436894136],"max":[4.133265654527748,3.146005343444645,1.3009074357949946]},{"bufferView":81,"componentType":5126,"count":28800,"type":"VEC3","min":[-1.0,-0.14998646656859083,-1.0],"max":[1.0,1.0,1.0]},{"bufferView":82,"componentType":5126,"count":28800,"type":"VEC2"},{"bufferView":83,"componentType":5123,"count":43200,"type":"SCALAR","min":[0],"max":[28799]},{"bufferView":84,"componentType":5126,"count":22400,"type":"VEC3","min":[-4.272904761109514,-0.0919027755170789,-1.3924689329630593],"max":[4.277811003261616,3.1752738805266336,1.3998984986920942]},{"bufferView":85,"componentType":5126,"count":22400,"type":"VEC3","min":[-1.0,-0.14976507064726455,-1.0],"max":[1.0,1.0,1.0]},{"bufferView":86,"componentType":5126,"count":22400,"type":"VEC2"},{"bufferView":87,"componentType":5123,"count":33600,"type":"SCALAR","min":[0],"max":[22399]},{"bufferView":88,"componentType":5126,"count":22000,"type":"VEC3","min":[-4.361809742238181,-0.1554200365076083,-1.5132175993727937],"max":[4.364319891792683,3.198890821354074,1.471972648424373]},{"bufferView":89,"componentType":5126,"count":22000,"type":"VEC3","min":[-1.0,-0.14996467766800956,-1.0],"max":[1.0,1.0,1.0]},{"bufferView":90,"componentType":5126,"count":22000,"type":"VEC2"},{"bufferView":91,"componentType":5123,"count":33000,"type":"SCALAR","min":[0],"max":[21999]},{"bufferView":92,"componentType":5126,"count":21600,"type":"VEC3","min":[-4.504391646317865,-0.20333537742463864,-1.6200373374128465],"max":[4.477132171199416,3.247374570709433,1.6528447533559603]},{"bufferView":93,"componentType":5126,"count":21600,"type":"VEC3","min":[-1.0,-0.14995722002260764,-1.0],"max":[1.0,1.0,1.0]},{"bufferView":94,"componentType":5126,"count":21600,"type":"VEC2"},{"bufferView":95,"componentType":5123,"count":32400,"type":"SCALAR","min":[0],"max":[21599]},{"bufferView":96,"componentType":5126,"count":21200,"type":"VEC3","min":[-4.664264502128076,-0.3647916856812869,-1.8053670111034439],"max":[4.66485058654707,3.3546889332622056,1.7878795530507983]},{"bufferView":97,"componentType":5126,"count":21200,"type":"VEC3","min":[-1.0,-0.14999079274580124,-1.0],"max":[1.0,1.0,1.0]},{"bufferView":98,"componentType":5126,"count":21200,"type":"VEC2"},{"bufferView":99,"componentType":5123,"count":31800,"type":"SCALAR","min":[0],"max":[21199]},{"bufferView":100,"componentType":5126,"count":20800,"type":"VEC3","min":[-4.855977406465846,-0.5093139237345218,-1.9957718555226105],"max":[4.838240046010226,3.416368761128462,2.026771137681162]},{"bufferView":101,"componentType":5126,"count":20800,"type":"VEC3","min":[-1.0,-0.14968049704965444,-1.0],"max":[1.0,1.0,1.0]},{"bufferView":102,"componentType":5126,"count":20800,"type":"VEC2"},{"bufferView":103,"componentType":5123,"count":31200,"type":"SCALAR","min":[0],"max":[20799]},{"bufferView":104,"componentType":5126,"count":20400,"type":"VEC3","min":[-5.139987802245883,-0.6502459877953881,-2.260126463483221],"max":[5.1336509811167685,3.561944121513166,2.2923257250407714]},{"bufferView":105,"componentType":5126,"count":20400,"type":"VEC3","min":[-1.0,-0.14995749831796026,-1.0],"max":[1.0,1.0,1.0]},{"bufferView":106,"componentType":5126,"count":20400,"type":"VEC2"},{"bufferView":107,"componentType":5123,"count":30600,"type":"SCALAR","min":[0],"max":[20399]},{"bufferView":108,"componentType":5126,"count":20000,"type":"VEC3","min":[-5.473417104551519,-0.943461959931603,-2.5389250758307162],"max":[5.453782840552385,3.867296247514491,2.586963972755707]},{"bufferView":109,"componentType":5126,"count":20000,"type":"VEC3","min":[-1.0,-0.1499780174554886,-1.0],"max":[1.0,1.0,1.0]},{"bufferView":110,"componentType":5126,"count":20000,"type":"VEC2"},{"bufferView":111,"componentType":5123,"count":30000,"type":"SCALAR","min":[0],"max":[19999]},{"bufferView":112,"componentType":5126,"count":19600,"type":"VEC3","min":[-5.770675148625078,-1.1558155868164113,-2.7889073596327814],"max":[5.777842463933711,4.157968336708814,2.931690539452509]},{"bufferView":113,"componentType":5126,"count":19600,"type":"VEC3","min":[-1.0,-0.14998273826642733,-1.0],"max":[1.0,1.0,1.0]},{"bufferView":114,"componentType":5126,"count":19600,"type":"VEC2"},{"bufferView":115,"componentType":5123,"count":29400,"type":"SCALAR","min":[0],"max":[19599]},{"bufferView":116,"componentType":5126,"count":19200,"type":"VEC3","min":[-6.137457031725816,-1.4236604359236473,-3.220905409911024],"max":[6.163983103869841,4.323500430513916,3.294294688134536]},{"bufferView":117,"componentType":5126,"count":19200,"type":"VEC3","min":[-1.0,-0.1499183901529936,-1.0],"max":[1.0,1.0,1.0]},{"bufferView":118,"componentType":5126,"count":19200,"type":"VEC2"},{"bufferView":119,"componentType":5123,"count":28800,"type":"SCALAR","min":[0],"max":[19199]},{"bufferView":120,"componentType":5126,"count":18600,"type":"VEC3","min":[-6.536593649354209,-1.5920849675589657,-3.7050457646772643],"max":[6.571253890294827,4.583236498124748,3.7084554635252047]},{"bufferView":121,"componentType":5126,"count":18600,"type":"VEC3","min":[-1.0,-0.14987554856064123,-1.0],"max":[1.0,1.0,1.0]},{"bufferView":122,"componentType":5126,"count":18600,"type":"VEC2"},{"bufferView":123,"componentType":5123,"count":27900,"type":"SCALAR","min":[0],"max":[18599]},{"bufferView":124,"componentType":5126,"count":18000,"type":"VEC3","min":[-7.084360862362189,-2.0862914643384594,-4.169676502273702],"max":[7.068186252552017,5.074221377184838,4.2261596636622665]},{"bufferView":125,"componentType":5126,"count":18000,"type":"VEC3","min":[-1.0,-0.14988841566215982,-1.0],"max":[1.0,1.0,1.0]},{"bufferView":126,"componentType":5126,"count":18000,"type":"VEC2"},{"bufferView":127,"componentType":5123,"count":27000,"type":"SCALAR","min":[0],"max":[17999]}],"images":[{"uri":"textures/poly_searsia_lucida.png"},{"uri":"textures/poly_searsia_lucida.png"},{"uri":"impostors/brombeere_a_autumn.png"},{"uri":"textures/poly_shrub_01.png"},{"uri":"textures/poly_shrub_01.png"},{"uri":"impostors/himbeere_a_autumn.png"},{"uri":"textures/poly_searsia_lucida.png"},{"uri":"textures/poly_searsia_lucida.png"},{"uri":"impostors/berberitze_a_autumn.png"},{"uri":"textures/poly_searsia_lucida.png"},{"uri":"textures/poly_searsia_lucida.png"},{"uri":"impostors/heckenkirsche_a_autumn.png"},{"uri":"textures/poly_searsia_lucida.png"},{"uri":"textures/poly_searsia_lucida.png"},{"uri":"impostors/hundsrose_a_autumn.png"},{"uri":"textures/poly_searsia_lucida.png"}],"samplers":[{"magFilter":9729,"minFilter":9987,"wrapS":10497,"wrapT":10497},{"magFilter":9729,"minFilter":9987,"wrapS":10497,"wrapT":10497},{"magFilter":9729,"minFilter":9987,"wrapS":10497,"wrapT":10497},{"magFilter":9729,"minFilter":9987,"wrapS":10497,"wrapT":10497},{"magFilter":9729,"minFilter":9987,"wrapS":10497,"wrapT":10497},{"magFilter":9729,"minFilter":9987,"wrapS":10497,"wrapT":10497}],"textures":[{"source":0,"sampler":0},{"source":1,"sampler":0},{"source":2,"sampler":0},{"source":3,"sampler":1},{"source":4,"sampler":1},{"source":5,"sampler":1},{"source":6,"sampler":2},{"source":7,"sampler":2},{"source":8,"sampler":2},{"source":9,"sampler":3},{"source":10,"sampler":3},{"source":11,"sampler":3},{"source":12,"sampler":4},{"source":13,"sampler":4},{"source":14,"sampler":4},{"source":15,"sampler":5}],"materials":[{"name":"brombeere_a_bark","pbrMetallicRoughness":{"baseColorFactor":[0.82,0.82,0.82,1.0],"baseColorTexture":{"index":0},"metallicFactor":0.0,"roughnessFactor":0.91},"doubleSided":false},{"name":"brombeere_a_foliage","pbrMetallicRoughness":{"baseColorFactor":[0.72,0.42,0.09,1.0],"baseColorTexture":{"index":1},"metallicFactor":0.0,"roughnessFactor":0.78},"doubleSided":true,"alphaMode":"MASK","alphaCutoff":0.18},{"name":"brombeere_a_whole_tree_impostor","pbrMetallicRoughness":{"baseColorFactor":[1,1,1,1],"baseColorTexture":{"index":2},"metallicFactor":0.0,"roughnessFactor":0.92},"doubleSided":true,"alphaMode":"MASK","alphaCutoff":0.18},{"name":"himbeere_a_bark","pbrMetallicRoughness":{"baseColorFactor":[0.82,0.82,0.82,1.0],"baseColorTexture":{"index":3},"metallicFactor":0.0,"roughnessFactor":0.91},"doubleSided":false},{"name":"himbeere_a_foliage","pbrMetallicRoughness":{"baseColorFactor":[0.72,0.42,0.09,1.0],"baseColorTexture":{"index":4},"metallicFactor":0.0,"roughnessFactor":0.78},"doubleSided":true,"alphaMode":"MASK","alphaCutoff":0.18},{"name":"himbeere_a_whole_tree_impostor","pbrMetallicRoughness":{"baseColorFactor":[1,1,1,1],"baseColorTexture":{"index":5},"metallicFactor":0.0,"roughnessFactor":0.92},"doubleSided":true,"alphaMode":"MASK","alphaCutoff":0.18},{"name":"berberitze_a_bark","pbrMetallicRoughness":{"baseColorFactor":[0.82,0.82,0.82,1.0],"baseColorTexture":{"index":6},"metallicFactor":0.0,"roughnessFactor":0.91},"doubleSided":false},{"name":"berberitze_a_foliage","pbrMetallicRoughness":{"baseColorFactor":[0.72,0.42,0.09,1.0],"baseColorTexture":{"index":7},"metallicFactor":0.0,"roughnessFactor":0.78},"doubleSided":true,"alphaMode":"MASK","alphaCutoff":0.18},{"name":"berberitze_a_whole_tree_impostor","pbrMetallicRoughness":{"baseColorFactor":[1,1,1,1],"baseColorTexture":{"index":8},"metallicFactor":0.0,"roughnessFactor":0.92},"doubleSided":true,"alphaMode":"MASK","alphaCutoff":0.18},{"name":"heckenkirsche_a_bark","pbrMetallicRoughness":{"baseColorFactor":[0.82,0.82,0.82,1.0],"baseColorTexture":{"index":9},"metallicFactor":0.0,"roughnessFactor":0.91},"doubleSided":false},{"name":"heckenkirsche_a_foliage","pbrMetallicRoughness":{"baseColorFactor":[0.72,0.42,0.09,1.0],"baseColorTexture":{"index":10},"metallicFactor":0.0,"roughnessFactor":0.78},"doubleSided":true,"alphaMode":"MASK","alphaCutoff":0.18},{"name":"heckenkirsche_a_whole_tree_impostor","pbrMetallicRoughness":{"baseColorFactor":[1,1,1,1],"baseColorTexture":{"index":11},"metallicFactor":0.0,"roughnessFactor":0.92},"doubleSided":true,"alphaMode":"MASK","alphaCutoff":0.18},{"name":"hundsrose_a_bark","pbrMetallicRoughness":{"baseColorFactor":[0.82,0.82,0.82,1.0],"baseColorTexture":{"index":12},"metallicFactor":0.0,"roughnessFactor":0.91},"doubleSided":false},{"name":"hundsrose_a_foliage","pbrMetallicRoughness":{"baseColorFactor":[0.72,0.42,0.09,1.0],"baseColorTexture":{"index":13},"metallicFactor":0.0,"roughnessFactor":0.78},"doubleSided":true,"alphaMode":"MASK","alphaCutoff":0.18},{"name":"hundsrose_a_whole_tree_impostor","pbrMetallicRoughness":{"baseColorFactor":[1,1,1,1],"baseColorTexture":{"index":14},"metallicFactor":0.0,"roughnessFactor":0.92},"doubleSided":true,"alphaMode":"MASK","alphaCutoff":0.18},{"name":"feldhecke_individual_leaves_LOD0","pbrMetallicRoughness":{"baseColorFactor":[0.78,0.48,0.13,1.0],"baseColorTexture":{"index":15},"metallicFactor":0.0,"roughnessFactor":0.82},"doubleSided":true,"alphaMode":"MASK","alphaCutoff":0.18},{"name":"feldhecke_individual_leaves_LOD1","pbrMetallicRoughness":{"baseColorFactor":[0.78,0.48,0.13,1.0],"baseColorTexture":{"index":15},"metallicFactor":0.0,"roughnessFactor":0.82},"doubleSided":true,"alphaMode":"MASK","alphaCutoff":0.08},{"name":"feldhecke_individual_leaves_LOD2","pbrMetallicRoughness":{"baseColorFactor":[0.78,0.48,0.13,1.0],"baseColorTexture":{"index":15},"metallicFactor":0.0,"roughnessFactor":0.82},"doubleSided":true,"alphaMode":"MASK","alphaCutoff":0.065},{"name":"feldhecke_individual_leaves_LOD3","pbrMetallicRoughness":{"baseColorFactor":[0.78,0.48,0.13,1.0],"baseColorTexture":{"index":15},"metallicFactor":0.0,"roughnessFactor":0.82},"doubleSided":true,"alphaMode":"MASK","alphaCutoff":0.055},{"name":"feldhecke_individual_leaves_LOD4","pbrMetallicRoughness":{"baseColorFactor":[0.78,0.48,0.13,1.0],"baseColorTexture":{"index":15},"metallicFactor":0.0,"roughnessFactor":0.82},"doubleSided":true,"alphaMode":"MASK","alphaCutoff":0.045},{"name":"feldhecke_individual_leaves_LOD5","pbrMetallicRoughness":{"baseColorFactor":[0.78,0.48,0.13,1.0],"baseColorTexture":{"index":15},"metallicFactor":0.0,"roughnessFactor":0.82},"doubleSided":true,"alphaMode":"MASK","alphaCutoff":0.038},{"name":"feldhecke_individual_leaves_LOD6","pbrMetallicRoughness":{"baseColorFactor":[0.78,0.48,0.13,1.0],"baseColorTexture":{"index":15},"metallicFactor":0.0,"roughnessFactor":0.82},"doubleSided":true,"alphaMode":"MASK","alphaCutoff":0.032},{"name":"feldhecke_individual_leaves_LOD7","pbrMetallicRoughness":{"baseColorFactor":[0.78,0.48,0.13,1.0],"baseColorTexture":{"index":15},"metallicFactor":0.0,"roughnessFactor":0.82},"doubleSided":true,"alphaMode":"MASK","alphaCutoff":0.027},{"name":"feldhecke_individual_leaves_LOD8","pbrMetallicRoughness":{"baseColorFactor":[0.78,0.48,0.13,1.0],"baseColorTexture":{"index":15},"metallicFactor":0.0,"roughnessFactor":0.82},"doubleSided":true,"alphaMode":"MASK","alphaCutoff":0.023},{"name":"feldhecke_individual_leaves_LOD9","pbrMetallicRoughness":{"baseColorFactor":[0.78,0.48,0.13,1.0],"baseColorTexture":{"index":15},"metallicFactor":0.0,"roughnessFactor":0.82},"doubleSided":true,"alphaMode":"MASK","alphaCutoff":0.02},{"name":"feldhecke_individual_leaves_LOD10","pbrMetallicRoughness":{"baseColorFactor":[0.78,0.48,0.13,1.0],"baseColorTexture":{"index":15},"metallicFactor":0.0,"roughnessFactor":0.82},"doubleSided":true,"alphaMode":"MASK","alphaCutoff":0.017},{"name":"feldhecke_individual_leaves_LOD11","pbrMetallicRoughness":{"baseColorFactor":[0.78,0.48,0.13,1.0],"baseColorTexture":{"index":15},"metallicFactor":0.0,"roughnessFactor":0.82},"doubleSided":true,"alphaMode":"MASK","alphaCutoff":0.015}]}