{"asset":{"version":"2.0","generator":"Connected Rails CC0 hedge composer","copyright":"Mantissa and Poly Haven source models: CC0 1.0; hedge composition: Connected Rails"},"scene":0,"scenes":[{"nodes":[0,1,2,3,4,5,6,7,8,9,10,11]}],"nodes":[{"name":"hedge_LOD0","children":[12,16,28,30,38,48,50,62,64,66,70,76]},{"name":"hedge_LOD1","children":[13,17,29,31,39,49,51,63,65,67,71,77]},{"name":"hedge_LOD2","children":[14,18,32,40,52,68,72,78]},{"name":"hedge_LOD3","children":[15,19,33,41,53,69,73,79]},{"name":"hedge_LOD4","children":[20,34,42,54,74,80]},{"name":"hedge_LOD5","children":[21,35,43,55,75,81]},{"name":"hedge_LOD6","children":[22,36,44,56,82]},{"name":"hedge_LOD7","children":[23,37,45,57,83]},{"name":"hedge_LOD8","children":[24,46,58,84]},{"name":"hedge_LOD9","children":[25,47,59,85]},{"name":"hedge_LOD10","children":[26,60,86]},{"name":"hedge_LOD11","children":[27,61,87]},{"name":"hundsrose_a_part_12_LOD0","mesh":1,"translation":[-4.0,-0.0,0.4437504454472644],"rotation":[0.0,0.2285003739880771,0.0,0.9735438249443673],"scale":[0.7040000000000001,1.5826141489150825,1.6185784828745873]},{"name":"hundsrose_a_part_13_LOD1","mesh":1,"translation":[-4.0,-0.0,0.4437504454472644],"rotation":[0.0,0.2285003739880771,0.0,0.9735438249443673],"scale":[0.7040000000000001,1.5826141489150825,1.6185784828745873]},{"name":"hundsrose_a_part_14_LOD2","mesh":1,"translation":[-4.0,-0.0,0.4437504454472644],"rotation":[0.0,0.2285003739880771,0.0,0.9735438249443673],"scale":[0.7040000000000001,1.5826141489150825,1.6185784828745873]},{"name":"hundsrose_a_part_15_LOD3","mesh":1,"translation":[-4.0,-0.0,0.4437504454472644],"rotation":[0.0,0.2285003739880771,0.0,0.9735438249443673],"scale":[0.7040000000000001,1.5826141489150825,1.6185784828745873]},{"name":"brombeere_a_part_16_LOD0","mesh":5,"translation":[-3.2,-0.0,0.4365832614132237],"rotation":[0.0,-0.6652173688629495,0.0,0.7466497520009329],"scale":[0.8,2.209492278776314,1.6262128715736355]},{"name":"brombeere_a_part_17_LOD1","mesh":5,"translation":[-3.2,-0.0,0.4365832614132237],"rotation":[0.0,-0.6652173688629495,0.0,0.7466497520009329],"scale":[0.8,2.209492278776314,1.6262128715736355]},{"name":"brombeere_a_part_18_LOD2","mesh":5,"translation":[-3.2,-0.0,0.4365832614132237],"rotation":[0.0,-0.6652173688629495,0.0,0.7466497520009329],"scale":[0.8,2.209492278776314,1.6262128715736355]},{"name":"brombeere_a_part_19_LOD3","mesh":5,"translation":[-3.2,-0.0,0.4365832614132237],"rotation":[0.0,-0.6652173688629495,0.0,0.7466497520009329],"scale":[0.8,2.209492278776314,1.6262128715736355]},{"name":"brombeere_a_part_20_LOD4","mesh":5,"translation":[-3.2,-0.0,0.4365832614132237],"rotation":[0.0,-0.6652173688629495,0.0,0.7466497520009329],"scale":[0.8,2.209492278776314,1.6262128715736355]},{"name":"brombeere_a_part_21_LOD5","mesh":5,"translation":[-3.2,-0.0,0.4365832614132237],"rotation":[0.0,-0.6652173688629495,0.0,0.7466497520009329],"scale":[0.8,2.209492278776314,1.6262128715736355]},{"name":"brombeere_a_part_22_LOD6","mesh":5,"translation":[-3.2,-0.0,0.4365832614132237],"rotation":[0.0,-0.6652173688629495,0.0,0.7466497520009329],"scale":[0.8,2.209492278776314,1.6262128715736355]},{"name":"brombeere_a_part_23_LOD7","mesh":5,"translation":[-3.2,-0.0,0.4365832614132237],"rotation":[0.0,-0.6652173688629495,0.0,0.7466497520009329],"scale":[0.8,2.209492278776314,1.6262128715736355]},{"name":"brombeere_a_part_24_LOD8","mesh":5,"translation":[-3.2,-0.0,0.4365832614132237],"rotation":[0.0,-0.6652173688629495,0.0,0.7466497520009329],"scale":[0.8,2.209492278776314,1.6262128715736355]},{"name":"brombeere_a_part_25_LOD9","mesh":5,"translation":[-3.2,-0.0,0.4365832614132237],"rotation":[0.0,-0.6652173688629495,0.0,0.7466497520009329],"scale":[0.8,2.209492278776314,1.6262128715736355]},{"name":"brombeere_a_part_26_LOD10","mesh":5,"translation":[-3.2,-0.0,0.4365832614132237],"rotation":[0.0,-0.6652173688629495,0.0,0.7466497520009329],"scale":[0.8,2.209492278776314,1.6262128715736355]},{"name":"brombeere_a_part_27_LOD11","mesh":5,"translation":[-3.2,-0.0,0.4365832614132237],"rotation":[0.0,-0.6652173688629495,0.0,0.7466497520009329],"scale":[0.8,2.209492278776314,1.6262128715736355]},{"name":"himbeere_a_part_28_LOD0","mesh":9,"translation":[-2.4,-0.0,-0.50350131580188],"rotation":[0.0,0.9688928846360411,0.0,0.24748046004008303],"scale":[2.2184873949579833,3.7548045232151708,4.403964250647611]},{"name":"himbeere_a_part_29_LOD1","mesh":9,"translation":[-2.4,-0.0,-0.50350131580188],"rotation":[0.0,0.9688928846360411,0.0,0.24748046004008303],"scale":[2.2184873949579833,3.7548045232151708,4.403964250647611]},{"name":"berberitze_a_part_30_LOD0","mesh":13,"translation":[-1.5999999999999996,-0.0,0.06439433839845565],"rotation":[0.0,0.6676015321156303,0.0,0.7445187669339591],"scale":[1.1,2.087237440945651,2.611139461103718]},{"name":"berberitze_a_part_31_LOD1","mesh":13,"translation":[-1.5999999999999996,-0.0,0.06439433839845565],"rotation":[0.0,0.6676015321156303,0.0,0.7445187669339591],"scale":[1.1,2.087237440945651,2.611139461103718]},{"name":"berberitze_a_part_32_LOD2","mesh":13,"translation":[-1.5999999999999996,-0.0,0.06439433839845565],"rotation":[0.0,0.6676015321156303,0.0,0.7445187669339591],"scale":[1.1,2.087237440945651,2.611139461103718]},{"name":"berberitze_a_part_33_LOD3","mesh":13,"translation":[-1.5999999999999996,-0.0,0.06439433839845565],"rotation":[0.0,0.6676015321156303,0.0,0.7445187669339591],"scale":[1.1,2.087237440945651,2.611139461103718]},{"name":"berberitze_a_part_34_LOD4","mesh":13,"translation":[-1.5999999999999996,-0.0,0.06439433839845565],"rotation":[0.0,0.6676015321156303,0.0,0.7445187669339591],"scale":[1.1,2.087237440945651,2.611139461103718]},{"name":"berberitze_a_part_35_LOD5","mesh":13,"translation":[-1.5999999999999996,-0.0,0.06439433839845565],"rotation":[0.0,0.6676015321156303,0.0,0.7445187669339591],"scale":[1.1,2.087237440945651,2.611139461103718]},{"name":"berberitze_a_part_36_LOD6","mesh":13,"translation":[-1.5999999999999996,-0.0,0.06439433839845565],"rotation":[0.0,0.6676015321156303,0.0,0.7445187669339591],"scale":[1.1,2.087237440945651,2.611139461103718]},{"name":"berberitze_a_part_37_LOD7","mesh":13,"translation":[-1.5999999999999996,-0.0,0.06439433839845565],"rotation":[0.0,0.6676015321156303,0.0,0.7445187669339591],"scale":[1.1,2.087237440945651,2.611139461103718]},{"name":"heckenkirsche_a_part_38_LOD0","mesh":17,"translation":[-0.7999999999999998,-0.0,0.216491752243681],"rotation":[0.0,-0.6991461438313727,0.0,0.7149787895914965],"scale":[1.2,2.7371542238030493,2.6681508578612374]},{"name":"heckenkirsche_a_part_39_LOD1","mesh":17,"translation":[-0.7999999999999998,-0.0,0.216491752243681],"rotation":[0.0,-0.6991461438313727,0.0,0.7149787895914965],"scale":[1.2,2.7371542238030493,2.6681508578612374]},{"name":"heckenkirsche_a_part_40_LOD2","mesh":17,"translation":[-0.7999999999999998,-0.0,0.216491752243681],"rotation":[0.0,-0.6991461438313727,0.0,0.7149787895914965],"scale":[1.2,2.7371542238030493,2.6681508578612374]},{"name":"heckenkirsche_a_part_41_LOD3","mesh":17,"translation":[-0.7999999999999998,-0.0,0.216491752243681],"rotation":[0.0,-0.6991461438313727,0.0,0.7149787895914965],"scale":[1.2,2.7371542238030493,2.6681508578612374]},{"name":"heckenkirsche_a_part_42_LOD4","mesh":17,"translation":[-0.7999999999999998,-0.0,0.216491752243681],"rotation":[0.0,-0.6991461438313727,0.0,0.7149787895914965],"scale":[1.2,2.7371542238030493,2.6681508578612374]},{"name":"heckenkirsche_a_part_43_LOD5","mesh":17,"translation":[-0.7999999999999998,-0.0,0.216491752243681],"rotation":[0.0,-0.6991461438313727,0.0,0.7149787895914965],"scale":[1.2,2.7371542238030493,2.6681508578612374]},{"name":"heckenkirsche_a_part_44_LOD6","mesh":17,"translation":[-0.7999999999999998,-0.0,0.216491752243681],"rotation":[0.0,-0.6991461438313727,0.0,0.7149787895914965],"scale":[1.2,2.7371542238030493,2.6681508578612374]},{"name":"heckenkirsche_a_part_45_LOD7","mesh":17,"translation":[-0.7999999999999998,-0.0,0.216491752243681],"rotation":[0.0,-0.6991461438313727,0.0,0.7149787895914965],"scale":[1.2,2.7371542238030493,2.6681508578612374]},{"name":"heckenkirsche_a_part_46_LOD8","mesh":17,"translation":[-0.7999999999999998,-0.0,0.216491752243681],"rotation":[0.0,-0.6991461438313727,0.0,0.7149787895914965],"scale":[1.2,2.7371542238030493,2.6681508578612374]},{"name":"heckenkirsche_a_part_47_LOD9","mesh":17,"translation":[-0.7999999999999998,-0.0,0.216491752243681],"rotation":[0.0,-0.6991461438313727,0.0,0.7149787895914965],"scale":[1.2,2.7371542238030493,2.6681508578612374]},{"name":"hundsrose_a_part_48_LOD0","mesh":1,"translation":[0.0,-0.0,0.31393971539794696],"rotation":[0.0,-0.9187120692828408,0.0,0.3949280108501306],"scale":[0.7040000000000001,1.810106600749284,1.629772591173674]},{"name":"hundsrose_a_part_49_LOD1","mesh":1,"translation":[0.0,-0.0,0.31393971539794696],"rotation":[0.0,-0.9187120692828408,0.0,0.3949280108501306],"scale":[0.7040000000000001,1.810106600749284,1.629772591173674]},{"name":"brombeere_a_part_50_LOD0","mesh":5,"translation":[0.8000000000000007,-0.0,-0.4186776952084762],"rotation":[0.0,-0.9762060031257463,0.0,0.21684519699835467],"scale":[0.8,2.0232816798198017,1.9560035628320658]},{"name":"brombeere_a_part_51_LOD1","mesh":5,"translation":[0.8000000000000007,-0.0,-0.4186776952084762],"rotation":[0.0,-0.9762060031257463,0.0,0.21684519699835467],"scale":[0.8,2.0232816798198017,1.9560035628320658]},{"name":"brombeere_a_part_52_LOD2","mesh":5,"translation":[0.8000000000000007,-0.0,-0.4186776952084762],"rotation":[0.0,-0.9762060031257463,0.0,0.21684519699835467],"scale":[0.8,2.0232816798198017,1.9560035628320658]},{"name":"brombeere_a_part_53_LOD3","mesh":5,"translation":[0.8000000000000007,-0.0,-0.4186776952084762],"rotation":[0.0,-0.9762060031257463,0.0,0.21684519699835467],"scale":[0.8,2.0232816798198017,1.9560035628320658]},{"name":"brombeere_a_part_54_LOD4","mesh":5,"translation":[0.8000000000000007,-0.0,-0.4186776952084762],"rotation":[0.0,-0.9762060031257463,0.0,0.21684519699835467],"scale":[0.8,2.0232816798198017,1.9560035628320658]},{"name":"brombeere_a_part_55_LOD5","mesh":5,"translation":[0.8000000000000007,-0.0,-0.4186776952084762],"rotation":[0.0,-0.9762060031257463,0.0,0.21684519699835467],"scale":[0.8,2.0232816798198017,1.9560035628320658]},{"name":"brombeere_a_part_56_LOD6","mesh":5,"translation":[0.8000000000000007,-0.0,-0.4186776952084762],"rotation":[0.0,-0.9762060031257463,0.0,0.21684519699835467],"scale":[0.8,2.0232816798198017,1.9560035628320658]},{"name":"brombeere_a_part_57_LOD7","mesh":5,"translation":[0.8000000000000007,-0.0,-0.4186776952084762],"rotation":[0.0,-0.9762060031257463,0.0,0.21684519699835467],"scale":[0.8,2.0232816798198017,1.9560035628320658]},{"name":"brombeere_a_part_58_LOD8","mesh":5,"translation":[0.8000000000000007,-0.0,-0.4186776952084762],"rotation":[0.0,-0.9762060031257463,0.0,0.21684519699835467],"scale":[0.8,2.0232816798198017,1.9560035628320658]},{"name":"brombeere_a_part_59_LOD9","mesh":5,"translation":[0.8000000000000007,-0.0,-0.4186776952084762],"rotation":[0.0,-0.9762060031257463,0.0,0.21684519699835467],"scale":[0.8,2.0232816798198017,1.9560035628320658]},{"name":"brombeere_a_part_60_LOD10","mesh":5,"translation":[0.8000000000000007,-0.0,-0.4186776952084762],"rotation":[0.0,-0.9762060031257463,0.0,0.21684519699835467],"scale":[0.8,2.0232816798198017,1.9560035628320658]},{"name":"brombeere_a_part_61_LOD11","mesh":5,"translation":[0.8000000000000007,-0.0,-0.4186776952084762],"rotation":[0.0,-0.9762060031257463,0.0,0.21684519699835467],"scale":[0.8,2.0232816798198017,1.9560035628320658]},{"name":"himbeere_a_part_62_LOD0","mesh":9,"translation":[1.6000000000000005,-0.0,-0.3511884563401485],"rotation":[0.0,-0.6005004045215652,0.0,0.7996244519581905],"scale":[2.2184873949579833,2.9446992495979996,4.57438268204909]},{"name":"himbeere_a_part_63_LOD1","mesh":9,"translation":[1.6000000000000005,-0.0,-0.3511884563401485],"rotation":[0.0,-0.6005004045215652,0.0,0.7996244519581905],"scale":[2.2184873949579833,2.9446992495979996,4.57438268204909]},{"name":"berberitze_a_part_64_LOD0","mesh":13,"translation":[2.4000000000000004,-0.0,-0.01813365957762947],"rotation":[0.0,-0.16951295646794332,0.0,0.9855279588065968],"scale":[1.1,2.4891315389805198,2.514498238405017]},{"name":"berberitze_a_part_65_LOD1","mesh":13,"translation":[2.4000000000000004,-0.0,-0.01813365957762947],"rotation":[0.0,-0.16951295646794332,0.0,0.9855279588065968],"scale":[1.1,2.4891315389805198,2.514498238405017]},{"name":"heckenkirsche_a_part_66_LOD0","mesh":17,"translation":[3.2,-0.0,-0.2521335813445118],"rotation":[0.0,0.7931000206138387,0.0,0.6090914194949135],"scale":[1.2,2.5934395179553955,2.511776261446441]},{"name":"heckenkirsche_a_part_67_LOD1","mesh":17,"translation":[3.2,-0.0,-0.2521335813445118],"rotation":[0.0,0.7931000206138387,0.0,0.6090914194949135],"scale":[1.2,2.5934395179553955,2.511776261446441]},{"name":"heckenkirsche_a_part_68_LOD2","mesh":17,"translation":[3.2,-0.0,-0.2521335813445118],"rotation":[0.0,0.7931000206138387,0.0,0.6090914194949135],"scale":[1.2,2.5934395179553955,2.511776261446441]},{"name":"heckenkirsche_a_part_69_LOD3","mesh":17,"translation":[3.2,-0.0,-0.2521335813445118],"rotation":[0.0,0.7931000206138387,0.0,0.6090914194949135],"scale":[1.2,2.5934395179553955,2.511776261446441]},{"name":"hundsrose_a_part_70_LOD0","mesh":1,"translation":[4.0,-0.0,-0.35825373118320736],"rotation":[0.0,0.1117542422825704,0.0,0.9937358750351366],"scale":[0.7040000000000001,1.7306673190359638,1.8069428944591235]},{"name":"hundsrose_a_part_71_LOD1","mesh":1,"translation":[4.0,-0.0,-0.35825373118320736],"rotation":[0.0,0.1117542422825704,0.0,0.9937358750351366],"scale":[0.7040000000000001,1.7306673190359638,1.8069428944591235]},{"name":"hundsrose_a_part_72_LOD2","mesh":1,"translation":[4.0,-0.0,-0.35825373118320736],"rotation":[0.0,0.1117542422825704,0.0,0.9937358750351366],"scale":[0.7040000000000001,1.7306673190359638,1.8069428944591235]},{"name":"hundsrose_a_part_73_LOD3","mesh":1,"translation":[4.0,-0.0,-0.35825373118320736],"rotation":[0.0,0.1117542422825704,0.0,0.9937358750351366],"scale":[0.7040000000000001,1.7306673190359638,1.8069428944591235]},{"name":"hundsrose_a_part_74_LOD4","mesh":1,"translation":[4.0,-0.0,-0.35825373118320736],"rotation":[0.0,0.1117542422825704,0.0,0.9937358750351366],"scale":[0.7040000000000001,1.7306673190359638,1.8069428944591235]},{"name":"hundsrose_a_part_75_LOD5","mesh":1,"translation":[4.0,-0.0,-0.35825373118320736],"rotation":[0.0,0.1117542422825704,0.0,0.9937358750351366],"scale":[0.7040000000000001,1.7306673190359638,1.8069428944591235]},{"name":"leaf_volume_LOD0","mesh":20},{"name":"leaf_volume_LOD1","mesh":21},{"name":"leaf_volume_LOD2","mesh":22},{"name":"leaf_volume_LOD3","mesh":23},{"name":"leaf_volume_LOD4","mesh":24},{"name":"leaf_volume_LOD5","mesh":25},{"name":"leaf_volume_LOD6","mesh":26},{"name":"leaf_volume_LOD7","mesh":27},{"name":"leaf_volume_LOD8","mesh":28},{"name":"leaf_volume_LOD9","mesh":29},{"name":"leaf_volume_LOD10","mesh":30},{"name":"leaf_volume_LOD11","mesh":31}],"meshes":[{"name":"hundsrose_a_crown_LOD0","primitives":[{"attributes":{"POSITION":0,"NORMAL":1,"TEXCOORD_0":2},"indices":3,"material":1}]},{"name":"hundsrose_a_crown_LOD1","primitives":[{"attributes":{"POSITION":4,"NORMAL":5,"TEXCOORD_0":6},"indices":7,"material":1}]},{"name":"hundsrose_a_crown_LOD2","primitives":[{"attributes":{"POSITION":8,"NORMAL":9,"TEXCOORD_0":10},"indices":11,"material":2}]},{"name":"hundsrose_a_crown_LOD3","primitives":[{"attributes":{"POSITION":12,"NORMAL":13,"TEXCOORD_0":14},"indices":15,"material":2}]},{"name":"brombeere_a_crown_LOD0","primitives":[{"attributes":{"POSITION":16,"NORMAL":17,"TEXCOORD_0":18},"indices":19,"material":4}]},{"name":"brombeere_a_crown_LOD1","primitives":[{"attributes":{"POSITION":20,"NORMAL":21,"TEXCOORD_0":22},"indices":23,"material":4}]},{"name":"brombeere_a_crown_LOD2","primitives":[{"attributes":{"POSITION":24,"NORMAL":25,"TEXCOORD_0":26},"indices":27,"material":5}]},{"name":"brombeere_a_crown_LOD3","primitives":[{"attributes":{"POSITION":28,"NORMAL":29,"TEXCOORD_0":30},"indices":31,"material":5}]},{"name":"himbeere_a_crown_LOD0","primitives":[{"attributes":{"POSITION":32,"NORMAL":33,"TEXCOORD_0":34},"indices":35,"material":7}]},{"name":"himbeere_a_crown_LOD1","primitives":[{"attributes":{"POSITION":36,"NORMAL":37,"TEXCOORD_0":38},"indices":39,"material":7}]},{"name":"himbeere_a_crown_LOD2","primitives":[{"attributes":{"POSITION":40,"NORMAL":41,"TEXCOORD_0":42},"indices":43,"material":8}]},{"name":"himbeere_a_crown_LOD3","primitives":[{"attributes":{"POSITION":44,"NORMAL":45,"TEXCOORD_0":46},"indices":47,"material":8}]},{"name":"berberitze_a_crown_LOD0","primitives":[{"attributes":{"POSITION":48,"NORMAL":49,"TEXCOORD_0":50},"indices":51,"material":10}]},{"name":"berberitze_a_crown_LOD1","primitives":[{"attributes":{"POSITION":52,"NORMAL":53,"TEXCOORD_0":54},"indices":55,"material":10}]},{"name":"berberitze_a_crown_LOD2","primitives":[{"attributes":{"POSITION":56,"NORMAL":57,"TEXCOORD_0":58},"indices":59,"material":11}]},{"name":"berberitze_a_crown_LOD3","primitives":[{"attributes":{"POSITION":60,"NORMAL":61,"TEXCOORD_0":62},"indices":63,"material":11}]},{"name":"heckenkirsche_a_crown_LOD0","primitives":[{"attributes":{"POSITION":64,"NORMAL":65,"TEXCOORD_0":66},"indices":67,"material":13}]},{"name":"heckenkirsche_a_crown_LOD1","primitives":[{"attributes":{"POSITION":68,"NORMAL":69,"TEXCOORD_0":70},"indices":71,"material":13}]},{"name":"heckenkirsche_a_crown_LOD2","primitives":[{"attributes":{"POSITION":72,"NORMAL":73,"TEXCOORD_0":74},"indices":75,"material":14}]},{"name":"heckenkirsche_a_crown_LOD3","primitives":[{"attributes":{"POSITION":76,"NORMAL":77,"TEXCOORD_0":78},"indices":79,"material":14}]},{"name":"feldhecke_leaf_volume_LOD0","primitives":[{"attributes":{"POSITION":80,"NORMAL":81,"TEXCOORD_0":82},"indices":83,"material":15}]},{"name":"feldhecke_leaf_volume_LOD1","primitives":[{"attributes":{"POSITION":84,"NORMAL":85,"TEXCOORD_0":86},"indices":87,"material":16}]},{"name":"feldhecke_leaf_volume_LOD2","primitives":[{"attributes":{"POSITION":88,"NORMAL":89,"TEXCOORD_0":90},"indices":91,"material":17}]},{"name":"feldhecke_leaf_volume_LOD3","primitives":[{"attributes":{"POSITION":92,"NORMAL":93,"TEXCOORD_0":94},"indices":95,"material":18}]},{"name":"feldhecke_leaf_volume_LOD4","primitives":[{"attributes":{"POSITION":96,"NORMAL":97,"TEXCOORD_0":98},"indices":99,"material":19}]},{"name":"feldhecke_leaf_volume_LOD5","primitives":[{"attributes":{"POSITION":100,"NORMAL":101,"TEXCOORD_0":102},"indices":103,"material":20}]},{"name":"feldhecke_leaf_volume_LOD6","primitives":[{"attributes":{"POSITION":104,"NORMAL":105,"TEXCOORD_0":106},"indices":107,"material":21}]},{"name":"feldhecke_leaf_volume_LOD7","primitives":[{"attributes":{"POSITION":108,"NORMAL":109,"TEXCOORD_0":110},"indices":111,"material":22}]},{"name":"feldhecke_leaf_volume_LOD8","primitives":[{"attributes":{"POSITION":112,"NORMAL":113,"TEXCOORD_0":114},"indices":115,"material":23}]},{"name":"feldhecke_leaf_volume_LOD9","primitives":[{"attributes":{"POSITION":116,"NORMAL":117,"TEXCOORD_0":118},"indices":119,"material":24}]},{"name":"feldhecke_leaf_volume_LOD10","primitives":[{"attributes":{"POSITION":120,"NORMAL":121,"TEXCOORD_0":122},"indices":123,"material":25}]},{"name":"feldhecke_leaf_volume_LOD11","primitives":[{"attributes":{"POSITION":124,"NORMAL":125,"TEXCOORD_0":126},"indices":127,"material":26}]}],"buffers":[{"uri":"hundsrose_a.bin","byteLength":494748},{"uri":"brombeere_a.bin","byteLength":494748},{"uri":"himbeere_a.bin","byteLength":268460},{"uri":"berberitze_a.bin","byteLength":494748},{"uri":"heckenkirsche_a.bin","byteLength":494748},{"uri":"feldhecke_a_hedge.bin","byteLength":8841000}],"bufferViews":[{"buffer":0,"byteOffset":0,"byteLength":105048,"target":34962},{"buffer":0,"byteOffset":105048,"byteLength":105048,"target":34962},{"buffer":0,"byteOffset":210096,"byteLength":70032,"target":34962},{"buffer":0,"byteOffset":280128,"byteLength":43392,"target":34963},{"buffer":0,"byteOffset":323520,"byteLength":56400,"target":34962},{"buffer":0,"byteOffset":379920,"byteLength":56400,"target":34962},{"buffer":0,"byteOffset":436320,"byteLength":37600,"target":34962},{"buffer":0,"byteOffset":473920,"byteLength":19986,"target":34963},{"buffer":0,"byteOffset":493908,"byteLength":192,"target":34962},{"buffer":0,"byteOffset":494100,"byteLength":192,"target":34962},{"buffer":0,"byteOffset":494292,"byteLength":128,"target":34962},{"buffer":0,"byteOffset":494420,"byteLength":48,"target":34963},{"buffer":0,"byteOffset":494468,"byteLength":96,"target":34962},{"buffer":0,"byteOffset":494564,"byteLength":96,"target":34962},{"buffer":0,"byteOffset":494660,"byteLength":64,"target":34962},{"buffer":0,"byteOffset":494724,"byteLength":24,"target":34963},{"buffer":1,"byteOffset":0,"byteLength":105048,"target":34962},{"buffer":1,"byteOffset":105048,"byteLength":105048,"target":34962},{"buffer":1,"byteOffset":210096,"byteLength":70032,"target":34962},{"buffer":1,"byteOffset":280128,"byteLength":43392,"target":34963},{"buffer":1,"byteOffset":323520,"byteLength":56400,"target":34962},{"buffer":1,"byteOffset":379920,"byteLength":56400,"target":34962},{"buffer":1,"byteOffset":436320,"byteLength":37600,"target":34962},{"buffer":1,"byteOffset":473920,"byteLength":19986,"target":34963},{"buffer":1,"byteOffset":493908,"byteLength":192,"target":34962},{"buffer":1,"byteOffset":494100,"byteLength":192,"target":34962},{"buffer":1,"byteOffset":494292,"byteLength":128,"target":34962},{"buffer":1,"byteOffset":494420,"byteLength":48,"target":34963},{"buffer":1,"byteOffset":494468,"byteLength":96,"target":34962},{"buffer":1,"byteOffset":494564,"byteLength":96,"target":34962},{"buffer":1,"byteOffset":494660,"byteLength":64,"target":34962},{"buffer":1,"byteOffset":494724,"byteLength":24,"target":34963},{"buffer":2,"byteOffset":0,"byteLength":64836,"target":34962},{"buffer":2,"byteOffset":64836,"byteLength":64836,"target":34962},{"buffer":2,"byteOffset":129672,"byteLength":43224,"target":34962},{"buffer":2,"byteOffset":172896,"byteLength":52680,"target":34963},{"buffer":2,"byteOffset":225576,"byteLength":12792,"target":34962},{"buffer":2,"byteOffset":238368,"byteLength":12792,"target":34962},{"buffer":2,"byteOffset":251160,"byteLength":8528,"target":34962},{"buffer":2,"byteOffset":259688,"byteLength":7932,"target":34963},{"buffer":2,"byteOffset":267620,"byteLength":192,"target":34962},{"buffer":2,"byteOffset":267812,"byteLength":192,"target":34962},{"buffer":2,"byteOffset":268004,"byteLength":128,"target":34962},{"buffer":2,"byteOffset":268132,"byteLength":48,"target":34963},{"buffer":2,"byteOffset":268180,"byteLength":96,"target":34962},{"buffer":2,"byteOffset":268276,"byteLength":96,"target":34962},{"buffer":2,"byteOffset":268372,"byteLength":64,"target":34962},{"buffer":2,"byteOffset":268436,"byteLength":24,"target":34963},{"buffer":3,"byteOffset":0,"byteLength":105048,"target":34962},{"buffer":3,"byteOffset":105048,"byteLength":105048,"target":34962},{"buffer":3,"byteOffset":210096,"byteLength":70032,"target":34962},{"buffer":3,"byteOffset":280128,"byteLength":43392,"target":34963},{"buffer":3,"byteOffset":323520,"byteLength":56400,"target":34962},{"buffer":3,"byteOffset":379920,"byteLength":56400,"target":34962},{"buffer":3,"byteOffset":436320,"byteLength":37600,"target":34962},{"buffer":3,"byteOffset":473920,"byteLength":19986,"target":34963},{"buffer":3,"byteOffset":493908,"byteLength":192,"target":34962},{"buffer":3,"byteOffset":494100,"byteLength":192,"target":34962},{"buffer":3,"byteOffset":494292,"byteLength":128,"target":34962},{"buffer":3,"byteOffset":494420,"byteLength":48,"target":34963},{"buffer":3,"byteOffset":494468,"byteLength":96,"target":34962},{"buffer":3,"byteOffset":494564,"byteLength":96,"target":34962},{"buffer":3,"byteOffset":494660,"byteLength":64,"target":34962},{"buffer":3,"byteOffset":494724,"byteLength":24,"target":34963},{"buffer":4,"byteOffset":0,"byteLength":105048,"target":34962},{"buffer":4,"byteOffset":105048,"byteLength":105048,"target":34962},{"buffer":4,"byteOffset":210096,"byteLength":70032,"target":34962},{"buffer":4,"byteOffset":280128,"byteLength":43392,"target":34963},{"buffer":4,"byteOffset":323520,"byteLength":56400,"target":34962},{"buffer":4,"byteOffset":379920,"byteLength":56400,"target":34962},{"buffer":4,"byteOffset":436320,"byteLength":37600,"target":34962},{"buffer":4,"byteOffset":473920,"byteLength":19986,"target":34963},{"buffer":4,"byteOffset":493908,"byteLength":192,"target":34962},{"buffer":4,"byteOffset":494100,"byteLength":192,"target":34962},{"buffer":4,"byteOffset":494292,"byteLength":128,"target":34962},{"buffer":4,"byteOffset":494420,"byteLength":48,"target":34963},{"buffer":4,"byteOffset":494468,"byteLength":96,"target":34962},{"buffer":4,"byteOffset":494564,"byteLength":96,"target":34962},{"buffer":4,"byteOffset":494660,"byteLength":64,"target":34962},{"buffer":4,"byteOffset":494724,"byteLength":24,"target":34963},{"buffer":5,"byteOffset":0,"byteLength":345600,"target":34962},{"buffer":5,"byteOffset":345600,"byteLength":345600,"target":34962},{"buffer":5,"byteOffset":691200,"byteLength":230400,"target":34962},{"buffer":5,"byteOffset":921600,"byteLength":86400,"target":34963},{"buffer":5,"byteOffset":1008000,"byteLength":268800,"target":34962},{"buffer":5,"byteOffset":1276800,"byteLength":268800,"target":34962},{"buffer":5,"byteOffset":1545600,"byteLength":179200,"target":34962},{"buffer":5,"byteOffset":1724800,"byteLength":67200,"target":34963},{"buffer":5,"byteOffset":1792000,"byteLength":264000,"target":34962},{"buffer":5,"byteOffset":2056000,"byteLength":264000,"target":34962},{"buffer":5,"byteOffset":2320000,"byteLength":176000,"target":34962},{"buffer":5,"byteOffset":2496000,"byteLength":66000,"target":34963},{"buffer":5,"byteOffset":2562000,"byteLength":259200,"target":34962},{"buffer":5,"byteOffset":2821200,"byteLength":259200,"target":34962},{"buffer":5,"byteOffset":3080400,"byteLength":172800,"target":34962},{"buffer":5,"byteOffset":3253200,"byteLength":64800,"target":34963},{"buffer":5,"byteOffset":3318000,"byteLength":254400,"target":34962},{"buffer":5,"byteOffset":3572400,"byteLength":254400,"target":34962},{"buffer":5,"byteOffset":3826800,"byteLength":169600,"target":34962},{"buffer":5,"byteOffset":3996400,"byteLength":63600,"target":34963},{"buffer":5,"byteOffset":4060000,"byteLength":249600,"target":34962},{"buffer":5,"byteOffset":4309600,"byteLength":249600,"target":34962},{"buffer":5,"byteOffset":4559200,"byteLength":166400,"target":34962},{"buffer":5,"byteOffset":4725600,"byteLength":62400,"target":34963},{"buffer":5,"byteOffset":4788000,"byteLength":244800,"target":34962},{"buffer":5,"byteOffset":5032800,"byteLength":244800,"target":34962},{"buffer":5,"byteOffset":5277600,"byteLength":163200,"target":34962},{"buffer":5,"byteOffset":5440800,"byteLength":61200,"target":34963},{"buffer":5,"byteOffset":5502000,"byteLength":240000,"target":34962},{"buffer":5,"byteOffset":5742000,"byteLength":240000,"target":34962},{"buffer":5,"byteOffset":5982000,"byteLength":160000,"target":34962},{"buffer":5,"byteOffset":6142000,"byteLength":60000,"target":34963},{"buffer":5,"byteOffset":6202000,"byteLength":235200,"target":34962},{"buffer":5,"byteOffset":6437200,"byteLength":235200,"target":34962},{"buffer":5,"byteOffset":6672400,"byteLength":156800,"target":34962},{"buffer":5,"byteOffset":6829200,"byteLength":58800,"target":34963},{"buffer":5,"byteOffset":6888000,"byteLength":230400,"target":34962},{"buffer":5,"byteOffset":7118400,"byteLength":230400,"target":34962},{"buffer":5,"byteOffset":7348800,"byteLength":153600,"target":34962},{"buffer":5,"byteOffset":7502400,"byteLength":57600,"target":34963},{"buffer":5,"byteOffset":7560000,"byteLength":223200,"target":34962},{"buffer":5,"byteOffset":7783200,"byteLength":223200,"target":34962},{"buffer":5,"byteOffset":8006400,"byteLength":148800,"target":34962},{"buffer":5,"byteOffset":8155200,"byteLength":55800,"target":34963},{"buffer":5,"byteOffset":8211000,"byteLength":216000,"target":34962},{"buffer":5,"byteOffset":8427000,"byteLength":216000,"target":34962},{"buffer":5,"byteOffset":8643000,"byteLength":144000,"target":34962},{"buffer":5,"byteOffset":8787000,"byteLength":54000,"target":34963}],"accessors":[{"bufferView":0,"componentType":5126,"count":8754,"type":"VEC3","min":[-0.9375,0.0,-0.6888268044683518],"max":[0.9375,1.5000000000000002,0.6888268044683518]},{"bufferView":1,"componentType":5126,"count":8754,"type":"VEC3","min":[-0.9996474385261536,-0.9998162388801575,-0.9986070990562439],"max":[0.9991918206214905,0.9999634027481079,0.9998778700828552]},{"bufferView":2,"componentType":5126,"count":8754,"type":"VEC2"},{"bufferView":3,"componentType":5123,"count":21696,"type":"SCALAR","min":[0],"max":[8753]},{"bufferView":4,"componentType":5126,"count":4700,"type":"VEC3","min":[-0.935177803286538,2.5058921391079027e-05,-0.6709294058316859],"max":[0.949319072105593,1.5000679081827781,0.6704794961500986]},{"bufferView":5,"componentType":5126,"count":4700,"type":"VEC3","min":[-0.9976518154144287,-0.9994509816169739,-0.9989542961120605],"max":[0.9988946318626404,0.9999633431434631,0.9998062252998352]},{"bufferView":6,"componentType":5126,"count":4700,"type":"VEC2"},{"bufferView":7,"componentType":5123,"count":9993,"type":"SCALAR","min":[0],"max":[4699]},{"bufferView":8,"componentType":5126,"count":16,"type":"VEC3","min":[-1.03125,0,-1.03125],"max":[1.03125,1.5,1.03125]},{"bufferView":9,"componentType":5126,"count":16,"type":"VEC3","min":[-1.0,0,-0.7071067811865475],"max":[-0.0,0,1.0]},{"bufferView":10,"componentType":5126,"count":16,"type":"VEC2"},{"bufferView":11,"componentType":5123,"count":24,"type":"SCALAR","min":[0],"max":[15]},{"bufferView":12,"componentType":5126,"count":8,"type":"VEC3","min":[-1.03125,0,-1.03125],"max":[1.03125,1.5,1.03125]},{"bufferView":13,"componentType":5126,"count":8,"type":"VEC3","min":[-1.0,0,6.123233995736766e-17],"max":[-0.0,0,1.0]},{"bufferView":14,"componentType":5126,"count":8,"type":"VEC2"},{"bufferView":15,"componentType":5123,"count":12,"type":"SCALAR","min":[0],"max":[7]},{"bufferView":16,"componentType":5126,"count":8754,"type":"VEC3","min":[-0.825,0.0,-0.6061675879321495],"max":[0.825,1.0,0.6061675879321495]},{"bufferView":17,"componentType":5126,"count":8754,"type":"VEC3","min":[-0.9995777010917664,-0.9998945593833923,-0.9979756474494934],"max":[0.9988959431648254,0.9999789595603943,0.9998255372047424]},{"bufferView":18,"componentType":5126,"count":8754,"type":"VEC2"},{"bufferView":19,"componentType":5123,"count":21696,"type":"SCALAR","min":[0],"max":[8753]},{"bufferView":20,"componentType":5126,"count":4700,"type":"VEC3","min":[-0.8229564668921534,1.6705947594052684e-05,-0.5904178771318837],"max":[0.8354007834529218,1.000045272121852,0.5900219566120868]},{"bufferView":21,"componentType":5126,"count":4700,"type":"VEC3","min":[-0.9975082874298096,-0.999684751033783,-0.9989455342292786],"max":[0.9987160563468933,0.9999789595603943,0.9997523427009583]},{"bufferView":22,"componentType":5126,"count":4700,"type":"VEC2"},{"bufferView":23,"componentType":5123,"count":9993,"type":"SCALAR","min":[0],"max":[4699]},{"bufferView":24,"componentType":5126,"count":16,"type":"VEC3","min":[-0.9075,0,-0.9075],"max":[0.9075,1.0,0.9075]},{"bufferView":25,"componentType":5126,"count":16,"type":"VEC3","min":[-1.0,0,-0.7071067811865475],"max":[-0.0,0,1.0]},{"bufferView":26,"componentType":5126,"count":16,"type":"VEC2"},{"bufferView":27,"componentType":5123,"count":24,"type":"SCALAR","min":[0],"max":[15]},{"bufferView":28,"componentType":5126,"count":8,"type":"VEC3","min":[-0.9075,0,-0.9075],"max":[0.9075,1.0,0.9075]},{"bufferView":29,"componentType":5126,"count":8,"type":"VEC3","min":[-1.0,0,6.123233995736766e-17],"max":[-0.0,0,1.0]},{"bufferView":30,"componentType":5126,"count":8,"type":"VEC2"},{"bufferView":31,"componentType":5123,"count":12,"type":"SCALAR","min":[0],"max":[7]},{"bufferView":32,"componentType":5126,"count":5403,"type":"VEC3","min":[-0.2975,0.0,-0.2652338277353859],"max":[0.2975,0.7,0.2652338277353859]},{"bufferView":33,"componentType":5126,"count":5403,"type":"VEC3","min":[-0.9994304180145264,-0.8523291945457458,-0.9983596801757812],"max":[0.9999390244483948,0.9999638199806213,0.997063398361206]},{"bufferView":34,"componentType":5126,"count":5403,"type":"VEC2"},{"bufferView":35,"componentType":5123,"count":26340,"type":"SCALAR","min":[0],"max":[5402]},{"bufferView":36,"componentType":5126,"count":1066,"type":"VEC3","min":[-0.2971687657304079,0.00027180425854097585,-0.26515763541526727],"max":[0.2968955243065341,0.699973871411052,0.26440942414684815]},{"bufferView":37,"componentType":5126,"count":1066,"type":"VEC3","min":[-0.9994305372238159,-0.5630797743797302,-0.9959743618965149],"max":[0.9791324138641357,0.9999735355377197,0.9973251223564148]},{"bufferView":38,"componentType":5126,"count":1066,"type":"VEC2"},{"bufferView":39,"componentType":5123,"count":3966,"type":"SCALAR","min":[0],"max":[1065]},{"bufferView":40,"componentType":5126,"count":16,"type":"VEC3","min":[-0.32725,0,-0.32725],"max":[0.32725,0.7,0.32725]},{"bufferView":41,"componentType":5126,"count":16,"type":"VEC3","min":[-1.0,0,-0.7071067811865475],"max":[-0.0,0,1.0]},{"bufferView":42,"componentType":5126,"count":16,"type":"VEC2"},{"bufferView":43,"componentType":5123,"count":24,"type":"SCALAR","min":[0],"max":[15]},{"bufferView":44,"componentType":5126,"count":8,"type":"VEC3","min":[-0.32725,0,-0.32725],"max":[0.32725,0.7,0.32725]},{"bufferView":45,"componentType":5126,"count":8,"type":"VEC3","min":[-1.0,0,6.123233995736766e-17],"max":[-0.0,0,1.0]},{"bufferView":46,"componentType":5126,"count":8,"type":"VEC2"},{"bufferView":47,"componentType":5123,"count":12,"type":"SCALAR","min":[0],"max":[7]},{"bufferView":48,"componentType":5126,"count":8754,"type":"VEC3","min":[-0.6,0.0,-0.44084915485974513],"max":[0.6,1.0,0.44084915485974513]},{"bufferView":49,"componentType":5126,"count":8754,"type":"VEC3","min":[-0.9996581077575684,-0.9998005628585815,-0.9986739158630371],"max":[0.9992280602455139,0.9999603033065796,0.9998832941055298]},{"bufferView":50,"componentType":5126,"count":8754,"type":"VEC2"},{"bufferView":51,"componentType":5123,"count":21696,"type":"SCALAR","min":[0],"max":[8753]},{"bufferView":52,"componentType":5126,"count":4700,"type":"VEC3","min":[-0.5985137941033843,1.6705947594052684e-05,-0.429394819732279],"max":[0.6075642061475794,1.000045272121852,0.42910687753606314]},{"bufferView":53,"componentType":5126,"count":4700,"type":"VEC3","min":[-0.9976669549942017,-0.99940425157547,-0.9989551305770874],"max":[0.9989135265350342,0.9999603033065796,0.9998118281364441]},{"bufferView":54,"componentType":5126,"count":4700,"type":"VEC2"},{"bufferView":55,"componentType":5123,"count":9993,"type":"SCALAR","min":[0],"max":[4699]},{"bufferView":56,"componentType":5126,"count":16,"type":"VEC3","min":[-0.66,0,-0.66],"max":[0.66,1.0,0.66]},{"bufferView":57,"componentType":5126,"count":16,"type":"VEC3","min":[-1.0,0,-0.7071067811865475],"max":[-0.0,0,1.0]},{"bufferView":58,"componentType":5126,"count":16,"type":"VEC2"},{"bufferView":59,"componentType":5123,"count":24,"type":"SCALAR","min":[0],"max":[15]},{"bufferView":60,"componentType":5126,"count":8,"type":"VEC3","min":[-0.66,0,-0.66],"max":[0.66,1.0,0.66]},{"bufferView":61,"componentType":5126,"count":8,"type":"VEC3","min":[-1.0,0,6.123233995736766e-17],"max":[-0.0,0,1.0]},{"bufferView":62,"componentType":5126,"count":8,"type":"VEC2"},{"bufferView":63,"componentType":5123,"count":12,"type":"SCALAR","min":[0],"max":[7]},{"bufferView":64,"componentType":5126,"count":8754,"type":"VEC3","min":[-0.55,0.0,-0.4041117252880997],"max":[0.55,1.0,0.4041117252880997]},{"bufferView":65,"componentType":5126,"count":8754,"type":"VEC3","min":[-0.9996779561042786,-0.9997625946998596,-0.9988284111022949],"max":[0.999296247959137,0.9999527335166931,0.9998937249183655]},{"bufferView":66,"componentType":5126,"count":8754,"type":"VEC2"},{"bufferView":67,"componentType":5123,"count":21696,"type":"SCALAR","min":[0],"max":[8753]},{"bufferView":68,"componentType":5126,"count":4700,"type":"VEC3","min":[-0.5486376445947689,1.6705947594052684e-05,-0.39361191808792245],"max":[0.5569338556352812,1.000045272121852,0.3933479710747246]},{"bufferView":69,"componentType":5126,"count":4700,"type":"VEC3","min":[-0.9976954460144043,-0.999291181564331,-0.9989568591117859],"max":[0.998948872089386,0.9999527335166931,0.9998225569725037]},{"bufferView":70,"componentType":5126,"count":4700,"type":"VEC2"},{"bufferView":71,"componentType":5123,"count":9993,"type":"SCALAR","min":[0],"max":[4699]},{"bufferView":72,"componentType":5126,"count":16,"type":"VEC3","min":[-0.6050000000000001,0,-0.6050000000000001],"max":[0.6050000000000001,1.0,0.6050000000000001]},{"bufferView":73,"componentType":5126,"count":16,"type":"VEC3","min":[-1.0,0,-0.7071067811865475],"max":[-0.0,0,1.0]},{"bufferView":74,"componentType":5126,"count":16,"type":"VEC2"},{"bufferView":75,"componentType":5123,"count":24,"type":"SCALAR","min":[0],"max":[15]},{"bufferView":76,"componentType":5126,"count":8,"type":"VEC3","min":[-0.6050000000000001,0,-0.6050000000000001],"max":[0.6050000000000001,1.0,0.6050000000000001]},{"bufferView":77,"componentType":5126,"count":8,"type":"VEC3","min":[-1.0,0,6.123233995736766e-17],"max":[-0.0,0,1.0]},{"bufferView":78,"componentType":5126,"count":8,"type":"VEC2"},{"bufferView":79,"componentType":5123,"count":12,"type":"SCALAR","min":[0],"max":[7]},{"bufferView":80,"componentType":5126,"count":28800,"type":"VEC3","min":[-4.126817278919774,0.011213062695974482,-1.2979836229039226],"max":[4.138743788558677,2.540377611858696,1.3038428510842948]},{"bufferView":81,"componentType":5126,"count":28800,"type":"VEC3","min":[-1.0,-0.14997528130843354,-1.0],"max":[1.0,1.0,1.0]},{"bufferView":82,"componentType":5126,"count":28800,"type":"VEC2"},{"bufferView":83,"componentType":5123,"count":43200,"type":"SCALAR","min":[0],"max":[28799]},{"bufferView":84,"componentType":5126,"count":22400,"type":"VEC3","min":[-4.234200284190691,-0.09725512406532622,-1.3946456092362631],"max":[4.268771150403175,2.558197878756185,1.4114069449227085]},{"bufferView":85,"componentType":5126,"count":22400,"type":"VEC3","min":[-1.0,-0.14981148296672908,-1.0],"max":[1.0,1.0,1.0]},{"bufferView":86,"componentType":5126,"count":22400,"type":"VEC2"},{"bufferView":87,"componentType":5123,"count":33600,"type":"SCALAR","min":[0],"max":[22399]},{"bufferView":88,"componentType":5126,"count":22000,"type":"VEC3","min":[-4.363717902317521,-0.14070249146311153,-1.5051060297426613],"max":[4.359849712080774,2.583486804969113,1.491542912915171]},{"bufferView":89,"componentType":5126,"count":22000,"type":"VEC3","min":[-1.0,-0.14988994183613508,-1.0],"max":[1.0,1.0,1.0]},{"bufferView":90,"componentType":5126,"count":22000,"type":"VEC2"},{"bufferView":91,"componentType":5123,"count":33000,"type":"SCALAR","min":[0],"max":[21999]},{"bufferView":92,"componentType":5126,"count":21600,"type":"VEC3","min":[-4.486234160909862,-0.23811751446472573,-1.6084634817487988],"max":[4.498946221161156,2.659310641233496,1.6603653688023625]},{"bufferView":93,"componentType":5126,"count":21600,"type":"VEC3","min":[-1.0,-0.14995499776964652,-1.0],"max":[1.0,1.0,1.0]},{"bufferView":94,"componentType":5126,"count":21600,"type":"VEC2"},{"bufferView":95,"componentType":5123,"count":32400,"type":"SCALAR","min":[0],"max":[21599]},{"bufferView":96,"componentType":5126,"count":21200,"type":"VEC3","min":[-4.6641540381327165,-0.35572945431427855,-1.790456594412339],"max":[4.645315272707901,2.8483204204315276,1.81651878938081]},{"bufferView":97,"componentType":5126,"count":21200,"type":"VEC3","min":[-1.0,-0.14999405217105713,-1.0],"max":[1.0,1.0,1.0]},{"bufferView":98,"componentType":5126,"count":21200,"type":"VEC2"},{"bufferView":99,"componentType":5123,"count":31800,"type":"SCALAR","min":[0],"max":[21199]},{"bufferView":100,"componentType":5126,"count":20800,"type":"VEC3","min":[-4.882064442766834,-0.5220234639075572,-1.9819290709334503],"max":[4.885338080923622,2.904714501489253,1.9659460557637223]},{"bufferView":101,"componentType":5126,"count":20800,"type":"VEC3","min":[-1.0,-0.14995795039888699,-1.0],"max":[1.0,1.0,1.0]},{"bufferView":102,"componentType":5126,"count":20800,"type":"VEC2"},{"bufferView":103,"componentType":5123,"count":31200,"type":"SCALAR","min":[0],"max":[20799]},{"bufferView":104,"componentType":5126,"count":20400,"type":"VEC3","min":[-5.104713171440024,-0.6784492926824287,-2.235666484483945],"max":[5.139238098044322,3.0471894979629206,2.2527293627798235]},{"bufferView":105,"componentType":5126,"count":20400,"type":"VEC3","min":[-1.0,-0.14989391300095092,-1.0],"max":[1.0,1.0,1.0]},{"bufferView":106,"componentType":5126,"count":20400,"type":"VEC2"},{"bufferView":107,"componentType":5123,"count":30600,"type":"SCALAR","min":[0],"max":[20399]},{"bufferView":108,"componentType":5126,"count":20000,"type":"VEC3","min":[-5.3678560482832065,-0.904321463886136,-2.5717952859969557],"max":[5.422256832930765,3.3443300545663766,2.5972485674928087]},{"bufferView":109,"componentType":5126,"count":20000,"type":"VEC3","min":[-1.0,-0.14996482660022326,-1.0],"max":[1.0,1.0,1.0]},{"bufferView":110,"componentType":5126,"count":20000,"type":"VEC2"},{"bufferView":111,"componentType":5123,"count":30000,"type":"SCALAR","min":[0],"max":[19999]},{"bufferView":112,"componentType":5126,"count":19600,"type":"VEC3","min":[-5.773167244510611,-1.0942346799802107,-2.802022279270732],"max":[5.7672106380898995,3.4544514986741968,2.899909781016724]},{"bufferView":113,"componentType":5126,"count":19600,"type":"VEC3","min":[-1.0,-0.1497578621307224,-1.0],"max":[1.0,1.0,1.0]},{"bufferView":114,"componentType":5126,"count":19600,"type":"VEC2"},{"bufferView":115,"componentType":5123,"count":29400,"type":"SCALAR","min":[0],"max":[19599]},{"bufferView":116,"componentType":5126,"count":19200,"type":"VEC3","min":[-6.145986649767166,-1.4514736075191932,-3.2834099040043636],"max":[6.1374832514074615,3.7244706434840245,3.2532318846148014]},{"bufferView":117,"componentType":5126,"count":19200,"type":"VEC3","min":[-1.0,-0.14994183577711825,-1.0],"max":[1.0,1.0,1.0]},{"bufferView":118,"componentType":5126,"count":19200,"type":"VEC2"},{"bufferView":119,"componentType":5123,"count":28800,"type":"SCALAR","min":[0],"max":[19199]},{"bufferView":120,"componentType":5126,"count":18600,"type":"VEC3","min":[-6.558299744319239,-1.6706531902484778,-3.6804524761756525],"max":[6.610368401844983,3.9838261820760885,3.65796481866019]},{"bufferView":121,"componentType":5126,"count":18600,"type":"VEC3","min":[-1.0,-0.14996123173054277,-1.0],"max":[1.0,1.0,1.0]},{"bufferView":122,"componentType":5126,"count":18600,"type":"VEC2"},{"bufferView":123,"componentType":5123,"count":27900,"type":"SCALAR","min":[0],"max":[18599]},{"bufferView":124,"componentType":5126,"count":18000,"type":"VEC3","min":[-7.024743575130529,-2.0285102693236965,-4.09945960474144],"max":[7.06575292580202,4.19706654880221,4.1737464374062325]},{"bufferView":125,"componentType":5126,"count":18000,"type":"VEC3","min":[-1.0,-0.14988676326630043,-1.0],"max":[1.0,1.0,1.0]},{"bufferView":126,"componentType":5126,"count":18000,"type":"VEC2"},{"bufferView":127,"componentType":5123,"count":27000,"type":"SCALAR","min":[0],"max":[17999]}],"images":[{"uri":"textures/poly_searsia_lucida.png"},{"uri":"textures/poly_searsia_lucida.png"},{"uri":"impostors/hundsrose_a_summer.png"},{"uri":"textures/poly_searsia_lucida.png"},{"uri":"textures/poly_searsia_lucida.png"},{"uri":"impostors/brombeere_a_summer.png"},{"uri":"textures/poly_shrub_01.png"},{"uri":"textures/poly_shrub_01.png"},{"uri":"impostors/himbeere_a_summer.png"},{"uri":"textures/poly_searsia_lucida.png"},{"uri":"textures/poly_searsia_lucida.png"},{"uri":"impostors/berberitze_a_summer.png"},{"uri":"textures/poly_searsia_lucida.png"},{"uri":"textures/poly_searsia_lucida.png"},{"uri":"impostors/heckenkirsche_a_summer.png"},{"uri":"textures/poly_searsia_lucida.png"}],"samplers":[{"magFilter":9729,"minFilter":9987,"wrapS":10497,"wrapT":10497},{"magFilter":9729,"minFilter":9987,"wrapS":10497,"wrapT":10497},{"magFilter":9729,"minFilter":9987,"wrapS":10497,"wrapT":10497},{"magFilter":9729,"minFilter":9987,"wrapS":10497,"wrapT":10497},{"magFilter":9729,"minFilter":9987,"wrapS":10497,"wrapT":10497},{"magFilter":9729,"minFilter":9987,"wrapS":10497,"wrapT":10497}],"textures":[{"source":0,"sampler":0},{"source":1,"sampler":0},{"source":2,"sampler":0},{"source":3,"sampler":1},{"source":4,"sampler":1},{"source":5,"sampler":1},{"source":6,"sampler":2},{"source":7,"sampler":2},{"source":8,"sampler":2},{"source":9,"sampler":3},{"source":10,"sampler":3},{"source":11,"sampler":3},{"source":12,"sampler":4},{"source":13,"sampler":4},{"source":14,"sampler":4},{"source":15,"sampler":5}],"materials":[{"name":"hundsrose_a_bark","pbrMetallicRoughness":{"baseColorFactor":[0.82,0.82,0.82,1.0],"baseColorTexture":{"index":0},"metallicFactor":0.0,"roughnessFactor":0.91},"doubleSided":false},{"name":"hundsrose_a_foliage","pbrMetallicRoughness":{"baseColorFactor":[0.5550980392156862,1.0,0.7150980392156863,1.0],"baseColorTexture":{"index":1},"metallicFactor":0.0,"roughnessFactor":0.78},"doubleSided":true,"alphaMode":"MASK","alphaCutoff":0.18},{"name":"hundsrose_a_whole_tree_impostor","pbrMetallicRoughness":{"baseColorFactor":[1,1,1,1],"baseColorTexture":{"index":2},"metallicFactor":0.0,"roughnessFactor":0.92},"doubleSided":true,"alphaMode":"MASK","alphaCutoff":0.18},{"name":"brombeere_a_bark","pbrMetallicRoughness":{"baseColorFactor":[0.82,0.82,0.82,1.0],"baseColorTexture":{"index":3},"metallicFactor":0.0,"roughnessFactor":0.91},"doubleSided":false},{"name":"brombeere_a_foliage","pbrMetallicRoughness":{"baseColorFactor":[0.5570588235294117,1.0,0.7170588235294117,1.0],"baseColorTexture":{"index":4},"metallicFactor":0.0,"roughnessFactor":0.78},"doubleSided":true,"alphaMode":"MASK","alphaCutoff":0.18},{"name":"brombeere_a_whole_tree_impostor","pbrMetallicRoughness":{"baseColorFactor":[1,1,1,1],"baseColorTexture":{"index":5},"metallicFactor":0.0,"roughnessFactor":0.92},"doubleSided":true,"alphaMode":"MASK","alphaCutoff":0.18},{"name":"himbeere_a_bark","pbrMetallicRoughness":{"baseColorFactor":[0.82,0.82,0.82,1.0],"baseColorTexture":{"index":6},"metallicFactor":0.0,"roughnessFactor":0.91},"doubleSided":false},{"name":"himbeere_a_foliage","pbrMetallicRoughness":{"baseColorFactor":[0.5480392156862745,1.0,0.7080392156862745,1.0],"baseColorTexture":{"index":7},"metallicFactor":0.0,"roughnessFactor":0.78},"doubleSided":true,"alphaMode":"MASK","alphaCutoff":0.18},{"name":"himbeere_a_whole_tree_impostor","pbrMetallicRoughness":{"baseColorFactor":[1,1,1,1],"baseColorTexture":{"index":8},"metallicFactor":0.0,"roughnessFactor":0.92},"doubleSided":true,"alphaMode":"MASK","alphaCutoff":0.18},{"name":"berberitze_a_bark","pbrMetallicRoughness":{"baseColorFactor":[0.82,0.82,0.82,1.0],"baseColorTexture":{"index":9},"metallicFactor":0.0,"roughnessFactor":0.91},"doubleSided":false},{"name":"berberitze_a_foliage","pbrMetallicRoughness":{"baseColorFactor":[0.5754901960784313,1.0,0.7354901960784314,1.0],"baseColorTexture":{"index":10},"metallicFactor":0.0,"roughnessFactor":0.78},"doubleSided":true,"alphaMode":"MASK","alphaCutoff":0.18},{"name":"berberitze_a_whole_tree_impostor","pbrMetallicRoughness":{"baseColorFactor":[1,1,1,1],"baseColorTexture":{"index":11},"metallicFactor":0.0,"roughnessFactor":0.92},"doubleSided":true,"alphaMode":"MASK","alphaCutoff":0.18},{"name":"heckenkirsche_a_bark","pbrMetallicRoughness":{"baseColorFactor":[0.82,0.82,0.82,1.0],"baseColorTexture":{"index":12},"metallicFactor":0.0,"roughnessFactor":0.91},"doubleSided":false},{"name":"heckenkirsche_a_foliage","pbrMetallicRoughness":{"baseColorFactor":[0.6209803921568627,1.0,0.7809803921568628,1.0],"baseColorTexture":{"index":13},"metallicFactor":0.0,"roughnessFactor":0.78},"doubleSided":true,"alphaMode":"MASK","alphaCutoff":0.18},{"name":"heckenkirsche_a_whole_tree_impostor","pbrMetallicRoughness":{"baseColorFactor":[1,1,1,1],"baseColorTexture":{"index":14},"metallicFactor":0.0,"roughnessFactor":0.92},"doubleSided":true,"alphaMode":"MASK","alphaCutoff":0.18},{"name":"feldhecke_individual_leaves_LOD0","pbrMetallicRoughness":{"baseColorFactor":[0.58,0.96,0.66,1.0],"baseColorTexture":{"index":15},"metallicFactor":0.0,"roughnessFactor":0.82},"doubleSided":true,"alphaMode":"MASK","alphaCutoff":0.18},{"name":"feldhecke_individual_leaves_LOD1","pbrMetallicRoughness":{"baseColorFactor":[0.58,0.96,0.66,1.0],"baseColorTexture":{"index":15},"metallicFactor":0.0,"roughnessFactor":0.82},"doubleSided":true,"alphaMode":"MASK","alphaCutoff":0.08},{"name":"feldhecke_individual_leaves_LOD2","pbrMetallicRoughness":{"baseColorFactor":[0.58,0.96,0.66,1.0],"baseColorTexture":{"index":15},"metallicFactor":0.0,"roughnessFactor":0.82},"doubleSided":true,"alphaMode":"MASK","alphaCutoff":0.065},{"name":"feldhecke_individual_leaves_LOD3","pbrMetallicRoughness":{"baseColorFactor":[0.58,0.96,0.66,1.0],"baseColorTexture":{"index":15},"metallicFactor":0.0,"roughnessFactor":0.82},"doubleSided":true,"alphaMode":"MASK","alphaCutoff":0.055},{"name":"feldhecke_individual_leaves_LOD4","pbrMetallicRoughness":{"baseColorFactor":[0.58,0.96,0.66,1.0],"baseColorTexture":{"index":15},"metallicFactor":0.0,"roughnessFactor":0.82},"doubleSided":true,"alphaMode":"MASK","alphaCutoff":0.045},{"name":"feldhecke_individual_leaves_LOD5","pbrMetallicRoughness":{"baseColorFactor":[0.58,0.96,0.66,1.0],"baseColorTexture":{"index":15},"metallicFactor":0.0,"roughnessFactor":0.82},"doubleSided":true,"alphaMode":"MASK","alphaCutoff":0.038},{"name":"feldhecke_individual_leaves_LOD6","pbrMetallicRoughness":{"baseColorFactor":[0.58,0.96,0.66,1.0],"baseColorTexture":{"index":15},"metallicFactor":0.0,"roughnessFactor":0.82},"doubleSided":true,"alphaMode":"MASK","alphaCutoff":0.032},{"name":"feldhecke_individual_leaves_LOD7","pbrMetallicRoughness":{"baseColorFactor":[0.58,0.96,0.66,1.0],"baseColorTexture":{"index":15},"metallicFactor":0.0,"roughnessFactor":0.82},"doubleSided":true,"alphaMode":"MASK","alphaCutoff":0.027},{"name":"feldhecke_individual_leaves_LOD8","pbrMetallicRoughness":{"baseColorFactor":[0.58,0.96,0.66,1.0],"baseColorTexture":{"index":15},"metallicFactor":0.0,"roughnessFactor":0.82},"doubleSided":true,"alphaMode":"MASK","alphaCutoff":0.023},{"name":"feldhecke_individual_leaves_LOD9","pbrMetallicRoughness":{"baseColorFactor":[0.58,0.96,0.66,1.0],"baseColorTexture":{"index":15},"metallicFactor":0.0,"roughnessFactor":0.82},"doubleSided":true,"alphaMode":"MASK","alphaCutoff":0.02},{"name":"feldhecke_individual_leaves_LOD10","pbrMetallicRoughness":{"baseColorFactor":[0.58,0.96,0.66,1.0],"baseColorTexture":{"index":15},"metallicFactor":0.0,"roughnessFactor":0.82},"doubleSided":true,"alphaMode":"MASK","alphaCutoff":0.017},{"name":"feldhecke_individual_leaves_LOD11","pbrMetallicRoughness":{"baseColorFactor":[0.58,0.96,0.66,1.0],"baseColorTexture":{"index":15},"metallicFactor":0.0,"roughnessFactor":0.82},"doubleSided":true,"alphaMode":"MASK","alphaCutoff":0.015}]}