{"asset":{"version":"2.0","generator":"Connected Rails CC0 tree importer","copyright":"Mantissa and Poly Haven source models: CC0 1.0; optimisation: Connected Rails"},"scene":0,"scenes":[{"nodes":[0,1,2,3]}],"nodes":[{"name":"crown_LOD0","mesh":0},{"name":"crown_LOD1","mesh":1},{"name":"crown_LOD2","mesh":2},{"name":"crown_LOD3","mesh":3}],"meshes":[{"name":"crown_LOD0","primitives":[{"attributes":{"POSITION":0,"NORMAL":1,"TEXCOORD_0":2},"indices":3,"material":0},{"attributes":{"POSITION":4,"NORMAL":5,"TEXCOORD_0":6},"indices":7,"material":1}]},{"name":"crown_LOD1","primitives":[{"attributes":{"POSITION":8,"NORMAL":9,"TEXCOORD_0":10},"indices":11,"material":0},{"attributes":{"POSITION":12,"NORMAL":13,"TEXCOORD_0":14},"indices":15,"material":1}]},{"name":"crown_LOD2","primitives":[{"attributes":{"POSITION":16,"NORMAL":17,"TEXCOORD_0":18},"indices":19,"material":2}]},{"name":"crown_LOD3","primitives":[{"attributes":{"POSITION":20,"NORMAL":21,"TEXCOORD_0":22},"indices":23,"material":2}]}],"buffers":[{"uri":"fichte_c.bin","byteLength":2526228}],"bufferViews":[{"buffer":0,"byteOffset":0,"byteLength":371940,"target":34962},{"buffer":0,"byteOffset":371940,"byteLength":371940,"target":34962},{"buffer":0,"byteOffset":743880,"byteLength":247960,"target":34962},{"buffer":0,"byteOffset":991840,"byteLength":356520,"target":34963},{"buffer":0,"byteOffset":1348360,"byteLength":147384,"target":34962},{"buffer":0,"byteOffset":1495744,"byteLength":147384,"target":34962},{"buffer":0,"byteOffset":1643128,"byteLength":98256,"target":34962},{"buffer":0,"byteOffset":1741384,"byteLength":56754,"target":34963},{"buffer":0,"byteOffset":1798140,"byteLength":79176,"target":34962},{"buffer":0,"byteOffset":1877316,"byteLength":79176,"target":34962},{"buffer":0,"byteOffset":1956492,"byteLength":52784,"target":34962},{"buffer":0,"byteOffset":2009276,"byteLength":66330,"target":34963},{"buffer":0,"byteOffset":2075608,"byteLength":147384,"target":34962},{"buffer":0,"byteOffset":2222992,"byteLength":147384,"target":34962},{"buffer":0,"byteOffset":2370376,"byteLength":98256,"target":34962},{"buffer":0,"byteOffset":2468632,"byteLength":56754,"target":34963},{"buffer":0,"byteOffset":2525388,"byteLength":192,"target":34962},{"buffer":0,"byteOffset":2525580,"byteLength":192,"target":34962},{"buffer":0,"byteOffset":2525772,"byteLength":128,"target":34962},{"buffer":0,"byteOffset":2525900,"byteLength":48,"target":34963},{"buffer":0,"byteOffset":2525948,"byteLength":96,"target":34962},{"buffer":0,"byteOffset":2526044,"byteLength":96,"target":34962},{"buffer":0,"byteOffset":2526140,"byteLength":64,"target":34962},{"buffer":0,"byteOffset":2526204,"byteLength":24,"target":34963}],"accessors":[{"bufferView":0,"componentType":5126,"count":30995,"type":"VEC3","min":[-7.064607252835957,0.0,-6.928646889778085],"max":[6.598418394667869,37.07924627552472,6.442334379179058]},{"bufferView":1,"componentType":5126,"count":30995,"type":"VEC3","min":[-0.9999989867210388,-0.9980162382125854,-0.9999856352806091],"max":[0.9999945759773254,0.999994695186615,0.9999948740005493]},{"bufferView":2,"componentType":5126,"count":30995,"type":"VEC2"},{"bufferView":3,"componentType":5123,"count":178260,"type":"SCALAR","min":[0],"max":[30994]},{"bufferView":4,"componentType":5126,"count":12282,"type":"VEC3","min":[-7.979999542236328,18.26950454711914,-7.548106670379639],"max":[7.980000019073486,38.0,7.548107147216797]},{"bufferView":5,"componentType":5126,"count":12282,"type":"VEC3","min":[-0.9997769594192505,-0.999319851398468,-0.99973064661026],"max":[0.999862015247345,0.9999927282333374,0.9996088147163391]},{"bufferView":6,"componentType":5126,"count":12282,"type":"VEC2"},{"bufferView":7,"componentType":5123,"count":28377,"type":"SCALAR","min":[0],"max":[12281]},{"bufferView":8,"componentType":5126,"count":6598,"type":"VEC3","min":[-7.064607252835957,0.00045491630939226504,-6.928646889778085],"max":[6.599926305127893,37.07924627552472,6.442334379179058]},{"bufferView":9,"componentType":5126,"count":6598,"type":"VEC3","min":[-0.9999873042106628,-0.9992077350616455,-0.9999196529388428],"max":[0.9999707341194153,0.9999128580093384,0.9998431205749512]},{"bufferView":10,"componentType":5126,"count":6598,"type":"VEC2"},{"bufferView":11,"componentType":5123,"count":33165,"type":"SCALAR","min":[0],"max":[6597]},{"bufferView":12,"componentType":5126,"count":12282,"type":"VEC3","min":[-7.979999542236328,18.26950454711914,-7.548106670379639],"max":[7.980000019073486,38.0,7.548107147216797]},{"bufferView":13,"componentType":5126,"count":12282,"type":"VEC3","min":[-0.9997769594192505,-0.999319851398468,-0.99973064661026],"max":[0.999862015247345,0.9999927282333374,0.9996088147163391]},{"bufferView":14,"componentType":5126,"count":12282,"type":"VEC2"},{"bufferView":15,"componentType":5123,"count":28377,"type":"SCALAR","min":[0],"max":[12281]},{"bufferView":16,"componentType":5126,"count":16,"type":"VEC3","min":[-8.778,0,-8.778],"max":[8.778,38.0,8.778]},{"bufferView":17,"componentType":5126,"count":16,"type":"VEC3","min":[-1.0,0,-0.7071067811865475],"max":[-0.0,0,1.0]},{"bufferView":18,"componentType":5126,"count":16,"type":"VEC2"},{"bufferView":19,"componentType":5123,"count":24,"type":"SCALAR","min":[0],"max":[15]},{"bufferView":20,"componentType":5126,"count":8,"type":"VEC3","min":[-8.778,0,-8.778],"max":[8.778,38.0,8.778]},{"bufferView":21,"componentType":5126,"count":8,"type":"VEC3","min":[-1.0,0,6.123233995736766e-17],"max":[-0.0,0,1.0]},{"bufferView":22,"componentType":5126,"count":8,"type":"VEC2"},{"bufferView":23,"componentType":5123,"count":12,"type":"SCALAR","min":[0],"max":[7]}],"samplers":[{"magFilter":9729,"minFilter":9987,"wrapS":10497,"wrapT":10497}],"images":[{"uri":"textures/poly_fir_bark.jpg"},{"uri":"textures/poly_fir_foliage.png"},{"uri":"impostors/fichte_c_winter.png"}],"textures":[{"source":0,"sampler":0},{"source":1,"sampler":0},{"source":2,"sampler":0}],"materials":[{"name":"bark","pbrMetallicRoughness":{"baseColorFactor":[0.82,0.82,0.82,1.0],"baseColorTexture":{"index":0},"metallicFactor":0.0,"roughnessFactor":0.91},"doubleSided":false},{"name":"foliage","pbrMetallicRoughness":{"baseColorFactor":[0.6239803921568629,1.0,0.7999803921568629,1.0],"baseColorTexture":{"index":1},"metallicFactor":0.0,"roughnessFactor":0.78},"doubleSided":true,"alphaMode":"MASK","alphaCutoff":0.18},{"name":"whole_tree_impostor","pbrMetallicRoughness":{"baseColorFactor":[1,1,1,1],"baseColorTexture":{"index":2},"metallicFactor":0.0,"roughnessFactor":0.92},"doubleSided":true,"alphaMode":"MASK","alphaCutoff":0.18}]}