{"asset":{"version":"2.0","generator":"Connected Rails CC0 tree importer","copyright":"Mantissa and Poly Haven source models: CC0 1.0; optimisation: Connected Rails"},"scene":0,"scenes":[{"nodes":[0,1,2,3]}],"nodes":[{"name":"crown_LOD0","mesh":0},{"name":"crown_LOD1","mesh":1},{"name":"crown_LOD2","mesh":2},{"name":"crown_LOD3","mesh":3}],"meshes":[{"name":"crown_LOD0","primitives":[{"attributes":{"POSITION":0,"NORMAL":1,"TEXCOORD_0":2},"indices":3,"material":0},{"attributes":{"POSITION":4,"NORMAL":5,"TEXCOORD_0":6},"indices":7,"material":1}]},{"name":"crown_LOD1","primitives":[{"attributes":{"POSITION":8,"NORMAL":9,"TEXCOORD_0":10},"indices":11,"material":0},{"attributes":{"POSITION":12,"NORMAL":13,"TEXCOORD_0":14},"indices":15,"material":1}]},{"name":"crown_LOD2","primitives":[{"attributes":{"POSITION":16,"NORMAL":17,"TEXCOORD_0":18},"indices":19,"material":2}]},{"name":"crown_LOD3","primitives":[{"attributes":{"POSITION":20,"NORMAL":21,"TEXCOORD_0":22},"indices":23,"material":2}]}],"buffers":[{"uri":"fichte_b.bin","byteLength":8868688}],"bufferViews":[{"buffer":0,"byteOffset":0,"byteLength":493800,"target":34962},{"buffer":0,"byteOffset":493800,"byteLength":493800,"target":34962},{"buffer":0,"byteOffset":987600,"byteLength":329200,"target":34962},{"buffer":0,"byteOffset":1316800,"byteLength":477492,"target":34963},{"buffer":0,"byteOffset":1794292,"byteLength":1479000,"target":34962},{"buffer":0,"byteOffset":3273292,"byteLength":1479000,"target":34962},{"buffer":0,"byteOffset":4752292,"byteLength":986000,"target":34962},{"buffer":0,"byteOffset":5738292,"byteLength":1151964,"target":34963},{"buffer":0,"byteOffset":6890256,"byteLength":79344,"target":34962},{"buffer":0,"byteOffset":6969600,"byteLength":79344,"target":34962},{"buffer":0,"byteOffset":7048944,"byteLength":52896,"target":34962},{"buffer":0,"byteOffset":7101840,"byteLength":66180,"target":34963},{"buffer":0,"byteOffset":7168020,"byteLength":556440,"target":34962},{"buffer":0,"byteOffset":7724460,"byteLength":556440,"target":34962},{"buffer":0,"byteOffset":8280900,"byteLength":370960,"target":34962},{"buffer":0,"byteOffset":8651860,"byteLength":215988,"target":34963},{"buffer":0,"byteOffset":8867848,"byteLength":192,"target":34962},{"buffer":0,"byteOffset":8868040,"byteLength":192,"target":34962},{"buffer":0,"byteOffset":8868232,"byteLength":128,"target":34962},{"buffer":0,"byteOffset":8868360,"byteLength":48,"target":34963},{"buffer":0,"byteOffset":8868408,"byteLength":96,"target":34962},{"buffer":0,"byteOffset":8868504,"byteLength":96,"target":34962},{"buffer":0,"byteOffset":8868600,"byteLength":64,"target":34962},{"buffer":0,"byteOffset":8868664,"byteLength":24,"target":34963}],"accessors":[{"bufferView":0,"componentType":5126,"count":41150,"type":"VEC3","min":[-5.1143445187394905,0.0,-5.673723445705432],"max":[5.070370590404052,30.823328443512732,5.639451430309769]},{"bufferView":1,"componentType":5126,"count":41150,"type":"VEC3","min":[-0.9999581575393677,-0.9981673359870911,-0.9999815225601196],"max":[0.9999951124191284,0.9999915957450867,0.9999951124191284]},{"bufferView":2,"componentType":5126,"count":41150,"type":"VEC2"},{"bufferView":3,"componentType":5123,"count":238746,"type":"SCALAR","min":[0],"max":[41149]},{"bufferView":4,"componentType":5126,"count":123250,"type":"VEC3","min":[-5.924010753631592,9.188446998596191,-6.554718494415283],"max":[6.2272796630859375,31.975616455078125,6.654957294464111]},{"bufferView":5,"componentType":5126,"count":123250,"type":"VEC3","min":[-0.9999477863311768,-0.9999954700469971,-0.999971866607666],"max":[0.999995768070221,0.9999731779098511,0.9999761581420898]},{"bufferView":6,"componentType":5126,"count":123250,"type":"VEC2"},{"bufferView":7,"componentType":5125,"count":287991,"type":"SCALAR","min":[0],"max":[123249]},{"bufferView":8,"componentType":5126,"count":6612,"type":"VEC3","min":[-5.1155814623785565,-0.0017597425595360112,-5.673723445705432],"max":[5.070429845189158,30.823328443512732,5.639451430309769]},{"bufferView":9,"componentType":5126,"count":6612,"type":"VEC3","min":[-0.9999682307243347,-0.9982614517211914,-0.9998639822006226],"max":[0.9999749660491943,0.9998536705970764,0.9999809861183167]},{"bufferView":10,"componentType":5126,"count":6612,"type":"VEC2"},{"bufferView":11,"componentType":5123,"count":33090,"type":"SCALAR","min":[0],"max":[6611]},{"bufferView":12,"componentType":5126,"count":46370,"type":"VEC3","min":[-5.965630054473877,9.335835456848145,-6.484217166900635],"max":[6.0273566246032715,31.81818962097168,6.660132884979248]},{"bufferView":13,"componentType":5126,"count":46370,"type":"VEC3","min":[-0.9999350905418396,-0.9999954700469971,-0.999971866607666],"max":[0.999995768070221,0.9999426603317261,0.9999761581420898]},{"bufferView":14,"componentType":5126,"count":46370,"type":"VEC2"},{"bufferView":15,"componentType":5123,"count":107994,"type":"SCALAR","min":[0],"max":[46369]},{"bufferView":16,"componentType":5126,"count":16,"type":"VEC3","min":[-7.392,0,-7.392],"max":[7.392,32.0,7.392]},{"bufferView":17,"componentType":5126,"count":16,"type":"VEC3","min":[-1.0,0,-0.7071067811865475],"max":[-0.0,0,1.0]},{"bufferView":18,"componentType":5126,"count":16,"type":"VEC2"},{"bufferView":19,"componentType":5123,"count":24,"type":"SCALAR","min":[0],"max":[15]},{"bufferView":20,"componentType":5126,"count":8,"type":"VEC3","min":[-7.392,0,-7.392],"max":[7.392,32.0,7.392]},{"bufferView":21,"componentType":5126,"count":8,"type":"VEC3","min":[-1.0,0,6.123233995736766e-17],"max":[-0.0,0,1.0]},{"bufferView":22,"componentType":5126,"count":8,"type":"VEC2"},{"bufferView":23,"componentType":5123,"count":12,"type":"SCALAR","min":[0],"max":[7]}],"samplers":[{"magFilter":9729,"minFilter":9987,"wrapS":10497,"wrapT":10497}],"images":[{"uri":"textures/poly_fir_bark.jpg"},{"uri":"textures/poly_fir_foliage.png"},{"uri":"impostors/fichte_b_summer.png"}],"textures":[{"source":0,"sampler":0},{"source":1,"sampler":0},{"source":2,"sampler":0}],"materials":[{"name":"bark","pbrMetallicRoughness":{"baseColorFactor":[0.82,0.82,0.82,1.0],"baseColorTexture":{"index":0},"metallicFactor":0.0,"roughnessFactor":0.91},"doubleSided":false},{"name":"foliage","pbrMetallicRoughness":{"baseColorFactor":[0.5672549019607843,1.0,0.7272549019607844,1.0],"baseColorTexture":{"index":1},"metallicFactor":0.0,"roughnessFactor":0.78},"doubleSided":true,"alphaMode":"MASK","alphaCutoff":0.18},{"name":"whole_tree_impostor","pbrMetallicRoughness":{"baseColorFactor":[1,1,1,1],"baseColorTexture":{"index":2},"metallicFactor":0.0,"roughnessFactor":0.92},"doubleSided":true,"alphaMode":"MASK","alphaCutoff":0.18}]}