{"asset":{"version":"2.0","generator":"Connected Rails CC0 tree importer","copyright":"Mantissa and Poly Haven source models: CC0 1.0; optimisation: Connected Rails"},"scene":0,"scenes":[{"nodes":[0,1,2,3]}],"nodes":[{"name":"crown_LOD0","mesh":0},{"name":"crown_LOD1","mesh":1},{"name":"crown_LOD2","mesh":2},{"name":"crown_LOD3","mesh":3}],"meshes":[{"name":"crown_LOD0","primitives":[{"attributes":{"POSITION":0,"NORMAL":1,"TEXCOORD_0":2},"indices":3,"material":0},{"attributes":{"POSITION":4,"NORMAL":5,"TEXCOORD_0":6},"indices":7,"material":1}]},{"name":"crown_LOD1","primitives":[{"attributes":{"POSITION":8,"NORMAL":9,"TEXCOORD_0":10},"indices":11,"material":0},{"attributes":{"POSITION":12,"NORMAL":13,"TEXCOORD_0":14},"indices":15,"material":1}]},{"name":"crown_LOD2","primitives":[{"attributes":{"POSITION":16,"NORMAL":17,"TEXCOORD_0":18},"indices":19,"material":2}]},{"name":"crown_LOD3","primitives":[{"attributes":{"POSITION":20,"NORMAL":21,"TEXCOORD_0":22},"indices":23,"material":2}]}],"buffers":[{"uri":"fichte_a.bin","byteLength":9070816}],"bufferViews":[{"buffer":0,"byteOffset":0,"byteLength":509028,"target":34962},{"buffer":0,"byteOffset":509028,"byteLength":509028,"target":34962},{"buffer":0,"byteOffset":1018056,"byteLength":339352,"target":34962},{"buffer":0,"byteOffset":1357408,"byteLength":477762,"target":34963},{"buffer":0,"byteOffset":1835172,"byteLength":1498260,"target":34962},{"buffer":0,"byteOffset":3333432,"byteLength":1498260,"target":34962},{"buffer":0,"byteOffset":4831692,"byteLength":998840,"target":34962},{"buffer":0,"byteOffset":5830532,"byteLength":1151988,"target":34963},{"buffer":0,"byteOffset":6982520,"byteLength":110328,"target":34962},{"buffer":0,"byteOffset":7092848,"byteLength":110328,"target":34962},{"buffer":0,"byteOffset":7203176,"byteLength":73552,"target":34962},{"buffer":0,"byteOffset":7276728,"byteLength":85362,"target":34963},{"buffer":0,"byteOffset":7362092,"byteLength":560496,"target":34962},{"buffer":0,"byteOffset":7922588,"byteLength":560496,"target":34962},{"buffer":0,"byteOffset":8483084,"byteLength":373664,"target":34962},{"buffer":0,"byteOffset":8856748,"byteLength":213228,"target":34963},{"buffer":0,"byteOffset":9069976,"byteLength":192,"target":34962},{"buffer":0,"byteOffset":9070168,"byteLength":192,"target":34962},{"buffer":0,"byteOffset":9070360,"byteLength":128,"target":34962},{"buffer":0,"byteOffset":9070488,"byteLength":48,"target":34963},{"buffer":0,"byteOffset":9070536,"byteLength":96,"target":34962},{"buffer":0,"byteOffset":9070632,"byteLength":96,"target":34962},{"buffer":0,"byteOffset":9070728,"byteLength":64,"target":34962},{"buffer":0,"byteOffset":9070792,"byteLength":24,"target":34963}],"accessors":[{"bufferView":0,"componentType":5126,"count":42419,"type":"VEC3","min":[-4.548670065091492,0.0,-4.467591885568938],"max":[4.580198398396302,25.41702732117443,4.398364873532261]},{"bufferView":1,"componentType":5126,"count":42419,"type":"VEC3","min":[-0.9999806880950928,-0.9995485544204712,-0.9999940395355225],"max":[0.9999868273735046,0.9999984502792358,0.9999820590019226]},{"bufferView":2,"componentType":5126,"count":42419,"type":"VEC2"},{"bufferView":3,"componentType":5123,"count":238881,"type":"SCALAR","min":[0],"max":[42418]},{"bufferView":4,"componentType":5126,"count":124855,"type":"VEC3","min":[-5.432931900024414,8.19370174407959,-5.189237594604492],"max":[5.350698471069336,25.924144744873047,5.364060878753662]},{"bufferView":5,"componentType":5126,"count":124855,"type":"VEC3","min":[-0.9999781847000122,-0.9999990463256836,-0.999993085861206],"max":[0.999998152256012,0.9999538660049438,0.9999827146530151]},{"bufferView":6,"componentType":5126,"count":124855,"type":"VEC2"},{"bufferView":7,"componentType":5125,"count":287997,"type":"SCALAR","min":[0],"max":[124854]},{"bufferView":8,"componentType":5126,"count":9194,"type":"VEC3","min":[-4.548920704243808,-6.4997820525836935e-06,-4.470574451634261],"max":[4.580198398396302,25.41541054389133,4.398364873532261]},{"bufferView":9,"componentType":5126,"count":9194,"type":"VEC3","min":[-0.9999431371688843,-0.9992057681083679,-0.9998224973678589],"max":[0.9999263882637024,0.9998568296432495,0.9998989105224609]},{"bufferView":10,"componentType":5126,"count":9194,"type":"VEC2"},{"bufferView":11,"componentType":5123,"count":42681,"type":"SCALAR","min":[0],"max":[9193]},{"bufferView":12,"componentType":5126,"count":46708,"type":"VEC3","min":[-5.445906162261963,8.207331657409668,-5.107743263244629],"max":[5.291136264801025,25.93621826171875,5.3698410987854]},{"bufferView":13,"componentType":5126,"count":46708,"type":"VEC3","min":[-0.9997832775115967,-0.9999990463256836,-0.9998273253440857],"max":[0.9997382164001465,0.9999538660049438,0.9999827146530151]},{"bufferView":14,"componentType":5126,"count":46708,"type":"VEC2"},{"bufferView":15,"componentType":5123,"count":106614,"type":"SCALAR","min":[0],"max":[46707]},{"bufferView":16,"componentType":5126,"count":16,"type":"VEC3","min":[-6.006,0,-6.006],"max":[6.006,26.0,6.006]},{"bufferView":17,"componentType":5126,"count":16,"type":"VEC3","min":[-1.0,0,-0.7071067811865475],"max":[-0.0,0,1.0]},{"bufferView":18,"componentType":5126,"count":16,"type":"VEC2"},{"bufferView":19,"componentType":5123,"count":24,"type":"SCALAR","min":[0],"max":[15]},{"bufferView":20,"componentType":5126,"count":8,"type":"VEC3","min":[-6.006,0,-6.006],"max":[6.006,26.0,6.006]},{"bufferView":21,"componentType":5126,"count":8,"type":"VEC3","min":[-1.0,0,6.123233995736766e-17],"max":[-0.0,0,1.0]},{"bufferView":22,"componentType":5126,"count":8,"type":"VEC2"},{"bufferView":23,"componentType":5123,"count":12,"type":"SCALAR","min":[0],"max":[7]}],"samplers":[{"magFilter":9729,"minFilter":9987,"wrapS":10497,"wrapT":10497}],"images":[{"uri":"textures/poly_fir_bark.jpg"},{"uri":"textures/poly_fir_foliage.png"},{"uri":"impostors/fichte_a_winter.png"}],"textures":[{"source":0,"sampler":0},{"source":1,"sampler":0},{"source":2,"sampler":0}],"materials":[{"name":"bark","pbrMetallicRoughness":{"baseColorFactor":[0.82,0.82,0.82,1.0],"baseColorTexture":{"index":0},"metallicFactor":0.0,"roughnessFactor":0.91},"doubleSided":false},{"name":"foliage","pbrMetallicRoughness":{"baseColorFactor":[0.6239803921568629,1.0,0.7999803921568629,1.0],"baseColorTexture":{"index":1},"metallicFactor":0.0,"roughnessFactor":0.78},"doubleSided":true,"alphaMode":"MASK","alphaCutoff":0.18},{"name":"whole_tree_impostor","pbrMetallicRoughness":{"baseColorFactor":[1,1,1,1],"baseColorTexture":{"index":2},"metallicFactor":0.0,"roughnessFactor":0.92},"doubleSided":true,"alphaMode":"MASK","alphaCutoff":0.18}]}