{"asset":{"version":"2.0","generator":"Connected Rails CC0 hedge composer","copyright":"Mantissa and Poly Haven source models: CC0 1.0; hedge composition: Connected Rails"},"scene":0,"scenes":[{"nodes":[0,1,2,3,4,5,6,7,8,9,10,11]}],"nodes":[{"name":"hedge_LOD0","children":[12,20,22,24,36,40,52,54,65,67,73,81,85,91,95,97,99,101,113,123,125,129]},{"name":"hedge_LOD1","children":[13,21,23,25,37,41,53,55,66,68,74,82,86,92,96,98,100,102,114,124,126,130]},{"name":"hedge_LOD2","children":[14,26,38,42,56,69,75,83,87,93,103,115,127,131]},{"name":"hedge_LOD3","children":[15,27,39,43,57,70,76,84,88,94,104,116,128,132]},{"name":"hedge_LOD4","children":[16,28,44,58,71,77,89,105,117,133]},{"name":"hedge_LOD5","children":[17,29,45,59,72,78,90,106,118,134]},{"name":"hedge_LOD6","children":[18,30,46,60,79,107,119,135]},{"name":"hedge_LOD7","children":[19,31,47,61,80,108,120,136]},{"name":"hedge_LOD8","children":[32,48,62,109,121,137]},{"name":"hedge_LOD9","children":[33,49,63,110,122,138]},{"name":"hedge_LOD10","children":[34,50,64,111,139]},{"name":"hedge_LOD11","children":[35,51,112,140]},{"name":"heckenkirsche_a_part_12_LOD0","mesh":1,"translation":[-3.0,-0.0,0.1361405444397884],"rotation":[0.0,-0.04279179033229977,0.0,0.999084011822908],"scale":[0.7909090909090909,1.983639928438761,1.740966983188661]},{"name":"heckenkirsche_a_part_13_LOD1","mesh":1,"translation":[-3.0,-0.0,0.1361405444397884],"rotation":[0.0,-0.04279179033229977,0.0,0.999084011822908],"scale":[0.7909090909090909,1.983639928438761,1.740966983188661]},{"name":"heckenkirsche_a_part_14_LOD2","mesh":1,"translation":[-3.0,-0.0,0.1361405444397884],"rotation":[0.0,-0.04279179033229977,0.0,0.999084011822908],"scale":[0.7909090909090909,1.983639928438761,1.740966983188661]},{"name":"heckenkirsche_a_part_15_LOD3","mesh":1,"translation":[-3.0,-0.0,0.1361405444397884],"rotation":[0.0,-0.04279179033229977,0.0,0.999084011822908],"scale":[0.7909090909090909,1.983639928438761,1.740966983188661]},{"name":"heckenkirsche_a_part_16_LOD4","mesh":1,"translation":[-3.0,-0.0,0.1361405444397884],"rotation":[0.0,-0.04279179033229977,0.0,0.999084011822908],"scale":[0.7909090909090909,1.983639928438761,1.740966983188661]},{"name":"heckenkirsche_a_part_17_LOD5","mesh":1,"translation":[-3.0,-0.0,0.1361405444397884],"rotation":[0.0,-0.04279179033229977,0.0,0.999084011822908],"scale":[0.7909090909090909,1.983639928438761,1.740966983188661]},{"name":"heckenkirsche_a_part_18_LOD6","mesh":1,"translation":[-3.0,-0.0,0.1361405444397884],"rotation":[0.0,-0.04279179033229977,0.0,0.999084011822908],"scale":[0.7909090909090909,1.983639928438761,1.740966983188661]},{"name":"heckenkirsche_a_part_19_LOD7","mesh":1,"translation":[-3.0,-0.0,0.1361405444397884],"rotation":[0.0,-0.04279179033229977,0.0,0.999084011822908],"scale":[0.7909090909090909,1.983639928438761,1.740966983188661]},{"name":"himbeere_b_part_20_LOD0","mesh":5,"translation":[-2.4,-0.0,-0.12500180854514337],"rotation":[0.0,0.0037555892508446295,0.0,0.9999929477498224],"scale":[0.9304812834224598,1.7895792053041002,1.6928083356178467]},{"name":"himbeere_b_part_21_LOD1","mesh":5,"translation":[-2.4,-0.0,-0.12500180854514337],"rotation":[0.0,0.0037555892508446295,0.0,0.9999929477498224],"scale":[0.9304812834224598,1.7895792053041002,1.6928083356178467]},{"name":"berberitze_a_part_22_LOD0","mesh":9,"translation":[-1.8,-0.0,-0.11929428479779025],"rotation":[0.0,0.049880910396197416,0.0,0.9987551725913847],"scale":[0.725,2.0282114655231664,1.4350599549914462]},{"name":"berberitze_a_part_23_LOD1","mesh":9,"translation":[-1.8,-0.0,-0.11929428479779025],"rotation":[0.0,0.049880910396197416,0.0,0.9987551725913847],"scale":[0.725,2.0282114655231664,1.4350599549914462]},{"name":"heckenkirsche_a_part_24_LOD0","mesh":1,"translation":[-1.2000000000000002,-0.0,-0.028197830211933117],"rotation":[0.0,-0.06677155895331512,0.0,0.9977682891909042],"scale":[0.7909090909090909,2.0605868860368823,1.9155975999351185]},{"name":"heckenkirsche_a_part_25_LOD1","mesh":1,"translation":[-1.2000000000000002,-0.0,-0.028197830211933117],"rotation":[0.0,-0.06677155895331512,0.0,0.9977682891909042],"scale":[0.7909090909090909,2.0605868860368823,1.9155975999351185]},{"name":"heckenkirsche_a_part_26_LOD2","mesh":1,"translation":[-1.2000000000000002,-0.0,-0.028197830211933117],"rotation":[0.0,-0.06677155895331512,0.0,0.9977682891909042],"scale":[0.7909090909090909,2.0605868860368823,1.9155975999351185]},{"name":"heckenkirsche_a_part_27_LOD3","mesh":1,"translation":[-1.2000000000000002,-0.0,-0.028197830211933117],"rotation":[0.0,-0.06677155895331512,0.0,0.9977682891909042],"scale":[0.7909090909090909,2.0605868860368823,1.9155975999351185]},{"name":"heckenkirsche_a_part_28_LOD4","mesh":1,"translation":[-1.2000000000000002,-0.0,-0.028197830211933117],"rotation":[0.0,-0.06677155895331512,0.0,0.9977682891909042],"scale":[0.7909090909090909,2.0605868860368823,1.9155975999351185]},{"name":"heckenkirsche_a_part_29_LOD5","mesh":1,"translation":[-1.2000000000000002,-0.0,-0.028197830211933117],"rotation":[0.0,-0.06677155895331512,0.0,0.9977682891909042],"scale":[0.7909090909090909,2.0605868860368823,1.9155975999351185]},{"name":"heckenkirsche_a_part_30_LOD6","mesh":1,"translation":[-1.2000000000000002,-0.0,-0.028197830211933117],"rotation":[0.0,-0.06677155895331512,0.0,0.9977682891909042],"scale":[0.7909090909090909,2.0605868860368823,1.9155975999351185]},{"name":"heckenkirsche_a_part_31_LOD7","mesh":1,"translation":[-1.2000000000000002,-0.0,-0.028197830211933117],"rotation":[0.0,-0.06677155895331512,0.0,0.9977682891909042],"scale":[0.7909090909090909,2.0605868860368823,1.9155975999351185]},{"name":"heckenkirsche_a_part_32_LOD8","mesh":1,"translation":[-1.2000000000000002,-0.0,-0.028197830211933117],"rotation":[0.0,-0.06677155895331512,0.0,0.9977682891909042],"scale":[0.7909090909090909,2.0605868860368823,1.9155975999351185]},{"name":"heckenkirsche_a_part_33_LOD9","mesh":1,"translation":[-1.2000000000000002,-0.0,-0.028197830211933117],"rotation":[0.0,-0.06677155895331512,0.0,0.9977682891909042],"scale":[0.7909090909090909,2.0605868860368823,1.9155975999351185]},{"name":"heckenkirsche_a_part_34_LOD10","mesh":1,"translation":[-1.2000000000000002,-0.0,-0.028197830211933117],"rotation":[0.0,-0.06677155895331512,0.0,0.9977682891909042],"scale":[0.7909090909090909,2.0605868860368823,1.9155975999351185]},{"name":"heckenkirsche_a_part_35_LOD11","mesh":1,"translation":[-1.2000000000000002,-0.0,-0.028197830211933117],"rotation":[0.0,-0.06677155895331512,0.0,0.9977682891909042],"scale":[0.7909090909090909,2.0605868860368823,1.9155975999351185]},{"name":"himbeere_b_part_36_LOD0","mesh":5,"translation":[-0.6000000000000001,-0.0,0.04902087103385758],"rotation":[0.0,0.014753388549254672,0.0,0.9998911628403937],"scale":[0.9304812834224598,1.8361591729359708,1.6706088333941223]},{"name":"himbeere_b_part_37_LOD1","mesh":5,"translation":[-0.6000000000000001,-0.0,0.04902087103385758],"rotation":[0.0,0.014753388549254672,0.0,0.9998911628403937],"scale":[0.9304812834224598,1.8361591729359708,1.6706088333941223]},{"name":"himbeere_b_part_38_LOD2","mesh":5,"translation":[-0.6000000000000001,-0.0,0.04902087103385758],"rotation":[0.0,0.014753388549254672,0.0,0.9998911628403937],"scale":[0.9304812834224598,1.8361591729359708,1.6706088333941223]},{"name":"himbeere_b_part_39_LOD3","mesh":5,"translation":[-0.6000000000000001,-0.0,0.04902087103385758],"rotation":[0.0,0.014753388549254672,0.0,0.9998911628403937],"scale":[0.9304812834224598,1.8361591729359708,1.6706088333941223]},{"name":"berberitze_a_part_40_LOD0","mesh":9,"translation":[0.0,-0.0,-0.06308314043802785],"rotation":[0.0,-0.05315774934373465,0.0,0.9985861273243829],"scale":[0.725,2.027445437583739,1.5225076566532347]},{"name":"berberitze_a_part_41_LOD1","mesh":9,"translation":[0.0,-0.0,-0.06308314043802785],"rotation":[0.0,-0.05315774934373465,0.0,0.9985861273243829],"scale":[0.725,2.027445437583739,1.5225076566532347]},{"name":"berberitze_a_part_42_LOD2","mesh":9,"translation":[0.0,-0.0,-0.06308314043802785],"rotation":[0.0,-0.05315774934373465,0.0,0.9985861273243829],"scale":[0.725,2.027445437583739,1.5225076566532347]},{"name":"berberitze_a_part_43_LOD3","mesh":9,"translation":[0.0,-0.0,-0.06308314043802785],"rotation":[0.0,-0.05315774934373465,0.0,0.9985861273243829],"scale":[0.725,2.027445437583739,1.5225076566532347]},{"name":"berberitze_a_part_44_LOD4","mesh":9,"translation":[0.0,-0.0,-0.06308314043802785],"rotation":[0.0,-0.05315774934373465,0.0,0.9985861273243829],"scale":[0.725,2.027445437583739,1.5225076566532347]},{"name":"berberitze_a_part_45_LOD5","mesh":9,"translation":[0.0,-0.0,-0.06308314043802785],"rotation":[0.0,-0.05315774934373465,0.0,0.9985861273243829],"scale":[0.725,2.027445437583739,1.5225076566532347]},{"name":"berberitze_a_part_46_LOD6","mesh":9,"translation":[0.0,-0.0,-0.06308314043802785],"rotation":[0.0,-0.05315774934373465,0.0,0.9985861273243829],"scale":[0.725,2.027445437583739,1.5225076566532347]},{"name":"berberitze_a_part_47_LOD7","mesh":9,"translation":[0.0,-0.0,-0.06308314043802785],"rotation":[0.0,-0.05315774934373465,0.0,0.9985861273243829],"scale":[0.725,2.027445437583739,1.5225076566532347]},{"name":"berberitze_a_part_48_LOD8","mesh":9,"translation":[0.0,-0.0,-0.06308314043802785],"rotation":[0.0,-0.05315774934373465,0.0,0.9985861273243829],"scale":[0.725,2.027445437583739,1.5225076566532347]},{"name":"berberitze_a_part_49_LOD9","mesh":9,"translation":[0.0,-0.0,-0.06308314043802785],"rotation":[0.0,-0.05315774934373465,0.0,0.9985861273243829],"scale":[0.725,2.027445437583739,1.5225076566532347]},{"name":"berberitze_a_part_50_LOD10","mesh":9,"translation":[0.0,-0.0,-0.06308314043802785],"rotation":[0.0,-0.05315774934373465,0.0,0.9985861273243829],"scale":[0.725,2.027445437583739,1.5225076566532347]},{"name":"berberitze_a_part_51_LOD11","mesh":9,"translation":[0.0,-0.0,-0.06308314043802785],"rotation":[0.0,-0.05315774934373465,0.0,0.9985861273243829],"scale":[0.725,2.027445437583739,1.5225076566532347]},{"name":"heckenkirsche_a_part_52_LOD0","mesh":1,"translation":[0.5999999999999996,-0.0,-0.040088776157441525],"rotation":[0.0,0.06664113638570687,0.0,0.9977770086252847],"scale":[0.7909090909090909,1.9979154805462616,1.9166671645410733]},{"name":"heckenkirsche_a_part_53_LOD1","mesh":1,"translation":[0.5999999999999996,-0.0,-0.040088776157441525],"rotation":[0.0,0.06664113638570687,0.0,0.9977770086252847],"scale":[0.7909090909090909,1.9979154805462616,1.9166671645410733]},{"name":"himbeere_b_part_54_LOD0","mesh":5,"translation":[1.2000000000000002,-0.0,0.07082471074729901],"rotation":[0.0,-0.04700801436331445,0.0,0.9988945122412168],"scale":[0.9304812834224598,1.84574399201277,1.4773031445258529]},{"name":"himbeere_b_part_55_LOD1","mesh":5,"translation":[1.2000000000000002,-0.0,0.07082471074729901],"rotation":[0.0,-0.04700801436331445,0.0,0.9988945122412168],"scale":[0.9304812834224598,1.84574399201277,1.4773031445258529]},{"name":"himbeere_b_part_56_LOD2","mesh":5,"translation":[1.2000000000000002,-0.0,0.07082471074729901],"rotation":[0.0,-0.04700801436331445,0.0,0.9988945122412168],"scale":[0.9304812834224598,1.84574399201277,1.4773031445258529]},{"name":"himbeere_b_part_57_LOD3","mesh":5,"translation":[1.2000000000000002,-0.0,0.07082471074729901],"rotation":[0.0,-0.04700801436331445,0.0,0.9988945122412168],"scale":[0.9304812834224598,1.84574399201277,1.4773031445258529]},{"name":"himbeere_b_part_58_LOD4","mesh":5,"translation":[1.2000000000000002,-0.0,0.07082471074729901],"rotation":[0.0,-0.04700801436331445,0.0,0.9988945122412168],"scale":[0.9304812834224598,1.84574399201277,1.4773031445258529]},{"name":"himbeere_b_part_59_LOD5","mesh":5,"translation":[1.2000000000000002,-0.0,0.07082471074729901],"rotation":[0.0,-0.04700801436331445,0.0,0.9988945122412168],"scale":[0.9304812834224598,1.84574399201277,1.4773031445258529]},{"name":"himbeere_b_part_60_LOD6","mesh":5,"translation":[1.2000000000000002,-0.0,0.07082471074729901],"rotation":[0.0,-0.04700801436331445,0.0,0.9988945122412168],"scale":[0.9304812834224598,1.84574399201277,1.4773031445258529]},{"name":"himbeere_b_part_61_LOD7","mesh":5,"translation":[1.2000000000000002,-0.0,0.07082471074729901],"rotation":[0.0,-0.04700801436331445,0.0,0.9988945122412168],"scale":[0.9304812834224598,1.84574399201277,1.4773031445258529]},{"name":"himbeere_b_part_62_LOD8","mesh":5,"translation":[1.2000000000000002,-0.0,0.07082471074729901],"rotation":[0.0,-0.04700801436331445,0.0,0.9988945122412168],"scale":[0.9304812834224598,1.84574399201277,1.4773031445258529]},{"name":"himbeere_b_part_63_LOD9","mesh":5,"translation":[1.2000000000000002,-0.0,0.07082471074729901],"rotation":[0.0,-0.04700801436331445,0.0,0.9988945122412168],"scale":[0.9304812834224598,1.84574399201277,1.4773031445258529]},{"name":"himbeere_b_part_64_LOD10","mesh":5,"translation":[1.2000000000000002,-0.0,0.07082471074729901],"rotation":[0.0,-0.04700801436331445,0.0,0.9988945122412168],"scale":[0.9304812834224598,1.84574399201277,1.4773031445258529]},{"name":"berberitze_a_part_65_LOD0","mesh":9,"translation":[1.7999999999999998,-0.0,-0.11541671494984866],"rotation":[0.0,0.02909493890262514,0.0,0.9995766526536384],"scale":[0.725,1.9352340214439856,1.713861942787641]},{"name":"berberitze_a_part_66_LOD1","mesh":9,"translation":[1.7999999999999998,-0.0,-0.11541671494984866],"rotation":[0.0,0.02909493890262514,0.0,0.9995766526536384],"scale":[0.725,1.9352340214439856,1.713861942787641]},{"name":"heckenkirsche_a_part_67_LOD0","mesh":1,"translation":[2.3999999999999995,-0.0,-0.11120010479540977],"rotation":[0.0,-0.0391263945643789,0.0,0.9992342694525607],"scale":[0.7909090909090909,2.0650124560960528,1.519236315106648]},{"name":"heckenkirsche_a_part_68_LOD1","mesh":1,"translation":[2.3999999999999995,-0.0,-0.11120010479540977],"rotation":[0.0,-0.0391263945643789,0.0,0.9992342694525607],"scale":[0.7909090909090909,2.0650124560960528,1.519236315106648]},{"name":"heckenkirsche_a_part_69_LOD2","mesh":1,"translation":[2.3999999999999995,-0.0,-0.11120010479540977],"rotation":[0.0,-0.0391263945643789,0.0,0.9992342694525607],"scale":[0.7909090909090909,2.0650124560960528,1.519236315106648]},{"name":"heckenkirsche_a_part_70_LOD3","mesh":1,"translation":[2.3999999999999995,-0.0,-0.11120010479540977],"rotation":[0.0,-0.0391263945643789,0.0,0.9992342694525607],"scale":[0.7909090909090909,2.0650124560960528,1.519236315106648]},{"name":"heckenkirsche_a_part_71_LOD4","mesh":1,"translation":[2.3999999999999995,-0.0,-0.11120010479540977],"rotation":[0.0,-0.0391263945643789,0.0,0.9992342694525607],"scale":[0.7909090909090909,2.0650124560960528,1.519236315106648]},{"name":"heckenkirsche_a_part_72_LOD5","mesh":1,"translation":[2.3999999999999995,-0.0,-0.11120010479540977],"rotation":[0.0,-0.0391263945643789,0.0,0.9992342694525607],"scale":[0.7909090909090909,2.0650124560960528,1.519236315106648]},{"name":"himbeere_b_part_73_LOD0","mesh":5,"translation":[3.0,-0.0,0.051675450707048265],"rotation":[0.0,-0.056557478286774814,0.0,0.998399344776348],"scale":[0.9304812834224598,1.8153334956311569,1.4053563191359122]},{"name":"himbeere_b_part_74_LOD1","mesh":5,"translation":[3.0,-0.0,0.051675450707048265],"rotation":[0.0,-0.056557478286774814,0.0,0.998399344776348],"scale":[0.9304812834224598,1.8153334956311569,1.4053563191359122]},{"name":"himbeere_b_part_75_LOD2","mesh":5,"translation":[3.0,-0.0,0.051675450707048265],"rotation":[0.0,-0.056557478286774814,0.0,0.998399344776348],"scale":[0.9304812834224598,1.8153334956311569,1.4053563191359122]},{"name":"himbeere_b_part_76_LOD3","mesh":5,"translation":[3.0,-0.0,0.051675450707048265],"rotation":[0.0,-0.056557478286774814,0.0,0.998399344776348],"scale":[0.9304812834224598,1.8153334956311569,1.4053563191359122]},{"name":"himbeere_b_part_77_LOD4","mesh":5,"translation":[3.0,-0.0,0.051675450707048265],"rotation":[0.0,-0.056557478286774814,0.0,0.998399344776348],"scale":[0.9304812834224598,1.8153334956311569,1.4053563191359122]},{"name":"himbeere_b_part_78_LOD5","mesh":5,"translation":[3.0,-0.0,0.051675450707048265],"rotation":[0.0,-0.056557478286774814,0.0,0.998399344776348],"scale":[0.9304812834224598,1.8153334956311569,1.4053563191359122]},{"name":"himbeere_b_part_79_LOD6","mesh":5,"translation":[3.0,-0.0,0.051675450707048265],"rotation":[0.0,-0.056557478286774814,0.0,0.998399344776348],"scale":[0.9304812834224598,1.8153334956311569,1.4053563191359122]},{"name":"himbeere_b_part_80_LOD7","mesh":5,"translation":[3.0,-0.0,0.051675450707048265],"rotation":[0.0,-0.056557478286774814,0.0,0.998399344776348],"scale":[0.9304812834224598,1.8153334956311569,1.4053563191359122]},{"name":"himbeere_b_part_81_LOD0","mesh":5,"translation":[-2.7,-0.0,-0.20732031528194886],"rotation":[0.0,0.08784777776269698,0.0,0.9961339106476377],"scale":[0.9946524064171122,1.0304377462064445,1.716290400096245]},{"name":"himbeere_b_part_82_LOD1","mesh":5,"translation":[-2.7,-0.0,-0.20732031528194886],"rotation":[0.0,0.08784777776269698,0.0,0.9961339106476377],"scale":[0.9946524064171122,1.0304377462064445,1.716290400096245]},{"name":"himbeere_b_part_83_LOD2","mesh":5,"translation":[-2.7,-0.0,-0.20732031528194886],"rotation":[0.0,0.08784777776269698,0.0,0.9961339106476377],"scale":[0.9946524064171122,1.0304377462064445,1.716290400096245]},{"name":"himbeere_b_part_84_LOD3","mesh":5,"translation":[-2.7,-0.0,-0.20732031528194886],"rotation":[0.0,0.08784777776269698,0.0,0.9961339106476377],"scale":[0.9946524064171122,1.0304377462064445,1.716290400096245]},{"name":"berberitze_a_part_85_LOD0","mesh":9,"translation":[-2.1,-0.0,-0.16714334491923716],"rotation":[0.0,0.010191456954978284,0.0,0.9999480657539844],"scale":[0.775,1.183607326123616,1.584200655970427]},{"name":"berberitze_a_part_86_LOD1","mesh":9,"translation":[-2.1,-0.0,-0.16714334491923716],"rotation":[0.0,0.010191456954978284,0.0,0.9999480657539844],"scale":[0.775,1.183607326123616,1.584200655970427]},{"name":"berberitze_a_part_87_LOD2","mesh":9,"translation":[-2.1,-0.0,-0.16714334491923716],"rotation":[0.0,0.010191456954978284,0.0,0.9999480657539844],"scale":[0.775,1.183607326123616,1.584200655970427]},{"name":"berberitze_a_part_88_LOD3","mesh":9,"translation":[-2.1,-0.0,-0.16714334491923716],"rotation":[0.0,0.010191456954978284,0.0,0.9999480657539844],"scale":[0.775,1.183607326123616,1.584200655970427]},{"name":"berberitze_a_part_89_LOD4","mesh":9,"translation":[-2.1,-0.0,-0.16714334491923716],"rotation":[0.0,0.010191456954978284,0.0,0.9999480657539844],"scale":[0.775,1.183607326123616,1.584200655970427]},{"name":"berberitze_a_part_90_LOD5","mesh":9,"translation":[-2.1,-0.0,-0.16714334491923716],"rotation":[0.0,0.010191456954978284,0.0,0.9999480657539844],"scale":[0.775,1.183607326123616,1.584200655970427]},{"name":"heckenkirsche_a_part_91_LOD0","mesh":1,"translation":[-1.5,-0.0,0.03982278758712887],"rotation":[0.0,-0.10041989613639954,0.0,0.9949451464578108],"scale":[0.8454545454545453,1.2762948735949697,1.6550408155810876]},{"name":"heckenkirsche_a_part_92_LOD1","mesh":1,"translation":[-1.5,-0.0,0.03982278758712887],"rotation":[0.0,-0.10041989613639954,0.0,0.9949451464578108],"scale":[0.8454545454545453,1.2762948735949697,1.6550408155810876]},{"name":"heckenkirsche_a_part_93_LOD2","mesh":1,"translation":[-1.5,-0.0,0.03982278758712887],"rotation":[0.0,-0.10041989613639954,0.0,0.9949451464578108],"scale":[0.8454545454545453,1.2762948735949697,1.6550408155810876]},{"name":"heckenkirsche_a_part_94_LOD3","mesh":1,"translation":[-1.5,-0.0,0.03982278758712887],"rotation":[0.0,-0.10041989613639954,0.0,0.9949451464578108],"scale":[0.8454545454545453,1.2762948735949697,1.6550408155810876]},{"name":"himbeere_b_part_95_LOD0","mesh":5,"translation":[-0.8999999999999999,-0.0,0.10626104033083367],"rotation":[0.0,-0.023866649370583692,0.0,0.9997151509544214],"scale":[0.9946524064171122,1.0476658419578058,1.6239567385803473]},{"name":"himbeere_b_part_96_LOD1","mesh":5,"translation":[-0.8999999999999999,-0.0,0.10626104033083367],"rotation":[0.0,-0.023866649370583692,0.0,0.9997151509544214],"scale":[0.9946524064171122,1.0476658419578058,1.6239567385803473]},{"name":"berberitze_a_part_97_LOD0","mesh":9,"translation":[-0.30000000000000027,-0.0,0.09501993332381975],"rotation":[0.0,-0.07166720712218567,0.0,0.9974285996618032],"scale":[0.775,1.2765508492525068,1.5791272285344218]},{"name":"berberitze_a_part_98_LOD1","mesh":9,"translation":[-0.30000000000000027,-0.0,0.09501993332381975],"rotation":[0.0,-0.07166720712218567,0.0,0.9974285996618032],"scale":[0.775,1.2765508492525068,1.5791272285344218]},{"name":"heckenkirsche_a_part_99_LOD0","mesh":1,"translation":[0.2999999999999998,-0.0,-0.24783684965266756],"rotation":[0.0,-0.10095469578683389,0.0,0.9948910238808006],"scale":[0.8454545454545453,1.2177114891600018,1.7749282112619906]},{"name":"heckenkirsche_a_part_100_LOD1","mesh":1,"translation":[0.2999999999999998,-0.0,-0.24783684965266756],"rotation":[0.0,-0.10095469578683389,0.0,0.9948910238808006],"scale":[0.8454545454545453,1.2177114891600018,1.7749282112619906]},{"name":"himbeere_b_part_101_LOD0","mesh":5,"translation":[0.8999999999999999,-0.0,0.09704948250000772],"rotation":[0.0,0.07122053671028335,0.0,0.9974605932821101],"scale":[0.9946524064171122,1.0203932530669857,1.398741254408238]},{"name":"himbeere_b_part_102_LOD1","mesh":5,"translation":[0.8999999999999999,-0.0,0.09704948250000772],"rotation":[0.0,0.07122053671028335,0.0,0.9974605932821101],"scale":[0.9946524064171122,1.0203932530669857,1.398741254408238]},{"name":"himbeere_b_part_103_LOD2","mesh":5,"translation":[0.8999999999999999,-0.0,0.09704948250000772],"rotation":[0.0,0.07122053671028335,0.0,0.9974605932821101],"scale":[0.9946524064171122,1.0203932530669857,1.398741254408238]},{"name":"himbeere_b_part_104_LOD3","mesh":5,"translation":[0.8999999999999999,-0.0,0.09704948250000772],"rotation":[0.0,0.07122053671028335,0.0,0.9974605932821101],"scale":[0.9946524064171122,1.0203932530669857,1.398741254408238]},{"name":"himbeere_b_part_105_LOD4","mesh":5,"translation":[0.8999999999999999,-0.0,0.09704948250000772],"rotation":[0.0,0.07122053671028335,0.0,0.9974605932821101],"scale":[0.9946524064171122,1.0203932530669857,1.398741254408238]},{"name":"himbeere_b_part_106_LOD5","mesh":5,"translation":[0.8999999999999999,-0.0,0.09704948250000772],"rotation":[0.0,0.07122053671028335,0.0,0.9974605932821101],"scale":[0.9946524064171122,1.0203932530669857,1.398741254408238]},{"name":"himbeere_b_part_107_LOD6","mesh":5,"translation":[0.8999999999999999,-0.0,0.09704948250000772],"rotation":[0.0,0.07122053671028335,0.0,0.9974605932821101],"scale":[0.9946524064171122,1.0203932530669857,1.398741254408238]},{"name":"himbeere_b_part_108_LOD7","mesh":5,"translation":[0.8999999999999999,-0.0,0.09704948250000772],"rotation":[0.0,0.07122053671028335,0.0,0.9974605932821101],"scale":[0.9946524064171122,1.0203932530669857,1.398741254408238]},{"name":"himbeere_b_part_109_LOD8","mesh":5,"translation":[0.8999999999999999,-0.0,0.09704948250000772],"rotation":[0.0,0.07122053671028335,0.0,0.9974605932821101],"scale":[0.9946524064171122,1.0203932530669857,1.398741254408238]},{"name":"himbeere_b_part_110_LOD9","mesh":5,"translation":[0.8999999999999999,-0.0,0.09704948250000772],"rotation":[0.0,0.07122053671028335,0.0,0.9974605932821101],"scale":[0.9946524064171122,1.0203932530669857,1.398741254408238]},{"name":"himbeere_b_part_111_LOD10","mesh":5,"translation":[0.8999999999999999,-0.0,0.09704948250000772],"rotation":[0.0,0.07122053671028335,0.0,0.9974605932821101],"scale":[0.9946524064171122,1.0203932530669857,1.398741254408238]},{"name":"himbeere_b_part_112_LOD11","mesh":5,"translation":[0.8999999999999999,-0.0,0.09704948250000772],"rotation":[0.0,0.07122053671028335,0.0,0.9974605932821101],"scale":[0.9946524064171122,1.0203932530669857,1.398741254408238]},{"name":"berberitze_a_part_113_LOD0","mesh":9,"translation":[1.5,-0.0,-0.11498917178900675],"rotation":[0.0,0.014508990738204025,0.0,0.999894739053946],"scale":[0.775,1.3500038776048784,1.6824503757882234]},{"name":"berberitze_a_part_114_LOD1","mesh":9,"translation":[1.5,-0.0,-0.11498917178900675],"rotation":[0.0,0.014508990738204025,0.0,0.999894739053946],"scale":[0.775,1.3500038776048784,1.6824503757882234]},{"name":"berberitze_a_part_115_LOD2","mesh":9,"translation":[1.5,-0.0,-0.11498917178900675],"rotation":[0.0,0.014508990738204025,0.0,0.999894739053946],"scale":[0.775,1.3500038776048784,1.6824503757882234]},{"name":"berberitze_a_part_116_LOD3","mesh":9,"translation":[1.5,-0.0,-0.11498917178900675],"rotation":[0.0,0.014508990738204025,0.0,0.999894739053946],"scale":[0.775,1.3500038776048784,1.6824503757882234]},{"name":"berberitze_a_part_117_LOD4","mesh":9,"translation":[1.5,-0.0,-0.11498917178900675],"rotation":[0.0,0.014508990738204025,0.0,0.999894739053946],"scale":[0.775,1.3500038776048784,1.6824503757882234]},{"name":"berberitze_a_part_118_LOD5","mesh":9,"translation":[1.5,-0.0,-0.11498917178900675],"rotation":[0.0,0.014508990738204025,0.0,0.999894739053946],"scale":[0.775,1.3500038776048784,1.6824503757882234]},{"name":"berberitze_a_part_119_LOD6","mesh":9,"translation":[1.5,-0.0,-0.11498917178900675],"rotation":[0.0,0.014508990738204025,0.0,0.999894739053946],"scale":[0.775,1.3500038776048784,1.6824503757882234]},{"name":"berberitze_a_part_120_LOD7","mesh":9,"translation":[1.5,-0.0,-0.11498917178900675],"rotation":[0.0,0.014508990738204025,0.0,0.999894739053946],"scale":[0.775,1.3500038776048784,1.6824503757882234]},{"name":"berberitze_a_part_121_LOD8","mesh":9,"translation":[1.5,-0.0,-0.11498917178900675],"rotation":[0.0,0.014508990738204025,0.0,0.999894739053946],"scale":[0.775,1.3500038776048784,1.6824503757882234]},{"name":"berberitze_a_part_122_LOD9","mesh":9,"translation":[1.5,-0.0,-0.11498917178900675],"rotation":[0.0,0.014508990738204025,0.0,0.999894739053946],"scale":[0.775,1.3500038776048784,1.6824503757882234]},{"name":"heckenkirsche_a_part_123_LOD0","mesh":1,"translation":[2.0999999999999996,-0.0,-0.11398523292546076],"rotation":[0.0,0.05126839304632846,0.0,0.9986849112079581],"scale":[0.8454545454545453,1.3874143177176477,1.622852205063043]},{"name":"heckenkirsche_a_part_124_LOD1","mesh":1,"translation":[2.0999999999999996,-0.0,-0.11398523292546076],"rotation":[0.0,0.05126839304632846,0.0,0.9986849112079581],"scale":[0.8454545454545453,1.3874143177176477,1.622852205063043]},{"name":"himbeere_b_part_125_LOD0","mesh":5,"translation":[2.7,-0.0,-0.021679319425317006],"rotation":[0.0,-0.06987757337835147,0.0,0.9975555747620045],"scale":[0.9946524064171122,1.1120035283041996,1.3708126228078392]},{"name":"himbeere_b_part_126_LOD1","mesh":5,"translation":[2.7,-0.0,-0.021679319425317006],"rotation":[0.0,-0.06987757337835147,0.0,0.9975555747620045],"scale":[0.9946524064171122,1.1120035283041996,1.3708126228078392]},{"name":"himbeere_b_part_127_LOD2","mesh":5,"translation":[2.7,-0.0,-0.021679319425317006],"rotation":[0.0,-0.06987757337835147,0.0,0.9975555747620045],"scale":[0.9946524064171122,1.1120035283041996,1.3708126228078392]},{"name":"himbeere_b_part_128_LOD3","mesh":5,"translation":[2.7,-0.0,-0.021679319425317006],"rotation":[0.0,-0.06987757337835147,0.0,0.9975555747620045],"scale":[0.9946524064171122,1.1120035283041996,1.3708126228078392]},{"name":"leaf_volume_LOD0","mesh":12},{"name":"leaf_volume_LOD1","mesh":13},{"name":"leaf_volume_LOD2","mesh":14},{"name":"leaf_volume_LOD3","mesh":15},{"name":"leaf_volume_LOD4","mesh":16},{"name":"leaf_volume_LOD5","mesh":17},{"name":"leaf_volume_LOD6","mesh":18},{"name":"leaf_volume_LOD7","mesh":19},{"name":"leaf_volume_LOD8","mesh":20},{"name":"leaf_volume_LOD9","mesh":21},{"name":"leaf_volume_LOD10","mesh":22},{"name":"leaf_volume_LOD11","mesh":23}],"meshes":[{"name":"heckenkirsche_a_crown_LOD0","primitives":[{"attributes":{"POSITION":0,"NORMAL":1,"TEXCOORD_0":2},"indices":3,"material":1}]},{"name":"heckenkirsche_a_crown_LOD1","primitives":[{"attributes":{"POSITION":4,"NORMAL":5,"TEXCOORD_0":6},"indices":7,"material":1}]},{"name":"heckenkirsche_a_crown_LOD2","primitives":[{"attributes":{"POSITION":8,"NORMAL":9,"TEXCOORD_0":10},"indices":11,"material":2}]},{"name":"heckenkirsche_a_crown_LOD3","primitives":[{"attributes":{"POSITION":12,"NORMAL":13,"TEXCOORD_0":14},"indices":15,"material":2}]},{"name":"himbeere_b_crown_LOD0","primitives":[{"attributes":{"POSITION":16,"NORMAL":17,"TEXCOORD_0":18},"indices":19,"material":4}]},{"name":"himbeere_b_crown_LOD1","primitives":[{"attributes":{"POSITION":20,"NORMAL":21,"TEXCOORD_0":22},"indices":23,"material":4}]},{"name":"himbeere_b_crown_LOD2","primitives":[{"attributes":{"POSITION":24,"NORMAL":25,"TEXCOORD_0":26},"indices":27,"material":5}]},{"name":"himbeere_b_crown_LOD3","primitives":[{"attributes":{"POSITION":28,"NORMAL":29,"TEXCOORD_0":30},"indices":31,"material":5}]},{"name":"berberitze_a_crown_LOD0","primitives":[{"attributes":{"POSITION":32,"NORMAL":33,"TEXCOORD_0":34},"indices":35,"material":7}]},{"name":"berberitze_a_crown_LOD1","primitives":[{"attributes":{"POSITION":36,"NORMAL":37,"TEXCOORD_0":38},"indices":39,"material":7}]},{"name":"berberitze_a_crown_LOD2","primitives":[{"attributes":{"POSITION":40,"NORMAL":41,"TEXCOORD_0":42},"indices":43,"material":8}]},{"name":"berberitze_a_crown_LOD3","primitives":[{"attributes":{"POSITION":44,"NORMAL":45,"TEXCOORD_0":46},"indices":47,"material":8}]},{"name":"hainbuchenhecke_leaf_volume_LOD0","primitives":[{"attributes":{"POSITION":48,"NORMAL":49,"TEXCOORD_0":50},"indices":51,"material":9}]},{"name":"hainbuchenhecke_leaf_volume_LOD1","primitives":[{"attributes":{"POSITION":52,"NORMAL":53,"TEXCOORD_0":54},"indices":55,"material":10}]},{"name":"hainbuchenhecke_leaf_volume_LOD2","primitives":[{"attributes":{"POSITION":56,"NORMAL":57,"TEXCOORD_0":58},"indices":59,"material":11}]},{"name":"hainbuchenhecke_leaf_volume_LOD3","primitives":[{"attributes":{"POSITION":60,"NORMAL":61,"TEXCOORD_0":62},"indices":63,"material":12}]},{"name":"hainbuchenhecke_leaf_volume_LOD4","primitives":[{"attributes":{"POSITION":64,"NORMAL":65,"TEXCOORD_0":66},"indices":67,"material":13}]},{"name":"hainbuchenhecke_leaf_volume_LOD5","primitives":[{"attributes":{"POSITION":68,"NORMAL":69,"TEXCOORD_0":70},"indices":71,"material":14}]},{"name":"hainbuchenhecke_leaf_volume_LOD6","primitives":[{"attributes":{"POSITION":72,"NORMAL":73,"TEXCOORD_0":74},"indices":75,"material":15}]},{"name":"hainbuchenhecke_leaf_volume_LOD7","primitives":[{"attributes":{"POSITION":76,"NORMAL":77,"TEXCOORD_0":78},"indices":79,"material":16}]},{"name":"hainbuchenhecke_leaf_volume_LOD8","primitives":[{"attributes":{"POSITION":80,"NORMAL":81,"TEXCOORD_0":82},"indices":83,"material":17}]},{"name":"hainbuchenhecke_leaf_volume_LOD9","primitives":[{"attributes":{"POSITION":84,"NORMAL":85,"TEXCOORD_0":86},"indices":87,"material":18}]},{"name":"hainbuchenhecke_leaf_volume_LOD10","primitives":[{"attributes":{"POSITION":88,"NORMAL":89,"TEXCOORD_0":90},"indices":91,"material":19}]},{"name":"hainbuchenhecke_leaf_volume_LOD11","primitives":[{"attributes":{"POSITION":92,"NORMAL":93,"TEXCOORD_0":94},"indices":95,"material":20}]}],"buffers":[{"uri":"heckenkirsche_a.bin","byteLength":494748},{"uri":"himbeere_b.bin","byteLength":184940},{"uri":"berberitze_a.bin","byteLength":494748},{"uri":"hainbuchenhecke_b_hedge.bin","byteLength":8841000}],"bufferViews":[{"buffer":0,"byteOffset":0,"byteLength":105048,"target":34962},{"buffer":0,"byteOffset":105048,"byteLength":105048,"target":34962},{"buffer":0,"byteOffset":210096,"byteLength":70032,"target":34962},{"buffer":0,"byteOffset":280128,"byteLength":43392,"target":34963},{"buffer":0,"byteOffset":323520,"byteLength":56400,"target":34962},{"buffer":0,"byteOffset":379920,"byteLength":56400,"target":34962},{"buffer":0,"byteOffset":436320,"byteLength":37600,"target":34962},{"buffer":0,"byteOffset":473920,"byteLength":19986,"target":34963},{"buffer":0,"byteOffset":493908,"byteLength":192,"target":34962},{"buffer":0,"byteOffset":494100,"byteLength":192,"target":34962},{"buffer":0,"byteOffset":494292,"byteLength":128,"target":34962},{"buffer":0,"byteOffset":494420,"byteLength":48,"target":34963},{"buffer":0,"byteOffset":494468,"byteLength":96,"target":34962},{"buffer":0,"byteOffset":494564,"byteLength":96,"target":34962},{"buffer":0,"byteOffset":494660,"byteLength":64,"target":34962},{"buffer":0,"byteOffset":494724,"byteLength":24,"target":34963},{"buffer":1,"byteOffset":0,"byteLength":44904,"target":34962},{"buffer":1,"byteOffset":44904,"byteLength":44904,"target":34962},{"buffer":1,"byteOffset":89808,"byteLength":29936,"target":34962},{"buffer":1,"byteOffset":119744,"byteLength":36384,"target":34963},{"buffer":1,"byteOffset":156128,"byteLength":8532,"target":34962},{"buffer":1,"byteOffset":164660,"byteLength":8532,"target":34962},{"buffer":1,"byteOffset":173192,"byteLength":5688,"target":34962},{"buffer":1,"byteOffset":178880,"byteLength":5220,"target":34963},{"buffer":1,"byteOffset":184100,"byteLength":192,"target":34962},{"buffer":1,"byteOffset":184292,"byteLength":192,"target":34962},{"buffer":1,"byteOffset":184484,"byteLength":128,"target":34962},{"buffer":1,"byteOffset":184612,"byteLength":48,"target":34963},{"buffer":1,"byteOffset":184660,"byteLength":96,"target":34962},{"buffer":1,"byteOffset":184756,"byteLength":96,"target":34962},{"buffer":1,"byteOffset":184852,"byteLength":64,"target":34962},{"buffer":1,"byteOffset":184916,"byteLength":24,"target":34963},{"buffer":2,"byteOffset":0,"byteLength":105048,"target":34962},{"buffer":2,"byteOffset":105048,"byteLength":105048,"target":34962},{"buffer":2,"byteOffset":210096,"byteLength":70032,"target":34962},{"buffer":2,"byteOffset":280128,"byteLength":43392,"target":34963},{"buffer":2,"byteOffset":323520,"byteLength":56400,"target":34962},{"buffer":2,"byteOffset":379920,"byteLength":56400,"target":34962},{"buffer":2,"byteOffset":436320,"byteLength":37600,"target":34962},{"buffer":2,"byteOffset":473920,"byteLength":19986,"target":34963},{"buffer":2,"byteOffset":493908,"byteLength":192,"target":34962},{"buffer":2,"byteOffset":494100,"byteLength":192,"target":34962},{"buffer":2,"byteOffset":494292,"byteLength":128,"target":34962},{"buffer":2,"byteOffset":494420,"byteLength":48,"target":34963},{"buffer":2,"byteOffset":494468,"byteLength":96,"target":34962},{"buffer":2,"byteOffset":494564,"byteLength":96,"target":34962},{"buffer":2,"byteOffset":494660,"byteLength":64,"target":34962},{"buffer":2,"byteOffset":494724,"byteLength":24,"target":34963},{"buffer":3,"byteOffset":0,"byteLength":345600,"target":34962},{"buffer":3,"byteOffset":345600,"byteLength":345600,"target":34962},{"buffer":3,"byteOffset":691200,"byteLength":230400,"target":34962},{"buffer":3,"byteOffset":921600,"byteLength":86400,"target":34963},{"buffer":3,"byteOffset":1008000,"byteLength":268800,"target":34962},{"buffer":3,"byteOffset":1276800,"byteLength":268800,"target":34962},{"buffer":3,"byteOffset":1545600,"byteLength":179200,"target":34962},{"buffer":3,"byteOffset":1724800,"byteLength":67200,"target":34963},{"buffer":3,"byteOffset":1792000,"byteLength":264000,"target":34962},{"buffer":3,"byteOffset":2056000,"byteLength":264000,"target":34962},{"buffer":3,"byteOffset":2320000,"byteLength":176000,"target":34962},{"buffer":3,"byteOffset":2496000,"byteLength":66000,"target":34963},{"buffer":3,"byteOffset":2562000,"byteLength":259200,"target":34962},{"buffer":3,"byteOffset":2821200,"byteLength":259200,"target":34962},{"buffer":3,"byteOffset":3080400,"byteLength":172800,"target":34962},{"buffer":3,"byteOffset":3253200,"byteLength":64800,"target":34963},{"buffer":3,"byteOffset":3318000,"byteLength":254400,"target":34962},{"buffer":3,"byteOffset":3572400,"byteLength":254400,"target":34962},{"buffer":3,"byteOffset":3826800,"byteLength":169600,"target":34962},{"buffer":3,"byteOffset":3996400,"byteLength":63600,"target":34963},{"buffer":3,"byteOffset":4060000,"byteLength":249600,"target":34962},{"buffer":3,"byteOffset":4309600,"byteLength":249600,"target":34962},{"buffer":3,"byteOffset":4559200,"byteLength":166400,"target":34962},{"buffer":3,"byteOffset":4725600,"byteLength":62400,"target":34963},{"buffer":3,"byteOffset":4788000,"byteLength":244800,"target":34962},{"buffer":3,"byteOffset":5032800,"byteLength":244800,"target":34962},{"buffer":3,"byteOffset":5277600,"byteLength":163200,"target":34962},{"buffer":3,"byteOffset":5440800,"byteLength":61200,"target":34963},{"buffer":3,"byteOffset":5502000,"byteLength":240000,"target":34962},{"buffer":3,"byteOffset":5742000,"byteLength":240000,"target":34962},{"buffer":3,"byteOffset":5982000,"byteLength":160000,"target":34962},{"buffer":3,"byteOffset":6142000,"byteLength":60000,"target":34963},{"buffer":3,"byteOffset":6202000,"byteLength":235200,"target":34962},{"buffer":3,"byteOffset":6437200,"byteLength":235200,"target":34962},{"buffer":3,"byteOffset":6672400,"byteLength":156800,"target":34962},{"buffer":3,"byteOffset":6829200,"byteLength":58800,"target":34963},{"buffer":3,"byteOffset":6888000,"byteLength":230400,"target":34962},{"buffer":3,"byteOffset":7118400,"byteLength":230400,"target":34962},{"buffer":3,"byteOffset":7348800,"byteLength":153600,"target":34962},{"buffer":3,"byteOffset":7502400,"byteLength":57600,"target":34963},{"buffer":3,"byteOffset":7560000,"byteLength":223200,"target":34962},{"buffer":3,"byteOffset":7783200,"byteLength":223200,"target":34962},{"buffer":3,"byteOffset":8006400,"byteLength":148800,"target":34962},{"buffer":3,"byteOffset":8155200,"byteLength":55800,"target":34963},{"buffer":3,"byteOffset":8211000,"byteLength":216000,"target":34962},{"buffer":3,"byteOffset":8427000,"byteLength":216000,"target":34962},{"buffer":3,"byteOffset":8643000,"byteLength":144000,"target":34962},{"buffer":3,"byteOffset":8787000,"byteLength":54000,"target":34963}],"accessors":[{"bufferView":0,"componentType":5126,"count":8754,"type":"VEC3","min":[-0.55,0.0,-0.4041117252880997],"max":[0.55,1.0,0.4041117252880997]},{"bufferView":1,"componentType":5126,"count":8754,"type":"VEC3","min":[-0.9996779561042786,-0.9997625946998596,-0.9988284111022949],"max":[0.999296247959137,0.9999527335166931,0.9998937249183655]},{"bufferView":2,"componentType":5126,"count":8754,"type":"VEC2"},{"bufferView":3,"componentType":5123,"count":21696,"type":"SCALAR","min":[0],"max":[8753]},{"bufferView":4,"componentType":5126,"count":4700,"type":"VEC3","min":[-0.5486376445947689,1.6705947594052684e-05,-0.39361191808792245],"max":[0.5569338556352812,1.000045272121852,0.3933479710747246]},{"bufferView":5,"componentType":5126,"count":4700,"type":"VEC3","min":[-0.9976954460144043,-0.999291181564331,-0.9989568591117859],"max":[0.998948872089386,0.9999527335166931,0.9998225569725037]},{"bufferView":6,"componentType":5126,"count":4700,"type":"VEC2"},{"bufferView":7,"componentType":5123,"count":9993,"type":"SCALAR","min":[0],"max":[4699]},{"bufferView":8,"componentType":5126,"count":16,"type":"VEC3","min":[-0.6050000000000001,0,-0.6050000000000001],"max":[0.6050000000000001,1.0,0.6050000000000001]},{"bufferView":9,"componentType":5126,"count":16,"type":"VEC3","min":[-1.0,0,-0.7071067811865475],"max":[-0.0,0,1.0]},{"bufferView":10,"componentType":5126,"count":16,"type":"VEC2"},{"bufferView":11,"componentType":5123,"count":24,"type":"SCALAR","min":[0],"max":[15]},{"bufferView":12,"componentType":5126,"count":8,"type":"VEC3","min":[-0.6050000000000001,0,-0.6050000000000001],"max":[0.6050000000000001,1.0,0.6050000000000001]},{"bufferView":13,"componentType":5126,"count":8,"type":"VEC3","min":[-1.0,0,6.123233995736766e-17],"max":[-0.0,0,1.0]},{"bufferView":14,"componentType":5126,"count":8,"type":"VEC2"},{"bufferView":15,"componentType":5123,"count":12,"type":"SCALAR","min":[0],"max":[7]},{"bufferView":16,"componentType":5126,"count":3742,"type":"VEC3","min":[-0.4675,0.0,-0.4498948973936197],"max":[0.4675,1.1,0.4498948973936197]},{"bufferView":17,"componentType":5126,"count":3742,"type":"VEC3","min":[-0.9961062669754028,-0.5310803055763245,-0.9999850988388062],"max":[0.9980489611625671,0.9998307824134827,0.9981037974357605]},{"bufferView":18,"componentType":5126,"count":3742,"type":"VEC2"},{"bufferView":19,"componentType":5123,"count":18192,"type":"SCALAR","min":[0],"max":[3741]},{"bufferView":20,"componentType":5126,"count":711,"type":"VEC3","min":[-0.4671776978737864,0.0,-0.44979525027712636],"max":[0.46740563778053823,1.1,0.4498948973936197]},{"bufferView":21,"componentType":5126,"count":711,"type":"VEC3","min":[-0.9960769414901733,-0.28742703795433044,-0.99998539686203],"max":[0.9766634106636047,0.9998952150344849,0.9995871186256409]},{"bufferView":22,"componentType":5126,"count":711,"type":"VEC2"},{"bufferView":23,"componentType":5123,"count":2610,"type":"SCALAR","min":[0],"max":[710]},{"bufferView":24,"componentType":5126,"count":16,"type":"VEC3","min":[-0.5142500000000001,0,-0.5142500000000001],"max":[0.5142500000000001,1.1,0.5142500000000001]},{"bufferView":25,"componentType":5126,"count":16,"type":"VEC3","min":[-1.0,0,-0.7071067811865475],"max":[-0.0,0,1.0]},{"bufferView":26,"componentType":5126,"count":16,"type":"VEC2"},{"bufferView":27,"componentType":5123,"count":24,"type":"SCALAR","min":[0],"max":[15]},{"bufferView":28,"componentType":5126,"count":8,"type":"VEC3","min":[-0.5142500000000001,0,-0.5142500000000001],"max":[0.5142500000000001,1.1,0.5142500000000001]},{"bufferView":29,"componentType":5126,"count":8,"type":"VEC3","min":[-1.0,0,6.123233995736766e-17],"max":[-0.0,0,1.0]},{"bufferView":30,"componentType":5126,"count":8,"type":"VEC2"},{"bufferView":31,"componentType":5123,"count":12,"type":"SCALAR","min":[0],"max":[7]},{"bufferView":32,"componentType":5126,"count":8754,"type":"VEC3","min":[-0.6,0.0,-0.44084915485974513],"max":[0.6,1.0,0.44084915485974513]},{"bufferView":33,"componentType":5126,"count":8754,"type":"VEC3","min":[-0.9996581077575684,-0.9998005628585815,-0.9986739158630371],"max":[0.9992280602455139,0.9999603033065796,0.9998832941055298]},{"bufferView":34,"componentType":5126,"count":8754,"type":"VEC2"},{"bufferView":35,"componentType":5123,"count":21696,"type":"SCALAR","min":[0],"max":[8753]},{"bufferView":36,"componentType":5126,"count":4700,"type":"VEC3","min":[-0.5985137941033843,1.6705947594052684e-05,-0.429394819732279],"max":[0.6075642061475794,1.000045272121852,0.42910687753606314]},{"bufferView":37,"componentType":5126,"count":4700,"type":"VEC3","min":[-0.9976669549942017,-0.99940425157547,-0.9989551305770874],"max":[0.9989135265350342,0.9999603033065796,0.9998118281364441]},{"bufferView":38,"componentType":5126,"count":4700,"type":"VEC2"},{"bufferView":39,"componentType":5123,"count":9993,"type":"SCALAR","min":[0],"max":[4699]},{"bufferView":40,"componentType":5126,"count":16,"type":"VEC3","min":[-0.66,0,-0.66],"max":[0.66,1.0,0.66]},{"bufferView":41,"componentType":5126,"count":16,"type":"VEC3","min":[-1.0,0,-0.7071067811865475],"max":[-0.0,0,1.0]},{"bufferView":42,"componentType":5126,"count":16,"type":"VEC2"},{"bufferView":43,"componentType":5123,"count":24,"type":"SCALAR","min":[0],"max":[15]},{"bufferView":44,"componentType":5126,"count":8,"type":"VEC3","min":[-0.66,0,-0.66],"max":[0.66,1.0,0.66]},{"bufferView":45,"componentType":5126,"count":8,"type":"VEC3","min":[-1.0,0,6.123233995736766e-17],"max":[-0.0,0,1.0]},{"bufferView":46,"componentType":5126,"count":8,"type":"VEC2"},{"bufferView":47,"componentType":5123,"count":12,"type":"SCALAR","min":[0],"max":[7]},{"bufferView":48,"componentType":5126,"count":28800,"type":"VEC3","min":[-3.10777675682416,0.020434086210069036,-0.826494671477592],"max":[3.1131362227333517,2.0587328590062923,0.8297780469647866]},{"bufferView":49,"componentType":5126,"count":28800,"type":"VEC3","min":[-1.0,-0.1499251126348765,-1.0],"max":[1.0,1.0,1.0]},{"bufferView":50,"componentType":5126,"count":28800,"type":"VEC2"},{"bufferView":51,"componentType":5123,"count":17280,"type":"SCALAR","min":[0],"max":[28799]},{"bufferView":52,"componentType":5126,"count":22400,"type":"VEC3","min":[-3.2234488938241825,-0.0563658401742875,-0.9390215137670361],"max":[3.223259606938061,2.1218824489432997,0.9495368611216646]},{"bufferView":53,"componentType":5126,"count":22400,"type":"VEC3","min":[-1.0,-0.14997074129323812,-1.0],"max":[1.0,1.0,1.0]},{"bufferView":54,"componentType":5126,"count":22400,"type":"VEC2"},{"bufferView":55,"componentType":5123,"count":13440,"type":"SCALAR","min":[0],"max":[22399]},{"bufferView":56,"componentType":5126,"count":22000,"type":"VEC3","min":[-3.3159608861478196,-0.12141719697215013,-1.02246282408502],"max":[3.292881659911713,2.178599134111183,1.0190272905770605]},{"bufferView":57,"componentType":5126,"count":22000,"type":"VEC3","min":[-1.0,-0.14978620107718854,-1.0],"max":[1.0,1.0,1.0]},{"bufferView":58,"componentType":5126,"count":22000,"type":"VEC2"},{"bufferView":59,"componentType":5123,"count":13200,"type":"SCALAR","min":[0],"max":[21999]},{"bufferView":60,"componentType":5126,"count":21600,"type":"VEC3","min":[-3.4157421125625245,-0.18051551977330138,-1.1265680083872527],"max":[3.4082679719807247,2.216674185289316,1.1336845739704329]},{"bufferView":61,"componentType":5126,"count":21600,"type":"VEC3","min":[-1.0,-0.14996471073150916,-1.0],"max":[1.0,1.0,1.0]},{"bufferView":62,"componentType":5126,"count":21600,"type":"VEC2"},{"bufferView":63,"componentType":5123,"count":12960,"type":"SCALAR","min":[0],"max":[21599]},{"bufferView":64,"componentType":5126,"count":21200,"type":"VEC3","min":[-3.541244777858034,-0.2662587681555696,-1.2722284759014046],"max":[3.553040746931247,2.3471312825497845,1.2456756382144807]},{"bufferView":65,"componentType":5126,"count":21200,"type":"VEC3","min":[-1.0,-0.1499803936815812,-1.0],"max":[1.0,1.0,1.0]},{"bufferView":66,"componentType":5126,"count":21200,"type":"VEC2"},{"bufferView":67,"componentType":5123,"count":12720,"type":"SCALAR","min":[0],"max":[21199]},{"bufferView":68,"componentType":5126,"count":20800,"type":"VEC3","min":[-3.73584591863097,-0.37975361886757036,-1.4728048540045906],"max":[3.7508589739308165,2.480732274708949,1.4612724403435777]},{"bufferView":69,"componentType":5126,"count":20800,"type":"VEC3","min":[-1.0,-0.14996306712416413,-1.0],"max":[1.0,1.0,1.0]},{"bufferView":70,"componentType":5126,"count":20800,"type":"VEC2"},{"bufferView":71,"componentType":5123,"count":12480,"type":"SCALAR","min":[0],"max":[20799]},{"bufferView":72,"componentType":5126,"count":20400,"type":"VEC3","min":[-3.942556117846273,-0.5353540660973097,-1.6186958009776515],"max":[3.931885135657174,2.644612488057636,1.6861745008089302]},{"bufferView":73,"componentType":5126,"count":20400,"type":"VEC3","min":[-1.0,-0.1499783409384099,-1.0],"max":[1.0,1.0,1.0]},{"bufferView":74,"componentType":5126,"count":20400,"type":"VEC2"},{"bufferView":75,"componentType":5123,"count":12240,"type":"SCALAR","min":[0],"max":[20399]},{"bufferView":76,"componentType":5126,"count":20000,"type":"VEC3","min":[-4.1538192434397185,-0.7905242812501893,-1.8956838295088234],"max":[4.2177402481079564,2.765480773435723,1.8987887237154961]},{"bufferView":77,"componentType":5126,"count":20000,"type":"VEC3","min":[-1.0,-0.149802580270096,-1.0],"max":[1.0,1.0,1.0]},{"bufferView":78,"componentType":5126,"count":20000,"type":"VEC2"},{"bufferView":79,"componentType":5123,"count":12000,"type":"SCALAR","min":[0],"max":[19999]},{"bufferView":80,"componentType":5126,"count":19600,"type":"VEC3","min":[-4.50634369835863,-0.9244695751935377,-2.1848064112448617],"max":[4.493951082387666,2.9973019269091146,2.1764058099745096]},{"bufferView":81,"componentType":5126,"count":19600,"type":"VEC3","min":[-1.0,-0.14977208770557546,-1.0],"max":[1.0,1.0,1.0]},{"bufferView":82,"componentType":5126,"count":19600,"type":"VEC2"},{"bufferView":83,"componentType":5123,"count":11760,"type":"SCALAR","min":[0],"max":[19599]},{"bufferView":84,"componentType":5126,"count":19200,"type":"VEC3","min":[-4.854241656870572,-1.1795836315499986,-2.5359568343911216],"max":[4.848458005545537,3.2764684425865482,2.5150138018728194]},{"bufferView":85,"componentType":5126,"count":19200,"type":"VEC3","min":[-1.0,-0.14995308042283909,-1.0],"max":[1.0,1.0,1.0]},{"bufferView":86,"componentType":5126,"count":19200,"type":"VEC2"},{"bufferView":87,"componentType":5123,"count":11520,"type":"SCALAR","min":[0],"max":[19199]},{"bufferView":88,"componentType":5126,"count":18600,"type":"VEC3","min":[-5.165476125634624,-1.4013745413688987,-2.8816407676880367],"max":[5.173732256351908,3.433221791177936,2.8700831553608888]},{"bufferView":89,"componentType":5126,"count":18600,"type":"VEC3","min":[-1.0,-0.1499060044114573,-1.0],"max":[1.0,1.0,1.0]},{"bufferView":90,"componentType":5126,"count":18600,"type":"VEC2"},{"bufferView":91,"componentType":5123,"count":11160,"type":"SCALAR","min":[0],"max":[18599]},{"bufferView":92,"componentType":5126,"count":18000,"type":"VEC3","min":[-5.618237403334431,-1.6899646069919547,-3.213047020303856],"max":[5.602896765930289,3.8080466393385444,3.2058429473992787]},{"bufferView":93,"componentType":5126,"count":18000,"type":"VEC3","min":[-1.0,-0.14993167296072957,-1.0],"max":[1.0,1.0,1.0]},{"bufferView":94,"componentType":5126,"count":18000,"type":"VEC2"},{"bufferView":95,"componentType":5123,"count":10800,"type":"SCALAR","min":[0],"max":[17999]}],"images":[{"uri":"textures/poly_searsia_lucida.png"},{"uri":"textures/poly_searsia_lucida.png"},{"uri":"impostors/heckenkirsche_a_winter.png"},{"uri":"textures/poly_shrub_01.png"},{"uri":"textures/poly_shrub_01.png"},{"uri":"impostors/himbeere_b_winter.png"},{"uri":"textures/poly_searsia_lucida.png"},{"uri":"textures/poly_searsia_lucida.png"},{"uri":"impostors/berberitze_a_winter.png"},{"uri":"textures/poly_searsia_lucida.png"}],"samplers":[{"magFilter":9729,"minFilter":9987,"wrapS":10497,"wrapT":10497},{"magFilter":9729,"minFilter":9987,"wrapS":10497,"wrapT":10497},{"magFilter":9729,"minFilter":9987,"wrapS":10497,"wrapT":10497},{"magFilter":9729,"minFilter":9987,"wrapS":10497,"wrapT":10497}],"textures":[{"source":0,"sampler":0},{"source":1,"sampler":0},{"source":2,"sampler":0},{"source":3,"sampler":1},{"source":4,"sampler":1},{"source":5,"sampler":1},{"source":6,"sampler":2},{"source":7,"sampler":2},{"source":8,"sampler":2},{"source":9,"sampler":3}],"materials":[{"name":"heckenkirsche_a_bark","pbrMetallicRoughness":{"baseColorFactor":[0.82,0.82,0.82,1.0],"baseColorTexture":{"index":0},"metallicFactor":0.0,"roughnessFactor":0.91},"doubleSided":false},{"name":"heckenkirsche_a_foliage","pbrMetallicRoughness":{"baseColorFactor":[0.48,0.31,0.17,1.0],"baseColorTexture":{"index":1},"metallicFactor":0.0,"roughnessFactor":0.78},"doubleSided":true,"alphaMode":"MASK","alphaCutoff":0.18},{"name":"heckenkirsche_a_whole_tree_impostor","pbrMetallicRoughness":{"baseColorFactor":[1,1,1,1],"baseColorTexture":{"index":2},"metallicFactor":0.0,"roughnessFactor":0.92},"doubleSided":true,"alphaMode":"MASK","alphaCutoff":0.18},{"name":"himbeere_b_bark","pbrMetallicRoughness":{"baseColorFactor":[0.82,0.82,0.82,1.0],"baseColorTexture":{"index":3},"metallicFactor":0.0,"roughnessFactor":0.91},"doubleSided":false},{"name":"himbeere_b_foliage","pbrMetallicRoughness":{"baseColorFactor":[0.48,0.31,0.17,1.0],"baseColorTexture":{"index":4},"metallicFactor":0.0,"roughnessFactor":0.78},"doubleSided":true,"alphaMode":"MASK","alphaCutoff":0.18},{"name":"himbeere_b_whole_tree_impostor","pbrMetallicRoughness":{"baseColorFactor":[1,1,1,1],"baseColorTexture":{"index":5},"metallicFactor":0.0,"roughnessFactor":0.92},"doubleSided":true,"alphaMode":"MASK","alphaCutoff":0.18},{"name":"berberitze_a_bark","pbrMetallicRoughness":{"baseColorFactor":[0.82,0.82,0.82,1.0],"baseColorTexture":{"index":6},"metallicFactor":0.0,"roughnessFactor":0.91},"doubleSided":false},{"name":"berberitze_a_foliage","pbrMetallicRoughness":{"baseColorFactor":[0.48,0.31,0.17,1.0],"baseColorTexture":{"index":7},"metallicFactor":0.0,"roughnessFactor":0.78},"doubleSided":true,"alphaMode":"MASK","alphaCutoff":0.18},{"name":"berberitze_a_whole_tree_impostor","pbrMetallicRoughness":{"baseColorFactor":[1,1,1,1],"baseColorTexture":{"index":8},"metallicFactor":0.0,"roughnessFactor":0.92},"doubleSided":true,"alphaMode":"MASK","alphaCutoff":0.18},{"name":"hainbuchenhecke_individual_leaves_LOD0","pbrMetallicRoughness":{"baseColorFactor":[0.6,0.42,0.22,1.0],"baseColorTexture":{"index":9},"metallicFactor":0.0,"roughnessFactor":0.82},"doubleSided":true,"alphaMode":"MASK","alphaCutoff":0.18},{"name":"hainbuchenhecke_individual_leaves_LOD1","pbrMetallicRoughness":{"baseColorFactor":[0.6,0.42,0.22,1.0],"baseColorTexture":{"index":9},"metallicFactor":0.0,"roughnessFactor":0.82},"doubleSided":true,"alphaMode":"MASK","alphaCutoff":0.08},{"name":"hainbuchenhecke_individual_leaves_LOD2","pbrMetallicRoughness":{"baseColorFactor":[0.6,0.42,0.22,1.0],"baseColorTexture":{"index":9},"metallicFactor":0.0,"roughnessFactor":0.82},"doubleSided":true,"alphaMode":"MASK","alphaCutoff":0.065},{"name":"hainbuchenhecke_individual_leaves_LOD3","pbrMetallicRoughness":{"baseColorFactor":[0.6,0.42,0.22,1.0],"baseColorTexture":{"index":9},"metallicFactor":0.0,"roughnessFactor":0.82},"doubleSided":true,"alphaMode":"MASK","alphaCutoff":0.055},{"name":"hainbuchenhecke_individual_leaves_LOD4","pbrMetallicRoughness":{"baseColorFactor":[0.6,0.42,0.22,1.0],"baseColorTexture":{"index":9},"metallicFactor":0.0,"roughnessFactor":0.82},"doubleSided":true,"alphaMode":"MASK","alphaCutoff":0.045},{"name":"hainbuchenhecke_individual_leaves_LOD5","pbrMetallicRoughness":{"baseColorFactor":[0.6,0.42,0.22,1.0],"baseColorTexture":{"index":9},"metallicFactor":0.0,"roughnessFactor":0.82},"doubleSided":true,"alphaMode":"MASK","alphaCutoff":0.038},{"name":"hainbuchenhecke_individual_leaves_LOD6","pbrMetallicRoughness":{"baseColorFactor":[0.6,0.42,0.22,1.0],"baseColorTexture":{"index":9},"metallicFactor":0.0,"roughnessFactor":0.82},"doubleSided":true,"alphaMode":"MASK","alphaCutoff":0.032},{"name":"hainbuchenhecke_individual_leaves_LOD7","pbrMetallicRoughness":{"baseColorFactor":[0.6,0.42,0.22,1.0],"baseColorTexture":{"index":9},"metallicFactor":0.0,"roughnessFactor":0.82},"doubleSided":true,"alphaMode":"MASK","alphaCutoff":0.027},{"name":"hainbuchenhecke_individual_leaves_LOD8","pbrMetallicRoughness":{"baseColorFactor":[0.6,0.42,0.22,1.0],"baseColorTexture":{"index":9},"metallicFactor":0.0,"roughnessFactor":0.82},"doubleSided":true,"alphaMode":"MASK","alphaCutoff":0.023},{"name":"hainbuchenhecke_individual_leaves_LOD9","pbrMetallicRoughness":{"baseColorFactor":[0.6,0.42,0.22,1.0],"baseColorTexture":{"index":9},"metallicFactor":0.0,"roughnessFactor":0.82},"doubleSided":true,"alphaMode":"MASK","alphaCutoff":0.02},{"name":"hainbuchenhecke_individual_leaves_LOD10","pbrMetallicRoughness":{"baseColorFactor":[0.6,0.42,0.22,1.0],"baseColorTexture":{"index":9},"metallicFactor":0.0,"roughnessFactor":0.82},"doubleSided":true,"alphaMode":"MASK","alphaCutoff":0.017},{"name":"hainbuchenhecke_individual_leaves_LOD11","pbrMetallicRoughness":{"baseColorFactor":[0.6,0.42,0.22,1.0],"baseColorTexture":{"index":9},"metallicFactor":0.0,"roughnessFactor":0.82},"doubleSided":true,"alphaMode":"MASK","alphaCutoff":0.015}]}