{"asset":{"version":"2.0","generator":"Connected Rails CC0 hedge composer","copyright":"Mantissa and Poly Haven source models: CC0 1.0; hedge composition: Connected Rails"},"scene":0,"scenes":[{"nodes":[0,1,2,3,4,5,6,7,8,9,10,11]}],"nodes":[{"name":"hedge_LOD0","children":[12,14,20,22,34,46,58,60,70,74,76,78,84,86,94,96,100,104,115,123,127,129]},{"name":"hedge_LOD1","children":[13,15,21,23,35,47,59,61,71,75,77,79,85,87,95,97,101,105,116,124,128,130]},{"name":"hedge_LOD2","children":[16,24,36,48,62,72,80,88,98,102,106,117,125,131]},{"name":"hedge_LOD3","children":[17,25,37,49,63,73,81,89,99,103,107,118,126,132]},{"name":"hedge_LOD4","children":[18,26,38,50,64,82,90,108,119,133]},{"name":"hedge_LOD5","children":[19,27,39,51,65,83,91,109,120,134]},{"name":"hedge_LOD6","children":[28,40,52,66,92,110,121,135]},{"name":"hedge_LOD7","children":[29,41,53,67,93,111,122,136]},{"name":"hedge_LOD8","children":[30,42,54,68,112,137]},{"name":"hedge_LOD9","children":[31,43,55,69,113,138]},{"name":"hedge_LOD10","children":[32,44,56,114,139]},{"name":"hedge_LOD11","children":[33,45,57,140]},{"name":"berberitze_a_part_12_LOD0","mesh":1,"translation":[-3.0,-0.0,-0.06428551447886403],"rotation":[0.0,-0.011560197114464531,0.0,0.9999331786887935],"scale":[0.725,1.5781479691865026,1.488435754516453]},{"name":"berberitze_a_part_13_LOD1","mesh":1,"translation":[-3.0,-0.0,-0.06428551447886403],"rotation":[0.0,-0.011560197114464531,0.0,0.9999331786887935],"scale":[0.725,1.5781479691865026,1.488435754516453]},{"name":"heckenkirsche_a_part_14_LOD0","mesh":5,"translation":[-2.4,-0.0,0.1205054430069668],"rotation":[0.0,0.026986487505599285,0.0,0.9996357984246613],"scale":[0.7909090909090909,1.6176468919819478,1.5095167115208392]},{"name":"heckenkirsche_a_part_15_LOD1","mesh":5,"translation":[-2.4,-0.0,0.1205054430069668],"rotation":[0.0,0.026986487505599285,0.0,0.9996357984246613],"scale":[0.7909090909090909,1.6176468919819478,1.5095167115208392]},{"name":"heckenkirsche_a_part_16_LOD2","mesh":5,"translation":[-2.4,-0.0,0.1205054430069668],"rotation":[0.0,0.026986487505599285,0.0,0.9996357984246613],"scale":[0.7909090909090909,1.6176468919819478,1.5095167115208392]},{"name":"heckenkirsche_a_part_17_LOD3","mesh":5,"translation":[-2.4,-0.0,0.1205054430069668],"rotation":[0.0,0.026986487505599285,0.0,0.9996357984246613],"scale":[0.7909090909090909,1.6176468919819478,1.5095167115208392]},{"name":"heckenkirsche_a_part_18_LOD4","mesh":5,"translation":[-2.4,-0.0,0.1205054430069668],"rotation":[0.0,0.026986487505599285,0.0,0.9996357984246613],"scale":[0.7909090909090909,1.6176468919819478,1.5095167115208392]},{"name":"heckenkirsche_a_part_19_LOD5","mesh":5,"translation":[-2.4,-0.0,0.1205054430069668],"rotation":[0.0,0.026986487505599285,0.0,0.9996357984246613],"scale":[0.7909090909090909,1.6176468919819478,1.5095167115208392]},{"name":"himbeere_b_part_20_LOD0","mesh":9,"translation":[-1.8,-0.0,0.0029340139825849987],"rotation":[0.0,-0.06736078065264185,0.0,0.9977286831748733],"scale":[0.9304812834224598,1.4138276357095196,1.3064135527281837]},{"name":"himbeere_b_part_21_LOD1","mesh":9,"translation":[-1.8,-0.0,0.0029340139825849987],"rotation":[0.0,-0.06736078065264185,0.0,0.9977286831748733],"scale":[0.9304812834224598,1.4138276357095196,1.3064135527281837]},{"name":"berberitze_a_part_22_LOD0","mesh":1,"translation":[-1.2000000000000002,-0.0,-0.020000175858558344],"rotation":[0.0,-0.02853860648349974,0.0,0.9995926910196873],"scale":[0.725,1.6159630533591294,1.7445211238072227]},{"name":"berberitze_a_part_23_LOD1","mesh":1,"translation":[-1.2000000000000002,-0.0,-0.020000175858558344],"rotation":[0.0,-0.02853860648349974,0.0,0.9995926910196873],"scale":[0.725,1.6159630533591294,1.7445211238072227]},{"name":"berberitze_a_part_24_LOD2","mesh":1,"translation":[-1.2000000000000002,-0.0,-0.020000175858558344],"rotation":[0.0,-0.02853860648349974,0.0,0.9995926910196873],"scale":[0.725,1.6159630533591294,1.7445211238072227]},{"name":"berberitze_a_part_25_LOD3","mesh":1,"translation":[-1.2000000000000002,-0.0,-0.020000175858558344],"rotation":[0.0,-0.02853860648349974,0.0,0.9995926910196873],"scale":[0.725,1.6159630533591294,1.7445211238072227]},{"name":"berberitze_a_part_26_LOD4","mesh":1,"translation":[-1.2000000000000002,-0.0,-0.020000175858558344],"rotation":[0.0,-0.02853860648349974,0.0,0.9995926910196873],"scale":[0.725,1.6159630533591294,1.7445211238072227]},{"name":"berberitze_a_part_27_LOD5","mesh":1,"translation":[-1.2000000000000002,-0.0,-0.020000175858558344],"rotation":[0.0,-0.02853860648349974,0.0,0.9995926910196873],"scale":[0.725,1.6159630533591294,1.7445211238072227]},{"name":"berberitze_a_part_28_LOD6","mesh":1,"translation":[-1.2000000000000002,-0.0,-0.020000175858558344],"rotation":[0.0,-0.02853860648349974,0.0,0.9995926910196873],"scale":[0.725,1.6159630533591294,1.7445211238072227]},{"name":"berberitze_a_part_29_LOD7","mesh":1,"translation":[-1.2000000000000002,-0.0,-0.020000175858558344],"rotation":[0.0,-0.02853860648349974,0.0,0.9995926910196873],"scale":[0.725,1.6159630533591294,1.7445211238072227]},{"name":"berberitze_a_part_30_LOD8","mesh":1,"translation":[-1.2000000000000002,-0.0,-0.020000175858558344],"rotation":[0.0,-0.02853860648349974,0.0,0.9995926910196873],"scale":[0.725,1.6159630533591294,1.7445211238072227]},{"name":"berberitze_a_part_31_LOD9","mesh":1,"translation":[-1.2000000000000002,-0.0,-0.020000175858558344],"rotation":[0.0,-0.02853860648349974,0.0,0.9995926910196873],"scale":[0.725,1.6159630533591294,1.7445211238072227]},{"name":"berberitze_a_part_32_LOD10","mesh":1,"translation":[-1.2000000000000002,-0.0,-0.020000175858558344],"rotation":[0.0,-0.02853860648349974,0.0,0.9995926910196873],"scale":[0.725,1.6159630533591294,1.7445211238072227]},{"name":"berberitze_a_part_33_LOD11","mesh":1,"translation":[-1.2000000000000002,-0.0,-0.020000175858558344],"rotation":[0.0,-0.02853860648349974,0.0,0.9995926910196873],"scale":[0.725,1.6159630533591294,1.7445211238072227]},{"name":"heckenkirsche_a_part_34_LOD0","mesh":5,"translation":[-0.6000000000000001,-0.0,-0.009448134685848708],"rotation":[0.0,0.008855997300735288,0.0,0.9999607848869921],"scale":[0.7909090909090909,1.6473108338687306,1.4882170612948282]},{"name":"heckenkirsche_a_part_35_LOD1","mesh":5,"translation":[-0.6000000000000001,-0.0,-0.009448134685848708],"rotation":[0.0,0.008855997300735288,0.0,0.9999607848869921],"scale":[0.7909090909090909,1.6473108338687306,1.4882170612948282]},{"name":"heckenkirsche_a_part_36_LOD2","mesh":5,"translation":[-0.6000000000000001,-0.0,-0.009448134685848708],"rotation":[0.0,0.008855997300735288,0.0,0.9999607848869921],"scale":[0.7909090909090909,1.6473108338687306,1.4882170612948282]},{"name":"heckenkirsche_a_part_37_LOD3","mesh":5,"translation":[-0.6000000000000001,-0.0,-0.009448134685848708],"rotation":[0.0,0.008855997300735288,0.0,0.9999607848869921],"scale":[0.7909090909090909,1.6473108338687306,1.4882170612948282]},{"name":"heckenkirsche_a_part_38_LOD4","mesh":5,"translation":[-0.6000000000000001,-0.0,-0.009448134685848708],"rotation":[0.0,0.008855997300735288,0.0,0.9999607848869921],"scale":[0.7909090909090909,1.6473108338687306,1.4882170612948282]},{"name":"heckenkirsche_a_part_39_LOD5","mesh":5,"translation":[-0.6000000000000001,-0.0,-0.009448134685848708],"rotation":[0.0,0.008855997300735288,0.0,0.9999607848869921],"scale":[0.7909090909090909,1.6473108338687306,1.4882170612948282]},{"name":"heckenkirsche_a_part_40_LOD6","mesh":5,"translation":[-0.6000000000000001,-0.0,-0.009448134685848708],"rotation":[0.0,0.008855997300735288,0.0,0.9999607848869921],"scale":[0.7909090909090909,1.6473108338687306,1.4882170612948282]},{"name":"heckenkirsche_a_part_41_LOD7","mesh":5,"translation":[-0.6000000000000001,-0.0,-0.009448134685848708],"rotation":[0.0,0.008855997300735288,0.0,0.9999607848869921],"scale":[0.7909090909090909,1.6473108338687306,1.4882170612948282]},{"name":"heckenkirsche_a_part_42_LOD8","mesh":5,"translation":[-0.6000000000000001,-0.0,-0.009448134685848708],"rotation":[0.0,0.008855997300735288,0.0,0.9999607848869921],"scale":[0.7909090909090909,1.6473108338687306,1.4882170612948282]},{"name":"heckenkirsche_a_part_43_LOD9","mesh":5,"translation":[-0.6000000000000001,-0.0,-0.009448134685848708],"rotation":[0.0,0.008855997300735288,0.0,0.9999607848869921],"scale":[0.7909090909090909,1.6473108338687306,1.4882170612948282]},{"name":"heckenkirsche_a_part_44_LOD10","mesh":5,"translation":[-0.6000000000000001,-0.0,-0.009448134685848708],"rotation":[0.0,0.008855997300735288,0.0,0.9999607848869921],"scale":[0.7909090909090909,1.6473108338687306,1.4882170612948282]},{"name":"heckenkirsche_a_part_45_LOD11","mesh":5,"translation":[-0.6000000000000001,-0.0,-0.009448134685848708],"rotation":[0.0,0.008855997300735288,0.0,0.9999607848869921],"scale":[0.7909090909090909,1.6473108338687306,1.4882170612948282]},{"name":"himbeere_b_part_46_LOD0","mesh":9,"translation":[0.0,-0.0,0.11922170558916251],"rotation":[0.0,-0.004943465081784694,0.0,0.9999877810018406],"scale":[0.9304812834224598,1.5123866317231092,1.6419442663633113]},{"name":"himbeere_b_part_47_LOD1","mesh":9,"translation":[0.0,-0.0,0.11922170558916251],"rotation":[0.0,-0.004943465081784694,0.0,0.9999877810018406],"scale":[0.9304812834224598,1.5123866317231092,1.6419442663633113]},{"name":"himbeere_b_part_48_LOD2","mesh":9,"translation":[0.0,-0.0,0.11922170558916251],"rotation":[0.0,-0.004943465081784694,0.0,0.9999877810018406],"scale":[0.9304812834224598,1.5123866317231092,1.6419442663633113]},{"name":"himbeere_b_part_49_LOD3","mesh":9,"translation":[0.0,-0.0,0.11922170558916251],"rotation":[0.0,-0.004943465081784694,0.0,0.9999877810018406],"scale":[0.9304812834224598,1.5123866317231092,1.6419442663633113]},{"name":"himbeere_b_part_50_LOD4","mesh":9,"translation":[0.0,-0.0,0.11922170558916251],"rotation":[0.0,-0.004943465081784694,0.0,0.9999877810018406],"scale":[0.9304812834224598,1.5123866317231092,1.6419442663633113]},{"name":"himbeere_b_part_51_LOD5","mesh":9,"translation":[0.0,-0.0,0.11922170558916251],"rotation":[0.0,-0.004943465081784694,0.0,0.9999877810018406],"scale":[0.9304812834224598,1.5123866317231092,1.6419442663633113]},{"name":"himbeere_b_part_52_LOD6","mesh":9,"translation":[0.0,-0.0,0.11922170558916251],"rotation":[0.0,-0.004943465081784694,0.0,0.9999877810018406],"scale":[0.9304812834224598,1.5123866317231092,1.6419442663633113]},{"name":"himbeere_b_part_53_LOD7","mesh":9,"translation":[0.0,-0.0,0.11922170558916251],"rotation":[0.0,-0.004943465081784694,0.0,0.9999877810018406],"scale":[0.9304812834224598,1.5123866317231092,1.6419442663633113]},{"name":"himbeere_b_part_54_LOD8","mesh":9,"translation":[0.0,-0.0,0.11922170558916251],"rotation":[0.0,-0.004943465081784694,0.0,0.9999877810018406],"scale":[0.9304812834224598,1.5123866317231092,1.6419442663633113]},{"name":"himbeere_b_part_55_LOD9","mesh":9,"translation":[0.0,-0.0,0.11922170558916251],"rotation":[0.0,-0.004943465081784694,0.0,0.9999877810018406],"scale":[0.9304812834224598,1.5123866317231092,1.6419442663633113]},{"name":"himbeere_b_part_56_LOD10","mesh":9,"translation":[0.0,-0.0,0.11922170558916251],"rotation":[0.0,-0.004943465081784694,0.0,0.9999877810018406],"scale":[0.9304812834224598,1.5123866317231092,1.6419442663633113]},{"name":"himbeere_b_part_57_LOD11","mesh":9,"translation":[0.0,-0.0,0.11922170558916251],"rotation":[0.0,-0.004943465081784694,0.0,0.9999877810018406],"scale":[0.9304812834224598,1.5123866317231092,1.6419442663633113]},{"name":"berberitze_a_part_58_LOD0","mesh":1,"translation":[0.5999999999999996,-0.0,-0.13058218239580913],"rotation":[0.0,0.07175359691633428,0.0,0.9974223886245828],"scale":[0.725,1.6435363173198994,1.4099874595673707]},{"name":"berberitze_a_part_59_LOD1","mesh":1,"translation":[0.5999999999999996,-0.0,-0.13058218239580913],"rotation":[0.0,0.07175359691633428,0.0,0.9974223886245828],"scale":[0.725,1.6435363173198994,1.4099874595673707]},{"name":"heckenkirsche_a_part_60_LOD0","mesh":5,"translation":[1.2000000000000002,-0.0,0.06323106239453904],"rotation":[0.0,0.0440387148552633,0.0,0.9990298251773552],"scale":[0.7909090909090909,1.5512817722577825,1.5196062295142427]},{"name":"heckenkirsche_a_part_61_LOD1","mesh":5,"translation":[1.2000000000000002,-0.0,0.06323106239453904],"rotation":[0.0,0.0440387148552633,0.0,0.9990298251773552],"scale":[0.7909090909090909,1.5512817722577825,1.5196062295142427]},{"name":"heckenkirsche_a_part_62_LOD2","mesh":5,"translation":[1.2000000000000002,-0.0,0.06323106239453904],"rotation":[0.0,0.0440387148552633,0.0,0.9990298251773552],"scale":[0.7909090909090909,1.5512817722577825,1.5196062295142427]},{"name":"heckenkirsche_a_part_63_LOD3","mesh":5,"translation":[1.2000000000000002,-0.0,0.06323106239453904],"rotation":[0.0,0.0440387148552633,0.0,0.9990298251773552],"scale":[0.7909090909090909,1.5512817722577825,1.5196062295142427]},{"name":"heckenkirsche_a_part_64_LOD4","mesh":5,"translation":[1.2000000000000002,-0.0,0.06323106239453904],"rotation":[0.0,0.0440387148552633,0.0,0.9990298251773552],"scale":[0.7909090909090909,1.5512817722577825,1.5196062295142427]},{"name":"heckenkirsche_a_part_65_LOD5","mesh":5,"translation":[1.2000000000000002,-0.0,0.06323106239453904],"rotation":[0.0,0.0440387148552633,0.0,0.9990298251773552],"scale":[0.7909090909090909,1.5512817722577825,1.5196062295142427]},{"name":"heckenkirsche_a_part_66_LOD6","mesh":5,"translation":[1.2000000000000002,-0.0,0.06323106239453904],"rotation":[0.0,0.0440387148552633,0.0,0.9990298251773552],"scale":[0.7909090909090909,1.5512817722577825,1.5196062295142427]},{"name":"heckenkirsche_a_part_67_LOD7","mesh":5,"translation":[1.2000000000000002,-0.0,0.06323106239453904],"rotation":[0.0,0.0440387148552633,0.0,0.9990298251773552],"scale":[0.7909090909090909,1.5512817722577825,1.5196062295142427]},{"name":"heckenkirsche_a_part_68_LOD8","mesh":5,"translation":[1.2000000000000002,-0.0,0.06323106239453904],"rotation":[0.0,0.0440387148552633,0.0,0.9990298251773552],"scale":[0.7909090909090909,1.5512817722577825,1.5196062295142427]},{"name":"heckenkirsche_a_part_69_LOD9","mesh":5,"translation":[1.2000000000000002,-0.0,0.06323106239453904],"rotation":[0.0,0.0440387148552633,0.0,0.9990298251773552],"scale":[0.7909090909090909,1.5512817722577825,1.5196062295142427]},{"name":"himbeere_b_part_70_LOD0","mesh":9,"translation":[1.7999999999999998,-0.0,-0.00020744276412948404],"rotation":[0.0,-0.03618354813185605,0.0,0.9993451610152468],"scale":[0.9304812834224598,1.4383959220786842,1.5627735180575815]},{"name":"himbeere_b_part_71_LOD1","mesh":9,"translation":[1.7999999999999998,-0.0,-0.00020744276412948404],"rotation":[0.0,-0.03618354813185605,0.0,0.9993451610152468],"scale":[0.9304812834224598,1.4383959220786842,1.5627735180575815]},{"name":"himbeere_b_part_72_LOD2","mesh":9,"translation":[1.7999999999999998,-0.0,-0.00020744276412948404],"rotation":[0.0,-0.03618354813185605,0.0,0.9993451610152468],"scale":[0.9304812834224598,1.4383959220786842,1.5627735180575815]},{"name":"himbeere_b_part_73_LOD3","mesh":9,"translation":[1.7999999999999998,-0.0,-0.00020744276412948404],"rotation":[0.0,-0.03618354813185605,0.0,0.9993451610152468],"scale":[0.9304812834224598,1.4383959220786842,1.5627735180575815]},{"name":"berberitze_a_part_74_LOD0","mesh":1,"translation":[2.3999999999999995,-0.0,-0.0921721259622586],"rotation":[0.0,-0.054351253689779395,0.0,0.9985218781891307],"scale":[0.725,1.5714805551550868,1.3798406368020018]},{"name":"berberitze_a_part_75_LOD1","mesh":1,"translation":[2.3999999999999995,-0.0,-0.0921721259622586],"rotation":[0.0,-0.054351253689779395,0.0,0.9985218781891307],"scale":[0.725,1.5714805551550868,1.3798406368020018]},{"name":"heckenkirsche_a_part_76_LOD0","mesh":5,"translation":[3.0,-0.0,-0.021975454932560645],"rotation":[0.0,0.04760277896444408,0.0,0.9988663451307499],"scale":[0.7909090909090909,1.5865088628960233,1.6913140620152514]},{"name":"heckenkirsche_a_part_77_LOD1","mesh":5,"translation":[3.0,-0.0,-0.021975454932560645],"rotation":[0.0,0.04760277896444408,0.0,0.9988663451307499],"scale":[0.7909090909090909,1.5865088628960233,1.6913140620152514]},{"name":"heckenkirsche_a_part_78_LOD0","mesh":5,"translation":[-2.7,-0.0,-0.2308600474180682],"rotation":[0.0,-0.04470764936926985,0.0,0.9990001131570879],"scale":[0.8454545454545453,0.899592723442847,1.5835636029920486]},{"name":"heckenkirsche_a_part_79_LOD1","mesh":5,"translation":[-2.7,-0.0,-0.2308600474180682],"rotation":[0.0,-0.04470764936926985,0.0,0.9990001131570879],"scale":[0.8454545454545453,0.899592723442847,1.5835636029920486]},{"name":"heckenkirsche_a_part_80_LOD2","mesh":5,"translation":[-2.7,-0.0,-0.2308600474180682],"rotation":[0.0,-0.04470764936926985,0.0,0.9990001131570879],"scale":[0.8454545454545453,0.899592723442847,1.5835636029920486]},{"name":"heckenkirsche_a_part_81_LOD3","mesh":5,"translation":[-2.7,-0.0,-0.2308600474180682],"rotation":[0.0,-0.04470764936926985,0.0,0.9990001131570879],"scale":[0.8454545454545453,0.899592723442847,1.5835636029920486]},{"name":"heckenkirsche_a_part_82_LOD4","mesh":5,"translation":[-2.7,-0.0,-0.2308600474180682],"rotation":[0.0,-0.04470764936926985,0.0,0.9990001131570879],"scale":[0.8454545454545453,0.899592723442847,1.5835636029920486]},{"name":"heckenkirsche_a_part_83_LOD5","mesh":5,"translation":[-2.7,-0.0,-0.2308600474180682],"rotation":[0.0,-0.04470764936926985,0.0,0.9990001131570879],"scale":[0.8454545454545453,0.899592723442847,1.5835636029920486]},{"name":"himbeere_b_part_84_LOD0","mesh":9,"translation":[-2.1,-0.0,-0.1281816332218199],"rotation":[0.0,-0.0429902669040156,0.0,0.9990754911174238],"scale":[0.9946524064171122,0.9366839497813504,1.5804666098886582]},{"name":"himbeere_b_part_85_LOD1","mesh":9,"translation":[-2.1,-0.0,-0.1281816332218199],"rotation":[0.0,-0.0429902669040156,0.0,0.9990754911174238],"scale":[0.9946524064171122,0.9366839497813504,1.5804666098886582]},{"name":"berberitze_a_part_86_LOD0","mesh":1,"translation":[-1.5,-0.0,-0.243338616976611],"rotation":[0.0,0.10414762728367588,0.0,0.9945618491231104],"scale":[0.775,1.082074955521079,1.4708803899129406]},{"name":"berberitze_a_part_87_LOD1","mesh":1,"translation":[-1.5,-0.0,-0.243338616976611],"rotation":[0.0,0.10414762728367588,0.0,0.9945618491231104],"scale":[0.775,1.082074955521079,1.4708803899129406]},{"name":"berberitze_a_part_88_LOD2","mesh":1,"translation":[-1.5,-0.0,-0.243338616976611],"rotation":[0.0,0.10414762728367588,0.0,0.9945618491231104],"scale":[0.775,1.082074955521079,1.4708803899129406]},{"name":"berberitze_a_part_89_LOD3","mesh":1,"translation":[-1.5,-0.0,-0.243338616976611],"rotation":[0.0,0.10414762728367588,0.0,0.9945618491231104],"scale":[0.775,1.082074955521079,1.4708803899129406]},{"name":"berberitze_a_part_90_LOD4","mesh":1,"translation":[-1.5,-0.0,-0.243338616976611],"rotation":[0.0,0.10414762728367588,0.0,0.9945618491231104],"scale":[0.775,1.082074955521079,1.4708803899129406]},{"name":"berberitze_a_part_91_LOD5","mesh":1,"translation":[-1.5,-0.0,-0.243338616976611],"rotation":[0.0,0.10414762728367588,0.0,0.9945618491231104],"scale":[0.775,1.082074955521079,1.4708803899129406]},{"name":"berberitze_a_part_92_LOD6","mesh":1,"translation":[-1.5,-0.0,-0.243338616976611],"rotation":[0.0,0.10414762728367588,0.0,0.9945618491231104],"scale":[0.775,1.082074955521079,1.4708803899129406]},{"name":"berberitze_a_part_93_LOD7","mesh":1,"translation":[-1.5,-0.0,-0.243338616976611],"rotation":[0.0,0.10414762728367588,0.0,0.9945618491231104],"scale":[0.775,1.082074955521079,1.4708803899129406]},{"name":"heckenkirsche_a_part_94_LOD0","mesh":5,"translation":[-0.8999999999999999,-0.0,-0.1713332271756986],"rotation":[0.0,-0.027141850552480185,0.0,0.9996315921121075],"scale":[0.8454545454545453,0.9601879238683534,1.6466095524274484]},{"name":"heckenkirsche_a_part_95_LOD1","mesh":5,"translation":[-0.8999999999999999,-0.0,-0.1713332271756986],"rotation":[0.0,-0.027141850552480185,0.0,0.9996315921121075],"scale":[0.8454545454545453,0.9601879238683534,1.6466095524274484]},{"name":"himbeere_b_part_96_LOD0","mesh":9,"translation":[-0.30000000000000027,-0.0,0.038435402413645514],"rotation":[0.0,-0.06222482741265538,0.0,0.9980621578105571],"scale":[0.9946524064171122,0.9646375919592065,1.5382791795133444]},{"name":"himbeere_b_part_97_LOD1","mesh":9,"translation":[-0.30000000000000027,-0.0,0.038435402413645514],"rotation":[0.0,-0.06222482741265538,0.0,0.9980621578105571],"scale":[0.9946524064171122,0.9646375919592065,1.5382791795133444]},{"name":"himbeere_b_part_98_LOD2","mesh":9,"translation":[-0.30000000000000027,-0.0,0.038435402413645514],"rotation":[0.0,-0.06222482741265538,0.0,0.9980621578105571],"scale":[0.9946524064171122,0.9646375919592065,1.5382791795133444]},{"name":"himbeere_b_part_99_LOD3","mesh":9,"translation":[-0.30000000000000027,-0.0,0.038435402413645514],"rotation":[0.0,-0.06222482741265538,0.0,0.9980621578105571],"scale":[0.9946524064171122,0.9646375919592065,1.5382791795133444]},{"name":"berberitze_a_part_100_LOD0","mesh":1,"translation":[0.2999999999999998,-0.0,0.15275223326116444],"rotation":[0.0,-0.022782339492328496,0.0,0.9997404488202207],"scale":[0.775,1.099013241122217,1.7131369871955202]},{"name":"berberitze_a_part_101_LOD1","mesh":1,"translation":[0.2999999999999998,-0.0,0.15275223326116444],"rotation":[0.0,-0.022782339492328496,0.0,0.9997404488202207],"scale":[0.775,1.099013241122217,1.7131369871955202]},{"name":"berberitze_a_part_102_LOD2","mesh":1,"translation":[0.2999999999999998,-0.0,0.15275223326116444],"rotation":[0.0,-0.022782339492328496,0.0,0.9997404488202207],"scale":[0.775,1.099013241122217,1.7131369871955202]},{"name":"berberitze_a_part_103_LOD3","mesh":1,"translation":[0.2999999999999998,-0.0,0.15275223326116444],"rotation":[0.0,-0.022782339492328496,0.0,0.9997404488202207],"scale":[0.775,1.099013241122217,1.7131369871955202]},{"name":"heckenkirsche_a_part_104_LOD0","mesh":5,"translation":[0.8999999999999999,-0.0,-0.07625942186680296],"rotation":[0.0,-0.09031485580554129,0.0,0.9959132626995306],"scale":[0.8454545454545453,1.0295350190124153,1.8688835972540807]},{"name":"heckenkirsche_a_part_105_LOD1","mesh":5,"translation":[0.8999999999999999,-0.0,-0.07625942186680296],"rotation":[0.0,-0.09031485580554129,0.0,0.9959132626995306],"scale":[0.8454545454545453,1.0295350190124153,1.8688835972540807]},{"name":"heckenkirsche_a_part_106_LOD2","mesh":5,"translation":[0.8999999999999999,-0.0,-0.07625942186680296],"rotation":[0.0,-0.09031485580554129,0.0,0.9959132626995306],"scale":[0.8454545454545453,1.0295350190124153,1.8688835972540807]},{"name":"heckenkirsche_a_part_107_LOD3","mesh":5,"translation":[0.8999999999999999,-0.0,-0.07625942186680296],"rotation":[0.0,-0.09031485580554129,0.0,0.9959132626995306],"scale":[0.8454545454545453,1.0295350190124153,1.8688835972540807]},{"name":"heckenkirsche_a_part_108_LOD4","mesh":5,"translation":[0.8999999999999999,-0.0,-0.07625942186680296],"rotation":[0.0,-0.09031485580554129,0.0,0.9959132626995306],"scale":[0.8454545454545453,1.0295350190124153,1.8688835972540807]},{"name":"heckenkirsche_a_part_109_LOD5","mesh":5,"translation":[0.8999999999999999,-0.0,-0.07625942186680296],"rotation":[0.0,-0.09031485580554129,0.0,0.9959132626995306],"scale":[0.8454545454545453,1.0295350190124153,1.8688835972540807]},{"name":"heckenkirsche_a_part_110_LOD6","mesh":5,"translation":[0.8999999999999999,-0.0,-0.07625942186680296],"rotation":[0.0,-0.09031485580554129,0.0,0.9959132626995306],"scale":[0.8454545454545453,1.0295350190124153,1.8688835972540807]},{"name":"heckenkirsche_a_part_111_LOD7","mesh":5,"translation":[0.8999999999999999,-0.0,-0.07625942186680296],"rotation":[0.0,-0.09031485580554129,0.0,0.9959132626995306],"scale":[0.8454545454545453,1.0295350190124153,1.8688835972540807]},{"name":"heckenkirsche_a_part_112_LOD8","mesh":5,"translation":[0.8999999999999999,-0.0,-0.07625942186680296],"rotation":[0.0,-0.09031485580554129,0.0,0.9959132626995306],"scale":[0.8454545454545453,1.0295350190124153,1.8688835972540807]},{"name":"heckenkirsche_a_part_113_LOD9","mesh":5,"translation":[0.8999999999999999,-0.0,-0.07625942186680296],"rotation":[0.0,-0.09031485580554129,0.0,0.9959132626995306],"scale":[0.8454545454545453,1.0295350190124153,1.8688835972540807]},{"name":"heckenkirsche_a_part_114_LOD10","mesh":5,"translation":[0.8999999999999999,-0.0,-0.07625942186680296],"rotation":[0.0,-0.09031485580554129,0.0,0.9959132626995306],"scale":[0.8454545454545453,1.0295350190124153,1.8688835972540807]},{"name":"himbeere_b_part_115_LOD0","mesh":9,"translation":[1.5,-0.0,0.004521173026697356],"rotation":[0.0,0.06249935242111467,0.0,0.9980450044697089],"scale":[0.9946524064171122,1.0028781217165617,1.5381465429003627]},{"name":"himbeere_b_part_116_LOD1","mesh":9,"translation":[1.5,-0.0,0.004521173026697356],"rotation":[0.0,0.06249935242111467,0.0,0.9980450044697089],"scale":[0.9946524064171122,1.0028781217165617,1.5381465429003627]},{"name":"himbeere_b_part_117_LOD2","mesh":9,"translation":[1.5,-0.0,0.004521173026697356],"rotation":[0.0,0.06249935242111467,0.0,0.9980450044697089],"scale":[0.9946524064171122,1.0028781217165617,1.5381465429003627]},{"name":"himbeere_b_part_118_LOD3","mesh":9,"translation":[1.5,-0.0,0.004521173026697356],"rotation":[0.0,0.06249935242111467,0.0,0.9980450044697089],"scale":[0.9946524064171122,1.0028781217165617,1.5381465429003627]},{"name":"himbeere_b_part_119_LOD4","mesh":9,"translation":[1.5,-0.0,0.004521173026697356],"rotation":[0.0,0.06249935242111467,0.0,0.9980450044697089],"scale":[0.9946524064171122,1.0028781217165617,1.5381465429003627]},{"name":"himbeere_b_part_120_LOD5","mesh":9,"translation":[1.5,-0.0,0.004521173026697356],"rotation":[0.0,0.06249935242111467,0.0,0.9980450044697089],"scale":[0.9946524064171122,1.0028781217165617,1.5381465429003627]},{"name":"himbeere_b_part_121_LOD6","mesh":9,"translation":[1.5,-0.0,0.004521173026697356],"rotation":[0.0,0.06249935242111467,0.0,0.9980450044697089],"scale":[0.9946524064171122,1.0028781217165617,1.5381465429003627]},{"name":"himbeere_b_part_122_LOD7","mesh":9,"translation":[1.5,-0.0,0.004521173026697356],"rotation":[0.0,0.06249935242111467,0.0,0.9980450044697089],"scale":[0.9946524064171122,1.0028781217165617,1.5381465429003627]},{"name":"berberitze_a_part_123_LOD0","mesh":1,"translation":[2.0999999999999996,-0.0,0.2645871218175344],"rotation":[0.0,0.10400722492072849,0.0,0.9945765416318088],"scale":[0.775,0.9289343314421004,1.6851073150611842]},{"name":"berberitze_a_part_124_LOD1","mesh":1,"translation":[2.0999999999999996,-0.0,0.2645871218175344],"rotation":[0.0,0.10400722492072849,0.0,0.9945765416318088],"scale":[0.775,0.9289343314421004,1.6851073150611842]},{"name":"berberitze_a_part_125_LOD2","mesh":1,"translation":[2.0999999999999996,-0.0,0.2645871218175344],"rotation":[0.0,0.10400722492072849,0.0,0.9945765416318088],"scale":[0.775,0.9289343314421004,1.6851073150611842]},{"name":"berberitze_a_part_126_LOD3","mesh":1,"translation":[2.0999999999999996,-0.0,0.2645871218175344],"rotation":[0.0,0.10400722492072849,0.0,0.9945765416318088],"scale":[0.775,0.9289343314421004,1.6851073150611842]},{"name":"heckenkirsche_a_part_127_LOD0","mesh":5,"translation":[2.7,-0.0,-0.08589574664972024],"rotation":[0.0,0.04914669025716234,0.0,0.9987915712683836],"scale":[0.8454545454545453,0.9725669560417558,1.593231723960483]},{"name":"heckenkirsche_a_part_128_LOD1","mesh":5,"translation":[2.7,-0.0,-0.08589574664972024],"rotation":[0.0,0.04914669025716234,0.0,0.9987915712683836],"scale":[0.8454545454545453,0.9725669560417558,1.593231723960483]},{"name":"leaf_volume_LOD0","mesh":12},{"name":"leaf_volume_LOD1","mesh":13},{"name":"leaf_volume_LOD2","mesh":14},{"name":"leaf_volume_LOD3","mesh":15},{"name":"leaf_volume_LOD4","mesh":16},{"name":"leaf_volume_LOD5","mesh":17},{"name":"leaf_volume_LOD6","mesh":18},{"name":"leaf_volume_LOD7","mesh":19},{"name":"leaf_volume_LOD8","mesh":20},{"name":"leaf_volume_LOD9","mesh":21},{"name":"leaf_volume_LOD10","mesh":22},{"name":"leaf_volume_LOD11","mesh":23}],"meshes":[{"name":"berberitze_a_crown_LOD0","primitives":[{"attributes":{"POSITION":0,"NORMAL":1,"TEXCOORD_0":2},"indices":3,"material":1}]},{"name":"berberitze_a_crown_LOD1","primitives":[{"attributes":{"POSITION":4,"NORMAL":5,"TEXCOORD_0":6},"indices":7,"material":1}]},{"name":"berberitze_a_crown_LOD2","primitives":[{"attributes":{"POSITION":8,"NORMAL":9,"TEXCOORD_0":10},"indices":11,"material":2}]},{"name":"berberitze_a_crown_LOD3","primitives":[{"attributes":{"POSITION":12,"NORMAL":13,"TEXCOORD_0":14},"indices":15,"material":2}]},{"name":"heckenkirsche_a_crown_LOD0","primitives":[{"attributes":{"POSITION":16,"NORMAL":17,"TEXCOORD_0":18},"indices":19,"material":4}]},{"name":"heckenkirsche_a_crown_LOD1","primitives":[{"attributes":{"POSITION":20,"NORMAL":21,"TEXCOORD_0":22},"indices":23,"material":4}]},{"name":"heckenkirsche_a_crown_LOD2","primitives":[{"attributes":{"POSITION":24,"NORMAL":25,"TEXCOORD_0":26},"indices":27,"material":5}]},{"name":"heckenkirsche_a_crown_LOD3","primitives":[{"attributes":{"POSITION":28,"NORMAL":29,"TEXCOORD_0":30},"indices":31,"material":5}]},{"name":"himbeere_b_crown_LOD0","primitives":[{"attributes":{"POSITION":32,"NORMAL":33,"TEXCOORD_0":34},"indices":35,"material":7}]},{"name":"himbeere_b_crown_LOD1","primitives":[{"attributes":{"POSITION":36,"NORMAL":37,"TEXCOORD_0":38},"indices":39,"material":7}]},{"name":"himbeere_b_crown_LOD2","primitives":[{"attributes":{"POSITION":40,"NORMAL":41,"TEXCOORD_0":42},"indices":43,"material":8}]},{"name":"himbeere_b_crown_LOD3","primitives":[{"attributes":{"POSITION":44,"NORMAL":45,"TEXCOORD_0":46},"indices":47,"material":8}]},{"name":"hainbuchenhecke_leaf_volume_LOD0","primitives":[{"attributes":{"POSITION":48,"NORMAL":49,"TEXCOORD_0":50},"indices":51,"material":9}]},{"name":"hainbuchenhecke_leaf_volume_LOD1","primitives":[{"attributes":{"POSITION":52,"NORMAL":53,"TEXCOORD_0":54},"indices":55,"material":10}]},{"name":"hainbuchenhecke_leaf_volume_LOD2","primitives":[{"attributes":{"POSITION":56,"NORMAL":57,"TEXCOORD_0":58},"indices":59,"material":11}]},{"name":"hainbuchenhecke_leaf_volume_LOD3","primitives":[{"attributes":{"POSITION":60,"NORMAL":61,"TEXCOORD_0":62},"indices":63,"material":12}]},{"name":"hainbuchenhecke_leaf_volume_LOD4","primitives":[{"attributes":{"POSITION":64,"NORMAL":65,"TEXCOORD_0":66},"indices":67,"material":13}]},{"name":"hainbuchenhecke_leaf_volume_LOD5","primitives":[{"attributes":{"POSITION":68,"NORMAL":69,"TEXCOORD_0":70},"indices":71,"material":14}]},{"name":"hainbuchenhecke_leaf_volume_LOD6","primitives":[{"attributes":{"POSITION":72,"NORMAL":73,"TEXCOORD_0":74},"indices":75,"material":15}]},{"name":"hainbuchenhecke_leaf_volume_LOD7","primitives":[{"attributes":{"POSITION":76,"NORMAL":77,"TEXCOORD_0":78},"indices":79,"material":16}]},{"name":"hainbuchenhecke_leaf_volume_LOD8","primitives":[{"attributes":{"POSITION":80,"NORMAL":81,"TEXCOORD_0":82},"indices":83,"material":17}]},{"name":"hainbuchenhecke_leaf_volume_LOD9","primitives":[{"attributes":{"POSITION":84,"NORMAL":85,"TEXCOORD_0":86},"indices":87,"material":18}]},{"name":"hainbuchenhecke_leaf_volume_LOD10","primitives":[{"attributes":{"POSITION":88,"NORMAL":89,"TEXCOORD_0":90},"indices":91,"material":19}]},{"name":"hainbuchenhecke_leaf_volume_LOD11","primitives":[{"attributes":{"POSITION":92,"NORMAL":93,"TEXCOORD_0":94},"indices":95,"material":20}]}],"buffers":[{"uri":"berberitze_a.bin","byteLength":494748},{"uri":"heckenkirsche_a.bin","byteLength":494748},{"uri":"himbeere_b.bin","byteLength":184940},{"uri":"hainbuchenhecke_a_hedge.bin","byteLength":8841000}],"bufferViews":[{"buffer":0,"byteOffset":0,"byteLength":105048,"target":34962},{"buffer":0,"byteOffset":105048,"byteLength":105048,"target":34962},{"buffer":0,"byteOffset":210096,"byteLength":70032,"target":34962},{"buffer":0,"byteOffset":280128,"byteLength":43392,"target":34963},{"buffer":0,"byteOffset":323520,"byteLength":56400,"target":34962},{"buffer":0,"byteOffset":379920,"byteLength":56400,"target":34962},{"buffer":0,"byteOffset":436320,"byteLength":37600,"target":34962},{"buffer":0,"byteOffset":473920,"byteLength":19986,"target":34963},{"buffer":0,"byteOffset":493908,"byteLength":192,"target":34962},{"buffer":0,"byteOffset":494100,"byteLength":192,"target":34962},{"buffer":0,"byteOffset":494292,"byteLength":128,"target":34962},{"buffer":0,"byteOffset":494420,"byteLength":48,"target":34963},{"buffer":0,"byteOffset":494468,"byteLength":96,"target":34962},{"buffer":0,"byteOffset":494564,"byteLength":96,"target":34962},{"buffer":0,"byteOffset":494660,"byteLength":64,"target":34962},{"buffer":0,"byteOffset":494724,"byteLength":24,"target":34963},{"buffer":1,"byteOffset":0,"byteLength":105048,"target":34962},{"buffer":1,"byteOffset":105048,"byteLength":105048,"target":34962},{"buffer":1,"byteOffset":210096,"byteLength":70032,"target":34962},{"buffer":1,"byteOffset":280128,"byteLength":43392,"target":34963},{"buffer":1,"byteOffset":323520,"byteLength":56400,"target":34962},{"buffer":1,"byteOffset":379920,"byteLength":56400,"target":34962},{"buffer":1,"byteOffset":436320,"byteLength":37600,"target":34962},{"buffer":1,"byteOffset":473920,"byteLength":19986,"target":34963},{"buffer":1,"byteOffset":493908,"byteLength":192,"target":34962},{"buffer":1,"byteOffset":494100,"byteLength":192,"target":34962},{"buffer":1,"byteOffset":494292,"byteLength":128,"target":34962},{"buffer":1,"byteOffset":494420,"byteLength":48,"target":34963},{"buffer":1,"byteOffset":494468,"byteLength":96,"target":34962},{"buffer":1,"byteOffset":494564,"byteLength":96,"target":34962},{"buffer":1,"byteOffset":494660,"byteLength":64,"target":34962},{"buffer":1,"byteOffset":494724,"byteLength":24,"target":34963},{"buffer":2,"byteOffset":0,"byteLength":44904,"target":34962},{"buffer":2,"byteOffset":44904,"byteLength":44904,"target":34962},{"buffer":2,"byteOffset":89808,"byteLength":29936,"target":34962},{"buffer":2,"byteOffset":119744,"byteLength":36384,"target":34963},{"buffer":2,"byteOffset":156128,"byteLength":8532,"target":34962},{"buffer":2,"byteOffset":164660,"byteLength":8532,"target":34962},{"buffer":2,"byteOffset":173192,"byteLength":5688,"target":34962},{"buffer":2,"byteOffset":178880,"byteLength":5220,"target":34963},{"buffer":2,"byteOffset":184100,"byteLength":192,"target":34962},{"buffer":2,"byteOffset":184292,"byteLength":192,"target":34962},{"buffer":2,"byteOffset":184484,"byteLength":128,"target":34962},{"buffer":2,"byteOffset":184612,"byteLength":48,"target":34963},{"buffer":2,"byteOffset":184660,"byteLength":96,"target":34962},{"buffer":2,"byteOffset":184756,"byteLength":96,"target":34962},{"buffer":2,"byteOffset":184852,"byteLength":64,"target":34962},{"buffer":2,"byteOffset":184916,"byteLength":24,"target":34963},{"buffer":3,"byteOffset":0,"byteLength":345600,"target":34962},{"buffer":3,"byteOffset":345600,"byteLength":345600,"target":34962},{"buffer":3,"byteOffset":691200,"byteLength":230400,"target":34962},{"buffer":3,"byteOffset":921600,"byteLength":86400,"target":34963},{"buffer":3,"byteOffset":1008000,"byteLength":268800,"target":34962},{"buffer":3,"byteOffset":1276800,"byteLength":268800,"target":34962},{"buffer":3,"byteOffset":1545600,"byteLength":179200,"target":34962},{"buffer":3,"byteOffset":1724800,"byteLength":67200,"target":34963},{"buffer":3,"byteOffset":1792000,"byteLength":264000,"target":34962},{"buffer":3,"byteOffset":2056000,"byteLength":264000,"target":34962},{"buffer":3,"byteOffset":2320000,"byteLength":176000,"target":34962},{"buffer":3,"byteOffset":2496000,"byteLength":66000,"target":34963},{"buffer":3,"byteOffset":2562000,"byteLength":259200,"target":34962},{"buffer":3,"byteOffset":2821200,"byteLength":259200,"target":34962},{"buffer":3,"byteOffset":3080400,"byteLength":172800,"target":34962},{"buffer":3,"byteOffset":3253200,"byteLength":64800,"target":34963},{"buffer":3,"byteOffset":3318000,"byteLength":254400,"target":34962},{"buffer":3,"byteOffset":3572400,"byteLength":254400,"target":34962},{"buffer":3,"byteOffset":3826800,"byteLength":169600,"target":34962},{"buffer":3,"byteOffset":3996400,"byteLength":63600,"target":34963},{"buffer":3,"byteOffset":4060000,"byteLength":249600,"target":34962},{"buffer":3,"byteOffset":4309600,"byteLength":249600,"target":34962},{"buffer":3,"byteOffset":4559200,"byteLength":166400,"target":34962},{"buffer":3,"byteOffset":4725600,"byteLength":62400,"target":34963},{"buffer":3,"byteOffset":4788000,"byteLength":244800,"target":34962},{"buffer":3,"byteOffset":5032800,"byteLength":244800,"target":34962},{"buffer":3,"byteOffset":5277600,"byteLength":163200,"target":34962},{"buffer":3,"byteOffset":5440800,"byteLength":61200,"target":34963},{"buffer":3,"byteOffset":5502000,"byteLength":240000,"target":34962},{"buffer":3,"byteOffset":5742000,"byteLength":240000,"target":34962},{"buffer":3,"byteOffset":5982000,"byteLength":160000,"target":34962},{"buffer":3,"byteOffset":6142000,"byteLength":60000,"target":34963},{"buffer":3,"byteOffset":6202000,"byteLength":235200,"target":34962},{"buffer":3,"byteOffset":6437200,"byteLength":235200,"target":34962},{"buffer":3,"byteOffset":6672400,"byteLength":156800,"target":34962},{"buffer":3,"byteOffset":6829200,"byteLength":58800,"target":34963},{"buffer":3,"byteOffset":6888000,"byteLength":230400,"target":34962},{"buffer":3,"byteOffset":7118400,"byteLength":230400,"target":34962},{"buffer":3,"byteOffset":7348800,"byteLength":153600,"target":34962},{"buffer":3,"byteOffset":7502400,"byteLength":57600,"target":34963},{"buffer":3,"byteOffset":7560000,"byteLength":223200,"target":34962},{"buffer":3,"byteOffset":7783200,"byteLength":223200,"target":34962},{"buffer":3,"byteOffset":8006400,"byteLength":148800,"target":34962},{"buffer":3,"byteOffset":8155200,"byteLength":55800,"target":34963},{"buffer":3,"byteOffset":8211000,"byteLength":216000,"target":34962},{"buffer":3,"byteOffset":8427000,"byteLength":216000,"target":34962},{"buffer":3,"byteOffset":8643000,"byteLength":144000,"target":34962},{"buffer":3,"byteOffset":8787000,"byteLength":54000,"target":34963}],"accessors":[{"bufferView":0,"componentType":5126,"count":8754,"type":"VEC3","min":[-0.6,0.0,-0.44084915485974513],"max":[0.6,1.0,0.44084915485974513]},{"bufferView":1,"componentType":5126,"count":8754,"type":"VEC3","min":[-0.9996581077575684,-0.9998005628585815,-0.9986739158630371],"max":[0.9992280602455139,0.9999603033065796,0.9998832941055298]},{"bufferView":2,"componentType":5126,"count":8754,"type":"VEC2"},{"bufferView":3,"componentType":5123,"count":21696,"type":"SCALAR","min":[0],"max":[8753]},{"bufferView":4,"componentType":5126,"count":4700,"type":"VEC3","min":[-0.5985137941033843,1.6705947594052684e-05,-0.429394819732279],"max":[0.6075642061475794,1.000045272121852,0.42910687753606314]},{"bufferView":5,"componentType":5126,"count":4700,"type":"VEC3","min":[-0.9976669549942017,-0.99940425157547,-0.9989551305770874],"max":[0.9989135265350342,0.9999603033065796,0.9998118281364441]},{"bufferView":6,"componentType":5126,"count":4700,"type":"VEC2"},{"bufferView":7,"componentType":5123,"count":9993,"type":"SCALAR","min":[0],"max":[4699]},{"bufferView":8,"componentType":5126,"count":16,"type":"VEC3","min":[-0.66,0,-0.66],"max":[0.66,1.0,0.66]},{"bufferView":9,"componentType":5126,"count":16,"type":"VEC3","min":[-1.0,0,-0.7071067811865475],"max":[-0.0,0,1.0]},{"bufferView":10,"componentType":5126,"count":16,"type":"VEC2"},{"bufferView":11,"componentType":5123,"count":24,"type":"SCALAR","min":[0],"max":[15]},{"bufferView":12,"componentType":5126,"count":8,"type":"VEC3","min":[-0.66,0,-0.66],"max":[0.66,1.0,0.66]},{"bufferView":13,"componentType":5126,"count":8,"type":"VEC3","min":[-1.0,0,6.123233995736766e-17],"max":[-0.0,0,1.0]},{"bufferView":14,"componentType":5126,"count":8,"type":"VEC2"},{"bufferView":15,"componentType":5123,"count":12,"type":"SCALAR","min":[0],"max":[7]},{"bufferView":16,"componentType":5126,"count":8754,"type":"VEC3","min":[-0.55,0.0,-0.4041117252880997],"max":[0.55,1.0,0.4041117252880997]},{"bufferView":17,"componentType":5126,"count":8754,"type":"VEC3","min":[-0.9996779561042786,-0.9997625946998596,-0.9988284111022949],"max":[0.999296247959137,0.9999527335166931,0.9998937249183655]},{"bufferView":18,"componentType":5126,"count":8754,"type":"VEC2"},{"bufferView":19,"componentType":5123,"count":21696,"type":"SCALAR","min":[0],"max":[8753]},{"bufferView":20,"componentType":5126,"count":4700,"type":"VEC3","min":[-0.5486376445947689,1.6705947594052684e-05,-0.39361191808792245],"max":[0.5569338556352812,1.000045272121852,0.3933479710747246]},{"bufferView":21,"componentType":5126,"count":4700,"type":"VEC3","min":[-0.9976954460144043,-0.999291181564331,-0.9989568591117859],"max":[0.998948872089386,0.9999527335166931,0.9998225569725037]},{"bufferView":22,"componentType":5126,"count":4700,"type":"VEC2"},{"bufferView":23,"componentType":5123,"count":9993,"type":"SCALAR","min":[0],"max":[4699]},{"bufferView":24,"componentType":5126,"count":16,"type":"VEC3","min":[-0.6050000000000001,0,-0.6050000000000001],"max":[0.6050000000000001,1.0,0.6050000000000001]},{"bufferView":25,"componentType":5126,"count":16,"type":"VEC3","min":[-1.0,0,-0.7071067811865475],"max":[-0.0,0,1.0]},{"bufferView":26,"componentType":5126,"count":16,"type":"VEC2"},{"bufferView":27,"componentType":5123,"count":24,"type":"SCALAR","min":[0],"max":[15]},{"bufferView":28,"componentType":5126,"count":8,"type":"VEC3","min":[-0.6050000000000001,0,-0.6050000000000001],"max":[0.6050000000000001,1.0,0.6050000000000001]},{"bufferView":29,"componentType":5126,"count":8,"type":"VEC3","min":[-1.0,0,6.123233995736766e-17],"max":[-0.0,0,1.0]},{"bufferView":30,"componentType":5126,"count":8,"type":"VEC2"},{"bufferView":31,"componentType":5123,"count":12,"type":"SCALAR","min":[0],"max":[7]},{"bufferView":32,"componentType":5126,"count":3742,"type":"VEC3","min":[-0.4675,0.0,-0.4498948973936197],"max":[0.4675,1.1,0.4498948973936197]},{"bufferView":33,"componentType":5126,"count":3742,"type":"VEC3","min":[-0.9961062669754028,-0.5310803055763245,-0.9999850988388062],"max":[0.9980489611625671,0.9998307824134827,0.9981037974357605]},{"bufferView":34,"componentType":5126,"count":3742,"type":"VEC2"},{"bufferView":35,"componentType":5123,"count":18192,"type":"SCALAR","min":[0],"max":[3741]},{"bufferView":36,"componentType":5126,"count":711,"type":"VEC3","min":[-0.4671776978737864,0.0,-0.44979525027712636],"max":[0.46740563778053823,1.1,0.4498948973936197]},{"bufferView":37,"componentType":5126,"count":711,"type":"VEC3","min":[-0.9960769414901733,-0.28742703795433044,-0.99998539686203],"max":[0.9766634106636047,0.9998952150344849,0.9995871186256409]},{"bufferView":38,"componentType":5126,"count":711,"type":"VEC2"},{"bufferView":39,"componentType":5123,"count":2610,"type":"SCALAR","min":[0],"max":[710]},{"bufferView":40,"componentType":5126,"count":16,"type":"VEC3","min":[-0.5142500000000001,0,-0.5142500000000001],"max":[0.5142500000000001,1.1,0.5142500000000001]},{"bufferView":41,"componentType":5126,"count":16,"type":"VEC3","min":[-1.0,0,-0.7071067811865475],"max":[-0.0,0,1.0]},{"bufferView":42,"componentType":5126,"count":16,"type":"VEC2"},{"bufferView":43,"componentType":5123,"count":24,"type":"SCALAR","min":[0],"max":[15]},{"bufferView":44,"componentType":5126,"count":8,"type":"VEC3","min":[-0.5142500000000001,0,-0.5142500000000001],"max":[0.5142500000000001,1.1,0.5142500000000001]},{"bufferView":45,"componentType":5126,"count":8,"type":"VEC3","min":[-1.0,0,6.123233995736766e-17],"max":[-0.0,0,1.0]},{"bufferView":46,"componentType":5126,"count":8,"type":"VEC2"},{"bufferView":47,"componentType":5123,"count":12,"type":"SCALAR","min":[0],"max":[7]},{"bufferView":48,"componentType":5126,"count":28800,"type":"VEC3","min":[-3.1134996001389115,0.017211914960982386,-0.820687848848147],"max":[3.1059050387699485,1.656781811138459,0.8323852560990507]},{"bufferView":49,"componentType":5126,"count":28800,"type":"VEC3","min":[-1.0,-0.14993844726726424,-1.0],"max":[1.0,1.0,1.0]},{"bufferView":50,"componentType":5126,"count":28800,"type":"VEC2"},{"bufferView":51,"componentType":5123,"count":43200,"type":"SCALAR","min":[0],"max":[28799]},{"bufferView":52,"componentType":5126,"count":22400,"type":"VEC3","min":[-3.213953442973082,-0.04869742185235584,-0.9541006489512597],"max":[3.1944726055843375,1.7208510767960552,0.9382071225418479]},{"bufferView":53,"componentType":5126,"count":22400,"type":"VEC3","min":[-1.0,-0.14997020043859444,-1.0],"max":[1.0,1.0,1.0]},{"bufferView":54,"componentType":5126,"count":22400,"type":"VEC2"},{"bufferView":55,"componentType":5123,"count":33600,"type":"SCALAR","min":[0],"max":[22399]},{"bufferView":56,"componentType":5126,"count":22000,"type":"VEC3","min":[-3.3177933824196977,-0.11609572331839849,-1.013439474448097],"max":[3.3011538138393153,1.7796861483606177,1.0253641536053122]},{"bufferView":57,"componentType":5126,"count":22000,"type":"VEC3","min":[-1.0,-0.1499587346556105,-1.0],"max":[1.0,1.0,1.0]},{"bufferView":58,"componentType":5126,"count":22000,"type":"VEC2"},{"bufferView":59,"componentType":5123,"count":33000,"type":"SCALAR","min":[0],"max":[21999]},{"bufferView":60,"componentType":5126,"count":21600,"type":"VEC3","min":[-3.4051865581449947,-0.1597675323225633,-1.1473761026365166],"max":[3.419672394425394,1.845373821742567,1.1324500033125235]},{"bufferView":61,"componentType":5126,"count":21600,"type":"VEC3","min":[-1.0,-0.14995412744082845,-1.0],"max":[1.0,1.0,1.0]},{"bufferView":62,"componentType":5126,"count":21600,"type":"VEC2"},{"bufferView":63,"componentType":5123,"count":32400,"type":"SCALAR","min":[0],"max":[21599]},{"bufferView":64,"componentType":5126,"count":21200,"type":"VEC3","min":[-3.569903121319184,-0.2836893340579602,-1.2391643284897633],"max":[3.5356432190350566,1.9385840976377864,1.2864123611706657]},{"bufferView":65,"componentType":5126,"count":21200,"type":"VEC3","min":[-1.0,-0.14994984412991394,-1.0],"max":[1.0,1.0,1.0]},{"bufferView":66,"componentType":5126,"count":21200,"type":"VEC2"},{"bufferView":67,"componentType":5123,"count":31800,"type":"SCALAR","min":[0],"max":[21199]},{"bufferView":68,"componentType":5126,"count":20800,"type":"VEC3","min":[-3.7453067337980297,-0.42987465677371145,-1.4623014276822406],"max":[3.7438290605183444,2.04994184976281,1.4685399580503193]},{"bufferView":69,"componentType":5126,"count":20800,"type":"VEC3","min":[-1.0,-0.14994440847053433,-1.0],"max":[1.0,1.0,1.0]},{"bufferView":70,"componentType":5126,"count":20800,"type":"VEC2"},{"bufferView":71,"componentType":5123,"count":31200,"type":"SCALAR","min":[0],"max":[20799]},{"bufferView":72,"componentType":5126,"count":20400,"type":"VEC3","min":[-3.9520776892096117,-0.5597451907791063,-1.6852309255649431],"max":[3.9435527915962525,2.212432188526379,1.6795492457738832]},{"bufferView":73,"componentType":5126,"count":20400,"type":"VEC3","min":[-1.0,-0.14996547227491588,-1.0],"max":[1.0,1.0,1.0]},{"bufferView":74,"componentType":5126,"count":20400,"type":"VEC2"},{"bufferView":75,"componentType":5123,"count":30600,"type":"SCALAR","min":[0],"max":[20399]},{"bufferView":76,"componentType":5126,"count":20000,"type":"VEC3","min":[-4.256694777642517,-0.7497763327929002,-1.9030911003889541],"max":[4.219992455718074,2.396240780696121,1.9155972066363123]},{"bufferView":77,"componentType":5126,"count":20000,"type":"VEC3","min":[-1.0,-0.14990802371185039,-1.0],"max":[1.0,1.0,1.0]},{"bufferView":78,"componentType":5126,"count":20000,"type":"VEC2"},{"bufferView":79,"componentType":5123,"count":30000,"type":"SCALAR","min":[0],"max":[19999]},{"bufferView":80,"componentType":5126,"count":19600,"type":"VEC3","min":[-4.49382300193689,-0.8837336881906217,-2.2315602668323558],"max":[4.490615707184494,2.60271283763813,2.1890395626426034]},{"bufferView":81,"componentType":5126,"count":19600,"type":"VEC3","min":[-1.0,-0.14998902114296872,-1.0],"max":[1.0,1.0,1.0]},{"bufferView":82,"componentType":5126,"count":19600,"type":"VEC2"},{"bufferView":83,"componentType":5123,"count":29400,"type":"SCALAR","min":[0],"max":[19599]},{"bufferView":84,"componentType":5126,"count":19200,"type":"VEC3","min":[-4.846192113069144,-1.214028332778712,-2.4820252500041557],"max":[4.795668002350338,2.8254344370333495,2.5533664387761905]},{"bufferView":85,"componentType":5126,"count":19200,"type":"VEC3","min":[-1.0,-0.14989512204573394,-1.0],"max":[1.0,1.0,1.0]},{"bufferView":86,"componentType":5126,"count":19200,"type":"VEC2"},{"bufferView":87,"componentType":5123,"count":28800,"type":"SCALAR","min":[0],"max":[19199]},{"bufferView":88,"componentType":5126,"count":18600,"type":"VEC3","min":[-5.127055519974093,-1.433118884441925,-2.9228164929287272],"max":[5.17419445081271,3.1017748703435615,2.852088088735404]},{"bufferView":89,"componentType":5126,"count":18600,"type":"VEC3","min":[-1.0,-0.14999717909210428,-1.0],"max":[1.0,1.0,1.0]},{"bufferView":90,"componentType":5126,"count":18600,"type":"VEC2"},{"bufferView":91,"componentType":5123,"count":27900,"type":"SCALAR","min":[0],"max":[18599]},{"bufferView":92,"componentType":5126,"count":18000,"type":"VEC3","min":[-5.537080453416493,-1.6962161080132518,-3.3459099966878565],"max":[5.590006310929198,3.3497566730713646,3.2254414005354906]},{"bufferView":93,"componentType":5126,"count":18000,"type":"VEC3","min":[-1.0,-0.14993448927036365,-1.0],"max":[1.0,1.0,1.0]},{"bufferView":94,"componentType":5126,"count":18000,"type":"VEC2"},{"bufferView":95,"componentType":5123,"count":27000,"type":"SCALAR","min":[0],"max":[17999]}],"images":[{"uri":"textures/poly_searsia_lucida.png"},{"uri":"textures/poly_searsia_lucida.png"},{"uri":"impostors/berberitze_a_autumn.png"},{"uri":"textures/poly_searsia_lucida.png"},{"uri":"textures/poly_searsia_lucida.png"},{"uri":"impostors/heckenkirsche_a_autumn.png"},{"uri":"textures/poly_shrub_01.png"},{"uri":"textures/poly_shrub_01.png"},{"uri":"impostors/himbeere_b_autumn.png"},{"uri":"textures/poly_searsia_lucida.png"}],"samplers":[{"magFilter":9729,"minFilter":9987,"wrapS":10497,"wrapT":10497},{"magFilter":9729,"minFilter":9987,"wrapS":10497,"wrapT":10497},{"magFilter":9729,"minFilter":9987,"wrapS":10497,"wrapT":10497},{"magFilter":9729,"minFilter":9987,"wrapS":10497,"wrapT":10497}],"textures":[{"source":0,"sampler":0},{"source":1,"sampler":0},{"source":2,"sampler":0},{"source":3,"sampler":1},{"source":4,"sampler":1},{"source":5,"sampler":1},{"source":6,"sampler":2},{"source":7,"sampler":2},{"source":8,"sampler":2},{"source":9,"sampler":3}],"materials":[{"name":"berberitze_a_bark","pbrMetallicRoughness":{"baseColorFactor":[0.82,0.82,0.82,1.0],"baseColorTexture":{"index":0},"metallicFactor":0.0,"roughnessFactor":0.91},"doubleSided":false},{"name":"berberitze_a_foliage","pbrMetallicRoughness":{"baseColorFactor":[0.72,0.42,0.09,1.0],"baseColorTexture":{"index":1},"metallicFactor":0.0,"roughnessFactor":0.78},"doubleSided":true,"alphaMode":"MASK","alphaCutoff":0.18},{"name":"berberitze_a_whole_tree_impostor","pbrMetallicRoughness":{"baseColorFactor":[1,1,1,1],"baseColorTexture":{"index":2},"metallicFactor":0.0,"roughnessFactor":0.92},"doubleSided":true,"alphaMode":"MASK","alphaCutoff":0.18},{"name":"heckenkirsche_a_bark","pbrMetallicRoughness":{"baseColorFactor":[0.82,0.82,0.82,1.0],"baseColorTexture":{"index":3},"metallicFactor":0.0,"roughnessFactor":0.91},"doubleSided":false},{"name":"heckenkirsche_a_foliage","pbrMetallicRoughness":{"baseColorFactor":[0.72,0.42,0.09,1.0],"baseColorTexture":{"index":4},"metallicFactor":0.0,"roughnessFactor":0.78},"doubleSided":true,"alphaMode":"MASK","alphaCutoff":0.18},{"name":"heckenkirsche_a_whole_tree_impostor","pbrMetallicRoughness":{"baseColorFactor":[1,1,1,1],"baseColorTexture":{"index":5},"metallicFactor":0.0,"roughnessFactor":0.92},"doubleSided":true,"alphaMode":"MASK","alphaCutoff":0.18},{"name":"himbeere_b_bark","pbrMetallicRoughness":{"baseColorFactor":[0.82,0.82,0.82,1.0],"baseColorTexture":{"index":6},"metallicFactor":0.0,"roughnessFactor":0.91},"doubleSided":false},{"name":"himbeere_b_foliage","pbrMetallicRoughness":{"baseColorFactor":[0.72,0.42,0.09,1.0],"baseColorTexture":{"index":7},"metallicFactor":0.0,"roughnessFactor":0.78},"doubleSided":true,"alphaMode":"MASK","alphaCutoff":0.18},{"name":"himbeere_b_whole_tree_impostor","pbrMetallicRoughness":{"baseColorFactor":[1,1,1,1],"baseColorTexture":{"index":8},"metallicFactor":0.0,"roughnessFactor":0.92},"doubleSided":true,"alphaMode":"MASK","alphaCutoff":0.18},{"name":"hainbuchenhecke_individual_leaves_LOD0","pbrMetallicRoughness":{"baseColorFactor":[0.78,0.5,0.14,1.0],"baseColorTexture":{"index":9},"metallicFactor":0.0,"roughnessFactor":0.82},"doubleSided":true,"alphaMode":"MASK","alphaCutoff":0.18},{"name":"hainbuchenhecke_individual_leaves_LOD1","pbrMetallicRoughness":{"baseColorFactor":[0.78,0.5,0.14,1.0],"baseColorTexture":{"index":9},"metallicFactor":0.0,"roughnessFactor":0.82},"doubleSided":true,"alphaMode":"MASK","alphaCutoff":0.08},{"name":"hainbuchenhecke_individual_leaves_LOD2","pbrMetallicRoughness":{"baseColorFactor":[0.78,0.5,0.14,1.0],"baseColorTexture":{"index":9},"metallicFactor":0.0,"roughnessFactor":0.82},"doubleSided":true,"alphaMode":"MASK","alphaCutoff":0.065},{"name":"hainbuchenhecke_individual_leaves_LOD3","pbrMetallicRoughness":{"baseColorFactor":[0.78,0.5,0.14,1.0],"baseColorTexture":{"index":9},"metallicFactor":0.0,"roughnessFactor":0.82},"doubleSided":true,"alphaMode":"MASK","alphaCutoff":0.055},{"name":"hainbuchenhecke_individual_leaves_LOD4","pbrMetallicRoughness":{"baseColorFactor":[0.78,0.5,0.14,1.0],"baseColorTexture":{"index":9},"metallicFactor":0.0,"roughnessFactor":0.82},"doubleSided":true,"alphaMode":"MASK","alphaCutoff":0.045},{"name":"hainbuchenhecke_individual_leaves_LOD5","pbrMetallicRoughness":{"baseColorFactor":[0.78,0.5,0.14,1.0],"baseColorTexture":{"index":9},"metallicFactor":0.0,"roughnessFactor":0.82},"doubleSided":true,"alphaMode":"MASK","alphaCutoff":0.038},{"name":"hainbuchenhecke_individual_leaves_LOD6","pbrMetallicRoughness":{"baseColorFactor":[0.78,0.5,0.14,1.0],"baseColorTexture":{"index":9},"metallicFactor":0.0,"roughnessFactor":0.82},"doubleSided":true,"alphaMode":"MASK","alphaCutoff":0.032},{"name":"hainbuchenhecke_individual_leaves_LOD7","pbrMetallicRoughness":{"baseColorFactor":[0.78,0.5,0.14,1.0],"baseColorTexture":{"index":9},"metallicFactor":0.0,"roughnessFactor":0.82},"doubleSided":true,"alphaMode":"MASK","alphaCutoff":0.027},{"name":"hainbuchenhecke_individual_leaves_LOD8","pbrMetallicRoughness":{"baseColorFactor":[0.78,0.5,0.14,1.0],"baseColorTexture":{"index":9},"metallicFactor":0.0,"roughnessFactor":0.82},"doubleSided":true,"alphaMode":"MASK","alphaCutoff":0.023},{"name":"hainbuchenhecke_individual_leaves_LOD9","pbrMetallicRoughness":{"baseColorFactor":[0.78,0.5,0.14,1.0],"baseColorTexture":{"index":9},"metallicFactor":0.0,"roughnessFactor":0.82},"doubleSided":true,"alphaMode":"MASK","alphaCutoff":0.02},{"name":"hainbuchenhecke_individual_leaves_LOD10","pbrMetallicRoughness":{"baseColorFactor":[0.78,0.5,0.14,1.0],"baseColorTexture":{"index":9},"metallicFactor":0.0,"roughnessFactor":0.82},"doubleSided":true,"alphaMode":"MASK","alphaCutoff":0.017},{"name":"hainbuchenhecke_individual_leaves_LOD11","pbrMetallicRoughness":{"baseColorFactor":[0.78,0.5,0.14,1.0],"baseColorTexture":{"index":9},"metallicFactor":0.0,"roughnessFactor":0.82},"doubleSided":true,"alphaMode":"MASK","alphaCutoff":0.015}]}