{"asset":{"version":"2.0","generator":"Connected Rails CC0 hedge composer","copyright":"Mantissa and Poly Haven source models: CC0 1.0; hedge composition: Connected Rails"},"scene":0,"scenes":[{"nodes":[0,1,2,3,4,5,6,7,8,9,10,11]}],"nodes":[{"name":"hedge_LOD0","children":[12,16,18,20,22,34,36,40,50,52,58,62,74,78,89,91,93,101,113,115,121,129]},{"name":"hedge_LOD1","children":[13,17,19,21,23,35,37,41,51,53,59,63,75,79,90,92,94,102,114,116,122,130]},{"name":"hedge_LOD2","children":[14,24,38,42,54,60,64,76,80,95,103,117,123,131]},{"name":"hedge_LOD3","children":[15,25,39,43,55,61,65,77,81,96,104,118,124,132]},{"name":"hedge_LOD4","children":[26,44,56,66,82,97,105,119,125,133]},{"name":"hedge_LOD5","children":[27,45,57,67,83,98,106,120,126,134]},{"name":"hedge_LOD6","children":[28,46,68,84,99,107,127,135]},{"name":"hedge_LOD7","children":[29,47,69,85,100,108,128,136]},{"name":"hedge_LOD8","children":[30,48,70,86,109,137]},{"name":"hedge_LOD9","children":[31,49,71,87,110,138]},{"name":"hedge_LOD10","children":[32,72,88,111,139]},{"name":"hedge_LOD11","children":[33,73,112,140]},{"name":"himbeere_b_part_12_LOD0","mesh":1,"translation":[-3.0,-0.0,-0.14993522294887718],"rotation":[0.0,0.07471699397481478,0.0,0.9972047787748349],"scale":[0.9304812834224598,2.3202666329231776,1.4386965819190032]},{"name":"himbeere_b_part_13_LOD1","mesh":1,"translation":[-3.0,-0.0,-0.14993522294887718],"rotation":[0.0,0.07471699397481478,0.0,0.9972047787748349],"scale":[0.9304812834224598,2.3202666329231776,1.4386965819190032]},{"name":"himbeere_b_part_14_LOD2","mesh":1,"translation":[-3.0,-0.0,-0.14993522294887718],"rotation":[0.0,0.07471699397481478,0.0,0.9972047787748349],"scale":[0.9304812834224598,2.3202666329231776,1.4386965819190032]},{"name":"himbeere_b_part_15_LOD3","mesh":1,"translation":[-3.0,-0.0,-0.14993522294887718],"rotation":[0.0,0.07471699397481478,0.0,0.9972047787748349],"scale":[0.9304812834224598,2.3202666329231776,1.4386965819190032]},{"name":"berberitze_a_part_16_LOD0","mesh":5,"translation":[-2.4,-0.0,0.070241557683931],"rotation":[0.0,0.06068542612766703,0.0,0.9981569410947877],"scale":[0.725,2.4618368702477067,1.6110071687585106]},{"name":"berberitze_a_part_17_LOD1","mesh":5,"translation":[-2.4,-0.0,0.070241557683931],"rotation":[0.0,0.06068542612766703,0.0,0.9981569410947877],"scale":[0.725,2.4618368702477067,1.6110071687585106]},{"name":"heckenkirsche_a_part_18_LOD0","mesh":9,"translation":[-1.8,-0.0,0.07562061172837439],"rotation":[0.0,0.012731173091407864,0.0,0.9999189553317391],"scale":[0.7909090909090909,2.5901706550071073,1.8019585591435792]},{"name":"heckenkirsche_a_part_19_LOD1","mesh":9,"translation":[-1.8,-0.0,0.07562061172837439],"rotation":[0.0,0.012731173091407864,0.0,0.9999189553317391],"scale":[0.7909090909090909,2.5901706550071073,1.8019585591435792]},{"name":"himbeere_b_part_20_LOD0","mesh":1,"translation":[-1.2000000000000002,-0.0,-0.14655479663617377],"rotation":[0.0,-0.00928160424311962,0.0,0.9999569249836086],"scale":[0.9304812834224598,2.2357127687756964,1.4011415634818052]},{"name":"himbeere_b_part_21_LOD1","mesh":1,"translation":[-1.2000000000000002,-0.0,-0.14655479663617377],"rotation":[0.0,-0.00928160424311962,0.0,0.9999569249836086],"scale":[0.9304812834224598,2.2357127687756964,1.4011415634818052]},{"name":"berberitze_a_part_22_LOD0","mesh":5,"translation":[-0.6000000000000001,-0.0,-0.0986575643881791],"rotation":[0.0,0.005725120919099857,0.0,0.999983611360937],"scale":[0.725,2.5993366302050376,1.597045291784892]},{"name":"berberitze_a_part_23_LOD1","mesh":5,"translation":[-0.6000000000000001,-0.0,-0.0986575643881791],"rotation":[0.0,0.005725120919099857,0.0,0.999983611360937],"scale":[0.725,2.5993366302050376,1.597045291784892]},{"name":"berberitze_a_part_24_LOD2","mesh":5,"translation":[-0.6000000000000001,-0.0,-0.0986575643881791],"rotation":[0.0,0.005725120919099857,0.0,0.999983611360937],"scale":[0.725,2.5993366302050376,1.597045291784892]},{"name":"berberitze_a_part_25_LOD3","mesh":5,"translation":[-0.6000000000000001,-0.0,-0.0986575643881791],"rotation":[0.0,0.005725120919099857,0.0,0.999983611360937],"scale":[0.725,2.5993366302050376,1.597045291784892]},{"name":"berberitze_a_part_26_LOD4","mesh":5,"translation":[-0.6000000000000001,-0.0,-0.0986575643881791],"rotation":[0.0,0.005725120919099857,0.0,0.999983611360937],"scale":[0.725,2.5993366302050376,1.597045291784892]},{"name":"berberitze_a_part_27_LOD5","mesh":5,"translation":[-0.6000000000000001,-0.0,-0.0986575643881791],"rotation":[0.0,0.005725120919099857,0.0,0.999983611360937],"scale":[0.725,2.5993366302050376,1.597045291784892]},{"name":"berberitze_a_part_28_LOD6","mesh":5,"translation":[-0.6000000000000001,-0.0,-0.0986575643881791],"rotation":[0.0,0.005725120919099857,0.0,0.999983611360937],"scale":[0.725,2.5993366302050376,1.597045291784892]},{"name":"berberitze_a_part_29_LOD7","mesh":5,"translation":[-0.6000000000000001,-0.0,-0.0986575643881791],"rotation":[0.0,0.005725120919099857,0.0,0.999983611360937],"scale":[0.725,2.5993366302050376,1.597045291784892]},{"name":"berberitze_a_part_30_LOD8","mesh":5,"translation":[-0.6000000000000001,-0.0,-0.0986575643881791],"rotation":[0.0,0.005725120919099857,0.0,0.999983611360937],"scale":[0.725,2.5993366302050376,1.597045291784892]},{"name":"berberitze_a_part_31_LOD9","mesh":5,"translation":[-0.6000000000000001,-0.0,-0.0986575643881791],"rotation":[0.0,0.005725120919099857,0.0,0.999983611360937],"scale":[0.725,2.5993366302050376,1.597045291784892]},{"name":"berberitze_a_part_32_LOD10","mesh":5,"translation":[-0.6000000000000001,-0.0,-0.0986575643881791],"rotation":[0.0,0.005725120919099857,0.0,0.999983611360937],"scale":[0.725,2.5993366302050376,1.597045291784892]},{"name":"berberitze_a_part_33_LOD11","mesh":5,"translation":[-0.6000000000000001,-0.0,-0.0986575643881791],"rotation":[0.0,0.005725120919099857,0.0,0.999983611360937],"scale":[0.725,2.5993366302050376,1.597045291784892]},{"name":"heckenkirsche_a_part_34_LOD0","mesh":9,"translation":[0.0,-0.0,-0.027499439039324766],"rotation":[0.0,0.004865391912259019,0.0,0.9999881639107235],"scale":[0.7909090909090909,2.446036109401778,1.6665292977511685]},{"name":"heckenkirsche_a_part_35_LOD1","mesh":9,"translation":[0.0,-0.0,-0.027499439039324766],"rotation":[0.0,0.004865391912259019,0.0,0.9999881639107235],"scale":[0.7909090909090909,2.446036109401778,1.6665292977511685]},{"name":"himbeere_b_part_36_LOD0","mesh":1,"translation":[0.5999999999999996,-0.0,0.1385080634651626],"rotation":[0.0,0.003504486861797833,0.0,0.9999938592670634],"scale":[0.9304812834224598,2.2487349039579674,1.6590482436365324]},{"name":"himbeere_b_part_37_LOD1","mesh":1,"translation":[0.5999999999999996,-0.0,0.1385080634651626],"rotation":[0.0,0.003504486861797833,0.0,0.9999938592670634],"scale":[0.9304812834224598,2.2487349039579674,1.6590482436365324]},{"name":"himbeere_b_part_38_LOD2","mesh":1,"translation":[0.5999999999999996,-0.0,0.1385080634651626],"rotation":[0.0,0.003504486861797833,0.0,0.9999938592670634],"scale":[0.9304812834224598,2.2487349039579674,1.6590482436365324]},{"name":"himbeere_b_part_39_LOD3","mesh":1,"translation":[0.5999999999999996,-0.0,0.1385080634651626],"rotation":[0.0,0.003504486861797833,0.0,0.9999938592670634],"scale":[0.9304812834224598,2.2487349039579674,1.6590482436365324]},{"name":"berberitze_a_part_40_LOD0","mesh":5,"translation":[1.2000000000000002,-0.0,0.12796643454626827],"rotation":[0.0,-0.06357353302549211,0.0,0.997977157002432],"scale":[0.725,2.434743689467461,1.3723056108512737]},{"name":"berberitze_a_part_41_LOD1","mesh":5,"translation":[1.2000000000000002,-0.0,0.12796643454626827],"rotation":[0.0,-0.06357353302549211,0.0,0.997977157002432],"scale":[0.725,2.434743689467461,1.3723056108512737]},{"name":"berberitze_a_part_42_LOD2","mesh":5,"translation":[1.2000000000000002,-0.0,0.12796643454626827],"rotation":[0.0,-0.06357353302549211,0.0,0.997977157002432],"scale":[0.725,2.434743689467461,1.3723056108512737]},{"name":"berberitze_a_part_43_LOD3","mesh":5,"translation":[1.2000000000000002,-0.0,0.12796643454626827],"rotation":[0.0,-0.06357353302549211,0.0,0.997977157002432],"scale":[0.725,2.434743689467461,1.3723056108512737]},{"name":"berberitze_a_part_44_LOD4","mesh":5,"translation":[1.2000000000000002,-0.0,0.12796643454626827],"rotation":[0.0,-0.06357353302549211,0.0,0.997977157002432],"scale":[0.725,2.434743689467461,1.3723056108512737]},{"name":"berberitze_a_part_45_LOD5","mesh":5,"translation":[1.2000000000000002,-0.0,0.12796643454626827],"rotation":[0.0,-0.06357353302549211,0.0,0.997977157002432],"scale":[0.725,2.434743689467461,1.3723056108512737]},{"name":"berberitze_a_part_46_LOD6","mesh":5,"translation":[1.2000000000000002,-0.0,0.12796643454626827],"rotation":[0.0,-0.06357353302549211,0.0,0.997977157002432],"scale":[0.725,2.434743689467461,1.3723056108512737]},{"name":"berberitze_a_part_47_LOD7","mesh":5,"translation":[1.2000000000000002,-0.0,0.12796643454626827],"rotation":[0.0,-0.06357353302549211,0.0,0.997977157002432],"scale":[0.725,2.434743689467461,1.3723056108512737]},{"name":"berberitze_a_part_48_LOD8","mesh":5,"translation":[1.2000000000000002,-0.0,0.12796643454626827],"rotation":[0.0,-0.06357353302549211,0.0,0.997977157002432],"scale":[0.725,2.434743689467461,1.3723056108512737]},{"name":"berberitze_a_part_49_LOD9","mesh":5,"translation":[1.2000000000000002,-0.0,0.12796643454626827],"rotation":[0.0,-0.06357353302549211,0.0,0.997977157002432],"scale":[0.725,2.434743689467461,1.3723056108512737]},{"name":"heckenkirsche_a_part_50_LOD0","mesh":9,"translation":[1.7999999999999998,-0.0,0.10472297560290567],"rotation":[0.0,-0.06126180888267961,0.0,0.998121731439819],"scale":[0.7909090909090909,2.489817643601655,1.5840150524754908]},{"name":"heckenkirsche_a_part_51_LOD1","mesh":9,"translation":[1.7999999999999998,-0.0,0.10472297560290567],"rotation":[0.0,-0.06126180888267961,0.0,0.998121731439819],"scale":[0.7909090909090909,2.489817643601655,1.5840150524754908]},{"name":"himbeere_b_part_52_LOD0","mesh":1,"translation":[2.3999999999999995,-0.0,0.006847047860961991],"rotation":[0.0,0.0428498414217589,0.0,0.9990815237457502],"scale":[0.9304812834224598,2.3565132470733974,1.424963943846303]},{"name":"himbeere_b_part_53_LOD1","mesh":1,"translation":[2.3999999999999995,-0.0,0.006847047860961991],"rotation":[0.0,0.0428498414217589,0.0,0.9990815237457502],"scale":[0.9304812834224598,2.3565132470733974,1.424963943846303]},{"name":"himbeere_b_part_54_LOD2","mesh":1,"translation":[2.3999999999999995,-0.0,0.006847047860961991],"rotation":[0.0,0.0428498414217589,0.0,0.9990815237457502],"scale":[0.9304812834224598,2.3565132470733974,1.424963943846303]},{"name":"himbeere_b_part_55_LOD3","mesh":1,"translation":[2.3999999999999995,-0.0,0.006847047860961991],"rotation":[0.0,0.0428498414217589,0.0,0.9990815237457502],"scale":[0.9304812834224598,2.3565132470733974,1.424963943846303]},{"name":"himbeere_b_part_56_LOD4","mesh":1,"translation":[2.3999999999999995,-0.0,0.006847047860961991],"rotation":[0.0,0.0428498414217589,0.0,0.9990815237457502],"scale":[0.9304812834224598,2.3565132470733974,1.424963943846303]},{"name":"himbeere_b_part_57_LOD5","mesh":1,"translation":[2.3999999999999995,-0.0,0.006847047860961991],"rotation":[0.0,0.0428498414217589,0.0,0.9990815237457502],"scale":[0.9304812834224598,2.3565132470733974,1.424963943846303]},{"name":"berberitze_a_part_58_LOD0","mesh":5,"translation":[3.0,-0.0,-0.10190087392503092],"rotation":[0.0,-0.045367737612535174,0.0,0.9989703541066272],"scale":[0.725,2.4579998767918934,1.4024415330353108]},{"name":"berberitze_a_part_59_LOD1","mesh":5,"translation":[3.0,-0.0,-0.10190087392503092],"rotation":[0.0,-0.045367737612535174,0.0,0.9989703541066272],"scale":[0.725,2.4579998767918934,1.4024415330353108]},{"name":"berberitze_a_part_60_LOD2","mesh":5,"translation":[3.0,-0.0,-0.10190087392503092],"rotation":[0.0,-0.045367737612535174,0.0,0.9989703541066272],"scale":[0.725,2.4579998767918934,1.4024415330353108]},{"name":"berberitze_a_part_61_LOD3","mesh":5,"translation":[3.0,-0.0,-0.10190087392503092],"rotation":[0.0,-0.045367737612535174,0.0,0.9989703541066272],"scale":[0.725,2.4579998767918934,1.4024415330353108]},{"name":"berberitze_a_part_62_LOD0","mesh":5,"translation":[-2.7,-0.0,0.1913794581959738],"rotation":[0.0,-0.01713235869875983,0.0,0.9998532303720467],"scale":[0.775,1.4403305811422864,1.7414729618585794]},{"name":"berberitze_a_part_63_LOD1","mesh":5,"translation":[-2.7,-0.0,0.1913794581959738],"rotation":[0.0,-0.01713235869875983,0.0,0.9998532303720467],"scale":[0.775,1.4403305811422864,1.7414729618585794]},{"name":"berberitze_a_part_64_LOD2","mesh":5,"translation":[-2.7,-0.0,0.1913794581959738],"rotation":[0.0,-0.01713235869875983,0.0,0.9998532303720467],"scale":[0.775,1.4403305811422864,1.7414729618585794]},{"name":"berberitze_a_part_65_LOD3","mesh":5,"translation":[-2.7,-0.0,0.1913794581959738],"rotation":[0.0,-0.01713235869875983,0.0,0.9998532303720467],"scale":[0.775,1.4403305811422864,1.7414729618585794]},{"name":"berberitze_a_part_66_LOD4","mesh":5,"translation":[-2.7,-0.0,0.1913794581959738],"rotation":[0.0,-0.01713235869875983,0.0,0.9998532303720467],"scale":[0.775,1.4403305811422864,1.7414729618585794]},{"name":"berberitze_a_part_67_LOD5","mesh":5,"translation":[-2.7,-0.0,0.1913794581959738],"rotation":[0.0,-0.01713235869875983,0.0,0.9998532303720467],"scale":[0.775,1.4403305811422864,1.7414729618585794]},{"name":"berberitze_a_part_68_LOD6","mesh":5,"translation":[-2.7,-0.0,0.1913794581959738],"rotation":[0.0,-0.01713235869875983,0.0,0.9998532303720467],"scale":[0.775,1.4403305811422864,1.7414729618585794]},{"name":"berberitze_a_part_69_LOD7","mesh":5,"translation":[-2.7,-0.0,0.1913794581959738],"rotation":[0.0,-0.01713235869875983,0.0,0.9998532303720467],"scale":[0.775,1.4403305811422864,1.7414729618585794]},{"name":"berberitze_a_part_70_LOD8","mesh":5,"translation":[-2.7,-0.0,0.1913794581959738],"rotation":[0.0,-0.01713235869875983,0.0,0.9998532303720467],"scale":[0.775,1.4403305811422864,1.7414729618585794]},{"name":"berberitze_a_part_71_LOD9","mesh":5,"translation":[-2.7,-0.0,0.1913794581959738],"rotation":[0.0,-0.01713235869875983,0.0,0.9998532303720467],"scale":[0.775,1.4403305811422864,1.7414729618585794]},{"name":"berberitze_a_part_72_LOD10","mesh":5,"translation":[-2.7,-0.0,0.1913794581959738],"rotation":[0.0,-0.01713235869875983,0.0,0.9998532303720467],"scale":[0.775,1.4403305811422864,1.7414729618585794]},{"name":"berberitze_a_part_73_LOD11","mesh":5,"translation":[-2.7,-0.0,0.1913794581959738],"rotation":[0.0,-0.01713235869875983,0.0,0.9998532303720467],"scale":[0.775,1.4403305811422864,1.7414729618585794]},{"name":"heckenkirsche_a_part_74_LOD0","mesh":9,"translation":[-2.1,-0.0,0.013966308869659272],"rotation":[0.0,0.08356757467841275,0.0,0.9965021126231334],"scale":[0.8454545454545453,1.599981659924829,1.8059522257719056]},{"name":"heckenkirsche_a_part_75_LOD1","mesh":9,"translation":[-2.1,-0.0,0.013966308869659272],"rotation":[0.0,0.08356757467841275,0.0,0.9965021126231334],"scale":[0.8454545454545453,1.599981659924829,1.8059522257719056]},{"name":"heckenkirsche_a_part_76_LOD2","mesh":9,"translation":[-2.1,-0.0,0.013966308869659272],"rotation":[0.0,0.08356757467841275,0.0,0.9965021126231334],"scale":[0.8454545454545453,1.599981659924829,1.8059522257719056]},{"name":"heckenkirsche_a_part_77_LOD3","mesh":9,"translation":[-2.1,-0.0,0.013966308869659272],"rotation":[0.0,0.08356757467841275,0.0,0.9965021126231334],"scale":[0.8454545454545453,1.599981659924829,1.8059522257719056]},{"name":"himbeere_b_part_78_LOD0","mesh":1,"translation":[-1.5,-0.0,-0.13098152155355694],"rotation":[0.0,0.057217729878311474,0.0,0.9983617237192002],"scale":[0.9946524064171122,1.4049808531881414,1.3811170619417144]},{"name":"himbeere_b_part_79_LOD1","mesh":1,"translation":[-1.5,-0.0,-0.13098152155355694],"rotation":[0.0,0.057217729878311474,0.0,0.9983617237192002],"scale":[0.9946524064171122,1.4049808531881414,1.3811170619417144]},{"name":"himbeere_b_part_80_LOD2","mesh":1,"translation":[-1.5,-0.0,-0.13098152155355694],"rotation":[0.0,0.057217729878311474,0.0,0.9983617237192002],"scale":[0.9946524064171122,1.4049808531881414,1.3811170619417144]},{"name":"himbeere_b_part_81_LOD3","mesh":1,"translation":[-1.5,-0.0,-0.13098152155355694],"rotation":[0.0,0.057217729878311474,0.0,0.9983617237192002],"scale":[0.9946524064171122,1.4049808531881414,1.3811170619417144]},{"name":"himbeere_b_part_82_LOD4","mesh":1,"translation":[-1.5,-0.0,-0.13098152155355694],"rotation":[0.0,0.057217729878311474,0.0,0.9983617237192002],"scale":[0.9946524064171122,1.4049808531881414,1.3811170619417144]},{"name":"himbeere_b_part_83_LOD5","mesh":1,"translation":[-1.5,-0.0,-0.13098152155355694],"rotation":[0.0,0.057217729878311474,0.0,0.9983617237192002],"scale":[0.9946524064171122,1.4049808531881414,1.3811170619417144]},{"name":"himbeere_b_part_84_LOD6","mesh":1,"translation":[-1.5,-0.0,-0.13098152155355694],"rotation":[0.0,0.057217729878311474,0.0,0.9983617237192002],"scale":[0.9946524064171122,1.4049808531881414,1.3811170619417144]},{"name":"himbeere_b_part_85_LOD7","mesh":1,"translation":[-1.5,-0.0,-0.13098152155355694],"rotation":[0.0,0.057217729878311474,0.0,0.9983617237192002],"scale":[0.9946524064171122,1.4049808531881414,1.3811170619417144]},{"name":"himbeere_b_part_86_LOD8","mesh":1,"translation":[-1.5,-0.0,-0.13098152155355694],"rotation":[0.0,0.057217729878311474,0.0,0.9983617237192002],"scale":[0.9946524064171122,1.4049808531881414,1.3811170619417144]},{"name":"himbeere_b_part_87_LOD9","mesh":1,"translation":[-1.5,-0.0,-0.13098152155355694],"rotation":[0.0,0.057217729878311474,0.0,0.9983617237192002],"scale":[0.9946524064171122,1.4049808531881414,1.3811170619417144]},{"name":"himbeere_b_part_88_LOD10","mesh":1,"translation":[-1.5,-0.0,-0.13098152155355694],"rotation":[0.0,0.057217729878311474,0.0,0.9983617237192002],"scale":[0.9946524064171122,1.4049808531881414,1.3811170619417144]},{"name":"berberitze_a_part_89_LOD0","mesh":5,"translation":[-0.8999999999999999,-0.0,0.15470028750826403],"rotation":[0.0,0.04155537132716326,0.0,0.9991362024838564],"scale":[0.775,1.3975526401897544,1.6440969221559254]},{"name":"berberitze_a_part_90_LOD1","mesh":5,"translation":[-0.8999999999999999,-0.0,0.15470028750826403],"rotation":[0.0,0.04155537132716326,0.0,0.9991362024838564],"scale":[0.775,1.3975526401897544,1.6440969221559254]},{"name":"heckenkirsche_a_part_91_LOD0","mesh":9,"translation":[-0.30000000000000027,-0.0,-0.24750024210650395],"rotation":[0.0,0.062059193774290464,0.0,0.9980724705491506],"scale":[0.8454545454545453,1.6895627282325445,1.706216912583109]},{"name":"heckenkirsche_a_part_92_LOD1","mesh":9,"translation":[-0.30000000000000027,-0.0,-0.24750024210650395],"rotation":[0.0,0.062059193774290464,0.0,0.9980724705491506],"scale":[0.8454545454545453,1.6895627282325445,1.706216912583109]},{"name":"himbeere_b_part_93_LOD0","mesh":1,"translation":[0.2999999999999998,-0.0,-0.010704397931110221],"rotation":[0.0,-0.03048096462442508,0.0,0.9995353474467846],"scale":[0.9946524064171122,1.4201774143202404,1.4259606832749723]},{"name":"himbeere_b_part_94_LOD1","mesh":1,"translation":[0.2999999999999998,-0.0,-0.010704397931110221],"rotation":[0.0,-0.03048096462442508,0.0,0.9995353474467846],"scale":[0.9946524064171122,1.4201774143202404,1.4259606832749723]},{"name":"himbeere_b_part_95_LOD2","mesh":1,"translation":[0.2999999999999998,-0.0,-0.010704397931110221],"rotation":[0.0,-0.03048096462442508,0.0,0.9995353474467846],"scale":[0.9946524064171122,1.4201774143202404,1.4259606832749723]},{"name":"himbeere_b_part_96_LOD3","mesh":1,"translation":[0.2999999999999998,-0.0,-0.010704397931110221],"rotation":[0.0,-0.03048096462442508,0.0,0.9995353474467846],"scale":[0.9946524064171122,1.4201774143202404,1.4259606832749723]},{"name":"himbeere_b_part_97_LOD4","mesh":1,"translation":[0.2999999999999998,-0.0,-0.010704397931110221],"rotation":[0.0,-0.03048096462442508,0.0,0.9995353474467846],"scale":[0.9946524064171122,1.4201774143202404,1.4259606832749723]},{"name":"himbeere_b_part_98_LOD5","mesh":1,"translation":[0.2999999999999998,-0.0,-0.010704397931110221],"rotation":[0.0,-0.03048096462442508,0.0,0.9995353474467846],"scale":[0.9946524064171122,1.4201774143202404,1.4259606832749723]},{"name":"himbeere_b_part_99_LOD6","mesh":1,"translation":[0.2999999999999998,-0.0,-0.010704397931110221],"rotation":[0.0,-0.03048096462442508,0.0,0.9995353474467846],"scale":[0.9946524064171122,1.4201774143202404,1.4259606832749723]},{"name":"himbeere_b_part_100_LOD7","mesh":1,"translation":[0.2999999999999998,-0.0,-0.010704397931110221],"rotation":[0.0,-0.03048096462442508,0.0,0.9995353474467846],"scale":[0.9946524064171122,1.4201774143202404,1.4259606832749723]},{"name":"berberitze_a_part_101_LOD0","mesh":5,"translation":[0.8999999999999999,-0.0,-0.026727964362599138],"rotation":[0.0,-0.03154239249673854,0.0,0.999502414942346],"scale":[0.775,1.672147579796026,1.7424372451978187]},{"name":"berberitze_a_part_102_LOD1","mesh":5,"translation":[0.8999999999999999,-0.0,-0.026727964362599138],"rotation":[0.0,-0.03154239249673854,0.0,0.999502414942346],"scale":[0.775,1.672147579796026,1.7424372451978187]},{"name":"berberitze_a_part_103_LOD2","mesh":5,"translation":[0.8999999999999999,-0.0,-0.026727964362599138],"rotation":[0.0,-0.03154239249673854,0.0,0.999502414942346],"scale":[0.775,1.672147579796026,1.7424372451978187]},{"name":"berberitze_a_part_104_LOD3","mesh":5,"translation":[0.8999999999999999,-0.0,-0.026727964362599138],"rotation":[0.0,-0.03154239249673854,0.0,0.999502414942346],"scale":[0.775,1.672147579796026,1.7424372451978187]},{"name":"berberitze_a_part_105_LOD4","mesh":5,"translation":[0.8999999999999999,-0.0,-0.026727964362599138],"rotation":[0.0,-0.03154239249673854,0.0,0.999502414942346],"scale":[0.775,1.672147579796026,1.7424372451978187]},{"name":"berberitze_a_part_106_LOD5","mesh":5,"translation":[0.8999999999999999,-0.0,-0.026727964362599138],"rotation":[0.0,-0.03154239249673854,0.0,0.999502414942346],"scale":[0.775,1.672147579796026,1.7424372451978187]},{"name":"berberitze_a_part_107_LOD6","mesh":5,"translation":[0.8999999999999999,-0.0,-0.026727964362599138],"rotation":[0.0,-0.03154239249673854,0.0,0.999502414942346],"scale":[0.775,1.672147579796026,1.7424372451978187]},{"name":"berberitze_a_part_108_LOD7","mesh":5,"translation":[0.8999999999999999,-0.0,-0.026727964362599138],"rotation":[0.0,-0.03154239249673854,0.0,0.999502414942346],"scale":[0.775,1.672147579796026,1.7424372451978187]},{"name":"berberitze_a_part_109_LOD8","mesh":5,"translation":[0.8999999999999999,-0.0,-0.026727964362599138],"rotation":[0.0,-0.03154239249673854,0.0,0.999502414942346],"scale":[0.775,1.672147579796026,1.7424372451978187]},{"name":"berberitze_a_part_110_LOD9","mesh":5,"translation":[0.8999999999999999,-0.0,-0.026727964362599138],"rotation":[0.0,-0.03154239249673854,0.0,0.999502414942346],"scale":[0.775,1.672147579796026,1.7424372451978187]},{"name":"berberitze_a_part_111_LOD10","mesh":5,"translation":[0.8999999999999999,-0.0,-0.026727964362599138],"rotation":[0.0,-0.03154239249673854,0.0,0.999502414942346],"scale":[0.775,1.672147579796026,1.7424372451978187]},{"name":"berberitze_a_part_112_LOD11","mesh":5,"translation":[0.8999999999999999,-0.0,-0.026727964362599138],"rotation":[0.0,-0.03154239249673854,0.0,0.999502414942346],"scale":[0.775,1.672147579796026,1.7424372451978187]},{"name":"heckenkirsche_a_part_113_LOD0","mesh":9,"translation":[1.5,-0.0,0.21675046797513314],"rotation":[0.0,-0.019982145663723954,0.0,0.999800336994679],"scale":[0.8454545454545453,1.3906689697694865,1.9087282929526737]},{"name":"heckenkirsche_a_part_114_LOD1","mesh":9,"translation":[1.5,-0.0,0.21675046797513314],"rotation":[0.0,-0.019982145663723954,0.0,0.999800336994679],"scale":[0.8454545454545453,1.3906689697694865,1.9087282929526737]},{"name":"himbeere_b_part_115_LOD0","mesh":1,"translation":[2.0999999999999996,-0.0,-0.11959081296473059],"rotation":[0.0,-0.01381727150790369,0.0,0.9999045369474412],"scale":[0.9946524064171122,1.2812209232302973,1.5097607729738216]},{"name":"himbeere_b_part_116_LOD1","mesh":1,"translation":[2.0999999999999996,-0.0,-0.11959081296473059],"rotation":[0.0,-0.01381727150790369,0.0,0.9999045369474412],"scale":[0.9946524064171122,1.2812209232302973,1.5097607729738216]},{"name":"himbeere_b_part_117_LOD2","mesh":1,"translation":[2.0999999999999996,-0.0,-0.11959081296473059],"rotation":[0.0,-0.01381727150790369,0.0,0.9999045369474412],"scale":[0.9946524064171122,1.2812209232302973,1.5097607729738216]},{"name":"himbeere_b_part_118_LOD3","mesh":1,"translation":[2.0999999999999996,-0.0,-0.11959081296473059],"rotation":[0.0,-0.01381727150790369,0.0,0.9999045369474412],"scale":[0.9946524064171122,1.2812209232302973,1.5097607729738216]},{"name":"himbeere_b_part_119_LOD4","mesh":1,"translation":[2.0999999999999996,-0.0,-0.11959081296473059],"rotation":[0.0,-0.01381727150790369,0.0,0.9999045369474412],"scale":[0.9946524064171122,1.2812209232302973,1.5097607729738216]},{"name":"himbeere_b_part_120_LOD5","mesh":1,"translation":[2.0999999999999996,-0.0,-0.11959081296473059],"rotation":[0.0,-0.01381727150790369,0.0,0.9999045369474412],"scale":[0.9946524064171122,1.2812209232302973,1.5097607729738216]},{"name":"berberitze_a_part_121_LOD0","mesh":5,"translation":[2.7,-0.0,-0.025601988575958745],"rotation":[0.0,0.0928373133234156,0.0,0.9956812910037478],"scale":[0.775,1.7227212835154748,1.676677646231703]},{"name":"berberitze_a_part_122_LOD1","mesh":5,"translation":[2.7,-0.0,-0.025601988575958745],"rotation":[0.0,0.0928373133234156,0.0,0.9956812910037478],"scale":[0.775,1.7227212835154748,1.676677646231703]},{"name":"berberitze_a_part_123_LOD2","mesh":5,"translation":[2.7,-0.0,-0.025601988575958745],"rotation":[0.0,0.0928373133234156,0.0,0.9956812910037478],"scale":[0.775,1.7227212835154748,1.676677646231703]},{"name":"berberitze_a_part_124_LOD3","mesh":5,"translation":[2.7,-0.0,-0.025601988575958745],"rotation":[0.0,0.0928373133234156,0.0,0.9956812910037478],"scale":[0.775,1.7227212835154748,1.676677646231703]},{"name":"berberitze_a_part_125_LOD4","mesh":5,"translation":[2.7,-0.0,-0.025601988575958745],"rotation":[0.0,0.0928373133234156,0.0,0.9956812910037478],"scale":[0.775,1.7227212835154748,1.676677646231703]},{"name":"berberitze_a_part_126_LOD5","mesh":5,"translation":[2.7,-0.0,-0.025601988575958745],"rotation":[0.0,0.0928373133234156,0.0,0.9956812910037478],"scale":[0.775,1.7227212835154748,1.676677646231703]},{"name":"berberitze_a_part_127_LOD6","mesh":5,"translation":[2.7,-0.0,-0.025601988575958745],"rotation":[0.0,0.0928373133234156,0.0,0.9956812910037478],"scale":[0.775,1.7227212835154748,1.676677646231703]},{"name":"berberitze_a_part_128_LOD7","mesh":5,"translation":[2.7,-0.0,-0.025601988575958745],"rotation":[0.0,0.0928373133234156,0.0,0.9956812910037478],"scale":[0.775,1.7227212835154748,1.676677646231703]},{"name":"leaf_volume_LOD0","mesh":12},{"name":"leaf_volume_LOD1","mesh":13},{"name":"leaf_volume_LOD2","mesh":14},{"name":"leaf_volume_LOD3","mesh":15},{"name":"leaf_volume_LOD4","mesh":16},{"name":"leaf_volume_LOD5","mesh":17},{"name":"leaf_volume_LOD6","mesh":18},{"name":"leaf_volume_LOD7","mesh":19},{"name":"leaf_volume_LOD8","mesh":20},{"name":"leaf_volume_LOD9","mesh":21},{"name":"leaf_volume_LOD10","mesh":22},{"name":"leaf_volume_LOD11","mesh":23}],"meshes":[{"name":"himbeere_b_crown_LOD0","primitives":[{"attributes":{"POSITION":0,"NORMAL":1,"TEXCOORD_0":2},"indices":3,"material":1}]},{"name":"himbeere_b_crown_LOD1","primitives":[{"attributes":{"POSITION":4,"NORMAL":5,"TEXCOORD_0":6},"indices":7,"material":1}]},{"name":"himbeere_b_crown_LOD2","primitives":[{"attributes":{"POSITION":8,"NORMAL":9,"TEXCOORD_0":10},"indices":11,"material":2}]},{"name":"himbeere_b_crown_LOD3","primitives":[{"attributes":{"POSITION":12,"NORMAL":13,"TEXCOORD_0":14},"indices":15,"material":2}]},{"name":"berberitze_a_crown_LOD0","primitives":[{"attributes":{"POSITION":16,"NORMAL":17,"TEXCOORD_0":18},"indices":19,"material":4}]},{"name":"berberitze_a_crown_LOD1","primitives":[{"attributes":{"POSITION":20,"NORMAL":21,"TEXCOORD_0":22},"indices":23,"material":4}]},{"name":"berberitze_a_crown_LOD2","primitives":[{"attributes":{"POSITION":24,"NORMAL":25,"TEXCOORD_0":26},"indices":27,"material":5}]},{"name":"berberitze_a_crown_LOD3","primitives":[{"attributes":{"POSITION":28,"NORMAL":29,"TEXCOORD_0":30},"indices":31,"material":5}]},{"name":"heckenkirsche_a_crown_LOD0","primitives":[{"attributes":{"POSITION":32,"NORMAL":33,"TEXCOORD_0":34},"indices":35,"material":7}]},{"name":"heckenkirsche_a_crown_LOD1","primitives":[{"attributes":{"POSITION":36,"NORMAL":37,"TEXCOORD_0":38},"indices":39,"material":7}]},{"name":"heckenkirsche_a_crown_LOD2","primitives":[{"attributes":{"POSITION":40,"NORMAL":41,"TEXCOORD_0":42},"indices":43,"material":8}]},{"name":"heckenkirsche_a_crown_LOD3","primitives":[{"attributes":{"POSITION":44,"NORMAL":45,"TEXCOORD_0":46},"indices":47,"material":8}]},{"name":"hainbuchenhecke_leaf_volume_LOD0","primitives":[{"attributes":{"POSITION":48,"NORMAL":49,"TEXCOORD_0":50},"indices":51,"material":9}]},{"name":"hainbuchenhecke_leaf_volume_LOD1","primitives":[{"attributes":{"POSITION":52,"NORMAL":53,"TEXCOORD_0":54},"indices":55,"material":10}]},{"name":"hainbuchenhecke_leaf_volume_LOD2","primitives":[{"attributes":{"POSITION":56,"NORMAL":57,"TEXCOORD_0":58},"indices":59,"material":11}]},{"name":"hainbuchenhecke_leaf_volume_LOD3","primitives":[{"attributes":{"POSITION":60,"NORMAL":61,"TEXCOORD_0":62},"indices":63,"material":12}]},{"name":"hainbuchenhecke_leaf_volume_LOD4","primitives":[{"attributes":{"POSITION":64,"NORMAL":65,"TEXCOORD_0":66},"indices":67,"material":13}]},{"name":"hainbuchenhecke_leaf_volume_LOD5","primitives":[{"attributes":{"POSITION":68,"NORMAL":69,"TEXCOORD_0":70},"indices":71,"material":14}]},{"name":"hainbuchenhecke_leaf_volume_LOD6","primitives":[{"attributes":{"POSITION":72,"NORMAL":73,"TEXCOORD_0":74},"indices":75,"material":15}]},{"name":"hainbuchenhecke_leaf_volume_LOD7","primitives":[{"attributes":{"POSITION":76,"NORMAL":77,"TEXCOORD_0":78},"indices":79,"material":16}]},{"name":"hainbuchenhecke_leaf_volume_LOD8","primitives":[{"attributes":{"POSITION":80,"NORMAL":81,"TEXCOORD_0":82},"indices":83,"material":17}]},{"name":"hainbuchenhecke_leaf_volume_LOD9","primitives":[{"attributes":{"POSITION":84,"NORMAL":85,"TEXCOORD_0":86},"indices":87,"material":18}]},{"name":"hainbuchenhecke_leaf_volume_LOD10","primitives":[{"attributes":{"POSITION":88,"NORMAL":89,"TEXCOORD_0":90},"indices":91,"material":19}]},{"name":"hainbuchenhecke_leaf_volume_LOD11","primitives":[{"attributes":{"POSITION":92,"NORMAL":93,"TEXCOORD_0":94},"indices":95,"material":20}]}],"buffers":[{"uri":"himbeere_b.bin","byteLength":184940},{"uri":"berberitze_a.bin","byteLength":494748},{"uri":"heckenkirsche_a.bin","byteLength":494748},{"uri":"hainbuchenhecke_c_hedge.bin","byteLength":8841000}],"bufferViews":[{"buffer":0,"byteOffset":0,"byteLength":44904,"target":34962},{"buffer":0,"byteOffset":44904,"byteLength":44904,"target":34962},{"buffer":0,"byteOffset":89808,"byteLength":29936,"target":34962},{"buffer":0,"byteOffset":119744,"byteLength":36384,"target":34963},{"buffer":0,"byteOffset":156128,"byteLength":8532,"target":34962},{"buffer":0,"byteOffset":164660,"byteLength":8532,"target":34962},{"buffer":0,"byteOffset":173192,"byteLength":5688,"target":34962},{"buffer":0,"byteOffset":178880,"byteLength":5220,"target":34963},{"buffer":0,"byteOffset":184100,"byteLength":192,"target":34962},{"buffer":0,"byteOffset":184292,"byteLength":192,"target":34962},{"buffer":0,"byteOffset":184484,"byteLength":128,"target":34962},{"buffer":0,"byteOffset":184612,"byteLength":48,"target":34963},{"buffer":0,"byteOffset":184660,"byteLength":96,"target":34962},{"buffer":0,"byteOffset":184756,"byteLength":96,"target":34962},{"buffer":0,"byteOffset":184852,"byteLength":64,"target":34962},{"buffer":0,"byteOffset":184916,"byteLength":24,"target":34963},{"buffer":1,"byteOffset":0,"byteLength":105048,"target":34962},{"buffer":1,"byteOffset":105048,"byteLength":105048,"target":34962},{"buffer":1,"byteOffset":210096,"byteLength":70032,"target":34962},{"buffer":1,"byteOffset":280128,"byteLength":43392,"target":34963},{"buffer":1,"byteOffset":323520,"byteLength":56400,"target":34962},{"buffer":1,"byteOffset":379920,"byteLength":56400,"target":34962},{"buffer":1,"byteOffset":436320,"byteLength":37600,"target":34962},{"buffer":1,"byteOffset":473920,"byteLength":19986,"target":34963},{"buffer":1,"byteOffset":493908,"byteLength":192,"target":34962},{"buffer":1,"byteOffset":494100,"byteLength":192,"target":34962},{"buffer":1,"byteOffset":494292,"byteLength":128,"target":34962},{"buffer":1,"byteOffset":494420,"byteLength":48,"target":34963},{"buffer":1,"byteOffset":494468,"byteLength":96,"target":34962},{"buffer":1,"byteOffset":494564,"byteLength":96,"target":34962},{"buffer":1,"byteOffset":494660,"byteLength":64,"target":34962},{"buffer":1,"byteOffset":494724,"byteLength":24,"target":34963},{"buffer":2,"byteOffset":0,"byteLength":105048,"target":34962},{"buffer":2,"byteOffset":105048,"byteLength":105048,"target":34962},{"buffer":2,"byteOffset":210096,"byteLength":70032,"target":34962},{"buffer":2,"byteOffset":280128,"byteLength":43392,"target":34963},{"buffer":2,"byteOffset":323520,"byteLength":56400,"target":34962},{"buffer":2,"byteOffset":379920,"byteLength":56400,"target":34962},{"buffer":2,"byteOffset":436320,"byteLength":37600,"target":34962},{"buffer":2,"byteOffset":473920,"byteLength":19986,"target":34963},{"buffer":2,"byteOffset":493908,"byteLength":192,"target":34962},{"buffer":2,"byteOffset":494100,"byteLength":192,"target":34962},{"buffer":2,"byteOffset":494292,"byteLength":128,"target":34962},{"buffer":2,"byteOffset":494420,"byteLength":48,"target":34963},{"buffer":2,"byteOffset":494468,"byteLength":96,"target":34962},{"buffer":2,"byteOffset":494564,"byteLength":96,"target":34962},{"buffer":2,"byteOffset":494660,"byteLength":64,"target":34962},{"buffer":2,"byteOffset":494724,"byteLength":24,"target":34963},{"buffer":3,"byteOffset":0,"byteLength":345600,"target":34962},{"buffer":3,"byteOffset":345600,"byteLength":345600,"target":34962},{"buffer":3,"byteOffset":691200,"byteLength":230400,"target":34962},{"buffer":3,"byteOffset":921600,"byteLength":86400,"target":34963},{"buffer":3,"byteOffset":1008000,"byteLength":268800,"target":34962},{"buffer":3,"byteOffset":1276800,"byteLength":268800,"target":34962},{"buffer":3,"byteOffset":1545600,"byteLength":179200,"target":34962},{"buffer":3,"byteOffset":1724800,"byteLength":67200,"target":34963},{"buffer":3,"byteOffset":1792000,"byteLength":264000,"target":34962},{"buffer":3,"byteOffset":2056000,"byteLength":264000,"target":34962},{"buffer":3,"byteOffset":2320000,"byteLength":176000,"target":34962},{"buffer":3,"byteOffset":2496000,"byteLength":66000,"target":34963},{"buffer":3,"byteOffset":2562000,"byteLength":259200,"target":34962},{"buffer":3,"byteOffset":2821200,"byteLength":259200,"target":34962},{"buffer":3,"byteOffset":3080400,"byteLength":172800,"target":34962},{"buffer":3,"byteOffset":3253200,"byteLength":64800,"target":34963},{"buffer":3,"byteOffset":3318000,"byteLength":254400,"target":34962},{"buffer":3,"byteOffset":3572400,"byteLength":254400,"target":34962},{"buffer":3,"byteOffset":3826800,"byteLength":169600,"target":34962},{"buffer":3,"byteOffset":3996400,"byteLength":63600,"target":34963},{"buffer":3,"byteOffset":4060000,"byteLength":249600,"target":34962},{"buffer":3,"byteOffset":4309600,"byteLength":249600,"target":34962},{"buffer":3,"byteOffset":4559200,"byteLength":166400,"target":34962},{"buffer":3,"byteOffset":4725600,"byteLength":62400,"target":34963},{"buffer":3,"byteOffset":4788000,"byteLength":244800,"target":34962},{"buffer":3,"byteOffset":5032800,"byteLength":244800,"target":34962},{"buffer":3,"byteOffset":5277600,"byteLength":163200,"target":34962},{"buffer":3,"byteOffset":5440800,"byteLength":61200,"target":34963},{"buffer":3,"byteOffset":5502000,"byteLength":240000,"target":34962},{"buffer":3,"byteOffset":5742000,"byteLength":240000,"target":34962},{"buffer":3,"byteOffset":5982000,"byteLength":160000,"target":34962},{"buffer":3,"byteOffset":6142000,"byteLength":60000,"target":34963},{"buffer":3,"byteOffset":6202000,"byteLength":235200,"target":34962},{"buffer":3,"byteOffset":6437200,"byteLength":235200,"target":34962},{"buffer":3,"byteOffset":6672400,"byteLength":156800,"target":34962},{"buffer":3,"byteOffset":6829200,"byteLength":58800,"target":34963},{"buffer":3,"byteOffset":6888000,"byteLength":230400,"target":34962},{"buffer":3,"byteOffset":7118400,"byteLength":230400,"target":34962},{"buffer":3,"byteOffset":7348800,"byteLength":153600,"target":34962},{"buffer":3,"byteOffset":7502400,"byteLength":57600,"target":34963},{"buffer":3,"byteOffset":7560000,"byteLength":223200,"target":34962},{"buffer":3,"byteOffset":7783200,"byteLength":223200,"target":34962},{"buffer":3,"byteOffset":8006400,"byteLength":148800,"target":34962},{"buffer":3,"byteOffset":8155200,"byteLength":55800,"target":34963},{"buffer":3,"byteOffset":8211000,"byteLength":216000,"target":34962},{"buffer":3,"byteOffset":8427000,"byteLength":216000,"target":34962},{"buffer":3,"byteOffset":8643000,"byteLength":144000,"target":34962},{"buffer":3,"byteOffset":8787000,"byteLength":54000,"target":34963}],"accessors":[{"bufferView":0,"componentType":5126,"count":3742,"type":"VEC3","min":[-0.4675,0.0,-0.4498948973936197],"max":[0.4675,1.1,0.4498948973936197]},{"bufferView":1,"componentType":5126,"count":3742,"type":"VEC3","min":[-0.9961062669754028,-0.5310803055763245,-0.9999850988388062],"max":[0.9980489611625671,0.9998307824134827,0.9981037974357605]},{"bufferView":2,"componentType":5126,"count":3742,"type":"VEC2"},{"bufferView":3,"componentType":5123,"count":18192,"type":"SCALAR","min":[0],"max":[3741]},{"bufferView":4,"componentType":5126,"count":711,"type":"VEC3","min":[-0.4671776978737864,0.0,-0.44979525027712636],"max":[0.46740563778053823,1.1,0.4498948973936197]},{"bufferView":5,"componentType":5126,"count":711,"type":"VEC3","min":[-0.9960769414901733,-0.28742703795433044,-0.99998539686203],"max":[0.9766634106636047,0.9998952150344849,0.9995871186256409]},{"bufferView":6,"componentType":5126,"count":711,"type":"VEC2"},{"bufferView":7,"componentType":5123,"count":2610,"type":"SCALAR","min":[0],"max":[710]},{"bufferView":8,"componentType":5126,"count":16,"type":"VEC3","min":[-0.5142500000000001,0,-0.5142500000000001],"max":[0.5142500000000001,1.1,0.5142500000000001]},{"bufferView":9,"componentType":5126,"count":16,"type":"VEC3","min":[-1.0,0,-0.7071067811865475],"max":[-0.0,0,1.0]},{"bufferView":10,"componentType":5126,"count":16,"type":"VEC2"},{"bufferView":11,"componentType":5123,"count":24,"type":"SCALAR","min":[0],"max":[15]},{"bufferView":12,"componentType":5126,"count":8,"type":"VEC3","min":[-0.5142500000000001,0,-0.5142500000000001],"max":[0.5142500000000001,1.1,0.5142500000000001]},{"bufferView":13,"componentType":5126,"count":8,"type":"VEC3","min":[-1.0,0,6.123233995736766e-17],"max":[-0.0,0,1.0]},{"bufferView":14,"componentType":5126,"count":8,"type":"VEC2"},{"bufferView":15,"componentType":5123,"count":12,"type":"SCALAR","min":[0],"max":[7]},{"bufferView":16,"componentType":5126,"count":8754,"type":"VEC3","min":[-0.6,0.0,-0.44084915485974513],"max":[0.6,1.0,0.44084915485974513]},{"bufferView":17,"componentType":5126,"count":8754,"type":"VEC3","min":[-0.9996581077575684,-0.9998005628585815,-0.9986739158630371],"max":[0.9992280602455139,0.9999603033065796,0.9998832941055298]},{"bufferView":18,"componentType":5126,"count":8754,"type":"VEC2"},{"bufferView":19,"componentType":5123,"count":21696,"type":"SCALAR","min":[0],"max":[8753]},{"bufferView":20,"componentType":5126,"count":4700,"type":"VEC3","min":[-0.5985137941033843,1.6705947594052684e-05,-0.429394819732279],"max":[0.6075642061475794,1.000045272121852,0.42910687753606314]},{"bufferView":21,"componentType":5126,"count":4700,"type":"VEC3","min":[-0.9976669549942017,-0.99940425157547,-0.9989551305770874],"max":[0.9989135265350342,0.9999603033065796,0.9998118281364441]},{"bufferView":22,"componentType":5126,"count":4700,"type":"VEC2"},{"bufferView":23,"componentType":5123,"count":9993,"type":"SCALAR","min":[0],"max":[4699]},{"bufferView":24,"componentType":5126,"count":16,"type":"VEC3","min":[-0.66,0,-0.66],"max":[0.66,1.0,0.66]},{"bufferView":25,"componentType":5126,"count":16,"type":"VEC3","min":[-1.0,0,-0.7071067811865475],"max":[-0.0,0,1.0]},{"bufferView":26,"componentType":5126,"count":16,"type":"VEC2"},{"bufferView":27,"componentType":5123,"count":24,"type":"SCALAR","min":[0],"max":[15]},{"bufferView":28,"componentType":5126,"count":8,"type":"VEC3","min":[-0.66,0,-0.66],"max":[0.66,1.0,0.66]},{"bufferView":29,"componentType":5126,"count":8,"type":"VEC3","min":[-1.0,0,6.123233995736766e-17],"max":[-0.0,0,1.0]},{"bufferView":30,"componentType":5126,"count":8,"type":"VEC2"},{"bufferView":31,"componentType":5123,"count":12,"type":"SCALAR","min":[0],"max":[7]},{"bufferView":32,"componentType":5126,"count":8754,"type":"VEC3","min":[-0.55,0.0,-0.4041117252880997],"max":[0.55,1.0,0.4041117252880997]},{"bufferView":33,"componentType":5126,"count":8754,"type":"VEC3","min":[-0.9996779561042786,-0.9997625946998596,-0.9988284111022949],"max":[0.999296247959137,0.9999527335166931,0.9998937249183655]},{"bufferView":34,"componentType":5126,"count":8754,"type":"VEC2"},{"bufferView":35,"componentType":5123,"count":21696,"type":"SCALAR","min":[0],"max":[8753]},{"bufferView":36,"componentType":5126,"count":4700,"type":"VEC3","min":[-0.5486376445947689,1.6705947594052684e-05,-0.39361191808792245],"max":[0.5569338556352812,1.000045272121852,0.3933479710747246]},{"bufferView":37,"componentType":5126,"count":4700,"type":"VEC3","min":[-0.9976954460144043,-0.999291181564331,-0.9989568591117859],"max":[0.998948872089386,0.9999527335166931,0.9998225569725037]},{"bufferView":38,"componentType":5126,"count":4700,"type":"VEC2"},{"bufferView":39,"componentType":5123,"count":9993,"type":"SCALAR","min":[0],"max":[4699]},{"bufferView":40,"componentType":5126,"count":16,"type":"VEC3","min":[-0.6050000000000001,0,-0.6050000000000001],"max":[0.6050000000000001,1.0,0.6050000000000001]},{"bufferView":41,"componentType":5126,"count":16,"type":"VEC3","min":[-1.0,0,-0.7071067811865475],"max":[-0.0,0,1.0]},{"bufferView":42,"componentType":5126,"count":16,"type":"VEC2"},{"bufferView":43,"componentType":5123,"count":24,"type":"SCALAR","min":[0],"max":[15]},{"bufferView":44,"componentType":5126,"count":8,"type":"VEC3","min":[-0.6050000000000001,0,-0.6050000000000001],"max":[0.6050000000000001,1.0,0.6050000000000001]},{"bufferView":45,"componentType":5126,"count":8,"type":"VEC3","min":[-1.0,0,6.123233995736766e-17],"max":[-0.0,0,1.0]},{"bufferView":46,"componentType":5126,"count":8,"type":"VEC2"},{"bufferView":47,"componentType":5123,"count":12,"type":"SCALAR","min":[0],"max":[7]},{"bufferView":48,"componentType":5126,"count":28800,"type":"VEC3","min":[-3.1042999255750807,0.03143654293655204,-0.8313328988915811],"max":[3.1027413583364343,2.5557883781220654,0.8207123903704031]},{"bufferView":49,"componentType":5126,"count":28800,"type":"VEC3","min":[-1.0,-0.1498466017635151,-1.0],"max":[1.0,1.0,1.0]},{"bufferView":50,"componentType":5126,"count":28800,"type":"VEC2"},{"bufferView":51,"componentType":5123,"count":43200,"type":"SCALAR","min":[0],"max":[28799]},{"bufferView":52,"componentType":5126,"count":22400,"type":"VEC3","min":[-3.2337047224630076,-0.044580943319973906,-0.9503579074091966],"max":[3.2315321707739937,2.6073940251920265,0.9375372324720493]},{"bufferView":53,"componentType":5126,"count":22400,"type":"VEC3","min":[-1.0,-0.14994972211501778,-1.0],"max":[1.0,1.0,1.0]},{"bufferView":54,"componentType":5126,"count":22400,"type":"VEC2"},{"bufferView":55,"componentType":5123,"count":33600,"type":"SCALAR","min":[0],"max":[22399]},{"bufferView":56,"componentType":5126,"count":22000,"type":"VEC3","min":[-3.3130158208797402,-0.11849070992978472,-1.0262608108568445],"max":[3.315240353185155,2.6751714835329743,1.0116440814465166]},{"bufferView":57,"componentType":5126,"count":22000,"type":"VEC3","min":[-1.0,-0.14997403804825707,-1.0],"max":[1.0,1.0,1.0]},{"bufferView":58,"componentType":5126,"count":22000,"type":"VEC2"},{"bufferView":59,"componentType":5123,"count":33000,"type":"SCALAR","min":[0],"max":[21999]},{"bufferView":60,"componentType":5126,"count":21600,"type":"VEC3","min":[-3.412119206138084,-0.18023429860316179,-1.1240448463027848],"max":[3.420725949525561,2.7409376929366336,1.1280060172879072]},{"bufferView":61,"componentType":5126,"count":21600,"type":"VEC3","min":[-1.0,-0.14993445380188763,-1.0],"max":[1.0,1.0,1.0]},{"bufferView":62,"componentType":5126,"count":21600,"type":"VEC2"},{"bufferView":63,"componentType":5123,"count":32400,"type":"SCALAR","min":[0],"max":[21599]},{"bufferView":64,"componentType":5126,"count":21200,"type":"VEC3","min":[-3.5497915058007217,-0.2872209642480145,-1.2401252766190953],"max":[3.553781237614735,2.850219511684053,1.285381657155109]},{"bufferView":65,"componentType":5126,"count":21200,"type":"VEC3","min":[-1.0,-0.14977315724908496,-1.0],"max":[1.0,1.0,1.0]},{"bufferView":66,"componentType":5126,"count":21200,"type":"VEC2"},{"bufferView":67,"componentType":5123,"count":31800,"type":"SCALAR","min":[0],"max":[21199]},{"bufferView":68,"componentType":5126,"count":20800,"type":"VEC3","min":[-3.7264639559148685,-0.3705702761876427,-1.4357348903222802],"max":[3.7394372787500956,2.9765299204454685,1.431672709570431]},{"bufferView":69,"componentType":5126,"count":20800,"type":"VEC3","min":[-1.0,-0.1499881593302695,-1.0],"max":[1.0,1.0,1.0]},{"bufferView":70,"componentType":5126,"count":20800,"type":"VEC2"},{"bufferView":71,"componentType":5123,"count":31200,"type":"SCALAR","min":[0],"max":[20799]},{"bufferView":72,"componentType":5126,"count":20400,"type":"VEC3","min":[-3.972468072856593,-0.5816633013799106,-1.636733511587209],"max":[3.94232652676131,3.1130275800675715,1.6801912400792507]},{"bufferView":73,"componentType":5126,"count":20400,"type":"VEC3","min":[-1.0,-0.14994541077389575,-1.0],"max":[1.0,1.0,1.0]},{"bufferView":74,"componentType":5126,"count":20400,"type":"VEC2"},{"bufferView":75,"componentType":5123,"count":30600,"type":"SCALAR","min":[0],"max":[20399]},{"bufferView":76,"componentType":5126,"count":20000,"type":"VEC3","min":[-4.208663557443532,-0.7503589371920751,-1.922433317272945],"max":[4.208601714772458,3.2835904431552634,1.9074316690635695]},{"bufferView":77,"componentType":5126,"count":20000,"type":"VEC3","min":[-1.0,-0.1499908627393342,-1.0],"max":[1.0,1.0,1.0]},{"bufferView":78,"componentType":5126,"count":20000,"type":"VEC2"},{"bufferView":79,"componentType":5123,"count":30000,"type":"SCALAR","min":[0],"max":[19999]},{"bufferView":80,"componentType":5126,"count":19600,"type":"VEC3","min":[-4.518843404308349,-0.9558814141858339,-2.1517731084695906],"max":[4.465557204502553,3.457628215151385,2.162175484008647]},{"bufferView":81,"componentType":5126,"count":19600,"type":"VEC3","min":[-1.0,-0.1499222531095611,-1.0],"max":[1.0,1.0,1.0]},{"bufferView":82,"componentType":5126,"count":19600,"type":"VEC2"},{"bufferView":83,"componentType":5123,"count":29400,"type":"SCALAR","min":[0],"max":[19599]},{"bufferView":84,"componentType":5126,"count":19200,"type":"VEC3","min":[-4.801724644556813,-1.1352143639722312,-2.5379158128520873],"max":[4.830019688542624,3.7039917315023287,2.4302601155234154]},{"bufferView":85,"componentType":5126,"count":19200,"type":"VEC3","min":[-1.0,-0.14998266563620505,-1.0],"max":[1.0,1.0,1.0]},{"bufferView":86,"componentType":5126,"count":19200,"type":"VEC2"},{"bufferView":87,"componentType":5123,"count":28800,"type":"SCALAR","min":[0],"max":[19199]},{"bufferView":88,"componentType":5126,"count":18600,"type":"VEC3","min":[-5.192210868157061,-1.4353032213750212,-2.846337328059247],"max":[5.201119031071896,3.912201471984927,2.844224920923393]},{"bufferView":89,"componentType":5126,"count":18600,"type":"VEC3","min":[-1.0,-0.14995135017835823,-1.0],"max":[1.0,1.0,1.0]},{"bufferView":90,"componentType":5126,"count":18600,"type":"VEC2"},{"bufferView":91,"componentType":5123,"count":27900,"type":"SCALAR","min":[0],"max":[18599]},{"bufferView":92,"componentType":5126,"count":18000,"type":"VEC3","min":[-5.548568776449326,-1.6579124127243137,-3.2951516198418647],"max":[5.60225533642442,4.287863339263838,3.3067524611317367]},{"bufferView":93,"componentType":5126,"count":18000,"type":"VEC3","min":[-1.0,-0.1497835211816333,-1.0],"max":[1.0,1.0,1.0]},{"bufferView":94,"componentType":5126,"count":18000,"type":"VEC2"},{"bufferView":95,"componentType":5123,"count":27000,"type":"SCALAR","min":[0],"max":[17999]}],"images":[{"uri":"textures/poly_shrub_01.png"},{"uri":"textures/poly_shrub_01.png"},{"uri":"impostors/himbeere_b_autumn.png"},{"uri":"textures/poly_searsia_lucida.png"},{"uri":"textures/poly_searsia_lucida.png"},{"uri":"impostors/berberitze_a_autumn.png"},{"uri":"textures/poly_searsia_lucida.png"},{"uri":"textures/poly_searsia_lucida.png"},{"uri":"impostors/heckenkirsche_a_autumn.png"},{"uri":"textures/poly_searsia_lucida.png"}],"samplers":[{"magFilter":9729,"minFilter":9987,"wrapS":10497,"wrapT":10497},{"magFilter":9729,"minFilter":9987,"wrapS":10497,"wrapT":10497},{"magFilter":9729,"minFilter":9987,"wrapS":10497,"wrapT":10497},{"magFilter":9729,"minFilter":9987,"wrapS":10497,"wrapT":10497}],"textures":[{"source":0,"sampler":0},{"source":1,"sampler":0},{"source":2,"sampler":0},{"source":3,"sampler":1},{"source":4,"sampler":1},{"source":5,"sampler":1},{"source":6,"sampler":2},{"source":7,"sampler":2},{"source":8,"sampler":2},{"source":9,"sampler":3}],"materials":[{"name":"himbeere_b_bark","pbrMetallicRoughness":{"baseColorFactor":[0.82,0.82,0.82,1.0],"baseColorTexture":{"index":0},"metallicFactor":0.0,"roughnessFactor":0.91},"doubleSided":false},{"name":"himbeere_b_foliage","pbrMetallicRoughness":{"baseColorFactor":[0.72,0.42,0.09,1.0],"baseColorTexture":{"index":1},"metallicFactor":0.0,"roughnessFactor":0.78},"doubleSided":true,"alphaMode":"MASK","alphaCutoff":0.18},{"name":"himbeere_b_whole_tree_impostor","pbrMetallicRoughness":{"baseColorFactor":[1,1,1,1],"baseColorTexture":{"index":2},"metallicFactor":0.0,"roughnessFactor":0.92},"doubleSided":true,"alphaMode":"MASK","alphaCutoff":0.18},{"name":"berberitze_a_bark","pbrMetallicRoughness":{"baseColorFactor":[0.82,0.82,0.82,1.0],"baseColorTexture":{"index":3},"metallicFactor":0.0,"roughnessFactor":0.91},"doubleSided":false},{"name":"berberitze_a_foliage","pbrMetallicRoughness":{"baseColorFactor":[0.72,0.42,0.09,1.0],"baseColorTexture":{"index":4},"metallicFactor":0.0,"roughnessFactor":0.78},"doubleSided":true,"alphaMode":"MASK","alphaCutoff":0.18},{"name":"berberitze_a_whole_tree_impostor","pbrMetallicRoughness":{"baseColorFactor":[1,1,1,1],"baseColorTexture":{"index":5},"metallicFactor":0.0,"roughnessFactor":0.92},"doubleSided":true,"alphaMode":"MASK","alphaCutoff":0.18},{"name":"heckenkirsche_a_bark","pbrMetallicRoughness":{"baseColorFactor":[0.82,0.82,0.82,1.0],"baseColorTexture":{"index":6},"metallicFactor":0.0,"roughnessFactor":0.91},"doubleSided":false},{"name":"heckenkirsche_a_foliage","pbrMetallicRoughness":{"baseColorFactor":[0.72,0.42,0.09,1.0],"baseColorTexture":{"index":7},"metallicFactor":0.0,"roughnessFactor":0.78},"doubleSided":true,"alphaMode":"MASK","alphaCutoff":0.18},{"name":"heckenkirsche_a_whole_tree_impostor","pbrMetallicRoughness":{"baseColorFactor":[1,1,1,1],"baseColorTexture":{"index":8},"metallicFactor":0.0,"roughnessFactor":0.92},"doubleSided":true,"alphaMode":"MASK","alphaCutoff":0.18},{"name":"hainbuchenhecke_individual_leaves_LOD0","pbrMetallicRoughness":{"baseColorFactor":[0.78,0.5,0.14,1.0],"baseColorTexture":{"index":9},"metallicFactor":0.0,"roughnessFactor":0.82},"doubleSided":true,"alphaMode":"MASK","alphaCutoff":0.18},{"name":"hainbuchenhecke_individual_leaves_LOD1","pbrMetallicRoughness":{"baseColorFactor":[0.78,0.5,0.14,1.0],"baseColorTexture":{"index":9},"metallicFactor":0.0,"roughnessFactor":0.82},"doubleSided":true,"alphaMode":"MASK","alphaCutoff":0.08},{"name":"hainbuchenhecke_individual_leaves_LOD2","pbrMetallicRoughness":{"baseColorFactor":[0.78,0.5,0.14,1.0],"baseColorTexture":{"index":9},"metallicFactor":0.0,"roughnessFactor":0.82},"doubleSided":true,"alphaMode":"MASK","alphaCutoff":0.065},{"name":"hainbuchenhecke_individual_leaves_LOD3","pbrMetallicRoughness":{"baseColorFactor":[0.78,0.5,0.14,1.0],"baseColorTexture":{"index":9},"metallicFactor":0.0,"roughnessFactor":0.82},"doubleSided":true,"alphaMode":"MASK","alphaCutoff":0.055},{"name":"hainbuchenhecke_individual_leaves_LOD4","pbrMetallicRoughness":{"baseColorFactor":[0.78,0.5,0.14,1.0],"baseColorTexture":{"index":9},"metallicFactor":0.0,"roughnessFactor":0.82},"doubleSided":true,"alphaMode":"MASK","alphaCutoff":0.045},{"name":"hainbuchenhecke_individual_leaves_LOD5","pbrMetallicRoughness":{"baseColorFactor":[0.78,0.5,0.14,1.0],"baseColorTexture":{"index":9},"metallicFactor":0.0,"roughnessFactor":0.82},"doubleSided":true,"alphaMode":"MASK","alphaCutoff":0.038},{"name":"hainbuchenhecke_individual_leaves_LOD6","pbrMetallicRoughness":{"baseColorFactor":[0.78,0.5,0.14,1.0],"baseColorTexture":{"index":9},"metallicFactor":0.0,"roughnessFactor":0.82},"doubleSided":true,"alphaMode":"MASK","alphaCutoff":0.032},{"name":"hainbuchenhecke_individual_leaves_LOD7","pbrMetallicRoughness":{"baseColorFactor":[0.78,0.5,0.14,1.0],"baseColorTexture":{"index":9},"metallicFactor":0.0,"roughnessFactor":0.82},"doubleSided":true,"alphaMode":"MASK","alphaCutoff":0.027},{"name":"hainbuchenhecke_individual_leaves_LOD8","pbrMetallicRoughness":{"baseColorFactor":[0.78,0.5,0.14,1.0],"baseColorTexture":{"index":9},"metallicFactor":0.0,"roughnessFactor":0.82},"doubleSided":true,"alphaMode":"MASK","alphaCutoff":0.023},{"name":"hainbuchenhecke_individual_leaves_LOD9","pbrMetallicRoughness":{"baseColorFactor":[0.78,0.5,0.14,1.0],"baseColorTexture":{"index":9},"metallicFactor":0.0,"roughnessFactor":0.82},"doubleSided":true,"alphaMode":"MASK","alphaCutoff":0.02},{"name":"hainbuchenhecke_individual_leaves_LOD10","pbrMetallicRoughness":{"baseColorFactor":[0.78,0.5,0.14,1.0],"baseColorTexture":{"index":9},"metallicFactor":0.0,"roughnessFactor":0.82},"doubleSided":true,"alphaMode":"MASK","alphaCutoff":0.017},{"name":"hainbuchenhecke_individual_leaves_LOD11","pbrMetallicRoughness":{"baseColorFactor":[0.78,0.5,0.14,1.0],"baseColorTexture":{"index":9},"metallicFactor":0.0,"roughnessFactor":0.82},"doubleSided":true,"alphaMode":"MASK","alphaCutoff":0.015}]}