{"asset":{"version":"2.0","generator":"Connected Rails CC0 tree importer","copyright":"Mantissa and Poly Haven source models: CC0 1.0; optimisation: Connected Rails"},"scene":0,"scenes":[{"nodes":[0,1,2,3]}],"nodes":[{"name":"crown_LOD0","mesh":0},{"name":"crown_LOD1","mesh":1},{"name":"crown_LOD2","mesh":2},{"name":"crown_LOD3","mesh":3}],"meshes":[{"name":"crown_LOD0","primitives":[{"attributes":{"POSITION":0,"NORMAL":1,"TEXCOORD_0":2},"indices":3,"material":0}]},{"name":"crown_LOD1","primitives":[{"attributes":{"POSITION":8,"NORMAL":9,"TEXCOORD_0":10},"indices":11,"material":0}]},{"name":"crown_LOD2","primitives":[{"attributes":{"POSITION":16,"NORMAL":17,"TEXCOORD_0":18},"indices":19,"material":2}]},{"name":"crown_LOD3","primitives":[{"attributes":{"POSITION":20,"NORMAL":21,"TEXCOORD_0":22},"indices":23,"material":2}]}],"buffers":[{"uri":"hasel_c.bin","byteLength":6087568}],"bufferViews":[{"buffer":0,"byteOffset":0,"byteLength":220764,"target":34962},{"buffer":0,"byteOffset":220764,"byteLength":220764,"target":34962},{"buffer":0,"byteOffset":441528,"byteLength":147176,"target":34962},{"buffer":0,"byteOffset":588704,"byteLength":71994,"target":34963},{"buffer":0,"byteOffset":660700,"byteLength":1039272,"target":34962},{"buffer":0,"byteOffset":1699972,"byteLength":1039272,"target":34962},{"buffer":0,"byteOffset":2739244,"byteLength":692848,"target":34962},{"buffer":0,"byteOffset":3432092,"byteLength":1188516,"target":34963},{"buffer":0,"byteOffset":4620608,"byteLength":43272,"target":34962},{"buffer":0,"byteOffset":4663880,"byteLength":43272,"target":34962},{"buffer":0,"byteOffset":4707152,"byteLength":28848,"target":34962},{"buffer":0,"byteOffset":4736000,"byteLength":19200,"target":34963},{"buffer":0,"byteOffset":4755200,"byteLength":411300,"target":34962},{"buffer":0,"byteOffset":5166500,"byteLength":411300,"target":34962},{"buffer":0,"byteOffset":5577800,"byteLength":274200,"target":34962},{"buffer":0,"byteOffset":5852000,"byteLength":234726,"target":34963},{"buffer":0,"byteOffset":6086728,"byteLength":192,"target":34962},{"buffer":0,"byteOffset":6086920,"byteLength":192,"target":34962},{"buffer":0,"byteOffset":6087112,"byteLength":128,"target":34962},{"buffer":0,"byteOffset":6087240,"byteLength":48,"target":34963},{"buffer":0,"byteOffset":6087288,"byteLength":96,"target":34962},{"buffer":0,"byteOffset":6087384,"byteLength":96,"target":34962},{"buffer":0,"byteOffset":6087480,"byteLength":64,"target":34962},{"buffer":0,"byteOffset":6087544,"byteLength":24,"target":34963}],"accessors":[{"bufferView":0,"componentType":5126,"count":18397,"type":"VEC3","min":[-2.773120414592495,0.0,-3.102501135053207],"max":[2.775177679422791,5.931599691960383,3.1217490794011913]},{"bufferView":1,"componentType":5126,"count":18397,"type":"VEC3","min":[-0.999891459941864,-0.9999885559082031,-0.999011754989624],"max":[0.9996914267539978,0.9999831318855286,0.9997799396514893]},{"bufferView":2,"componentType":5126,"count":18397,"type":"VEC2"},{"bufferView":3,"componentType":5123,"count":35997,"type":"SCALAR","min":[0],"max":[18396]},{"bufferView":4,"componentType":5126,"count":86606,"type":"VEC3","min":[-2.9113173484802246,1.6250826120376587,-3.1739256381988525],"max":[2.8866806030273438,5.996859550476074,3.1761538982391357]},{"bufferView":5,"componentType":5126,"count":86606,"type":"VEC3","min":[-0.9999789595603943,-0.9999668598175049,-0.9999792575836182],"max":[0.9999904632568359,0.9999706149101257,0.999897301197052]},{"bufferView":6,"componentType":5126,"count":86606,"type":"VEC2"},{"bufferView":7,"componentType":5125,"count":297129,"type":"SCALAR","min":[0],"max":[86605]},{"bufferView":8,"componentType":5126,"count":3606,"type":"VEC3","min":[-2.5387101995940453,0.006721554448276958,-2.9458212291666968],"max":[2.5604094845214433,5.783087505237753,2.8417405530100264]},{"bufferView":9,"componentType":5126,"count":3606,"type":"VEC3","min":[-0.999891459941864,-0.9995003342628479,-0.9944363832473755],"max":[0.9997338652610779,0.999704897403717,0.9986874461174011]},{"bufferView":10,"componentType":5126,"count":3606,"type":"VEC2"},{"bufferView":11,"componentType":5123,"count":9600,"type":"SCALAR","min":[0],"max":[3605]},{"bufferView":12,"componentType":5126,"count":34275,"type":"VEC3","min":[-2.927367925643921,1.6200764179229736,-3.1857008934020996],"max":[2.904188871383667,5.846256732940674,3.1288833618164062]},{"bufferView":13,"componentType":5126,"count":34275,"type":"VEC3","min":[-0.9999659061431885,-0.9999668598175049,-0.9999477863311768],"max":[0.9997212290763855,0.999825656414032,0.999897301197052]},{"bufferView":14,"componentType":5126,"count":34275,"type":"VEC2"},{"bufferView":15,"componentType":5123,"count":117363,"type":"SCALAR","min":[0],"max":[34274]},{"bufferView":16,"componentType":5126,"count":16,"type":"VEC3","min":[-3.630000000000001,0,-3.630000000000001],"max":[3.630000000000001,6.0,3.630000000000001]},{"bufferView":17,"componentType":5126,"count":16,"type":"VEC3","min":[-1.0,0,-0.7071067811865475],"max":[-0.0,0,1.0]},{"bufferView":18,"componentType":5126,"count":16,"type":"VEC2"},{"bufferView":19,"componentType":5123,"count":24,"type":"SCALAR","min":[0],"max":[15]},{"bufferView":20,"componentType":5126,"count":8,"type":"VEC3","min":[-3.630000000000001,0,-3.630000000000001],"max":[3.630000000000001,6.0,3.630000000000001]},{"bufferView":21,"componentType":5126,"count":8,"type":"VEC3","min":[-1.0,0,6.123233995736766e-17],"max":[-0.0,0,1.0]},{"bufferView":22,"componentType":5126,"count":8,"type":"VEC2"},{"bufferView":23,"componentType":5123,"count":12,"type":"SCALAR","min":[0],"max":[7]}],"samplers":[{"magFilter":9729,"minFilter":9987,"wrapS":10497,"wrapT":10497}],"images":[{"uri":"textures/bark_broadleaf.jpg"},{"uri":"textures/foliage_broadleaf.jpg"},{"uri":"impostors/hasel_c_winter.png"}],"textures":[{"source":0,"sampler":0},{"source":1,"sampler":0},{"source":2,"sampler":0}],"materials":[{"name":"bark","pbrMetallicRoughness":{"baseColorFactor":[0.82,0.82,0.82,1.0],"baseColorTexture":{"index":0},"metallicFactor":0.0,"roughnessFactor":0.91},"doubleSided":false},{"name":"foliage","pbrMetallicRoughness":{"baseColorFactor":[0.0,0.0,0.0,0.0],"baseColorTexture":{"index":1},"metallicFactor":0.0,"roughnessFactor":0.78},"doubleSided":true},{"name":"whole_tree_impostor","pbrMetallicRoughness":{"baseColorFactor":[1,1,1,1],"baseColorTexture":{"index":2},"metallicFactor":0.0,"roughnessFactor":0.92},"doubleSided":true,"alphaMode":"MASK","alphaCutoff":0.18}]}