{"asset":{"version":"2.0","generator":"Connected Rails CC0 tree importer","copyright":"Mantissa and Poly Haven source models: CC0 1.0; optimisation: Connected Rails"},"scene":0,"scenes":[{"nodes":[0,1,2,3]}],"nodes":[{"name":"crown_LOD0","mesh":0},{"name":"crown_LOD1","mesh":1},{"name":"crown_LOD2","mesh":2},{"name":"crown_LOD3","mesh":3}],"meshes":[{"name":"crown_LOD0","primitives":[{"attributes":{"POSITION":0,"NORMAL":1,"TEXCOORD_0":2},"indices":3,"material":1}]},{"name":"crown_LOD1","primitives":[{"attributes":{"POSITION":4,"NORMAL":5,"TEXCOORD_0":6},"indices":7,"material":1}]},{"name":"crown_LOD2","primitives":[{"attributes":{"POSITION":8,"NORMAL":9,"TEXCOORD_0":10},"indices":11,"material":2}]},{"name":"crown_LOD3","primitives":[{"attributes":{"POSITION":12,"NORMAL":13,"TEXCOORD_0":14},"indices":15,"material":2}]}],"buffers":[{"uri":"heidelbeere_c.bin","byteLength":437788}],"bufferViews":[{"buffer":0,"byteOffset":0,"byteLength":93132,"target":34962},{"buffer":0,"byteOffset":93132,"byteLength":93132,"target":34962},{"buffer":0,"byteOffset":186264,"byteLength":62088,"target":34962},{"buffer":0,"byteOffset":248352,"byteLength":37812,"target":34963},{"buffer":0,"byteOffset":286164,"byteLength":50052,"target":34962},{"buffer":0,"byteOffset":336216,"byteLength":50052,"target":34962},{"buffer":0,"byteOffset":386268,"byteLength":33368,"target":34962},{"buffer":0,"byteOffset":419636,"byteLength":17310,"target":34963},{"buffer":0,"byteOffset":436948,"byteLength":192,"target":34962},{"buffer":0,"byteOffset":437140,"byteLength":192,"target":34962},{"buffer":0,"byteOffset":437332,"byteLength":128,"target":34962},{"buffer":0,"byteOffset":437460,"byteLength":48,"target":34963},{"buffer":0,"byteOffset":437508,"byteLength":96,"target":34962},{"buffer":0,"byteOffset":437604,"byteLength":96,"target":34962},{"buffer":0,"byteOffset":437700,"byteLength":64,"target":34962},{"buffer":0,"byteOffset":437764,"byteLength":24,"target":34963}],"accessors":[{"bufferView":0,"componentType":5126,"count":7761,"type":"VEC3","min":[-0.5249999999999999,0.0,-0.4468852004392161],"max":[0.5249999999999999,0.7,0.4468852004392161]},{"bufferView":1,"componentType":5126,"count":7761,"type":"VEC3","min":[-0.9990391731262207,-0.9997468590736389,-0.9968773126602173],"max":[0.9990585446357727,0.999971866607666,0.9998469352722168]},{"bufferView":2,"componentType":5126,"count":7761,"type":"VEC2"},{"bufferView":3,"componentType":5123,"count":18906,"type":"SCALAR","min":[0],"max":[7760]},{"bufferView":4,"componentType":5126,"count":4171,"type":"VEC3","min":[-0.5540032566453928,9.87250867645066e-05,-0.4462239637009582],"max":[0.5470659273944213,0.7001067954797184,0.432690662721716]},{"bufferView":5,"componentType":5126,"count":4171,"type":"VEC3","min":[-0.9991060495376587,-0.9983343482017517,-0.993841826915741],"max":[0.9990606307983398,0.9998250603675842,0.9983652234077454]},{"bufferView":6,"componentType":5126,"count":4171,"type":"VEC2"},{"bufferView":7,"componentType":5123,"count":8655,"type":"SCALAR","min":[0],"max":[4170]},{"bufferView":8,"componentType":5126,"count":16,"type":"VEC3","min":[-0.5774999999999999,0,-0.5774999999999999],"max":[0.5774999999999999,0.7,0.5774999999999999]},{"bufferView":9,"componentType":5126,"count":16,"type":"VEC3","min":[-1.0,0,-0.7071067811865475],"max":[-0.0,0,1.0]},{"bufferView":10,"componentType":5126,"count":16,"type":"VEC2"},{"bufferView":11,"componentType":5123,"count":24,"type":"SCALAR","min":[0],"max":[15]},{"bufferView":12,"componentType":5126,"count":8,"type":"VEC3","min":[-0.5774999999999999,0,-0.5774999999999999],"max":[0.5774999999999999,0.7,0.5774999999999999]},{"bufferView":13,"componentType":5126,"count":8,"type":"VEC3","min":[-1.0,0,6.123233995736766e-17],"max":[-0.0,0,1.0]},{"bufferView":14,"componentType":5126,"count":8,"type":"VEC2"},{"bufferView":15,"componentType":5123,"count":12,"type":"SCALAR","min":[0],"max":[7]}],"samplers":[{"magFilter":9729,"minFilter":9987,"wrapS":10497,"wrapT":10497}],"images":[{"uri":"textures/poly_searsia_lucida.png"},{"uri":"textures/poly_searsia_lucida.png"},{"uri":"impostors/heidelbeere_c_autumn.png"}],"textures":[{"source":0,"sampler":0},{"source":1,"sampler":0},{"source":2,"sampler":0}],"materials":[{"name":"bark","pbrMetallicRoughness":{"baseColorFactor":[0.82,0.82,0.82,1.0],"baseColorTexture":{"index":0},"metallicFactor":0.0,"roughnessFactor":0.91},"doubleSided":false},{"name":"foliage","pbrMetallicRoughness":{"baseColorFactor":[0.72,0.42,0.09,1.0],"baseColorTexture":{"index":1},"metallicFactor":0.0,"roughnessFactor":0.78},"doubleSided":true,"alphaMode":"MASK","alphaCutoff":0.18},{"name":"whole_tree_impostor","pbrMetallicRoughness":{"baseColorFactor":[1,1,1,1],"baseColorTexture":{"index":2},"metallicFactor":0.0,"roughnessFactor":0.92},"doubleSided":true,"alphaMode":"MASK","alphaCutoff":0.18}]}