{"asset":{"version":"2.0","generator":"Connected Rails CC0 tree importer","copyright":"Mantissa and Poly Haven source models: CC0 1.0; optimisation: Connected Rails"},"scene":0,"scenes":[{"nodes":[0,1,2,3]}],"nodes":[{"name":"crown_LOD0","mesh":0},{"name":"crown_LOD1","mesh":1},{"name":"crown_LOD2","mesh":2},{"name":"crown_LOD3","mesh":3}],"meshes":[{"name":"crown_LOD0","primitives":[{"attributes":{"POSITION":0,"NORMAL":1,"TEXCOORD_0":2},"indices":3,"material":1}]},{"name":"crown_LOD1","primitives":[{"attributes":{"POSITION":4,"NORMAL":5,"TEXCOORD_0":6},"indices":7,"material":1}]},{"name":"crown_LOD2","primitives":[{"attributes":{"POSITION":8,"NORMAL":9,"TEXCOORD_0":10},"indices":11,"material":2}]},{"name":"crown_LOD3","primitives":[{"attributes":{"POSITION":12,"NORMAL":13,"TEXCOORD_0":14},"indices":15,"material":2}]}],"buffers":[{"uri":"himbeere_b.bin","byteLength":184940}],"bufferViews":[{"buffer":0,"byteOffset":0,"byteLength":44904,"target":34962},{"buffer":0,"byteOffset":44904,"byteLength":44904,"target":34962},{"buffer":0,"byteOffset":89808,"byteLength":29936,"target":34962},{"buffer":0,"byteOffset":119744,"byteLength":36384,"target":34963},{"buffer":0,"byteOffset":156128,"byteLength":8532,"target":34962},{"buffer":0,"byteOffset":164660,"byteLength":8532,"target":34962},{"buffer":0,"byteOffset":173192,"byteLength":5688,"target":34962},{"buffer":0,"byteOffset":178880,"byteLength":5220,"target":34963},{"buffer":0,"byteOffset":184100,"byteLength":192,"target":34962},{"buffer":0,"byteOffset":184292,"byteLength":192,"target":34962},{"buffer":0,"byteOffset":184484,"byteLength":128,"target":34962},{"buffer":0,"byteOffset":184612,"byteLength":48,"target":34963},{"buffer":0,"byteOffset":184660,"byteLength":96,"target":34962},{"buffer":0,"byteOffset":184756,"byteLength":96,"target":34962},{"buffer":0,"byteOffset":184852,"byteLength":64,"target":34962},{"buffer":0,"byteOffset":184916,"byteLength":24,"target":34963}],"accessors":[{"bufferView":0,"componentType":5126,"count":3742,"type":"VEC3","min":[-0.4675,0.0,-0.4498948973936197],"max":[0.4675,1.1,0.4498948973936197]},{"bufferView":1,"componentType":5126,"count":3742,"type":"VEC3","min":[-0.9961062669754028,-0.5310803055763245,-0.9999850988388062],"max":[0.9980489611625671,0.9998307824134827,0.9981037974357605]},{"bufferView":2,"componentType":5126,"count":3742,"type":"VEC2"},{"bufferView":3,"componentType":5123,"count":18192,"type":"SCALAR","min":[0],"max":[3741]},{"bufferView":4,"componentType":5126,"count":711,"type":"VEC3","min":[-0.4671776978737864,0.0,-0.44979525027712636],"max":[0.46740563778053823,1.1,0.4498948973936197]},{"bufferView":5,"componentType":5126,"count":711,"type":"VEC3","min":[-0.9960769414901733,-0.28742703795433044,-0.99998539686203],"max":[0.9766634106636047,0.9998952150344849,0.9995871186256409]},{"bufferView":6,"componentType":5126,"count":711,"type":"VEC2"},{"bufferView":7,"componentType":5123,"count":2610,"type":"SCALAR","min":[0],"max":[710]},{"bufferView":8,"componentType":5126,"count":16,"type":"VEC3","min":[-0.5142500000000001,0,-0.5142500000000001],"max":[0.5142500000000001,1.1,0.5142500000000001]},{"bufferView":9,"componentType":5126,"count":16,"type":"VEC3","min":[-1.0,0,-0.7071067811865475],"max":[-0.0,0,1.0]},{"bufferView":10,"componentType":5126,"count":16,"type":"VEC2"},{"bufferView":11,"componentType":5123,"count":24,"type":"SCALAR","min":[0],"max":[15]},{"bufferView":12,"componentType":5126,"count":8,"type":"VEC3","min":[-0.5142500000000001,0,-0.5142500000000001],"max":[0.5142500000000001,1.1,0.5142500000000001]},{"bufferView":13,"componentType":5126,"count":8,"type":"VEC3","min":[-1.0,0,6.123233995736766e-17],"max":[-0.0,0,1.0]},{"bufferView":14,"componentType":5126,"count":8,"type":"VEC2"},{"bufferView":15,"componentType":5123,"count":12,"type":"SCALAR","min":[0],"max":[7]}],"samplers":[{"magFilter":9729,"minFilter":9987,"wrapS":10497,"wrapT":10497}],"images":[{"uri":"textures/poly_shrub_01.png"},{"uri":"textures/poly_shrub_01.png"},{"uri":"impostors/himbeere_b_summer.png"}],"textures":[{"source":0,"sampler":0},{"source":1,"sampler":0},{"source":2,"sampler":0}],"materials":[{"name":"bark","pbrMetallicRoughness":{"baseColorFactor":[0.82,0.82,0.82,1.0],"baseColorTexture":{"index":0},"metallicFactor":0.0,"roughnessFactor":0.91},"doubleSided":false},{"name":"foliage","pbrMetallicRoughness":{"baseColorFactor":[0.5480392156862745,1.0,0.7080392156862745,1.0],"baseColorTexture":{"index":1},"metallicFactor":0.0,"roughnessFactor":0.78},"doubleSided":true,"alphaMode":"MASK","alphaCutoff":0.18},{"name":"whole_tree_impostor","pbrMetallicRoughness":{"baseColorFactor":[1,1,1,1],"baseColorTexture":{"index":2},"metallicFactor":0.0,"roughnessFactor":0.92},"doubleSided":true,"alphaMode":"MASK","alphaCutoff":0.18}]}