{"asset":{"version":"2.0","generator":"Connected Rails CC0 tree importer","copyright":"Mantissa and Poly Haven source models: CC0 1.0; optimisation: Connected Rails"},"scene":0,"scenes":[{"nodes":[0,1,2,3]}],"nodes":[{"name":"crown_LOD0","mesh":0},{"name":"crown_LOD1","mesh":1},{"name":"crown_LOD2","mesh":2},{"name":"crown_LOD3","mesh":3}],"meshes":[{"name":"crown_LOD0","primitives":[{"attributes":{"POSITION":0,"NORMAL":1,"TEXCOORD_0":2},"indices":3,"material":1}]},{"name":"crown_LOD1","primitives":[{"attributes":{"POSITION":4,"NORMAL":5,"TEXCOORD_0":6},"indices":7,"material":1}]},{"name":"crown_LOD2","primitives":[{"attributes":{"POSITION":8,"NORMAL":9,"TEXCOORD_0":10},"indices":11,"material":2}]},{"name":"crown_LOD3","primitives":[{"attributes":{"POSITION":12,"NORMAL":13,"TEXCOORD_0":14},"indices":15,"material":2}]}],"buffers":[{"uri":"himbeere_c.bin","byteLength":163212}],"bufferViews":[{"buffer":0,"byteOffset":0,"byteLength":39372,"target":34962},{"buffer":0,"byteOffset":39372,"byteLength":39372,"target":34962},{"buffer":0,"byteOffset":78744,"byteLength":26248,"target":34962},{"buffer":0,"byteOffset":104992,"byteLength":32088,"target":34963},{"buffer":0,"byteOffset":137080,"byteLength":7680,"target":34962},{"buffer":0,"byteOffset":144760,"byteLength":7680,"target":34962},{"buffer":0,"byteOffset":152440,"byteLength":5120,"target":34962},{"buffer":0,"byteOffset":157560,"byteLength":4812,"target":34963},{"buffer":0,"byteOffset":162372,"byteLength":192,"target":34962},{"buffer":0,"byteOffset":162564,"byteLength":192,"target":34962},{"buffer":0,"byteOffset":162756,"byteLength":128,"target":34962},{"buffer":0,"byteOffset":162884,"byteLength":48,"target":34963},{"buffer":0,"byteOffset":162932,"byteLength":96,"target":34962},{"buffer":0,"byteOffset":163028,"byteLength":96,"target":34962},{"buffer":0,"byteOffset":163124,"byteLength":64,"target":34962},{"buffer":0,"byteOffset":163188,"byteLength":24,"target":34963}],"accessors":[{"bufferView":0,"componentType":5126,"count":3281,"type":"VEC3","min":[-0.584979806331762,0.0,-0.6375],"max":[0.584979806331762,1.5,0.6375]},{"bufferView":1,"componentType":5126,"count":3281,"type":"VEC3","min":[-0.9998146891593933,-0.4178755581378937,-0.9999851584434509],"max":[0.999520480632782,0.9999264478683472,0.9999779462814331]},{"bufferView":2,"componentType":5126,"count":3281,"type":"VEC2"},{"bufferView":3,"componentType":5123,"count":16044,"type":"SCALAR","min":[0],"max":[3280]},{"bufferView":4,"componentType":5126,"count":640,"type":"VEC3","min":[-0.584332816826827,0.0,-0.637399248678351],"max":[0.584979806331762,1.499926549590565,0.6375]},{"bufferView":5,"componentType":5126,"count":640,"type":"VEC3","min":[-0.9978211522102356,-0.31232166290283203,-0.9999854564666748],"max":[0.9859210848808289,0.9999579787254333,0.9998587965965271]},{"bufferView":6,"componentType":5126,"count":640,"type":"VEC2"},{"bufferView":7,"componentType":5123,"count":2406,"type":"SCALAR","min":[0],"max":[639]},{"bufferView":8,"componentType":5126,"count":16,"type":"VEC3","min":[-0.70125,0,-0.70125],"max":[0.70125,1.5,0.70125]},{"bufferView":9,"componentType":5126,"count":16,"type":"VEC3","min":[-1.0,0,-0.7071067811865475],"max":[-0.0,0,1.0]},{"bufferView":10,"componentType":5126,"count":16,"type":"VEC2"},{"bufferView":11,"componentType":5123,"count":24,"type":"SCALAR","min":[0],"max":[15]},{"bufferView":12,"componentType":5126,"count":8,"type":"VEC3","min":[-0.70125,0,-0.70125],"max":[0.70125,1.5,0.70125]},{"bufferView":13,"componentType":5126,"count":8,"type":"VEC3","min":[-1.0,0,6.123233995736766e-17],"max":[-0.0,0,1.0]},{"bufferView":14,"componentType":5126,"count":8,"type":"VEC2"},{"bufferView":15,"componentType":5123,"count":12,"type":"SCALAR","min":[0],"max":[7]}],"samplers":[{"magFilter":9729,"minFilter":9987,"wrapS":10497,"wrapT":10497}],"images":[{"uri":"textures/poly_shrub_01.png"},{"uri":"textures/poly_shrub_01.png"},{"uri":"impostors/himbeere_c_autumn.png"}],"textures":[{"source":0,"sampler":0},{"source":1,"sampler":0},{"source":2,"sampler":0}],"materials":[{"name":"bark","pbrMetallicRoughness":{"baseColorFactor":[0.82,0.82,0.82,1.0],"baseColorTexture":{"index":0},"metallicFactor":0.0,"roughnessFactor":0.91},"doubleSided":false},{"name":"foliage","pbrMetallicRoughness":{"baseColorFactor":[0.72,0.42,0.09,1.0],"baseColorTexture":{"index":1},"metallicFactor":0.0,"roughnessFactor":0.78},"doubleSided":true,"alphaMode":"MASK","alphaCutoff":0.18},{"name":"whole_tree_impostor","pbrMetallicRoughness":{"baseColorFactor":[1,1,1,1],"baseColorTexture":{"index":2},"metallicFactor":0.0,"roughnessFactor":0.92},"doubleSided":true,"alphaMode":"MASK","alphaCutoff":0.18}]}