{"asset":{"version":"2.0","generator":"Connected Rails CC0 tree importer","copyright":"Mantissa and Poly Haven source models: CC0 1.0; optimisation: Connected Rails"},"scene":0,"scenes":[{"nodes":[0,1,2,3]}],"nodes":[{"name":"crown_LOD0","mesh":0},{"name":"crown_LOD1","mesh":1},{"name":"crown_LOD2","mesh":2},{"name":"crown_LOD3","mesh":3}],"meshes":[{"name":"crown_LOD0","primitives":[{"attributes":{"POSITION":0,"NORMAL":1,"TEXCOORD_0":2},"indices":3,"material":1}]},{"name":"crown_LOD1","primitives":[{"attributes":{"POSITION":4,"NORMAL":5,"TEXCOORD_0":6},"indices":7,"material":1}]},{"name":"crown_LOD2","primitives":[{"attributes":{"POSITION":8,"NORMAL":9,"TEXCOORD_0":10},"indices":11,"material":2}]},{"name":"crown_LOD3","primitives":[{"attributes":{"POSITION":12,"NORMAL":13,"TEXCOORD_0":14},"indices":15,"material":2}]}],"buffers":[{"uri":"himbeere_a.bin","byteLength":268460}],"bufferViews":[{"buffer":0,"byteOffset":0,"byteLength":64836,"target":34962},{"buffer":0,"byteOffset":64836,"byteLength":64836,"target":34962},{"buffer":0,"byteOffset":129672,"byteLength":43224,"target":34962},{"buffer":0,"byteOffset":172896,"byteLength":52680,"target":34963},{"buffer":0,"byteOffset":225576,"byteLength":12792,"target":34962},{"buffer":0,"byteOffset":238368,"byteLength":12792,"target":34962},{"buffer":0,"byteOffset":251160,"byteLength":8528,"target":34962},{"buffer":0,"byteOffset":259688,"byteLength":7932,"target":34963},{"buffer":0,"byteOffset":267620,"byteLength":192,"target":34962},{"buffer":0,"byteOffset":267812,"byteLength":192,"target":34962},{"buffer":0,"byteOffset":268004,"byteLength":128,"target":34962},{"buffer":0,"byteOffset":268132,"byteLength":48,"target":34963},{"buffer":0,"byteOffset":268180,"byteLength":96,"target":34962},{"buffer":0,"byteOffset":268276,"byteLength":96,"target":34962},{"buffer":0,"byteOffset":268372,"byteLength":64,"target":34962},{"buffer":0,"byteOffset":268436,"byteLength":24,"target":34963}],"accessors":[{"bufferView":0,"componentType":5126,"count":5403,"type":"VEC3","min":[-0.2975,0.0,-0.2652338277353859],"max":[0.2975,0.7,0.2652338277353859]},{"bufferView":1,"componentType":5126,"count":5403,"type":"VEC3","min":[-0.9994304180145264,-0.8523291945457458,-0.9983596801757812],"max":[0.9999390244483948,0.9999638199806213,0.997063398361206]},{"bufferView":2,"componentType":5126,"count":5403,"type":"VEC2"},{"bufferView":3,"componentType":5123,"count":26340,"type":"SCALAR","min":[0],"max":[5402]},{"bufferView":4,"componentType":5126,"count":1066,"type":"VEC3","min":[-0.2971687657304079,0.00027180425854097585,-0.26515763541526727],"max":[0.2968955243065341,0.699973871411052,0.26440942414684815]},{"bufferView":5,"componentType":5126,"count":1066,"type":"VEC3","min":[-0.9994305372238159,-0.5630797743797302,-0.9959743618965149],"max":[0.9791324138641357,0.9999735355377197,0.9973251223564148]},{"bufferView":6,"componentType":5126,"count":1066,"type":"VEC2"},{"bufferView":7,"componentType":5123,"count":3966,"type":"SCALAR","min":[0],"max":[1065]},{"bufferView":8,"componentType":5126,"count":16,"type":"VEC3","min":[-0.32725,0,-0.32725],"max":[0.32725,0.7,0.32725]},{"bufferView":9,"componentType":5126,"count":16,"type":"VEC3","min":[-1.0,0,-0.7071067811865475],"max":[-0.0,0,1.0]},{"bufferView":10,"componentType":5126,"count":16,"type":"VEC2"},{"bufferView":11,"componentType":5123,"count":24,"type":"SCALAR","min":[0],"max":[15]},{"bufferView":12,"componentType":5126,"count":8,"type":"VEC3","min":[-0.32725,0,-0.32725],"max":[0.32725,0.7,0.32725]},{"bufferView":13,"componentType":5126,"count":8,"type":"VEC3","min":[-1.0,0,6.123233995736766e-17],"max":[-0.0,0,1.0]},{"bufferView":14,"componentType":5126,"count":8,"type":"VEC2"},{"bufferView":15,"componentType":5123,"count":12,"type":"SCALAR","min":[0],"max":[7]}],"samplers":[{"magFilter":9729,"minFilter":9987,"wrapS":10497,"wrapT":10497}],"images":[{"uri":"textures/poly_shrub_01.png"},{"uri":"textures/poly_shrub_01.png"},{"uri":"impostors/himbeere_a_summer.png"}],"textures":[{"source":0,"sampler":0},{"source":1,"sampler":0},{"source":2,"sampler":0}],"materials":[{"name":"bark","pbrMetallicRoughness":{"baseColorFactor":[0.82,0.82,0.82,1.0],"baseColorTexture":{"index":0},"metallicFactor":0.0,"roughnessFactor":0.91},"doubleSided":false},{"name":"foliage","pbrMetallicRoughness":{"baseColorFactor":[0.5480392156862745,1.0,0.7080392156862745,1.0],"baseColorTexture":{"index":1},"metallicFactor":0.0,"roughnessFactor":0.78},"doubleSided":true,"alphaMode":"MASK","alphaCutoff":0.18},{"name":"whole_tree_impostor","pbrMetallicRoughness":{"baseColorFactor":[1,1,1,1],"baseColorTexture":{"index":2},"metallicFactor":0.0,"roughnessFactor":0.92},"doubleSided":true,"alphaMode":"MASK","alphaCutoff":0.18}]}