{"asset":{"version":"2.0","generator":"Connected Rails CC0 tree importer","copyright":"Mantissa and Poly Haven source models: CC0 1.0; optimisation: Connected Rails"},"scene":0,"scenes":[{"nodes":[0,1,2,3]}],"nodes":[{"name":"crown_LOD0","mesh":0},{"name":"crown_LOD1","mesh":1},{"name":"crown_LOD2","mesh":2},{"name":"crown_LOD3","mesh":3}],"meshes":[{"name":"crown_LOD0","primitives":[{"attributes":{"POSITION":0,"NORMAL":1,"TEXCOORD_0":2},"indices":3,"material":0}]},{"name":"crown_LOD1","primitives":[{"attributes":{"POSITION":8,"NORMAL":9,"TEXCOORD_0":10},"indices":11,"material":0}]},{"name":"crown_LOD2","primitives":[{"attributes":{"POSITION":16,"NORMAL":17,"TEXCOORD_0":18},"indices":19,"material":2}]},{"name":"crown_LOD3","primitives":[{"attributes":{"POSITION":20,"NORMAL":21,"TEXCOORD_0":22},"indices":23,"material":2}]}],"buffers":[{"uri":"holunder_a.bin","byteLength":6028340}],"bufferViews":[{"buffer":0,"byteOffset":0,"byteLength":211572,"target":34962},{"buffer":0,"byteOffset":211572,"byteLength":211572,"target":34962},{"buffer":0,"byteOffset":423144,"byteLength":141048,"target":34962},{"buffer":0,"byteOffset":564192,"byteLength":72000,"target":34963},{"buffer":0,"byteOffset":636192,"byteLength":1037568,"target":34962},{"buffer":0,"byteOffset":1673760,"byteLength":1037568,"target":34962},{"buffer":0,"byteOffset":2711328,"byteLength":691712,"target":34962},{"buffer":0,"byteOffset":3403040,"byteLength":1187076,"target":34963},{"buffer":0,"byteOffset":4590116,"byteLength":43500,"target":34962},{"buffer":0,"byteOffset":4633616,"byteLength":43500,"target":34962},{"buffer":0,"byteOffset":4677116,"byteLength":29000,"target":34962},{"buffer":0,"byteOffset":4706116,"byteLength":19188,"target":34963},{"buffer":0,"byteOffset":4725304,"byteLength":402456,"target":34962},{"buffer":0,"byteOffset":5127760,"byteLength":402456,"target":34962},{"buffer":0,"byteOffset":5530216,"byteLength":268304,"target":34962},{"buffer":0,"byteOffset":5798520,"byteLength":228978,"target":34963},{"buffer":0,"byteOffset":6027500,"byteLength":192,"target":34962},{"buffer":0,"byteOffset":6027692,"byteLength":192,"target":34962},{"buffer":0,"byteOffset":6027884,"byteLength":128,"target":34962},{"buffer":0,"byteOffset":6028012,"byteLength":48,"target":34963},{"buffer":0,"byteOffset":6028060,"byteLength":96,"target":34962},{"buffer":0,"byteOffset":6028156,"byteLength":96,"target":34962},{"buffer":0,"byteOffset":6028252,"byteLength":64,"target":34962},{"buffer":0,"byteOffset":6028316,"byteLength":24,"target":34963}],"accessors":[{"bufferView":0,"componentType":5126,"count":17631,"type":"VEC3","min":[-1.6646085301701692,0.0012247540239098565,-1.5598847780846432],"max":[1.6963939935797399,2.9654475099752764,1.6193264594310839]},{"bufferView":1,"componentType":5126,"count":17631,"type":"VEC3","min":[-0.9999633431434631,-0.9999750852584839,-0.9996984004974365],"max":[0.9996232986450195,0.9999869465827942,0.9994527697563171]},{"bufferView":2,"componentType":5126,"count":17631,"type":"VEC2"},{"bufferView":3,"componentType":5123,"count":36000,"type":"SCALAR","min":[0],"max":[17630]},{"bufferView":4,"componentType":5126,"count":86464,"type":"VEC3","min":[-1.739563226699829,0.4887038767337799,-1.643706202507019],"max":[1.782537579536438,2.9591667652130127,1.6523478031158447]},{"bufferView":5,"componentType":5126,"count":86464,"type":"VEC3","min":[-0.9999125003814697,-0.9999773502349854,-0.9999915957450867],"max":[0.9999793171882629,0.9999697804450989,0.9999651908874512]},{"bufferView":6,"componentType":5126,"count":86464,"type":"VEC2"},{"bufferView":7,"componentType":5125,"count":296769,"type":"SCALAR","min":[0],"max":[86463]},{"bufferView":8,"componentType":5126,"count":3625,"type":"VEC3","min":[-1.6646085301701692,0.004479030659035491,-1.5325814203609662],"max":[1.5968306150345757,2.9654475099752764,1.6193264594310839]},{"bufferView":9,"componentType":5126,"count":3625,"type":"VEC3","min":[-0.9993703961372375,-0.9996457695960999,-0.9984723925590515],"max":[0.9997763633728027,0.9997339248657227,0.9987866282463074]},{"bufferView":10,"componentType":5126,"count":3625,"type":"VEC2"},{"bufferView":11,"componentType":5123,"count":9594,"type":"SCALAR","min":[0],"max":[3624]},{"bufferView":12,"componentType":5126,"count":33538,"type":"VEC3","min":[-1.6979655027389526,0.48430201411247253,-1.630304217338562],"max":[1.7908761501312256,2.96116304397583,1.6551426649093628]},{"bufferView":13,"componentType":5126,"count":33538,"type":"VEC3","min":[-0.9999125003814697,-0.9999647736549377,-0.9999915957450867],"max":[0.9995389580726624,0.9999697804450989,0.9999651908874512]},{"bufferView":14,"componentType":5126,"count":33538,"type":"VEC2"},{"bufferView":15,"componentType":5123,"count":114489,"type":"SCALAR","min":[0],"max":[33537]},{"bufferView":16,"componentType":5126,"count":16,"type":"VEC3","min":[-1.98,0,-1.98],"max":[1.98,3.0,1.98]},{"bufferView":17,"componentType":5126,"count":16,"type":"VEC3","min":[-1.0,0,-0.7071067811865475],"max":[-0.0,0,1.0]},{"bufferView":18,"componentType":5126,"count":16,"type":"VEC2"},{"bufferView":19,"componentType":5123,"count":24,"type":"SCALAR","min":[0],"max":[15]},{"bufferView":20,"componentType":5126,"count":8,"type":"VEC3","min":[-1.98,0,-1.98],"max":[1.98,3.0,1.98]},{"bufferView":21,"componentType":5126,"count":8,"type":"VEC3","min":[-1.0,0,6.123233995736766e-17],"max":[-0.0,0,1.0]},{"bufferView":22,"componentType":5126,"count":8,"type":"VEC2"},{"bufferView":23,"componentType":5123,"count":12,"type":"SCALAR","min":[0],"max":[7]}],"samplers":[{"magFilter":9729,"minFilter":9987,"wrapS":10497,"wrapT":10497}],"images":[{"uri":"textures/bark_broadleaf.jpg"},{"uri":"textures/foliage_broadleaf.jpg"},{"uri":"impostors/holunder_a_winter.png"}],"textures":[{"source":0,"sampler":0},{"source":1,"sampler":0},{"source":2,"sampler":0}],"materials":[{"name":"bark","pbrMetallicRoughness":{"baseColorFactor":[0.82,0.82,0.82,1.0],"baseColorTexture":{"index":0},"metallicFactor":0.0,"roughnessFactor":0.91},"doubleSided":false},{"name":"foliage","pbrMetallicRoughness":{"baseColorFactor":[0.0,0.0,0.0,0.0],"baseColorTexture":{"index":1},"metallicFactor":0.0,"roughnessFactor":0.78},"doubleSided":true},{"name":"whole_tree_impostor","pbrMetallicRoughness":{"baseColorFactor":[1,1,1,1],"baseColorTexture":{"index":2},"metallicFactor":0.0,"roughnessFactor":0.92},"doubleSided":true,"alphaMode":"MASK","alphaCutoff":0.18}]}