{"asset":{"version":"2.0","generator":"Connected Rails CC0 tree importer","copyright":"Mantissa and Poly Haven source models: CC0 1.0; optimisation: Connected Rails"},"scene":0,"scenes":[{"nodes":[0,1,2,3]}],"nodes":[{"name":"crown_LOD0","mesh":0},{"name":"crown_LOD1","mesh":1},{"name":"crown_LOD2","mesh":2},{"name":"crown_LOD3","mesh":3}],"meshes":[{"name":"crown_LOD0","primitives":[{"attributes":{"POSITION":0,"NORMAL":1,"TEXCOORD_0":2},"indices":3,"material":0},{"attributes":{"POSITION":4,"NORMAL":5,"TEXCOORD_0":6},"indices":7,"material":1}]},{"name":"crown_LOD1","primitives":[{"attributes":{"POSITION":8,"NORMAL":9,"TEXCOORD_0":10},"indices":11,"material":0},{"attributes":{"POSITION":12,"NORMAL":13,"TEXCOORD_0":14},"indices":15,"material":1}]},{"name":"crown_LOD2","primitives":[{"attributes":{"POSITION":16,"NORMAL":17,"TEXCOORD_0":18},"indices":19,"material":2}]},{"name":"crown_LOD3","primitives":[{"attributes":{"POSITION":20,"NORMAL":21,"TEXCOORD_0":22},"indices":23,"material":2}]}],"buffers":[{"uri":"holunder_c.bin","byteLength":6106672}],"bufferViews":[{"buffer":0,"byteOffset":0,"byteLength":218820,"target":34962},{"buffer":0,"byteOffset":218820,"byteLength":218820,"target":34962},{"buffer":0,"byteOffset":437640,"byteLength":145880,"target":34962},{"buffer":0,"byteOffset":583520,"byteLength":72000,"target":34963},{"buffer":0,"byteOffset":655520,"byteLength":1042728,"target":34962},{"buffer":0,"byteOffset":1698248,"byteLength":1042728,"target":34962},{"buffer":0,"byteOffset":2740976,"byteLength":695152,"target":34962},{"buffer":0,"byteOffset":3436128,"byteLength":1192212,"target":34963},{"buffer":0,"byteOffset":4628340,"byteLength":50028,"target":34962},{"buffer":0,"byteOffset":4678368,"byteLength":50028,"target":34962},{"buffer":0,"byteOffset":4728396,"byteLength":33352,"target":34962},{"buffer":0,"byteOffset":4761748,"byteLength":19194,"target":34963},{"buffer":0,"byteOffset":4780944,"byteLength":409368,"target":34962},{"buffer":0,"byteOffset":5190312,"byteLength":409368,"target":34962},{"buffer":0,"byteOffset":5599680,"byteLength":272912,"target":34962},{"buffer":0,"byteOffset":5872592,"byteLength":233238,"target":34963},{"buffer":0,"byteOffset":6105832,"byteLength":192,"target":34962},{"buffer":0,"byteOffset":6106024,"byteLength":192,"target":34962},{"buffer":0,"byteOffset":6106216,"byteLength":128,"target":34962},{"buffer":0,"byteOffset":6106344,"byteLength":48,"target":34963},{"buffer":0,"byteOffset":6106392,"byteLength":96,"target":34962},{"buffer":0,"byteOffset":6106488,"byteLength":96,"target":34962},{"buffer":0,"byteOffset":6106584,"byteLength":64,"target":34962},{"buffer":0,"byteOffset":6106648,"byteLength":24,"target":34963}],"accessors":[{"bufferView":0,"componentType":5126,"count":18235,"type":"VEC3","min":[-3.3980208718626326,-0.00021849413786381068,-3.259307708907013],"max":[3.36622439771736,5.918969089296576,3.356746568780655]},{"bufferView":1,"componentType":5126,"count":18235,"type":"VEC3","min":[-0.9996485114097595,-0.9998546242713928,-0.9999962449073792],"max":[0.9995200037956238,0.9999462366104126,0.9994491934776306]},{"bufferView":2,"componentType":5126,"count":18235,"type":"VEC2"},{"bufferView":3,"componentType":5123,"count":36000,"type":"SCALAR","min":[0],"max":[18234]},{"bufferView":4,"componentType":5126,"count":86894,"type":"VEC3","min":[-3.475231170654297,1.8974553346633911,-3.5196006298065186],"max":[3.4609315395355225,5.928586483001709,3.3833489418029785]},{"bufferView":5,"componentType":5126,"count":86894,"type":"VEC3","min":[-0.9999209642410278,-0.9999942183494568,-0.9999717473983765],"max":[0.9998665452003479,0.999994158744812,0.9999886155128479]},{"bufferView":6,"componentType":5126,"count":86894,"type":"VEC2"},{"bufferView":7,"componentType":5125,"count":298053,"type":"SCALAR","min":[0],"max":[86893]},{"bufferView":8,"componentType":5126,"count":4169,"type":"VEC3","min":[-3.10499344921993,-0.0012751356548956147,-3.1365322222894783],"max":[3.144227677300986,5.829176116034767,3.097152876436443]},{"bufferView":9,"componentType":5126,"count":4169,"type":"VEC3","min":[-0.9995054602622986,-0.9998546242713928,-0.9998774528503418],"max":[0.9984495043754578,0.9994720220565796,0.9994491934776306]},{"bufferView":10,"componentType":5126,"count":4169,"type":"VEC2"},{"bufferView":11,"componentType":5123,"count":9597,"type":"SCALAR","min":[0],"max":[4168]},{"bufferView":12,"componentType":5126,"count":34114,"type":"VEC3","min":[-3.441188097000122,1.879945993423462,-3.537660598754883],"max":[3.4782633781433105,5.932785987854004,3.3211634159088135]},{"bufferView":13,"componentType":5126,"count":34114,"type":"VEC3","min":[-0.9999136328697205,-0.9999580383300781,-0.9999717473983765],"max":[0.9998665452003479,0.999994158744812,0.9999886155128479]},{"bufferView":14,"componentType":5126,"count":34114,"type":"VEC2"},{"bufferView":15,"componentType":5123,"count":116619,"type":"SCALAR","min":[0],"max":[34113]},{"bufferView":16,"componentType":5126,"count":16,"type":"VEC3","min":[-3.96,0,-3.96],"max":[3.96,6.0,3.96]},{"bufferView":17,"componentType":5126,"count":16,"type":"VEC3","min":[-1.0,0,-0.7071067811865475],"max":[-0.0,0,1.0]},{"bufferView":18,"componentType":5126,"count":16,"type":"VEC2"},{"bufferView":19,"componentType":5123,"count":24,"type":"SCALAR","min":[0],"max":[15]},{"bufferView":20,"componentType":5126,"count":8,"type":"VEC3","min":[-3.96,0,-3.96],"max":[3.96,6.0,3.96]},{"bufferView":21,"componentType":5126,"count":8,"type":"VEC3","min":[-1.0,0,6.123233995736766e-17],"max":[-0.0,0,1.0]},{"bufferView":22,"componentType":5126,"count":8,"type":"VEC2"},{"bufferView":23,"componentType":5123,"count":12,"type":"SCALAR","min":[0],"max":[7]}],"samplers":[{"magFilter":9729,"minFilter":9987,"wrapS":10497,"wrapT":10497}],"images":[{"uri":"textures/bark_broadleaf.jpg"},{"uri":"textures/foliage_broadleaf.jpg"},{"uri":"impostors/holunder_c_autumn.png"}],"textures":[{"source":0,"sampler":0},{"source":1,"sampler":0},{"source":2,"sampler":0}],"materials":[{"name":"bark","pbrMetallicRoughness":{"baseColorFactor":[0.82,0.82,0.82,1.0],"baseColorTexture":{"index":0},"metallicFactor":0.0,"roughnessFactor":0.91},"doubleSided":false},{"name":"foliage","pbrMetallicRoughness":{"baseColorFactor":[0.68,0.38,0.08,1.0],"baseColorTexture":{"index":1},"metallicFactor":0.0,"roughnessFactor":0.78},"doubleSided":true},{"name":"whole_tree_impostor","pbrMetallicRoughness":{"baseColorFactor":[1,1,1,1],"baseColorTexture":{"index":2},"metallicFactor":0.0,"roughnessFactor":0.92},"doubleSided":true,"alphaMode":"MASK","alphaCutoff":0.18}]}