{"asset":{"version":"2.0","generator":"Connected Rails CC0 tree importer","copyright":"Mantissa and Poly Haven source models: CC0 1.0; optimisation: Connected Rails"},"scene":0,"scenes":[{"nodes":[0,1,2,3]}],"nodes":[{"name":"crown_LOD0","mesh":0},{"name":"crown_LOD1","mesh":1},{"name":"crown_LOD2","mesh":2},{"name":"crown_LOD3","mesh":3}],"meshes":[{"name":"crown_LOD0","primitives":[{"attributes":{"POSITION":0,"NORMAL":1,"TEXCOORD_0":2},"indices":3,"material":1}]},{"name":"crown_LOD1","primitives":[{"attributes":{"POSITION":4,"NORMAL":5,"TEXCOORD_0":6},"indices":7,"material":1}]},{"name":"crown_LOD2","primitives":[{"attributes":{"POSITION":8,"NORMAL":9,"TEXCOORD_0":10},"indices":11,"material":2}]},{"name":"crown_LOD3","primitives":[{"attributes":{"POSITION":12,"NORMAL":13,"TEXCOORD_0":14},"indices":15,"material":2}]}],"buffers":[{"uri":"hundsrose_a.bin","byteLength":494748}],"bufferViews":[{"buffer":0,"byteOffset":0,"byteLength":105048,"target":34962},{"buffer":0,"byteOffset":105048,"byteLength":105048,"target":34962},{"buffer":0,"byteOffset":210096,"byteLength":70032,"target":34962},{"buffer":0,"byteOffset":280128,"byteLength":43392,"target":34963},{"buffer":0,"byteOffset":323520,"byteLength":56400,"target":34962},{"buffer":0,"byteOffset":379920,"byteLength":56400,"target":34962},{"buffer":0,"byteOffset":436320,"byteLength":37600,"target":34962},{"buffer":0,"byteOffset":473920,"byteLength":19986,"target":34963},{"buffer":0,"byteOffset":493908,"byteLength":192,"target":34962},{"buffer":0,"byteOffset":494100,"byteLength":192,"target":34962},{"buffer":0,"byteOffset":494292,"byteLength":128,"target":34962},{"buffer":0,"byteOffset":494420,"byteLength":48,"target":34963},{"buffer":0,"byteOffset":494468,"byteLength":96,"target":34962},{"buffer":0,"byteOffset":494564,"byteLength":96,"target":34962},{"buffer":0,"byteOffset":494660,"byteLength":64,"target":34962},{"buffer":0,"byteOffset":494724,"byteLength":24,"target":34963}],"accessors":[{"bufferView":0,"componentType":5126,"count":8754,"type":"VEC3","min":[-0.9375,0.0,-0.6888268044683518],"max":[0.9375,1.5000000000000002,0.6888268044683518]},{"bufferView":1,"componentType":5126,"count":8754,"type":"VEC3","min":[-0.9996474385261536,-0.9998162388801575,-0.9986070990562439],"max":[0.9991918206214905,0.9999634027481079,0.9998778700828552]},{"bufferView":2,"componentType":5126,"count":8754,"type":"VEC2"},{"bufferView":3,"componentType":5123,"count":21696,"type":"SCALAR","min":[0],"max":[8753]},{"bufferView":4,"componentType":5126,"count":4700,"type":"VEC3","min":[-0.935177803286538,2.5058921391079027e-05,-0.6709294058316859],"max":[0.949319072105593,1.5000679081827781,0.6704794961500986]},{"bufferView":5,"componentType":5126,"count":4700,"type":"VEC3","min":[-0.9976518154144287,-0.9994509816169739,-0.9989542961120605],"max":[0.9988946318626404,0.9999633431434631,0.9998062252998352]},{"bufferView":6,"componentType":5126,"count":4700,"type":"VEC2"},{"bufferView":7,"componentType":5123,"count":9993,"type":"SCALAR","min":[0],"max":[4699]},{"bufferView":8,"componentType":5126,"count":16,"type":"VEC3","min":[-1.03125,0,-1.03125],"max":[1.03125,1.5,1.03125]},{"bufferView":9,"componentType":5126,"count":16,"type":"VEC3","min":[-1.0,0,-0.7071067811865475],"max":[-0.0,0,1.0]},{"bufferView":10,"componentType":5126,"count":16,"type":"VEC2"},{"bufferView":11,"componentType":5123,"count":24,"type":"SCALAR","min":[0],"max":[15]},{"bufferView":12,"componentType":5126,"count":8,"type":"VEC3","min":[-1.03125,0,-1.03125],"max":[1.03125,1.5,1.03125]},{"bufferView":13,"componentType":5126,"count":8,"type":"VEC3","min":[-1.0,0,6.123233995736766e-17],"max":[-0.0,0,1.0]},{"bufferView":14,"componentType":5126,"count":8,"type":"VEC2"},{"bufferView":15,"componentType":5123,"count":12,"type":"SCALAR","min":[0],"max":[7]}],"samplers":[{"magFilter":9729,"minFilter":9987,"wrapS":10497,"wrapT":10497}],"images":[{"uri":"textures/poly_searsia_lucida.png"},{"uri":"textures/poly_searsia_lucida.png"},{"uri":"impostors/hundsrose_a_summer.png"}],"textures":[{"source":0,"sampler":0},{"source":1,"sampler":0},{"source":2,"sampler":0}],"materials":[{"name":"bark","pbrMetallicRoughness":{"baseColorFactor":[0.82,0.82,0.82,1.0],"baseColorTexture":{"index":0},"metallicFactor":0.0,"roughnessFactor":0.91},"doubleSided":false},{"name":"foliage","pbrMetallicRoughness":{"baseColorFactor":[0.5550980392156862,1.0,0.7150980392156863,1.0],"baseColorTexture":{"index":1},"metallicFactor":0.0,"roughnessFactor":0.78},"doubleSided":true,"alphaMode":"MASK","alphaCutoff":0.18},{"name":"whole_tree_impostor","pbrMetallicRoughness":{"baseColorFactor":[1,1,1,1],"baseColorTexture":{"index":2},"metallicFactor":0.0,"roughnessFactor":0.92},"doubleSided":true,"alphaMode":"MASK","alphaCutoff":0.18}]}