{"asset":{"version":"2.0","generator":"Connected Rails CC0 hedge composer","copyright":"Mantissa and Poly Haven source models: CC0 1.0; hedge composition: Connected Rails"},"scene":0,"scenes":[{"nodes":[0,1,2,3,4,5,6,7,8,9,10,11]}],"nodes":[{"name":"hedge_LOD0","children":[12,14,16,18,20,26,36,38,42,46,48,60,72,82,94,98,104,108,110,118,129,131,137,139]},{"name":"hedge_LOD1","children":[13,15,17,19,21,27,37,39,43,47,49,61,73,83,95,99,105,109,111,119,130,132,138,140]},{"name":"hedge_LOD2","children":[22,28,40,44,50,62,74,84,96,100,106,112,120,133,141]},{"name":"hedge_LOD3","children":[23,29,41,45,51,63,75,85,97,101,107,113,121,134,142]},{"name":"hedge_LOD4","children":[24,30,52,64,76,86,102,114,122,135,143]},{"name":"hedge_LOD5","children":[25,31,53,65,77,87,103,115,123,136,144]},{"name":"hedge_LOD6","children":[32,54,66,78,88,116,124,145]},{"name":"hedge_LOD7","children":[33,55,67,79,89,117,125,146]},{"name":"hedge_LOD8","children":[34,56,68,80,90,126,147]},{"name":"hedge_LOD9","children":[35,57,69,81,91,127,148]},{"name":"hedge_LOD10","children":[58,70,92,128,149]},{"name":"hedge_LOD11","children":[59,71,93,150]},{"name":"besenginster_c_part_12_LOD0","mesh":1,"translation":[-3.0,-0.0,0.060568434652762265],"rotation":[0.0,0.06579063617452621,0.0,0.9978334491245275],"scale":[0.41309162327144744,0.7153462462605887,0.662814356138474]},{"name":"besenginster_c_part_13_LOD1","mesh":1,"translation":[-3.0,-0.0,0.060568434652762265],"rotation":[0.0,0.06579063617452621,0.0,0.9978334491245275],"scale":[0.41309162327144744,0.7153462462605887,0.662814356138474]},{"name":"besenheide_c_part_14_LOD0","mesh":5,"translation":[-2.4545454545454546,-0.0,0.06505252286575824],"rotation":[0.0,-0.07531368139660827,0.0,0.997159891589353],"scale":[0.8440574033190633,2.2197386425068473,1.220391496268206]},{"name":"besenheide_c_part_15_LOD1","mesh":5,"translation":[-2.4545454545454546,-0.0,0.06505252286575824],"rotation":[0.0,-0.07531368139660827,0.0,0.997159891589353],"scale":[0.8440574033190633,2.2197386425068473,1.220391496268206]},{"name":"besenginster_c_part_16_LOD0","mesh":1,"translation":[-1.9090909090909092,-0.0,0.06989176700961128],"rotation":[0.0,0.05650246705487327,0.0,0.9984024595405968],"scale":[0.41309162327144744,0.71240408195693,0.6830271563815355]},{"name":"besenginster_c_part_17_LOD1","mesh":1,"translation":[-1.9090909090909092,-0.0,0.06989176700961128],"rotation":[0.0,0.05650246705487327,0.0,0.9984024595405968],"scale":[0.41309162327144744,0.71240408195693,0.6830271563815355]},{"name":"besenheide_c_part_18_LOD0","mesh":5,"translation":[-1.3636363636363638,-0.0,0.10131093601733293],"rotation":[0.0,-0.07205199381476789,0.0,0.997400877374447],"scale":[0.8440574033190633,2.3395373390013425,1.2696412770548282]},{"name":"besenheide_c_part_19_LOD1","mesh":5,"translation":[-1.3636363636363638,-0.0,0.10131093601733293],"rotation":[0.0,-0.07205199381476789,0.0,0.997400877374447],"scale":[0.8440574033190633,2.3395373390013425,1.2696412770548282]},{"name":"besenginster_c_part_20_LOD0","mesh":1,"translation":[-0.8181818181818183,-0.0,-0.003030315346134488],"rotation":[0.0,0.07157015011823498,0.0,0.9974355686519573],"scale":[0.41309162327144744,0.711346388863175,0.6678355754277949]},{"name":"besenginster_c_part_21_LOD1","mesh":1,"translation":[-0.8181818181818183,-0.0,-0.003030315346134488],"rotation":[0.0,0.07157015011823498,0.0,0.9974355686519573],"scale":[0.41309162327144744,0.711346388863175,0.6678355754277949]},{"name":"besenginster_c_part_22_LOD2","mesh":1,"translation":[-0.8181818181818183,-0.0,-0.003030315346134488],"rotation":[0.0,0.07157015011823498,0.0,0.9974355686519573],"scale":[0.41309162327144744,0.711346388863175,0.6678355754277949]},{"name":"besenginster_c_part_23_LOD3","mesh":1,"translation":[-0.8181818181818183,-0.0,-0.003030315346134488],"rotation":[0.0,0.07157015011823498,0.0,0.9974355686519573],"scale":[0.41309162327144744,0.711346388863175,0.6678355754277949]},{"name":"besenginster_c_part_24_LOD4","mesh":1,"translation":[-0.8181818181818183,-0.0,-0.003030315346134488],"rotation":[0.0,0.07157015011823498,0.0,0.9974355686519573],"scale":[0.41309162327144744,0.711346388863175,0.6678355754277949]},{"name":"besenginster_c_part_25_LOD5","mesh":1,"translation":[-0.8181818181818183,-0.0,-0.003030315346134488],"rotation":[0.0,0.07157015011823498,0.0,0.9974355686519573],"scale":[0.41309162327144744,0.711346388863175,0.6678355754277949]},{"name":"besenheide_c_part_26_LOD0","mesh":5,"translation":[-0.27272727272727293,-0.0,0.08636407721359268],"rotation":[0.0,0.06788355218752562,0.0,0.9976932511260179],"scale":[0.8440574033190633,2.193757161011083,1.3054792242372597]},{"name":"besenheide_c_part_27_LOD1","mesh":5,"translation":[-0.27272727272727293,-0.0,0.08636407721359268],"rotation":[0.0,0.06788355218752562,0.0,0.9976932511260179],"scale":[0.8440574033190633,2.193757161011083,1.3054792242372597]},{"name":"besenheide_c_part_28_LOD2","mesh":5,"translation":[-0.27272727272727293,-0.0,0.08636407721359268],"rotation":[0.0,0.06788355218752562,0.0,0.9976932511260179],"scale":[0.8440574033190633,2.193757161011083,1.3054792242372597]},{"name":"besenheide_c_part_29_LOD3","mesh":5,"translation":[-0.27272727272727293,-0.0,0.08636407721359268],"rotation":[0.0,0.06788355218752562,0.0,0.9976932511260179],"scale":[0.8440574033190633,2.193757161011083,1.3054792242372597]},{"name":"besenheide_c_part_30_LOD4","mesh":5,"translation":[-0.27272727272727293,-0.0,0.08636407721359268],"rotation":[0.0,0.06788355218752562,0.0,0.9976932511260179],"scale":[0.8440574033190633,2.193757161011083,1.3054792242372597]},{"name":"besenheide_c_part_31_LOD5","mesh":5,"translation":[-0.27272727272727293,-0.0,0.08636407721359268],"rotation":[0.0,0.06788355218752562,0.0,0.9976932511260179],"scale":[0.8440574033190633,2.193757161011083,1.3054792242372597]},{"name":"besenheide_c_part_32_LOD6","mesh":5,"translation":[-0.27272727272727293,-0.0,0.08636407721359268],"rotation":[0.0,0.06788355218752562,0.0,0.9976932511260179],"scale":[0.8440574033190633,2.193757161011083,1.3054792242372597]},{"name":"besenheide_c_part_33_LOD7","mesh":5,"translation":[-0.27272727272727293,-0.0,0.08636407721359268],"rotation":[0.0,0.06788355218752562,0.0,0.9976932511260179],"scale":[0.8440574033190633,2.193757161011083,1.3054792242372597]},{"name":"besenheide_c_part_34_LOD8","mesh":5,"translation":[-0.27272727272727293,-0.0,0.08636407721359268],"rotation":[0.0,0.06788355218752562,0.0,0.9976932511260179],"scale":[0.8440574033190633,2.193757161011083,1.3054792242372597]},{"name":"besenheide_c_part_35_LOD9","mesh":5,"translation":[-0.27272727272727293,-0.0,0.08636407721359268],"rotation":[0.0,0.06788355218752562,0.0,0.9976932511260179],"scale":[0.8440574033190633,2.193757161011083,1.3054792242372597]},{"name":"besenginster_c_part_36_LOD0","mesh":1,"translation":[0.2727272727272725,-0.0,-0.029400015356589662],"rotation":[0.0,-0.053406964624098774,0.0,0.9985728296572265],"scale":[0.41309162327144744,0.6934494852577313,0.6517447371415388]},{"name":"besenginster_c_part_37_LOD1","mesh":1,"translation":[0.2727272727272725,-0.0,-0.029400015356589662],"rotation":[0.0,-0.053406964624098774,0.0,0.9985728296572265],"scale":[0.41309162327144744,0.6934494852577313,0.6517447371415388]},{"name":"besenheide_c_part_38_LOD0","mesh":5,"translation":[0.8181818181818179,-0.0,-0.139240119700941],"rotation":[0.0,0.028361970826302436,0.0,0.9995977183901772],"scale":[0.8440574033190633,2.2330841699995405,1.2897685368914114]},{"name":"besenheide_c_part_39_LOD1","mesh":5,"translation":[0.8181818181818179,-0.0,-0.139240119700941],"rotation":[0.0,0.028361970826302436,0.0,0.9995977183901772],"scale":[0.8440574033190633,2.2330841699995405,1.2897685368914114]},{"name":"besenheide_c_part_40_LOD2","mesh":5,"translation":[0.8181818181818179,-0.0,-0.139240119700941],"rotation":[0.0,0.028361970826302436,0.0,0.9995977183901772],"scale":[0.8440574033190633,2.2330841699995405,1.2897685368914114]},{"name":"besenheide_c_part_41_LOD3","mesh":5,"translation":[0.8181818181818179,-0.0,-0.139240119700941],"rotation":[0.0,0.028361970826302436,0.0,0.9995977183901772],"scale":[0.8440574033190633,2.2330841699995405,1.2897685368914114]},{"name":"besenginster_c_part_42_LOD0","mesh":1,"translation":[1.3636363636363633,-0.0,-0.03428022642334609],"rotation":[0.0,-0.007183362307092861,0.0,0.999974199320145],"scale":[0.41309162327144744,0.7228460468101621,0.5915221215211255]},{"name":"besenginster_c_part_43_LOD1","mesh":1,"translation":[1.3636363636363633,-0.0,-0.03428022642334609],"rotation":[0.0,-0.007183362307092861,0.0,0.999974199320145],"scale":[0.41309162327144744,0.7228460468101621,0.5915221215211255]},{"name":"besenginster_c_part_44_LOD2","mesh":1,"translation":[1.3636363636363633,-0.0,-0.03428022642334609],"rotation":[0.0,-0.007183362307092861,0.0,0.999974199320145],"scale":[0.41309162327144744,0.7228460468101621,0.5915221215211255]},{"name":"besenginster_c_part_45_LOD3","mesh":1,"translation":[1.3636363636363633,-0.0,-0.03428022642334609],"rotation":[0.0,-0.007183362307092861,0.0,0.999974199320145],"scale":[0.41309162327144744,0.7228460468101621,0.5915221215211255]},{"name":"besenheide_c_part_46_LOD0","mesh":5,"translation":[1.9090909090909083,-0.0,-0.10162978791270166],"rotation":[0.0,0.07953430728580121,0.0,0.996832129279834],"scale":[0.8440574033190633,2.1600821198521842,1.3735627438951576]},{"name":"besenheide_c_part_47_LOD1","mesh":5,"translation":[1.9090909090909083,-0.0,-0.10162978791270166],"rotation":[0.0,0.07953430728580121,0.0,0.996832129279834],"scale":[0.8440574033190633,2.1600821198521842,1.3735627438951576]},{"name":"besenginster_c_part_48_LOD0","mesh":1,"translation":[2.454545454545454,-0.0,-0.10453645802460482],"rotation":[0.0,-0.049917697856572914,0.0,0.9987533346330814],"scale":[0.41309162327144744,0.7446232051090566,0.6104830503749236]},{"name":"besenginster_c_part_49_LOD1","mesh":1,"translation":[2.454545454545454,-0.0,-0.10453645802460482],"rotation":[0.0,-0.049917697856572914,0.0,0.9987533346330814],"scale":[0.41309162327144744,0.7446232051090566,0.6104830503749236]},{"name":"besenginster_c_part_50_LOD2","mesh":1,"translation":[2.454545454545454,-0.0,-0.10453645802460482],"rotation":[0.0,-0.049917697856572914,0.0,0.9987533346330814],"scale":[0.41309162327144744,0.7446232051090566,0.6104830503749236]},{"name":"besenginster_c_part_51_LOD3","mesh":1,"translation":[2.454545454545454,-0.0,-0.10453645802460482],"rotation":[0.0,-0.049917697856572914,0.0,0.9987533346330814],"scale":[0.41309162327144744,0.7446232051090566,0.6104830503749236]},{"name":"besenginster_c_part_52_LOD4","mesh":1,"translation":[2.454545454545454,-0.0,-0.10453645802460482],"rotation":[0.0,-0.049917697856572914,0.0,0.9987533346330814],"scale":[0.41309162327144744,0.7446232051090566,0.6104830503749236]},{"name":"besenginster_c_part_53_LOD5","mesh":1,"translation":[2.454545454545454,-0.0,-0.10453645802460482],"rotation":[0.0,-0.049917697856572914,0.0,0.9987533346330814],"scale":[0.41309162327144744,0.7446232051090566,0.6104830503749236]},{"name":"besenginster_c_part_54_LOD6","mesh":1,"translation":[2.454545454545454,-0.0,-0.10453645802460482],"rotation":[0.0,-0.049917697856572914,0.0,0.9987533346330814],"scale":[0.41309162327144744,0.7446232051090566,0.6104830503749236]},{"name":"besenginster_c_part_55_LOD7","mesh":1,"translation":[2.454545454545454,-0.0,-0.10453645802460482],"rotation":[0.0,-0.049917697856572914,0.0,0.9987533346330814],"scale":[0.41309162327144744,0.7446232051090566,0.6104830503749236]},{"name":"besenginster_c_part_56_LOD8","mesh":1,"translation":[2.454545454545454,-0.0,-0.10453645802460482],"rotation":[0.0,-0.049917697856572914,0.0,0.9987533346330814],"scale":[0.41309162327144744,0.7446232051090566,0.6104830503749236]},{"name":"besenginster_c_part_57_LOD9","mesh":1,"translation":[2.454545454545454,-0.0,-0.10453645802460482],"rotation":[0.0,-0.049917697856572914,0.0,0.9987533346330814],"scale":[0.41309162327144744,0.7446232051090566,0.6104830503749236]},{"name":"besenginster_c_part_58_LOD10","mesh":1,"translation":[2.454545454545454,-0.0,-0.10453645802460482],"rotation":[0.0,-0.049917697856572914,0.0,0.9987533346330814],"scale":[0.41309162327144744,0.7446232051090566,0.6104830503749236]},{"name":"besenginster_c_part_59_LOD11","mesh":1,"translation":[2.454545454545454,-0.0,-0.10453645802460482],"rotation":[0.0,-0.049917697856572914,0.0,0.9987533346330814],"scale":[0.41309162327144744,0.7446232051090566,0.6104830503749236]},{"name":"besenheide_c_part_60_LOD0","mesh":5,"translation":[3.0,-0.0,-0.057784974386454135],"rotation":[0.0,0.02948318330300182,0.0,0.9995652764588822],"scale":[0.8440574033190633,2.3151429125176413,1.0892009738342963]},{"name":"besenheide_c_part_61_LOD1","mesh":5,"translation":[3.0,-0.0,-0.057784974386454135],"rotation":[0.0,0.02948318330300182,0.0,0.9995652764588822],"scale":[0.8440574033190633,2.3151429125176413,1.0892009738342963]},{"name":"besenheide_c_part_62_LOD2","mesh":5,"translation":[3.0,-0.0,-0.057784974386454135],"rotation":[0.0,0.02948318330300182,0.0,0.9995652764588822],"scale":[0.8440574033190633,2.3151429125176413,1.0892009738342963]},{"name":"besenheide_c_part_63_LOD3","mesh":5,"translation":[3.0,-0.0,-0.057784974386454135],"rotation":[0.0,0.02948318330300182,0.0,0.9995652764588822],"scale":[0.8440574033190633,2.3151429125176413,1.0892009738342963]},{"name":"besenheide_c_part_64_LOD4","mesh":5,"translation":[3.0,-0.0,-0.057784974386454135],"rotation":[0.0,0.02948318330300182,0.0,0.9995652764588822],"scale":[0.8440574033190633,2.3151429125176413,1.0892009738342963]},{"name":"besenheide_c_part_65_LOD5","mesh":5,"translation":[3.0,-0.0,-0.057784974386454135],"rotation":[0.0,0.02948318330300182,0.0,0.9995652764588822],"scale":[0.8440574033190633,2.3151429125176413,1.0892009738342963]},{"name":"besenheide_c_part_66_LOD6","mesh":5,"translation":[3.0,-0.0,-0.057784974386454135],"rotation":[0.0,0.02948318330300182,0.0,0.9995652764588822],"scale":[0.8440574033190633,2.3151429125176413,1.0892009738342963]},{"name":"besenheide_c_part_67_LOD7","mesh":5,"translation":[3.0,-0.0,-0.057784974386454135],"rotation":[0.0,0.02948318330300182,0.0,0.9995652764588822],"scale":[0.8440574033190633,2.3151429125176413,1.0892009738342963]},{"name":"besenheide_c_part_68_LOD8","mesh":5,"translation":[3.0,-0.0,-0.057784974386454135],"rotation":[0.0,0.02948318330300182,0.0,0.9995652764588822],"scale":[0.8440574033190633,2.3151429125176413,1.0892009738342963]},{"name":"besenheide_c_part_69_LOD9","mesh":5,"translation":[3.0,-0.0,-0.057784974386454135],"rotation":[0.0,0.02948318330300182,0.0,0.9995652764588822],"scale":[0.8440574033190633,2.3151429125176413,1.0892009738342963]},{"name":"besenheide_c_part_70_LOD10","mesh":5,"translation":[3.0,-0.0,-0.057784974386454135],"rotation":[0.0,0.02948318330300182,0.0,0.9995652764588822],"scale":[0.8440574033190633,2.3151429125176413,1.0892009738342963]},{"name":"besenheide_c_part_71_LOD11","mesh":5,"translation":[3.0,-0.0,-0.057784974386454135],"rotation":[0.0,0.02948318330300182,0.0,0.9995652764588822],"scale":[0.8440574033190633,2.3151429125176413,1.0892009738342963]},{"name":"besenheide_c_part_72_LOD0","mesh":5,"translation":[-2.7272727272727275,-0.0,0.10380899119355164],"rotation":[0.0,-0.01136433208052199,0.0,0.999935423893145],"scale":[0.9022682587203782,1.363308465769816,1.3089537955628971]},{"name":"besenheide_c_part_73_LOD1","mesh":5,"translation":[-2.7272727272727275,-0.0,0.10380899119355164],"rotation":[0.0,-0.01136433208052199,0.0,0.999935423893145],"scale":[0.9022682587203782,1.363308465769816,1.3089537955628971]},{"name":"besenheide_c_part_74_LOD2","mesh":5,"translation":[-2.7272727272727275,-0.0,0.10380899119355164],"rotation":[0.0,-0.01136433208052199,0.0,0.999935423893145],"scale":[0.9022682587203782,1.363308465769816,1.3089537955628971]},{"name":"besenheide_c_part_75_LOD3","mesh":5,"translation":[-2.7272727272727275,-0.0,0.10380899119355164],"rotation":[0.0,-0.01136433208052199,0.0,0.999935423893145],"scale":[0.9022682587203782,1.363308465769816,1.3089537955628971]},{"name":"besenheide_c_part_76_LOD4","mesh":5,"translation":[-2.7272727272727275,-0.0,0.10380899119355164],"rotation":[0.0,-0.01136433208052199,0.0,0.999935423893145],"scale":[0.9022682587203782,1.363308465769816,1.3089537955628971]},{"name":"besenheide_c_part_77_LOD5","mesh":5,"translation":[-2.7272727272727275,-0.0,0.10380899119355164],"rotation":[0.0,-0.01136433208052199,0.0,0.999935423893145],"scale":[0.9022682587203782,1.363308465769816,1.3089537955628971]},{"name":"besenheide_c_part_78_LOD6","mesh":5,"translation":[-2.7272727272727275,-0.0,0.10380899119355164],"rotation":[0.0,-0.01136433208052199,0.0,0.999935423893145],"scale":[0.9022682587203782,1.363308465769816,1.3089537955628971]},{"name":"besenheide_c_part_79_LOD7","mesh":5,"translation":[-2.7272727272727275,-0.0,0.10380899119355164],"rotation":[0.0,-0.01136433208052199,0.0,0.999935423893145],"scale":[0.9022682587203782,1.363308465769816,1.3089537955628971]},{"name":"besenheide_c_part_80_LOD8","mesh":5,"translation":[-2.7272727272727275,-0.0,0.10380899119355164],"rotation":[0.0,-0.01136433208052199,0.0,0.999935423893145],"scale":[0.9022682587203782,1.363308465769816,1.3089537955628971]},{"name":"besenheide_c_part_81_LOD9","mesh":5,"translation":[-2.7272727272727275,-0.0,0.10380899119355164],"rotation":[0.0,-0.01136433208052199,0.0,0.999935423893145],"scale":[0.9022682587203782,1.363308465769816,1.3089537955628971]},{"name":"besenginster_c_part_82_LOD0","mesh":1,"translation":[-2.1818181818181817,-0.0,-0.18532904862101657],"rotation":[0.0,0.06281036387382005,0.0,0.9980254797298705],"scale":[0.44158070073844385,0.428168296281988,0.6194920667046918]},{"name":"besenginster_c_part_83_LOD1","mesh":1,"translation":[-2.1818181818181817,-0.0,-0.18532904862101657],"rotation":[0.0,0.06281036387382005,0.0,0.9980254797298705],"scale":[0.44158070073844385,0.428168296281988,0.6194920667046918]},{"name":"besenginster_c_part_84_LOD2","mesh":1,"translation":[-2.1818181818181817,-0.0,-0.18532904862101657],"rotation":[0.0,0.06281036387382005,0.0,0.9980254797298705],"scale":[0.44158070073844385,0.428168296281988,0.6194920667046918]},{"name":"besenginster_c_part_85_LOD3","mesh":1,"translation":[-2.1818181818181817,-0.0,-0.18532904862101657],"rotation":[0.0,0.06281036387382005,0.0,0.9980254797298705],"scale":[0.44158070073844385,0.428168296281988,0.6194920667046918]},{"name":"besenginster_c_part_86_LOD4","mesh":1,"translation":[-2.1818181818181817,-0.0,-0.18532904862101657],"rotation":[0.0,0.06281036387382005,0.0,0.9980254797298705],"scale":[0.44158070073844385,0.428168296281988,0.6194920667046918]},{"name":"besenginster_c_part_87_LOD5","mesh":1,"translation":[-2.1818181818181817,-0.0,-0.18532904862101657],"rotation":[0.0,0.06281036387382005,0.0,0.9980254797298705],"scale":[0.44158070073844385,0.428168296281988,0.6194920667046918]},{"name":"besenginster_c_part_88_LOD6","mesh":1,"translation":[-2.1818181818181817,-0.0,-0.18532904862101657],"rotation":[0.0,0.06281036387382005,0.0,0.9980254797298705],"scale":[0.44158070073844385,0.428168296281988,0.6194920667046918]},{"name":"besenginster_c_part_89_LOD7","mesh":1,"translation":[-2.1818181818181817,-0.0,-0.18532904862101657],"rotation":[0.0,0.06281036387382005,0.0,0.9980254797298705],"scale":[0.44158070073844385,0.428168296281988,0.6194920667046918]},{"name":"besenginster_c_part_90_LOD8","mesh":1,"translation":[-2.1818181818181817,-0.0,-0.18532904862101657],"rotation":[0.0,0.06281036387382005,0.0,0.9980254797298705],"scale":[0.44158070073844385,0.428168296281988,0.6194920667046918]},{"name":"besenginster_c_part_91_LOD9","mesh":1,"translation":[-2.1818181818181817,-0.0,-0.18532904862101657],"rotation":[0.0,0.06281036387382005,0.0,0.9980254797298705],"scale":[0.44158070073844385,0.428168296281988,0.6194920667046918]},{"name":"besenginster_c_part_92_LOD10","mesh":1,"translation":[-2.1818181818181817,-0.0,-0.18532904862101657],"rotation":[0.0,0.06281036387382005,0.0,0.9980254797298705],"scale":[0.44158070073844385,0.428168296281988,0.6194920667046918]},{"name":"besenginster_c_part_93_LOD11","mesh":1,"translation":[-2.1818181818181817,-0.0,-0.18532904862101657],"rotation":[0.0,0.06281036387382005,0.0,0.9980254797298705],"scale":[0.44158070073844385,0.428168296281988,0.6194920667046918]},{"name":"besenheide_c_part_94_LOD0","mesh":5,"translation":[-1.6363636363636365,-0.0,0.1214533719019843],"rotation":[0.0,0.03647138938147373,0.0,0.9993346975646272],"scale":[0.9022682587203782,1.5180045347024234,1.3434303174092062]},{"name":"besenheide_c_part_95_LOD1","mesh":5,"translation":[-1.6363636363636365,-0.0,0.1214533719019843],"rotation":[0.0,0.03647138938147373,0.0,0.9993346975646272],"scale":[0.9022682587203782,1.5180045347024234,1.3434303174092062]},{"name":"besenheide_c_part_96_LOD2","mesh":5,"translation":[-1.6363636363636365,-0.0,0.1214533719019843],"rotation":[0.0,0.03647138938147373,0.0,0.9993346975646272],"scale":[0.9022682587203782,1.5180045347024234,1.3434303174092062]},{"name":"besenheide_c_part_97_LOD3","mesh":5,"translation":[-1.6363636363636365,-0.0,0.1214533719019843],"rotation":[0.0,0.03647138938147373,0.0,0.9993346975646272],"scale":[0.9022682587203782,1.5180045347024234,1.3434303174092062]},{"name":"besenginster_c_part_98_LOD0","mesh":1,"translation":[-1.090909090909091,-0.0,-0.0028183669052392057],"rotation":[0.0,0.05668973181384317,0.0,0.9983918440706908],"scale":[0.44158070073844385,0.4329263058942866,0.6415723990530635]},{"name":"besenginster_c_part_99_LOD1","mesh":1,"translation":[-1.090909090909091,-0.0,-0.0028183669052392057],"rotation":[0.0,0.05668973181384317,0.0,0.9983918440706908],"scale":[0.44158070073844385,0.4329263058942866,0.6415723990530635]},{"name":"besenginster_c_part_100_LOD2","mesh":1,"translation":[-1.090909090909091,-0.0,-0.0028183669052392057],"rotation":[0.0,0.05668973181384317,0.0,0.9983918440706908],"scale":[0.44158070073844385,0.4329263058942866,0.6415723990530635]},{"name":"besenginster_c_part_101_LOD3","mesh":1,"translation":[-1.090909090909091,-0.0,-0.0028183669052392057],"rotation":[0.0,0.05668973181384317,0.0,0.9983918440706908],"scale":[0.44158070073844385,0.4329263058942866,0.6415723990530635]},{"name":"besenginster_c_part_102_LOD4","mesh":1,"translation":[-1.090909090909091,-0.0,-0.0028183669052392057],"rotation":[0.0,0.05668973181384317,0.0,0.9983918440706908],"scale":[0.44158070073844385,0.4329263058942866,0.6415723990530635]},{"name":"besenginster_c_part_103_LOD5","mesh":1,"translation":[-1.090909090909091,-0.0,-0.0028183669052392057],"rotation":[0.0,0.05668973181384317,0.0,0.9983918440706908],"scale":[0.44158070073844385,0.4329263058942866,0.6415723990530635]},{"name":"besenheide_c_part_104_LOD0","mesh":5,"translation":[-0.5454545454545459,-0.0,-0.026590005501304526],"rotation":[0.0,-0.03534909406777636,0.0,0.999375025477717],"scale":[0.9022682587203782,1.3038408460403665,1.2069071674121836]},{"name":"besenheide_c_part_105_LOD1","mesh":5,"translation":[-0.5454545454545459,-0.0,-0.026590005501304526],"rotation":[0.0,-0.03534909406777636,0.0,0.999375025477717],"scale":[0.9022682587203782,1.3038408460403665,1.2069071674121836]},{"name":"besenheide_c_part_106_LOD2","mesh":5,"translation":[-0.5454545454545459,-0.0,-0.026590005501304526],"rotation":[0.0,-0.03534909406777636,0.0,0.999375025477717],"scale":[0.9022682587203782,1.3038408460403665,1.2069071674121836]},{"name":"besenheide_c_part_107_LOD3","mesh":5,"translation":[-0.5454545454545459,-0.0,-0.026590005501304526],"rotation":[0.0,-0.03534909406777636,0.0,0.999375025477717],"scale":[0.9022682587203782,1.3038408460403665,1.2069071674121836]},{"name":"besenginster_c_part_108_LOD0","mesh":1,"translation":[0.0,-0.0,0.007098443041787861],"rotation":[0.0,-0.020584909379276844,0.0,0.999788108303878],"scale":[0.44158070073844385,0.47843790286869164,0.6761946242795667]},{"name":"besenginster_c_part_109_LOD1","mesh":1,"translation":[0.0,-0.0,0.007098443041787861],"rotation":[0.0,-0.020584909379276844,0.0,0.999788108303878],"scale":[0.44158070073844385,0.47843790286869164,0.6761946242795667]},{"name":"besenheide_c_part_110_LOD0","mesh":5,"translation":[0.545454545454545,-0.0,-0.05009519621940331],"rotation":[0.0,-0.08731918569768794,0.0,0.9961803851758438],"scale":[0.9022682587203782,1.3429951779594391,1.371814975846609]},{"name":"besenheide_c_part_111_LOD1","mesh":5,"translation":[0.545454545454545,-0.0,-0.05009519621940331],"rotation":[0.0,-0.08731918569768794,0.0,0.9961803851758438],"scale":[0.9022682587203782,1.3429951779594391,1.371814975846609]},{"name":"besenheide_c_part_112_LOD2","mesh":5,"translation":[0.545454545454545,-0.0,-0.05009519621940331],"rotation":[0.0,-0.08731918569768794,0.0,0.9961803851758438],"scale":[0.9022682587203782,1.3429951779594391,1.371814975846609]},{"name":"besenheide_c_part_113_LOD3","mesh":5,"translation":[0.545454545454545,-0.0,-0.05009519621940331],"rotation":[0.0,-0.08731918569768794,0.0,0.9961803851758438],"scale":[0.9022682587203782,1.3429951779594391,1.371814975846609]},{"name":"besenheide_c_part_114_LOD4","mesh":5,"translation":[0.545454545454545,-0.0,-0.05009519621940331],"rotation":[0.0,-0.08731918569768794,0.0,0.9961803851758438],"scale":[0.9022682587203782,1.3429951779594391,1.371814975846609]},{"name":"besenheide_c_part_115_LOD5","mesh":5,"translation":[0.545454545454545,-0.0,-0.05009519621940331],"rotation":[0.0,-0.08731918569768794,0.0,0.9961803851758438],"scale":[0.9022682587203782,1.3429951779594391,1.371814975846609]},{"name":"besenheide_c_part_116_LOD6","mesh":5,"translation":[0.545454545454545,-0.0,-0.05009519621940331],"rotation":[0.0,-0.08731918569768794,0.0,0.9961803851758438],"scale":[0.9022682587203782,1.3429951779594391,1.371814975846609]},{"name":"besenheide_c_part_117_LOD7","mesh":5,"translation":[0.545454545454545,-0.0,-0.05009519621940331],"rotation":[0.0,-0.08731918569768794,0.0,0.9961803851758438],"scale":[0.9022682587203782,1.3429951779594391,1.371814975846609]},{"name":"besenginster_c_part_118_LOD0","mesh":1,"translation":[1.0909090909090908,-0.0,-0.001967025566529834],"rotation":[0.0,-0.09179229488213753,0.0,0.9957781753986531],"scale":[0.44158070073844385,0.45197684170069125,0.6800902166672288]},{"name":"besenginster_c_part_119_LOD1","mesh":1,"translation":[1.0909090909090908,-0.0,-0.001967025566529834],"rotation":[0.0,-0.09179229488213753,0.0,0.9957781753986531],"scale":[0.44158070073844385,0.45197684170069125,0.6800902166672288]},{"name":"besenginster_c_part_120_LOD2","mesh":1,"translation":[1.0909090909090908,-0.0,-0.001967025566529834],"rotation":[0.0,-0.09179229488213753,0.0,0.9957781753986531],"scale":[0.44158070073844385,0.45197684170069125,0.6800902166672288]},{"name":"besenginster_c_part_121_LOD3","mesh":1,"translation":[1.0909090909090908,-0.0,-0.001967025566529834],"rotation":[0.0,-0.09179229488213753,0.0,0.9957781753986531],"scale":[0.44158070073844385,0.45197684170069125,0.6800902166672288]},{"name":"besenginster_c_part_122_LOD4","mesh":1,"translation":[1.0909090909090908,-0.0,-0.001967025566529834],"rotation":[0.0,-0.09179229488213753,0.0,0.9957781753986531],"scale":[0.44158070073844385,0.45197684170069125,0.6800902166672288]},{"name":"besenginster_c_part_123_LOD5","mesh":1,"translation":[1.0909090909090908,-0.0,-0.001967025566529834],"rotation":[0.0,-0.09179229488213753,0.0,0.9957781753986531],"scale":[0.44158070073844385,0.45197684170069125,0.6800902166672288]},{"name":"besenginster_c_part_124_LOD6","mesh":1,"translation":[1.0909090909090908,-0.0,-0.001967025566529834],"rotation":[0.0,-0.09179229488213753,0.0,0.9957781753986531],"scale":[0.44158070073844385,0.45197684170069125,0.6800902166672288]},{"name":"besenginster_c_part_125_LOD7","mesh":1,"translation":[1.0909090909090908,-0.0,-0.001967025566529834],"rotation":[0.0,-0.09179229488213753,0.0,0.9957781753986531],"scale":[0.44158070073844385,0.45197684170069125,0.6800902166672288]},{"name":"besenginster_c_part_126_LOD8","mesh":1,"translation":[1.0909090909090908,-0.0,-0.001967025566529834],"rotation":[0.0,-0.09179229488213753,0.0,0.9957781753986531],"scale":[0.44158070073844385,0.45197684170069125,0.6800902166672288]},{"name":"besenginster_c_part_127_LOD9","mesh":1,"translation":[1.0909090909090908,-0.0,-0.001967025566529834],"rotation":[0.0,-0.09179229488213753,0.0,0.9957781753986531],"scale":[0.44158070073844385,0.45197684170069125,0.6800902166672288]},{"name":"besenginster_c_part_128_LOD10","mesh":1,"translation":[1.0909090909090908,-0.0,-0.001967025566529834],"rotation":[0.0,-0.09179229488213753,0.0,0.9957781753986531],"scale":[0.44158070073844385,0.45197684170069125,0.6800902166672288]},{"name":"besenheide_c_part_129_LOD0","mesh":5,"translation":[1.6363636363636358,-0.0,0.014985805593507151],"rotation":[0.0,0.03363191522879401,0.0,0.9994342871234922],"scale":[0.9022682587203782,1.4546429102871588,1.3322148377389473]},{"name":"besenheide_c_part_130_LOD1","mesh":5,"translation":[1.6363636363636358,-0.0,0.014985805593507151],"rotation":[0.0,0.03363191522879401,0.0,0.9994342871234922],"scale":[0.9022682587203782,1.4546429102871588,1.3322148377389473]},{"name":"besenginster_c_part_131_LOD0","mesh":1,"translation":[2.1818181818181817,-0.0,-0.08385672190088997],"rotation":[0.0,-0.05174999833261971,0.0,0.9986600711316007],"scale":[0.44158070073844385,0.4900271603118581,0.6355856767283641]},{"name":"besenginster_c_part_132_LOD1","mesh":1,"translation":[2.1818181818181817,-0.0,-0.08385672190088997],"rotation":[0.0,-0.05174999833261971,0.0,0.9986600711316007],"scale":[0.44158070073844385,0.4900271603118581,0.6355856767283641]},{"name":"besenginster_c_part_133_LOD2","mesh":1,"translation":[2.1818181818181817,-0.0,-0.08385672190088997],"rotation":[0.0,-0.05174999833261971,0.0,0.9986600711316007],"scale":[0.44158070073844385,0.4900271603118581,0.6355856767283641]},{"name":"besenginster_c_part_134_LOD3","mesh":1,"translation":[2.1818181818181817,-0.0,-0.08385672190088997],"rotation":[0.0,-0.05174999833261971,0.0,0.9986600711316007],"scale":[0.44158070073844385,0.4900271603118581,0.6355856767283641]},{"name":"besenginster_c_part_135_LOD4","mesh":1,"translation":[2.1818181818181817,-0.0,-0.08385672190088997],"rotation":[0.0,-0.05174999833261971,0.0,0.9986600711316007],"scale":[0.44158070073844385,0.4900271603118581,0.6355856767283641]},{"name":"besenginster_c_part_136_LOD5","mesh":1,"translation":[2.1818181818181817,-0.0,-0.08385672190088997],"rotation":[0.0,-0.05174999833261971,0.0,0.9986600711316007],"scale":[0.44158070073844385,0.4900271603118581,0.6355856767283641]},{"name":"besenheide_c_part_137_LOD0","mesh":5,"translation":[2.7272727272727266,-0.0,-0.0009772261970147356],"rotation":[0.0,-0.046619573308127556,0.0,0.9989127165996877],"scale":[0.9022682587203782,1.2935785945751161,1.3679477696456006]},{"name":"besenheide_c_part_138_LOD1","mesh":5,"translation":[2.7272727272727266,-0.0,-0.0009772261970147356],"rotation":[0.0,-0.046619573308127556,0.0,0.9989127165996877],"scale":[0.9022682587203782,1.2935785945751161,1.3679477696456006]},{"name":"leaf_volume_LOD0","mesh":8},{"name":"leaf_volume_LOD1","mesh":9},{"name":"leaf_volume_LOD2","mesh":10},{"name":"leaf_volume_LOD3","mesh":11},{"name":"leaf_volume_LOD4","mesh":12},{"name":"leaf_volume_LOD5","mesh":13},{"name":"leaf_volume_LOD6","mesh":14},{"name":"leaf_volume_LOD7","mesh":15},{"name":"leaf_volume_LOD8","mesh":16},{"name":"leaf_volume_LOD9","mesh":17},{"name":"leaf_volume_LOD10","mesh":18},{"name":"leaf_volume_LOD11","mesh":19}],"meshes":[{"name":"besenginster_c_crown_LOD0","primitives":[{"attributes":{"POSITION":0,"NORMAL":1,"TEXCOORD_0":2},"indices":3,"material":1}]},{"name":"besenginster_c_crown_LOD1","primitives":[{"attributes":{"POSITION":4,"NORMAL":5,"TEXCOORD_0":6},"indices":7,"material":1}]},{"name":"besenginster_c_crown_LOD2","primitives":[{"attributes":{"POSITION":8,"NORMAL":9,"TEXCOORD_0":10},"indices":11,"material":2}]},{"name":"besenginster_c_crown_LOD3","primitives":[{"attributes":{"POSITION":12,"NORMAL":13,"TEXCOORD_0":14},"indices":15,"material":2}]},{"name":"besenheide_c_crown_LOD0","primitives":[{"attributes":{"POSITION":16,"NORMAL":17,"TEXCOORD_0":18},"indices":19,"material":4}]},{"name":"besenheide_c_crown_LOD1","primitives":[{"attributes":{"POSITION":20,"NORMAL":21,"TEXCOORD_0":22},"indices":23,"material":4}]},{"name":"besenheide_c_crown_LOD2","primitives":[{"attributes":{"POSITION":24,"NORMAL":25,"TEXCOORD_0":26},"indices":27,"material":5}]},{"name":"besenheide_c_crown_LOD3","primitives":[{"attributes":{"POSITION":28,"NORMAL":29,"TEXCOORD_0":30},"indices":31,"material":5}]},{"name":"immergruene_hecke_leaf_volume_LOD0","primitives":[{"attributes":{"POSITION":32,"NORMAL":33,"TEXCOORD_0":34},"indices":35,"material":6}]},{"name":"immergruene_hecke_leaf_volume_LOD1","primitives":[{"attributes":{"POSITION":36,"NORMAL":37,"TEXCOORD_0":38},"indices":39,"material":7}]},{"name":"immergruene_hecke_leaf_volume_LOD2","primitives":[{"attributes":{"POSITION":40,"NORMAL":41,"TEXCOORD_0":42},"indices":43,"material":8}]},{"name":"immergruene_hecke_leaf_volume_LOD3","primitives":[{"attributes":{"POSITION":44,"NORMAL":45,"TEXCOORD_0":46},"indices":47,"material":9}]},{"name":"immergruene_hecke_leaf_volume_LOD4","primitives":[{"attributes":{"POSITION":48,"NORMAL":49,"TEXCOORD_0":50},"indices":51,"material":10}]},{"name":"immergruene_hecke_leaf_volume_LOD5","primitives":[{"attributes":{"POSITION":52,"NORMAL":53,"TEXCOORD_0":54},"indices":55,"material":11}]},{"name":"immergruene_hecke_leaf_volume_LOD6","primitives":[{"attributes":{"POSITION":56,"NORMAL":57,"TEXCOORD_0":58},"indices":59,"material":12}]},{"name":"immergruene_hecke_leaf_volume_LOD7","primitives":[{"attributes":{"POSITION":60,"NORMAL":61,"TEXCOORD_0":62},"indices":63,"material":13}]},{"name":"immergruene_hecke_leaf_volume_LOD8","primitives":[{"attributes":{"POSITION":64,"NORMAL":65,"TEXCOORD_0":66},"indices":67,"material":14}]},{"name":"immergruene_hecke_leaf_volume_LOD9","primitives":[{"attributes":{"POSITION":68,"NORMAL":69,"TEXCOORD_0":70},"indices":71,"material":15}]},{"name":"immergruene_hecke_leaf_volume_LOD10","primitives":[{"attributes":{"POSITION":72,"NORMAL":73,"TEXCOORD_0":74},"indices":75,"material":16}]},{"name":"immergruene_hecke_leaf_volume_LOD11","primitives":[{"attributes":{"POSITION":76,"NORMAL":77,"TEXCOORD_0":78},"indices":79,"material":17}]}],"buffers":[{"uri":"besenginster_c.bin","byteLength":302476},{"uri":"besenheide_c.bin","byteLength":302156},{"uri":"immergruene_hecke_b_hedge.bin","byteLength":8841000}],"bufferViews":[{"buffer":0,"byteOffset":0,"byteLength":63204,"target":34962},{"buffer":0,"byteOffset":63204,"byteLength":63204,"target":34962},{"buffer":0,"byteOffset":126408,"byteLength":42136,"target":34962},{"buffer":0,"byteOffset":168544,"byteLength":25224,"target":34963},{"buffer":0,"byteOffset":193768,"byteLength":35316,"target":34962},{"buffer":0,"byteOffset":229084,"byteLength":35316,"target":34962},{"buffer":0,"byteOffset":264400,"byteLength":23544,"target":34962},{"buffer":0,"byteOffset":287944,"byteLength":13692,"target":34963},{"buffer":0,"byteOffset":301636,"byteLength":192,"target":34962},{"buffer":0,"byteOffset":301828,"byteLength":192,"target":34962},{"buffer":0,"byteOffset":302020,"byteLength":128,"target":34962},{"buffer":0,"byteOffset":302148,"byteLength":48,"target":34963},{"buffer":0,"byteOffset":302196,"byteLength":96,"target":34962},{"buffer":0,"byteOffset":302292,"byteLength":96,"target":34962},{"buffer":0,"byteOffset":302388,"byteLength":64,"target":34962},{"buffer":0,"byteOffset":302452,"byteLength":24,"target":34963},{"buffer":1,"byteOffset":0,"byteLength":63084,"target":34962},{"buffer":1,"byteOffset":63084,"byteLength":63084,"target":34962},{"buffer":1,"byteOffset":126168,"byteLength":42056,"target":34962},{"buffer":1,"byteOffset":168224,"byteLength":25224,"target":34963},{"buffer":1,"byteOffset":193448,"byteLength":35316,"target":34962},{"buffer":1,"byteOffset":228764,"byteLength":35316,"target":34962},{"buffer":1,"byteOffset":264080,"byteLength":23544,"target":34962},{"buffer":1,"byteOffset":287624,"byteLength":13692,"target":34963},{"buffer":1,"byteOffset":301316,"byteLength":192,"target":34962},{"buffer":1,"byteOffset":301508,"byteLength":192,"target":34962},{"buffer":1,"byteOffset":301700,"byteLength":128,"target":34962},{"buffer":1,"byteOffset":301828,"byteLength":48,"target":34963},{"buffer":1,"byteOffset":301876,"byteLength":96,"target":34962},{"buffer":1,"byteOffset":301972,"byteLength":96,"target":34962},{"buffer":1,"byteOffset":302068,"byteLength":64,"target":34962},{"buffer":1,"byteOffset":302132,"byteLength":24,"target":34963},{"buffer":2,"byteOffset":0,"byteLength":345600,"target":34962},{"buffer":2,"byteOffset":345600,"byteLength":345600,"target":34962},{"buffer":2,"byteOffset":691200,"byteLength":230400,"target":34962},{"buffer":2,"byteOffset":921600,"byteLength":86400,"target":34963},{"buffer":2,"byteOffset":1008000,"byteLength":268800,"target":34962},{"buffer":2,"byteOffset":1276800,"byteLength":268800,"target":34962},{"buffer":2,"byteOffset":1545600,"byteLength":179200,"target":34962},{"buffer":2,"byteOffset":1724800,"byteLength":67200,"target":34963},{"buffer":2,"byteOffset":1792000,"byteLength":264000,"target":34962},{"buffer":2,"byteOffset":2056000,"byteLength":264000,"target":34962},{"buffer":2,"byteOffset":2320000,"byteLength":176000,"target":34962},{"buffer":2,"byteOffset":2496000,"byteLength":66000,"target":34963},{"buffer":2,"byteOffset":2562000,"byteLength":259200,"target":34962},{"buffer":2,"byteOffset":2821200,"byteLength":259200,"target":34962},{"buffer":2,"byteOffset":3080400,"byteLength":172800,"target":34962},{"buffer":2,"byteOffset":3253200,"byteLength":64800,"target":34963},{"buffer":2,"byteOffset":3318000,"byteLength":254400,"target":34962},{"buffer":2,"byteOffset":3572400,"byteLength":254400,"target":34962},{"buffer":2,"byteOffset":3826800,"byteLength":169600,"target":34962},{"buffer":2,"byteOffset":3996400,"byteLength":63600,"target":34963},{"buffer":2,"byteOffset":4060000,"byteLength":249600,"target":34962},{"buffer":2,"byteOffset":4309600,"byteLength":249600,"target":34962},{"buffer":2,"byteOffset":4559200,"byteLength":166400,"target":34962},{"buffer":2,"byteOffset":4725600,"byteLength":62400,"target":34963},{"buffer":2,"byteOffset":4788000,"byteLength":244800,"target":34962},{"buffer":2,"byteOffset":5032800,"byteLength":244800,"target":34962},{"buffer":2,"byteOffset":5277600,"byteLength":163200,"target":34962},{"buffer":2,"byteOffset":5440800,"byteLength":61200,"target":34963},{"buffer":2,"byteOffset":5502000,"byteLength":240000,"target":34962},{"buffer":2,"byteOffset":5742000,"byteLength":240000,"target":34962},{"buffer":2,"byteOffset":5982000,"byteLength":160000,"target":34962},{"buffer":2,"byteOffset":6142000,"byteLength":60000,"target":34963},{"buffer":2,"byteOffset":6202000,"byteLength":235200,"target":34962},{"buffer":2,"byteOffset":6437200,"byteLength":235200,"target":34962},{"buffer":2,"byteOffset":6672400,"byteLength":156800,"target":34962},{"buffer":2,"byteOffset":6829200,"byteLength":58800,"target":34963},{"buffer":2,"byteOffset":6888000,"byteLength":230400,"target":34962},{"buffer":2,"byteOffset":7118400,"byteLength":230400,"target":34962},{"buffer":2,"byteOffset":7348800,"byteLength":153600,"target":34962},{"buffer":2,"byteOffset":7502400,"byteLength":57600,"target":34963},{"buffer":2,"byteOffset":7560000,"byteLength":223200,"target":34962},{"buffer":2,"byteOffset":7783200,"byteLength":223200,"target":34962},{"buffer":2,"byteOffset":8006400,"byteLength":148800,"target":34962},{"buffer":2,"byteOffset":8155200,"byteLength":55800,"target":34963},{"buffer":2,"byteOffset":8211000,"byteLength":216000,"target":34962},{"buffer":2,"byteOffset":8427000,"byteLength":216000,"target":34962},{"buffer":2,"byteOffset":8643000,"byteLength":144000,"target":34962},{"buffer":2,"byteOffset":8787000,"byteLength":54000,"target":34963}],"accessors":[{"bufferView":0,"componentType":5126,"count":5267,"type":"VEC3","min":[-0.9573046829726864,0.0,-1.0625],"max":[0.9573046829726864,2.5,1.0625]},{"bufferView":1,"componentType":5126,"count":5267,"type":"VEC3","min":[-0.999940037727356,-0.9999510645866394,-0.9999029636383057],"max":[0.9992337226867676,0.9998316764831543,0.9995586276054382]},{"bufferView":2,"componentType":5126,"count":5267,"type":"VEC2"},{"bufferView":3,"componentType":5123,"count":12612,"type":"SCALAR","min":[0],"max":[5266]},{"bufferView":4,"componentType":5126,"count":2943,"type":"VEC3","min":[-1.0049636795429278,0.0051028114660949695,-1.1078937971377183],"max":[0.9933592022913708,2.556574389013671,1.0766767962234023]},{"bufferView":5,"componentType":5126,"count":2943,"type":"VEC3","min":[-0.999940037727356,-0.9999510645866394,-0.9997138381004333],"max":[0.9996574521064758,0.9998316764831543,0.9995586276054382]},{"bufferView":6,"componentType":5126,"count":2943,"type":"VEC2"},{"bufferView":7,"componentType":5123,"count":6846,"type":"SCALAR","min":[0],"max":[2942]},{"bufferView":8,"componentType":5126,"count":16,"type":"VEC3","min":[-1.1687500000000002,0,-1.1687500000000002],"max":[1.1687500000000002,2.5,1.1687500000000002]},{"bufferView":9,"componentType":5126,"count":16,"type":"VEC3","min":[-1.0,0,-0.7071067811865475],"max":[-0.0,0,1.0]},{"bufferView":10,"componentType":5126,"count":16,"type":"VEC2"},{"bufferView":11,"componentType":5123,"count":24,"type":"SCALAR","min":[0],"max":[15]},{"bufferView":12,"componentType":5126,"count":8,"type":"VEC3","min":[-1.1687500000000002,0,-1.1687500000000002],"max":[1.1687500000000002,2.5,1.1687500000000002]},{"bufferView":13,"componentType":5126,"count":8,"type":"VEC3","min":[-1.0,0,6.123233995736766e-17],"max":[-0.0,0,1.0]},{"bufferView":14,"componentType":5126,"count":8,"type":"VEC2"},{"bufferView":15,"componentType":5123,"count":12,"type":"SCALAR","min":[0],"max":[7]},{"bufferView":16,"componentType":5126,"count":5257,"type":"VEC3","min":[-0.4685161742548677,0.0,-0.52],"max":[0.4685161742548677,0.8,0.52]},{"bufferView":17,"componentType":5126,"count":5257,"type":"VEC3","min":[-0.9998656511306763,-0.9999790787696838,-0.9997736215591431],"max":[0.9992249608039856,0.9999279975891113,0.9995540380477905]},{"bufferView":18,"componentType":5126,"count":5257,"type":"VEC2"},{"bufferView":19,"componentType":5123,"count":12612,"type":"SCALAR","min":[0],"max":[5256]},{"bufferView":20,"componentType":5126,"count":2943,"type":"VEC3","min":[-0.4918410478704211,0.0016328996691503904,-0.5422162583638716],"max":[0.48616168018024725,0.8181038044843748,0.5269382908575709]},{"bufferView":21,"componentType":5126,"count":2943,"type":"VEC3","min":[-0.9998657703399658,-0.9999790787696838,-0.9994456768035889],"max":[0.9996488690376282,0.9999279975891113,0.9995540380477905]},{"bufferView":22,"componentType":5126,"count":2943,"type":"VEC2"},{"bufferView":23,"componentType":5123,"count":6846,"type":"SCALAR","min":[0],"max":[2942]},{"bufferView":24,"componentType":5126,"count":16,"type":"VEC3","min":[-0.5720000000000001,0,-0.5720000000000001],"max":[0.5720000000000001,0.8,0.5720000000000001]},{"bufferView":25,"componentType":5126,"count":16,"type":"VEC3","min":[-1.0,0,-0.7071067811865475],"max":[-0.0,0,1.0]},{"bufferView":26,"componentType":5126,"count":16,"type":"VEC2"},{"bufferView":27,"componentType":5123,"count":24,"type":"SCALAR","min":[0],"max":[15]},{"bufferView":28,"componentType":5126,"count":8,"type":"VEC3","min":[-0.5720000000000001,0,-0.5720000000000001],"max":[0.5720000000000001,0.8,0.5720000000000001]},{"bufferView":29,"componentType":5126,"count":8,"type":"VEC3","min":[-1.0,0,6.123233995736766e-17],"max":[-0.0,0,1.0]},{"bufferView":30,"componentType":5126,"count":8,"type":"VEC2"},{"bufferView":31,"componentType":5123,"count":12,"type":"SCALAR","min":[0],"max":[7]},{"bufferView":32,"componentType":5126,"count":28800,"type":"VEC3","min":[-3.109876146409378,0.02753806508371645,-0.7718159945909189],"max":[3.1037948884026405,1.85506235209911,0.7751849346125214]},{"bufferView":33,"componentType":5126,"count":28800,"type":"VEC3","min":[-1.0,-0.14987995717416172,-1.0],"max":[1.0,1.0,1.0]},{"bufferView":34,"componentType":5126,"count":28800,"type":"VEC2"},{"bufferView":35,"componentType":5123,"count":43200,"type":"SCALAR","min":[0],"max":[28799]},{"bufferView":36,"componentType":5126,"count":22400,"type":"VEC3","min":[-3.2112329159728237,-0.06038947615981481,-0.8958412534376106],"max":[3.2273014414415067,1.9215856103471598,0.8883523085664692]},{"bufferView":37,"componentType":5126,"count":22400,"type":"VEC3","min":[-1.0,-0.14995982609276481,-1.0],"max":[1.0,1.0,1.0]},{"bufferView":38,"componentType":5126,"count":22400,"type":"VEC2"},{"bufferView":39,"componentType":5123,"count":33600,"type":"SCALAR","min":[0],"max":[22399]},{"bufferView":40,"componentType":5126,"count":22000,"type":"VEC3","min":[-3.3001547097217854,-0.10936919883767691,-0.971150358761537],"max":[3.3069623883664403,1.9862092299614833,0.97611458682654]},{"bufferView":41,"componentType":5126,"count":22000,"type":"VEC3","min":[-1.0,-0.1498046467931475,-1.0],"max":[1.0,1.0,1.0]},{"bufferView":42,"componentType":5126,"count":22000,"type":"VEC2"},{"bufferView":43,"componentType":5123,"count":33000,"type":"SCALAR","min":[0],"max":[21999]},{"bufferView":44,"componentType":5126,"count":21600,"type":"VEC3","min":[-3.4208519505200288,-0.19864153981506796,-1.0915886029607877],"max":[3.414617900224371,2.043885531809398,1.0932789621740857]},{"bufferView":45,"componentType":5126,"count":21600,"type":"VEC3","min":[-1.0,-0.14995324180268255,-1.0],"max":[1.0,1.0,1.0]},{"bufferView":46,"componentType":5126,"count":21600,"type":"VEC2"},{"bufferView":47,"componentType":5123,"count":32400,"type":"SCALAR","min":[0],"max":[21599]},{"bufferView":48,"componentType":5126,"count":21200,"type":"VEC3","min":[-3.5669841541004086,-0.28681191374307197,-1.2429398135248713],"max":[3.5461894592613254,2.161949174574682,1.1960971361201902]},{"bufferView":49,"componentType":5126,"count":21200,"type":"VEC3","min":[-1.0,-0.14975531996991104,-1.0],"max":[1.0,1.0,1.0]},{"bufferView":50,"componentType":5126,"count":21200,"type":"VEC2"},{"bufferView":51,"componentType":5123,"count":31800,"type":"SCALAR","min":[0],"max":[21199]},{"bufferView":52,"componentType":5126,"count":20800,"type":"VEC3","min":[-3.7272714316070905,-0.41582372029250525,-1.4006898719832632],"max":[3.7355253375482667,2.2593776068273055,1.3833213185301112]},{"bufferView":53,"componentType":5126,"count":20800,"type":"VEC3","min":[-1.0,-0.14979885934138443,-1.0],"max":[1.0,1.0,1.0]},{"bufferView":54,"componentType":5126,"count":20800,"type":"VEC2"},{"bufferView":55,"componentType":5123,"count":31200,"type":"SCALAR","min":[0],"max":[20799]},{"bufferView":56,"componentType":5126,"count":20400,"type":"VEC3","min":[-3.943880380578867,-0.5701426302522967,-1.6148345094358412],"max":[3.944457288902163,2.412331657967942,1.645154424872163]},{"bufferView":57,"componentType":5126,"count":20400,"type":"VEC3","min":[-1.0,-0.14982052843301688,-1.0],"max":[1.0,1.0,1.0]},{"bufferView":58,"componentType":5126,"count":20400,"type":"VEC2"},{"bufferView":59,"componentType":5123,"count":30600,"type":"SCALAR","min":[0],"max":[20399]},{"bufferView":60,"componentType":5126,"count":20000,"type":"VEC3","min":[-4.24859925364883,-0.7668402276106139,-1.8773220048724297],"max":[4.23680859012995,2.6034534689215363,1.8801417363414814]},{"bufferView":61,"componentType":5126,"count":20000,"type":"VEC3","min":[-1.0,-0.14999302042115678,-1.0],"max":[1.0,1.0,1.0]},{"bufferView":62,"componentType":5126,"count":20000,"type":"VEC2"},{"bufferView":63,"componentType":5123,"count":30000,"type":"SCALAR","min":[0],"max":[19999]},{"bufferView":64,"componentType":5126,"count":19600,"type":"VEC3","min":[-4.514896395771035,-0.9073730150524895,-2.177495972725727],"max":[4.470627766760743,2.7928427239548803,2.118901535059435]},{"bufferView":65,"componentType":5126,"count":19600,"type":"VEC3","min":[-1.0,-0.14998986357676083,-1.0],"max":[1.0,1.0,1.0]},{"bufferView":66,"componentType":5126,"count":19600,"type":"VEC2"},{"bufferView":67,"componentType":5123,"count":29400,"type":"SCALAR","min":[0],"max":[19599]},{"bufferView":68,"componentType":5126,"count":19200,"type":"VEC3","min":[-4.788516653976252,-1.1544830453479493,-2.4679224047123625],"max":[4.810810305611445,2.999087948179251,2.439008273315899]},{"bufferView":69,"componentType":5126,"count":19200,"type":"VEC3","min":[-1.0,-0.14998147216529406,-1.0],"max":[1.0,1.0,1.0]},{"bufferView":70,"componentType":5126,"count":19200,"type":"VEC2"},{"bufferView":71,"componentType":5123,"count":28800,"type":"SCALAR","min":[0],"max":[19199]},{"bufferView":72,"componentType":5126,"count":18600,"type":"VEC3","min":[-5.165269097652643,-1.398088994301306,-2.836264486149594],"max":[5.1739476983084,3.262949830912368,2.802502792052512]},{"bufferView":73,"componentType":5126,"count":18600,"type":"VEC3","min":[-1.0,-0.1499762506267101,-1.0],"max":[1.0,1.0,1.0]},{"bufferView":74,"componentType":5126,"count":18600,"type":"VEC2"},{"bufferView":75,"componentType":5123,"count":27900,"type":"SCALAR","min":[0],"max":[18599]},{"bufferView":76,"componentType":5126,"count":18000,"type":"VEC3","min":[-5.632408466460708,-1.7072763169918566,-3.2290250611545295],"max":[5.595904049939014,3.5114504450528354,3.265406041011498]},{"bufferView":77,"componentType":5126,"count":18000,"type":"VEC3","min":[-1.0,-0.14996567289644103,-1.0],"max":[1.0,1.0,1.0]},{"bufferView":78,"componentType":5126,"count":18000,"type":"VEC2"},{"bufferView":79,"componentType":5123,"count":27000,"type":"SCALAR","min":[0],"max":[17999]}],"images":[{"uri":"textures/poly_wild_rooibos_bush.png"},{"uri":"textures/poly_wild_rooibos_bush.png"},{"uri":"impostors/besenginster_c_summer.png"},{"uri":"textures/poly_wild_rooibos_bush.png"},{"uri":"textures/poly_wild_rooibos_bush.png"},{"uri":"impostors/besenheide_c_summer.png"},{"uri":"textures/poly_searsia_lucida.png"}],"samplers":[{"magFilter":9729,"minFilter":9987,"wrapS":10497,"wrapT":10497},{"magFilter":9729,"minFilter":9987,"wrapS":10497,"wrapT":10497},{"magFilter":9729,"minFilter":9987,"wrapS":10497,"wrapT":10497}],"textures":[{"source":0,"sampler":0},{"source":1,"sampler":0},{"source":2,"sampler":0},{"source":3,"sampler":1},{"source":4,"sampler":1},{"source":5,"sampler":1},{"source":6,"sampler":2}],"materials":[{"name":"besenginster_c_bark","pbrMetallicRoughness":{"baseColorFactor":[0.82,0.82,0.82,1.0],"baseColorTexture":{"index":0},"metallicFactor":0.0,"roughnessFactor":0.91},"doubleSided":false},{"name":"besenginster_c_foliage","pbrMetallicRoughness":{"baseColorFactor":[0.5805882352941176,1.0,0.7405882352941177,1.0],"baseColorTexture":{"index":1},"metallicFactor":0.0,"roughnessFactor":0.78},"doubleSided":true,"alphaMode":"MASK","alphaCutoff":0.18},{"name":"besenginster_c_whole_tree_impostor","pbrMetallicRoughness":{"baseColorFactor":[1,1,1,1],"baseColorTexture":{"index":2},"metallicFactor":0.0,"roughnessFactor":0.92},"doubleSided":true,"alphaMode":"MASK","alphaCutoff":0.18},{"name":"besenheide_c_bark","pbrMetallicRoughness":{"baseColorFactor":[0.82,0.82,0.82,1.0],"baseColorTexture":{"index":3},"metallicFactor":0.0,"roughnessFactor":0.91},"doubleSided":false},{"name":"besenheide_c_foliage","pbrMetallicRoughness":{"baseColorFactor":[0.6213725490196078,1.0,0.7813725490196078,1.0],"baseColorTexture":{"index":4},"metallicFactor":0.0,"roughnessFactor":0.78},"doubleSided":true,"alphaMode":"MASK","alphaCutoff":0.18},{"name":"besenheide_c_whole_tree_impostor","pbrMetallicRoughness":{"baseColorFactor":[1,1,1,1],"baseColorTexture":{"index":5},"metallicFactor":0.0,"roughnessFactor":0.92},"doubleSided":true,"alphaMode":"MASK","alphaCutoff":0.18},{"name":"immergruene_hecke_individual_leaves_LOD0","pbrMetallicRoughness":{"baseColorFactor":[0.58,0.96,0.66,1.0],"baseColorTexture":{"index":6},"metallicFactor":0.0,"roughnessFactor":0.82},"doubleSided":true,"alphaMode":"MASK","alphaCutoff":0.18},{"name":"immergruene_hecke_individual_leaves_LOD1","pbrMetallicRoughness":{"baseColorFactor":[0.58,0.96,0.66,1.0],"baseColorTexture":{"index":6},"metallicFactor":0.0,"roughnessFactor":0.82},"doubleSided":true,"alphaMode":"MASK","alphaCutoff":0.08},{"name":"immergruene_hecke_individual_leaves_LOD2","pbrMetallicRoughness":{"baseColorFactor":[0.58,0.96,0.66,1.0],"baseColorTexture":{"index":6},"metallicFactor":0.0,"roughnessFactor":0.82},"doubleSided":true,"alphaMode":"MASK","alphaCutoff":0.065},{"name":"immergruene_hecke_individual_leaves_LOD3","pbrMetallicRoughness":{"baseColorFactor":[0.58,0.96,0.66,1.0],"baseColorTexture":{"index":6},"metallicFactor":0.0,"roughnessFactor":0.82},"doubleSided":true,"alphaMode":"MASK","alphaCutoff":0.055},{"name":"immergruene_hecke_individual_leaves_LOD4","pbrMetallicRoughness":{"baseColorFactor":[0.58,0.96,0.66,1.0],"baseColorTexture":{"index":6},"metallicFactor":0.0,"roughnessFactor":0.82},"doubleSided":true,"alphaMode":"MASK","alphaCutoff":0.045},{"name":"immergruene_hecke_individual_leaves_LOD5","pbrMetallicRoughness":{"baseColorFactor":[0.58,0.96,0.66,1.0],"baseColorTexture":{"index":6},"metallicFactor":0.0,"roughnessFactor":0.82},"doubleSided":true,"alphaMode":"MASK","alphaCutoff":0.038},{"name":"immergruene_hecke_individual_leaves_LOD6","pbrMetallicRoughness":{"baseColorFactor":[0.58,0.96,0.66,1.0],"baseColorTexture":{"index":6},"metallicFactor":0.0,"roughnessFactor":0.82},"doubleSided":true,"alphaMode":"MASK","alphaCutoff":0.032},{"name":"immergruene_hecke_individual_leaves_LOD7","pbrMetallicRoughness":{"baseColorFactor":[0.58,0.96,0.66,1.0],"baseColorTexture":{"index":6},"metallicFactor":0.0,"roughnessFactor":0.82},"doubleSided":true,"alphaMode":"MASK","alphaCutoff":0.027},{"name":"immergruene_hecke_individual_leaves_LOD8","pbrMetallicRoughness":{"baseColorFactor":[0.58,0.96,0.66,1.0],"baseColorTexture":{"index":6},"metallicFactor":0.0,"roughnessFactor":0.82},"doubleSided":true,"alphaMode":"MASK","alphaCutoff":0.023},{"name":"immergruene_hecke_individual_leaves_LOD9","pbrMetallicRoughness":{"baseColorFactor":[0.58,0.96,0.66,1.0],"baseColorTexture":{"index":6},"metallicFactor":0.0,"roughnessFactor":0.82},"doubleSided":true,"alphaMode":"MASK","alphaCutoff":0.02},{"name":"immergruene_hecke_individual_leaves_LOD10","pbrMetallicRoughness":{"baseColorFactor":[0.58,0.96,0.66,1.0],"baseColorTexture":{"index":6},"metallicFactor":0.0,"roughnessFactor":0.82},"doubleSided":true,"alphaMode":"MASK","alphaCutoff":0.017},{"name":"immergruene_hecke_individual_leaves_LOD11","pbrMetallicRoughness":{"baseColorFactor":[0.58,0.96,0.66,1.0],"baseColorTexture":{"index":6},"metallicFactor":0.0,"roughnessFactor":0.82},"doubleSided":true,"alphaMode":"MASK","alphaCutoff":0.015}]}