{"asset":{"version":"2.0","generator":"Connected Rails CC0 tree importer","copyright":"Mantissa and Poly Haven source models: CC0 1.0; optimisation: Connected Rails"},"scene":0,"scenes":[{"nodes":[0,1,2,3]}],"nodes":[{"name":"crown_LOD0","mesh":0},{"name":"crown_LOD1","mesh":1},{"name":"crown_LOD2","mesh":2},{"name":"crown_LOD3","mesh":3}],"meshes":[{"name":"crown_LOD0","primitives":[{"attributes":{"POSITION":0,"NORMAL":1,"TEXCOORD_0":2},"indices":3,"material":1}]},{"name":"crown_LOD1","primitives":[{"attributes":{"POSITION":4,"NORMAL":5,"TEXCOORD_0":6},"indices":7,"material":1}]},{"name":"crown_LOD2","primitives":[{"attributes":{"POSITION":8,"NORMAL":9,"TEXCOORD_0":10},"indices":11,"material":2}]},{"name":"crown_LOD3","primitives":[{"attributes":{"POSITION":12,"NORMAL":13,"TEXCOORD_0":14},"indices":15,"material":2}]}],"buffers":[{"uri":"immergruen_c.bin","byteLength":222196}],"bufferViews":[{"buffer":0,"byteOffset":0,"byteLength":55632,"target":34962},{"buffer":0,"byteOffset":55632,"byteLength":55632,"target":34962},{"buffer":0,"byteOffset":111264,"byteLength":37088,"target":34962},{"buffer":0,"byteOffset":148352,"byteLength":32028,"target":34963},{"buffer":0,"byteOffset":180380,"byteLength":12672,"target":34962},{"buffer":0,"byteOffset":193052,"byteLength":12672,"target":34962},{"buffer":0,"byteOffset":205724,"byteLength":8448,"target":34962},{"buffer":0,"byteOffset":214172,"byteLength":7182,"target":34963},{"buffer":0,"byteOffset":221356,"byteLength":192,"target":34962},{"buffer":0,"byteOffset":221548,"byteLength":192,"target":34962},{"buffer":0,"byteOffset":221740,"byteLength":128,"target":34962},{"buffer":0,"byteOffset":221868,"byteLength":48,"target":34963},{"buffer":0,"byteOffset":221916,"byteLength":96,"target":34962},{"buffer":0,"byteOffset":222012,"byteLength":96,"target":34962},{"buffer":0,"byteOffset":222108,"byteLength":64,"target":34962},{"buffer":0,"byteOffset":222172,"byteLength":24,"target":34963}],"accessors":[{"bufferView":0,"componentType":5126,"count":4636,"type":"VEC3","min":[-0.26249999999999996,0.0,-0.22972218619697352],"max":[0.26249999999999996,0.35,0.22972218619697352]},{"bufferView":1,"componentType":5126,"count":4636,"type":"VEC3","min":[-0.9874431490898132,-0.993282675743103,-0.9999490976333618],"max":[0.9943462610244751,0.9999852180480957,0.999941349029541]},{"bufferView":2,"componentType":5126,"count":4636,"type":"VEC2"},{"bufferView":3,"componentType":5123,"count":16014,"type":"SCALAR","min":[0],"max":[4635]},{"bufferView":4,"componentType":5126,"count":1056,"type":"VEC3","min":[-0.26249999999999996,-2.515984719540236e-05,-0.2297236810903111],"max":[0.26249999999999996,0.34965140708694636,0.22972069130363595]},{"bufferView":5,"componentType":5126,"count":1056,"type":"VEC3","min":[-0.986629068851471,-0.9925548434257507,-0.9998171925544739],"max":[0.9937608242034912,0.9999673366546631,0.9999661445617676]},{"bufferView":6,"componentType":5126,"count":1056,"type":"VEC2"},{"bufferView":7,"componentType":5123,"count":3591,"type":"SCALAR","min":[0],"max":[1055]},{"bufferView":8,"componentType":5126,"count":16,"type":"VEC3","min":[-0.28874999999999995,0,-0.28874999999999995],"max":[0.28874999999999995,0.35,0.28874999999999995]},{"bufferView":9,"componentType":5126,"count":16,"type":"VEC3","min":[-1.0,0,-0.7071067811865475],"max":[-0.0,0,1.0]},{"bufferView":10,"componentType":5126,"count":16,"type":"VEC2"},{"bufferView":11,"componentType":5123,"count":24,"type":"SCALAR","min":[0],"max":[15]},{"bufferView":12,"componentType":5126,"count":8,"type":"VEC3","min":[-0.28874999999999995,0,-0.28874999999999995],"max":[0.28874999999999995,0.35,0.28874999999999995]},{"bufferView":13,"componentType":5126,"count":8,"type":"VEC3","min":[-1.0,0,6.123233995736766e-17],"max":[-0.0,0,1.0]},{"bufferView":14,"componentType":5126,"count":8,"type":"VEC2"},{"bufferView":15,"componentType":5123,"count":12,"type":"SCALAR","min":[0],"max":[7]}],"samplers":[{"magFilter":9729,"minFilter":9987,"wrapS":10497,"wrapT":10497}],"images":[{"uri":"textures/poly_periwinkle_plant.png"},{"uri":"textures/poly_periwinkle_plant.png"},{"uri":"impostors/immergruen_c_summer.png"}],"textures":[{"source":0,"sampler":0},{"source":1,"sampler":0},{"source":2,"sampler":0}],"materials":[{"name":"bark","pbrMetallicRoughness":{"baseColorFactor":[0.82,0.82,0.82,1.0],"baseColorTexture":{"index":0},"metallicFactor":0.0,"roughnessFactor":0.91},"doubleSided":false},{"name":"foliage","pbrMetallicRoughness":{"baseColorFactor":[0.5633333333333332,1.0,0.7233333333333333,1.0],"baseColorTexture":{"index":1},"metallicFactor":0.0,"roughnessFactor":0.78},"doubleSided":true,"alphaMode":"MASK","alphaCutoff":0.18},{"name":"whole_tree_impostor","pbrMetallicRoughness":{"baseColorFactor":[1,1,1,1],"baseColorTexture":{"index":2},"metallicFactor":0.0,"roughnessFactor":0.92},"doubleSided":true,"alphaMode":"MASK","alphaCutoff":0.18}]}