{"asset":{"version":"2.0","generator":"Connected Rails CC0 hedge composer","copyright":"Mantissa and Poly Haven source models: CC0 1.0; hedge composition: Connected Rails"},"scene":0,"scenes":[{"nodes":[0,1,2,3,4,5,6,7,8,9,10,11]}],"nodes":[{"name":"hedge_LOD0","children":[12,14,26,30,32,44,48,58,68,74,80,82,84,86,98,100,104,106,112,116,118,120,128,139]},{"name":"hedge_LOD1","children":[13,15,27,31,33,45,49,59,69,75,81,83,85,87,99,101,105,107,113,117,119,121,129,140]},{"name":"hedge_LOD2","children":[16,28,34,46,50,60,70,76,88,102,108,114,122,130,141]},{"name":"hedge_LOD3","children":[17,29,35,47,51,61,71,77,89,103,109,115,123,131,142]},{"name":"hedge_LOD4","children":[18,36,52,62,72,78,90,110,124,132,143]},{"name":"hedge_LOD5","children":[19,37,53,63,73,79,91,111,125,133,144]},{"name":"hedge_LOD6","children":[20,38,54,64,92,126,134,145]},{"name":"hedge_LOD7","children":[21,39,55,65,93,127,135,146]},{"name":"hedge_LOD8","children":[22,40,56,66,94,136,147]},{"name":"hedge_LOD9","children":[23,41,57,67,95,137,148]},{"name":"hedge_LOD10","children":[24,42,96,138,149]},{"name":"hedge_LOD11","children":[25,43,97,150]},{"name":"besenheide_c_part_12_LOD0","mesh":1,"translation":[-3.0,-0.0,-0.13617458597390006],"rotation":[0.0,0.00797021282218312,0.0,0.9999682373493516],"scale":[0.8440574033190633,1.7667870886500354,1.1299349013207487]},{"name":"besenheide_c_part_13_LOD1","mesh":1,"translation":[-3.0,-0.0,-0.13617458597390006],"rotation":[0.0,0.00797021282218312,0.0,0.9999682373493516],"scale":[0.8440574033190633,1.7667870886500354,1.1299349013207487]},{"name":"besenginster_c_part_14_LOD0","mesh":5,"translation":[-2.4545454545454546,-0.0,-0.11628079963606239],"rotation":[0.0,0.029188856690475582,0.0,0.9995739145481453],"scale":[0.41309162327144744,0.5553822360156088,0.6637838086036907]},{"name":"besenginster_c_part_15_LOD1","mesh":5,"translation":[-2.4545454545454546,-0.0,-0.11628079963606239],"rotation":[0.0,0.029188856690475582,0.0,0.9995739145481453],"scale":[0.41309162327144744,0.5553822360156088,0.6637838086036907]},{"name":"besenginster_c_part_16_LOD2","mesh":5,"translation":[-2.4545454545454546,-0.0,-0.11628079963606239],"rotation":[0.0,0.029188856690475582,0.0,0.9995739145481453],"scale":[0.41309162327144744,0.5553822360156088,0.6637838086036907]},{"name":"besenginster_c_part_17_LOD3","mesh":5,"translation":[-2.4545454545454546,-0.0,-0.11628079963606239],"rotation":[0.0,0.029188856690475582,0.0,0.9995739145481453],"scale":[0.41309162327144744,0.5553822360156088,0.6637838086036907]},{"name":"besenginster_c_part_18_LOD4","mesh":5,"translation":[-2.4545454545454546,-0.0,-0.11628079963606239],"rotation":[0.0,0.029188856690475582,0.0,0.9995739145481453],"scale":[0.41309162327144744,0.5553822360156088,0.6637838086036907]},{"name":"besenginster_c_part_19_LOD5","mesh":5,"translation":[-2.4545454545454546,-0.0,-0.11628079963606239],"rotation":[0.0,0.029188856690475582,0.0,0.9995739145481453],"scale":[0.41309162327144744,0.5553822360156088,0.6637838086036907]},{"name":"besenginster_c_part_20_LOD6","mesh":5,"translation":[-2.4545454545454546,-0.0,-0.11628079963606239],"rotation":[0.0,0.029188856690475582,0.0,0.9995739145481453],"scale":[0.41309162327144744,0.5553822360156088,0.6637838086036907]},{"name":"besenginster_c_part_21_LOD7","mesh":5,"translation":[-2.4545454545454546,-0.0,-0.11628079963606239],"rotation":[0.0,0.029188856690475582,0.0,0.9995739145481453],"scale":[0.41309162327144744,0.5553822360156088,0.6637838086036907]},{"name":"besenginster_c_part_22_LOD8","mesh":5,"translation":[-2.4545454545454546,-0.0,-0.11628079963606239],"rotation":[0.0,0.029188856690475582,0.0,0.9995739145481453],"scale":[0.41309162327144744,0.5553822360156088,0.6637838086036907]},{"name":"besenginster_c_part_23_LOD9","mesh":5,"translation":[-2.4545454545454546,-0.0,-0.11628079963606239],"rotation":[0.0,0.029188856690475582,0.0,0.9995739145481453],"scale":[0.41309162327144744,0.5553822360156088,0.6637838086036907]},{"name":"besenginster_c_part_24_LOD10","mesh":5,"translation":[-2.4545454545454546,-0.0,-0.11628079963606239],"rotation":[0.0,0.029188856690475582,0.0,0.9995739145481453],"scale":[0.41309162327144744,0.5553822360156088,0.6637838086036907]},{"name":"besenginster_c_part_25_LOD11","mesh":5,"translation":[-2.4545454545454546,-0.0,-0.11628079963606239],"rotation":[0.0,0.029188856690475582,0.0,0.9995739145481453],"scale":[0.41309162327144744,0.5553822360156088,0.6637838086036907]},{"name":"besenheide_c_part_26_LOD0","mesh":1,"translation":[-1.9090909090909092,-0.0,-0.06727888811250855],"rotation":[0.0,0.008720955262478328,0.0,0.9999619717465809],"scale":[0.8440574033190633,1.7603482512359383,1.0535029841268249]},{"name":"besenheide_c_part_27_LOD1","mesh":1,"translation":[-1.9090909090909092,-0.0,-0.06727888811250855],"rotation":[0.0,0.008720955262478328,0.0,0.9999619717465809],"scale":[0.8440574033190633,1.7603482512359383,1.0535029841268249]},{"name":"besenheide_c_part_28_LOD2","mesh":1,"translation":[-1.9090909090909092,-0.0,-0.06727888811250855],"rotation":[0.0,0.008720955262478328,0.0,0.9999619717465809],"scale":[0.8440574033190633,1.7603482512359383,1.0535029841268249]},{"name":"besenheide_c_part_29_LOD3","mesh":1,"translation":[-1.9090909090909092,-0.0,-0.06727888811250855],"rotation":[0.0,0.008720955262478328,0.0,0.9999619717465809],"scale":[0.8440574033190633,1.7603482512359383,1.0535029841268249]},{"name":"besenginster_c_part_30_LOD0","mesh":5,"translation":[-1.3636363636363638,-0.0,-0.007664765674442825],"rotation":[0.0,-0.04087447059582729,0.0,0.9991642896208365],"scale":[0.41309162327144744,0.5395254636430373,0.5316804999736002]},{"name":"besenginster_c_part_31_LOD1","mesh":5,"translation":[-1.3636363636363638,-0.0,-0.007664765674442825],"rotation":[0.0,-0.04087447059582729,0.0,0.9991642896208365],"scale":[0.41309162327144744,0.5395254636430373,0.5316804999736002]},{"name":"besenheide_c_part_32_LOD0","mesh":1,"translation":[-0.8181818181818183,-0.0,0.12143518915841969],"rotation":[0.0,-0.06362192732289515,0.0,0.9979740729917387],"scale":[0.8440574033190633,1.7488297484918898,1.3207468337976154]},{"name":"besenheide_c_part_33_LOD1","mesh":1,"translation":[-0.8181818181818183,-0.0,0.12143518915841969],"rotation":[0.0,-0.06362192732289515,0.0,0.9979740729917387],"scale":[0.8440574033190633,1.7488297484918898,1.3207468337976154]},{"name":"besenheide_c_part_34_LOD2","mesh":1,"translation":[-0.8181818181818183,-0.0,0.12143518915841969],"rotation":[0.0,-0.06362192732289515,0.0,0.9979740729917387],"scale":[0.8440574033190633,1.7488297484918898,1.3207468337976154]},{"name":"besenheide_c_part_35_LOD3","mesh":1,"translation":[-0.8181818181818183,-0.0,0.12143518915841969],"rotation":[0.0,-0.06362192732289515,0.0,0.9979740729917387],"scale":[0.8440574033190633,1.7488297484918898,1.3207468337976154]},{"name":"besenheide_c_part_36_LOD4","mesh":1,"translation":[-0.8181818181818183,-0.0,0.12143518915841969],"rotation":[0.0,-0.06362192732289515,0.0,0.9979740729917387],"scale":[0.8440574033190633,1.7488297484918898,1.3207468337976154]},{"name":"besenheide_c_part_37_LOD5","mesh":1,"translation":[-0.8181818181818183,-0.0,0.12143518915841969],"rotation":[0.0,-0.06362192732289515,0.0,0.9979740729917387],"scale":[0.8440574033190633,1.7488297484918898,1.3207468337976154]},{"name":"besenheide_c_part_38_LOD6","mesh":1,"translation":[-0.8181818181818183,-0.0,0.12143518915841969],"rotation":[0.0,-0.06362192732289515,0.0,0.9979740729917387],"scale":[0.8440574033190633,1.7488297484918898,1.3207468337976154]},{"name":"besenheide_c_part_39_LOD7","mesh":1,"translation":[-0.8181818181818183,-0.0,0.12143518915841969],"rotation":[0.0,-0.06362192732289515,0.0,0.9979740729917387],"scale":[0.8440574033190633,1.7488297484918898,1.3207468337976154]},{"name":"besenheide_c_part_40_LOD8","mesh":1,"translation":[-0.8181818181818183,-0.0,0.12143518915841969],"rotation":[0.0,-0.06362192732289515,0.0,0.9979740729917387],"scale":[0.8440574033190633,1.7488297484918898,1.3207468337976154]},{"name":"besenheide_c_part_41_LOD9","mesh":1,"translation":[-0.8181818181818183,-0.0,0.12143518915841969],"rotation":[0.0,-0.06362192732289515,0.0,0.9979740729917387],"scale":[0.8440574033190633,1.7488297484918898,1.3207468337976154]},{"name":"besenheide_c_part_42_LOD10","mesh":1,"translation":[-0.8181818181818183,-0.0,0.12143518915841969],"rotation":[0.0,-0.06362192732289515,0.0,0.9979740729917387],"scale":[0.8440574033190633,1.7488297484918898,1.3207468337976154]},{"name":"besenheide_c_part_43_LOD11","mesh":1,"translation":[-0.8181818181818183,-0.0,0.12143518915841969],"rotation":[0.0,-0.06362192732289515,0.0,0.9979740729917387],"scale":[0.8440574033190633,1.7488297484918898,1.3207468337976154]},{"name":"besenginster_c_part_44_LOD0","mesh":5,"translation":[-0.27272727272727293,-0.0,0.034950474466236],"rotation":[0.0,-0.0706080620563384,0.0,0.9975041361180655],"scale":[0.41309162327144744,0.5532782409728327,0.6279504134372562]},{"name":"besenginster_c_part_45_LOD1","mesh":5,"translation":[-0.27272727272727293,-0.0,0.034950474466236],"rotation":[0.0,-0.0706080620563384,0.0,0.9975041361180655],"scale":[0.41309162327144744,0.5532782409728327,0.6279504134372562]},{"name":"besenginster_c_part_46_LOD2","mesh":5,"translation":[-0.27272727272727293,-0.0,0.034950474466236],"rotation":[0.0,-0.0706080620563384,0.0,0.9975041361180655],"scale":[0.41309162327144744,0.5532782409728327,0.6279504134372562]},{"name":"besenginster_c_part_47_LOD3","mesh":5,"translation":[-0.27272727272727293,-0.0,0.034950474466236],"rotation":[0.0,-0.0706080620563384,0.0,0.9975041361180655],"scale":[0.41309162327144744,0.5532782409728327,0.6279504134372562]},{"name":"besenheide_c_part_48_LOD0","mesh":1,"translation":[0.2727272727272725,-0.0,0.03977551755443706],"rotation":[0.0,0.023211248853310253,0.0,0.9997305826704861],"scale":[0.8440574033190633,1.746046468462319,1.2676340058646642]},{"name":"besenheide_c_part_49_LOD1","mesh":1,"translation":[0.2727272727272725,-0.0,0.03977551755443706],"rotation":[0.0,0.023211248853310253,0.0,0.9997305826704861],"scale":[0.8440574033190633,1.746046468462319,1.2676340058646642]},{"name":"besenheide_c_part_50_LOD2","mesh":1,"translation":[0.2727272727272725,-0.0,0.03977551755443706],"rotation":[0.0,0.023211248853310253,0.0,0.9997305826704861],"scale":[0.8440574033190633,1.746046468462319,1.2676340058646642]},{"name":"besenheide_c_part_51_LOD3","mesh":1,"translation":[0.2727272727272725,-0.0,0.03977551755443706],"rotation":[0.0,0.023211248853310253,0.0,0.9997305826704861],"scale":[0.8440574033190633,1.746046468462319,1.2676340058646642]},{"name":"besenheide_c_part_52_LOD4","mesh":1,"translation":[0.2727272727272725,-0.0,0.03977551755443706],"rotation":[0.0,0.023211248853310253,0.0,0.9997305826704861],"scale":[0.8440574033190633,1.746046468462319,1.2676340058646642]},{"name":"besenheide_c_part_53_LOD5","mesh":1,"translation":[0.2727272727272725,-0.0,0.03977551755443706],"rotation":[0.0,0.023211248853310253,0.0,0.9997305826704861],"scale":[0.8440574033190633,1.746046468462319,1.2676340058646642]},{"name":"besenheide_c_part_54_LOD6","mesh":1,"translation":[0.2727272727272725,-0.0,0.03977551755443706],"rotation":[0.0,0.023211248853310253,0.0,0.9997305826704861],"scale":[0.8440574033190633,1.746046468462319,1.2676340058646642]},{"name":"besenheide_c_part_55_LOD7","mesh":1,"translation":[0.2727272727272725,-0.0,0.03977551755443706],"rotation":[0.0,0.023211248853310253,0.0,0.9997305826704861],"scale":[0.8440574033190633,1.746046468462319,1.2676340058646642]},{"name":"besenheide_c_part_56_LOD8","mesh":1,"translation":[0.2727272727272725,-0.0,0.03977551755443706],"rotation":[0.0,0.023211248853310253,0.0,0.9997305826704861],"scale":[0.8440574033190633,1.746046468462319,1.2676340058646642]},{"name":"besenheide_c_part_57_LOD9","mesh":1,"translation":[0.2727272727272725,-0.0,0.03977551755443706],"rotation":[0.0,0.023211248853310253,0.0,0.9997305826704861],"scale":[0.8440574033190633,1.746046468462319,1.2676340058646642]},{"name":"besenginster_c_part_58_LOD0","mesh":5,"translation":[0.8181818181818179,-0.0,0.13861111491594583],"rotation":[0.0,0.05743864241315813,0.0,0.998349038341668],"scale":[0.41309162327144744,0.5729323436605165,0.5145701110959572]},{"name":"besenginster_c_part_59_LOD1","mesh":5,"translation":[0.8181818181818179,-0.0,0.13861111491594583],"rotation":[0.0,0.05743864241315813,0.0,0.998349038341668],"scale":[0.41309162327144744,0.5729323436605165,0.5145701110959572]},{"name":"besenginster_c_part_60_LOD2","mesh":5,"translation":[0.8181818181818179,-0.0,0.13861111491594583],"rotation":[0.0,0.05743864241315813,0.0,0.998349038341668],"scale":[0.41309162327144744,0.5729323436605165,0.5145701110959572]},{"name":"besenginster_c_part_61_LOD3","mesh":5,"translation":[0.8181818181818179,-0.0,0.13861111491594583],"rotation":[0.0,0.05743864241315813,0.0,0.998349038341668],"scale":[0.41309162327144744,0.5729323436605165,0.5145701110959572]},{"name":"besenginster_c_part_62_LOD4","mesh":5,"translation":[0.8181818181818179,-0.0,0.13861111491594583],"rotation":[0.0,0.05743864241315813,0.0,0.998349038341668],"scale":[0.41309162327144744,0.5729323436605165,0.5145701110959572]},{"name":"besenginster_c_part_63_LOD5","mesh":5,"translation":[0.8181818181818179,-0.0,0.13861111491594583],"rotation":[0.0,0.05743864241315813,0.0,0.998349038341668],"scale":[0.41309162327144744,0.5729323436605165,0.5145701110959572]},{"name":"besenginster_c_part_64_LOD6","mesh":5,"translation":[0.8181818181818179,-0.0,0.13861111491594583],"rotation":[0.0,0.05743864241315813,0.0,0.998349038341668],"scale":[0.41309162327144744,0.5729323436605165,0.5145701110959572]},{"name":"besenginster_c_part_65_LOD7","mesh":5,"translation":[0.8181818181818179,-0.0,0.13861111491594583],"rotation":[0.0,0.05743864241315813,0.0,0.998349038341668],"scale":[0.41309162327144744,0.5729323436605165,0.5145701110959572]},{"name":"besenginster_c_part_66_LOD8","mesh":5,"translation":[0.8181818181818179,-0.0,0.13861111491594583],"rotation":[0.0,0.05743864241315813,0.0,0.998349038341668],"scale":[0.41309162327144744,0.5729323436605165,0.5145701110959572]},{"name":"besenginster_c_part_67_LOD9","mesh":5,"translation":[0.8181818181818179,-0.0,0.13861111491594583],"rotation":[0.0,0.05743864241315813,0.0,0.998349038341668],"scale":[0.41309162327144744,0.5729323436605165,0.5145701110959572]},{"name":"besenheide_c_part_68_LOD0","mesh":1,"translation":[1.3636363636363633,-0.0,-0.04906625087762148],"rotation":[0.0,-0.058777571766241994,0.0,0.9982711039879218],"scale":[0.8440574033190633,1.771002811466313,1.261304344260259]},{"name":"besenheide_c_part_69_LOD1","mesh":1,"translation":[1.3636363636363633,-0.0,-0.04906625087762148],"rotation":[0.0,-0.058777571766241994,0.0,0.9982711039879218],"scale":[0.8440574033190633,1.771002811466313,1.261304344260259]},{"name":"besenheide_c_part_70_LOD2","mesh":1,"translation":[1.3636363636363633,-0.0,-0.04906625087762148],"rotation":[0.0,-0.058777571766241994,0.0,0.9982711039879218],"scale":[0.8440574033190633,1.771002811466313,1.261304344260259]},{"name":"besenheide_c_part_71_LOD3","mesh":1,"translation":[1.3636363636363633,-0.0,-0.04906625087762148],"rotation":[0.0,-0.058777571766241994,0.0,0.9982711039879218],"scale":[0.8440574033190633,1.771002811466313,1.261304344260259]},{"name":"besenheide_c_part_72_LOD4","mesh":1,"translation":[1.3636363636363633,-0.0,-0.04906625087762148],"rotation":[0.0,-0.058777571766241994,0.0,0.9982711039879218],"scale":[0.8440574033190633,1.771002811466313,1.261304344260259]},{"name":"besenheide_c_part_73_LOD5","mesh":1,"translation":[1.3636363636363633,-0.0,-0.04906625087762148],"rotation":[0.0,-0.058777571766241994,0.0,0.9982711039879218],"scale":[0.8440574033190633,1.771002811466313,1.261304344260259]},{"name":"besenginster_c_part_74_LOD0","mesh":5,"translation":[1.9090909090909083,-0.0,-0.08952828113061485],"rotation":[0.0,-0.0597945773273058,0.0,0.9982107034700884],"scale":[0.41309162327144744,0.5631192290525898,0.6571706020557165]},{"name":"besenginster_c_part_75_LOD1","mesh":5,"translation":[1.9090909090909083,-0.0,-0.08952828113061485],"rotation":[0.0,-0.0597945773273058,0.0,0.9982107034700884],"scale":[0.41309162327144744,0.5631192290525898,0.6571706020557165]},{"name":"besenginster_c_part_76_LOD2","mesh":5,"translation":[1.9090909090909083,-0.0,-0.08952828113061485],"rotation":[0.0,-0.0597945773273058,0.0,0.9982107034700884],"scale":[0.41309162327144744,0.5631192290525898,0.6571706020557165]},{"name":"besenginster_c_part_77_LOD3","mesh":5,"translation":[1.9090909090909083,-0.0,-0.08952828113061485],"rotation":[0.0,-0.0597945773273058,0.0,0.9982107034700884],"scale":[0.41309162327144744,0.5631192290525898,0.6571706020557165]},{"name":"besenginster_c_part_78_LOD4","mesh":5,"translation":[1.9090909090909083,-0.0,-0.08952828113061485],"rotation":[0.0,-0.0597945773273058,0.0,0.9982107034700884],"scale":[0.41309162327144744,0.5631192290525898,0.6571706020557165]},{"name":"besenginster_c_part_79_LOD5","mesh":5,"translation":[1.9090909090909083,-0.0,-0.08952828113061485],"rotation":[0.0,-0.0597945773273058,0.0,0.9982107034700884],"scale":[0.41309162327144744,0.5631192290525898,0.6571706020557165]},{"name":"besenheide_c_part_80_LOD0","mesh":1,"translation":[2.454545454545454,-0.0,-0.059449481454080494],"rotation":[0.0,-0.06656647972150247,0.0,0.9977819921092417],"scale":[0.8440574033190633,1.7663681082433669,1.1911028419307135]},{"name":"besenheide_c_part_81_LOD1","mesh":1,"translation":[2.454545454545454,-0.0,-0.059449481454080494],"rotation":[0.0,-0.06656647972150247,0.0,0.9977819921092417],"scale":[0.8440574033190633,1.7663681082433669,1.1911028419307135]},{"name":"besenginster_c_part_82_LOD0","mesh":5,"translation":[3.0,-0.0,-0.05941288128502521],"rotation":[0.0,0.07382947210391273,0.0,0.9972708804777454],"scale":[0.41309162327144744,0.5716692090920562,0.578193833602663]},{"name":"besenginster_c_part_83_LOD1","mesh":5,"translation":[3.0,-0.0,-0.05941288128502521],"rotation":[0.0,0.07382947210391273,0.0,0.9972708804777454],"scale":[0.41309162327144744,0.5716692090920562,0.578193833602663]},{"name":"besenginster_c_part_84_LOD0","mesh":5,"translation":[-2.7272727272727275,-0.0,-0.012513975461697663],"rotation":[0.0,-0.040353344184212325,0.0,0.999185472078708],"scale":[0.44158070073844385,0.36326778262876885,0.6249537491988234]},{"name":"besenginster_c_part_85_LOD1","mesh":5,"translation":[-2.7272727272727275,-0.0,-0.012513975461697663],"rotation":[0.0,-0.040353344184212325,0.0,0.999185472078708],"scale":[0.44158070073844385,0.36326778262876885,0.6249537491988234]},{"name":"besenheide_c_part_86_LOD0","mesh":1,"translation":[-2.1818181818181817,-0.0,-0.12432012370030093],"rotation":[0.0,0.05805223080949857,0.0,0.9983135471874759],"scale":[0.9022682587203782,1.1979541534086742,1.165497500605042]},{"name":"besenheide_c_part_87_LOD1","mesh":1,"translation":[-2.1818181818181817,-0.0,-0.12432012370030093],"rotation":[0.0,0.05805223080949857,0.0,0.9983135471874759],"scale":[0.9022682587203782,1.1979541534086742,1.165497500605042]},{"name":"besenheide_c_part_88_LOD2","mesh":1,"translation":[-2.1818181818181817,-0.0,-0.12432012370030093],"rotation":[0.0,0.05805223080949857,0.0,0.9983135471874759],"scale":[0.9022682587203782,1.1979541534086742,1.165497500605042]},{"name":"besenheide_c_part_89_LOD3","mesh":1,"translation":[-2.1818181818181817,-0.0,-0.12432012370030093],"rotation":[0.0,0.05805223080949857,0.0,0.9983135471874759],"scale":[0.9022682587203782,1.1979541534086742,1.165497500605042]},{"name":"besenheide_c_part_90_LOD4","mesh":1,"translation":[-2.1818181818181817,-0.0,-0.12432012370030093],"rotation":[0.0,0.05805223080949857,0.0,0.9983135471874759],"scale":[0.9022682587203782,1.1979541534086742,1.165497500605042]},{"name":"besenheide_c_part_91_LOD5","mesh":1,"translation":[-2.1818181818181817,-0.0,-0.12432012370030093],"rotation":[0.0,0.05805223080949857,0.0,0.9983135471874759],"scale":[0.9022682587203782,1.1979541534086742,1.165497500605042]},{"name":"besenheide_c_part_92_LOD6","mesh":1,"translation":[-2.1818181818181817,-0.0,-0.12432012370030093],"rotation":[0.0,0.05805223080949857,0.0,0.9983135471874759],"scale":[0.9022682587203782,1.1979541534086742,1.165497500605042]},{"name":"besenheide_c_part_93_LOD7","mesh":1,"translation":[-2.1818181818181817,-0.0,-0.12432012370030093],"rotation":[0.0,0.05805223080949857,0.0,0.9983135471874759],"scale":[0.9022682587203782,1.1979541534086742,1.165497500605042]},{"name":"besenheide_c_part_94_LOD8","mesh":1,"translation":[-2.1818181818181817,-0.0,-0.12432012370030093],"rotation":[0.0,0.05805223080949857,0.0,0.9983135471874759],"scale":[0.9022682587203782,1.1979541534086742,1.165497500605042]},{"name":"besenheide_c_part_95_LOD9","mesh":1,"translation":[-2.1818181818181817,-0.0,-0.12432012370030093],"rotation":[0.0,0.05805223080949857,0.0,0.9983135471874759],"scale":[0.9022682587203782,1.1979541534086742,1.165497500605042]},{"name":"besenheide_c_part_96_LOD10","mesh":1,"translation":[-2.1818181818181817,-0.0,-0.12432012370030093],"rotation":[0.0,0.05805223080949857,0.0,0.9983135471874759],"scale":[0.9022682587203782,1.1979541534086742,1.165497500605042]},{"name":"besenheide_c_part_97_LOD11","mesh":1,"translation":[-2.1818181818181817,-0.0,-0.12432012370030093],"rotation":[0.0,0.05805223080949857,0.0,0.9983135471874759],"scale":[0.9022682587203782,1.1979541534086742,1.165497500605042]},{"name":"besenginster_c_part_98_LOD0","mesh":5,"translation":[-1.6363636363636365,-0.0,0.030476364430768288],"rotation":[0.0,-0.019621219408940106,0.0,0.9998074853435066],"scale":[0.44158070073844385,0.3384360380121284,0.588019727698511]},{"name":"besenginster_c_part_99_LOD1","mesh":5,"translation":[-1.6363636363636365,-0.0,0.030476364430768288],"rotation":[0.0,-0.019621219408940106,0.0,0.9998074853435066],"scale":[0.44158070073844385,0.3384360380121284,0.588019727698511]},{"name":"besenheide_c_part_100_LOD0","mesh":1,"translation":[-1.090909090909091,-0.0,-0.25052258894793966],"rotation":[0.0,0.08532737217512507,0.0,0.9963529693626089],"scale":[0.9022682587203782,1.058201976865533,1.1611020058129427]},{"name":"besenheide_c_part_101_LOD1","mesh":1,"translation":[-1.090909090909091,-0.0,-0.25052258894793966],"rotation":[0.0,0.08532737217512507,0.0,0.9963529693626089],"scale":[0.9022682587203782,1.058201976865533,1.1611020058129427]},{"name":"besenheide_c_part_102_LOD2","mesh":1,"translation":[-1.090909090909091,-0.0,-0.25052258894793966],"rotation":[0.0,0.08532737217512507,0.0,0.9963529693626089],"scale":[0.9022682587203782,1.058201976865533,1.1611020058129427]},{"name":"besenheide_c_part_103_LOD3","mesh":1,"translation":[-1.090909090909091,-0.0,-0.25052258894793966],"rotation":[0.0,0.08532737217512507,0.0,0.9963529693626089],"scale":[0.9022682587203782,1.058201976865533,1.1611020058129427]},{"name":"besenginster_c_part_104_LOD0","mesh":5,"translation":[-0.5454545454545459,-0.0,0.22735807589544327],"rotation":[0.0,-0.01401394213696849,0.0,0.9999017998912602],"scale":[0.44158070073844385,0.34757254681243577,0.6346941899699952]},{"name":"besenginster_c_part_105_LOD1","mesh":5,"translation":[-0.5454545454545459,-0.0,0.22735807589544327],"rotation":[0.0,-0.01401394213696849,0.0,0.9999017998912602],"scale":[0.44158070073844385,0.34757254681243577,0.6346941899699952]},{"name":"besenheide_c_part_106_LOD0","mesh":1,"translation":[0.0,-0.0,0.03870887018143698],"rotation":[0.0,-0.04531634357116369,0.0,0.9989726868164817],"scale":[0.9022682587203782,1.153515999061654,1.3610244630931798]},{"name":"besenheide_c_part_107_LOD1","mesh":1,"translation":[0.0,-0.0,0.03870887018143698],"rotation":[0.0,-0.04531634357116369,0.0,0.9989726868164817],"scale":[0.9022682587203782,1.153515999061654,1.3610244630931798]},{"name":"besenheide_c_part_108_LOD2","mesh":1,"translation":[0.0,-0.0,0.03870887018143698],"rotation":[0.0,-0.04531634357116369,0.0,0.9989726868164817],"scale":[0.9022682587203782,1.153515999061654,1.3610244630931798]},{"name":"besenheide_c_part_109_LOD3","mesh":1,"translation":[0.0,-0.0,0.03870887018143698],"rotation":[0.0,-0.04531634357116369,0.0,0.9989726868164817],"scale":[0.9022682587203782,1.153515999061654,1.3610244630931798]},{"name":"besenheide_c_part_110_LOD4","mesh":1,"translation":[0.0,-0.0,0.03870887018143698],"rotation":[0.0,-0.04531634357116369,0.0,0.9989726868164817],"scale":[0.9022682587203782,1.153515999061654,1.3610244630931798]},{"name":"besenheide_c_part_111_LOD5","mesh":1,"translation":[0.0,-0.0,0.03870887018143698],"rotation":[0.0,-0.04531634357116369,0.0,0.9989726868164817],"scale":[0.9022682587203782,1.153515999061654,1.3610244630931798]},{"name":"besenginster_c_part_112_LOD0","mesh":5,"translation":[0.545454545454545,-0.0,-0.11720771386896045],"rotation":[0.0,0.08117001943012499,0.0,0.9967002698633692],"scale":[0.44158070073844385,0.36456294434415437,0.6241949076535479]},{"name":"besenginster_c_part_113_LOD1","mesh":5,"translation":[0.545454545454545,-0.0,-0.11720771386896045],"rotation":[0.0,0.08117001943012499,0.0,0.9967002698633692],"scale":[0.44158070073844385,0.36456294434415437,0.6241949076535479]},{"name":"besenginster_c_part_114_LOD2","mesh":5,"translation":[0.545454545454545,-0.0,-0.11720771386896045],"rotation":[0.0,0.08117001943012499,0.0,0.9967002698633692],"scale":[0.44158070073844385,0.36456294434415437,0.6241949076535479]},{"name":"besenginster_c_part_115_LOD3","mesh":5,"translation":[0.545454545454545,-0.0,-0.11720771386896045],"rotation":[0.0,0.08117001943012499,0.0,0.9967002698633692],"scale":[0.44158070073844385,0.36456294434415437,0.6241949076535479]},{"name":"besenheide_c_part_116_LOD0","mesh":1,"translation":[1.0909090909090908,-0.0,-0.002579772496372479],"rotation":[0.0,0.08166623933217326,0.0,0.9966597339881551],"scale":[0.9022682587203782,1.2106764850609062,1.2525096327122522]},{"name":"besenheide_c_part_117_LOD1","mesh":1,"translation":[1.0909090909090908,-0.0,-0.002579772496372479],"rotation":[0.0,0.08166623933217326,0.0,0.9966597339881551],"scale":[0.9022682587203782,1.2106764850609062,1.2525096327122522]},{"name":"besenginster_c_part_118_LOD0","mesh":5,"translation":[1.6363636363636358,-0.0,0.13550136028261062],"rotation":[0.0,-0.06201806614885191,0.0,0.9980750269750048],"scale":[0.44158070073844385,0.3610046965430085,0.6105560289565644]},{"name":"besenginster_c_part_119_LOD1","mesh":5,"translation":[1.6363636363636358,-0.0,0.13550136028261062],"rotation":[0.0,-0.06201806614885191,0.0,0.9980750269750048],"scale":[0.44158070073844385,0.3610046965430085,0.6105560289565644]},{"name":"besenheide_c_part_120_LOD0","mesh":1,"translation":[2.1818181818181817,-0.0,0.012559805318499373],"rotation":[0.0,-0.06009134773220651,0.0,0.9981928821263589],"scale":[0.9022682587203782,1.0980186757352535,1.2391399131252931]},{"name":"besenheide_c_part_121_LOD1","mesh":1,"translation":[2.1818181818181817,-0.0,0.012559805318499373],"rotation":[0.0,-0.06009134773220651,0.0,0.9981928821263589],"scale":[0.9022682587203782,1.0980186757352535,1.2391399131252931]},{"name":"besenheide_c_part_122_LOD2","mesh":1,"translation":[2.1818181818181817,-0.0,0.012559805318499373],"rotation":[0.0,-0.06009134773220651,0.0,0.9981928821263589],"scale":[0.9022682587203782,1.0980186757352535,1.2391399131252931]},{"name":"besenheide_c_part_123_LOD3","mesh":1,"translation":[2.1818181818181817,-0.0,0.012559805318499373],"rotation":[0.0,-0.06009134773220651,0.0,0.9981928821263589],"scale":[0.9022682587203782,1.0980186757352535,1.2391399131252931]},{"name":"besenheide_c_part_124_LOD4","mesh":1,"translation":[2.1818181818181817,-0.0,0.012559805318499373],"rotation":[0.0,-0.06009134773220651,0.0,0.9981928821263589],"scale":[0.9022682587203782,1.0980186757352535,1.2391399131252931]},{"name":"besenheide_c_part_125_LOD5","mesh":1,"translation":[2.1818181818181817,-0.0,0.012559805318499373],"rotation":[0.0,-0.06009134773220651,0.0,0.9981928821263589],"scale":[0.9022682587203782,1.0980186757352535,1.2391399131252931]},{"name":"besenheide_c_part_126_LOD6","mesh":1,"translation":[2.1818181818181817,-0.0,0.012559805318499373],"rotation":[0.0,-0.06009134773220651,0.0,0.9981928821263589],"scale":[0.9022682587203782,1.0980186757352535,1.2391399131252931]},{"name":"besenheide_c_part_127_LOD7","mesh":1,"translation":[2.1818181818181817,-0.0,0.012559805318499373],"rotation":[0.0,-0.06009134773220651,0.0,0.9981928821263589],"scale":[0.9022682587203782,1.0980186757352535,1.2391399131252931]},{"name":"besenginster_c_part_128_LOD0","mesh":5,"translation":[2.7272727272727266,-0.0,-0.024962906087628217],"rotation":[0.0,0.06410108425100552,0.0,0.9979434107191878],"scale":[0.44158070073844385,0.3477294374579971,0.6837382730646432]},{"name":"besenginster_c_part_129_LOD1","mesh":5,"translation":[2.7272727272727266,-0.0,-0.024962906087628217],"rotation":[0.0,0.06410108425100552,0.0,0.9979434107191878],"scale":[0.44158070073844385,0.3477294374579971,0.6837382730646432]},{"name":"besenginster_c_part_130_LOD2","mesh":5,"translation":[2.7272727272727266,-0.0,-0.024962906087628217],"rotation":[0.0,0.06410108425100552,0.0,0.9979434107191878],"scale":[0.44158070073844385,0.3477294374579971,0.6837382730646432]},{"name":"besenginster_c_part_131_LOD3","mesh":5,"translation":[2.7272727272727266,-0.0,-0.024962906087628217],"rotation":[0.0,0.06410108425100552,0.0,0.9979434107191878],"scale":[0.44158070073844385,0.3477294374579971,0.6837382730646432]},{"name":"besenginster_c_part_132_LOD4","mesh":5,"translation":[2.7272727272727266,-0.0,-0.024962906087628217],"rotation":[0.0,0.06410108425100552,0.0,0.9979434107191878],"scale":[0.44158070073844385,0.3477294374579971,0.6837382730646432]},{"name":"besenginster_c_part_133_LOD5","mesh":5,"translation":[2.7272727272727266,-0.0,-0.024962906087628217],"rotation":[0.0,0.06410108425100552,0.0,0.9979434107191878],"scale":[0.44158070073844385,0.3477294374579971,0.6837382730646432]},{"name":"besenginster_c_part_134_LOD6","mesh":5,"translation":[2.7272727272727266,-0.0,-0.024962906087628217],"rotation":[0.0,0.06410108425100552,0.0,0.9979434107191878],"scale":[0.44158070073844385,0.3477294374579971,0.6837382730646432]},{"name":"besenginster_c_part_135_LOD7","mesh":5,"translation":[2.7272727272727266,-0.0,-0.024962906087628217],"rotation":[0.0,0.06410108425100552,0.0,0.9979434107191878],"scale":[0.44158070073844385,0.3477294374579971,0.6837382730646432]},{"name":"besenginster_c_part_136_LOD8","mesh":5,"translation":[2.7272727272727266,-0.0,-0.024962906087628217],"rotation":[0.0,0.06410108425100552,0.0,0.9979434107191878],"scale":[0.44158070073844385,0.3477294374579971,0.6837382730646432]},{"name":"besenginster_c_part_137_LOD9","mesh":5,"translation":[2.7272727272727266,-0.0,-0.024962906087628217],"rotation":[0.0,0.06410108425100552,0.0,0.9979434107191878],"scale":[0.44158070073844385,0.3477294374579971,0.6837382730646432]},{"name":"besenginster_c_part_138_LOD10","mesh":5,"translation":[2.7272727272727266,-0.0,-0.024962906087628217],"rotation":[0.0,0.06410108425100552,0.0,0.9979434107191878],"scale":[0.44158070073844385,0.3477294374579971,0.6837382730646432]},{"name":"leaf_volume_LOD0","mesh":8},{"name":"leaf_volume_LOD1","mesh":9},{"name":"leaf_volume_LOD2","mesh":10},{"name":"leaf_volume_LOD3","mesh":11},{"name":"leaf_volume_LOD4","mesh":12},{"name":"leaf_volume_LOD5","mesh":13},{"name":"leaf_volume_LOD6","mesh":14},{"name":"leaf_volume_LOD7","mesh":15},{"name":"leaf_volume_LOD8","mesh":16},{"name":"leaf_volume_LOD9","mesh":17},{"name":"leaf_volume_LOD10","mesh":18},{"name":"leaf_volume_LOD11","mesh":19}],"meshes":[{"name":"besenheide_c_crown_LOD0","primitives":[{"attributes":{"POSITION":0,"NORMAL":1,"TEXCOORD_0":2},"indices":3,"material":1}]},{"name":"besenheide_c_crown_LOD1","primitives":[{"attributes":{"POSITION":4,"NORMAL":5,"TEXCOORD_0":6},"indices":7,"material":1}]},{"name":"besenheide_c_crown_LOD2","primitives":[{"attributes":{"POSITION":8,"NORMAL":9,"TEXCOORD_0":10},"indices":11,"material":2}]},{"name":"besenheide_c_crown_LOD3","primitives":[{"attributes":{"POSITION":12,"NORMAL":13,"TEXCOORD_0":14},"indices":15,"material":2}]},{"name":"besenginster_c_crown_LOD0","primitives":[{"attributes":{"POSITION":16,"NORMAL":17,"TEXCOORD_0":18},"indices":19,"material":4}]},{"name":"besenginster_c_crown_LOD1","primitives":[{"attributes":{"POSITION":20,"NORMAL":21,"TEXCOORD_0":22},"indices":23,"material":4}]},{"name":"besenginster_c_crown_LOD2","primitives":[{"attributes":{"POSITION":24,"NORMAL":25,"TEXCOORD_0":26},"indices":27,"material":5}]},{"name":"besenginster_c_crown_LOD3","primitives":[{"attributes":{"POSITION":28,"NORMAL":29,"TEXCOORD_0":30},"indices":31,"material":5}]},{"name":"immergruene_hecke_leaf_volume_LOD0","primitives":[{"attributes":{"POSITION":32,"NORMAL":33,"TEXCOORD_0":34},"indices":35,"material":6}]},{"name":"immergruene_hecke_leaf_volume_LOD1","primitives":[{"attributes":{"POSITION":36,"NORMAL":37,"TEXCOORD_0":38},"indices":39,"material":7}]},{"name":"immergruene_hecke_leaf_volume_LOD2","primitives":[{"attributes":{"POSITION":40,"NORMAL":41,"TEXCOORD_0":42},"indices":43,"material":8}]},{"name":"immergruene_hecke_leaf_volume_LOD3","primitives":[{"attributes":{"POSITION":44,"NORMAL":45,"TEXCOORD_0":46},"indices":47,"material":9}]},{"name":"immergruene_hecke_leaf_volume_LOD4","primitives":[{"attributes":{"POSITION":48,"NORMAL":49,"TEXCOORD_0":50},"indices":51,"material":10}]},{"name":"immergruene_hecke_leaf_volume_LOD5","primitives":[{"attributes":{"POSITION":52,"NORMAL":53,"TEXCOORD_0":54},"indices":55,"material":11}]},{"name":"immergruene_hecke_leaf_volume_LOD6","primitives":[{"attributes":{"POSITION":56,"NORMAL":57,"TEXCOORD_0":58},"indices":59,"material":12}]},{"name":"immergruene_hecke_leaf_volume_LOD7","primitives":[{"attributes":{"POSITION":60,"NORMAL":61,"TEXCOORD_0":62},"indices":63,"material":13}]},{"name":"immergruene_hecke_leaf_volume_LOD8","primitives":[{"attributes":{"POSITION":64,"NORMAL":65,"TEXCOORD_0":66},"indices":67,"material":14}]},{"name":"immergruene_hecke_leaf_volume_LOD9","primitives":[{"attributes":{"POSITION":68,"NORMAL":69,"TEXCOORD_0":70},"indices":71,"material":15}]},{"name":"immergruene_hecke_leaf_volume_LOD10","primitives":[{"attributes":{"POSITION":72,"NORMAL":73,"TEXCOORD_0":74},"indices":75,"material":16}]},{"name":"immergruene_hecke_leaf_volume_LOD11","primitives":[{"attributes":{"POSITION":76,"NORMAL":77,"TEXCOORD_0":78},"indices":79,"material":17}]}],"buffers":[{"uri":"besenheide_c.bin","byteLength":302156},{"uri":"besenginster_c.bin","byteLength":302476},{"uri":"immergruene_hecke_a_hedge.bin","byteLength":8841000}],"bufferViews":[{"buffer":0,"byteOffset":0,"byteLength":63084,"target":34962},{"buffer":0,"byteOffset":63084,"byteLength":63084,"target":34962},{"buffer":0,"byteOffset":126168,"byteLength":42056,"target":34962},{"buffer":0,"byteOffset":168224,"byteLength":25224,"target":34963},{"buffer":0,"byteOffset":193448,"byteLength":35316,"target":34962},{"buffer":0,"byteOffset":228764,"byteLength":35316,"target":34962},{"buffer":0,"byteOffset":264080,"byteLength":23544,"target":34962},{"buffer":0,"byteOffset":287624,"byteLength":13692,"target":34963},{"buffer":0,"byteOffset":301316,"byteLength":192,"target":34962},{"buffer":0,"byteOffset":301508,"byteLength":192,"target":34962},{"buffer":0,"byteOffset":301700,"byteLength":128,"target":34962},{"buffer":0,"byteOffset":301828,"byteLength":48,"target":34963},{"buffer":0,"byteOffset":301876,"byteLength":96,"target":34962},{"buffer":0,"byteOffset":301972,"byteLength":96,"target":34962},{"buffer":0,"byteOffset":302068,"byteLength":64,"target":34962},{"buffer":0,"byteOffset":302132,"byteLength":24,"target":34963},{"buffer":1,"byteOffset":0,"byteLength":63204,"target":34962},{"buffer":1,"byteOffset":63204,"byteLength":63204,"target":34962},{"buffer":1,"byteOffset":126408,"byteLength":42136,"target":34962},{"buffer":1,"byteOffset":168544,"byteLength":25224,"target":34963},{"buffer":1,"byteOffset":193768,"byteLength":35316,"target":34962},{"buffer":1,"byteOffset":229084,"byteLength":35316,"target":34962},{"buffer":1,"byteOffset":264400,"byteLength":23544,"target":34962},{"buffer":1,"byteOffset":287944,"byteLength":13692,"target":34963},{"buffer":1,"byteOffset":301636,"byteLength":192,"target":34962},{"buffer":1,"byteOffset":301828,"byteLength":192,"target":34962},{"buffer":1,"byteOffset":302020,"byteLength":128,"target":34962},{"buffer":1,"byteOffset":302148,"byteLength":48,"target":34963},{"buffer":1,"byteOffset":302196,"byteLength":96,"target":34962},{"buffer":1,"byteOffset":302292,"byteLength":96,"target":34962},{"buffer":1,"byteOffset":302388,"byteLength":64,"target":34962},{"buffer":1,"byteOffset":302452,"byteLength":24,"target":34963},{"buffer":2,"byteOffset":0,"byteLength":345600,"target":34962},{"buffer":2,"byteOffset":345600,"byteLength":345600,"target":34962},{"buffer":2,"byteOffset":691200,"byteLength":230400,"target":34962},{"buffer":2,"byteOffset":921600,"byteLength":86400,"target":34963},{"buffer":2,"byteOffset":1008000,"byteLength":268800,"target":34962},{"buffer":2,"byteOffset":1276800,"byteLength":268800,"target":34962},{"buffer":2,"byteOffset":1545600,"byteLength":179200,"target":34962},{"buffer":2,"byteOffset":1724800,"byteLength":67200,"target":34963},{"buffer":2,"byteOffset":1792000,"byteLength":264000,"target":34962},{"buffer":2,"byteOffset":2056000,"byteLength":264000,"target":34962},{"buffer":2,"byteOffset":2320000,"byteLength":176000,"target":34962},{"buffer":2,"byteOffset":2496000,"byteLength":66000,"target":34963},{"buffer":2,"byteOffset":2562000,"byteLength":259200,"target":34962},{"buffer":2,"byteOffset":2821200,"byteLength":259200,"target":34962},{"buffer":2,"byteOffset":3080400,"byteLength":172800,"target":34962},{"buffer":2,"byteOffset":3253200,"byteLength":64800,"target":34963},{"buffer":2,"byteOffset":3318000,"byteLength":254400,"target":34962},{"buffer":2,"byteOffset":3572400,"byteLength":254400,"target":34962},{"buffer":2,"byteOffset":3826800,"byteLength":169600,"target":34962},{"buffer":2,"byteOffset":3996400,"byteLength":63600,"target":34963},{"buffer":2,"byteOffset":4060000,"byteLength":249600,"target":34962},{"buffer":2,"byteOffset":4309600,"byteLength":249600,"target":34962},{"buffer":2,"byteOffset":4559200,"byteLength":166400,"target":34962},{"buffer":2,"byteOffset":4725600,"byteLength":62400,"target":34963},{"buffer":2,"byteOffset":4788000,"byteLength":244800,"target":34962},{"buffer":2,"byteOffset":5032800,"byteLength":244800,"target":34962},{"buffer":2,"byteOffset":5277600,"byteLength":163200,"target":34962},{"buffer":2,"byteOffset":5440800,"byteLength":61200,"target":34963},{"buffer":2,"byteOffset":5502000,"byteLength":240000,"target":34962},{"buffer":2,"byteOffset":5742000,"byteLength":240000,"target":34962},{"buffer":2,"byteOffset":5982000,"byteLength":160000,"target":34962},{"buffer":2,"byteOffset":6142000,"byteLength":60000,"target":34963},{"buffer":2,"byteOffset":6202000,"byteLength":235200,"target":34962},{"buffer":2,"byteOffset":6437200,"byteLength":235200,"target":34962},{"buffer":2,"byteOffset":6672400,"byteLength":156800,"target":34962},{"buffer":2,"byteOffset":6829200,"byteLength":58800,"target":34963},{"buffer":2,"byteOffset":6888000,"byteLength":230400,"target":34962},{"buffer":2,"byteOffset":7118400,"byteLength":230400,"target":34962},{"buffer":2,"byteOffset":7348800,"byteLength":153600,"target":34962},{"buffer":2,"byteOffset":7502400,"byteLength":57600,"target":34963},{"buffer":2,"byteOffset":7560000,"byteLength":223200,"target":34962},{"buffer":2,"byteOffset":7783200,"byteLength":223200,"target":34962},{"buffer":2,"byteOffset":8006400,"byteLength":148800,"target":34962},{"buffer":2,"byteOffset":8155200,"byteLength":55800,"target":34963},{"buffer":2,"byteOffset":8211000,"byteLength":216000,"target":34962},{"buffer":2,"byteOffset":8427000,"byteLength":216000,"target":34962},{"buffer":2,"byteOffset":8643000,"byteLength":144000,"target":34962},{"buffer":2,"byteOffset":8787000,"byteLength":54000,"target":34963}],"accessors":[{"bufferView":0,"componentType":5126,"count":5257,"type":"VEC3","min":[-0.4685161742548677,0.0,-0.52],"max":[0.4685161742548677,0.8,0.52]},{"bufferView":1,"componentType":5126,"count":5257,"type":"VEC3","min":[-0.9998656511306763,-0.9999790787696838,-0.9997736215591431],"max":[0.9992249608039856,0.9999279975891113,0.9995540380477905]},{"bufferView":2,"componentType":5126,"count":5257,"type":"VEC2"},{"bufferView":3,"componentType":5123,"count":12612,"type":"SCALAR","min":[0],"max":[5256]},{"bufferView":4,"componentType":5126,"count":2943,"type":"VEC3","min":[-0.4918410478704211,0.0016328996691503904,-0.5422162583638716],"max":[0.48616168018024725,0.8181038044843748,0.5269382908575709]},{"bufferView":5,"componentType":5126,"count":2943,"type":"VEC3","min":[-0.9998657703399658,-0.9999790787696838,-0.9994456768035889],"max":[0.9996488690376282,0.9999279975891113,0.9995540380477905]},{"bufferView":6,"componentType":5126,"count":2943,"type":"VEC2"},{"bufferView":7,"componentType":5123,"count":6846,"type":"SCALAR","min":[0],"max":[2942]},{"bufferView":8,"componentType":5126,"count":16,"type":"VEC3","min":[-0.5720000000000001,0,-0.5720000000000001],"max":[0.5720000000000001,0.8,0.5720000000000001]},{"bufferView":9,"componentType":5126,"count":16,"type":"VEC3","min":[-1.0,0,-0.7071067811865475],"max":[-0.0,0,1.0]},{"bufferView":10,"componentType":5126,"count":16,"type":"VEC2"},{"bufferView":11,"componentType":5123,"count":24,"type":"SCALAR","min":[0],"max":[15]},{"bufferView":12,"componentType":5126,"count":8,"type":"VEC3","min":[-0.5720000000000001,0,-0.5720000000000001],"max":[0.5720000000000001,0.8,0.5720000000000001]},{"bufferView":13,"componentType":5126,"count":8,"type":"VEC3","min":[-1.0,0,6.123233995736766e-17],"max":[-0.0,0,1.0]},{"bufferView":14,"componentType":5126,"count":8,"type":"VEC2"},{"bufferView":15,"componentType":5123,"count":12,"type":"SCALAR","min":[0],"max":[7]},{"bufferView":16,"componentType":5126,"count":5267,"type":"VEC3","min":[-0.9573046829726864,0.0,-1.0625],"max":[0.9573046829726864,2.5,1.0625]},{"bufferView":17,"componentType":5126,"count":5267,"type":"VEC3","min":[-0.999940037727356,-0.9999510645866394,-0.9999029636383057],"max":[0.9992337226867676,0.9998316764831543,0.9995586276054382]},{"bufferView":18,"componentType":5126,"count":5267,"type":"VEC2"},{"bufferView":19,"componentType":5123,"count":12612,"type":"SCALAR","min":[0],"max":[5266]},{"bufferView":20,"componentType":5126,"count":2943,"type":"VEC3","min":[-1.0049636795429278,0.0051028114660949695,-1.1078937971377183],"max":[0.9933592022913708,2.556574389013671,1.0766767962234023]},{"bufferView":21,"componentType":5126,"count":2943,"type":"VEC3","min":[-0.999940037727356,-0.9999510645866394,-0.9997138381004333],"max":[0.9996574521064758,0.9998316764831543,0.9995586276054382]},{"bufferView":22,"componentType":5126,"count":2943,"type":"VEC2"},{"bufferView":23,"componentType":5123,"count":6846,"type":"SCALAR","min":[0],"max":[2942]},{"bufferView":24,"componentType":5126,"count":16,"type":"VEC3","min":[-1.1687500000000002,0,-1.1687500000000002],"max":[1.1687500000000002,2.5,1.1687500000000002]},{"bufferView":25,"componentType":5126,"count":16,"type":"VEC3","min":[-1.0,0,-0.7071067811865475],"max":[-0.0,0,1.0]},{"bufferView":26,"componentType":5126,"count":16,"type":"VEC2"},{"bufferView":27,"componentType":5123,"count":24,"type":"SCALAR","min":[0],"max":[15]},{"bufferView":28,"componentType":5126,"count":8,"type":"VEC3","min":[-1.1687500000000002,0,-1.1687500000000002],"max":[1.1687500000000002,2.5,1.1687500000000002]},{"bufferView":29,"componentType":5126,"count":8,"type":"VEC3","min":[-1.0,0,6.123233995736766e-17],"max":[-0.0,0,1.0]},{"bufferView":30,"componentType":5126,"count":8,"type":"VEC2"},{"bufferView":31,"componentType":5123,"count":12,"type":"SCALAR","min":[0],"max":[7]},{"bufferView":32,"componentType":5126,"count":28800,"type":"VEC3","min":[-3.1104012239794128,0.02250287099285292,-0.7720173292587091],"max":[3.1184379950438634,1.4573053639460685,0.78387238215135]},{"bufferView":33,"componentType":5126,"count":28800,"type":"VEC3","min":[-1.0,-0.14976920414224437,-1.0],"max":[1.0,1.0,1.0]},{"bufferView":34,"componentType":5126,"count":28800,"type":"VEC2"},{"bufferView":35,"componentType":5123,"count":43200,"type":"SCALAR","min":[0],"max":[28799]},{"bufferView":36,"componentType":5126,"count":22400,"type":"VEC3","min":[-3.2269265489078665,-0.052626290557992256,-0.8948489766841028],"max":[3.2229453887264796,1.5143558028608175,0.8844518761640208]},{"bufferView":37,"componentType":5126,"count":22400,"type":"VEC3","min":[-1.0,-0.1499896656829712,-1.0],"max":[1.0,1.0,1.0]},{"bufferView":38,"componentType":5126,"count":22400,"type":"VEC2"},{"bufferView":39,"componentType":5123,"count":33600,"type":"SCALAR","min":[0],"max":[22399]},{"bufferView":40,"componentType":5126,"count":22000,"type":"VEC3","min":[-3.315201731372143,-0.11513906645683113,-0.9831572477133865],"max":[3.3191118610864456,1.571441568972041,0.9945453492637784]},{"bufferView":41,"componentType":5126,"count":22000,"type":"VEC3","min":[-1.0,-0.149894621859415,-1.0],"max":[1.0,1.0,1.0]},{"bufferView":42,"componentType":5126,"count":22000,"type":"VEC2"},{"bufferView":43,"componentType":5123,"count":33000,"type":"SCALAR","min":[0],"max":[21999]},{"bufferView":44,"componentType":5126,"count":21600,"type":"VEC3","min":[-3.425178799111591,-0.18523144591330915,-1.0697555458452648],"max":[3.4155470932845686,1.6345551586911795,1.0732177174185389]},{"bufferView":45,"componentType":5126,"count":21600,"type":"VEC3","min":[-1.0,-0.14980343323211645,-1.0],"max":[1.0,1.0,1.0]},{"bufferView":46,"componentType":5126,"count":21600,"type":"VEC2"},{"bufferView":47,"componentType":5123,"count":32400,"type":"SCALAR","min":[0],"max":[21599]},{"bufferView":48,"componentType":5126,"count":21200,"type":"VEC3","min":[-3.5406974849285104,-0.24286253688840936,-1.2409812732253394],"max":[3.5678130388855553,1.751016044713578,1.2066331448333467]},{"bufferView":49,"componentType":5126,"count":21200,"type":"VEC3","min":[-1.0,-0.14991716297410326,-1.0],"max":[1.0,1.0,1.0]},{"bufferView":50,"componentType":5126,"count":21200,"type":"VEC2"},{"bufferView":51,"componentType":5123,"count":31800,"type":"SCALAR","min":[0],"max":[21199]},{"bufferView":52,"componentType":5126,"count":20800,"type":"VEC3","min":[-3.737769194320354,-0.3895946782233892,-1.3996659207243165],"max":[3.683664445737594,1.8881028451060562,1.3861520042097082]},{"bufferView":53,"componentType":5126,"count":20800,"type":"VEC3","min":[-1.0,-0.14996911725245268,-1.0],"max":[1.0,1.0,1.0]},{"bufferView":54,"componentType":5126,"count":20800,"type":"VEC2"},{"bufferView":55,"componentType":5123,"count":31200,"type":"SCALAR","min":[0],"max":[20799]},{"bufferView":56,"componentType":5126,"count":20400,"type":"VEC3","min":[-3.948108489887984,-0.5638898202351764,-1.6423785825592159],"max":[3.9372751470556304,2.012986886886025,1.6165420428398898]},{"bufferView":57,"componentType":5126,"count":20400,"type":"VEC3","min":[-1.0,-0.14994778172609002,-1.0],"max":[1.0,1.0,1.0]},{"bufferView":58,"componentType":5126,"count":20400,"type":"VEC2"},{"bufferView":59,"componentType":5123,"count":30600,"type":"SCALAR","min":[0],"max":[20399]},{"bufferView":60,"componentType":5126,"count":20000,"type":"VEC3","min":[-4.2264382902472235,-0.749687435709792,-1.8610149338532147],"max":[4.166513119814365,2.1955011165833556,1.8930691972501281]},{"bufferView":61,"componentType":5126,"count":20000,"type":"VEC3","min":[-1.0,-0.14999893054099023,-1.0],"max":[1.0,1.0,1.0]},{"bufferView":62,"componentType":5126,"count":20000,"type":"VEC2"},{"bufferView":63,"componentType":5123,"count":30000,"type":"SCALAR","min":[0],"max":[19999]},{"bufferView":64,"componentType":5126,"count":19600,"type":"VEC3","min":[-4.521099867584818,-0.9323979358882512,-2.152862965529205],"max":[4.526877161057411,2.4037060759229534,2.1596350703013902]},{"bufferView":65,"componentType":5126,"count":19600,"type":"VEC3","min":[-1.0,-0.14988406224490577,-1.0],"max":[1.0,1.0,1.0]},{"bufferView":66,"componentType":5126,"count":19600,"type":"VEC2"},{"bufferView":67,"componentType":5123,"count":29400,"type":"SCALAR","min":[0],"max":[19599]},{"bufferView":68,"componentType":5126,"count":19200,"type":"VEC3","min":[-4.782645975554484,-1.1598966275627083,-2.3980727714591805],"max":[4.8319382865201055,2.6137180070787758,2.4519294497177473]},{"bufferView":69,"componentType":5126,"count":19200,"type":"VEC3","min":[-1.0,-0.14993962029538208,-1.0],"max":[1.0,1.0,1.0]},{"bufferView":70,"componentType":5126,"count":19200,"type":"VEC2"},{"bufferView":71,"componentType":5123,"count":28800,"type":"SCALAR","min":[0],"max":[19199]},{"bufferView":72,"componentType":5126,"count":18600,"type":"VEC3","min":[-5.166399369404738,-1.4232465063930482,-2.7908902960968036],"max":[5.15739242041682,2.8881714215419647,2.8128802746207375]},{"bufferView":73,"componentType":5126,"count":18600,"type":"VEC3","min":[-1.0,-0.14991971526988726,-1.0],"max":[1.0,1.0,1.0]},{"bufferView":74,"componentType":5126,"count":18600,"type":"VEC2"},{"bufferView":75,"componentType":5123,"count":27900,"type":"SCALAR","min":[0],"max":[18599]},{"bufferView":76,"componentType":5126,"count":18000,"type":"VEC3","min":[-5.572076646619407,-1.7046437190314632,-3.215966521440656],"max":[5.538775224423237,3.1814770105181904,3.2562113309575222]},{"bufferView":77,"componentType":5126,"count":18000,"type":"VEC3","min":[-1.0,-0.14977882735027043,-1.0],"max":[1.0,1.0,1.0]},{"bufferView":78,"componentType":5126,"count":18000,"type":"VEC2"},{"bufferView":79,"componentType":5123,"count":27000,"type":"SCALAR","min":[0],"max":[17999]}],"images":[{"uri":"textures/poly_wild_rooibos_bush.png"},{"uri":"textures/poly_wild_rooibos_bush.png"},{"uri":"impostors/besenheide_c_winter.png"},{"uri":"textures/poly_wild_rooibos_bush.png"},{"uri":"textures/poly_wild_rooibos_bush.png"},{"uri":"impostors/besenginster_c_winter.png"},{"uri":"textures/poly_searsia_lucida.png"}],"samplers":[{"magFilter":9729,"minFilter":9987,"wrapS":10497,"wrapT":10497},{"magFilter":9729,"minFilter":9987,"wrapS":10497,"wrapT":10497},{"magFilter":9729,"minFilter":9987,"wrapS":10497,"wrapT":10497}],"textures":[{"source":0,"sampler":0},{"source":1,"sampler":0},{"source":2,"sampler":0},{"source":3,"sampler":1},{"source":4,"sampler":1},{"source":5,"sampler":1},{"source":6,"sampler":2}],"materials":[{"name":"besenheide_c_bark","pbrMetallicRoughness":{"baseColorFactor":[0.82,0.82,0.82,1.0],"baseColorTexture":{"index":0},"metallicFactor":0.0,"roughnessFactor":0.91},"doubleSided":false},{"name":"besenheide_c_foliage","pbrMetallicRoughness":{"baseColorFactor":[0.6835098039215687,1.0,0.8595098039215687,1.0],"baseColorTexture":{"index":1},"metallicFactor":0.0,"roughnessFactor":0.78},"doubleSided":true,"alphaMode":"MASK","alphaCutoff":0.18},{"name":"besenheide_c_whole_tree_impostor","pbrMetallicRoughness":{"baseColorFactor":[1,1,1,1],"baseColorTexture":{"index":2},"metallicFactor":0.0,"roughnessFactor":0.92},"doubleSided":true,"alphaMode":"MASK","alphaCutoff":0.18},{"name":"besenginster_c_bark","pbrMetallicRoughness":{"baseColorFactor":[0.82,0.82,0.82,1.0],"baseColorTexture":{"index":3},"metallicFactor":0.0,"roughnessFactor":0.91},"doubleSided":false},{"name":"besenginster_c_foliage","pbrMetallicRoughness":{"baseColorFactor":[0.6386470588235295,1.0,0.8146470588235295,1.0],"baseColorTexture":{"index":4},"metallicFactor":0.0,"roughnessFactor":0.78},"doubleSided":true,"alphaMode":"MASK","alphaCutoff":0.18},{"name":"besenginster_c_whole_tree_impostor","pbrMetallicRoughness":{"baseColorFactor":[1,1,1,1],"baseColorTexture":{"index":5},"metallicFactor":0.0,"roughnessFactor":0.92},"doubleSided":true,"alphaMode":"MASK","alphaCutoff":0.18},{"name":"immergruene_hecke_individual_leaves_LOD0","pbrMetallicRoughness":{"baseColorFactor":[0.5,0.82,0.56,1.0],"baseColorTexture":{"index":6},"metallicFactor":0.0,"roughnessFactor":0.82},"doubleSided":true,"alphaMode":"MASK","alphaCutoff":0.18},{"name":"immergruene_hecke_individual_leaves_LOD1","pbrMetallicRoughness":{"baseColorFactor":[0.5,0.82,0.56,1.0],"baseColorTexture":{"index":6},"metallicFactor":0.0,"roughnessFactor":0.82},"doubleSided":true,"alphaMode":"MASK","alphaCutoff":0.08},{"name":"immergruene_hecke_individual_leaves_LOD2","pbrMetallicRoughness":{"baseColorFactor":[0.5,0.82,0.56,1.0],"baseColorTexture":{"index":6},"metallicFactor":0.0,"roughnessFactor":0.82},"doubleSided":true,"alphaMode":"MASK","alphaCutoff":0.065},{"name":"immergruene_hecke_individual_leaves_LOD3","pbrMetallicRoughness":{"baseColorFactor":[0.5,0.82,0.56,1.0],"baseColorTexture":{"index":6},"metallicFactor":0.0,"roughnessFactor":0.82},"doubleSided":true,"alphaMode":"MASK","alphaCutoff":0.055},{"name":"immergruene_hecke_individual_leaves_LOD4","pbrMetallicRoughness":{"baseColorFactor":[0.5,0.82,0.56,1.0],"baseColorTexture":{"index":6},"metallicFactor":0.0,"roughnessFactor":0.82},"doubleSided":true,"alphaMode":"MASK","alphaCutoff":0.045},{"name":"immergruene_hecke_individual_leaves_LOD5","pbrMetallicRoughness":{"baseColorFactor":[0.5,0.82,0.56,1.0],"baseColorTexture":{"index":6},"metallicFactor":0.0,"roughnessFactor":0.82},"doubleSided":true,"alphaMode":"MASK","alphaCutoff":0.038},{"name":"immergruene_hecke_individual_leaves_LOD6","pbrMetallicRoughness":{"baseColorFactor":[0.5,0.82,0.56,1.0],"baseColorTexture":{"index":6},"metallicFactor":0.0,"roughnessFactor":0.82},"doubleSided":true,"alphaMode":"MASK","alphaCutoff":0.032},{"name":"immergruene_hecke_individual_leaves_LOD7","pbrMetallicRoughness":{"baseColorFactor":[0.5,0.82,0.56,1.0],"baseColorTexture":{"index":6},"metallicFactor":0.0,"roughnessFactor":0.82},"doubleSided":true,"alphaMode":"MASK","alphaCutoff":0.027},{"name":"immergruene_hecke_individual_leaves_LOD8","pbrMetallicRoughness":{"baseColorFactor":[0.5,0.82,0.56,1.0],"baseColorTexture":{"index":6},"metallicFactor":0.0,"roughnessFactor":0.82},"doubleSided":true,"alphaMode":"MASK","alphaCutoff":0.023},{"name":"immergruene_hecke_individual_leaves_LOD9","pbrMetallicRoughness":{"baseColorFactor":[0.5,0.82,0.56,1.0],"baseColorTexture":{"index":6},"metallicFactor":0.0,"roughnessFactor":0.82},"doubleSided":true,"alphaMode":"MASK","alphaCutoff":0.02},{"name":"immergruene_hecke_individual_leaves_LOD10","pbrMetallicRoughness":{"baseColorFactor":[0.5,0.82,0.56,1.0],"baseColorTexture":{"index":6},"metallicFactor":0.0,"roughnessFactor":0.82},"doubleSided":true,"alphaMode":"MASK","alphaCutoff":0.017},{"name":"immergruene_hecke_individual_leaves_LOD11","pbrMetallicRoughness":{"baseColorFactor":[0.5,0.82,0.56,1.0],"baseColorTexture":{"index":6},"metallicFactor":0.0,"roughnessFactor":0.82},"doubleSided":true,"alphaMode":"MASK","alphaCutoff":0.015}]}