{"asset":{"version":"2.0","generator":"Connected Rails CC0 tree importer","copyright":"Mantissa and Poly Haven source models: CC0 1.0; optimisation: Connected Rails"},"scene":0,"scenes":[{"nodes":[0,1,2,3]}],"nodes":[{"name":"crown_LOD0","mesh":0},{"name":"crown_LOD1","mesh":1},{"name":"crown_LOD2","mesh":2},{"name":"crown_LOD3","mesh":3}],"meshes":[{"name":"crown_LOD0","primitives":[{"attributes":{"POSITION":0,"NORMAL":1,"TEXCOORD_0":2},"indices":3,"material":1}]},{"name":"crown_LOD1","primitives":[{"attributes":{"POSITION":4,"NORMAL":5,"TEXCOORD_0":6},"indices":7,"material":1}]},{"name":"crown_LOD2","primitives":[{"attributes":{"POSITION":8,"NORMAL":9,"TEXCOORD_0":10},"indices":11,"material":2}]},{"name":"crown_LOD3","primitives":[{"attributes":{"POSITION":12,"NORMAL":13,"TEXCOORD_0":14},"indices":15,"material":2}]}],"buffers":[{"uri":"immergruen_a.bin","byteLength":440256}],"bufferViews":[{"buffer":0,"byteOffset":0,"byteLength":106656,"target":34962},{"buffer":0,"byteOffset":106656,"byteLength":106656,"target":34962},{"buffer":0,"byteOffset":213312,"byteLength":71104,"target":34962},{"buffer":0,"byteOffset":284416,"byteLength":67512,"target":34963},{"buffer":0,"byteOffset":351928,"byteLength":26976,"target":34962},{"buffer":0,"byteOffset":378904,"byteLength":26976,"target":34962},{"buffer":0,"byteOffset":405880,"byteLength":17984,"target":34962},{"buffer":0,"byteOffset":423864,"byteLength":15552,"target":34963},{"buffer":0,"byteOffset":439416,"byteLength":192,"target":34962},{"buffer":0,"byteOffset":439608,"byteLength":192,"target":34962},{"buffer":0,"byteOffset":439800,"byteLength":128,"target":34962},{"buffer":0,"byteOffset":439928,"byteLength":48,"target":34963},{"buffer":0,"byteOffset":439976,"byteLength":96,"target":34962},{"buffer":0,"byteOffset":440072,"byteLength":96,"target":34962},{"buffer":0,"byteOffset":440168,"byteLength":64,"target":34962},{"buffer":0,"byteOffset":440232,"byteLength":24,"target":34963}],"accessors":[{"bufferView":0,"componentType":5126,"count":8888,"type":"VEC3","min":[-0.09145795492403365,2.9918489407135447e-05,-0.11249999999999999],"max":[0.09145795492403365,0.15,0.11249999999999999]},{"bufferView":1,"componentType":5126,"count":8888,"type":"VEC3","min":[-0.9996942281723022,-0.9978311657905579,-0.9998562335968018],"max":[0.9989802837371826,0.9999942779541016,0.9999595284461975]},{"bufferView":2,"componentType":5126,"count":8888,"type":"VEC2"},{"bufferView":3,"componentType":5123,"count":33756,"type":"SCALAR","min":[0],"max":[8887]},{"bufferView":4,"componentType":5126,"count":2248,"type":"VEC3","min":[-0.09145795492403365,2.1213073381173447e-05,-0.11249999999999999],"max":[0.09145795492403365,0.15005408147871022,0.11249999999999999]},{"bufferView":5,"componentType":5126,"count":2248,"type":"VEC3","min":[-0.9998204112052917,-0.9982883930206299,-0.9994268417358398],"max":[0.9990924000740051,0.9999868273735046,0.9999069571495056]},{"bufferView":6,"componentType":5126,"count":2248,"type":"VEC2"},{"bufferView":7,"componentType":5123,"count":7776,"type":"SCALAR","min":[0],"max":[2247]},{"bufferView":8,"componentType":5126,"count":16,"type":"VEC3","min":[-0.12375,0,-0.12375],"max":[0.12375,0.15,0.12375]},{"bufferView":9,"componentType":5126,"count":16,"type":"VEC3","min":[-1.0,0,-0.7071067811865475],"max":[-0.0,0,1.0]},{"bufferView":10,"componentType":5126,"count":16,"type":"VEC2"},{"bufferView":11,"componentType":5123,"count":24,"type":"SCALAR","min":[0],"max":[15]},{"bufferView":12,"componentType":5126,"count":8,"type":"VEC3","min":[-0.12375,0,-0.12375],"max":[0.12375,0.15,0.12375]},{"bufferView":13,"componentType":5126,"count":8,"type":"VEC3","min":[-1.0,0,6.123233995736766e-17],"max":[-0.0,0,1.0]},{"bufferView":14,"componentType":5126,"count":8,"type":"VEC2"},{"bufferView":15,"componentType":5123,"count":12,"type":"SCALAR","min":[0],"max":[7]}],"samplers":[{"magFilter":9729,"minFilter":9987,"wrapS":10497,"wrapT":10497}],"images":[{"uri":"textures/poly_periwinkle_plant.png"},{"uri":"textures/poly_periwinkle_plant.png"},{"uri":"impostors/immergruen_a_summer.png"}],"textures":[{"source":0,"sampler":0},{"source":1,"sampler":0},{"source":2,"sampler":0}],"materials":[{"name":"bark","pbrMetallicRoughness":{"baseColorFactor":[0.82,0.82,0.82,1.0],"baseColorTexture":{"index":0},"metallicFactor":0.0,"roughnessFactor":0.91},"doubleSided":false},{"name":"foliage","pbrMetallicRoughness":{"baseColorFactor":[0.5633333333333332,1.0,0.7233333333333333,1.0],"baseColorTexture":{"index":1},"metallicFactor":0.0,"roughnessFactor":0.78},"doubleSided":true,"alphaMode":"MASK","alphaCutoff":0.18},{"name":"whole_tree_impostor","pbrMetallicRoughness":{"baseColorFactor":[1,1,1,1],"baseColorTexture":{"index":2},"metallicFactor":0.0,"roughnessFactor":0.92},"doubleSided":true,"alphaMode":"MASK","alphaCutoff":0.18}]}