{"asset":{"version":"2.0","generator":"Connected Rails CC0 hedge composer","copyright":"Mantissa and Poly Haven source models: CC0 1.0; hedge composition: Connected Rails"},"scene":0,"scenes":[{"nodes":[0,1,2,3,4,5,6,7,8,9,10,11]}],"nodes":[{"name":"hedge_LOD0","children":[12,22,24,35,39,41,51,53,65,71,73,77,79,91,93,97,103,105,113,117,129,131,133,139]},{"name":"hedge_LOD1","children":[13,23,25,36,40,42,52,54,66,72,74,78,80,92,94,98,104,106,114,118,130,132,134,140]},{"name":"hedge_LOD2","children":[14,26,37,43,55,67,75,81,95,99,107,115,119,135,141]},{"name":"hedge_LOD3","children":[15,27,38,44,56,68,76,82,96,100,108,116,120,136,142]},{"name":"hedge_LOD4","children":[16,28,45,57,69,83,101,109,121,137,143]},{"name":"hedge_LOD5","children":[17,29,46,58,70,84,102,110,122,138,144]},{"name":"hedge_LOD6","children":[18,30,47,59,85,111,123,145]},{"name":"hedge_LOD7","children":[19,31,48,60,86,112,124,146]},{"name":"hedge_LOD8","children":[20,32,49,61,87,125,147]},{"name":"hedge_LOD9","children":[21,33,50,62,88,126,148]},{"name":"hedge_LOD10","children":[34,63,89,127,149]},{"name":"hedge_LOD11","children":[64,90,128,150]},{"name":"besenheide_c_part_12_LOD0","mesh":1,"translation":[-3.0,-0.0,0.07564688031607875],"rotation":[0.0,0.014229430179865154,0.0,0.9998987565332584],"scale":[0.8440574033190633,2.8118578821415627,1.1181456509653203]},{"name":"besenheide_c_part_13_LOD1","mesh":1,"translation":[-3.0,-0.0,0.07564688031607875],"rotation":[0.0,0.014229430179865154,0.0,0.9998987565332584],"scale":[0.8440574033190633,2.8118578821415627,1.1181456509653203]},{"name":"besenheide_c_part_14_LOD2","mesh":1,"translation":[-3.0,-0.0,0.07564688031607875],"rotation":[0.0,0.014229430179865154,0.0,0.9998987565332584],"scale":[0.8440574033190633,2.8118578821415627,1.1181456509653203]},{"name":"besenheide_c_part_15_LOD3","mesh":1,"translation":[-3.0,-0.0,0.07564688031607875],"rotation":[0.0,0.014229430179865154,0.0,0.9998987565332584],"scale":[0.8440574033190633,2.8118578821415627,1.1181456509653203]},{"name":"besenheide_c_part_16_LOD4","mesh":1,"translation":[-3.0,-0.0,0.07564688031607875],"rotation":[0.0,0.014229430179865154,0.0,0.9998987565332584],"scale":[0.8440574033190633,2.8118578821415627,1.1181456509653203]},{"name":"besenheide_c_part_17_LOD5","mesh":1,"translation":[-3.0,-0.0,0.07564688031607875],"rotation":[0.0,0.014229430179865154,0.0,0.9998987565332584],"scale":[0.8440574033190633,2.8118578821415627,1.1181456509653203]},{"name":"besenheide_c_part_18_LOD6","mesh":1,"translation":[-3.0,-0.0,0.07564688031607875],"rotation":[0.0,0.014229430179865154,0.0,0.9998987565332584],"scale":[0.8440574033190633,2.8118578821415627,1.1181456509653203]},{"name":"besenheide_c_part_19_LOD7","mesh":1,"translation":[-3.0,-0.0,0.07564688031607875],"rotation":[0.0,0.014229430179865154,0.0,0.9998987565332584],"scale":[0.8440574033190633,2.8118578821415627,1.1181456509653203]},{"name":"besenheide_c_part_20_LOD8","mesh":1,"translation":[-3.0,-0.0,0.07564688031607875],"rotation":[0.0,0.014229430179865154,0.0,0.9998987565332584],"scale":[0.8440574033190633,2.8118578821415627,1.1181456509653203]},{"name":"besenheide_c_part_21_LOD9","mesh":1,"translation":[-3.0,-0.0,0.07564688031607875],"rotation":[0.0,0.014229430179865154,0.0,0.9998987565332584],"scale":[0.8440574033190633,2.8118578821415627,1.1181456509653203]},{"name":"besenginster_c_part_22_LOD0","mesh":5,"translation":[-2.4545454545454546,-0.0,-0.023353067055941465],"rotation":[0.0,0.016221012302360328,0.0,0.9998684307247062],"scale":[0.41309162327144744,0.869352604970345,0.5506169708592675]},{"name":"besenginster_c_part_23_LOD1","mesh":5,"translation":[-2.4545454545454546,-0.0,-0.023353067055941465],"rotation":[0.0,0.016221012302360328,0.0,0.9998684307247062],"scale":[0.41309162327144744,0.869352604970345,0.5506169708592675]},{"name":"besenheide_c_part_24_LOD0","mesh":1,"translation":[-1.9090909090909092,-0.0,-0.10875793058542899],"rotation":[0.0,-0.040963538485904775,0.0,0.9991606419964278],"scale":[0.8440574033190633,2.8201878165110306,1.1304591335005811]},{"name":"besenheide_c_part_25_LOD1","mesh":1,"translation":[-1.9090909090909092,-0.0,-0.10875793058542899],"rotation":[0.0,-0.040963538485904775,0.0,0.9991606419964278],"scale":[0.8440574033190633,2.8201878165110306,1.1304591335005811]},{"name":"besenheide_c_part_26_LOD2","mesh":1,"translation":[-1.9090909090909092,-0.0,-0.10875793058542899],"rotation":[0.0,-0.040963538485904775,0.0,0.9991606419964278],"scale":[0.8440574033190633,2.8201878165110306,1.1304591335005811]},{"name":"besenheide_c_part_27_LOD3","mesh":1,"translation":[-1.9090909090909092,-0.0,-0.10875793058542899],"rotation":[0.0,-0.040963538485904775,0.0,0.9991606419964278],"scale":[0.8440574033190633,2.8201878165110306,1.1304591335005811]},{"name":"besenheide_c_part_28_LOD4","mesh":1,"translation":[-1.9090909090909092,-0.0,-0.10875793058542899],"rotation":[0.0,-0.040963538485904775,0.0,0.9991606419964278],"scale":[0.8440574033190633,2.8201878165110306,1.1304591335005811]},{"name":"besenheide_c_part_29_LOD5","mesh":1,"translation":[-1.9090909090909092,-0.0,-0.10875793058542899],"rotation":[0.0,-0.040963538485904775,0.0,0.9991606419964278],"scale":[0.8440574033190633,2.8201878165110306,1.1304591335005811]},{"name":"besenheide_c_part_30_LOD6","mesh":1,"translation":[-1.9090909090909092,-0.0,-0.10875793058542899],"rotation":[0.0,-0.040963538485904775,0.0,0.9991606419964278],"scale":[0.8440574033190633,2.8201878165110306,1.1304591335005811]},{"name":"besenheide_c_part_31_LOD7","mesh":1,"translation":[-1.9090909090909092,-0.0,-0.10875793058542899],"rotation":[0.0,-0.040963538485904775,0.0,0.9991606419964278],"scale":[0.8440574033190633,2.8201878165110306,1.1304591335005811]},{"name":"besenheide_c_part_32_LOD8","mesh":1,"translation":[-1.9090909090909092,-0.0,-0.10875793058542899],"rotation":[0.0,-0.040963538485904775,0.0,0.9991606419964278],"scale":[0.8440574033190633,2.8201878165110306,1.1304591335005811]},{"name":"besenheide_c_part_33_LOD9","mesh":1,"translation":[-1.9090909090909092,-0.0,-0.10875793058542899],"rotation":[0.0,-0.040963538485904775,0.0,0.9991606419964278],"scale":[0.8440574033190633,2.8201878165110306,1.1304591335005811]},{"name":"besenheide_c_part_34_LOD10","mesh":1,"translation":[-1.9090909090909092,-0.0,-0.10875793058542899],"rotation":[0.0,-0.040963538485904775,0.0,0.9991606419964278],"scale":[0.8440574033190633,2.8201878165110306,1.1304591335005811]},{"name":"besenginster_c_part_35_LOD0","mesh":5,"translation":[-1.3636363636363638,-0.0,-0.07357249263002325],"rotation":[0.0,0.023739535728160024,0.0,0.9997181775097477],"scale":[0.41309162327144744,0.8749697087786392,0.6174971780702324]},{"name":"besenginster_c_part_36_LOD1","mesh":5,"translation":[-1.3636363636363638,-0.0,-0.07357249263002325],"rotation":[0.0,0.023739535728160024,0.0,0.9997181775097477],"scale":[0.41309162327144744,0.8749697087786392,0.6174971780702324]},{"name":"besenginster_c_part_37_LOD2","mesh":5,"translation":[-1.3636363636363638,-0.0,-0.07357249263002325],"rotation":[0.0,0.023739535728160024,0.0,0.9997181775097477],"scale":[0.41309162327144744,0.8749697087786392,0.6174971780702324]},{"name":"besenginster_c_part_38_LOD3","mesh":5,"translation":[-1.3636363636363638,-0.0,-0.07357249263002325],"rotation":[0.0,0.023739535728160024,0.0,0.9997181775097477],"scale":[0.41309162327144744,0.8749697087786392,0.6174971780702324]},{"name":"besenheide_c_part_39_LOD0","mesh":1,"translation":[-0.8181818181818183,-0.0,-0.05687077868582252],"rotation":[0.0,0.01287697643557543,0.0,0.999917088301764],"scale":[0.8440574033190633,2.802363790090568,1.3749428825230072]},{"name":"besenheide_c_part_40_LOD1","mesh":1,"translation":[-0.8181818181818183,-0.0,-0.05687077868582252],"rotation":[0.0,0.01287697643557543,0.0,0.999917088301764],"scale":[0.8440574033190633,2.802363790090568,1.3749428825230072]},{"name":"besenginster_c_part_41_LOD0","mesh":5,"translation":[-0.27272727272727293,-0.0,-0.03595099517325487],"rotation":[0.0,0.04116623337736278,0.0,0.9991523113267169],"scale":[0.41309162327144744,0.9042609309743452,0.556341904801655]},{"name":"besenginster_c_part_42_LOD1","mesh":5,"translation":[-0.27272727272727293,-0.0,-0.03595099517325487],"rotation":[0.0,0.04116623337736278,0.0,0.9991523113267169],"scale":[0.41309162327144744,0.9042609309743452,0.556341904801655]},{"name":"besenginster_c_part_43_LOD2","mesh":5,"translation":[-0.27272727272727293,-0.0,-0.03595099517325487],"rotation":[0.0,0.04116623337736278,0.0,0.9991523113267169],"scale":[0.41309162327144744,0.9042609309743452,0.556341904801655]},{"name":"besenginster_c_part_44_LOD3","mesh":5,"translation":[-0.27272727272727293,-0.0,-0.03595099517325487],"rotation":[0.0,0.04116623337736278,0.0,0.9991523113267169],"scale":[0.41309162327144744,0.9042609309743452,0.556341904801655]},{"name":"besenginster_c_part_45_LOD4","mesh":5,"translation":[-0.27272727272727293,-0.0,-0.03595099517325487],"rotation":[0.0,0.04116623337736278,0.0,0.9991523113267169],"scale":[0.41309162327144744,0.9042609309743452,0.556341904801655]},{"name":"besenginster_c_part_46_LOD5","mesh":5,"translation":[-0.27272727272727293,-0.0,-0.03595099517325487],"rotation":[0.0,0.04116623337736278,0.0,0.9991523113267169],"scale":[0.41309162327144744,0.9042609309743452,0.556341904801655]},{"name":"besenginster_c_part_47_LOD6","mesh":5,"translation":[-0.27272727272727293,-0.0,-0.03595099517325487],"rotation":[0.0,0.04116623337736278,0.0,0.9991523113267169],"scale":[0.41309162327144744,0.9042609309743452,0.556341904801655]},{"name":"besenginster_c_part_48_LOD7","mesh":5,"translation":[-0.27272727272727293,-0.0,-0.03595099517325487],"rotation":[0.0,0.04116623337736278,0.0,0.9991523113267169],"scale":[0.41309162327144744,0.9042609309743452,0.556341904801655]},{"name":"besenginster_c_part_49_LOD8","mesh":5,"translation":[-0.27272727272727293,-0.0,-0.03595099517325487],"rotation":[0.0,0.04116623337736278,0.0,0.9991523113267169],"scale":[0.41309162327144744,0.9042609309743452,0.556341904801655]},{"name":"besenginster_c_part_50_LOD9","mesh":5,"translation":[-0.27272727272727293,-0.0,-0.03595099517325487],"rotation":[0.0,0.04116623337736278,0.0,0.9991523113267169],"scale":[0.41309162327144744,0.9042609309743452,0.556341904801655]},{"name":"besenheide_c_part_51_LOD0","mesh":1,"translation":[0.2727272727272725,-0.0,0.019884156382272422],"rotation":[0.0,-0.062036837124537246,0.0,0.9980738604129374],"scale":[0.8440574033190633,2.832524015365332,1.3458095989790444]},{"name":"besenheide_c_part_52_LOD1","mesh":1,"translation":[0.2727272727272725,-0.0,0.019884156382272422],"rotation":[0.0,-0.062036837124537246,0.0,0.9980738604129374],"scale":[0.8440574033190633,2.832524015365332,1.3458095989790444]},{"name":"besenginster_c_part_53_LOD0","mesh":5,"translation":[0.8181818181818179,-0.0,0.09377217438844626],"rotation":[0.0,0.048671910237899574,0.0,0.9988148202513787],"scale":[0.41309162327144744,0.8972524676388934,0.544649991687687]},{"name":"besenginster_c_part_54_LOD1","mesh":5,"translation":[0.8181818181818179,-0.0,0.09377217438844626],"rotation":[0.0,0.048671910237899574,0.0,0.9988148202513787],"scale":[0.41309162327144744,0.8972524676388934,0.544649991687687]},{"name":"besenginster_c_part_55_LOD2","mesh":5,"translation":[0.8181818181818179,-0.0,0.09377217438844626],"rotation":[0.0,0.048671910237899574,0.0,0.9988148202513787],"scale":[0.41309162327144744,0.8972524676388934,0.544649991687687]},{"name":"besenginster_c_part_56_LOD3","mesh":5,"translation":[0.8181818181818179,-0.0,0.09377217438844626],"rotation":[0.0,0.048671910237899574,0.0,0.9988148202513787],"scale":[0.41309162327144744,0.8972524676388934,0.544649991687687]},{"name":"besenginster_c_part_57_LOD4","mesh":5,"translation":[0.8181818181818179,-0.0,0.09377217438844626],"rotation":[0.0,0.048671910237899574,0.0,0.9988148202513787],"scale":[0.41309162327144744,0.8972524676388934,0.544649991687687]},{"name":"besenginster_c_part_58_LOD5","mesh":5,"translation":[0.8181818181818179,-0.0,0.09377217438844626],"rotation":[0.0,0.048671910237899574,0.0,0.9988148202513787],"scale":[0.41309162327144744,0.8972524676388934,0.544649991687687]},{"name":"besenginster_c_part_59_LOD6","mesh":5,"translation":[0.8181818181818179,-0.0,0.09377217438844626],"rotation":[0.0,0.048671910237899574,0.0,0.9988148202513787],"scale":[0.41309162327144744,0.8972524676388934,0.544649991687687]},{"name":"besenginster_c_part_60_LOD7","mesh":5,"translation":[0.8181818181818179,-0.0,0.09377217438844626],"rotation":[0.0,0.048671910237899574,0.0,0.9988148202513787],"scale":[0.41309162327144744,0.8972524676388934,0.544649991687687]},{"name":"besenginster_c_part_61_LOD8","mesh":5,"translation":[0.8181818181818179,-0.0,0.09377217438844626],"rotation":[0.0,0.048671910237899574,0.0,0.9988148202513787],"scale":[0.41309162327144744,0.8972524676388934,0.544649991687687]},{"name":"besenginster_c_part_62_LOD9","mesh":5,"translation":[0.8181818181818179,-0.0,0.09377217438844626],"rotation":[0.0,0.048671910237899574,0.0,0.9988148202513787],"scale":[0.41309162327144744,0.8972524676388934,0.544649991687687]},{"name":"besenginster_c_part_63_LOD10","mesh":5,"translation":[0.8181818181818179,-0.0,0.09377217438844626],"rotation":[0.0,0.048671910237899574,0.0,0.9988148202513787],"scale":[0.41309162327144744,0.8972524676388934,0.544649991687687]},{"name":"besenginster_c_part_64_LOD11","mesh":5,"translation":[0.8181818181818179,-0.0,0.09377217438844626],"rotation":[0.0,0.048671910237899574,0.0,0.9988148202513787],"scale":[0.41309162327144744,0.8972524676388934,0.544649991687687]},{"name":"besenheide_c_part_65_LOD0","mesh":1,"translation":[1.3636363636363633,-0.0,-0.1322074786877927],"rotation":[0.0,0.02467542343174012,0.0,0.9996955153837914],"scale":[0.8440574033190633,2.679478058374506,1.1096284727525059]},{"name":"besenheide_c_part_66_LOD1","mesh":1,"translation":[1.3636363636363633,-0.0,-0.1322074786877927],"rotation":[0.0,0.02467542343174012,0.0,0.9996955153837914],"scale":[0.8440574033190633,2.679478058374506,1.1096284727525059]},{"name":"besenheide_c_part_67_LOD2","mesh":1,"translation":[1.3636363636363633,-0.0,-0.1322074786877927],"rotation":[0.0,0.02467542343174012,0.0,0.9996955153837914],"scale":[0.8440574033190633,2.679478058374506,1.1096284727525059]},{"name":"besenheide_c_part_68_LOD3","mesh":1,"translation":[1.3636363636363633,-0.0,-0.1322074786877927],"rotation":[0.0,0.02467542343174012,0.0,0.9996955153837914],"scale":[0.8440574033190633,2.679478058374506,1.1096284727525059]},{"name":"besenheide_c_part_69_LOD4","mesh":1,"translation":[1.3636363636363633,-0.0,-0.1322074786877927],"rotation":[0.0,0.02467542343174012,0.0,0.9996955153837914],"scale":[0.8440574033190633,2.679478058374506,1.1096284727525059]},{"name":"besenheide_c_part_70_LOD5","mesh":1,"translation":[1.3636363636363633,-0.0,-0.1322074786877927],"rotation":[0.0,0.02467542343174012,0.0,0.9996955153837914],"scale":[0.8440574033190633,2.679478058374506,1.1096284727525059]},{"name":"besenginster_c_part_71_LOD0","mesh":5,"translation":[1.9090909090909083,-0.0,0.03412994926845994],"rotation":[0.0,0.06827604560179996,0.0,0.9976664681129566],"scale":[0.41309162327144744,0.871650675631291,0.6410667178180773]},{"name":"besenginster_c_part_72_LOD1","mesh":5,"translation":[1.9090909090909083,-0.0,0.03412994926845994],"rotation":[0.0,0.06827604560179996,0.0,0.9976664681129566],"scale":[0.41309162327144744,0.871650675631291,0.6410667178180773]},{"name":"besenheide_c_part_73_LOD0","mesh":1,"translation":[2.454545454545454,-0.0,-0.04068282745796391],"rotation":[0.0,-0.03779229872147396,0.0,0.9992856159063568],"scale":[0.8440574033190633,2.7548790188220007,1.3508317826472491]},{"name":"besenheide_c_part_74_LOD1","mesh":1,"translation":[2.454545454545454,-0.0,-0.04068282745796391],"rotation":[0.0,-0.03779229872147396,0.0,0.9992856159063568],"scale":[0.8440574033190633,2.7548790188220007,1.3508317826472491]},{"name":"besenheide_c_part_75_LOD2","mesh":1,"translation":[2.454545454545454,-0.0,-0.04068282745796391],"rotation":[0.0,-0.03779229872147396,0.0,0.9992856159063568],"scale":[0.8440574033190633,2.7548790188220007,1.3508317826472491]},{"name":"besenheide_c_part_76_LOD3","mesh":1,"translation":[2.454545454545454,-0.0,-0.04068282745796391],"rotation":[0.0,-0.03779229872147396,0.0,0.9992856159063568],"scale":[0.8440574033190633,2.7548790188220007,1.3508317826472491]},{"name":"besenginster_c_part_77_LOD0","mesh":5,"translation":[3.0,-0.0,0.04470509010307949],"rotation":[0.0,0.054750835086892595,0.0,0.998500048100794],"scale":[0.41309162327144744,0.9063107607949608,0.6715920415939682]},{"name":"besenginster_c_part_78_LOD1","mesh":5,"translation":[3.0,-0.0,0.04470509010307949],"rotation":[0.0,0.054750835086892595,0.0,0.998500048100794],"scale":[0.41309162327144744,0.9063107607949608,0.6715920415939682]},{"name":"besenginster_c_part_79_LOD0","mesh":5,"translation":[-2.7272727272727275,-0.0,-0.08614404502329656],"rotation":[0.0,0.10715982840598634,0.0,0.9942418071958147],"scale":[0.44158070073844385,0.5220855354592863,0.6319174732563198]},{"name":"besenginster_c_part_80_LOD1","mesh":5,"translation":[-2.7272727272727275,-0.0,-0.08614404502329656],"rotation":[0.0,0.10715982840598634,0.0,0.9942418071958147],"scale":[0.44158070073844385,0.5220855354592863,0.6319174732563198]},{"name":"besenginster_c_part_81_LOD2","mesh":5,"translation":[-2.7272727272727275,-0.0,-0.08614404502329656],"rotation":[0.0,0.10715982840598634,0.0,0.9942418071958147],"scale":[0.44158070073844385,0.5220855354592863,0.6319174732563198]},{"name":"besenginster_c_part_82_LOD3","mesh":5,"translation":[-2.7272727272727275,-0.0,-0.08614404502329656],"rotation":[0.0,0.10715982840598634,0.0,0.9942418071958147],"scale":[0.44158070073844385,0.5220855354592863,0.6319174732563198]},{"name":"besenginster_c_part_83_LOD4","mesh":5,"translation":[-2.7272727272727275,-0.0,-0.08614404502329656],"rotation":[0.0,0.10715982840598634,0.0,0.9942418071958147],"scale":[0.44158070073844385,0.5220855354592863,0.6319174732563198]},{"name":"besenginster_c_part_84_LOD5","mesh":5,"translation":[-2.7272727272727275,-0.0,-0.08614404502329656],"rotation":[0.0,0.10715982840598634,0.0,0.9942418071958147],"scale":[0.44158070073844385,0.5220855354592863,0.6319174732563198]},{"name":"besenginster_c_part_85_LOD6","mesh":5,"translation":[-2.7272727272727275,-0.0,-0.08614404502329656],"rotation":[0.0,0.10715982840598634,0.0,0.9942418071958147],"scale":[0.44158070073844385,0.5220855354592863,0.6319174732563198]},{"name":"besenginster_c_part_86_LOD7","mesh":5,"translation":[-2.7272727272727275,-0.0,-0.08614404502329656],"rotation":[0.0,0.10715982840598634,0.0,0.9942418071958147],"scale":[0.44158070073844385,0.5220855354592863,0.6319174732563198]},{"name":"besenginster_c_part_87_LOD8","mesh":5,"translation":[-2.7272727272727275,-0.0,-0.08614404502329656],"rotation":[0.0,0.10715982840598634,0.0,0.9942418071958147],"scale":[0.44158070073844385,0.5220855354592863,0.6319174732563198]},{"name":"besenginster_c_part_88_LOD9","mesh":5,"translation":[-2.7272727272727275,-0.0,-0.08614404502329656],"rotation":[0.0,0.10715982840598634,0.0,0.9942418071958147],"scale":[0.44158070073844385,0.5220855354592863,0.6319174732563198]},{"name":"besenginster_c_part_89_LOD10","mesh":5,"translation":[-2.7272727272727275,-0.0,-0.08614404502329656],"rotation":[0.0,0.10715982840598634,0.0,0.9942418071958147],"scale":[0.44158070073844385,0.5220855354592863,0.6319174732563198]},{"name":"besenginster_c_part_90_LOD11","mesh":5,"translation":[-2.7272727272727275,-0.0,-0.08614404502329656],"rotation":[0.0,0.10715982840598634,0.0,0.9942418071958147],"scale":[0.44158070073844385,0.5220855354592863,0.6319174732563198]},{"name":"besenheide_c_part_91_LOD0","mesh":1,"translation":[-2.1818181818181817,-0.0,0.01050361329964622],"rotation":[0.0,0.10752880342855803,0.0,0.9942019696385752],"scale":[0.9022682587203782,1.846241516392865,1.2683300582308543]},{"name":"besenheide_c_part_92_LOD1","mesh":1,"translation":[-2.1818181818181817,-0.0,0.01050361329964622],"rotation":[0.0,0.10752880342855803,0.0,0.9942019696385752],"scale":[0.9022682587203782,1.846241516392865,1.2683300582308543]},{"name":"besenginster_c_part_93_LOD0","mesh":5,"translation":[-1.6363636363636365,-0.0,0.22396177065303963],"rotation":[0.0,0.09036633228878829,0.0,0.9959085931894917],"scale":[0.44158070073844385,0.6038540119112668,0.6059956550831965]},{"name":"besenginster_c_part_94_LOD1","mesh":5,"translation":[-1.6363636363636365,-0.0,0.22396177065303963],"rotation":[0.0,0.09036633228878829,0.0,0.9959085931894917],"scale":[0.44158070073844385,0.6038540119112668,0.6059956550831965]},{"name":"besenginster_c_part_95_LOD2","mesh":5,"translation":[-1.6363636363636365,-0.0,0.22396177065303963],"rotation":[0.0,0.09036633228878829,0.0,0.9959085931894917],"scale":[0.44158070073844385,0.6038540119112668,0.6059956550831965]},{"name":"besenginster_c_part_96_LOD3","mesh":5,"translation":[-1.6363636363636365,-0.0,0.22396177065303963],"rotation":[0.0,0.09036633228878829,0.0,0.9959085931894917],"scale":[0.44158070073844385,0.6038540119112668,0.6059956550831965]},{"name":"besenheide_c_part_97_LOD0","mesh":1,"translation":[-1.090909090909091,-0.0,-0.07737720852259608],"rotation":[0.0,0.05187415515606998,0.0,0.9986536296568715],"scale":[0.9022682587203782,1.68714389363013,1.3898268145578734]},{"name":"besenheide_c_part_98_LOD1","mesh":1,"translation":[-1.090909090909091,-0.0,-0.07737720852259608],"rotation":[0.0,0.05187415515606998,0.0,0.9986536296568715],"scale":[0.9022682587203782,1.68714389363013,1.3898268145578734]},{"name":"besenheide_c_part_99_LOD2","mesh":1,"translation":[-1.090909090909091,-0.0,-0.07737720852259608],"rotation":[0.0,0.05187415515606998,0.0,0.9986536296568715],"scale":[0.9022682587203782,1.68714389363013,1.3898268145578734]},{"name":"besenheide_c_part_100_LOD3","mesh":1,"translation":[-1.090909090909091,-0.0,-0.07737720852259608],"rotation":[0.0,0.05187415515606998,0.0,0.9986536296568715],"scale":[0.9022682587203782,1.68714389363013,1.3898268145578734]},{"name":"besenheide_c_part_101_LOD4","mesh":1,"translation":[-1.090909090909091,-0.0,-0.07737720852259608],"rotation":[0.0,0.05187415515606998,0.0,0.9986536296568715],"scale":[0.9022682587203782,1.68714389363013,1.3898268145578734]},{"name":"besenheide_c_part_102_LOD5","mesh":1,"translation":[-1.090909090909091,-0.0,-0.07737720852259608],"rotation":[0.0,0.05187415515606998,0.0,0.9986536296568715],"scale":[0.9022682587203782,1.68714389363013,1.3898268145578734]},{"name":"besenginster_c_part_103_LOD0","mesh":5,"translation":[-0.5454545454545459,-0.0,0.0077197180524505304],"rotation":[0.0,0.07690269467244149,0.0,0.9970386028394874],"scale":[0.44158070073844385,0.5962650852364935,0.6612298369697616]},{"name":"besenginster_c_part_104_LOD1","mesh":5,"translation":[-0.5454545454545459,-0.0,0.0077197180524505304],"rotation":[0.0,0.07690269467244149,0.0,0.9970386028394874],"scale":[0.44158070073844385,0.5962650852364935,0.6612298369697616]},{"name":"besenheide_c_part_105_LOD0","mesh":1,"translation":[0.0,-0.0,0.1251630732403618],"rotation":[0.0,0.020113727685025107,0.0,0.9997976985163611],"scale":[0.9022682587203782,1.7470944989455799,1.3871648935450052]},{"name":"besenheide_c_part_106_LOD1","mesh":1,"translation":[0.0,-0.0,0.1251630732403618],"rotation":[0.0,0.020113727685025107,0.0,0.9997976985163611],"scale":[0.9022682587203782,1.7470944989455799,1.3871648935450052]},{"name":"besenheide_c_part_107_LOD2","mesh":1,"translation":[0.0,-0.0,0.1251630732403618],"rotation":[0.0,0.020113727685025107,0.0,0.9997976985163611],"scale":[0.9022682587203782,1.7470944989455799,1.3871648935450052]},{"name":"besenheide_c_part_108_LOD3","mesh":1,"translation":[0.0,-0.0,0.1251630732403618],"rotation":[0.0,0.020113727685025107,0.0,0.9997976985163611],"scale":[0.9022682587203782,1.7470944989455799,1.3871648935450052]},{"name":"besenheide_c_part_109_LOD4","mesh":1,"translation":[0.0,-0.0,0.1251630732403618],"rotation":[0.0,0.020113727685025107,0.0,0.9997976985163611],"scale":[0.9022682587203782,1.7470944989455799,1.3871648935450052]},{"name":"besenheide_c_part_110_LOD5","mesh":1,"translation":[0.0,-0.0,0.1251630732403618],"rotation":[0.0,0.020113727685025107,0.0,0.9997976985163611],"scale":[0.9022682587203782,1.7470944989455799,1.3871648935450052]},{"name":"besenheide_c_part_111_LOD6","mesh":1,"translation":[0.0,-0.0,0.1251630732403618],"rotation":[0.0,0.020113727685025107,0.0,0.9997976985163611],"scale":[0.9022682587203782,1.7470944989455799,1.3871648935450052]},{"name":"besenheide_c_part_112_LOD7","mesh":1,"translation":[0.0,-0.0,0.1251630732403618],"rotation":[0.0,0.020113727685025107,0.0,0.9997976985163611],"scale":[0.9022682587203782,1.7470944989455799,1.3871648935450052]},{"name":"besenginster_c_part_113_LOD0","mesh":5,"translation":[0.545454545454545,-0.0,0.234521623373318],"rotation":[0.0,0.07760537261943508,0.0,0.9969841554110068],"scale":[0.44158070073844385,0.5807067924186746,0.5929640524523795]},{"name":"besenginster_c_part_114_LOD1","mesh":5,"translation":[0.545454545454545,-0.0,0.234521623373318],"rotation":[0.0,0.07760537261943508,0.0,0.9969841554110068],"scale":[0.44158070073844385,0.5807067924186746,0.5929640524523795]},{"name":"besenginster_c_part_115_LOD2","mesh":5,"translation":[0.545454545454545,-0.0,0.234521623373318],"rotation":[0.0,0.07760537261943508,0.0,0.9969841554110068],"scale":[0.44158070073844385,0.5807067924186746,0.5929640524523795]},{"name":"besenginster_c_part_116_LOD3","mesh":5,"translation":[0.545454545454545,-0.0,0.234521623373318],"rotation":[0.0,0.07760537261943508,0.0,0.9969841554110068],"scale":[0.44158070073844385,0.5807067924186746,0.5929640524523795]},{"name":"besenheide_c_part_117_LOD0","mesh":1,"translation":[1.0909090909090908,-0.0,0.021125721451935586],"rotation":[0.0,0.029354122306752915,0.0,0.9995690749035807],"scale":[0.9022682587203782,1.8547658259563085,1.1187415627860122]},{"name":"besenheide_c_part_118_LOD1","mesh":1,"translation":[1.0909090909090908,-0.0,0.021125721451935586],"rotation":[0.0,0.029354122306752915,0.0,0.9995690749035807],"scale":[0.9022682587203782,1.8547658259563085,1.1187415627860122]},{"name":"besenheide_c_part_119_LOD2","mesh":1,"translation":[1.0909090909090908,-0.0,0.021125721451935586],"rotation":[0.0,0.029354122306752915,0.0,0.9995690749035807],"scale":[0.9022682587203782,1.8547658259563085,1.1187415627860122]},{"name":"besenheide_c_part_120_LOD3","mesh":1,"translation":[1.0909090909090908,-0.0,0.021125721451935586],"rotation":[0.0,0.029354122306752915,0.0,0.9995690749035807],"scale":[0.9022682587203782,1.8547658259563085,1.1187415627860122]},{"name":"besenheide_c_part_121_LOD4","mesh":1,"translation":[1.0909090909090908,-0.0,0.021125721451935586],"rotation":[0.0,0.029354122306752915,0.0,0.9995690749035807],"scale":[0.9022682587203782,1.8547658259563085,1.1187415627860122]},{"name":"besenheide_c_part_122_LOD5","mesh":1,"translation":[1.0909090909090908,-0.0,0.021125721451935586],"rotation":[0.0,0.029354122306752915,0.0,0.9995690749035807],"scale":[0.9022682587203782,1.8547658259563085,1.1187415627860122]},{"name":"besenheide_c_part_123_LOD6","mesh":1,"translation":[1.0909090909090908,-0.0,0.021125721451935586],"rotation":[0.0,0.029354122306752915,0.0,0.9995690749035807],"scale":[0.9022682587203782,1.8547658259563085,1.1187415627860122]},{"name":"besenheide_c_part_124_LOD7","mesh":1,"translation":[1.0909090909090908,-0.0,0.021125721451935586],"rotation":[0.0,0.029354122306752915,0.0,0.9995690749035807],"scale":[0.9022682587203782,1.8547658259563085,1.1187415627860122]},{"name":"besenheide_c_part_125_LOD8","mesh":1,"translation":[1.0909090909090908,-0.0,0.021125721451935586],"rotation":[0.0,0.029354122306752915,0.0,0.9995690749035807],"scale":[0.9022682587203782,1.8547658259563085,1.1187415627860122]},{"name":"besenheide_c_part_126_LOD9","mesh":1,"translation":[1.0909090909090908,-0.0,0.021125721451935586],"rotation":[0.0,0.029354122306752915,0.0,0.9995690749035807],"scale":[0.9022682587203782,1.8547658259563085,1.1187415627860122]},{"name":"besenheide_c_part_127_LOD10","mesh":1,"translation":[1.0909090909090908,-0.0,0.021125721451935586],"rotation":[0.0,0.029354122306752915,0.0,0.9995690749035807],"scale":[0.9022682587203782,1.8547658259563085,1.1187415627860122]},{"name":"besenheide_c_part_128_LOD11","mesh":1,"translation":[1.0909090909090908,-0.0,0.021125721451935586],"rotation":[0.0,0.029354122306752915,0.0,0.9995690749035807],"scale":[0.9022682587203782,1.8547658259563085,1.1187415627860122]},{"name":"besenginster_c_part_129_LOD0","mesh":5,"translation":[1.6363636363636358,-0.0,-0.19682774682418563],"rotation":[0.0,0.011476196460692383,0.0,0.9999341462890422],"scale":[0.44158070073844385,0.5253410338222896,0.5710018777019288]},{"name":"besenginster_c_part_130_LOD1","mesh":5,"translation":[1.6363636363636358,-0.0,-0.19682774682418563],"rotation":[0.0,0.011476196460692383,0.0,0.9999341462890422],"scale":[0.44158070073844385,0.5253410338222896,0.5710018777019288]},{"name":"besenheide_c_part_131_LOD0","mesh":1,"translation":[2.1818181818181817,-0.0,-0.0855434527295448],"rotation":[0.0,-0.07287124386726582,0.0,0.9973413567165644],"scale":[0.9022682587203782,1.8210713486296297,1.2190582063862385]},{"name":"besenheide_c_part_132_LOD1","mesh":1,"translation":[2.1818181818181817,-0.0,-0.0855434527295448],"rotation":[0.0,-0.07287124386726582,0.0,0.9973413567165644],"scale":[0.9022682587203782,1.8210713486296297,1.2190582063862385]},{"name":"besenginster_c_part_133_LOD0","mesh":5,"translation":[2.7272727272727266,-0.0,-0.18740297309387766],"rotation":[0.0,0.09130386681824965,0.0,0.9958230786158931],"scale":[0.44158070073844385,0.5947649778775299,0.6211835513495352]},{"name":"besenginster_c_part_134_LOD1","mesh":5,"translation":[2.7272727272727266,-0.0,-0.18740297309387766],"rotation":[0.0,0.09130386681824965,0.0,0.9958230786158931],"scale":[0.44158070073844385,0.5947649778775299,0.6211835513495352]},{"name":"besenginster_c_part_135_LOD2","mesh":5,"translation":[2.7272727272727266,-0.0,-0.18740297309387766],"rotation":[0.0,0.09130386681824965,0.0,0.9958230786158931],"scale":[0.44158070073844385,0.5947649778775299,0.6211835513495352]},{"name":"besenginster_c_part_136_LOD3","mesh":5,"translation":[2.7272727272727266,-0.0,-0.18740297309387766],"rotation":[0.0,0.09130386681824965,0.0,0.9958230786158931],"scale":[0.44158070073844385,0.5947649778775299,0.6211835513495352]},{"name":"besenginster_c_part_137_LOD4","mesh":5,"translation":[2.7272727272727266,-0.0,-0.18740297309387766],"rotation":[0.0,0.09130386681824965,0.0,0.9958230786158931],"scale":[0.44158070073844385,0.5947649778775299,0.6211835513495352]},{"name":"besenginster_c_part_138_LOD5","mesh":5,"translation":[2.7272727272727266,-0.0,-0.18740297309387766],"rotation":[0.0,0.09130386681824965,0.0,0.9958230786158931],"scale":[0.44158070073844385,0.5947649778775299,0.6211835513495352]},{"name":"leaf_volume_LOD0","mesh":8},{"name":"leaf_volume_LOD1","mesh":9},{"name":"leaf_volume_LOD2","mesh":10},{"name":"leaf_volume_LOD3","mesh":11},{"name":"leaf_volume_LOD4","mesh":12},{"name":"leaf_volume_LOD5","mesh":13},{"name":"leaf_volume_LOD6","mesh":14},{"name":"leaf_volume_LOD7","mesh":15},{"name":"leaf_volume_LOD8","mesh":16},{"name":"leaf_volume_LOD9","mesh":17},{"name":"leaf_volume_LOD10","mesh":18},{"name":"leaf_volume_LOD11","mesh":19}],"meshes":[{"name":"besenheide_c_crown_LOD0","primitives":[{"attributes":{"POSITION":0,"NORMAL":1,"TEXCOORD_0":2},"indices":3,"material":1}]},{"name":"besenheide_c_crown_LOD1","primitives":[{"attributes":{"POSITION":4,"NORMAL":5,"TEXCOORD_0":6},"indices":7,"material":1}]},{"name":"besenheide_c_crown_LOD2","primitives":[{"attributes":{"POSITION":8,"NORMAL":9,"TEXCOORD_0":10},"indices":11,"material":2}]},{"name":"besenheide_c_crown_LOD3","primitives":[{"attributes":{"POSITION":12,"NORMAL":13,"TEXCOORD_0":14},"indices":15,"material":2}]},{"name":"besenginster_c_crown_LOD0","primitives":[{"attributes":{"POSITION":16,"NORMAL":17,"TEXCOORD_0":18},"indices":19,"material":4}]},{"name":"besenginster_c_crown_LOD1","primitives":[{"attributes":{"POSITION":20,"NORMAL":21,"TEXCOORD_0":22},"indices":23,"material":4}]},{"name":"besenginster_c_crown_LOD2","primitives":[{"attributes":{"POSITION":24,"NORMAL":25,"TEXCOORD_0":26},"indices":27,"material":5}]},{"name":"besenginster_c_crown_LOD3","primitives":[{"attributes":{"POSITION":28,"NORMAL":29,"TEXCOORD_0":30},"indices":31,"material":5}]},{"name":"immergruene_hecke_leaf_volume_LOD0","primitives":[{"attributes":{"POSITION":32,"NORMAL":33,"TEXCOORD_0":34},"indices":35,"material":6}]},{"name":"immergruene_hecke_leaf_volume_LOD1","primitives":[{"attributes":{"POSITION":36,"NORMAL":37,"TEXCOORD_0":38},"indices":39,"material":7}]},{"name":"immergruene_hecke_leaf_volume_LOD2","primitives":[{"attributes":{"POSITION":40,"NORMAL":41,"TEXCOORD_0":42},"indices":43,"material":8}]},{"name":"immergruene_hecke_leaf_volume_LOD3","primitives":[{"attributes":{"POSITION":44,"NORMAL":45,"TEXCOORD_0":46},"indices":47,"material":9}]},{"name":"immergruene_hecke_leaf_volume_LOD4","primitives":[{"attributes":{"POSITION":48,"NORMAL":49,"TEXCOORD_0":50},"indices":51,"material":10}]},{"name":"immergruene_hecke_leaf_volume_LOD5","primitives":[{"attributes":{"POSITION":52,"NORMAL":53,"TEXCOORD_0":54},"indices":55,"material":11}]},{"name":"immergruene_hecke_leaf_volume_LOD6","primitives":[{"attributes":{"POSITION":56,"NORMAL":57,"TEXCOORD_0":58},"indices":59,"material":12}]},{"name":"immergruene_hecke_leaf_volume_LOD7","primitives":[{"attributes":{"POSITION":60,"NORMAL":61,"TEXCOORD_0":62},"indices":63,"material":13}]},{"name":"immergruene_hecke_leaf_volume_LOD8","primitives":[{"attributes":{"POSITION":64,"NORMAL":65,"TEXCOORD_0":66},"indices":67,"material":14}]},{"name":"immergruene_hecke_leaf_volume_LOD9","primitives":[{"attributes":{"POSITION":68,"NORMAL":69,"TEXCOORD_0":70},"indices":71,"material":15}]},{"name":"immergruene_hecke_leaf_volume_LOD10","primitives":[{"attributes":{"POSITION":72,"NORMAL":73,"TEXCOORD_0":74},"indices":75,"material":16}]},{"name":"immergruene_hecke_leaf_volume_LOD11","primitives":[{"attributes":{"POSITION":76,"NORMAL":77,"TEXCOORD_0":78},"indices":79,"material":17}]}],"buffers":[{"uri":"besenheide_c.bin","byteLength":302156},{"uri":"besenginster_c.bin","byteLength":302476},{"uri":"immergruene_hecke_c_hedge.bin","byteLength":8841000}],"bufferViews":[{"buffer":0,"byteOffset":0,"byteLength":63084,"target":34962},{"buffer":0,"byteOffset":63084,"byteLength":63084,"target":34962},{"buffer":0,"byteOffset":126168,"byteLength":42056,"target":34962},{"buffer":0,"byteOffset":168224,"byteLength":25224,"target":34963},{"buffer":0,"byteOffset":193448,"byteLength":35316,"target":34962},{"buffer":0,"byteOffset":228764,"byteLength":35316,"target":34962},{"buffer":0,"byteOffset":264080,"byteLength":23544,"target":34962},{"buffer":0,"byteOffset":287624,"byteLength":13692,"target":34963},{"buffer":0,"byteOffset":301316,"byteLength":192,"target":34962},{"buffer":0,"byteOffset":301508,"byteLength":192,"target":34962},{"buffer":0,"byteOffset":301700,"byteLength":128,"target":34962},{"buffer":0,"byteOffset":301828,"byteLength":48,"target":34963},{"buffer":0,"byteOffset":301876,"byteLength":96,"target":34962},{"buffer":0,"byteOffset":301972,"byteLength":96,"target":34962},{"buffer":0,"byteOffset":302068,"byteLength":64,"target":34962},{"buffer":0,"byteOffset":302132,"byteLength":24,"target":34963},{"buffer":1,"byteOffset":0,"byteLength":63204,"target":34962},{"buffer":1,"byteOffset":63204,"byteLength":63204,"target":34962},{"buffer":1,"byteOffset":126408,"byteLength":42136,"target":34962},{"buffer":1,"byteOffset":168544,"byteLength":25224,"target":34963},{"buffer":1,"byteOffset":193768,"byteLength":35316,"target":34962},{"buffer":1,"byteOffset":229084,"byteLength":35316,"target":34962},{"buffer":1,"byteOffset":264400,"byteLength":23544,"target":34962},{"buffer":1,"byteOffset":287944,"byteLength":13692,"target":34963},{"buffer":1,"byteOffset":301636,"byteLength":192,"target":34962},{"buffer":1,"byteOffset":301828,"byteLength":192,"target":34962},{"buffer":1,"byteOffset":302020,"byteLength":128,"target":34962},{"buffer":1,"byteOffset":302148,"byteLength":48,"target":34963},{"buffer":1,"byteOffset":302196,"byteLength":96,"target":34962},{"buffer":1,"byteOffset":302292,"byteLength":96,"target":34962},{"buffer":1,"byteOffset":302388,"byteLength":64,"target":34962},{"buffer":1,"byteOffset":302452,"byteLength":24,"target":34963},{"buffer":2,"byteOffset":0,"byteLength":345600,"target":34962},{"buffer":2,"byteOffset":345600,"byteLength":345600,"target":34962},{"buffer":2,"byteOffset":691200,"byteLength":230400,"target":34962},{"buffer":2,"byteOffset":921600,"byteLength":86400,"target":34963},{"buffer":2,"byteOffset":1008000,"byteLength":268800,"target":34962},{"buffer":2,"byteOffset":1276800,"byteLength":268800,"target":34962},{"buffer":2,"byteOffset":1545600,"byteLength":179200,"target":34962},{"buffer":2,"byteOffset":1724800,"byteLength":67200,"target":34963},{"buffer":2,"byteOffset":1792000,"byteLength":264000,"target":34962},{"buffer":2,"byteOffset":2056000,"byteLength":264000,"target":34962},{"buffer":2,"byteOffset":2320000,"byteLength":176000,"target":34962},{"buffer":2,"byteOffset":2496000,"byteLength":66000,"target":34963},{"buffer":2,"byteOffset":2562000,"byteLength":259200,"target":34962},{"buffer":2,"byteOffset":2821200,"byteLength":259200,"target":34962},{"buffer":2,"byteOffset":3080400,"byteLength":172800,"target":34962},{"buffer":2,"byteOffset":3253200,"byteLength":64800,"target":34963},{"buffer":2,"byteOffset":3318000,"byteLength":254400,"target":34962},{"buffer":2,"byteOffset":3572400,"byteLength":254400,"target":34962},{"buffer":2,"byteOffset":3826800,"byteLength":169600,"target":34962},{"buffer":2,"byteOffset":3996400,"byteLength":63600,"target":34963},{"buffer":2,"byteOffset":4060000,"byteLength":249600,"target":34962},{"buffer":2,"byteOffset":4309600,"byteLength":249600,"target":34962},{"buffer":2,"byteOffset":4559200,"byteLength":166400,"target":34962},{"buffer":2,"byteOffset":4725600,"byteLength":62400,"target":34963},{"buffer":2,"byteOffset":4788000,"byteLength":244800,"target":34962},{"buffer":2,"byteOffset":5032800,"byteLength":244800,"target":34962},{"buffer":2,"byteOffset":5277600,"byteLength":163200,"target":34962},{"buffer":2,"byteOffset":5440800,"byteLength":61200,"target":34963},{"buffer":2,"byteOffset":5502000,"byteLength":240000,"target":34962},{"buffer":2,"byteOffset":5742000,"byteLength":240000,"target":34962},{"buffer":2,"byteOffset":5982000,"byteLength":160000,"target":34962},{"buffer":2,"byteOffset":6142000,"byteLength":60000,"target":34963},{"buffer":2,"byteOffset":6202000,"byteLength":235200,"target":34962},{"buffer":2,"byteOffset":6437200,"byteLength":235200,"target":34962},{"buffer":2,"byteOffset":6672400,"byteLength":156800,"target":34962},{"buffer":2,"byteOffset":6829200,"byteLength":58800,"target":34963},{"buffer":2,"byteOffset":6888000,"byteLength":230400,"target":34962},{"buffer":2,"byteOffset":7118400,"byteLength":230400,"target":34962},{"buffer":2,"byteOffset":7348800,"byteLength":153600,"target":34962},{"buffer":2,"byteOffset":7502400,"byteLength":57600,"target":34963},{"buffer":2,"byteOffset":7560000,"byteLength":223200,"target":34962},{"buffer":2,"byteOffset":7783200,"byteLength":223200,"target":34962},{"buffer":2,"byteOffset":8006400,"byteLength":148800,"target":34962},{"buffer":2,"byteOffset":8155200,"byteLength":55800,"target":34963},{"buffer":2,"byteOffset":8211000,"byteLength":216000,"target":34962},{"buffer":2,"byteOffset":8427000,"byteLength":216000,"target":34962},{"buffer":2,"byteOffset":8643000,"byteLength":144000,"target":34962},{"buffer":2,"byteOffset":8787000,"byteLength":54000,"target":34963}],"accessors":[{"bufferView":0,"componentType":5126,"count":5257,"type":"VEC3","min":[-0.4685161742548677,0.0,-0.52],"max":[0.4685161742548677,0.8,0.52]},{"bufferView":1,"componentType":5126,"count":5257,"type":"VEC3","min":[-0.9998656511306763,-0.9999790787696838,-0.9997736215591431],"max":[0.9992249608039856,0.9999279975891113,0.9995540380477905]},{"bufferView":2,"componentType":5126,"count":5257,"type":"VEC2"},{"bufferView":3,"componentType":5123,"count":12612,"type":"SCALAR","min":[0],"max":[5256]},{"bufferView":4,"componentType":5126,"count":2943,"type":"VEC3","min":[-0.4918410478704211,0.0016328996691503904,-0.5422162583638716],"max":[0.48616168018024725,0.8181038044843748,0.5269382908575709]},{"bufferView":5,"componentType":5126,"count":2943,"type":"VEC3","min":[-0.9998657703399658,-0.9999790787696838,-0.9994456768035889],"max":[0.9996488690376282,0.9999279975891113,0.9995540380477905]},{"bufferView":6,"componentType":5126,"count":2943,"type":"VEC2"},{"bufferView":7,"componentType":5123,"count":6846,"type":"SCALAR","min":[0],"max":[2942]},{"bufferView":8,"componentType":5126,"count":16,"type":"VEC3","min":[-0.5720000000000001,0,-0.5720000000000001],"max":[0.5720000000000001,0.8,0.5720000000000001]},{"bufferView":9,"componentType":5126,"count":16,"type":"VEC3","min":[-1.0,0,-0.7071067811865475],"max":[-0.0,0,1.0]},{"bufferView":10,"componentType":5126,"count":16,"type":"VEC2"},{"bufferView":11,"componentType":5123,"count":24,"type":"SCALAR","min":[0],"max":[15]},{"bufferView":12,"componentType":5126,"count":8,"type":"VEC3","min":[-0.5720000000000001,0,-0.5720000000000001],"max":[0.5720000000000001,0.8,0.5720000000000001]},{"bufferView":13,"componentType":5126,"count":8,"type":"VEC3","min":[-1.0,0,6.123233995736766e-17],"max":[-0.0,0,1.0]},{"bufferView":14,"componentType":5126,"count":8,"type":"VEC2"},{"bufferView":15,"componentType":5123,"count":12,"type":"SCALAR","min":[0],"max":[7]},{"bufferView":16,"componentType":5126,"count":5267,"type":"VEC3","min":[-0.9573046829726864,0.0,-1.0625],"max":[0.9573046829726864,2.5,1.0625]},{"bufferView":17,"componentType":5126,"count":5267,"type":"VEC3","min":[-0.999940037727356,-0.9999510645866394,-0.9999029636383057],"max":[0.9992337226867676,0.9998316764831543,0.9995586276054382]},{"bufferView":18,"componentType":5126,"count":5267,"type":"VEC2"},{"bufferView":19,"componentType":5123,"count":12612,"type":"SCALAR","min":[0],"max":[5266]},{"bufferView":20,"componentType":5126,"count":2943,"type":"VEC3","min":[-1.0049636795429278,0.0051028114660949695,-1.1078937971377183],"max":[0.9933592022913708,2.556574389013671,1.0766767962234023]},{"bufferView":21,"componentType":5126,"count":2943,"type":"VEC3","min":[-0.999940037727356,-0.9999510645866394,-0.9997138381004333],"max":[0.9996574521064758,0.9998316764831543,0.9995586276054382]},{"bufferView":22,"componentType":5126,"count":2943,"type":"VEC2"},{"bufferView":23,"componentType":5123,"count":6846,"type":"SCALAR","min":[0],"max":[2942]},{"bufferView":24,"componentType":5126,"count":16,"type":"VEC3","min":[-1.1687500000000002,0,-1.1687500000000002],"max":[1.1687500000000002,2.5,1.1687500000000002]},{"bufferView":25,"componentType":5126,"count":16,"type":"VEC3","min":[-1.0,0,-0.7071067811865475],"max":[-0.0,0,1.0]},{"bufferView":26,"componentType":5126,"count":16,"type":"VEC2"},{"bufferView":27,"componentType":5123,"count":24,"type":"SCALAR","min":[0],"max":[15]},{"bufferView":28,"componentType":5126,"count":8,"type":"VEC3","min":[-1.1687500000000002,0,-1.1687500000000002],"max":[1.1687500000000002,2.5,1.1687500000000002]},{"bufferView":29,"componentType":5126,"count":8,"type":"VEC3","min":[-1.0,0,6.123233995736766e-17],"max":[-0.0,0,1.0]},{"bufferView":30,"componentType":5126,"count":8,"type":"VEC2"},{"bufferView":31,"componentType":5123,"count":12,"type":"SCALAR","min":[0],"max":[7]},{"bufferView":32,"componentType":5126,"count":28800,"type":"VEC3","min":[-3.112720541440512,0.02503400548374761,-0.7828056301674473],"max":[3.110126021652716,2.254935233158205,0.7777196274730407]},{"bufferView":33,"componentType":5126,"count":28800,"type":"VEC3","min":[-1.0,-0.14998841028812612,-1.0],"max":[1.0,1.0,1.0]},{"bufferView":34,"componentType":5126,"count":28800,"type":"VEC2"},{"bufferView":35,"componentType":5123,"count":43200,"type":"SCALAR","min":[0],"max":[28799]},{"bufferView":36,"componentType":5126,"count":22400,"type":"VEC3","min":[-3.2391322029150893,-0.05564630141076399,-0.8831886091059927],"max":[3.226940849698702,2.3142266951322137,0.874638333020709]},{"bufferView":37,"componentType":5126,"count":22400,"type":"VEC3","min":[-1.0,-0.14991029222976857,-1.0],"max":[1.0,1.0,1.0]},{"bufferView":38,"componentType":5126,"count":22400,"type":"VEC2"},{"bufferView":39,"componentType":5123,"count":33600,"type":"SCALAR","min":[0],"max":[22399]},{"bufferView":40,"componentType":5126,"count":22000,"type":"VEC3","min":[-3.299360871043164,-0.11595167187135981,-0.9908455034631326],"max":[3.302403053986139,2.365774465753523,0.9884682705172652]},{"bufferView":41,"componentType":5126,"count":22000,"type":"VEC3","min":[-1.0,-0.14993973580241968,-1.0],"max":[1.0,1.0,1.0]},{"bufferView":42,"componentType":5126,"count":22000,"type":"VEC2"},{"bufferView":43,"componentType":5123,"count":33000,"type":"SCALAR","min":[0],"max":[21999]},{"bufferView":44,"componentType":5126,"count":21600,"type":"VEC3","min":[-3.425711784761672,-0.1856203161392225,-1.0952946695961474],"max":[3.3823828520991115,2.4581825425083053,1.081787854516831]},{"bufferView":45,"componentType":5126,"count":21600,"type":"VEC3","min":[-1.0,-0.14998243750194717,-1.0],"max":[1.0,1.0,1.0]},{"bufferView":46,"componentType":5126,"count":21600,"type":"VEC2"},{"bufferView":47,"componentType":5123,"count":32400,"type":"SCALAR","min":[0],"max":[21599]},{"bufferView":48,"componentType":5126,"count":21200,"type":"VEC3","min":[-3.5458056934867317,-0.29403746974868084,-1.227004935444899],"max":[3.563204996687439,2.5421132297428755,1.1951643864268378]},{"bufferView":49,"componentType":5126,"count":21200,"type":"VEC3","min":[-1.0,-0.14989258488228283,-1.0],"max":[1.0,1.0,1.0]},{"bufferView":50,"componentType":5126,"count":21200,"type":"VEC2"},{"bufferView":51,"componentType":5123,"count":31800,"type":"SCALAR","min":[0],"max":[21199]},{"bufferView":52,"componentType":5126,"count":20800,"type":"VEC3","min":[-3.7055934292214854,-0.40074789228698626,-1.383122283604209],"max":[3.732032258911887,2.6520609646251403,1.3370368797423016]},{"bufferView":53,"componentType":5126,"count":20800,"type":"VEC3","min":[-1.0,-0.14983537852990253,-1.0],"max":[1.0,1.0,1.0]},{"bufferView":54,"componentType":5126,"count":20800,"type":"VEC2"},{"bufferView":55,"componentType":5123,"count":31200,"type":"SCALAR","min":[0],"max":[20799]},{"bufferView":56,"componentType":5126,"count":20400,"type":"VEC3","min":[-3.9621803898535637,-0.5518764645502738,-1.6466609426675802],"max":[3.960978419539927,2.843933697339097,1.6283907734058725]},{"bufferView":57,"componentType":5126,"count":20400,"type":"VEC3","min":[-1.0,-0.1499759893996105,-1.0],"max":[1.0,1.0,1.0]},{"bufferView":58,"componentType":5126,"count":20400,"type":"VEC2"},{"bufferView":59,"componentType":5123,"count":30600,"type":"SCALAR","min":[0],"max":[20399]},{"bufferView":60,"componentType":5126,"count":20000,"type":"VEC3","min":[-4.2320236166475365,-0.7277007893655403,-1.8358517441681117],"max":[4.204753089560715,2.9848411971451863,1.9057151432341195]},{"bufferView":61,"componentType":5126,"count":20000,"type":"VEC3","min":[-1.0,-0.14987168306060175,-1.0],"max":[1.0,1.0,1.0]},{"bufferView":62,"componentType":5126,"count":20000,"type":"VEC2"},{"bufferView":63,"componentType":5123,"count":30000,"type":"SCALAR","min":[0],"max":[19999]},{"bufferView":64,"componentType":5126,"count":19600,"type":"VEC3","min":[-4.48284432096183,-0.9064003946914343,-2.1160990979156025],"max":[4.5140510559773634,3.189132760408935,2.1544559492850524]},{"bufferView":65,"componentType":5126,"count":19600,"type":"VEC3","min":[-1.0,-0.1495929798515954,-1.0],"max":[1.0,1.0,1.0]},{"bufferView":66,"componentType":5126,"count":19600,"type":"VEC2"},{"bufferView":67,"componentType":5123,"count":29400,"type":"SCALAR","min":[0],"max":[19599]},{"bufferView":68,"componentType":5126,"count":19200,"type":"VEC3","min":[-4.827734118939904,-1.1560677724867705,-2.42262388694152],"max":[4.789293839878978,3.468440038648955,2.440525049379543]},{"bufferView":69,"componentType":5126,"count":19200,"type":"VEC3","min":[-1.0,-0.14987292226910298,-1.0],"max":[1.0,1.0,1.0]},{"bufferView":70,"componentType":5126,"count":19200,"type":"VEC2"},{"bufferView":71,"componentType":5123,"count":28800,"type":"SCALAR","min":[0],"max":[19199]},{"bufferView":72,"componentType":5126,"count":18600,"type":"VEC3","min":[-5.137080449999384,-1.3443495495616304,-2.7554405591824005],"max":[5.213959739318899,3.6743136714764404,2.8179604781298777]},{"bufferView":73,"componentType":5126,"count":18600,"type":"VEC3","min":[-1.0,-0.14993531790369463,-1.0],"max":[1.0,1.0,1.0]},{"bufferView":74,"componentType":5126,"count":18600,"type":"VEC2"},{"bufferView":75,"componentType":5123,"count":27900,"type":"SCALAR","min":[0],"max":[18599]},{"bufferView":76,"componentType":5126,"count":18000,"type":"VEC3","min":[-5.571247747886334,-1.7096739671137167,-3.2858189464544205],"max":[5.46015059441698,3.9184825785277715,3.2417823079604657]},{"bufferView":77,"componentType":5126,"count":18000,"type":"VEC3","min":[-1.0,-0.14994717298681556,-1.0],"max":[1.0,1.0,1.0]},{"bufferView":78,"componentType":5126,"count":18000,"type":"VEC2"},{"bufferView":79,"componentType":5123,"count":27000,"type":"SCALAR","min":[0],"max":[17999]}],"images":[{"uri":"textures/poly_wild_rooibos_bush.png"},{"uri":"textures/poly_wild_rooibos_bush.png"},{"uri":"impostors/besenheide_c_winter.png"},{"uri":"textures/poly_wild_rooibos_bush.png"},{"uri":"textures/poly_wild_rooibos_bush.png"},{"uri":"impostors/besenginster_c_winter.png"},{"uri":"textures/poly_searsia_lucida.png"}],"samplers":[{"magFilter":9729,"minFilter":9987,"wrapS":10497,"wrapT":10497},{"magFilter":9729,"minFilter":9987,"wrapS":10497,"wrapT":10497},{"magFilter":9729,"minFilter":9987,"wrapS":10497,"wrapT":10497}],"textures":[{"source":0,"sampler":0},{"source":1,"sampler":0},{"source":2,"sampler":0},{"source":3,"sampler":1},{"source":4,"sampler":1},{"source":5,"sampler":1},{"source":6,"sampler":2}],"materials":[{"name":"besenheide_c_bark","pbrMetallicRoughness":{"baseColorFactor":[0.82,0.82,0.82,1.0],"baseColorTexture":{"index":0},"metallicFactor":0.0,"roughnessFactor":0.91},"doubleSided":false},{"name":"besenheide_c_foliage","pbrMetallicRoughness":{"baseColorFactor":[0.6835098039215687,1.0,0.8595098039215687,1.0],"baseColorTexture":{"index":1},"metallicFactor":0.0,"roughnessFactor":0.78},"doubleSided":true,"alphaMode":"MASK","alphaCutoff":0.18},{"name":"besenheide_c_whole_tree_impostor","pbrMetallicRoughness":{"baseColorFactor":[1,1,1,1],"baseColorTexture":{"index":2},"metallicFactor":0.0,"roughnessFactor":0.92},"doubleSided":true,"alphaMode":"MASK","alphaCutoff":0.18},{"name":"besenginster_c_bark","pbrMetallicRoughness":{"baseColorFactor":[0.82,0.82,0.82,1.0],"baseColorTexture":{"index":3},"metallicFactor":0.0,"roughnessFactor":0.91},"doubleSided":false},{"name":"besenginster_c_foliage","pbrMetallicRoughness":{"baseColorFactor":[0.6386470588235295,1.0,0.8146470588235295,1.0],"baseColorTexture":{"index":4},"metallicFactor":0.0,"roughnessFactor":0.78},"doubleSided":true,"alphaMode":"MASK","alphaCutoff":0.18},{"name":"besenginster_c_whole_tree_impostor","pbrMetallicRoughness":{"baseColorFactor":[1,1,1,1],"baseColorTexture":{"index":5},"metallicFactor":0.0,"roughnessFactor":0.92},"doubleSided":true,"alphaMode":"MASK","alphaCutoff":0.18},{"name":"immergruene_hecke_individual_leaves_LOD0","pbrMetallicRoughness":{"baseColorFactor":[0.5,0.82,0.56,1.0],"baseColorTexture":{"index":6},"metallicFactor":0.0,"roughnessFactor":0.82},"doubleSided":true,"alphaMode":"MASK","alphaCutoff":0.18},{"name":"immergruene_hecke_individual_leaves_LOD1","pbrMetallicRoughness":{"baseColorFactor":[0.5,0.82,0.56,1.0],"baseColorTexture":{"index":6},"metallicFactor":0.0,"roughnessFactor":0.82},"doubleSided":true,"alphaMode":"MASK","alphaCutoff":0.08},{"name":"immergruene_hecke_individual_leaves_LOD2","pbrMetallicRoughness":{"baseColorFactor":[0.5,0.82,0.56,1.0],"baseColorTexture":{"index":6},"metallicFactor":0.0,"roughnessFactor":0.82},"doubleSided":true,"alphaMode":"MASK","alphaCutoff":0.065},{"name":"immergruene_hecke_individual_leaves_LOD3","pbrMetallicRoughness":{"baseColorFactor":[0.5,0.82,0.56,1.0],"baseColorTexture":{"index":6},"metallicFactor":0.0,"roughnessFactor":0.82},"doubleSided":true,"alphaMode":"MASK","alphaCutoff":0.055},{"name":"immergruene_hecke_individual_leaves_LOD4","pbrMetallicRoughness":{"baseColorFactor":[0.5,0.82,0.56,1.0],"baseColorTexture":{"index":6},"metallicFactor":0.0,"roughnessFactor":0.82},"doubleSided":true,"alphaMode":"MASK","alphaCutoff":0.045},{"name":"immergruene_hecke_individual_leaves_LOD5","pbrMetallicRoughness":{"baseColorFactor":[0.5,0.82,0.56,1.0],"baseColorTexture":{"index":6},"metallicFactor":0.0,"roughnessFactor":0.82},"doubleSided":true,"alphaMode":"MASK","alphaCutoff":0.038},{"name":"immergruene_hecke_individual_leaves_LOD6","pbrMetallicRoughness":{"baseColorFactor":[0.5,0.82,0.56,1.0],"baseColorTexture":{"index":6},"metallicFactor":0.0,"roughnessFactor":0.82},"doubleSided":true,"alphaMode":"MASK","alphaCutoff":0.032},{"name":"immergruene_hecke_individual_leaves_LOD7","pbrMetallicRoughness":{"baseColorFactor":[0.5,0.82,0.56,1.0],"baseColorTexture":{"index":6},"metallicFactor":0.0,"roughnessFactor":0.82},"doubleSided":true,"alphaMode":"MASK","alphaCutoff":0.027},{"name":"immergruene_hecke_individual_leaves_LOD8","pbrMetallicRoughness":{"baseColorFactor":[0.5,0.82,0.56,1.0],"baseColorTexture":{"index":6},"metallicFactor":0.0,"roughnessFactor":0.82},"doubleSided":true,"alphaMode":"MASK","alphaCutoff":0.023},{"name":"immergruene_hecke_individual_leaves_LOD9","pbrMetallicRoughness":{"baseColorFactor":[0.5,0.82,0.56,1.0],"baseColorTexture":{"index":6},"metallicFactor":0.0,"roughnessFactor":0.82},"doubleSided":true,"alphaMode":"MASK","alphaCutoff":0.02},{"name":"immergruene_hecke_individual_leaves_LOD10","pbrMetallicRoughness":{"baseColorFactor":[0.5,0.82,0.56,1.0],"baseColorTexture":{"index":6},"metallicFactor":0.0,"roughnessFactor":0.82},"doubleSided":true,"alphaMode":"MASK","alphaCutoff":0.017},{"name":"immergruene_hecke_individual_leaves_LOD11","pbrMetallicRoughness":{"baseColorFactor":[0.5,0.82,0.56,1.0],"baseColorTexture":{"index":6},"metallicFactor":0.0,"roughnessFactor":0.82},"doubleSided":true,"alphaMode":"MASK","alphaCutoff":0.015}]}