{"asset":{"version":"2.0","generator":"Connected Rails CC0 tree importer","copyright":"Mantissa and Poly Haven source models: CC0 1.0; optimisation: Connected Rails"},"scene":0,"scenes":[{"nodes":[0,1,2,3]}],"nodes":[{"name":"crown_LOD0","mesh":0},{"name":"crown_LOD1","mesh":1},{"name":"crown_LOD2","mesh":2},{"name":"crown_LOD3","mesh":3}],"meshes":[{"name":"crown_LOD0","primitives":[{"attributes":{"POSITION":0,"NORMAL":1,"TEXCOORD_0":2},"indices":3,"material":1}]},{"name":"crown_LOD1","primitives":[{"attributes":{"POSITION":4,"NORMAL":5,"TEXCOORD_0":6},"indices":7,"material":1}]},{"name":"crown_LOD2","primitives":[{"attributes":{"POSITION":8,"NORMAL":9,"TEXCOORD_0":10},"indices":11,"material":2}]},{"name":"crown_LOD3","primitives":[{"attributes":{"POSITION":12,"NORMAL":13,"TEXCOORD_0":14},"indices":15,"material":2}]}],"buffers":[{"uri":"immergruen_b.bin","byteLength":349300}],"bufferViews":[{"buffer":0,"byteOffset":0,"byteLength":83952,"target":34962},{"buffer":0,"byteOffset":83952,"byteLength":83952,"target":34962},{"buffer":0,"byteOffset":167904,"byteLength":55968,"target":34962},{"buffer":0,"byteOffset":223872,"byteLength":54576,"target":34963},{"buffer":0,"byteOffset":278448,"byteLength":21516,"target":34962},{"buffer":0,"byteOffset":299964,"byteLength":21516,"target":34962},{"buffer":0,"byteOffset":321480,"byteLength":14344,"target":34962},{"buffer":0,"byteOffset":335824,"byteLength":12636,"target":34963},{"buffer":0,"byteOffset":348460,"byteLength":192,"target":34962},{"buffer":0,"byteOffset":348652,"byteLength":192,"target":34962},{"buffer":0,"byteOffset":348844,"byteLength":128,"target":34962},{"buffer":0,"byteOffset":348972,"byteLength":48,"target":34963},{"buffer":0,"byteOffset":349020,"byteLength":96,"target":34962},{"buffer":0,"byteOffset":349116,"byteLength":96,"target":34962},{"buffer":0,"byteOffset":349212,"byteLength":64,"target":34962},{"buffer":0,"byteOffset":349276,"byteLength":24,"target":34963}],"accessors":[{"bufferView":0,"componentType":5126,"count":6996,"type":"VEC3","min":[-0.1875,0.0,-0.18233797830421802],"max":[0.1875,0.25,0.18233797830421802]},{"bufferView":1,"componentType":5126,"count":6996,"type":"VEC3","min":[-0.998869001865387,-0.9984226822853088,-0.9993927478790283],"max":[0.9989081025123596,0.9999995827674866,0.9987633228302002]},{"bufferView":2,"componentType":5126,"count":6996,"type":"VEC2"},{"bufferView":3,"componentType":5123,"count":27288,"type":"SCALAR","min":[0],"max":[6995]},{"bufferView":4,"componentType":5126,"count":1793,"type":"VEC3","min":[-0.1875,-5.423533961514989e-06,-0.18233875193326676],"max":[0.1874133535465412,0.24980649816009018,0.18233720467516928]},{"bufferView":5,"componentType":5126,"count":1793,"type":"VEC3","min":[-0.9977899193763733,-0.9986488819122314,-0.9995836019515991],"max":[0.9973028898239136,0.9999912977218628,0.998292863368988]},{"bufferView":6,"componentType":5126,"count":1793,"type":"VEC2"},{"bufferView":7,"componentType":5123,"count":6318,"type":"SCALAR","min":[0],"max":[1792]},{"bufferView":8,"componentType":5126,"count":16,"type":"VEC3","min":[-0.20625000000000002,0,-0.20625000000000002],"max":[0.20625000000000002,0.25,0.20625000000000002]},{"bufferView":9,"componentType":5126,"count":16,"type":"VEC3","min":[-1.0,0,-0.7071067811865475],"max":[-0.0,0,1.0]},{"bufferView":10,"componentType":5126,"count":16,"type":"VEC2"},{"bufferView":11,"componentType":5123,"count":24,"type":"SCALAR","min":[0],"max":[15]},{"bufferView":12,"componentType":5126,"count":8,"type":"VEC3","min":[-0.20625000000000002,0,-0.20625000000000002],"max":[0.20625000000000002,0.25,0.20625000000000002]},{"bufferView":13,"componentType":5126,"count":8,"type":"VEC3","min":[-1.0,0,6.123233995736766e-17],"max":[-0.0,0,1.0]},{"bufferView":14,"componentType":5126,"count":8,"type":"VEC2"},{"bufferView":15,"componentType":5123,"count":12,"type":"SCALAR","min":[0],"max":[7]}],"samplers":[{"magFilter":9729,"minFilter":9987,"wrapS":10497,"wrapT":10497}],"images":[{"uri":"textures/poly_periwinkle_plant.png"},{"uri":"textures/poly_periwinkle_plant.png"},{"uri":"impostors/immergruen_b_winter.png"}],"textures":[{"source":0,"sampler":0},{"source":1,"sampler":0},{"source":2,"sampler":0}],"materials":[{"name":"bark","pbrMetallicRoughness":{"baseColorFactor":[0.82,0.82,0.82,1.0],"baseColorTexture":{"index":0},"metallicFactor":0.0,"roughnessFactor":0.91},"doubleSided":false},{"name":"foliage","pbrMetallicRoughness":{"baseColorFactor":[0.6196666666666666,1.0,0.7956666666666666,1.0],"baseColorTexture":{"index":1},"metallicFactor":0.0,"roughnessFactor":0.78},"doubleSided":true,"alphaMode":"MASK","alphaCutoff":0.18},{"name":"whole_tree_impostor","pbrMetallicRoughness":{"baseColorFactor":[1,1,1,1],"baseColorTexture":{"index":2},"metallicFactor":0.0,"roughnessFactor":0.92},"doubleSided":true,"alphaMode":"MASK","alphaCutoff":0.18}]}