{"asset":{"version":"2.0","generator":"Connected Rails CC0 tree importer","copyright":"Mantissa and Poly Haven source models: CC0 1.0; optimisation: Connected Rails"},"scene":0,"scenes":[{"nodes":[0,1,2,3]}],"nodes":[{"name":"crown_LOD0","mesh":0},{"name":"crown_LOD1","mesh":1},{"name":"crown_LOD2","mesh":2},{"name":"crown_LOD3","mesh":3}],"meshes":[{"name":"crown_LOD0","primitives":[{"attributes":{"POSITION":0,"NORMAL":1,"TEXCOORD_0":2},"indices":3,"material":0},{"attributes":{"POSITION":4,"NORMAL":5,"TEXCOORD_0":6},"indices":7,"material":1}]},{"name":"crown_LOD1","primitives":[{"attributes":{"POSITION":8,"NORMAL":9,"TEXCOORD_0":10},"indices":11,"material":0},{"attributes":{"POSITION":12,"NORMAL":13,"TEXCOORD_0":14},"indices":15,"material":1}]},{"name":"crown_LOD2","primitives":[{"attributes":{"POSITION":16,"NORMAL":17,"TEXCOORD_0":18},"indices":19,"material":2}]},{"name":"crown_LOD3","primitives":[{"attributes":{"POSITION":20,"NORMAL":21,"TEXCOORD_0":22},"indices":23,"material":2}]}],"buffers":[{"uri":"kiefer_c.bin","byteLength":4607492}],"bufferViews":[{"buffer":0,"byteOffset":0,"byteLength":289932,"target":34962},{"buffer":0,"byteOffset":289932,"byteLength":289932,"target":34962},{"buffer":0,"byteOffset":579864,"byteLength":193288,"target":34962},{"buffer":0,"byteOffset":773152,"byteLength":214092,"target":34963},{"buffer":0,"byteOffset":987244,"byteLength":672072,"target":34962},{"buffer":0,"byteOffset":1659316,"byteLength":672072,"target":34962},{"buffer":0,"byteOffset":2331388,"byteLength":448048,"target":34962},{"buffer":0,"byteOffset":2779436,"byteLength":519900,"target":34963},{"buffer":0,"byteOffset":3299336,"byteLength":130176,"target":34962},{"buffer":0,"byteOffset":3429512,"byteLength":130176,"target":34962},{"buffer":0,"byteOffset":3559688,"byteLength":86784,"target":34962},{"buffer":0,"byteOffset":3646472,"byteLength":74868,"target":34963},{"buffer":0,"byteOffset":3721340,"byteLength":257112,"target":34962},{"buffer":0,"byteOffset":3978452,"byteLength":257112,"target":34962},{"buffer":0,"byteOffset":4235564,"byteLength":171408,"target":34962},{"buffer":0,"byteOffset":4406972,"byteLength":199680,"target":34963},{"buffer":0,"byteOffset":4606652,"byteLength":192,"target":34962},{"buffer":0,"byteOffset":4606844,"byteLength":192,"target":34962},{"buffer":0,"byteOffset":4607036,"byteLength":128,"target":34962},{"buffer":0,"byteOffset":4607164,"byteLength":48,"target":34963},{"buffer":0,"byteOffset":4607212,"byteLength":96,"target":34962},{"buffer":0,"byteOffset":4607308,"byteLength":96,"target":34962},{"buffer":0,"byteOffset":4607404,"byteLength":64,"target":34962},{"buffer":0,"byteOffset":4607468,"byteLength":24,"target":34963}],"accessors":[{"bufferView":0,"componentType":5126,"count":24161,"type":"VEC3","min":[-7.466399804099993,0.0,-8.021810529625341],"max":[7.462026619424936,31.377615924134034,7.899872517466238]},{"bufferView":1,"componentType":5126,"count":24161,"type":"VEC3","min":[-0.9999977946281433,-0.9999950528144836,-0.9999660849571228],"max":[0.9999849200248718,0.9999947547912598,0.9999873638153076]},{"bufferView":2,"componentType":5126,"count":24161,"type":"VEC2"},{"bufferView":3,"componentType":5123,"count":107046,"type":"SCALAR","min":[0],"max":[24160]},{"bufferView":4,"componentType":5126,"count":56006,"type":"VEC3","min":[-8.904396057128906,8.121356964111328,-9.279999732971191],"max":[8.535801887512207,31.49675750732422,9.0783052444458]},{"bufferView":5,"componentType":5126,"count":56006,"type":"VEC3","min":[-0.9998580813407898,-0.9999586939811707,-1.0],"max":[0.9999422430992126,0.9999927878379822,0.9999889731407166]},{"bufferView":6,"componentType":5126,"count":56006,"type":"VEC2"},{"bufferView":7,"componentType":5123,"count":259950,"type":"SCALAR","min":[0],"max":[56005]},{"bufferView":8,"componentType":5126,"count":10848,"type":"VEC3","min":[-7.466399804099993,0.0011531317462159965,-8.02295909378108],"max":[7.462026619424936,31.387812442525455,7.899872517466238]},{"bufferView":9,"componentType":5126,"count":10848,"type":"VEC3","min":[-0.999886691570282,-0.9997082948684692,-0.9997960925102234],"max":[0.999828040599823,0.9999241828918457,0.9999595284461975]},{"bufferView":10,"componentType":5126,"count":10848,"type":"VEC2"},{"bufferView":11,"componentType":5123,"count":37434,"type":"SCALAR","min":[0],"max":[10847]},{"bufferView":12,"componentType":5126,"count":21426,"type":"VEC3","min":[-8.97142505645752,8.049501419067383,-8.97019100189209],"max":[8.602624893188477,31.549335479736328,9.26931095123291]},{"bufferView":13,"componentType":5126,"count":21426,"type":"VEC3","min":[-0.9998552203178406,-0.9999586939811707,-1.0],"max":[0.9999422430992126,0.9999927878379822,0.9999889731407166]},{"bufferView":14,"componentType":5126,"count":21426,"type":"VEC2"},{"bufferView":15,"componentType":5123,"count":99840,"type":"SCALAR","min":[0],"max":[21425]},{"bufferView":16,"componentType":5126,"count":16,"type":"VEC3","min":[-10.208,0,-10.208],"max":[10.208,32.0,10.208]},{"bufferView":17,"componentType":5126,"count":16,"type":"VEC3","min":[-1.0,0,-0.7071067811865475],"max":[-0.0,0,1.0]},{"bufferView":18,"componentType":5126,"count":16,"type":"VEC2"},{"bufferView":19,"componentType":5123,"count":24,"type":"SCALAR","min":[0],"max":[15]},{"bufferView":20,"componentType":5126,"count":8,"type":"VEC3","min":[-10.208,0,-10.208],"max":[10.208,32.0,10.208]},{"bufferView":21,"componentType":5126,"count":8,"type":"VEC3","min":[-1.0,0,6.123233995736766e-17],"max":[-0.0,0,1.0]},{"bufferView":22,"componentType":5126,"count":8,"type":"VEC2"},{"bufferView":23,"componentType":5123,"count":12,"type":"SCALAR","min":[0],"max":[7]}],"samplers":[{"magFilter":9729,"minFilter":9987,"wrapS":10497,"wrapT":10497}],"images":[{"uri":"textures/poly_pine_bark.jpg"},{"uri":"textures/poly_pine_foliage.png"},{"uri":"impostors/kiefer_c_summer.png"}],"textures":[{"source":0,"sampler":0},{"source":1,"sampler":0},{"source":2,"sampler":0}],"materials":[{"name":"bark","pbrMetallicRoughness":{"baseColorFactor":[0.82,0.82,0.82,1.0],"baseColorTexture":{"index":0},"metallicFactor":0.0,"roughnessFactor":0.91},"doubleSided":false},{"name":"foliage","pbrMetallicRoughness":{"baseColorFactor":[0.6005882352941176,1.0,0.7605882352941177,1.0],"baseColorTexture":{"index":1},"metallicFactor":0.0,"roughnessFactor":0.78},"doubleSided":true,"alphaMode":"MASK","alphaCutoff":0.18},{"name":"whole_tree_impostor","pbrMetallicRoughness":{"baseColorFactor":[1,1,1,1],"baseColorTexture":{"index":2},"metallicFactor":0.0,"roughnessFactor":0.92},"doubleSided":true,"alphaMode":"MASK","alphaCutoff":0.18}]}