{"asset":{"version":"2.0","generator":"Connected Rails CC0 tree importer","copyright":"Mantissa and Poly Haven source models: CC0 1.0; optimisation: Connected Rails"},"scene":0,"scenes":[{"nodes":[0,1,2,3]}],"nodes":[{"name":"crown_LOD0","mesh":0},{"name":"crown_LOD1","mesh":1},{"name":"crown_LOD2","mesh":2},{"name":"crown_LOD3","mesh":3}],"meshes":[{"name":"crown_LOD0","primitives":[{"attributes":{"POSITION":0,"NORMAL":1,"TEXCOORD_0":2},"indices":3,"material":0},{"attributes":{"POSITION":4,"NORMAL":5,"TEXCOORD_0":6},"indices":7,"material":1}]},{"name":"crown_LOD1","primitives":[{"attributes":{"POSITION":8,"NORMAL":9,"TEXCOORD_0":10},"indices":11,"material":0},{"attributes":{"POSITION":12,"NORMAL":13,"TEXCOORD_0":14},"indices":15,"material":1}]},{"name":"crown_LOD2","primitives":[{"attributes":{"POSITION":16,"NORMAL":17,"TEXCOORD_0":18},"indices":19,"material":2}]},{"name":"crown_LOD3","primitives":[{"attributes":{"POSITION":20,"NORMAL":21,"TEXCOORD_0":22},"indices":23,"material":2}]}],"buffers":[{"uri":"kiefer_a.bin","byteLength":8600660}],"bufferViews":[{"buffer":0,"byteOffset":0,"byteLength":523356,"target":34962},{"buffer":0,"byteOffset":523356,"byteLength":523356,"target":34962},{"buffer":0,"byteOffset":1046712,"byteLength":348904,"target":34962},{"buffer":0,"byteOffset":1395616,"byteLength":477894,"target":34963},{"buffer":0,"byteOffset":1873512,"byteLength":1348596,"target":34962},{"buffer":0,"byteOffset":3222108,"byteLength":1348596,"target":34962},{"buffer":0,"byteOffset":4570704,"byteLength":899064,"target":34962},{"buffer":0,"byteOffset":5469768,"byteLength":1143108,"target":34963},{"buffer":0,"byteOffset":6612876,"byteLength":133068,"target":34962},{"buffer":0,"byteOffset":6745944,"byteLength":133068,"target":34962},{"buffer":0,"byteOffset":6879012,"byteLength":88712,"target":34962},{"buffer":0,"byteOffset":6967724,"byteLength":71712,"target":34963},{"buffer":0,"byteOffset":7039436,"byteLength":504144,"target":34962},{"buffer":0,"byteOffset":7543580,"byteLength":504144,"target":34962},{"buffer":0,"byteOffset":8047724,"byteLength":336096,"target":34962},{"buffer":0,"byteOffset":8383820,"byteLength":216000,"target":34963},{"buffer":0,"byteOffset":8599820,"byteLength":192,"target":34962},{"buffer":0,"byteOffset":8600012,"byteLength":192,"target":34962},{"buffer":0,"byteOffset":8600204,"byteLength":128,"target":34962},{"buffer":0,"byteOffset":8600332,"byteLength":48,"target":34963},{"buffer":0,"byteOffset":8600380,"byteLength":96,"target":34962},{"buffer":0,"byteOffset":8600476,"byteLength":96,"target":34962},{"buffer":0,"byteOffset":8600572,"byteLength":64,"target":34962},{"buffer":0,"byteOffset":8600636,"byteLength":24,"target":34963}],"accessors":[{"bufferView":0,"componentType":5126,"count":43613,"type":"VEC3","min":[-4.843436435450571,0.0,-5.3047068931373955],"max":[4.550954681059636,19.608691371438677,5.0555405418503]},{"bufferView":1,"componentType":5126,"count":43613,"type":"VEC3","min":[-0.9999761581420898,-0.9997311234474182,-0.9999932646751404],"max":[0.9999951720237732,0.9999988675117493,0.9999938607215881]},{"bufferView":2,"componentType":5126,"count":43613,"type":"VEC2"},{"bufferView":3,"componentType":5123,"count":238947,"type":"SCALAR","min":[0],"max":[43612]},{"bufferView":4,"componentType":5126,"count":112383,"type":"VEC3","min":[-5.257299423217773,5.8226118087768555,-5.784946918487549],"max":[5.22060489654541,19.914609909057617,5.719465732574463]},{"bufferView":5,"componentType":5126,"count":112383,"type":"VEC3","min":[-0.9999371767044067,-0.9999822378158569,-0.9999147057533264],"max":[0.9999712109565735,0.9999740123748779,0.9999995231628418]},{"bufferView":6,"componentType":5126,"count":112383,"type":"VEC2"},{"bufferView":7,"componentType":5125,"count":285777,"type":"SCALAR","min":[0],"max":[112382]},{"bufferView":8,"componentType":5126,"count":11089,"type":"VEC3","min":[-4.851109601775248,0.0006237854455747261,-5.303788827459569],"max":[4.550954681059636,19.608691371438677,5.0640083671982845]},{"bufferView":9,"componentType":5126,"count":11089,"type":"VEC3","min":[-0.9999694228172302,-0.9998269081115723,-0.9999877214431763],"max":[0.9999587535858154,0.9999783635139465,0.9998165369033813]},{"bufferView":10,"componentType":5126,"count":11089,"type":"VEC2"},{"bufferView":11,"componentType":5123,"count":35856,"type":"SCALAR","min":[0],"max":[11088]},{"bufferView":12,"componentType":5126,"count":42012,"type":"VEC3","min":[-5.13730525970459,5.8258376121521,-5.59823751449585],"max":[5.227867126464844,19.907169342041016,5.733288764953613]},{"bufferView":13,"componentType":5126,"count":42012,"type":"VEC3","min":[-0.9999262690544128,-0.9999822378158569,-0.9998803734779358],"max":[0.9999712109565735,0.9999623894691467,0.9999995231628418]},{"bufferView":14,"componentType":5126,"count":42012,"type":"VEC2"},{"bufferView":15,"componentType":5123,"count":108000,"type":"SCALAR","min":[0],"max":[42011]},{"bufferView":16,"componentType":5126,"count":16,"type":"VEC3","min":[-6.38,0,-6.38],"max":[6.38,20.0,6.38]},{"bufferView":17,"componentType":5126,"count":16,"type":"VEC3","min":[-1.0,0,-0.7071067811865475],"max":[-0.0,0,1.0]},{"bufferView":18,"componentType":5126,"count":16,"type":"VEC2"},{"bufferView":19,"componentType":5123,"count":24,"type":"SCALAR","min":[0],"max":[15]},{"bufferView":20,"componentType":5126,"count":8,"type":"VEC3","min":[-6.38,0,-6.38],"max":[6.38,20.0,6.38]},{"bufferView":21,"componentType":5126,"count":8,"type":"VEC3","min":[-1.0,0,6.123233995736766e-17],"max":[-0.0,0,1.0]},{"bufferView":22,"componentType":5126,"count":8,"type":"VEC2"},{"bufferView":23,"componentType":5123,"count":12,"type":"SCALAR","min":[0],"max":[7]}],"samplers":[{"magFilter":9729,"minFilter":9987,"wrapS":10497,"wrapT":10497}],"images":[{"uri":"textures/poly_pine_bark.jpg"},{"uri":"textures/poly_pine_foliage.png"},{"uri":"impostors/kiefer_a_winter.png"}],"textures":[{"source":0,"sampler":0},{"source":1,"sampler":0},{"source":2,"sampler":0}],"materials":[{"name":"bark","pbrMetallicRoughness":{"baseColorFactor":[0.82,0.82,0.82,1.0],"baseColorTexture":{"index":0},"metallicFactor":0.0,"roughnessFactor":0.91},"doubleSided":false},{"name":"foliage","pbrMetallicRoughness":{"baseColorFactor":[0.6606470588235295,1.0,0.8366470588235295,1.0],"baseColorTexture":{"index":1},"metallicFactor":0.0,"roughnessFactor":0.78},"doubleSided":true,"alphaMode":"MASK","alphaCutoff":0.18},{"name":"whole_tree_impostor","pbrMetallicRoughness":{"baseColorFactor":[1,1,1,1],"baseColorTexture":{"index":2},"metallicFactor":0.0,"roughnessFactor":0.92},"doubleSided":true,"alphaMode":"MASK","alphaCutoff":0.18}]}