{
 "asset": {
  "version": "2.0",
  "generator": "tools/trees/build_trees.mjs (Connected Rails, geometry by ez-tree)",
  "copyright": "Connected Rails contributors, EUPL-1.2. Generated with ez-tree (MIT, Daniel Greenheck)."
 },
 "scene": 0,
 "scenes": [
  {
   "name": "kiefer_b",
   "nodes": [
    0,
    1,
    2,
    3
   ]
  }
 ],
 "nodes": [
  {
   "name": "crown_LOD0",
   "mesh": 0
  },
  {
   "name": "crown_LOD1",
   "mesh": 1
  },
  {
   "name": "crown_LOD2",
   "mesh": 2
  },
  {
   "name": "crown_LOD3",
   "mesh": 3
  }
 ],
 "meshes": [
  {
   "name": "crown_LOD0",
   "primitives": [
    {
     "attributes": {
      "POSITION": 0,
      "NORMAL": 1,
      "TEXCOORD_0": 2
     },
     "indices": 3,
     "material": 0
    }
   ]
  },
  {
   "name": "crown_LOD1",
   "primitives": [
    {
     "attributes": {
      "POSITION": 4,
      "NORMAL": 5,
      "TEXCOORD_0": 6
     },
     "indices": 7,
     "material": 0
    }
   ]
  },
  {
   "name": "crown_LOD2",
   "primitives": [
    {
     "attributes": {
      "POSITION": 8,
      "NORMAL": 9,
      "TEXCOORD_0": 10
     },
     "indices": 11,
     "material": 0
    }
   ]
  },
  {
   "name": "crown_LOD3",
   "primitives": [
    {
     "attributes": {
      "POSITION": 12,
      "NORMAL": 13,
      "TEXCOORD_0": 14
     },
     "indices": 15,
     "material": 0
    }
   ]
  }
 ],
 "materials": [
  {
   "name": "kiefer_winter",
   "pbrMetallicRoughness": {
    "baseColorTexture": {
     "index": 0
    },
    "baseColorFactor": [
     1,
     1,
     1,
     1
    ],
    "metallicFactor": 0,
    "roughnessFactor": 0.9
   },
   "alphaMode": "MASK",
   "alphaCutoff": 0.4,
   "doubleSided": true
  }
 ],
 "textures": [
  {
   "source": 0,
   "sampler": 0
  }
 ],
 "images": [
  {
   "uri": "kiefer_winter.png"
  }
 ],
 "samplers": [
  {
   "magFilter": 9729,
   "minFilter": 9987,
   "wrapS": 33071,
   "wrapT": 33071
  }
 ],
 "accessors": [
  {
   "bufferView": 0,
   "componentType": 5126,
   "count": 7755,
   "type": "VEC3",
   "min": [
    -4.945757442731265,
    0,
    -3.281127944691586
   ],
   "max": [
    4.543486499087533,
    26,
    5.387692116032247
   ]
  },
  {
   "bufferView": 1,
   "componentType": 5126,
   "count": 7755,
   "type": "VEC3"
  },
  {
   "bufferView": 2,
   "componentType": 5126,
   "count": 7755,
   "type": "VEC2"
  },
  {
   "bufferView": 3,
   "componentType": 5123,
   "count": 14544,
   "type": "SCALAR"
  },
  {
   "bufferView": 4,
   "componentType": 5126,
   "count": 1692,
   "type": "VEC3",
   "min": [
    -5.275454323662882,
    0,
    -3.5874349638251157
   ],
   "max": [
    4.351993117559152,
    25.282872281919303,
    5.815633290729284
   ]
  },
  {
   "bufferView": 5,
   "componentType": 5126,
   "count": 1692,
   "type": "VEC3"
  },
  {
   "bufferView": 6,
   "componentType": 5126,
   "count": 1692,
   "type": "VEC2"
  },
  {
   "bufferView": 7,
   "componentType": 5123,
   "count": 2742,
   "type": "SCALAR"
  },
  {
   "bufferView": 8,
   "componentType": 5126,
   "count": 1068,
   "type": "VEC3",
   "min": [
    -5.409044079905895,
    0,
    -3.7876402933365436
   ],
   "max": [
    4.020685768569888,
    25.82364970941922,
    5.719674246152553
   ]
  },
  {
   "bufferView": 9,
   "componentType": 5126,
   "count": 1068,
   "type": "VEC3"
  },
  {
   "bufferView": 10,
   "componentType": 5126,
   "count": 1068,
   "type": "VEC2"
  },
  {
   "bufferView": 11,
   "componentType": 5123,
   "count": 1620,
   "type": "SCALAR"
  },
  {
   "bufferView": 12,
   "componentType": 5126,
   "count": 8,
   "type": "VEC3",
   "min": [
    -5.387692116032247,
    0,
    -5.387692116032247
   ],
   "max": [
    5.387692116032247,
    26,
    5.387692116032247
   ]
  },
  {
   "bufferView": 13,
   "componentType": 5126,
   "count": 8,
   "type": "VEC3"
  },
  {
   "bufferView": 14,
   "componentType": 5126,
   "count": 8,
   "type": "VEC2"
  },
  {
   "bufferView": 15,
   "componentType": 5123,
   "count": 12,
   "type": "SCALAR"
  }
 ],
 "bufferViews": [
  {
   "buffer": 0,
   "byteOffset": 0,
   "byteLength": 93060,
   "target": 34962,
   "byteStride": 12
  },
  {
   "buffer": 0,
   "byteOffset": 93060,
   "byteLength": 93060,
   "target": 34962,
   "byteStride": 12
  },
  {
   "buffer": 0,
   "byteOffset": 186120,
   "byteLength": 62040,
   "target": 34962,
   "byteStride": 8
  },
  {
   "buffer": 0,
   "byteOffset": 248160,
   "byteLength": 29088,
   "target": 34963
  },
  {
   "buffer": 0,
   "byteOffset": 277248,
   "byteLength": 20304,
   "target": 34962,
   "byteStride": 12
  },
  {
   "buffer": 0,
   "byteOffset": 297552,
   "byteLength": 20304,
   "target": 34962,
   "byteStride": 12
  },
  {
   "buffer": 0,
   "byteOffset": 317856,
   "byteLength": 13536,
   "target": 34962,
   "byteStride": 8
  },
  {
   "buffer": 0,
   "byteOffset": 331392,
   "byteLength": 5484,
   "target": 34963
  },
  {
   "buffer": 0,
   "byteOffset": 336876,
   "byteLength": 12816,
   "target": 34962,
   "byteStride": 12
  },
  {
   "buffer": 0,
   "byteOffset": 349692,
   "byteLength": 12816,
   "target": 34962,
   "byteStride": 12
  },
  {
   "buffer": 0,
   "byteOffset": 362508,
   "byteLength": 8544,
   "target": 34962,
   "byteStride": 8
  },
  {
   "buffer": 0,
   "byteOffset": 371052,
   "byteLength": 3240,
   "target": 34963
  },
  {
   "buffer": 0,
   "byteOffset": 374292,
   "byteLength": 96,
   "target": 34962,
   "byteStride": 12
  },
  {
   "buffer": 0,
   "byteOffset": 374388,
   "byteLength": 96,
   "target": 34962,
   "byteStride": 12
  },
  {
   "buffer": 0,
   "byteOffset": 374484,
   "byteLength": 64,
   "target": 34962,
   "byteStride": 8
  },
  {
   "buffer": 0,
   "byteOffset": 374548,
   "byteLength": 24,
   "target": 34963
  }
 ],
 "buffers": [
  {
   "uri": "kiefer_b.bin",
   "byteLength": 374572
  }
 ]
}
