{"asset":{"version":"2.0","generator":"Connected Rails CC0 tree importer","copyright":"Mantissa and Poly Haven source models: CC0 1.0; optimisation: Connected Rails"},"scene":0,"scenes":[{"nodes":[0,1,2,3]}],"nodes":[{"name":"crown_LOD0","mesh":0},{"name":"crown_LOD1","mesh":1},{"name":"crown_LOD2","mesh":2},{"name":"crown_LOD3","mesh":3}],"meshes":[{"name":"crown_LOD0","primitives":[{"attributes":{"POSITION":0,"NORMAL":1,"TEXCOORD_0":2},"indices":3,"material":0}]},{"name":"crown_LOD1","primitives":[{"attributes":{"POSITION":8,"NORMAL":9,"TEXCOORD_0":10},"indices":11,"material":0}]},{"name":"crown_LOD2","primitives":[{"attributes":{"POSITION":16,"NORMAL":17,"TEXCOORD_0":18},"indices":19,"material":2}]},{"name":"crown_LOD3","primitives":[{"attributes":{"POSITION":20,"NORMAL":21,"TEXCOORD_0":22},"indices":23,"material":2}]}],"buffers":[{"uri":"laerche_c.bin","byteLength":5131532}],"bufferViews":[{"buffer":0,"byteOffset":0,"byteLength":372456,"target":34962},{"buffer":0,"byteOffset":372456,"byteLength":372456,"target":34962},{"buffer":0,"byteOffset":744912,"byteLength":248304,"target":34962},{"buffer":0,"byteOffset":993216,"byteLength":280812,"target":34963},{"buffer":0,"byteOffset":1274028,"byteLength":731676,"target":34962},{"buffer":0,"byteOffset":2005704,"byteLength":731676,"target":34962},{"buffer":0,"byteOffset":2737380,"byteLength":487784,"target":34962},{"buffer":0,"byteOffset":3225164,"byteLength":575076,"target":34963},{"buffer":0,"byteOffset":3800240,"byteLength":133068,"target":34962},{"buffer":0,"byteOffset":3933308,"byteLength":133068,"target":34962},{"buffer":0,"byteOffset":4066376,"byteLength":88712,"target":34962},{"buffer":0,"byteOffset":4155088,"byteLength":71712,"target":34963},{"buffer":0,"byteOffset":4226800,"byteLength":262752,"target":34962},{"buffer":0,"byteOffset":4489552,"byteLength":262752,"target":34962},{"buffer":0,"byteOffset":4752304,"byteLength":175168,"target":34962},{"buffer":0,"byteOffset":4927472,"byteLength":203220,"target":34963},{"buffer":0,"byteOffset":5130692,"byteLength":192,"target":34962},{"buffer":0,"byteOffset":5130884,"byteLength":192,"target":34962},{"buffer":0,"byteOffset":5131076,"byteLength":128,"target":34962},{"buffer":0,"byteOffset":5131204,"byteLength":48,"target":34963},{"buffer":0,"byteOffset":5131252,"byteLength":96,"target":34962},{"buffer":0,"byteOffset":5131348,"byteLength":96,"target":34962},{"buffer":0,"byteOffset":5131444,"byteLength":64,"target":34962},{"buffer":0,"byteOffset":5131508,"byteLength":24,"target":34963}],"accessors":[{"bufferView":0,"componentType":5126,"count":31038,"type":"VEC3","min":[-6.322707246871926,0.0,-6.9565948403836275],"max":[5.944782836705685,35.25758988764867,6.570253799223268]},{"bufferView":1,"componentType":5126,"count":31038,"type":"VEC3","min":[-0.9999909996986389,-0.999813973903656,-0.9999933242797852],"max":[0.9999979734420776,0.9999926686286926,0.9999475479125977]},{"bufferView":2,"componentType":5126,"count":31038,"type":"VEC2"},{"bufferView":3,"componentType":5123,"count":140406,"type":"SCALAR","min":[0],"max":[31037]},{"bufferView":4,"componentType":5126,"count":60973,"type":"VEC3","min":[-6.745635032653809,10.491150856018066,-7.559999942779541],"max":[6.924691200256348,35.94611740112305,7.503671169281006]},{"bufferView":5,"componentType":5126,"count":60973,"type":"VEC3","min":[-0.9999025464057922,-0.9999465346336365,-0.9999231696128845],"max":[0.9999803900718689,0.9999585151672363,0.9999920725822449]},{"bufferView":6,"componentType":5126,"count":60973,"type":"VEC2"},{"bufferView":7,"componentType":5123,"count":287538,"type":"SCALAR","min":[0],"max":[60972]},{"bufferView":8,"componentType":5126,"count":11089,"type":"VEC3","min":[-6.332727107726153,0.0011720849976956849,-6.9565948403836275],"max":[5.944782836705685,35.25758988764867,6.581999380000064]},{"bufferView":9,"componentType":5126,"count":11089,"type":"VEC3","min":[-0.9999808669090271,-0.9996717572212219,-0.9999926686286926],"max":[0.9999646544456482,0.9999590516090393,0.9998932480812073]},{"bufferView":10,"componentType":5126,"count":11089,"type":"VEC2"},{"bufferView":11,"componentType":5123,"count":35856,"type":"SCALAR","min":[0],"max":[11088]},{"bufferView":12,"componentType":5126,"count":21896,"type":"VEC3","min":[-6.841015338897705,10.476051330566406,-7.058389186859131],"max":[6.773156642913818,36.11642837524414,7.399397850036621]},{"bufferView":13,"componentType":5126,"count":21896,"type":"VEC3","min":[-0.9999025464057922,-0.9998044967651367,-0.9999231696128845],"max":[0.9999145865440369,0.999957799911499,0.9999920725822449]},{"bufferView":14,"componentType":5126,"count":21896,"type":"VEC2"},{"bufferView":15,"componentType":5123,"count":101610,"type":"SCALAR","min":[0],"max":[21895]},{"bufferView":16,"componentType":5126,"count":16,"type":"VEC3","min":[-8.316,0,-8.316],"max":[8.316,36.0,8.316]},{"bufferView":17,"componentType":5126,"count":16,"type":"VEC3","min":[-1.0,0,-0.7071067811865475],"max":[-0.0,0,1.0]},{"bufferView":18,"componentType":5126,"count":16,"type":"VEC2"},{"bufferView":19,"componentType":5123,"count":24,"type":"SCALAR","min":[0],"max":[15]},{"bufferView":20,"componentType":5126,"count":8,"type":"VEC3","min":[-8.316,0,-8.316],"max":[8.316,36.0,8.316]},{"bufferView":21,"componentType":5126,"count":8,"type":"VEC3","min":[-1.0,0,6.123233995736766e-17],"max":[-0.0,0,1.0]},{"bufferView":22,"componentType":5126,"count":8,"type":"VEC2"},{"bufferView":23,"componentType":5123,"count":12,"type":"SCALAR","min":[0],"max":[7]}],"samplers":[{"magFilter":9729,"minFilter":9987,"wrapS":10497,"wrapT":10497}],"images":[{"uri":"textures/poly_pine_bark.jpg"},{"uri":"textures/poly_pine_foliage.png"},{"uri":"impostors/laerche_c_winter.png"}],"textures":[{"source":0,"sampler":0},{"source":1,"sampler":0},{"source":2,"sampler":0}],"materials":[{"name":"bark","pbrMetallicRoughness":{"baseColorFactor":[0.82,0.82,0.82,1.0],"baseColorTexture":{"index":0},"metallicFactor":0.0,"roughnessFactor":0.91},"doubleSided":false},{"name":"foliage","pbrMetallicRoughness":{"baseColorFactor":[0.0,0.0,0.0,0.0],"baseColorTexture":{"index":1},"metallicFactor":0.0,"roughnessFactor":0.78},"doubleSided":true,"alphaMode":"MASK","alphaCutoff":0.18},{"name":"whole_tree_impostor","pbrMetallicRoughness":{"baseColorFactor":[1,1,1,1],"baseColorTexture":{"index":2},"metallicFactor":0.0,"roughnessFactor":0.92},"doubleSided":true,"alphaMode":"MASK","alphaCutoff":0.18}]}