{"asset":{"version":"2.0","generator":"Connected Rails CC0 tree importer","copyright":"Mantissa and Poly Haven source models: CC0 1.0; optimisation: Connected Rails"},"scene":0,"scenes":[{"nodes":[0,1,2,3]}],"nodes":[{"name":"crown_LOD0","mesh":0},{"name":"crown_LOD1","mesh":1},{"name":"crown_LOD2","mesh":2},{"name":"crown_LOD3","mesh":3}],"meshes":[{"name":"crown_LOD0","primitives":[{"attributes":{"POSITION":0,"NORMAL":1,"TEXCOORD_0":2},"indices":3,"material":0}]},{"name":"crown_LOD1","primitives":[{"attributes":{"POSITION":8,"NORMAL":9,"TEXCOORD_0":10},"indices":11,"material":0}]},{"name":"crown_LOD2","primitives":[{"attributes":{"POSITION":16,"NORMAL":17,"TEXCOORD_0":18},"indices":19,"material":2}]},{"name":"crown_LOD3","primitives":[{"attributes":{"POSITION":20,"NORMAL":21,"TEXCOORD_0":22},"indices":23,"material":2}]}],"buffers":[{"uri":"laerche_b.bin","byteLength":8527936}],"bufferViews":[{"buffer":0,"byteOffset":0,"byteLength":464112,"target":34962},{"buffer":0,"byteOffset":464112,"byteLength":464112,"target":34962},{"buffer":0,"byteOffset":928224,"byteLength":309408,"target":34962},{"buffer":0,"byteOffset":1237632,"byteLength":428196,"target":34963},{"buffer":0,"byteOffset":1665828,"byteLength":1385136,"target":34962},{"buffer":0,"byteOffset":3050964,"byteLength":1385136,"target":34962},{"buffer":0,"byteOffset":4436100,"byteLength":923424,"target":34962},{"buffer":0,"byteOffset":5359524,"byteLength":1152000,"target":34963},{"buffer":0,"byteOffset":6511524,"byteLength":130176,"target":34962},{"buffer":0,"byteOffset":6641700,"byteLength":130176,"target":34962},{"buffer":0,"byteOffset":6771876,"byteLength":86784,"target":34962},{"buffer":0,"byteOffset":6858660,"byteLength":74868,"target":34963},{"buffer":0,"byteOffset":6933528,"byteLength":516588,"target":34962},{"buffer":0,"byteOffset":7450116,"byteLength":516588,"target":34962},{"buffer":0,"byteOffset":7966704,"byteLength":344392,"target":34962},{"buffer":0,"byteOffset":8311096,"byteLength":216000,"target":34963},{"buffer":0,"byteOffset":8527096,"byteLength":192,"target":34962},{"buffer":0,"byteOffset":8527288,"byteLength":192,"target":34962},{"buffer":0,"byteOffset":8527480,"byteLength":128,"target":34962},{"buffer":0,"byteOffset":8527608,"byteLength":48,"target":34963},{"buffer":0,"byteOffset":8527656,"byteLength":96,"target":34962},{"buffer":0,"byteOffset":8527752,"byteLength":96,"target":34962},{"buffer":0,"byteOffset":8527848,"byteLength":64,"target":34962},{"buffer":0,"byteOffset":8527912,"byteLength":24,"target":34963}],"accessors":[{"bufferView":0,"componentType":5126,"count":38676,"type":"VEC3","min":[-5.08201374662896,0.0,-5.462733544702888],"max":[5.089995561530708,29.427586765660717,5.3887507020089895]},{"bufferView":1,"componentType":5126,"count":38676,"type":"VEC3","min":[-0.9999991059303284,-0.9999903440475464,-0.9999840259552002],"max":[0.9999947547912598,0.9999943971633911,0.9999949932098389]},{"bufferView":2,"componentType":5126,"count":38676,"type":"VEC2"},{"bufferView":3,"componentType":5123,"count":214098,"type":"SCALAR","min":[0],"max":[38675]},{"bufferView":4,"componentType":5126,"count":115428,"type":"VEC3","min":[-6.036604881286621,7.653036594390869,-6.292317867279053],"max":[5.959964752197266,29.710966110229492,6.300000190734863]},{"bufferView":5,"componentType":5126,"count":115428,"type":"VEC3","min":[-0.9999487400054932,-0.9999805092811584,-0.9999992847442627],"max":[0.9999822378158569,0.999993622303009,0.9999997019767761]},{"bufferView":6,"componentType":5126,"count":115428,"type":"VEC2"},{"bufferView":7,"componentType":5125,"count":288000,"type":"SCALAR","min":[0],"max":[115427]},{"bufferView":8,"componentType":5126,"count":10848,"type":"VEC3","min":[-5.0845308176180035,0.0010814679036181619,-5.463516353015645],"max":[5.089995561530708,29.437149599573804,5.3887507020089895]},{"bufferView":9,"componentType":5126,"count":10848,"type":"VEC3","min":[-0.9999054074287415,-0.9994477033615112,-0.9998833537101746],"max":[0.9999091029167175,0.9998562932014465,0.999978244304657]},{"bufferView":10,"componentType":5126,"count":10848,"type":"VEC2"},{"bufferView":11,"componentType":5123,"count":37434,"type":"SCALAR","min":[0],"max":[10847]},{"bufferView":12,"componentType":5126,"count":43049,"type":"VEC3","min":[-6.0423665046691895,7.664511680603027,-6.318778991699219],"max":[5.913869857788086,29.647111892700195,6.124100208282471]},{"bufferView":13,"componentType":5126,"count":43049,"type":"VEC3","min":[-0.9999381303787231,-0.9999241232872009,-0.9999902844429016],"max":[0.9999822378158569,0.999993622303009,0.9999341368675232]},{"bufferView":14,"componentType":5126,"count":43049,"type":"VEC2"},{"bufferView":15,"componentType":5123,"count":108000,"type":"SCALAR","min":[0],"max":[43048]},{"bufferView":16,"componentType":5126,"count":16,"type":"VEC3","min":[-6.930000000000001,0,-6.930000000000001],"max":[6.930000000000001,30.0,6.930000000000001]},{"bufferView":17,"componentType":5126,"count":16,"type":"VEC3","min":[-1.0,0,-0.7071067811865475],"max":[-0.0,0,1.0]},{"bufferView":18,"componentType":5126,"count":16,"type":"VEC2"},{"bufferView":19,"componentType":5123,"count":24,"type":"SCALAR","min":[0],"max":[15]},{"bufferView":20,"componentType":5126,"count":8,"type":"VEC3","min":[-6.930000000000001,0,-6.930000000000001],"max":[6.930000000000001,30.0,6.930000000000001]},{"bufferView":21,"componentType":5126,"count":8,"type":"VEC3","min":[-1.0,0,6.123233995736766e-17],"max":[-0.0,0,1.0]},{"bufferView":22,"componentType":5126,"count":8,"type":"VEC2"},{"bufferView":23,"componentType":5123,"count":12,"type":"SCALAR","min":[0],"max":[7]}],"samplers":[{"magFilter":9729,"minFilter":9987,"wrapS":10497,"wrapT":10497}],"images":[{"uri":"textures/poly_pine_bark.jpg"},{"uri":"textures/poly_pine_foliage.png"},{"uri":"impostors/laerche_b_winter.png"}],"textures":[{"source":0,"sampler":0},{"source":1,"sampler":0},{"source":2,"sampler":0}],"materials":[{"name":"bark","pbrMetallicRoughness":{"baseColorFactor":[0.82,0.82,0.82,1.0],"baseColorTexture":{"index":0},"metallicFactor":0.0,"roughnessFactor":0.91},"doubleSided":false},{"name":"foliage","pbrMetallicRoughness":{"baseColorFactor":[0.0,0.0,0.0,0.0],"baseColorTexture":{"index":1},"metallicFactor":0.0,"roughnessFactor":0.78},"doubleSided":true,"alphaMode":"MASK","alphaCutoff":0.18},{"name":"whole_tree_impostor","pbrMetallicRoughness":{"baseColorFactor":[1,1,1,1],"baseColorTexture":{"index":2},"metallicFactor":0.0,"roughnessFactor":0.92},"doubleSided":true,"alphaMode":"MASK","alphaCutoff":0.18}]}