{"asset":{"version":"2.0","generator":"Connected Rails CC0 tree importer","copyright":"Mantissa and Poly Haven source models: CC0 1.0; optimisation: Connected Rails"},"scene":0,"scenes":[{"nodes":[0,1,2,3]}],"nodes":[{"name":"crown_LOD0","mesh":0},{"name":"crown_LOD1","mesh":1},{"name":"crown_LOD2","mesh":2},{"name":"crown_LOD3","mesh":3}],"meshes":[{"name":"crown_LOD0","primitives":[{"attributes":{"POSITION":0,"NORMAL":1,"TEXCOORD_0":2},"indices":3,"material":0}]},{"name":"crown_LOD1","primitives":[{"attributes":{"POSITION":8,"NORMAL":9,"TEXCOORD_0":10},"indices":11,"material":0}]},{"name":"crown_LOD2","primitives":[{"attributes":{"POSITION":16,"NORMAL":17,"TEXCOORD_0":18},"indices":19,"material":2}]},{"name":"crown_LOD3","primitives":[{"attributes":{"POSITION":20,"NORMAL":21,"TEXCOORD_0":22},"indices":23,"material":2}]}],"buffers":[{"uri":"laerche_a.bin","byteLength":8432292}],"bufferViews":[{"buffer":0,"byteOffset":0,"byteLength":513648,"target":34962},{"buffer":0,"byteOffset":513648,"byteLength":513648,"target":34962},{"buffer":0,"byteOffset":1027296,"byteLength":342432,"target":34962},{"buffer":0,"byteOffset":1369728,"byteLength":477702,"target":34963},{"buffer":0,"byteOffset":1847432,"byteLength":1347492,"target":34962},{"buffer":0,"byteOffset":3194924,"byteLength":1347492,"target":34962},{"buffer":0,"byteOffset":4542416,"byteLength":898328,"target":34962},{"buffer":0,"byteOffset":5440744,"byteLength":1108716,"target":34963},{"buffer":0,"byteOffset":6549460,"byteLength":125724,"target":34962},{"buffer":0,"byteOffset":6675184,"byteLength":125724,"target":34962},{"buffer":0,"byteOffset":6800908,"byteLength":83816,"target":34962},{"buffer":0,"byteOffset":6884724,"byteLength":71748,"target":34963},{"buffer":0,"byteOffset":6956472,"byteLength":480804,"target":34962},{"buffer":0,"byteOffset":7437276,"byteLength":480804,"target":34962},{"buffer":0,"byteOffset":7918080,"byteLength":320536,"target":34962},{"buffer":0,"byteOffset":8238616,"byteLength":192834,"target":34963},{"buffer":0,"byteOffset":8431452,"byteLength":192,"target":34962},{"buffer":0,"byteOffset":8431644,"byteLength":192,"target":34962},{"buffer":0,"byteOffset":8431836,"byteLength":128,"target":34962},{"buffer":0,"byteOffset":8431964,"byteLength":48,"target":34963},{"buffer":0,"byteOffset":8432012,"byteLength":96,"target":34962},{"buffer":0,"byteOffset":8432108,"byteLength":96,"target":34962},{"buffer":0,"byteOffset":8432204,"byteLength":64,"target":34962},{"buffer":0,"byteOffset":8432268,"byteLength":24,"target":34963}],"accessors":[{"bufferView":0,"componentType":5126,"count":42804,"type":"VEC3","min":[-4.030672343752412,0.0,-4.476114158833119],"max":[4.0021113953587335,23.00418992981048,4.2979626136336675]},{"bufferView":1,"componentType":5126,"count":42804,"type":"VEC3","min":[-0.999962568283081,-0.9977734684944153,-0.9999693632125854],"max":[0.9999880790710449,0.9999882578849792,0.9999871253967285]},{"bufferView":2,"componentType":5126,"count":42804,"type":"VEC2"},{"bufferView":3,"componentType":5123,"count":238851,"type":"SCALAR","min":[0],"max":[42803]},{"bufferView":4,"componentType":5126,"count":112291,"type":"VEC3","min":[-4.709212303161621,7.651580333709717,-5.003695487976074],"max":[4.75333309173584,23.825124740600586,4.949267864227295]},{"bufferView":5,"componentType":5126,"count":112291,"type":"VEC3","min":[-0.9999863505363464,-0.9999983310699463,-0.9999983906745911],"max":[0.9999892115592957,0.9999610781669617,0.9999213814735413]},{"bufferView":6,"componentType":5126,"count":112291,"type":"VEC2"},{"bufferView":7,"componentType":5125,"count":277179,"type":"SCALAR","min":[0],"max":[112290]},{"bufferView":8,"componentType":5126,"count":10477,"type":"VEC3","min":[-4.030672343752412,0.0031881939541771737,-4.476114158833119],"max":[4.0021113953587335,23.00418992981048,4.2979626136336675]},{"bufferView":9,"componentType":5126,"count":10477,"type":"VEC3","min":[-0.9999465346336365,-0.9972392916679382,-0.9999820590019226],"max":[0.9999344944953918,0.9997376203536987,0.9999943971633911]},{"bufferView":10,"componentType":5126,"count":10477,"type":"VEC2"},{"bufferView":11,"componentType":5123,"count":35874,"type":"SCALAR","min":[0],"max":[10476]},{"bufferView":12,"componentType":5126,"count":40067,"type":"VEC3","min":[-4.720065593719482,7.659419059753418,-5.008000373840332],"max":[4.585251331329346,23.82343864440918,4.852474212646484]},{"bufferView":13,"componentType":5126,"count":40067,"type":"VEC3","min":[-0.9999863505363464,-0.9999458193778992,-0.9999983906745911],"max":[0.9998013973236084,0.9999610781669617,0.9998840689659119]},{"bufferView":14,"componentType":5126,"count":40067,"type":"VEC2"},{"bufferView":15,"componentType":5123,"count":96417,"type":"SCALAR","min":[0],"max":[40066]},{"bufferView":16,"componentType":5126,"count":16,"type":"VEC3","min":[-5.5440000000000005,0,-5.5440000000000005],"max":[5.5440000000000005,24.0,5.5440000000000005]},{"bufferView":17,"componentType":5126,"count":16,"type":"VEC3","min":[-1.0,0,-0.7071067811865475],"max":[-0.0,0,1.0]},{"bufferView":18,"componentType":5126,"count":16,"type":"VEC2"},{"bufferView":19,"componentType":5123,"count":24,"type":"SCALAR","min":[0],"max":[15]},{"bufferView":20,"componentType":5126,"count":8,"type":"VEC3","min":[-5.5440000000000005,0,-5.5440000000000005],"max":[5.5440000000000005,24.0,5.5440000000000005]},{"bufferView":21,"componentType":5126,"count":8,"type":"VEC3","min":[-1.0,0,6.123233995736766e-17],"max":[-0.0,0,1.0]},{"bufferView":22,"componentType":5126,"count":8,"type":"VEC2"},{"bufferView":23,"componentType":5123,"count":12,"type":"SCALAR","min":[0],"max":[7]}],"samplers":[{"magFilter":9729,"minFilter":9987,"wrapS":10497,"wrapT":10497}],"images":[{"uri":"textures/poly_pine_bark.jpg"},{"uri":"textures/poly_pine_foliage.png"},{"uri":"impostors/laerche_a_winter.png"}],"textures":[{"source":0,"sampler":0},{"source":1,"sampler":0},{"source":2,"sampler":0}],"materials":[{"name":"bark","pbrMetallicRoughness":{"baseColorFactor":[0.82,0.82,0.82,1.0],"baseColorTexture":{"index":0},"metallicFactor":0.0,"roughnessFactor":0.91},"doubleSided":false},{"name":"foliage","pbrMetallicRoughness":{"baseColorFactor":[0.0,0.0,0.0,0.0],"baseColorTexture":{"index":1},"metallicFactor":0.0,"roughnessFactor":0.78},"doubleSided":true,"alphaMode":"MASK","alphaCutoff":0.18},{"name":"whole_tree_impostor","pbrMetallicRoughness":{"baseColorFactor":[1,1,1,1],"baseColorTexture":{"index":2},"metallicFactor":0.0,"roughnessFactor":0.92},"doubleSided":true,"alphaMode":"MASK","alphaCutoff":0.18}]}