{"asset":{"version":"2.0","generator":"Connected Rails CC0 tree importer","copyright":"Mantissa and Poly Haven source models: CC0 1.0; optimisation: Connected Rails"},"scene":0,"scenes":[{"nodes":[0,1,2,3]}],"nodes":[{"name":"crown_LOD0","mesh":0},{"name":"crown_LOD1","mesh":1},{"name":"crown_LOD2","mesh":2},{"name":"crown_LOD3","mesh":3}],"meshes":[{"name":"crown_LOD0","primitives":[{"attributes":{"POSITION":0,"NORMAL":1,"TEXCOORD_0":2},"indices":3,"material":0},{"attributes":{"POSITION":4,"NORMAL":5,"TEXCOORD_0":6},"indices":7,"material":1}]},{"name":"crown_LOD1","primitives":[{"attributes":{"POSITION":8,"NORMAL":9,"TEXCOORD_0":10},"indices":11,"material":0},{"attributes":{"POSITION":12,"NORMAL":13,"TEXCOORD_0":14},"indices":15,"material":1}]},{"name":"crown_LOD2","primitives":[{"attributes":{"POSITION":16,"NORMAL":17,"TEXCOORD_0":18},"indices":19,"material":2}]},{"name":"crown_LOD3","primitives":[{"attributes":{"POSITION":20,"NORMAL":21,"TEXCOORD_0":22},"indices":23,"material":2}]}],"buffers":[{"uri":"laerche_c.bin","byteLength":8600756}],"bufferViews":[{"buffer":0,"byteOffset":0,"byteLength":523356,"target":34962},{"buffer":0,"byteOffset":523356,"byteLength":523356,"target":34962},{"buffer":0,"byteOffset":1046712,"byteLength":348904,"target":34962},{"buffer":0,"byteOffset":1395616,"byteLength":477894,"target":34963},{"buffer":0,"byteOffset":1873512,"byteLength":1348632,"target":34962},{"buffer":0,"byteOffset":3222144,"byteLength":1348632,"target":34962},{"buffer":0,"byteOffset":4570776,"byteLength":899088,"target":34962},{"buffer":0,"byteOffset":5469864,"byteLength":1143108,"target":34963},{"buffer":0,"byteOffset":6612972,"byteLength":133068,"target":34962},{"buffer":0,"byteOffset":6746040,"byteLength":133068,"target":34962},{"buffer":0,"byteOffset":6879108,"byteLength":88712,"target":34962},{"buffer":0,"byteOffset":6967820,"byteLength":71712,"target":34963},{"buffer":0,"byteOffset":7039532,"byteLength":504144,"target":34962},{"buffer":0,"byteOffset":7543676,"byteLength":504144,"target":34962},{"buffer":0,"byteOffset":8047820,"byteLength":336096,"target":34962},{"buffer":0,"byteOffset":8383916,"byteLength":216000,"target":34963},{"buffer":0,"byteOffset":8599916,"byteLength":192,"target":34962},{"buffer":0,"byteOffset":8600108,"byteLength":192,"target":34962},{"buffer":0,"byteOffset":8600300,"byteLength":128,"target":34962},{"buffer":0,"byteOffset":8600428,"byteLength":48,"target":34963},{"buffer":0,"byteOffset":8600476,"byteLength":96,"target":34962},{"buffer":0,"byteOffset":8600572,"byteLength":96,"target":34962},{"buffer":0,"byteOffset":8600668,"byteLength":64,"target":34962},{"buffer":0,"byteOffset":8600732,"byteLength":24,"target":34963}],"accessors":[{"bufferView":0,"componentType":5126,"count":43613,"type":"VEC3","min":[-6.313168871035572,0.0,-6.914411053813571],"max":[5.9319340325535945,35.295644468589614,6.589635602825563]},{"bufferView":1,"componentType":5126,"count":43613,"type":"VEC3","min":[-0.9999841451644897,-0.9994875192642212,-0.9999946355819702],"max":[0.9999951124191284,0.9999977946281433,0.9999938011169434]},{"bufferView":2,"componentType":5126,"count":43613,"type":"VEC2"},{"bufferView":3,"componentType":5123,"count":238947,"type":"SCALAR","min":[0],"max":[43612]},{"bufferView":4,"componentType":5126,"count":112386,"type":"VEC3","min":[-6.852617263793945,10.48070240020752,-7.540379524230957],"max":[6.804788589477539,35.84629821777344,7.455027103424072]},{"bufferView":5,"componentType":5126,"count":112386,"type":"VEC3","min":[-0.9999371767044067,-0.9999822378158569,-0.9999147057533264],"max":[0.9999712109565735,0.9999740123748779,0.9999995231628418]},{"bufferView":6,"componentType":5126,"count":112386,"type":"VEC2"},{"bufferView":7,"componentType":5125,"count":285777,"type":"SCALAR","min":[0],"max":[112385]},{"bufferView":8,"componentType":5126,"count":11089,"type":"VEC3","min":[-6.323170446451875,0.001122813802034507,-6.913214402688679],"max":[5.9319340325535945,35.295644468589614,6.600672975175693]},{"bufferView":9,"componentType":5126,"count":11089,"type":"VEC3","min":[-0.9999809265136719,-0.9996698498725891,-0.9999927282333374],"max":[0.9999647736549377,0.9999588131904602,0.9998937845230103]},{"bufferView":10,"componentType":5126,"count":11089,"type":"VEC2"},{"bufferView":11,"componentType":5123,"count":35856,"type":"SCALAR","min":[0],"max":[11088]},{"bufferView":12,"componentType":5126,"count":42012,"type":"VEC3","min":[-6.696211814880371,10.486507415771484,-7.297013282775879],"max":[6.814253807067871,35.83290100097656,7.473045349121094]},{"bufferView":13,"componentType":5126,"count":42012,"type":"VEC3","min":[-0.9999262690544128,-0.9999822378158569,-0.9998803734779358],"max":[0.9999712109565735,0.9999623894691467,0.9999995231628418]},{"bufferView":14,"componentType":5126,"count":42012,"type":"VEC2"},{"bufferView":15,"componentType":5123,"count":108000,"type":"SCALAR","min":[0],"max":[42011]},{"bufferView":16,"componentType":5126,"count":16,"type":"VEC3","min":[-8.316,0,-8.316],"max":[8.316,36.0,8.316]},{"bufferView":17,"componentType":5126,"count":16,"type":"VEC3","min":[-1.0,0,-0.7071067811865475],"max":[-0.0,0,1.0]},{"bufferView":18,"componentType":5126,"count":16,"type":"VEC2"},{"bufferView":19,"componentType":5123,"count":24,"type":"SCALAR","min":[0],"max":[15]},{"bufferView":20,"componentType":5126,"count":8,"type":"VEC3","min":[-8.316,0,-8.316],"max":[8.316,36.0,8.316]},{"bufferView":21,"componentType":5126,"count":8,"type":"VEC3","min":[-1.0,0,6.123233995736766e-17],"max":[-0.0,0,1.0]},{"bufferView":22,"componentType":5126,"count":8,"type":"VEC2"},{"bufferView":23,"componentType":5123,"count":12,"type":"SCALAR","min":[0],"max":[7]}],"samplers":[{"magFilter":9729,"minFilter":9987,"wrapS":10497,"wrapT":10497}],"images":[{"uri":"textures/poly_pine_bark.jpg"},{"uri":"textures/poly_pine_foliage.png"},{"uri":"impostors/laerche_c_autumn.png"}],"textures":[{"source":0,"sampler":0},{"source":1,"sampler":0},{"source":2,"sampler":0}],"materials":[{"name":"bark","pbrMetallicRoughness":{"baseColorFactor":[0.82,0.82,0.82,1.0],"baseColorTexture":{"index":0},"metallicFactor":0.0,"roughnessFactor":0.91},"doubleSided":false},{"name":"foliage","pbrMetallicRoughness":{"baseColorFactor":[0.88,0.54,0.08,1.0],"baseColorTexture":{"index":1},"metallicFactor":0.0,"roughnessFactor":0.78},"doubleSided":true,"alphaMode":"MASK","alphaCutoff":0.18},{"name":"whole_tree_impostor","pbrMetallicRoughness":{"baseColorFactor":[1,1,1,1],"baseColorTexture":{"index":2},"metallicFactor":0.0,"roughnessFactor":0.92},"doubleSided":true,"alphaMode":"MASK","alphaCutoff":0.18}]}