{"asset":{"version":"2.0","generator":"Connected Rails CC0 tree importer","copyright":"Mantissa and Poly Haven source models: CC0 1.0; optimisation: Connected Rails"},"scene":0,"scenes":[{"nodes":[0,1,2,3]}],"nodes":[{"name":"crown_LOD0","mesh":0},{"name":"crown_LOD1","mesh":1},{"name":"crown_LOD2","mesh":2},{"name":"crown_LOD3","mesh":3}],"meshes":[{"name":"crown_LOD0","primitives":[{"attributes":{"POSITION":0,"NORMAL":1,"TEXCOORD_0":2},"indices":3,"material":0},{"attributes":{"POSITION":4,"NORMAL":5,"TEXCOORD_0":6},"indices":7,"material":1}]},{"name":"crown_LOD1","primitives":[{"attributes":{"POSITION":8,"NORMAL":9,"TEXCOORD_0":10},"indices":11,"material":0},{"attributes":{"POSITION":12,"NORMAL":13,"TEXCOORD_0":14},"indices":15,"material":1}]},{"name":"crown_LOD2","primitives":[{"attributes":{"POSITION":16,"NORMAL":17,"TEXCOORD_0":18},"indices":19,"material":2}]},{"name":"crown_LOD3","primitives":[{"attributes":{"POSITION":20,"NORMAL":21,"TEXCOORD_0":22},"indices":23,"material":2}]}],"buffers":[{"uri":"laerche_a.bin","byteLength":4993476}],"bufferViews":[{"buffer":0,"byteOffset":0,"byteLength":340104,"target":34962},{"buffer":0,"byteOffset":340104,"byteLength":340104,"target":34962},{"buffer":0,"byteOffset":680208,"byteLength":226736,"target":34962},{"buffer":0,"byteOffset":906944,"byteLength":276846,"target":34963},{"buffer":0,"byteOffset":1183792,"byteLength":724236,"target":34962},{"buffer":0,"byteOffset":1908028,"byteLength":724236,"target":34962},{"buffer":0,"byteOffset":2632264,"byteLength":482824,"target":34962},{"buffer":0,"byteOffset":3115088,"byteLength":570876,"target":34963},{"buffer":0,"byteOffset":3685964,"byteLength":125724,"target":34962},{"buffer":0,"byteOffset":3811688,"byteLength":125724,"target":34962},{"buffer":0,"byteOffset":3937412,"byteLength":83816,"target":34962},{"buffer":0,"byteOffset":4021228,"byteLength":71748,"target":34963},{"buffer":0,"byteOffset":4092976,"byteLength":260544,"target":34962},{"buffer":0,"byteOffset":4353520,"byteLength":260544,"target":34962},{"buffer":0,"byteOffset":4614064,"byteLength":173696,"target":34962},{"buffer":0,"byteOffset":4787760,"byteLength":204876,"target":34963},{"buffer":0,"byteOffset":4992636,"byteLength":192,"target":34962},{"buffer":0,"byteOffset":4992828,"byteLength":192,"target":34962},{"buffer":0,"byteOffset":4993020,"byteLength":128,"target":34962},{"buffer":0,"byteOffset":4993148,"byteLength":48,"target":34963},{"buffer":0,"byteOffset":4993196,"byteLength":96,"target":34962},{"buffer":0,"byteOffset":4993292,"byteLength":96,"target":34962},{"buffer":0,"byteOffset":4993388,"byteLength":64,"target":34962},{"buffer":0,"byteOffset":4993452,"byteLength":24,"target":34963}],"accessors":[{"bufferView":0,"componentType":5126,"count":28342,"type":"VEC3","min":[-4.030563201931384,0.0,-4.4727017676737795],"max":[3.98301013424222,23.005962099262497,4.280391799508476]},{"bufferView":1,"componentType":5126,"count":28342,"type":"VEC3","min":[-0.9999898076057434,-0.9995189905166626,-0.9998944401741028],"max":[0.9999930262565613,0.9999854564666748,0.9999915957450867]},{"bufferView":2,"componentType":5126,"count":28342,"type":"VEC2"},{"bufferView":3,"componentType":5123,"count":138423,"type":"SCALAR","min":[0],"max":[28341]},{"bufferView":4,"componentType":5126,"count":60353,"type":"VEC3","min":[-4.613341808319092,7.826621055603027,-4.887099266052246],"max":[4.634731769561768,23.834951400756836,5.039999961853027]},{"bufferView":5,"componentType":5126,"count":60353,"type":"VEC3","min":[-0.9999576210975647,-0.9998629093170166,-0.9999924898147583],"max":[0.999947726726532,0.9999721050262451,0.9999101758003235]},{"bufferView":6,"componentType":5126,"count":60353,"type":"VEC2"},{"bufferView":7,"componentType":5123,"count":285438,"type":"SCALAR","min":[0],"max":[60352]},{"bufferView":8,"componentType":5126,"count":10477,"type":"VEC3","min":[-4.030563201931384,0.003188439562475051,-4.4727017676737795],"max":[3.98301013424222,23.005962099262497,4.280391799508476]},{"bufferView":9,"componentType":5126,"count":10477,"type":"VEC3","min":[-0.9999467730522156,-0.9972256422042847,-0.9999820590019226],"max":[0.9999344944953918,0.9997363686561584,0.9999944567680359]},{"bufferView":10,"componentType":5126,"count":10477,"type":"VEC2"},{"bufferView":11,"componentType":5123,"count":35874,"type":"SCALAR","min":[0],"max":[10476]},{"bufferView":12,"componentType":5126,"count":21712,"type":"VEC3","min":[-4.661685943603516,7.757640361785889,-4.958989143371582],"max":[4.713762283325195,23.902841567993164,5.153143882751465]},{"bufferView":13,"componentType":5126,"count":21712,"type":"VEC3","min":[-0.9999576210975647,-0.9998629093170166,-0.9998489022254944],"max":[0.9997467398643494,0.999927818775177,0.9999101758003235]},{"bufferView":14,"componentType":5126,"count":21712,"type":"VEC2"},{"bufferView":15,"componentType":5123,"count":102438,"type":"SCALAR","min":[0],"max":[21711]},{"bufferView":16,"componentType":5126,"count":16,"type":"VEC3","min":[-5.5440000000000005,0,-5.5440000000000005],"max":[5.5440000000000005,24.0,5.5440000000000005]},{"bufferView":17,"componentType":5126,"count":16,"type":"VEC3","min":[-1.0,0,-0.7071067811865475],"max":[-0.0,0,1.0]},{"bufferView":18,"componentType":5126,"count":16,"type":"VEC2"},{"bufferView":19,"componentType":5123,"count":24,"type":"SCALAR","min":[0],"max":[15]},{"bufferView":20,"componentType":5126,"count":8,"type":"VEC3","min":[-5.5440000000000005,0,-5.5440000000000005],"max":[5.5440000000000005,24.0,5.5440000000000005]},{"bufferView":21,"componentType":5126,"count":8,"type":"VEC3","min":[-1.0,0,6.123233995736766e-17],"max":[-0.0,0,1.0]},{"bufferView":22,"componentType":5126,"count":8,"type":"VEC2"},{"bufferView":23,"componentType":5123,"count":12,"type":"SCALAR","min":[0],"max":[7]}],"samplers":[{"magFilter":9729,"minFilter":9987,"wrapS":10497,"wrapT":10497}],"images":[{"uri":"textures/poly_pine_bark.jpg"},{"uri":"textures/poly_pine_foliage.png"},{"uri":"impostors/laerche_a_summer.png"}],"textures":[{"source":0,"sampler":0},{"source":1,"sampler":0},{"source":2,"sampler":0}],"materials":[{"name":"bark","pbrMetallicRoughness":{"baseColorFactor":[0.82,0.82,0.82,1.0],"baseColorTexture":{"index":0},"metallicFactor":0.0,"roughnessFactor":0.91},"doubleSided":false},{"name":"foliage","pbrMetallicRoughness":{"baseColorFactor":[0.558235294117647,1.0,0.7182352941176471,1.0],"baseColorTexture":{"index":1},"metallicFactor":0.0,"roughnessFactor":0.78},"doubleSided":true,"alphaMode":"MASK","alphaCutoff":0.18},{"name":"whole_tree_impostor","pbrMetallicRoughness":{"baseColorFactor":[1,1,1,1],"baseColorTexture":{"index":2},"metallicFactor":0.0,"roughnessFactor":0.92},"doubleSided":true,"alphaMode":"MASK","alphaCutoff":0.18}]}