{"asset":{"version":"2.0","generator":"Connected Rails CC0 hedge composer","copyright":"Mantissa and Poly Haven source models: CC0 1.0; hedge composition: Connected Rails"},"scene":0,"scenes":[{"nodes":[0,1,2,3,4,5,6,7,8,9,10,11]}],"nodes":[{"name":"hedge_LOD0","children":[12,18,20,22,24,30,40,42,48,60,62,66,70,78,89,99,103,105,117,121,133,135,137,139]},{"name":"hedge_LOD1","children":[13,19,21,23,25,31,41,43,49,61,63,67,71,79,90,100,104,106,118,122,134,136,138,140]},{"name":"hedge_LOD2","children":[14,26,32,44,50,64,68,72,80,91,101,107,119,123,141]},{"name":"hedge_LOD3","children":[15,27,33,45,51,65,69,73,81,92,102,108,120,124,142]},{"name":"hedge_LOD4","children":[16,28,34,46,52,74,82,93,109,125,143]},{"name":"hedge_LOD5","children":[17,29,35,47,53,75,83,94,110,126,144]},{"name":"hedge_LOD6","children":[36,54,76,84,95,111,127,145]},{"name":"hedge_LOD7","children":[37,55,77,85,96,112,128,146]},{"name":"hedge_LOD8","children":[38,56,86,97,113,129,147]},{"name":"hedge_LOD9","children":[39,57,87,98,114,130,148]},{"name":"hedge_LOD10","children":[58,88,115,131,149]},{"name":"hedge_LOD11","children":[59,116,132,150]},{"name":"himbeere_a_part_12_LOD0","mesh":1,"translation":[-3.0,-0.0,-0.0987654667123336],"rotation":[0.0,0.0587801058829222,0.0,0.9982709547775055],"scale":[1.3292589763177998,1.824151220419319,2.360397073528274]},{"name":"himbeere_a_part_13_LOD1","mesh":1,"translation":[-3.0,-0.0,-0.0987654667123336],"rotation":[0.0,0.0587801058829222,0.0,0.9982709547775055],"scale":[1.3292589763177998,1.824151220419319,2.360397073528274]},{"name":"himbeere_a_part_14_LOD2","mesh":1,"translation":[-3.0,-0.0,-0.0987654667123336],"rotation":[0.0,0.0587801058829222,0.0,0.9982709547775055],"scale":[1.3292589763177998,1.824151220419319,2.360397073528274]},{"name":"himbeere_a_part_15_LOD3","mesh":1,"translation":[-3.0,-0.0,-0.0987654667123336],"rotation":[0.0,0.0587801058829222,0.0,0.9982709547775055],"scale":[1.3292589763177998,1.824151220419319,2.360397073528274]},{"name":"himbeere_a_part_16_LOD4","mesh":1,"translation":[-3.0,-0.0,-0.0987654667123336],"rotation":[0.0,0.0587801058829222,0.0,0.9982709547775055],"scale":[1.3292589763177998,1.824151220419319,2.360397073528274]},{"name":"himbeere_a_part_17_LOD5","mesh":1,"translation":[-3.0,-0.0,-0.0987654667123336],"rotation":[0.0,0.0587801058829222,0.0,0.9982709547775055],"scale":[1.3292589763177998,1.824151220419319,2.360397073528274]},{"name":"himbeere_b_part_18_LOD0","mesh":5,"translation":[-2.4545454545454546,-0.0,0.05842305055654143],"rotation":[0.0,-0.00391738973309969,0.0,0.999992326999402],"scale":[0.8458920758385997,1.199016370182939,1.276233529023054]},{"name":"himbeere_b_part_19_LOD1","mesh":5,"translation":[-2.4545454545454546,-0.0,0.05842305055654143],"rotation":[0.0,-0.00391738973309969,0.0,0.999992326999402],"scale":[0.8458920758385997,1.199016370182939,1.276233529023054]},{"name":"himbeere_c_part_20_LOD0","mesh":9,"translation":[-1.9090909090909092,-0.0,0.1068923314933232],"rotation":[0.0,-0.037499522726457894,0.0,0.9992966455438985],"scale":[0.6760140113798554,0.8856743516980644,0.8733364422232073]},{"name":"himbeere_c_part_21_LOD1","mesh":9,"translation":[-1.9090909090909092,-0.0,0.1068923314933232],"rotation":[0.0,-0.037499522726457894,0.0,0.9992966455438985],"scale":[0.6760140113798554,0.8856743516980644,0.8733364422232073]},{"name":"himbeere_a_part_22_LOD0","mesh":1,"translation":[-1.3636363636363638,-0.0,0.09566994053500802],"rotation":[0.0,-0.0025011307294840433,0.0,0.9999968721676453],"scale":[1.3292589763177998,1.8714389913616405,2.5245956054748295]},{"name":"himbeere_a_part_23_LOD1","mesh":1,"translation":[-1.3636363636363638,-0.0,0.09566994053500802],"rotation":[0.0,-0.0025011307294840433,0.0,0.9999968721676453],"scale":[1.3292589763177998,1.8714389913616405,2.5245956054748295]},{"name":"himbeere_b_part_24_LOD0","mesh":5,"translation":[-0.8181818181818183,-0.0,-0.06544327537691015],"rotation":[0.0,-0.05003851789619204,0.0,0.9987472887206015],"scale":[0.8458920758385997,1.1980677408345628,1.2649255940057929]},{"name":"himbeere_b_part_25_LOD1","mesh":5,"translation":[-0.8181818181818183,-0.0,-0.06544327537691015],"rotation":[0.0,-0.05003851789619204,0.0,0.9987472887206015],"scale":[0.8458920758385997,1.1980677408345628,1.2649255940057929]},{"name":"himbeere_b_part_26_LOD2","mesh":5,"translation":[-0.8181818181818183,-0.0,-0.06544327537691015],"rotation":[0.0,-0.05003851789619204,0.0,0.9987472887206015],"scale":[0.8458920758385997,1.1980677408345628,1.2649255940057929]},{"name":"himbeere_b_part_27_LOD3","mesh":5,"translation":[-0.8181818181818183,-0.0,-0.06544327537691015],"rotation":[0.0,-0.05003851789619204,0.0,0.9987472887206015],"scale":[0.8458920758385997,1.1980677408345628,1.2649255940057929]},{"name":"himbeere_b_part_28_LOD4","mesh":5,"translation":[-0.8181818181818183,-0.0,-0.06544327537691015],"rotation":[0.0,-0.05003851789619204,0.0,0.9987472887206015],"scale":[0.8458920758385997,1.1980677408345628,1.2649255940057929]},{"name":"himbeere_b_part_29_LOD5","mesh":5,"translation":[-0.8181818181818183,-0.0,-0.06544327537691015],"rotation":[0.0,-0.05003851789619204,0.0,0.9987472887206015],"scale":[0.8458920758385997,1.1980677408345628,1.2649255940057929]},{"name":"himbeere_c_part_30_LOD0","mesh":9,"translation":[-0.27272727272727293,-0.0,-0.00045719474468478016],"rotation":[0.0,0.06886476341780204,0.0,0.9976260042517988],"scale":[0.6760140113798554,0.8951509035676509,0.8470583744826609]},{"name":"himbeere_c_part_31_LOD1","mesh":9,"translation":[-0.27272727272727293,-0.0,-0.00045719474468478016],"rotation":[0.0,0.06886476341780204,0.0,0.9976260042517988],"scale":[0.6760140113798554,0.8951509035676509,0.8470583744826609]},{"name":"himbeere_c_part_32_LOD2","mesh":9,"translation":[-0.27272727272727293,-0.0,-0.00045719474468478016],"rotation":[0.0,0.06886476341780204,0.0,0.9976260042517988],"scale":[0.6760140113798554,0.8951509035676509,0.8470583744826609]},{"name":"himbeere_c_part_33_LOD3","mesh":9,"translation":[-0.27272727272727293,-0.0,-0.00045719474468478016],"rotation":[0.0,0.06886476341780204,0.0,0.9976260042517988],"scale":[0.6760140113798554,0.8951509035676509,0.8470583744826609]},{"name":"himbeere_c_part_34_LOD4","mesh":9,"translation":[-0.27272727272727293,-0.0,-0.00045719474468478016],"rotation":[0.0,0.06886476341780204,0.0,0.9976260042517988],"scale":[0.6760140113798554,0.8951509035676509,0.8470583744826609]},{"name":"himbeere_c_part_35_LOD5","mesh":9,"translation":[-0.27272727272727293,-0.0,-0.00045719474468478016],"rotation":[0.0,0.06886476341780204,0.0,0.9976260042517988],"scale":[0.6760140113798554,0.8951509035676509,0.8470583744826609]},{"name":"himbeere_c_part_36_LOD6","mesh":9,"translation":[-0.27272727272727293,-0.0,-0.00045719474468478016],"rotation":[0.0,0.06886476341780204,0.0,0.9976260042517988],"scale":[0.6760140113798554,0.8951509035676509,0.8470583744826609]},{"name":"himbeere_c_part_37_LOD7","mesh":9,"translation":[-0.27272727272727293,-0.0,-0.00045719474468478016],"rotation":[0.0,0.06886476341780204,0.0,0.9976260042517988],"scale":[0.6760140113798554,0.8951509035676509,0.8470583744826609]},{"name":"himbeere_c_part_38_LOD8","mesh":9,"translation":[-0.27272727272727293,-0.0,-0.00045719474468478016],"rotation":[0.0,0.06886476341780204,0.0,0.9976260042517988],"scale":[0.6760140113798554,0.8951509035676509,0.8470583744826609]},{"name":"himbeere_c_part_39_LOD9","mesh":9,"translation":[-0.27272727272727293,-0.0,-0.00045719474468478016],"rotation":[0.0,0.06886476341780204,0.0,0.9976260042517988],"scale":[0.6760140113798554,0.8951509035676509,0.8470583744826609]},{"name":"himbeere_a_part_40_LOD0","mesh":1,"translation":[0.2727272727272725,-0.0,-0.07885866080413495],"rotation":[0.0,0.000844769026002097,0.0,0.9999996431825827],"scale":[1.3292589763177998,1.9071814537684364,2.2099329296280326]},{"name":"himbeere_a_part_41_LOD1","mesh":1,"translation":[0.2727272727272725,-0.0,-0.07885866080413495],"rotation":[0.0,0.000844769026002097,0.0,0.9999996431825827],"scale":[1.3292589763177998,1.9071814537684364,2.2099329296280326]},{"name":"himbeere_b_part_42_LOD0","mesh":5,"translation":[0.8181818181818179,-0.0,-0.05477213364508188],"rotation":[0.0,0.04231034184442403,0.0,0.9991045165411915],"scale":[0.8458920758385997,1.208638002256244,1.2086718713125926]},{"name":"himbeere_b_part_43_LOD1","mesh":5,"translation":[0.8181818181818179,-0.0,-0.05477213364508188],"rotation":[0.0,0.04231034184442403,0.0,0.9991045165411915],"scale":[0.8458920758385997,1.208638002256244,1.2086718713125926]},{"name":"himbeere_b_part_44_LOD2","mesh":5,"translation":[0.8181818181818179,-0.0,-0.05477213364508188],"rotation":[0.0,0.04231034184442403,0.0,0.9991045165411915],"scale":[0.8458920758385997,1.208638002256244,1.2086718713125926]},{"name":"himbeere_b_part_45_LOD3","mesh":5,"translation":[0.8181818181818179,-0.0,-0.05477213364508188],"rotation":[0.0,0.04231034184442403,0.0,0.9991045165411915],"scale":[0.8458920758385997,1.208638002256244,1.2086718713125926]},{"name":"himbeere_b_part_46_LOD4","mesh":5,"translation":[0.8181818181818179,-0.0,-0.05477213364508188],"rotation":[0.0,0.04231034184442403,0.0,0.9991045165411915],"scale":[0.8458920758385997,1.208638002256244,1.2086718713125926]},{"name":"himbeere_b_part_47_LOD5","mesh":5,"translation":[0.8181818181818179,-0.0,-0.05477213364508188],"rotation":[0.0,0.04231034184442403,0.0,0.9991045165411915],"scale":[0.8458920758385997,1.208638002256244,1.2086718713125926]},{"name":"himbeere_c_part_48_LOD0","mesh":9,"translation":[1.3636363636363633,-0.0,-0.062307340741363265],"rotation":[0.0,-0.024150765368414043,0.0,0.9997083277297033],"scale":[0.6760140113798554,0.8862529564513569,0.9159741567710021]},{"name":"himbeere_c_part_49_LOD1","mesh":9,"translation":[1.3636363636363633,-0.0,-0.062307340741363265],"rotation":[0.0,-0.024150765368414043,0.0,0.9997083277297033],"scale":[0.6760140113798554,0.8862529564513569,0.9159741567710021]},{"name":"himbeere_c_part_50_LOD2","mesh":9,"translation":[1.3636363636363633,-0.0,-0.062307340741363265],"rotation":[0.0,-0.024150765368414043,0.0,0.9997083277297033],"scale":[0.6760140113798554,0.8862529564513569,0.9159741567710021]},{"name":"himbeere_c_part_51_LOD3","mesh":9,"translation":[1.3636363636363633,-0.0,-0.062307340741363265],"rotation":[0.0,-0.024150765368414043,0.0,0.9997083277297033],"scale":[0.6760140113798554,0.8862529564513569,0.9159741567710021]},{"name":"himbeere_c_part_52_LOD4","mesh":9,"translation":[1.3636363636363633,-0.0,-0.062307340741363265],"rotation":[0.0,-0.024150765368414043,0.0,0.9997083277297033],"scale":[0.6760140113798554,0.8862529564513569,0.9159741567710021]},{"name":"himbeere_c_part_53_LOD5","mesh":9,"translation":[1.3636363636363633,-0.0,-0.062307340741363265],"rotation":[0.0,-0.024150765368414043,0.0,0.9997083277297033],"scale":[0.6760140113798554,0.8862529564513569,0.9159741567710021]},{"name":"himbeere_c_part_54_LOD6","mesh":9,"translation":[1.3636363636363633,-0.0,-0.062307340741363265],"rotation":[0.0,-0.024150765368414043,0.0,0.9997083277297033],"scale":[0.6760140113798554,0.8862529564513569,0.9159741567710021]},{"name":"himbeere_c_part_55_LOD7","mesh":9,"translation":[1.3636363636363633,-0.0,-0.062307340741363265],"rotation":[0.0,-0.024150765368414043,0.0,0.9997083277297033],"scale":[0.6760140113798554,0.8862529564513569,0.9159741567710021]},{"name":"himbeere_c_part_56_LOD8","mesh":9,"translation":[1.3636363636363633,-0.0,-0.062307340741363265],"rotation":[0.0,-0.024150765368414043,0.0,0.9997083277297033],"scale":[0.6760140113798554,0.8862529564513569,0.9159741567710021]},{"name":"himbeere_c_part_57_LOD9","mesh":9,"translation":[1.3636363636363633,-0.0,-0.062307340741363265],"rotation":[0.0,-0.024150765368414043,0.0,0.9997083277297033],"scale":[0.6760140113798554,0.8862529564513569,0.9159741567710021]},{"name":"himbeere_c_part_58_LOD10","mesh":9,"translation":[1.3636363636363633,-0.0,-0.062307340741363265],"rotation":[0.0,-0.024150765368414043,0.0,0.9997083277297033],"scale":[0.6760140113798554,0.8862529564513569,0.9159741567710021]},{"name":"himbeere_c_part_59_LOD11","mesh":9,"translation":[1.3636363636363633,-0.0,-0.062307340741363265],"rotation":[0.0,-0.024150765368414043,0.0,0.9997083277297033],"scale":[0.6760140113798554,0.8862529564513569,0.9159741567710021]},{"name":"himbeere_a_part_60_LOD0","mesh":1,"translation":[1.9090909090909083,-0.0,0.09189159595631535],"rotation":[0.0,0.06067343354927606,0.0,0.9981576701410161],"scale":[1.3292589763177998,1.803158476942598,1.9534331101810691]},{"name":"himbeere_a_part_61_LOD1","mesh":1,"translation":[1.9090909090909083,-0.0,0.09189159595631535],"rotation":[0.0,0.06067343354927606,0.0,0.9981576701410161],"scale":[1.3292589763177998,1.803158476942598,1.9534331101810691]},{"name":"himbeere_b_part_62_LOD0","mesh":5,"translation":[2.454545454545454,-0.0,0.07266496933770078],"rotation":[0.0,-0.06291220875693691,0.0,0.9980190649428113],"scale":[0.8458920758385997,1.2192209577388045,1.2331476285504275]},{"name":"himbeere_b_part_63_LOD1","mesh":5,"translation":[2.454545454545454,-0.0,0.07266496933770078],"rotation":[0.0,-0.06291220875693691,0.0,0.9980190649428113],"scale":[0.8458920758385997,1.2192209577388045,1.2331476285504275]},{"name":"himbeere_b_part_64_LOD2","mesh":5,"translation":[2.454545454545454,-0.0,0.07266496933770078],"rotation":[0.0,-0.06291220875693691,0.0,0.9980190649428113],"scale":[0.8458920758385997,1.2192209577388045,1.2331476285504275]},{"name":"himbeere_b_part_65_LOD3","mesh":5,"translation":[2.454545454545454,-0.0,0.07266496933770078],"rotation":[0.0,-0.06291220875693691,0.0,0.9980190649428113],"scale":[0.8458920758385997,1.2192209577388045,1.2331476285504275]},{"name":"himbeere_c_part_66_LOD0","mesh":9,"translation":[3.0,-0.0,-0.11526987844747287],"rotation":[0.0,0.07517858130108038,0.0,0.9971700862508647],"scale":[0.6760140113798554,0.8715980001972653,0.8429079101287136]},{"name":"himbeere_c_part_67_LOD1","mesh":9,"translation":[3.0,-0.0,-0.11526987844747287],"rotation":[0.0,0.07517858130108038,0.0,0.9971700862508647],"scale":[0.6760140113798554,0.8715980001972653,0.8429079101287136]},{"name":"himbeere_c_part_68_LOD2","mesh":9,"translation":[3.0,-0.0,-0.11526987844747287],"rotation":[0.0,0.07517858130108038,0.0,0.9971700862508647],"scale":[0.6760140113798554,0.8715980001972653,0.8429079101287136]},{"name":"himbeere_c_part_69_LOD3","mesh":9,"translation":[3.0,-0.0,-0.11526987844747287],"rotation":[0.0,0.07517858130108038,0.0,0.9971700862508647],"scale":[0.6760140113798554,0.8715980001972653,0.8429079101287136]},{"name":"himbeere_b_part_70_LOD0","mesh":5,"translation":[-2.7272727272727275,-0.0,-0.18865420646381692],"rotation":[0.0,0.06566259993676074,0.0,0.9978418827497395],"scale":[0.9042294603791929,0.7436097996872544,1.2592831660394779]},{"name":"himbeere_b_part_71_LOD1","mesh":5,"translation":[-2.7272727272727275,-0.0,-0.18865420646381692],"rotation":[0.0,0.06566259993676074,0.0,0.9978418827497395],"scale":[0.9042294603791929,0.7436097996872544,1.2592831660394779]},{"name":"himbeere_b_part_72_LOD2","mesh":5,"translation":[-2.7272727272727275,-0.0,-0.18865420646381692],"rotation":[0.0,0.06566259993676074,0.0,0.9978418827497395],"scale":[0.9042294603791929,0.7436097996872544,1.2592831660394779]},{"name":"himbeere_b_part_73_LOD3","mesh":5,"translation":[-2.7272727272727275,-0.0,-0.18865420646381692],"rotation":[0.0,0.06566259993676074,0.0,0.9978418827497395],"scale":[0.9042294603791929,0.7436097996872544,1.2592831660394779]},{"name":"himbeere_b_part_74_LOD4","mesh":5,"translation":[-2.7272727272727275,-0.0,-0.18865420646381692],"rotation":[0.0,0.06566259993676074,0.0,0.9978418827497395],"scale":[0.9042294603791929,0.7436097996872544,1.2592831660394779]},{"name":"himbeere_b_part_75_LOD5","mesh":5,"translation":[-2.7272727272727275,-0.0,-0.18865420646381692],"rotation":[0.0,0.06566259993676074,0.0,0.9978418827497395],"scale":[0.9042294603791929,0.7436097996872544,1.2592831660394779]},{"name":"himbeere_b_part_76_LOD6","mesh":5,"translation":[-2.7272727272727275,-0.0,-0.18865420646381692],"rotation":[0.0,0.06566259993676074,0.0,0.9978418827497395],"scale":[0.9042294603791929,0.7436097996872544,1.2592831660394779]},{"name":"himbeere_b_part_77_LOD7","mesh":5,"translation":[-2.7272727272727275,-0.0,-0.18865420646381692],"rotation":[0.0,0.06566259993676074,0.0,0.9978418827497395],"scale":[0.9042294603791929,0.7436097996872544,1.2592831660394779]},{"name":"himbeere_c_part_78_LOD0","mesh":9,"translation":[-2.1818181818181817,-0.0,0.019268435018933994],"rotation":[0.0,-0.02822848614214088,0.0,0.9996014968826942],"scale":[0.722635667337087,0.5455136901208667,1.026826945722182]},{"name":"himbeere_c_part_79_LOD1","mesh":9,"translation":[-2.1818181818181817,-0.0,0.019268435018933994],"rotation":[0.0,-0.02822848614214088,0.0,0.9996014968826942],"scale":[0.722635667337087,0.5455136901208667,1.026826945722182]},{"name":"himbeere_c_part_80_LOD2","mesh":9,"translation":[-2.1818181818181817,-0.0,0.019268435018933994],"rotation":[0.0,-0.02822848614214088,0.0,0.9996014968826942],"scale":[0.722635667337087,0.5455136901208667,1.026826945722182]},{"name":"himbeere_c_part_81_LOD3","mesh":9,"translation":[-2.1818181818181817,-0.0,0.019268435018933994],"rotation":[0.0,-0.02822848614214088,0.0,0.9996014968826942],"scale":[0.722635667337087,0.5455136901208667,1.026826945722182]},{"name":"himbeere_c_part_82_LOD4","mesh":9,"translation":[-2.1818181818181817,-0.0,0.019268435018933994],"rotation":[0.0,-0.02822848614214088,0.0,0.9996014968826942],"scale":[0.722635667337087,0.5455136901208667,1.026826945722182]},{"name":"himbeere_c_part_83_LOD5","mesh":9,"translation":[-2.1818181818181817,-0.0,0.019268435018933994],"rotation":[0.0,-0.02822848614214088,0.0,0.9996014968826942],"scale":[0.722635667337087,0.5455136901208667,1.026826945722182]},{"name":"himbeere_c_part_84_LOD6","mesh":9,"translation":[-2.1818181818181817,-0.0,0.019268435018933994],"rotation":[0.0,-0.02822848614214088,0.0,0.9996014968826942],"scale":[0.722635667337087,0.5455136901208667,1.026826945722182]},{"name":"himbeere_c_part_85_LOD7","mesh":9,"translation":[-2.1818181818181817,-0.0,0.019268435018933994],"rotation":[0.0,-0.02822848614214088,0.0,0.9996014968826942],"scale":[0.722635667337087,0.5455136901208667,1.026826945722182]},{"name":"himbeere_c_part_86_LOD8","mesh":9,"translation":[-2.1818181818181817,-0.0,0.019268435018933994],"rotation":[0.0,-0.02822848614214088,0.0,0.9996014968826942],"scale":[0.722635667337087,0.5455136901208667,1.026826945722182]},{"name":"himbeere_c_part_87_LOD9","mesh":9,"translation":[-2.1818181818181817,-0.0,0.019268435018933994],"rotation":[0.0,-0.02822848614214088,0.0,0.9996014968826942],"scale":[0.722635667337087,0.5455136901208667,1.026826945722182]},{"name":"himbeere_c_part_88_LOD10","mesh":9,"translation":[-2.1818181818181817,-0.0,0.019268435018933994],"rotation":[0.0,-0.02822848614214088,0.0,0.9996014968826942],"scale":[0.722635667337087,0.5455136901208667,1.026826945722182]},{"name":"himbeere_a_part_89_LOD0","mesh":1,"translation":[-1.6363636363636365,-0.0,0.06681793191714719],"rotation":[0.0,-0.0507636072911875,0.0,0.9987106969361979],"scale":[1.4209320091673034,1.191407444276454,2.246848593789318]},{"name":"himbeere_a_part_90_LOD1","mesh":1,"translation":[-1.6363636363636365,-0.0,0.06681793191714719],"rotation":[0.0,-0.0507636072911875,0.0,0.9987106969361979],"scale":[1.4209320091673034,1.191407444276454,2.246848593789318]},{"name":"himbeere_a_part_91_LOD2","mesh":1,"translation":[-1.6363636363636365,-0.0,0.06681793191714719],"rotation":[0.0,-0.0507636072911875,0.0,0.9987106969361979],"scale":[1.4209320091673034,1.191407444276454,2.246848593789318]},{"name":"himbeere_a_part_92_LOD3","mesh":1,"translation":[-1.6363636363636365,-0.0,0.06681793191714719],"rotation":[0.0,-0.0507636072911875,0.0,0.9987106969361979],"scale":[1.4209320091673034,1.191407444276454,2.246848593789318]},{"name":"himbeere_a_part_93_LOD4","mesh":1,"translation":[-1.6363636363636365,-0.0,0.06681793191714719],"rotation":[0.0,-0.0507636072911875,0.0,0.9987106969361979],"scale":[1.4209320091673034,1.191407444276454,2.246848593789318]},{"name":"himbeere_a_part_94_LOD5","mesh":1,"translation":[-1.6363636363636365,-0.0,0.06681793191714719],"rotation":[0.0,-0.0507636072911875,0.0,0.9987106969361979],"scale":[1.4209320091673034,1.191407444276454,2.246848593789318]},{"name":"himbeere_a_part_95_LOD6","mesh":1,"translation":[-1.6363636363636365,-0.0,0.06681793191714719],"rotation":[0.0,-0.0507636072911875,0.0,0.9987106969361979],"scale":[1.4209320091673034,1.191407444276454,2.246848593789318]},{"name":"himbeere_a_part_96_LOD7","mesh":1,"translation":[-1.6363636363636365,-0.0,0.06681793191714719],"rotation":[0.0,-0.0507636072911875,0.0,0.9987106969361979],"scale":[1.4209320091673034,1.191407444276454,2.246848593789318]},{"name":"himbeere_a_part_97_LOD8","mesh":1,"translation":[-1.6363636363636365,-0.0,0.06681793191714719],"rotation":[0.0,-0.0507636072911875,0.0,0.9987106969361979],"scale":[1.4209320091673034,1.191407444276454,2.246848593789318]},{"name":"himbeere_a_part_98_LOD9","mesh":1,"translation":[-1.6363636363636365,-0.0,0.06681793191714719],"rotation":[0.0,-0.0507636072911875,0.0,0.9987106969361979],"scale":[1.4209320091673034,1.191407444276454,2.246848593789318]},{"name":"himbeere_b_part_99_LOD0","mesh":5,"translation":[-1.090909090909091,-0.0,-0.2172738715110732],"rotation":[0.0,-0.07038327519729451,0.0,0.9975200221411608],"scale":[0.9042294603791929,0.7656815865798282,1.240103725738258]},{"name":"himbeere_b_part_100_LOD1","mesh":5,"translation":[-1.090909090909091,-0.0,-0.2172738715110732],"rotation":[0.0,-0.07038327519729451,0.0,0.9975200221411608],"scale":[0.9042294603791929,0.7656815865798282,1.240103725738258]},{"name":"himbeere_b_part_101_LOD2","mesh":5,"translation":[-1.090909090909091,-0.0,-0.2172738715110732],"rotation":[0.0,-0.07038327519729451,0.0,0.9975200221411608],"scale":[0.9042294603791929,0.7656815865798282,1.240103725738258]},{"name":"himbeere_b_part_102_LOD3","mesh":5,"translation":[-1.090909090909091,-0.0,-0.2172738715110732],"rotation":[0.0,-0.07038327519729451,0.0,0.9975200221411608],"scale":[0.9042294603791929,0.7656815865798282,1.240103725738258]},{"name":"himbeere_c_part_103_LOD0","mesh":9,"translation":[-0.5454545454545459,-0.0,-0.03926154878864996],"rotation":[0.0,-0.05703098412057287,0.0,0.998372408898723],"scale":[0.722635667337087,0.5309910207544882,0.9893837904790951]},{"name":"himbeere_c_part_104_LOD1","mesh":9,"translation":[-0.5454545454545459,-0.0,-0.03926154878864996],"rotation":[0.0,-0.05703098412057287,0.0,0.998372408898723],"scale":[0.722635667337087,0.5309910207544882,0.9893837904790951]},{"name":"himbeere_a_part_105_LOD0","mesh":1,"translation":[0.0,-0.0,0.11371002485628262],"rotation":[0.0,0.07445499577712493,0.0,0.9972243747541615],"scale":[1.4209320091673034,1.2921043978344922,2.1763838383405925]},{"name":"himbeere_a_part_106_LOD1","mesh":1,"translation":[0.0,-0.0,0.11371002485628262],"rotation":[0.0,0.07445499577712493,0.0,0.9972243747541615],"scale":[1.4209320091673034,1.2921043978344922,2.1763838383405925]},{"name":"himbeere_a_part_107_LOD2","mesh":1,"translation":[0.0,-0.0,0.11371002485628262],"rotation":[0.0,0.07445499577712493,0.0,0.9972243747541615],"scale":[1.4209320091673034,1.2921043978344922,2.1763838383405925]},{"name":"himbeere_a_part_108_LOD3","mesh":1,"translation":[0.0,-0.0,0.11371002485628262],"rotation":[0.0,0.07445499577712493,0.0,0.9972243747541615],"scale":[1.4209320091673034,1.2921043978344922,2.1763838383405925]},{"name":"himbeere_a_part_109_LOD4","mesh":1,"translation":[0.0,-0.0,0.11371002485628262],"rotation":[0.0,0.07445499577712493,0.0,0.9972243747541615],"scale":[1.4209320091673034,1.2921043978344922,2.1763838383405925]},{"name":"himbeere_a_part_110_LOD5","mesh":1,"translation":[0.0,-0.0,0.11371002485628262],"rotation":[0.0,0.07445499577712493,0.0,0.9972243747541615],"scale":[1.4209320091673034,1.2921043978344922,2.1763838383405925]},{"name":"himbeere_a_part_111_LOD6","mesh":1,"translation":[0.0,-0.0,0.11371002485628262],"rotation":[0.0,0.07445499577712493,0.0,0.9972243747541615],"scale":[1.4209320091673034,1.2921043978344922,2.1763838383405925]},{"name":"himbeere_a_part_112_LOD7","mesh":1,"translation":[0.0,-0.0,0.11371002485628262],"rotation":[0.0,0.07445499577712493,0.0,0.9972243747541615],"scale":[1.4209320091673034,1.2921043978344922,2.1763838383405925]},{"name":"himbeere_a_part_113_LOD8","mesh":1,"translation":[0.0,-0.0,0.11371002485628262],"rotation":[0.0,0.07445499577712493,0.0,0.9972243747541615],"scale":[1.4209320091673034,1.2921043978344922,2.1763838383405925]},{"name":"himbeere_a_part_114_LOD9","mesh":1,"translation":[0.0,-0.0,0.11371002485628262],"rotation":[0.0,0.07445499577712493,0.0,0.9972243747541615],"scale":[1.4209320091673034,1.2921043978344922,2.1763838383405925]},{"name":"himbeere_a_part_115_LOD10","mesh":1,"translation":[0.0,-0.0,0.11371002485628262],"rotation":[0.0,0.07445499577712493,0.0,0.9972243747541615],"scale":[1.4209320091673034,1.2921043978344922,2.1763838383405925]},{"name":"himbeere_a_part_116_LOD11","mesh":1,"translation":[0.0,-0.0,0.11371002485628262],"rotation":[0.0,0.07445499577712493,0.0,0.9972243747541615],"scale":[1.4209320091673034,1.2921043978344922,2.1763838383405925]},{"name":"himbeere_b_part_117_LOD0","mesh":5,"translation":[0.545454545454545,-0.0,-0.11205930964881838],"rotation":[0.0,-0.10117814193451162,0.0,0.994868324751914],"scale":[0.9042294603791929,0.7877090711943935,1.1988250036093362]},{"name":"himbeere_b_part_118_LOD1","mesh":5,"translation":[0.545454545454545,-0.0,-0.11205930964881838],"rotation":[0.0,-0.10117814193451162,0.0,0.994868324751914],"scale":[0.9042294603791929,0.7877090711943935,1.1988250036093362]},{"name":"himbeere_b_part_119_LOD2","mesh":5,"translation":[0.545454545454545,-0.0,-0.11205930964881838],"rotation":[0.0,-0.10117814193451162,0.0,0.994868324751914],"scale":[0.9042294603791929,0.7877090711943935,1.1988250036093362]},{"name":"himbeere_b_part_120_LOD3","mesh":5,"translation":[0.545454545454545,-0.0,-0.11205930964881838],"rotation":[0.0,-0.10117814193451162,0.0,0.994868324751914],"scale":[0.9042294603791929,0.7877090711943935,1.1988250036093362]},{"name":"himbeere_c_part_121_LOD0","mesh":9,"translation":[1.0909090909090908,-0.0,0.20397986246006722],"rotation":[0.0,-0.07274628907166329,0.0,0.9973504787316754],"scale":[0.722635667337087,0.5819297065725192,0.9751747264105702]},{"name":"himbeere_c_part_122_LOD1","mesh":9,"translation":[1.0909090909090908,-0.0,0.20397986246006722],"rotation":[0.0,-0.07274628907166329,0.0,0.9973504787316754],"scale":[0.722635667337087,0.5819297065725192,0.9751747264105702]},{"name":"himbeere_c_part_123_LOD2","mesh":9,"translation":[1.0909090909090908,-0.0,0.20397986246006722],"rotation":[0.0,-0.07274628907166329,0.0,0.9973504787316754],"scale":[0.722635667337087,0.5819297065725192,0.9751747264105702]},{"name":"himbeere_c_part_124_LOD3","mesh":9,"translation":[1.0909090909090908,-0.0,0.20397986246006722],"rotation":[0.0,-0.07274628907166329,0.0,0.9973504787316754],"scale":[0.722635667337087,0.5819297065725192,0.9751747264105702]},{"name":"himbeere_c_part_125_LOD4","mesh":9,"translation":[1.0909090909090908,-0.0,0.20397986246006722],"rotation":[0.0,-0.07274628907166329,0.0,0.9973504787316754],"scale":[0.722635667337087,0.5819297065725192,0.9751747264105702]},{"name":"himbeere_c_part_126_LOD5","mesh":9,"translation":[1.0909090909090908,-0.0,0.20397986246006722],"rotation":[0.0,-0.07274628907166329,0.0,0.9973504787316754],"scale":[0.722635667337087,0.5819297065725192,0.9751747264105702]},{"name":"himbeere_c_part_127_LOD6","mesh":9,"translation":[1.0909090909090908,-0.0,0.20397986246006722],"rotation":[0.0,-0.07274628907166329,0.0,0.9973504787316754],"scale":[0.722635667337087,0.5819297065725192,0.9751747264105702]},{"name":"himbeere_c_part_128_LOD7","mesh":9,"translation":[1.0909090909090908,-0.0,0.20397986246006722],"rotation":[0.0,-0.07274628907166329,0.0,0.9973504787316754],"scale":[0.722635667337087,0.5819297065725192,0.9751747264105702]},{"name":"himbeere_c_part_129_LOD8","mesh":9,"translation":[1.0909090909090908,-0.0,0.20397986246006722],"rotation":[0.0,-0.07274628907166329,0.0,0.9973504787316754],"scale":[0.722635667337087,0.5819297065725192,0.9751747264105702]},{"name":"himbeere_c_part_130_LOD9","mesh":9,"translation":[1.0909090909090908,-0.0,0.20397986246006722],"rotation":[0.0,-0.07274628907166329,0.0,0.9973504787316754],"scale":[0.722635667337087,0.5819297065725192,0.9751747264105702]},{"name":"himbeere_c_part_131_LOD10","mesh":9,"translation":[1.0909090909090908,-0.0,0.20397986246006722],"rotation":[0.0,-0.07274628907166329,0.0,0.9973504787316754],"scale":[0.722635667337087,0.5819297065725192,0.9751747264105702]},{"name":"himbeere_c_part_132_LOD11","mesh":9,"translation":[1.0909090909090908,-0.0,0.20397986246006722],"rotation":[0.0,-0.07274628907166329,0.0,0.9973504787316754],"scale":[0.722635667337087,0.5819297065725192,0.9751747264105702]},{"name":"himbeere_a_part_133_LOD0","mesh":1,"translation":[1.6363636363636358,-0.0,0.10656592036620999],"rotation":[0.0,0.09428145622627623,0.0,0.9955455825886893],"scale":[1.4209320091673034,1.2337306916426556,2.339044487768982]},{"name":"himbeere_a_part_134_LOD1","mesh":1,"translation":[1.6363636363636358,-0.0,0.10656592036620999],"rotation":[0.0,0.09428145622627623,0.0,0.9955455825886893],"scale":[1.4209320091673034,1.2337306916426556,2.339044487768982]},{"name":"himbeere_b_part_135_LOD0","mesh":5,"translation":[2.1818181818181817,-0.0,0.22586744851084378],"rotation":[0.0,0.049341810116461174,0.0,0.9987819510656123],"scale":[0.9042294603791929,0.6696223291488337,1.3178721165795486]},{"name":"himbeere_b_part_136_LOD1","mesh":5,"translation":[2.1818181818181817,-0.0,0.22586744851084378],"rotation":[0.0,0.049341810116461174,0.0,0.9987819510656123],"scale":[0.9042294603791929,0.6696223291488337,1.3178721165795486]},{"name":"himbeere_c_part_137_LOD0","mesh":9,"translation":[2.7272727272727266,-0.0,-0.20480829199088463],"rotation":[0.0,-0.016007022904716915,0.0,0.9998718794014201],"scale":[0.722635667337087,0.4932563985305371,0.9623334676784138]},{"name":"himbeere_c_part_138_LOD1","mesh":9,"translation":[2.7272727272727266,-0.0,-0.20480829199088463],"rotation":[0.0,-0.016007022904716915,0.0,0.9998718794014201],"scale":[0.722635667337087,0.4932563985305371,0.9623334676784138]},{"name":"leaf_volume_LOD0","mesh":12},{"name":"leaf_volume_LOD1","mesh":13},{"name":"leaf_volume_LOD2","mesh":14},{"name":"leaf_volume_LOD3","mesh":15},{"name":"leaf_volume_LOD4","mesh":16},{"name":"leaf_volume_LOD5","mesh":17},{"name":"leaf_volume_LOD6","mesh":18},{"name":"leaf_volume_LOD7","mesh":19},{"name":"leaf_volume_LOD8","mesh":20},{"name":"leaf_volume_LOD9","mesh":21},{"name":"leaf_volume_LOD10","mesh":22},{"name":"leaf_volume_LOD11","mesh":23}],"meshes":[{"name":"himbeere_a_crown_LOD0","primitives":[{"attributes":{"POSITION":0,"NORMAL":1,"TEXCOORD_0":2},"indices":3,"material":1}]},{"name":"himbeere_a_crown_LOD1","primitives":[{"attributes":{"POSITION":4,"NORMAL":5,"TEXCOORD_0":6},"indices":7,"material":1}]},{"name":"himbeere_a_crown_LOD2","primitives":[{"attributes":{"POSITION":8,"NORMAL":9,"TEXCOORD_0":10},"indices":11,"material":2}]},{"name":"himbeere_a_crown_LOD3","primitives":[{"attributes":{"POSITION":12,"NORMAL":13,"TEXCOORD_0":14},"indices":15,"material":2}]},{"name":"himbeere_b_crown_LOD0","primitives":[{"attributes":{"POSITION":16,"NORMAL":17,"TEXCOORD_0":18},"indices":19,"material":4}]},{"name":"himbeere_b_crown_LOD1","primitives":[{"attributes":{"POSITION":20,"NORMAL":21,"TEXCOORD_0":22},"indices":23,"material":4}]},{"name":"himbeere_b_crown_LOD2","primitives":[{"attributes":{"POSITION":24,"NORMAL":25,"TEXCOORD_0":26},"indices":27,"material":5}]},{"name":"himbeere_b_crown_LOD3","primitives":[{"attributes":{"POSITION":28,"NORMAL":29,"TEXCOORD_0":30},"indices":31,"material":5}]},{"name":"himbeere_c_crown_LOD0","primitives":[{"attributes":{"POSITION":32,"NORMAL":33,"TEXCOORD_0":34},"indices":35,"material":7}]},{"name":"himbeere_c_crown_LOD1","primitives":[{"attributes":{"POSITION":36,"NORMAL":37,"TEXCOORD_0":38},"indices":39,"material":7}]},{"name":"himbeere_c_crown_LOD2","primitives":[{"attributes":{"POSITION":40,"NORMAL":41,"TEXCOORD_0":42},"indices":43,"material":8}]},{"name":"himbeere_c_crown_LOD3","primitives":[{"attributes":{"POSITION":44,"NORMAL":45,"TEXCOORD_0":46},"indices":47,"material":8}]},{"name":"ligusterhecke_leaf_volume_LOD0","primitives":[{"attributes":{"POSITION":48,"NORMAL":49,"TEXCOORD_0":50},"indices":51,"material":9}]},{"name":"ligusterhecke_leaf_volume_LOD1","primitives":[{"attributes":{"POSITION":52,"NORMAL":53,"TEXCOORD_0":54},"indices":55,"material":10}]},{"name":"ligusterhecke_leaf_volume_LOD2","primitives":[{"attributes":{"POSITION":56,"NORMAL":57,"TEXCOORD_0":58},"indices":59,"material":11}]},{"name":"ligusterhecke_leaf_volume_LOD3","primitives":[{"attributes":{"POSITION":60,"NORMAL":61,"TEXCOORD_0":62},"indices":63,"material":12}]},{"name":"ligusterhecke_leaf_volume_LOD4","primitives":[{"attributes":{"POSITION":64,"NORMAL":65,"TEXCOORD_0":66},"indices":67,"material":13}]},{"name":"ligusterhecke_leaf_volume_LOD5","primitives":[{"attributes":{"POSITION":68,"NORMAL":69,"TEXCOORD_0":70},"indices":71,"material":14}]},{"name":"ligusterhecke_leaf_volume_LOD6","primitives":[{"attributes":{"POSITION":72,"NORMAL":73,"TEXCOORD_0":74},"indices":75,"material":15}]},{"name":"ligusterhecke_leaf_volume_LOD7","primitives":[{"attributes":{"POSITION":76,"NORMAL":77,"TEXCOORD_0":78},"indices":79,"material":16}]},{"name":"ligusterhecke_leaf_volume_LOD8","primitives":[{"attributes":{"POSITION":80,"NORMAL":81,"TEXCOORD_0":82},"indices":83,"material":17}]},{"name":"ligusterhecke_leaf_volume_LOD9","primitives":[{"attributes":{"POSITION":84,"NORMAL":85,"TEXCOORD_0":86},"indices":87,"material":18}]},{"name":"ligusterhecke_leaf_volume_LOD10","primitives":[{"attributes":{"POSITION":88,"NORMAL":89,"TEXCOORD_0":90},"indices":91,"material":19}]},{"name":"ligusterhecke_leaf_volume_LOD11","primitives":[{"attributes":{"POSITION":92,"NORMAL":93,"TEXCOORD_0":94},"indices":95,"material":20}]}],"buffers":[{"uri":"himbeere_a.bin","byteLength":268460},{"uri":"himbeere_b.bin","byteLength":184940},{"uri":"himbeere_c.bin","byteLength":163212},{"uri":"ligusterhecke_a_hedge.bin","byteLength":8841000}],"bufferViews":[{"buffer":0,"byteOffset":0,"byteLength":64836,"target":34962},{"buffer":0,"byteOffset":64836,"byteLength":64836,"target":34962},{"buffer":0,"byteOffset":129672,"byteLength":43224,"target":34962},{"buffer":0,"byteOffset":172896,"byteLength":52680,"target":34963},{"buffer":0,"byteOffset":225576,"byteLength":12792,"target":34962},{"buffer":0,"byteOffset":238368,"byteLength":12792,"target":34962},{"buffer":0,"byteOffset":251160,"byteLength":8528,"target":34962},{"buffer":0,"byteOffset":259688,"byteLength":7932,"target":34963},{"buffer":0,"byteOffset":267620,"byteLength":192,"target":34962},{"buffer":0,"byteOffset":267812,"byteLength":192,"target":34962},{"buffer":0,"byteOffset":268004,"byteLength":128,"target":34962},{"buffer":0,"byteOffset":268132,"byteLength":48,"target":34963},{"buffer":0,"byteOffset":268180,"byteLength":96,"target":34962},{"buffer":0,"byteOffset":268276,"byteLength":96,"target":34962},{"buffer":0,"byteOffset":268372,"byteLength":64,"target":34962},{"buffer":0,"byteOffset":268436,"byteLength":24,"target":34963},{"buffer":1,"byteOffset":0,"byteLength":44904,"target":34962},{"buffer":1,"byteOffset":44904,"byteLength":44904,"target":34962},{"buffer":1,"byteOffset":89808,"byteLength":29936,"target":34962},{"buffer":1,"byteOffset":119744,"byteLength":36384,"target":34963},{"buffer":1,"byteOffset":156128,"byteLength":8532,"target":34962},{"buffer":1,"byteOffset":164660,"byteLength":8532,"target":34962},{"buffer":1,"byteOffset":173192,"byteLength":5688,"target":34962},{"buffer":1,"byteOffset":178880,"byteLength":5220,"target":34963},{"buffer":1,"byteOffset":184100,"byteLength":192,"target":34962},{"buffer":1,"byteOffset":184292,"byteLength":192,"target":34962},{"buffer":1,"byteOffset":184484,"byteLength":128,"target":34962},{"buffer":1,"byteOffset":184612,"byteLength":48,"target":34963},{"buffer":1,"byteOffset":184660,"byteLength":96,"target":34962},{"buffer":1,"byteOffset":184756,"byteLength":96,"target":34962},{"buffer":1,"byteOffset":184852,"byteLength":64,"target":34962},{"buffer":1,"byteOffset":184916,"byteLength":24,"target":34963},{"buffer":2,"byteOffset":0,"byteLength":39372,"target":34962},{"buffer":2,"byteOffset":39372,"byteLength":39372,"target":34962},{"buffer":2,"byteOffset":78744,"byteLength":26248,"target":34962},{"buffer":2,"byteOffset":104992,"byteLength":32088,"target":34963},{"buffer":2,"byteOffset":137080,"byteLength":7680,"target":34962},{"buffer":2,"byteOffset":144760,"byteLength":7680,"target":34962},{"buffer":2,"byteOffset":152440,"byteLength":5120,"target":34962},{"buffer":2,"byteOffset":157560,"byteLength":4812,"target":34963},{"buffer":2,"byteOffset":162372,"byteLength":192,"target":34962},{"buffer":2,"byteOffset":162564,"byteLength":192,"target":34962},{"buffer":2,"byteOffset":162756,"byteLength":128,"target":34962},{"buffer":2,"byteOffset":162884,"byteLength":48,"target":34963},{"buffer":2,"byteOffset":162932,"byteLength":96,"target":34962},{"buffer":2,"byteOffset":163028,"byteLength":96,"target":34962},{"buffer":2,"byteOffset":163124,"byteLength":64,"target":34962},{"buffer":2,"byteOffset":163188,"byteLength":24,"target":34963},{"buffer":3,"byteOffset":0,"byteLength":345600,"target":34962},{"buffer":3,"byteOffset":345600,"byteLength":345600,"target":34962},{"buffer":3,"byteOffset":691200,"byteLength":230400,"target":34962},{"buffer":3,"byteOffset":921600,"byteLength":86400,"target":34963},{"buffer":3,"byteOffset":1008000,"byteLength":268800,"target":34962},{"buffer":3,"byteOffset":1276800,"byteLength":268800,"target":34962},{"buffer":3,"byteOffset":1545600,"byteLength":179200,"target":34962},{"buffer":3,"byteOffset":1724800,"byteLength":67200,"target":34963},{"buffer":3,"byteOffset":1792000,"byteLength":264000,"target":34962},{"buffer":3,"byteOffset":2056000,"byteLength":264000,"target":34962},{"buffer":3,"byteOffset":2320000,"byteLength":176000,"target":34962},{"buffer":3,"byteOffset":2496000,"byteLength":66000,"target":34963},{"buffer":3,"byteOffset":2562000,"byteLength":259200,"target":34962},{"buffer":3,"byteOffset":2821200,"byteLength":259200,"target":34962},{"buffer":3,"byteOffset":3080400,"byteLength":172800,"target":34962},{"buffer":3,"byteOffset":3253200,"byteLength":64800,"target":34963},{"buffer":3,"byteOffset":3318000,"byteLength":254400,"target":34962},{"buffer":3,"byteOffset":3572400,"byteLength":254400,"target":34962},{"buffer":3,"byteOffset":3826800,"byteLength":169600,"target":34962},{"buffer":3,"byteOffset":3996400,"byteLength":63600,"target":34963},{"buffer":3,"byteOffset":4060000,"byteLength":249600,"target":34962},{"buffer":3,"byteOffset":4309600,"byteLength":249600,"target":34962},{"buffer":3,"byteOffset":4559200,"byteLength":166400,"target":34962},{"buffer":3,"byteOffset":4725600,"byteLength":62400,"target":34963},{"buffer":3,"byteOffset":4788000,"byteLength":244800,"target":34962},{"buffer":3,"byteOffset":5032800,"byteLength":244800,"target":34962},{"buffer":3,"byteOffset":5277600,"byteLength":163200,"target":34962},{"buffer":3,"byteOffset":5440800,"byteLength":61200,"target":34963},{"buffer":3,"byteOffset":5502000,"byteLength":240000,"target":34962},{"buffer":3,"byteOffset":5742000,"byteLength":240000,"target":34962},{"buffer":3,"byteOffset":5982000,"byteLength":160000,"target":34962},{"buffer":3,"byteOffset":6142000,"byteLength":60000,"target":34963},{"buffer":3,"byteOffset":6202000,"byteLength":235200,"target":34962},{"buffer":3,"byteOffset":6437200,"byteLength":235200,"target":34962},{"buffer":3,"byteOffset":6672400,"byteLength":156800,"target":34962},{"buffer":3,"byteOffset":6829200,"byteLength":58800,"target":34963},{"buffer":3,"byteOffset":6888000,"byteLength":230400,"target":34962},{"buffer":3,"byteOffset":7118400,"byteLength":230400,"target":34962},{"buffer":3,"byteOffset":7348800,"byteLength":153600,"target":34962},{"buffer":3,"byteOffset":7502400,"byteLength":57600,"target":34963},{"buffer":3,"byteOffset":7560000,"byteLength":223200,"target":34962},{"buffer":3,"byteOffset":7783200,"byteLength":223200,"target":34962},{"buffer":3,"byteOffset":8006400,"byteLength":148800,"target":34962},{"buffer":3,"byteOffset":8155200,"byteLength":55800,"target":34963},{"buffer":3,"byteOffset":8211000,"byteLength":216000,"target":34962},{"buffer":3,"byteOffset":8427000,"byteLength":216000,"target":34962},{"buffer":3,"byteOffset":8643000,"byteLength":144000,"target":34962},{"buffer":3,"byteOffset":8787000,"byteLength":54000,"target":34963}],"accessors":[{"bufferView":0,"componentType":5126,"count":5403,"type":"VEC3","min":[-0.2975,0.0,-0.2652338277353859],"max":[0.2975,0.7,0.2652338277353859]},{"bufferView":1,"componentType":5126,"count":5403,"type":"VEC3","min":[-0.9994304180145264,-0.8523291945457458,-0.9983596801757812],"max":[0.9999390244483948,0.9999638199806213,0.997063398361206]},{"bufferView":2,"componentType":5126,"count":5403,"type":"VEC2"},{"bufferView":3,"componentType":5123,"count":26340,"type":"SCALAR","min":[0],"max":[5402]},{"bufferView":4,"componentType":5126,"count":1066,"type":"VEC3","min":[-0.2971687657304079,0.00027180425854097585,-0.26515763541526727],"max":[0.2968955243065341,0.699973871411052,0.26440942414684815]},{"bufferView":5,"componentType":5126,"count":1066,"type":"VEC3","min":[-0.9994305372238159,-0.5630797743797302,-0.9959743618965149],"max":[0.9791324138641357,0.9999735355377197,0.9973251223564148]},{"bufferView":6,"componentType":5126,"count":1066,"type":"VEC2"},{"bufferView":7,"componentType":5123,"count":3966,"type":"SCALAR","min":[0],"max":[1065]},{"bufferView":8,"componentType":5126,"count":16,"type":"VEC3","min":[-0.32725,0,-0.32725],"max":[0.32725,0.7,0.32725]},{"bufferView":9,"componentType":5126,"count":16,"type":"VEC3","min":[-1.0,0,-0.7071067811865475],"max":[-0.0,0,1.0]},{"bufferView":10,"componentType":5126,"count":16,"type":"VEC2"},{"bufferView":11,"componentType":5123,"count":24,"type":"SCALAR","min":[0],"max":[15]},{"bufferView":12,"componentType":5126,"count":8,"type":"VEC3","min":[-0.32725,0,-0.32725],"max":[0.32725,0.7,0.32725]},{"bufferView":13,"componentType":5126,"count":8,"type":"VEC3","min":[-1.0,0,6.123233995736766e-17],"max":[-0.0,0,1.0]},{"bufferView":14,"componentType":5126,"count":8,"type":"VEC2"},{"bufferView":15,"componentType":5123,"count":12,"type":"SCALAR","min":[0],"max":[7]},{"bufferView":16,"componentType":5126,"count":3742,"type":"VEC3","min":[-0.4675,0.0,-0.4498948973936197],"max":[0.4675,1.1,0.4498948973936197]},{"bufferView":17,"componentType":5126,"count":3742,"type":"VEC3","min":[-0.9961062669754028,-0.5310803055763245,-0.9999850988388062],"max":[0.9980489611625671,0.9998307824134827,0.9981037974357605]},{"bufferView":18,"componentType":5126,"count":3742,"type":"VEC2"},{"bufferView":19,"componentType":5123,"count":18192,"type":"SCALAR","min":[0],"max":[3741]},{"bufferView":20,"componentType":5126,"count":711,"type":"VEC3","min":[-0.4671776978737864,0.0,-0.44979525027712636],"max":[0.46740563778053823,1.1,0.4498948973936197]},{"bufferView":21,"componentType":5126,"count":711,"type":"VEC3","min":[-0.9960769414901733,-0.28742703795433044,-0.99998539686203],"max":[0.9766634106636047,0.9998952150344849,0.9995871186256409]},{"bufferView":22,"componentType":5126,"count":711,"type":"VEC2"},{"bufferView":23,"componentType":5123,"count":2610,"type":"SCALAR","min":[0],"max":[710]},{"bufferView":24,"componentType":5126,"count":16,"type":"VEC3","min":[-0.5142500000000001,0,-0.5142500000000001],"max":[0.5142500000000001,1.1,0.5142500000000001]},{"bufferView":25,"componentType":5126,"count":16,"type":"VEC3","min":[-1.0,0,-0.7071067811865475],"max":[-0.0,0,1.0]},{"bufferView":26,"componentType":5126,"count":16,"type":"VEC2"},{"bufferView":27,"componentType":5123,"count":24,"type":"SCALAR","min":[0],"max":[15]},{"bufferView":28,"componentType":5126,"count":8,"type":"VEC3","min":[-0.5142500000000001,0,-0.5142500000000001],"max":[0.5142500000000001,1.1,0.5142500000000001]},{"bufferView":29,"componentType":5126,"count":8,"type":"VEC3","min":[-1.0,0,6.123233995736766e-17],"max":[-0.0,0,1.0]},{"bufferView":30,"componentType":5126,"count":8,"type":"VEC2"},{"bufferView":31,"componentType":5123,"count":12,"type":"SCALAR","min":[0],"max":[7]},{"bufferView":32,"componentType":5126,"count":3281,"type":"VEC3","min":[-0.584979806331762,0.0,-0.6375],"max":[0.584979806331762,1.5,0.6375]},{"bufferView":33,"componentType":5126,"count":3281,"type":"VEC3","min":[-0.9998146891593933,-0.4178755581378937,-0.9999851584434509],"max":[0.999520480632782,0.9999264478683472,0.9999779462814331]},{"bufferView":34,"componentType":5126,"count":3281,"type":"VEC2"},{"bufferView":35,"componentType":5123,"count":16044,"type":"SCALAR","min":[0],"max":[3280]},{"bufferView":36,"componentType":5126,"count":640,"type":"VEC3","min":[-0.584332816826827,0.0,-0.637399248678351],"max":[0.584979806331762,1.499926549590565,0.6375]},{"bufferView":37,"componentType":5126,"count":640,"type":"VEC3","min":[-0.9978211522102356,-0.31232166290283203,-0.9999854564666748],"max":[0.9859210848808289,0.9999579787254333,0.9998587965965271]},{"bufferView":38,"componentType":5126,"count":640,"type":"VEC2"},{"bufferView":39,"componentType":5123,"count":2406,"type":"SCALAR","min":[0],"max":[639]},{"bufferView":40,"componentType":5126,"count":16,"type":"VEC3","min":[-0.70125,0,-0.70125],"max":[0.70125,1.5,0.70125]},{"bufferView":41,"componentType":5126,"count":16,"type":"VEC3","min":[-1.0,0,-0.7071067811865475],"max":[-0.0,0,1.0]},{"bufferView":42,"componentType":5126,"count":16,"type":"VEC2"},{"bufferView":43,"componentType":5123,"count":24,"type":"SCALAR","min":[0],"max":[15]},{"bufferView":44,"componentType":5126,"count":8,"type":"VEC3","min":[-0.70125,0,-0.70125],"max":[0.70125,1.5,0.70125]},{"bufferView":45,"componentType":5126,"count":8,"type":"VEC3","min":[-1.0,0,6.123233995736766e-17],"max":[-0.0,0,1.0]},{"bufferView":46,"componentType":5126,"count":8,"type":"VEC2"},{"bufferView":47,"componentType":5123,"count":12,"type":"SCALAR","min":[0],"max":[7]},{"bufferView":48,"componentType":5126,"count":28800,"type":"VEC3","min":[-3.1129642150735584,0.020364205148508452,-0.7249922893498026],"max":[3.1109675477574696,1.3554588191377779,0.7299363531988816]},{"bufferView":49,"componentType":5126,"count":28800,"type":"VEC3","min":[-1.0,-0.1499100326359707,-1.0],"max":[1.0,1.0,1.0]},{"bufferView":50,"componentType":5126,"count":28800,"type":"VEC2"},{"bufferView":51,"componentType":5123,"count":43200,"type":"SCALAR","min":[0],"max":[28799]},{"bufferView":52,"componentType":5126,"count":22400,"type":"VEC3","min":[-3.230451930636138,-0.058469845907232476,-0.8402030856103132],"max":[3.2259273839868543,1.4175785272316268,0.8320761614201343]},{"bufferView":53,"componentType":5126,"count":22400,"type":"VEC3","min":[-1.0,-0.14988355773064535,-1.0],"max":[1.0,1.0,1.0]},{"bufferView":54,"componentType":5126,"count":22400,"type":"VEC2"},{"bufferView":55,"componentType":5123,"count":33600,"type":"SCALAR","min":[0],"max":[22399]},{"bufferView":56,"componentType":5126,"count":22000,"type":"VEC3","min":[-3.2993291724720804,-0.10329320716129073,-0.909365841074017],"max":[3.3111759899033726,1.4738295026322612,0.9214281442785506]},{"bufferView":57,"componentType":5126,"count":22000,"type":"VEC3","min":[-1.0,-0.1498590047655121,-1.0],"max":[1.0,1.0,1.0]},{"bufferView":58,"componentType":5126,"count":22000,"type":"VEC2"},{"bufferView":59,"componentType":5123,"count":33000,"type":"SCALAR","min":[0],"max":[21999]},{"bufferView":60,"componentType":5126,"count":21600,"type":"VEC3","min":[-3.3882235368932894,-0.18493372162991167,-1.0265269960935905],"max":[3.402366585173466,1.5379050599820097,1.0451862655033286]},{"bufferView":61,"componentType":5126,"count":21600,"type":"VEC3","min":[-1.0,-0.14997501220875012,-1.0],"max":[1.0,1.0,1.0]},{"bufferView":62,"componentType":5126,"count":21600,"type":"VEC2"},{"bufferView":63,"componentType":5123,"count":32400,"type":"SCALAR","min":[0],"max":[21599]},{"bufferView":64,"componentType":5126,"count":21200,"type":"VEC3","min":[-3.5377823104780637,-0.2850500345433375,-1.1458945148044317],"max":[3.558603284847601,1.6531991162160669,1.1659273717948704]},{"bufferView":65,"componentType":5126,"count":21200,"type":"VEC3","min":[-1.0,-0.14956319526835976,-1.0],"max":[1.0,1.0,1.0]},{"bufferView":66,"componentType":5126,"count":21200,"type":"VEC2"},{"bufferView":67,"componentType":5123,"count":31800,"type":"SCALAR","min":[0],"max":[21199]},{"bufferView":68,"componentType":5126,"count":20800,"type":"VEC3","min":[-3.715383704080553,-0.41336287989088716,-1.3361019118476127],"max":[3.7154780849697775,1.7448334871296223,1.3664557925837408]},{"bufferView":69,"componentType":5126,"count":20800,"type":"VEC3","min":[-1.0,-0.1499213299680688,-1.0],"max":[1.0,1.0,1.0]},{"bufferView":70,"componentType":5126,"count":20800,"type":"VEC2"},{"bufferView":71,"componentType":5123,"count":31200,"type":"SCALAR","min":[0],"max":[20799]},{"bufferView":72,"componentType":5126,"count":20400,"type":"VEC3","min":[-3.9530377305119253,-0.5900882843242088,-1.5555838301771203],"max":[3.957498919907319,1.9572561669084099,1.572329504075233]},{"bufferView":73,"componentType":5126,"count":20400,"type":"VEC3","min":[-1.0,-0.14988711037889652,-1.0],"max":[1.0,1.0,1.0]},{"bufferView":74,"componentType":5126,"count":20400,"type":"VEC2"},{"bufferView":75,"componentType":5123,"count":30600,"type":"SCALAR","min":[0],"max":[20399]},{"bufferView":76,"componentType":5126,"count":20000,"type":"VEC3","min":[-4.216456814008774,-0.7526809094734545,-1.86955435549006],"max":[4.185934217797996,2.118416563553976,1.809532624398162]},{"bufferView":77,"componentType":5126,"count":20000,"type":"VEC3","min":[-1.0,-0.1499288619259063,-1.0],"max":[1.0,1.0,1.0]},{"bufferView":78,"componentType":5126,"count":20000,"type":"VEC2"},{"bufferView":79,"componentType":5123,"count":30000,"type":"SCALAR","min":[0],"max":[19999]},{"bufferView":80,"componentType":5126,"count":19600,"type":"VEC3","min":[-4.500519684035618,-0.9387121708943562,-2.1301856096481764],"max":[4.514117937984891,2.306550983146857,2.077843978548017]},{"bufferView":81,"componentType":5126,"count":19600,"type":"VEC3","min":[-1.0,-0.14975521095426186,-1.0],"max":[1.0,1.0,1.0]},{"bufferView":82,"componentType":5126,"count":19600,"type":"VEC2"},{"bufferView":83,"componentType":5123,"count":29400,"type":"SCALAR","min":[0],"max":[19599]},{"bufferView":84,"componentType":5126,"count":19200,"type":"VEC3","min":[-4.845888129051895,-1.1728209646151146,-2.466023046617031],"max":[4.832744212068505,2.5462316712575364,2.4189040086150864]},{"bufferView":85,"componentType":5126,"count":19200,"type":"VEC3","min":[-1.0,-0.14996307771621306,-1.0],"max":[1.0,1.0,1.0]},{"bufferView":86,"componentType":5126,"count":19200,"type":"VEC2"},{"bufferView":87,"componentType":5123,"count":28800,"type":"SCALAR","min":[0],"max":[19199]},{"bufferView":88,"componentType":5126,"count":18600,"type":"VEC3","min":[-5.171017517449577,-1.4292666739656477,-2.754908839692763],"max":[5.172555834145964,2.752983767040531,2.7674348079858335]},{"bufferView":89,"componentType":5126,"count":18600,"type":"VEC3","min":[-1.0,-0.14993709915921535,-1.0],"max":[1.0,1.0,1.0]},{"bufferView":90,"componentType":5126,"count":18600,"type":"VEC2"},{"bufferView":91,"componentType":5123,"count":27900,"type":"SCALAR","min":[0],"max":[18599]},{"bufferView":92,"componentType":5126,"count":18000,"type":"VEC3","min":[-5.583936004477119,-1.7284888831878045,-3.2503057761781875],"max":[5.624692942398681,3.0394112144910927,3.2092701146887905]},{"bufferView":93,"componentType":5126,"count":18000,"type":"VEC3","min":[-1.0,-0.1499714987277783,-1.0],"max":[1.0,1.0,1.0]},{"bufferView":94,"componentType":5126,"count":18000,"type":"VEC2"},{"bufferView":95,"componentType":5123,"count":27000,"type":"SCALAR","min":[0],"max":[17999]}],"images":[{"uri":"textures/poly_shrub_01.png"},{"uri":"textures/poly_shrub_01.png"},{"uri":"impostors/himbeere_a_autumn.png"},{"uri":"textures/poly_shrub_01.png"},{"uri":"textures/poly_shrub_01.png"},{"uri":"impostors/himbeere_b_autumn.png"},{"uri":"textures/poly_shrub_01.png"},{"uri":"textures/poly_shrub_01.png"},{"uri":"impostors/himbeere_c_autumn.png"},{"uri":"textures/poly_searsia_lucida.png"}],"samplers":[{"magFilter":9729,"minFilter":9987,"wrapS":10497,"wrapT":10497},{"magFilter":9729,"minFilter":9987,"wrapS":10497,"wrapT":10497},{"magFilter":9729,"minFilter":9987,"wrapS":10497,"wrapT":10497},{"magFilter":9729,"minFilter":9987,"wrapS":10497,"wrapT":10497}],"textures":[{"source":0,"sampler":0},{"source":1,"sampler":0},{"source":2,"sampler":0},{"source":3,"sampler":1},{"source":4,"sampler":1},{"source":5,"sampler":1},{"source":6,"sampler":2},{"source":7,"sampler":2},{"source":8,"sampler":2},{"source":9,"sampler":3}],"materials":[{"name":"himbeere_a_bark","pbrMetallicRoughness":{"baseColorFactor":[0.82,0.82,0.82,1.0],"baseColorTexture":{"index":0},"metallicFactor":0.0,"roughnessFactor":0.91},"doubleSided":false},{"name":"himbeere_a_foliage","pbrMetallicRoughness":{"baseColorFactor":[0.72,0.42,0.09,1.0],"baseColorTexture":{"index":1},"metallicFactor":0.0,"roughnessFactor":0.78},"doubleSided":true,"alphaMode":"MASK","alphaCutoff":0.18},{"name":"himbeere_a_whole_tree_impostor","pbrMetallicRoughness":{"baseColorFactor":[1,1,1,1],"baseColorTexture":{"index":2},"metallicFactor":0.0,"roughnessFactor":0.92},"doubleSided":true,"alphaMode":"MASK","alphaCutoff":0.18},{"name":"himbeere_b_bark","pbrMetallicRoughness":{"baseColorFactor":[0.82,0.82,0.82,1.0],"baseColorTexture":{"index":3},"metallicFactor":0.0,"roughnessFactor":0.91},"doubleSided":false},{"name":"himbeere_b_foliage","pbrMetallicRoughness":{"baseColorFactor":[0.72,0.42,0.09,1.0],"baseColorTexture":{"index":4},"metallicFactor":0.0,"roughnessFactor":0.78},"doubleSided":true,"alphaMode":"MASK","alphaCutoff":0.18},{"name":"himbeere_b_whole_tree_impostor","pbrMetallicRoughness":{"baseColorFactor":[1,1,1,1],"baseColorTexture":{"index":5},"metallicFactor":0.0,"roughnessFactor":0.92},"doubleSided":true,"alphaMode":"MASK","alphaCutoff":0.18},{"name":"himbeere_c_bark","pbrMetallicRoughness":{"baseColorFactor":[0.82,0.82,0.82,1.0],"baseColorTexture":{"index":6},"metallicFactor":0.0,"roughnessFactor":0.91},"doubleSided":false},{"name":"himbeere_c_foliage","pbrMetallicRoughness":{"baseColorFactor":[0.72,0.42,0.09,1.0],"baseColorTexture":{"index":7},"metallicFactor":0.0,"roughnessFactor":0.78},"doubleSided":true,"alphaMode":"MASK","alphaCutoff":0.18},{"name":"himbeere_c_whole_tree_impostor","pbrMetallicRoughness":{"baseColorFactor":[1,1,1,1],"baseColorTexture":{"index":8},"metallicFactor":0.0,"roughnessFactor":0.92},"doubleSided":true,"alphaMode":"MASK","alphaCutoff":0.18},{"name":"ligusterhecke_individual_leaves_LOD0","pbrMetallicRoughness":{"baseColorFactor":[0.68,0.62,0.24,1.0],"baseColorTexture":{"index":9},"metallicFactor":0.0,"roughnessFactor":0.82},"doubleSided":true,"alphaMode":"MASK","alphaCutoff":0.18},{"name":"ligusterhecke_individual_leaves_LOD1","pbrMetallicRoughness":{"baseColorFactor":[0.68,0.62,0.24,1.0],"baseColorTexture":{"index":9},"metallicFactor":0.0,"roughnessFactor":0.82},"doubleSided":true,"alphaMode":"MASK","alphaCutoff":0.08},{"name":"ligusterhecke_individual_leaves_LOD2","pbrMetallicRoughness":{"baseColorFactor":[0.68,0.62,0.24,1.0],"baseColorTexture":{"index":9},"metallicFactor":0.0,"roughnessFactor":0.82},"doubleSided":true,"alphaMode":"MASK","alphaCutoff":0.065},{"name":"ligusterhecke_individual_leaves_LOD3","pbrMetallicRoughness":{"baseColorFactor":[0.68,0.62,0.24,1.0],"baseColorTexture":{"index":9},"metallicFactor":0.0,"roughnessFactor":0.82},"doubleSided":true,"alphaMode":"MASK","alphaCutoff":0.055},{"name":"ligusterhecke_individual_leaves_LOD4","pbrMetallicRoughness":{"baseColorFactor":[0.68,0.62,0.24,1.0],"baseColorTexture":{"index":9},"metallicFactor":0.0,"roughnessFactor":0.82},"doubleSided":true,"alphaMode":"MASK","alphaCutoff":0.045},{"name":"ligusterhecke_individual_leaves_LOD5","pbrMetallicRoughness":{"baseColorFactor":[0.68,0.62,0.24,1.0],"baseColorTexture":{"index":9},"metallicFactor":0.0,"roughnessFactor":0.82},"doubleSided":true,"alphaMode":"MASK","alphaCutoff":0.038},{"name":"ligusterhecke_individual_leaves_LOD6","pbrMetallicRoughness":{"baseColorFactor":[0.68,0.62,0.24,1.0],"baseColorTexture":{"index":9},"metallicFactor":0.0,"roughnessFactor":0.82},"doubleSided":true,"alphaMode":"MASK","alphaCutoff":0.032},{"name":"ligusterhecke_individual_leaves_LOD7","pbrMetallicRoughness":{"baseColorFactor":[0.68,0.62,0.24,1.0],"baseColorTexture":{"index":9},"metallicFactor":0.0,"roughnessFactor":0.82},"doubleSided":true,"alphaMode":"MASK","alphaCutoff":0.027},{"name":"ligusterhecke_individual_leaves_LOD8","pbrMetallicRoughness":{"baseColorFactor":[0.68,0.62,0.24,1.0],"baseColorTexture":{"index":9},"metallicFactor":0.0,"roughnessFactor":0.82},"doubleSided":true,"alphaMode":"MASK","alphaCutoff":0.023},{"name":"ligusterhecke_individual_leaves_LOD9","pbrMetallicRoughness":{"baseColorFactor":[0.68,0.62,0.24,1.0],"baseColorTexture":{"index":9},"metallicFactor":0.0,"roughnessFactor":0.82},"doubleSided":true,"alphaMode":"MASK","alphaCutoff":0.02},{"name":"ligusterhecke_individual_leaves_LOD10","pbrMetallicRoughness":{"baseColorFactor":[0.68,0.62,0.24,1.0],"baseColorTexture":{"index":9},"metallicFactor":0.0,"roughnessFactor":0.82},"doubleSided":true,"alphaMode":"MASK","alphaCutoff":0.017},{"name":"ligusterhecke_individual_leaves_LOD11","pbrMetallicRoughness":{"baseColorFactor":[0.68,0.62,0.24,1.0],"baseColorTexture":{"index":9},"metallicFactor":0.0,"roughnessFactor":0.82},"doubleSided":true,"alphaMode":"MASK","alphaCutoff":0.015}]}