{"asset":{"version":"2.0","generator":"Connected Rails CC0 hedge composer","copyright":"Mantissa and Poly Haven source models: CC0 1.0; hedge composition: Connected Rails"},"scene":0,"scenes":[{"nodes":[0,1,2,3,4,5,6,7,8,9,10,11]}],"nodes":[{"name":"hedge_LOD0","children":[12,18,26,28,30,32,34,38,44,55,57,63,75,77,81,83,95,97,101,105,115,125,137,139]},{"name":"hedge_LOD1","children":[13,19,27,29,31,33,35,39,45,56,58,64,76,78,82,84,96,98,102,106,116,126,138,140]},{"name":"hedge_LOD2","children":[14,20,36,40,46,59,65,79,85,99,103,107,117,127,141]},{"name":"hedge_LOD3","children":[15,21,37,41,47,60,66,80,86,100,104,108,118,128,142]},{"name":"hedge_LOD4","children":[16,22,42,48,61,67,87,109,119,129,143]},{"name":"hedge_LOD5","children":[17,23,43,49,62,68,88,110,120,130,144]},{"name":"hedge_LOD6","children":[24,50,69,89,111,121,131,145]},{"name":"hedge_LOD7","children":[25,51,70,90,112,122,132,146]},{"name":"hedge_LOD8","children":[52,71,91,113,123,133,147]},{"name":"hedge_LOD9","children":[53,72,92,114,124,134,148]},{"name":"hedge_LOD10","children":[54,73,93,135,149]},{"name":"hedge_LOD11","children":[74,94,136,150]},{"name":"himbeere_b_part_12_LOD0","mesh":1,"translation":[-3.0,-0.0,0.109147388377764],"rotation":[0.0,-0.0723938367736759,0.0,0.99737612383553],"scale":[0.8458920758385997,1.5443639885446643,1.20193428421621]},{"name":"himbeere_b_part_13_LOD1","mesh":1,"translation":[-3.0,-0.0,0.109147388377764],"rotation":[0.0,-0.0723938367736759,0.0,0.99737612383553],"scale":[0.8458920758385997,1.5443639885446643,1.20193428421621]},{"name":"himbeere_b_part_14_LOD2","mesh":1,"translation":[-3.0,-0.0,0.109147388377764],"rotation":[0.0,-0.0723938367736759,0.0,0.99737612383553],"scale":[0.8458920758385997,1.5443639885446643,1.20193428421621]},{"name":"himbeere_b_part_15_LOD3","mesh":1,"translation":[-3.0,-0.0,0.109147388377764],"rotation":[0.0,-0.0723938367736759,0.0,0.99737612383553],"scale":[0.8458920758385997,1.5443639885446643,1.20193428421621]},{"name":"himbeere_b_part_16_LOD4","mesh":1,"translation":[-3.0,-0.0,0.109147388377764],"rotation":[0.0,-0.0723938367736759,0.0,0.99737612383553],"scale":[0.8458920758385997,1.5443639885446643,1.20193428421621]},{"name":"himbeere_b_part_17_LOD5","mesh":1,"translation":[-3.0,-0.0,0.109147388377764],"rotation":[0.0,-0.0723938367736759,0.0,0.99737612383553],"scale":[0.8458920758385997,1.5443639885446643,1.20193428421621]},{"name":"himbeere_c_part_18_LOD0","mesh":5,"translation":[-2.4545454545454546,-0.0,0.04167848797793003],"rotation":[0.0,0.01969483957321616,0.0,0.9998060378364322],"scale":[0.6760140113798554,1.151129807918141,1.0453834098390482]},{"name":"himbeere_c_part_19_LOD1","mesh":5,"translation":[-2.4545454545454546,-0.0,0.04167848797793003],"rotation":[0.0,0.01969483957321616,0.0,0.9998060378364322],"scale":[0.6760140113798554,1.151129807918141,1.0453834098390482]},{"name":"himbeere_c_part_20_LOD2","mesh":5,"translation":[-2.4545454545454546,-0.0,0.04167848797793003],"rotation":[0.0,0.01969483957321616,0.0,0.9998060378364322],"scale":[0.6760140113798554,1.151129807918141,1.0453834098390482]},{"name":"himbeere_c_part_21_LOD3","mesh":5,"translation":[-2.4545454545454546,-0.0,0.04167848797793003],"rotation":[0.0,0.01969483957321616,0.0,0.9998060378364322],"scale":[0.6760140113798554,1.151129807918141,1.0453834098390482]},{"name":"himbeere_c_part_22_LOD4","mesh":5,"translation":[-2.4545454545454546,-0.0,0.04167848797793003],"rotation":[0.0,0.01969483957321616,0.0,0.9998060378364322],"scale":[0.6760140113798554,1.151129807918141,1.0453834098390482]},{"name":"himbeere_c_part_23_LOD5","mesh":5,"translation":[-2.4545454545454546,-0.0,0.04167848797793003],"rotation":[0.0,0.01969483957321616,0.0,0.9998060378364322],"scale":[0.6760140113798554,1.151129807918141,1.0453834098390482]},{"name":"himbeere_c_part_24_LOD6","mesh":5,"translation":[-2.4545454545454546,-0.0,0.04167848797793003],"rotation":[0.0,0.01969483957321616,0.0,0.9998060378364322],"scale":[0.6760140113798554,1.151129807918141,1.0453834098390482]},{"name":"himbeere_c_part_25_LOD7","mesh":5,"translation":[-2.4545454545454546,-0.0,0.04167848797793003],"rotation":[0.0,0.01969483957321616,0.0,0.9998060378364322],"scale":[0.6760140113798554,1.151129807918141,1.0453834098390482]},{"name":"himbeere_a_part_26_LOD0","mesh":9,"translation":[-1.9090909090909092,-0.0,-0.0797430663315255],"rotation":[0.0,-0.006206830283045446,0.0,0.9999807374433957],"scale":[1.3292589763177998,2.4778475802102085,2.161355235914737]},{"name":"himbeere_a_part_27_LOD1","mesh":9,"translation":[-1.9090909090909092,-0.0,-0.0797430663315255],"rotation":[0.0,-0.006206830283045446,0.0,0.9999807374433957],"scale":[1.3292589763177998,2.4778475802102085,2.161355235914737]},{"name":"himbeere_b_part_28_LOD0","mesh":1,"translation":[-1.3636363636363638,-0.0,0.12859160640529466],"rotation":[0.0,0.023449238085653475,0.0,0.9997250288120241],"scale":[0.8458920758385997,1.5058035068775824,1.1614405339190204]},{"name":"himbeere_b_part_29_LOD1","mesh":1,"translation":[-1.3636363636363638,-0.0,0.12859160640529466],"rotation":[0.0,0.023449238085653475,0.0,0.9997250288120241],"scale":[0.8458920758385997,1.5058035068775824,1.1614405339190204]},{"name":"himbeere_c_part_30_LOD0","mesh":5,"translation":[-0.8181818181818183,-0.0,-0.014013385266400585],"rotation":[0.0,0.07152076680881422,0.0,0.9974391108809997],"scale":[0.6760140113798554,1.09968227067038,0.8067312710937257]},{"name":"himbeere_c_part_31_LOD1","mesh":5,"translation":[-0.8181818181818183,-0.0,-0.014013385266400585],"rotation":[0.0,0.07152076680881422,0.0,0.9974391108809997],"scale":[0.6760140113798554,1.09968227067038,0.8067312710937257]},{"name":"himbeere_a_part_32_LOD0","mesh":9,"translation":[-0.27272727272727293,-0.0,0.098986001393877],"rotation":[0.0,-0.010108521234507981,0.0,0.9999489075940088],"scale":[1.3292589763177998,2.4908600679017563,2.069293373764809]},{"name":"himbeere_a_part_33_LOD1","mesh":9,"translation":[-0.27272727272727293,-0.0,0.098986001393877],"rotation":[0.0,-0.010108521234507981,0.0,0.9999489075940088],"scale":[1.3292589763177998,2.4908600679017563,2.069293373764809]},{"name":"himbeere_b_part_34_LOD0","mesh":1,"translation":[0.2727272727272725,-0.0,0.05275808730534465],"rotation":[0.0,-0.07110259867231086,0.0,0.9974690072689197],"scale":[0.8458920758385997,1.6027185086803077,1.4173491611226046]},{"name":"himbeere_b_part_35_LOD1","mesh":1,"translation":[0.2727272727272725,-0.0,0.05275808730534465],"rotation":[0.0,-0.07110259867231086,0.0,0.9974690072689197],"scale":[0.8458920758385997,1.6027185086803077,1.4173491611226046]},{"name":"himbeere_b_part_36_LOD2","mesh":1,"translation":[0.2727272727272725,-0.0,0.05275808730534465],"rotation":[0.0,-0.07110259867231086,0.0,0.9974690072689197],"scale":[0.8458920758385997,1.6027185086803077,1.4173491611226046]},{"name":"himbeere_b_part_37_LOD3","mesh":1,"translation":[0.2727272727272725,-0.0,0.05275808730534465],"rotation":[0.0,-0.07110259867231086,0.0,0.9974690072689197],"scale":[0.8458920758385997,1.6027185086803077,1.4173491611226046]},{"name":"himbeere_c_part_38_LOD0","mesh":5,"translation":[0.8181818181818179,-0.0,0.036765654277427784],"rotation":[0.0,0.07972907666065433,0.0,0.9968165700543102],"scale":[0.6760140113798554,1.1006238405679716,0.8685132653766091]},{"name":"himbeere_c_part_39_LOD1","mesh":5,"translation":[0.8181818181818179,-0.0,0.036765654277427784],"rotation":[0.0,0.07972907666065433,0.0,0.9968165700543102],"scale":[0.6760140113798554,1.1006238405679716,0.8685132653766091]},{"name":"himbeere_c_part_40_LOD2","mesh":5,"translation":[0.8181818181818179,-0.0,0.036765654277427784],"rotation":[0.0,0.07972907666065433,0.0,0.9968165700543102],"scale":[0.6760140113798554,1.1006238405679716,0.8685132653766091]},{"name":"himbeere_c_part_41_LOD3","mesh":5,"translation":[0.8181818181818179,-0.0,0.036765654277427784],"rotation":[0.0,0.07972907666065433,0.0,0.9968165700543102],"scale":[0.6760140113798554,1.1006238405679716,0.8685132653766091]},{"name":"himbeere_c_part_42_LOD4","mesh":5,"translation":[0.8181818181818179,-0.0,0.036765654277427784],"rotation":[0.0,0.07972907666065433,0.0,0.9968165700543102],"scale":[0.6760140113798554,1.1006238405679716,0.8685132653766091]},{"name":"himbeere_c_part_43_LOD5","mesh":5,"translation":[0.8181818181818179,-0.0,0.036765654277427784],"rotation":[0.0,0.07972907666065433,0.0,0.9968165700543102],"scale":[0.6760140113798554,1.1006238405679716,0.8685132653766091]},{"name":"himbeere_a_part_44_LOD0","mesh":9,"translation":[1.3636363636363633,-0.0,0.08403906172019421],"rotation":[0.0,0.052897515799816094,0.0,0.998599946335973],"scale":[1.3292589763177998,2.522961729886446,2.099620443059483]},{"name":"himbeere_a_part_45_LOD1","mesh":9,"translation":[1.3636363636363633,-0.0,0.08403906172019421],"rotation":[0.0,0.052897515799816094,0.0,0.998599946335973],"scale":[1.3292589763177998,2.522961729886446,2.099620443059483]},{"name":"himbeere_a_part_46_LOD2","mesh":9,"translation":[1.3636363636363633,-0.0,0.08403906172019421],"rotation":[0.0,0.052897515799816094,0.0,0.998599946335973],"scale":[1.3292589763177998,2.522961729886446,2.099620443059483]},{"name":"himbeere_a_part_47_LOD3","mesh":9,"translation":[1.3636363636363633,-0.0,0.08403906172019421],"rotation":[0.0,0.052897515799816094,0.0,0.998599946335973],"scale":[1.3292589763177998,2.522961729886446,2.099620443059483]},{"name":"himbeere_a_part_48_LOD4","mesh":9,"translation":[1.3636363636363633,-0.0,0.08403906172019421],"rotation":[0.0,0.052897515799816094,0.0,0.998599946335973],"scale":[1.3292589763177998,2.522961729886446,2.099620443059483]},{"name":"himbeere_a_part_49_LOD5","mesh":9,"translation":[1.3636363636363633,-0.0,0.08403906172019421],"rotation":[0.0,0.052897515799816094,0.0,0.998599946335973],"scale":[1.3292589763177998,2.522961729886446,2.099620443059483]},{"name":"himbeere_a_part_50_LOD6","mesh":9,"translation":[1.3636363636363633,-0.0,0.08403906172019421],"rotation":[0.0,0.052897515799816094,0.0,0.998599946335973],"scale":[1.3292589763177998,2.522961729886446,2.099620443059483]},{"name":"himbeere_a_part_51_LOD7","mesh":9,"translation":[1.3636363636363633,-0.0,0.08403906172019421],"rotation":[0.0,0.052897515799816094,0.0,0.998599946335973],"scale":[1.3292589763177998,2.522961729886446,2.099620443059483]},{"name":"himbeere_a_part_52_LOD8","mesh":9,"translation":[1.3636363636363633,-0.0,0.08403906172019421],"rotation":[0.0,0.052897515799816094,0.0,0.998599946335973],"scale":[1.3292589763177998,2.522961729886446,2.099620443059483]},{"name":"himbeere_a_part_53_LOD9","mesh":9,"translation":[1.3636363636363633,-0.0,0.08403906172019421],"rotation":[0.0,0.052897515799816094,0.0,0.998599946335973],"scale":[1.3292589763177998,2.522961729886446,2.099620443059483]},{"name":"himbeere_a_part_54_LOD10","mesh":9,"translation":[1.3636363636363633,-0.0,0.08403906172019421],"rotation":[0.0,0.052897515799816094,0.0,0.998599946335973],"scale":[1.3292589763177998,2.522961729886446,2.099620443059483]},{"name":"himbeere_b_part_55_LOD0","mesh":1,"translation":[1.9090909090909083,-0.0,-0.007911480830541537],"rotation":[0.0,0.05127154534469962,0.0,0.9986847493768825],"scale":[0.8458920758385997,1.5702915351320075,1.2453515994003521]},{"name":"himbeere_b_part_56_LOD1","mesh":1,"translation":[1.9090909090909083,-0.0,-0.007911480830541537],"rotation":[0.0,0.05127154534469962,0.0,0.9986847493768825],"scale":[0.8458920758385997,1.5702915351320075,1.2453515994003521]},{"name":"himbeere_c_part_57_LOD0","mesh":5,"translation":[2.454545454545454,-0.0,0.12914790141285476],"rotation":[0.0,-0.027914088636194257,0.0,0.9996103259048551],"scale":[0.6760140113798554,1.1105859665574676,0.8717268673971686]},{"name":"himbeere_c_part_58_LOD1","mesh":5,"translation":[2.454545454545454,-0.0,0.12914790141285476],"rotation":[0.0,-0.027914088636194257,0.0,0.9996103259048551],"scale":[0.6760140113798554,1.1105859665574676,0.8717268673971686]},{"name":"himbeere_c_part_59_LOD2","mesh":5,"translation":[2.454545454545454,-0.0,0.12914790141285476],"rotation":[0.0,-0.027914088636194257,0.0,0.9996103259048551],"scale":[0.6760140113798554,1.1105859665574676,0.8717268673971686]},{"name":"himbeere_c_part_60_LOD3","mesh":5,"translation":[2.454545454545454,-0.0,0.12914790141285476],"rotation":[0.0,-0.027914088636194257,0.0,0.9996103259048551],"scale":[0.6760140113798554,1.1105859665574676,0.8717268673971686]},{"name":"himbeere_c_part_61_LOD4","mesh":5,"translation":[2.454545454545454,-0.0,0.12914790141285476],"rotation":[0.0,-0.027914088636194257,0.0,0.9996103259048551],"scale":[0.6760140113798554,1.1105859665574676,0.8717268673971686]},{"name":"himbeere_c_part_62_LOD5","mesh":5,"translation":[2.454545454545454,-0.0,0.12914790141285476],"rotation":[0.0,-0.027914088636194257,0.0,0.9996103259048551],"scale":[0.6760140113798554,1.1105859665574676,0.8717268673971686]},{"name":"himbeere_a_part_63_LOD0","mesh":9,"translation":[3.0,-0.0,-0.1149744146276972],"rotation":[0.0,-0.012455792468502211,0.0,0.9999224236079425],"scale":[1.3292589763177998,2.427149836275753,2.0774138623394416]},{"name":"himbeere_a_part_64_LOD1","mesh":9,"translation":[3.0,-0.0,-0.1149744146276972],"rotation":[0.0,-0.012455792468502211,0.0,0.9999224236079425],"scale":[1.3292589763177998,2.427149836275753,2.0774138623394416]},{"name":"himbeere_a_part_65_LOD2","mesh":9,"translation":[3.0,-0.0,-0.1149744146276972],"rotation":[0.0,-0.012455792468502211,0.0,0.9999224236079425],"scale":[1.3292589763177998,2.427149836275753,2.0774138623394416]},{"name":"himbeere_a_part_66_LOD3","mesh":9,"translation":[3.0,-0.0,-0.1149744146276972],"rotation":[0.0,-0.012455792468502211,0.0,0.9999224236079425],"scale":[1.3292589763177998,2.427149836275753,2.0774138623394416]},{"name":"himbeere_a_part_67_LOD4","mesh":9,"translation":[3.0,-0.0,-0.1149744146276972],"rotation":[0.0,-0.012455792468502211,0.0,0.9999224236079425],"scale":[1.3292589763177998,2.427149836275753,2.0774138623394416]},{"name":"himbeere_a_part_68_LOD5","mesh":9,"translation":[3.0,-0.0,-0.1149744146276972],"rotation":[0.0,-0.012455792468502211,0.0,0.9999224236079425],"scale":[1.3292589763177998,2.427149836275753,2.0774138623394416]},{"name":"himbeere_a_part_69_LOD6","mesh":9,"translation":[3.0,-0.0,-0.1149744146276972],"rotation":[0.0,-0.012455792468502211,0.0,0.9999224236079425],"scale":[1.3292589763177998,2.427149836275753,2.0774138623394416]},{"name":"himbeere_a_part_70_LOD7","mesh":9,"translation":[3.0,-0.0,-0.1149744146276972],"rotation":[0.0,-0.012455792468502211,0.0,0.9999224236079425],"scale":[1.3292589763177998,2.427149836275753,2.0774138623394416]},{"name":"himbeere_a_part_71_LOD8","mesh":9,"translation":[3.0,-0.0,-0.1149744146276972],"rotation":[0.0,-0.012455792468502211,0.0,0.9999224236079425],"scale":[1.3292589763177998,2.427149836275753,2.0774138623394416]},{"name":"himbeere_a_part_72_LOD9","mesh":9,"translation":[3.0,-0.0,-0.1149744146276972],"rotation":[0.0,-0.012455792468502211,0.0,0.9999224236079425],"scale":[1.3292589763177998,2.427149836275753,2.0774138623394416]},{"name":"himbeere_a_part_73_LOD10","mesh":9,"translation":[3.0,-0.0,-0.1149744146276972],"rotation":[0.0,-0.012455792468502211,0.0,0.9999224236079425],"scale":[1.3292589763177998,2.427149836275753,2.0774138623394416]},{"name":"himbeere_a_part_74_LOD11","mesh":9,"translation":[3.0,-0.0,-0.1149744146276972],"rotation":[0.0,-0.012455792468502211,0.0,0.9999224236079425],"scale":[1.3292589763177998,2.427149836275753,2.0774138623394416]},{"name":"himbeere_c_part_75_LOD0","mesh":5,"translation":[-2.7272727272727275,-0.0,0.05822627368715061],"rotation":[0.0,-0.015095168498961713,0.0,0.9998860614529977],"scale":[0.722635667337087,0.7282183443927011,0.8607718616344183]},{"name":"himbeere_c_part_76_LOD1","mesh":5,"translation":[-2.7272727272727275,-0.0,0.05822627368715061],"rotation":[0.0,-0.015095168498961713,0.0,0.9998860614529977],"scale":[0.722635667337087,0.7282183443927011,0.8607718616344183]},{"name":"himbeere_a_part_77_LOD0","mesh":9,"translation":[-2.1818181818181817,-0.0,0.12991597253700177],"rotation":[0.0,-0.06997416494093509,0.0,0.9975488039393455],"scale":[1.4209320091673034,1.448474882125791,2.298808896907543]},{"name":"himbeere_a_part_78_LOD1","mesh":9,"translation":[-2.1818181818181817,-0.0,0.12991597253700177],"rotation":[0.0,-0.06997416494093509,0.0,0.9975488039393455],"scale":[1.4209320091673034,1.448474882125791,2.298808896907543]},{"name":"himbeere_a_part_79_LOD2","mesh":9,"translation":[-2.1818181818181817,-0.0,0.12991597253700177],"rotation":[0.0,-0.06997416494093509,0.0,0.9975488039393455],"scale":[1.4209320091673034,1.448474882125791,2.298808896907543]},{"name":"himbeere_a_part_80_LOD3","mesh":9,"translation":[-2.1818181818181817,-0.0,0.12991597253700177],"rotation":[0.0,-0.06997416494093509,0.0,0.9975488039393455],"scale":[1.4209320091673034,1.448474882125791,2.298808896907543]},{"name":"himbeere_b_part_81_LOD0","mesh":1,"translation":[-1.6363636363636365,-0.0,0.19075581128267288],"rotation":[0.0,-0.10550372156898111,0.0,0.9944189080740042],"scale":[0.9042294603791929,1.051980880902672,1.2831004037273328]},{"name":"himbeere_b_part_82_LOD1","mesh":1,"translation":[-1.6363636363636365,-0.0,0.19075581128267288],"rotation":[0.0,-0.10550372156898111,0.0,0.9944189080740042],"scale":[0.9042294603791929,1.051980880902672,1.2831004037273328]},{"name":"himbeere_c_part_83_LOD0","mesh":5,"translation":[-1.090909090909091,-0.0,-0.1101789172323767],"rotation":[0.0,0.00035059630468854854,0.0,0.9999999385411137],"scale":[0.722635667337087,0.6989004672390248,0.9050836763272307]},{"name":"himbeere_c_part_84_LOD1","mesh":5,"translation":[-1.090909090909091,-0.0,-0.1101789172323767],"rotation":[0.0,0.00035059630468854854,0.0,0.9999999385411137],"scale":[0.722635667337087,0.6989004672390248,0.9050836763272307]},{"name":"himbeere_c_part_85_LOD2","mesh":5,"translation":[-1.090909090909091,-0.0,-0.1101789172323767],"rotation":[0.0,0.00035059630468854854,0.0,0.9999999385411137],"scale":[0.722635667337087,0.6989004672390248,0.9050836763272307]},{"name":"himbeere_c_part_86_LOD3","mesh":5,"translation":[-1.090909090909091,-0.0,-0.1101789172323767],"rotation":[0.0,0.00035059630468854854,0.0,0.9999999385411137],"scale":[0.722635667337087,0.6989004672390248,0.9050836763272307]},{"name":"himbeere_c_part_87_LOD4","mesh":5,"translation":[-1.090909090909091,-0.0,-0.1101789172323767],"rotation":[0.0,0.00035059630468854854,0.0,0.9999999385411137],"scale":[0.722635667337087,0.6989004672390248,0.9050836763272307]},{"name":"himbeere_c_part_88_LOD5","mesh":5,"translation":[-1.090909090909091,-0.0,-0.1101789172323767],"rotation":[0.0,0.00035059630468854854,0.0,0.9999999385411137],"scale":[0.722635667337087,0.6989004672390248,0.9050836763272307]},{"name":"himbeere_c_part_89_LOD6","mesh":5,"translation":[-1.090909090909091,-0.0,-0.1101789172323767],"rotation":[0.0,0.00035059630468854854,0.0,0.9999999385411137],"scale":[0.722635667337087,0.6989004672390248,0.9050836763272307]},{"name":"himbeere_c_part_90_LOD7","mesh":5,"translation":[-1.090909090909091,-0.0,-0.1101789172323767],"rotation":[0.0,0.00035059630468854854,0.0,0.9999999385411137],"scale":[0.722635667337087,0.6989004672390248,0.9050836763272307]},{"name":"himbeere_c_part_91_LOD8","mesh":5,"translation":[-1.090909090909091,-0.0,-0.1101789172323767],"rotation":[0.0,0.00035059630468854854,0.0,0.9999999385411137],"scale":[0.722635667337087,0.6989004672390248,0.9050836763272307]},{"name":"himbeere_c_part_92_LOD9","mesh":5,"translation":[-1.090909090909091,-0.0,-0.1101789172323767],"rotation":[0.0,0.00035059630468854854,0.0,0.9999999385411137],"scale":[0.722635667337087,0.6989004672390248,0.9050836763272307]},{"name":"himbeere_c_part_93_LOD10","mesh":5,"translation":[-1.090909090909091,-0.0,-0.1101789172323767],"rotation":[0.0,0.00035059630468854854,0.0,0.9999999385411137],"scale":[0.722635667337087,0.6989004672390248,0.9050836763272307]},{"name":"himbeere_c_part_94_LOD11","mesh":5,"translation":[-1.090909090909091,-0.0,-0.1101789172323767],"rotation":[0.0,0.00035059630468854854,0.0,0.9999999385411137],"scale":[0.722635667337087,0.6989004672390248,0.9050836763272307]},{"name":"himbeere_a_part_95_LOD0","mesh":9,"translation":[-0.5454545454545459,-0.0,0.07800812281817082],"rotation":[0.0,0.10328482228380918,0.0,0.994651821234849],"scale":[1.4209320091673034,1.4961378454495438,2.08999466959902]},{"name":"himbeere_a_part_96_LOD1","mesh":9,"translation":[-0.5454545454545459,-0.0,0.07800812281817082],"rotation":[0.0,0.10328482228380918,0.0,0.994651821234849],"scale":[1.4209320091673034,1.4961378454495438,2.08999466959902]},{"name":"himbeere_b_part_97_LOD0","mesh":1,"translation":[0.0,-0.0,-0.1668494449685669],"rotation":[0.0,-0.08916776542633144,0.0,0.9960166211509097],"scale":[0.9042294603791929,0.9546239177531882,1.3300396704924824]},{"name":"himbeere_b_part_98_LOD1","mesh":1,"translation":[0.0,-0.0,-0.1668494449685669],"rotation":[0.0,-0.08916776542633144,0.0,0.9960166211509097],"scale":[0.9042294603791929,0.9546239177531882,1.3300396704924824]},{"name":"himbeere_b_part_99_LOD2","mesh":1,"translation":[0.0,-0.0,-0.1668494449685669],"rotation":[0.0,-0.08916776542633144,0.0,0.9960166211509097],"scale":[0.9042294603791929,0.9546239177531882,1.3300396704924824]},{"name":"himbeere_b_part_100_LOD3","mesh":1,"translation":[0.0,-0.0,-0.1668494449685669],"rotation":[0.0,-0.08916776542633144,0.0,0.9960166211509097],"scale":[0.9042294603791929,0.9546239177531882,1.3300396704924824]},{"name":"himbeere_c_part_101_LOD0","mesh":5,"translation":[0.545454545454545,-0.0,0.13074081219512884],"rotation":[0.0,-0.03001821617546601,0.0,0.9995493518069245],"scale":[0.722635667337087,0.6511362064884263,0.9205243877553688]},{"name":"himbeere_c_part_102_LOD1","mesh":5,"translation":[0.545454545454545,-0.0,0.13074081219512884],"rotation":[0.0,-0.03001821617546601,0.0,0.9995493518069245],"scale":[0.722635667337087,0.6511362064884263,0.9205243877553688]},{"name":"himbeere_c_part_103_LOD2","mesh":5,"translation":[0.545454545454545,-0.0,0.13074081219512884],"rotation":[0.0,-0.03001821617546601,0.0,0.9995493518069245],"scale":[0.722635667337087,0.6511362064884263,0.9205243877553688]},{"name":"himbeere_c_part_104_LOD3","mesh":5,"translation":[0.545454545454545,-0.0,0.13074081219512884],"rotation":[0.0,-0.03001821617546601,0.0,0.9995493518069245],"scale":[0.722635667337087,0.6511362064884263,0.9205243877553688]},{"name":"himbeere_a_part_105_LOD0","mesh":9,"translation":[1.0909090909090908,-0.0,-0.17005354927718447],"rotation":[0.0,0.07016964394151327,0.0,0.9975350726010195],"scale":[1.4209320091673034,1.6989076406158121,2.2592709314160624]},{"name":"himbeere_a_part_106_LOD1","mesh":9,"translation":[1.0909090909090908,-0.0,-0.17005354927718447],"rotation":[0.0,0.07016964394151327,0.0,0.9975350726010195],"scale":[1.4209320091673034,1.6989076406158121,2.2592709314160624]},{"name":"himbeere_a_part_107_LOD2","mesh":9,"translation":[1.0909090909090908,-0.0,-0.17005354927718447],"rotation":[0.0,0.07016964394151327,0.0,0.9975350726010195],"scale":[1.4209320091673034,1.6989076406158121,2.2592709314160624]},{"name":"himbeere_a_part_108_LOD3","mesh":9,"translation":[1.0909090909090908,-0.0,-0.17005354927718447],"rotation":[0.0,0.07016964394151327,0.0,0.9975350726010195],"scale":[1.4209320091673034,1.6989076406158121,2.2592709314160624]},{"name":"himbeere_a_part_109_LOD4","mesh":9,"translation":[1.0909090909090908,-0.0,-0.17005354927718447],"rotation":[0.0,0.07016964394151327,0.0,0.9975350726010195],"scale":[1.4209320091673034,1.6989076406158121,2.2592709314160624]},{"name":"himbeere_a_part_110_LOD5","mesh":9,"translation":[1.0909090909090908,-0.0,-0.17005354927718447],"rotation":[0.0,0.07016964394151327,0.0,0.9975350726010195],"scale":[1.4209320091673034,1.6989076406158121,2.2592709314160624]},{"name":"himbeere_a_part_111_LOD6","mesh":9,"translation":[1.0909090909090908,-0.0,-0.17005354927718447],"rotation":[0.0,0.07016964394151327,0.0,0.9975350726010195],"scale":[1.4209320091673034,1.6989076406158121,2.2592709314160624]},{"name":"himbeere_a_part_112_LOD7","mesh":9,"translation":[1.0909090909090908,-0.0,-0.17005354927718447],"rotation":[0.0,0.07016964394151327,0.0,0.9975350726010195],"scale":[1.4209320091673034,1.6989076406158121,2.2592709314160624]},{"name":"himbeere_a_part_113_LOD8","mesh":9,"translation":[1.0909090909090908,-0.0,-0.17005354927718447],"rotation":[0.0,0.07016964394151327,0.0,0.9975350726010195],"scale":[1.4209320091673034,1.6989076406158121,2.2592709314160624]},{"name":"himbeere_a_part_114_LOD9","mesh":9,"translation":[1.0909090909090908,-0.0,-0.17005354927718447],"rotation":[0.0,0.07016964394151327,0.0,0.9975350726010195],"scale":[1.4209320091673034,1.6989076406158121,2.2592709314160624]},{"name":"himbeere_b_part_115_LOD0","mesh":1,"translation":[1.6363636363636358,-0.0,0.20402603243434336],"rotation":[0.0,-0.06729681097968926,0.0,0.9977329999714172],"scale":[0.9042294603791929,1.0588071747461825,1.2506232673215647]},{"name":"himbeere_b_part_116_LOD1","mesh":1,"translation":[1.6363636363636358,-0.0,0.20402603243434336],"rotation":[0.0,-0.06729681097968926,0.0,0.9977329999714172],"scale":[0.9042294603791929,1.0588071747461825,1.2506232673215647]},{"name":"himbeere_b_part_117_LOD2","mesh":1,"translation":[1.6363636363636358,-0.0,0.20402603243434336],"rotation":[0.0,-0.06729681097968926,0.0,0.9977329999714172],"scale":[0.9042294603791929,1.0588071747461825,1.2506232673215647]},{"name":"himbeere_b_part_118_LOD3","mesh":1,"translation":[1.6363636363636358,-0.0,0.20402603243434336],"rotation":[0.0,-0.06729681097968926,0.0,0.9977329999714172],"scale":[0.9042294603791929,1.0588071747461825,1.2506232673215647]},{"name":"himbeere_b_part_119_LOD4","mesh":1,"translation":[1.6363636363636358,-0.0,0.20402603243434336],"rotation":[0.0,-0.06729681097968926,0.0,0.9977329999714172],"scale":[0.9042294603791929,1.0588071747461825,1.2506232673215647]},{"name":"himbeere_b_part_120_LOD5","mesh":1,"translation":[1.6363636363636358,-0.0,0.20402603243434336],"rotation":[0.0,-0.06729681097968926,0.0,0.9977329999714172],"scale":[0.9042294603791929,1.0588071747461825,1.2506232673215647]},{"name":"himbeere_b_part_121_LOD6","mesh":1,"translation":[1.6363636363636358,-0.0,0.20402603243434336],"rotation":[0.0,-0.06729681097968926,0.0,0.9977329999714172],"scale":[0.9042294603791929,1.0588071747461825,1.2506232673215647]},{"name":"himbeere_b_part_122_LOD7","mesh":1,"translation":[1.6363636363636358,-0.0,0.20402603243434336],"rotation":[0.0,-0.06729681097968926,0.0,0.9977329999714172],"scale":[0.9042294603791929,1.0588071747461825,1.2506232673215647]},{"name":"himbeere_b_part_123_LOD8","mesh":1,"translation":[1.6363636363636358,-0.0,0.20402603243434336],"rotation":[0.0,-0.06729681097968926,0.0,0.9977329999714172],"scale":[0.9042294603791929,1.0588071747461825,1.2506232673215647]},{"name":"himbeere_b_part_124_LOD9","mesh":1,"translation":[1.6363636363636358,-0.0,0.20402603243434336],"rotation":[0.0,-0.06729681097968926,0.0,0.9977329999714172],"scale":[0.9042294603791929,1.0588071747461825,1.2506232673215647]},{"name":"himbeere_c_part_125_LOD0","mesh":5,"translation":[2.1818181818181817,-0.0,-0.04985489763605663],"rotation":[0.0,0.06137229653843766,0.0,0.9981149438905311],"scale":[0.722635667337087,0.7113708116535097,1.040162552779305]},{"name":"himbeere_c_part_126_LOD1","mesh":5,"translation":[2.1818181818181817,-0.0,-0.04985489763605663],"rotation":[0.0,0.06137229653843766,0.0,0.9981149438905311],"scale":[0.722635667337087,0.7113708116535097,1.040162552779305]},{"name":"himbeere_c_part_127_LOD2","mesh":5,"translation":[2.1818181818181817,-0.0,-0.04985489763605663],"rotation":[0.0,0.06137229653843766,0.0,0.9981149438905311],"scale":[0.722635667337087,0.7113708116535097,1.040162552779305]},{"name":"himbeere_c_part_128_LOD3","mesh":5,"translation":[2.1818181818181817,-0.0,-0.04985489763605663],"rotation":[0.0,0.06137229653843766,0.0,0.9981149438905311],"scale":[0.722635667337087,0.7113708116535097,1.040162552779305]},{"name":"himbeere_c_part_129_LOD4","mesh":5,"translation":[2.1818181818181817,-0.0,-0.04985489763605663],"rotation":[0.0,0.06137229653843766,0.0,0.9981149438905311],"scale":[0.722635667337087,0.7113708116535097,1.040162552779305]},{"name":"himbeere_c_part_130_LOD5","mesh":5,"translation":[2.1818181818181817,-0.0,-0.04985489763605663],"rotation":[0.0,0.06137229653843766,0.0,0.9981149438905311],"scale":[0.722635667337087,0.7113708116535097,1.040162552779305]},{"name":"himbeere_c_part_131_LOD6","mesh":5,"translation":[2.1818181818181817,-0.0,-0.04985489763605663],"rotation":[0.0,0.06137229653843766,0.0,0.9981149438905311],"scale":[0.722635667337087,0.7113708116535097,1.040162552779305]},{"name":"himbeere_c_part_132_LOD7","mesh":5,"translation":[2.1818181818181817,-0.0,-0.04985489763605663],"rotation":[0.0,0.06137229653843766,0.0,0.9981149438905311],"scale":[0.722635667337087,0.7113708116535097,1.040162552779305]},{"name":"himbeere_c_part_133_LOD8","mesh":5,"translation":[2.1818181818181817,-0.0,-0.04985489763605663],"rotation":[0.0,0.06137229653843766,0.0,0.9981149438905311],"scale":[0.722635667337087,0.7113708116535097,1.040162552779305]},{"name":"himbeere_c_part_134_LOD9","mesh":5,"translation":[2.1818181818181817,-0.0,-0.04985489763605663],"rotation":[0.0,0.06137229653843766,0.0,0.9981149438905311],"scale":[0.722635667337087,0.7113708116535097,1.040162552779305]},{"name":"himbeere_c_part_135_LOD10","mesh":5,"translation":[2.1818181818181817,-0.0,-0.04985489763605663],"rotation":[0.0,0.06137229653843766,0.0,0.9981149438905311],"scale":[0.722635667337087,0.7113708116535097,1.040162552779305]},{"name":"himbeere_c_part_136_LOD11","mesh":5,"translation":[2.1818181818181817,-0.0,-0.04985489763605663],"rotation":[0.0,0.06137229653843766,0.0,0.9981149438905311],"scale":[0.722635667337087,0.7113708116535097,1.040162552779305]},{"name":"himbeere_a_part_137_LOD0","mesh":9,"translation":[2.7272727272727266,-0.0,0.023625312451495573],"rotation":[0.0,-0.05922007521722741,0.0,0.9982449512475713],"scale":[1.4209320091673034,1.5662133868702117,2.102114479664888]},{"name":"himbeere_a_part_138_LOD1","mesh":9,"translation":[2.7272727272727266,-0.0,0.023625312451495573],"rotation":[0.0,-0.05922007521722741,0.0,0.9982449512475713],"scale":[1.4209320091673034,1.5662133868702117,2.102114479664888]},{"name":"leaf_volume_LOD0","mesh":12},{"name":"leaf_volume_LOD1","mesh":13},{"name":"leaf_volume_LOD2","mesh":14},{"name":"leaf_volume_LOD3","mesh":15},{"name":"leaf_volume_LOD4","mesh":16},{"name":"leaf_volume_LOD5","mesh":17},{"name":"leaf_volume_LOD6","mesh":18},{"name":"leaf_volume_LOD7","mesh":19},{"name":"leaf_volume_LOD8","mesh":20},{"name":"leaf_volume_LOD9","mesh":21},{"name":"leaf_volume_LOD10","mesh":22},{"name":"leaf_volume_LOD11","mesh":23}],"meshes":[{"name":"himbeere_b_crown_LOD0","primitives":[{"attributes":{"POSITION":0,"NORMAL":1,"TEXCOORD_0":2},"indices":3,"material":1}]},{"name":"himbeere_b_crown_LOD1","primitives":[{"attributes":{"POSITION":4,"NORMAL":5,"TEXCOORD_0":6},"indices":7,"material":1}]},{"name":"himbeere_b_crown_LOD2","primitives":[{"attributes":{"POSITION":8,"NORMAL":9,"TEXCOORD_0":10},"indices":11,"material":2}]},{"name":"himbeere_b_crown_LOD3","primitives":[{"attributes":{"POSITION":12,"NORMAL":13,"TEXCOORD_0":14},"indices":15,"material":2}]},{"name":"himbeere_c_crown_LOD0","primitives":[{"attributes":{"POSITION":16,"NORMAL":17,"TEXCOORD_0":18},"indices":19,"material":4}]},{"name":"himbeere_c_crown_LOD1","primitives":[{"attributes":{"POSITION":20,"NORMAL":21,"TEXCOORD_0":22},"indices":23,"material":4}]},{"name":"himbeere_c_crown_LOD2","primitives":[{"attributes":{"POSITION":24,"NORMAL":25,"TEXCOORD_0":26},"indices":27,"material":5}]},{"name":"himbeere_c_crown_LOD3","primitives":[{"attributes":{"POSITION":28,"NORMAL":29,"TEXCOORD_0":30},"indices":31,"material":5}]},{"name":"himbeere_a_crown_LOD0","primitives":[{"attributes":{"POSITION":32,"NORMAL":33,"TEXCOORD_0":34},"indices":35,"material":7}]},{"name":"himbeere_a_crown_LOD1","primitives":[{"attributes":{"POSITION":36,"NORMAL":37,"TEXCOORD_0":38},"indices":39,"material":7}]},{"name":"himbeere_a_crown_LOD2","primitives":[{"attributes":{"POSITION":40,"NORMAL":41,"TEXCOORD_0":42},"indices":43,"material":8}]},{"name":"himbeere_a_crown_LOD3","primitives":[{"attributes":{"POSITION":44,"NORMAL":45,"TEXCOORD_0":46},"indices":47,"material":8}]},{"name":"ligusterhecke_leaf_volume_LOD0","primitives":[{"attributes":{"POSITION":48,"NORMAL":49,"TEXCOORD_0":50},"indices":51,"material":9}]},{"name":"ligusterhecke_leaf_volume_LOD1","primitives":[{"attributes":{"POSITION":52,"NORMAL":53,"TEXCOORD_0":54},"indices":55,"material":10}]},{"name":"ligusterhecke_leaf_volume_LOD2","primitives":[{"attributes":{"POSITION":56,"NORMAL":57,"TEXCOORD_0":58},"indices":59,"material":11}]},{"name":"ligusterhecke_leaf_volume_LOD3","primitives":[{"attributes":{"POSITION":60,"NORMAL":61,"TEXCOORD_0":62},"indices":63,"material":12}]},{"name":"ligusterhecke_leaf_volume_LOD4","primitives":[{"attributes":{"POSITION":64,"NORMAL":65,"TEXCOORD_0":66},"indices":67,"material":13}]},{"name":"ligusterhecke_leaf_volume_LOD5","primitives":[{"attributes":{"POSITION":68,"NORMAL":69,"TEXCOORD_0":70},"indices":71,"material":14}]},{"name":"ligusterhecke_leaf_volume_LOD6","primitives":[{"attributes":{"POSITION":72,"NORMAL":73,"TEXCOORD_0":74},"indices":75,"material":15}]},{"name":"ligusterhecke_leaf_volume_LOD7","primitives":[{"attributes":{"POSITION":76,"NORMAL":77,"TEXCOORD_0":78},"indices":79,"material":16}]},{"name":"ligusterhecke_leaf_volume_LOD8","primitives":[{"attributes":{"POSITION":80,"NORMAL":81,"TEXCOORD_0":82},"indices":83,"material":17}]},{"name":"ligusterhecke_leaf_volume_LOD9","primitives":[{"attributes":{"POSITION":84,"NORMAL":85,"TEXCOORD_0":86},"indices":87,"material":18}]},{"name":"ligusterhecke_leaf_volume_LOD10","primitives":[{"attributes":{"POSITION":88,"NORMAL":89,"TEXCOORD_0":90},"indices":91,"material":19}]},{"name":"ligusterhecke_leaf_volume_LOD11","primitives":[{"attributes":{"POSITION":92,"NORMAL":93,"TEXCOORD_0":94},"indices":95,"material":20}]}],"buffers":[{"uri":"himbeere_b.bin","byteLength":184940},{"uri":"himbeere_c.bin","byteLength":163212},{"uri":"himbeere_a.bin","byteLength":268460},{"uri":"ligusterhecke_b_hedge.bin","byteLength":8841000}],"bufferViews":[{"buffer":0,"byteOffset":0,"byteLength":44904,"target":34962},{"buffer":0,"byteOffset":44904,"byteLength":44904,"target":34962},{"buffer":0,"byteOffset":89808,"byteLength":29936,"target":34962},{"buffer":0,"byteOffset":119744,"byteLength":36384,"target":34963},{"buffer":0,"byteOffset":156128,"byteLength":8532,"target":34962},{"buffer":0,"byteOffset":164660,"byteLength":8532,"target":34962},{"buffer":0,"byteOffset":173192,"byteLength":5688,"target":34962},{"buffer":0,"byteOffset":178880,"byteLength":5220,"target":34963},{"buffer":0,"byteOffset":184100,"byteLength":192,"target":34962},{"buffer":0,"byteOffset":184292,"byteLength":192,"target":34962},{"buffer":0,"byteOffset":184484,"byteLength":128,"target":34962},{"buffer":0,"byteOffset":184612,"byteLength":48,"target":34963},{"buffer":0,"byteOffset":184660,"byteLength":96,"target":34962},{"buffer":0,"byteOffset":184756,"byteLength":96,"target":34962},{"buffer":0,"byteOffset":184852,"byteLength":64,"target":34962},{"buffer":0,"byteOffset":184916,"byteLength":24,"target":34963},{"buffer":1,"byteOffset":0,"byteLength":39372,"target":34962},{"buffer":1,"byteOffset":39372,"byteLength":39372,"target":34962},{"buffer":1,"byteOffset":78744,"byteLength":26248,"target":34962},{"buffer":1,"byteOffset":104992,"byteLength":32088,"target":34963},{"buffer":1,"byteOffset":137080,"byteLength":7680,"target":34962},{"buffer":1,"byteOffset":144760,"byteLength":7680,"target":34962},{"buffer":1,"byteOffset":152440,"byteLength":5120,"target":34962},{"buffer":1,"byteOffset":157560,"byteLength":4812,"target":34963},{"buffer":1,"byteOffset":162372,"byteLength":192,"target":34962},{"buffer":1,"byteOffset":162564,"byteLength":192,"target":34962},{"buffer":1,"byteOffset":162756,"byteLength":128,"target":34962},{"buffer":1,"byteOffset":162884,"byteLength":48,"target":34963},{"buffer":1,"byteOffset":162932,"byteLength":96,"target":34962},{"buffer":1,"byteOffset":163028,"byteLength":96,"target":34962},{"buffer":1,"byteOffset":163124,"byteLength":64,"target":34962},{"buffer":1,"byteOffset":163188,"byteLength":24,"target":34963},{"buffer":2,"byteOffset":0,"byteLength":64836,"target":34962},{"buffer":2,"byteOffset":64836,"byteLength":64836,"target":34962},{"buffer":2,"byteOffset":129672,"byteLength":43224,"target":34962},{"buffer":2,"byteOffset":172896,"byteLength":52680,"target":34963},{"buffer":2,"byteOffset":225576,"byteLength":12792,"target":34962},{"buffer":2,"byteOffset":238368,"byteLength":12792,"target":34962},{"buffer":2,"byteOffset":251160,"byteLength":8528,"target":34962},{"buffer":2,"byteOffset":259688,"byteLength":7932,"target":34963},{"buffer":2,"byteOffset":267620,"byteLength":192,"target":34962},{"buffer":2,"byteOffset":267812,"byteLength":192,"target":34962},{"buffer":2,"byteOffset":268004,"byteLength":128,"target":34962},{"buffer":2,"byteOffset":268132,"byteLength":48,"target":34963},{"buffer":2,"byteOffset":268180,"byteLength":96,"target":34962},{"buffer":2,"byteOffset":268276,"byteLength":96,"target":34962},{"buffer":2,"byteOffset":268372,"byteLength":64,"target":34962},{"buffer":2,"byteOffset":268436,"byteLength":24,"target":34963},{"buffer":3,"byteOffset":0,"byteLength":345600,"target":34962},{"buffer":3,"byteOffset":345600,"byteLength":345600,"target":34962},{"buffer":3,"byteOffset":691200,"byteLength":230400,"target":34962},{"buffer":3,"byteOffset":921600,"byteLength":86400,"target":34963},{"buffer":3,"byteOffset":1008000,"byteLength":268800,"target":34962},{"buffer":3,"byteOffset":1276800,"byteLength":268800,"target":34962},{"buffer":3,"byteOffset":1545600,"byteLength":179200,"target":34962},{"buffer":3,"byteOffset":1724800,"byteLength":67200,"target":34963},{"buffer":3,"byteOffset":1792000,"byteLength":264000,"target":34962},{"buffer":3,"byteOffset":2056000,"byteLength":264000,"target":34962},{"buffer":3,"byteOffset":2320000,"byteLength":176000,"target":34962},{"buffer":3,"byteOffset":2496000,"byteLength":66000,"target":34963},{"buffer":3,"byteOffset":2562000,"byteLength":259200,"target":34962},{"buffer":3,"byteOffset":2821200,"byteLength":259200,"target":34962},{"buffer":3,"byteOffset":3080400,"byteLength":172800,"target":34962},{"buffer":3,"byteOffset":3253200,"byteLength":64800,"target":34963},{"buffer":3,"byteOffset":3318000,"byteLength":254400,"target":34962},{"buffer":3,"byteOffset":3572400,"byteLength":254400,"target":34962},{"buffer":3,"byteOffset":3826800,"byteLength":169600,"target":34962},{"buffer":3,"byteOffset":3996400,"byteLength":63600,"target":34963},{"buffer":3,"byteOffset":4060000,"byteLength":249600,"target":34962},{"buffer":3,"byteOffset":4309600,"byteLength":249600,"target":34962},{"buffer":3,"byteOffset":4559200,"byteLength":166400,"target":34962},{"buffer":3,"byteOffset":4725600,"byteLength":62400,"target":34963},{"buffer":3,"byteOffset":4788000,"byteLength":244800,"target":34962},{"buffer":3,"byteOffset":5032800,"byteLength":244800,"target":34962},{"buffer":3,"byteOffset":5277600,"byteLength":163200,"target":34962},{"buffer":3,"byteOffset":5440800,"byteLength":61200,"target":34963},{"buffer":3,"byteOffset":5502000,"byteLength":240000,"target":34962},{"buffer":3,"byteOffset":5742000,"byteLength":240000,"target":34962},{"buffer":3,"byteOffset":5982000,"byteLength":160000,"target":34962},{"buffer":3,"byteOffset":6142000,"byteLength":60000,"target":34963},{"buffer":3,"byteOffset":6202000,"byteLength":235200,"target":34962},{"buffer":3,"byteOffset":6437200,"byteLength":235200,"target":34962},{"buffer":3,"byteOffset":6672400,"byteLength":156800,"target":34962},{"buffer":3,"byteOffset":6829200,"byteLength":58800,"target":34963},{"buffer":3,"byteOffset":6888000,"byteLength":230400,"target":34962},{"buffer":3,"byteOffset":7118400,"byteLength":230400,"target":34962},{"buffer":3,"byteOffset":7348800,"byteLength":153600,"target":34962},{"buffer":3,"byteOffset":7502400,"byteLength":57600,"target":34963},{"buffer":3,"byteOffset":7560000,"byteLength":223200,"target":34962},{"buffer":3,"byteOffset":7783200,"byteLength":223200,"target":34962},{"buffer":3,"byteOffset":8006400,"byteLength":148800,"target":34962},{"buffer":3,"byteOffset":8155200,"byteLength":55800,"target":34963},{"buffer":3,"byteOffset":8211000,"byteLength":216000,"target":34962},{"buffer":3,"byteOffset":8427000,"byteLength":216000,"target":34962},{"buffer":3,"byteOffset":8643000,"byteLength":144000,"target":34962},{"buffer":3,"byteOffset":8787000,"byteLength":54000,"target":34963}],"accessors":[{"bufferView":0,"componentType":5126,"count":3742,"type":"VEC3","min":[-0.4675,0.0,-0.4498948973936197],"max":[0.4675,1.1,0.4498948973936197]},{"bufferView":1,"componentType":5126,"count":3742,"type":"VEC3","min":[-0.9961062669754028,-0.5310803055763245,-0.9999850988388062],"max":[0.9980489611625671,0.9998307824134827,0.9981037974357605]},{"bufferView":2,"componentType":5126,"count":3742,"type":"VEC2"},{"bufferView":3,"componentType":5123,"count":18192,"type":"SCALAR","min":[0],"max":[3741]},{"bufferView":4,"componentType":5126,"count":711,"type":"VEC3","min":[-0.4671776978737864,0.0,-0.44979525027712636],"max":[0.46740563778053823,1.1,0.4498948973936197]},{"bufferView":5,"componentType":5126,"count":711,"type":"VEC3","min":[-0.9960769414901733,-0.28742703795433044,-0.99998539686203],"max":[0.9766634106636047,0.9998952150344849,0.9995871186256409]},{"bufferView":6,"componentType":5126,"count":711,"type":"VEC2"},{"bufferView":7,"componentType":5123,"count":2610,"type":"SCALAR","min":[0],"max":[710]},{"bufferView":8,"componentType":5126,"count":16,"type":"VEC3","min":[-0.5142500000000001,0,-0.5142500000000001],"max":[0.5142500000000001,1.1,0.5142500000000001]},{"bufferView":9,"componentType":5126,"count":16,"type":"VEC3","min":[-1.0,0,-0.7071067811865475],"max":[-0.0,0,1.0]},{"bufferView":10,"componentType":5126,"count":16,"type":"VEC2"},{"bufferView":11,"componentType":5123,"count":24,"type":"SCALAR","min":[0],"max":[15]},{"bufferView":12,"componentType":5126,"count":8,"type":"VEC3","min":[-0.5142500000000001,0,-0.5142500000000001],"max":[0.5142500000000001,1.1,0.5142500000000001]},{"bufferView":13,"componentType":5126,"count":8,"type":"VEC3","min":[-1.0,0,6.123233995736766e-17],"max":[-0.0,0,1.0]},{"bufferView":14,"componentType":5126,"count":8,"type":"VEC2"},{"bufferView":15,"componentType":5123,"count":12,"type":"SCALAR","min":[0],"max":[7]},{"bufferView":16,"componentType":5126,"count":3281,"type":"VEC3","min":[-0.584979806331762,0.0,-0.6375],"max":[0.584979806331762,1.5,0.6375]},{"bufferView":17,"componentType":5126,"count":3281,"type":"VEC3","min":[-0.9998146891593933,-0.4178755581378937,-0.9999851584434509],"max":[0.999520480632782,0.9999264478683472,0.9999779462814331]},{"bufferView":18,"componentType":5126,"count":3281,"type":"VEC2"},{"bufferView":19,"componentType":5123,"count":16044,"type":"SCALAR","min":[0],"max":[3280]},{"bufferView":20,"componentType":5126,"count":640,"type":"VEC3","min":[-0.584332816826827,0.0,-0.637399248678351],"max":[0.584979806331762,1.499926549590565,0.6375]},{"bufferView":21,"componentType":5126,"count":640,"type":"VEC3","min":[-0.9978211522102356,-0.31232166290283203,-0.9999854564666748],"max":[0.9859210848808289,0.9999579787254333,0.9998587965965271]},{"bufferView":22,"componentType":5126,"count":640,"type":"VEC2"},{"bufferView":23,"componentType":5123,"count":2406,"type":"SCALAR","min":[0],"max":[639]},{"bufferView":24,"componentType":5126,"count":16,"type":"VEC3","min":[-0.70125,0,-0.70125],"max":[0.70125,1.5,0.70125]},{"bufferView":25,"componentType":5126,"count":16,"type":"VEC3","min":[-1.0,0,-0.7071067811865475],"max":[-0.0,0,1.0]},{"bufferView":26,"componentType":5126,"count":16,"type":"VEC2"},{"bufferView":27,"componentType":5123,"count":24,"type":"SCALAR","min":[0],"max":[15]},{"bufferView":28,"componentType":5126,"count":8,"type":"VEC3","min":[-0.70125,0,-0.70125],"max":[0.70125,1.5,0.70125]},{"bufferView":29,"componentType":5126,"count":8,"type":"VEC3","min":[-1.0,0,6.123233995736766e-17],"max":[-0.0,0,1.0]},{"bufferView":30,"componentType":5126,"count":8,"type":"VEC2"},{"bufferView":31,"componentType":5123,"count":12,"type":"SCALAR","min":[0],"max":[7]},{"bufferView":32,"componentType":5126,"count":5403,"type":"VEC3","min":[-0.2975,0.0,-0.2652338277353859],"max":[0.2975,0.7,0.2652338277353859]},{"bufferView":33,"componentType":5126,"count":5403,"type":"VEC3","min":[-0.9994304180145264,-0.8523291945457458,-0.9983596801757812],"max":[0.9999390244483948,0.9999638199806213,0.997063398361206]},{"bufferView":34,"componentType":5126,"count":5403,"type":"VEC2"},{"bufferView":35,"componentType":5123,"count":26340,"type":"SCALAR","min":[0],"max":[5402]},{"bufferView":36,"componentType":5126,"count":1066,"type":"VEC3","min":[-0.2971687657304079,0.00027180425854097585,-0.26515763541526727],"max":[0.2968955243065341,0.699973871411052,0.26440942414684815]},{"bufferView":37,"componentType":5126,"count":1066,"type":"VEC3","min":[-0.9994305372238159,-0.5630797743797302,-0.9959743618965149],"max":[0.9791324138641357,0.9999735355377197,0.9973251223564148]},{"bufferView":38,"componentType":5126,"count":1066,"type":"VEC2"},{"bufferView":39,"componentType":5123,"count":3966,"type":"SCALAR","min":[0],"max":[1065]},{"bufferView":40,"componentType":5126,"count":16,"type":"VEC3","min":[-0.32725,0,-0.32725],"max":[0.32725,0.7,0.32725]},{"bufferView":41,"componentType":5126,"count":16,"type":"VEC3","min":[-1.0,0,-0.7071067811865475],"max":[-0.0,0,1.0]},{"bufferView":42,"componentType":5126,"count":16,"type":"VEC2"},{"bufferView":43,"componentType":5123,"count":24,"type":"SCALAR","min":[0],"max":[15]},{"bufferView":44,"componentType":5126,"count":8,"type":"VEC3","min":[-0.32725,0,-0.32725],"max":[0.32725,0.7,0.32725]},{"bufferView":45,"componentType":5126,"count":8,"type":"VEC3","min":[-1.0,0,6.123233995736766e-17],"max":[-0.0,0,1.0]},{"bufferView":46,"componentType":5126,"count":8,"type":"VEC2"},{"bufferView":47,"componentType":5123,"count":12,"type":"SCALAR","min":[0],"max":[7]},{"bufferView":48,"componentType":5126,"count":28800,"type":"VEC3","min":[-3.114868704498804,0.021817755938402447,-0.7410402255480141],"max":[3.1068235334187833,1.7560697808676142,0.7339282712370325]},{"bufferView":49,"componentType":5126,"count":28800,"type":"VEC3","min":[-1.0,-0.14989876373021302,-1.0],"max":[1.0,1.0,1.0]},{"bufferView":50,"componentType":5126,"count":28800,"type":"VEC2"},{"bufferView":51,"componentType":5123,"count":43200,"type":"SCALAR","min":[0],"max":[28799]},{"bufferView":52,"componentType":5126,"count":22400,"type":"VEC3","min":[-3.2265453830157727,-0.06118338230039071,-0.8429909787783967],"max":[3.2188072936519934,1.8048823390112405,0.8445193580748053]},{"bufferView":53,"componentType":5126,"count":22400,"type":"VEC3","min":[-1.0,-0.14998396007214854,-1.0],"max":[1.0,1.0,1.0]},{"bufferView":54,"componentType":5126,"count":22400,"type":"VEC2"},{"bufferView":55,"componentType":5123,"count":33600,"type":"SCALAR","min":[0],"max":[22399]},{"bufferView":56,"componentType":5126,"count":22000,"type":"VEC3","min":[-3.3047708270777845,-0.12632450108927057,-0.9337060546674381],"max":[3.304104881551594,1.8683774280559755,0.9337071084013557]},{"bufferView":57,"componentType":5126,"count":22000,"type":"VEC3","min":[-1.0,-0.14996360819485818,-1.0],"max":[1.0,1.0,1.0]},{"bufferView":58,"componentType":5126,"count":22000,"type":"VEC2"},{"bufferView":59,"componentType":5123,"count":33000,"type":"SCALAR","min":[0],"max":[21999]},{"bufferView":60,"componentType":5126,"count":21600,"type":"VEC3","min":[-3.4121673952603886,-0.19065124464352826,-1.0260405168728424],"max":[3.3986636046944176,1.9289403802871103,1.0302245967215193]},{"bufferView":61,"componentType":5126,"count":21600,"type":"VEC3","min":[-1.0,-0.14999011907988818,-1.0],"max":[1.0,1.0,1.0]},{"bufferView":62,"componentType":5126,"count":21600,"type":"VEC2"},{"bufferView":63,"componentType":5123,"count":32400,"type":"SCALAR","min":[0],"max":[21599]},{"bufferView":64,"componentType":5126,"count":21200,"type":"VEC3","min":[-3.550801960125551,-0.29246814521145087,-1.1740559681346376],"max":[3.5451812690355062,2.0268902847243937,1.1950566546014187]},{"bufferView":65,"componentType":5126,"count":21200,"type":"VEC3","min":[-1.0,-0.14991794310816747,-1.0],"max":[1.0,1.0,1.0]},{"bufferView":66,"componentType":5126,"count":21200,"type":"VEC2"},{"bufferView":67,"componentType":5123,"count":31800,"type":"SCALAR","min":[0],"max":[21199]},{"bufferView":68,"componentType":5126,"count":20800,"type":"VEC3","min":[-3.705263709586155,-0.40432731062126526,-1.3258775089390298],"max":[3.746191010614301,2.1579125165189024,1.376319240043569]},{"bufferView":69,"componentType":5126,"count":20800,"type":"VEC3","min":[-1.0,-0.14996564111213614,-1.0],"max":[1.0,1.0,1.0]},{"bufferView":70,"componentType":5126,"count":20800,"type":"VEC2"},{"bufferView":71,"componentType":5123,"count":31200,"type":"SCALAR","min":[0],"max":[20799]},{"bufferView":72,"componentType":5126,"count":20400,"type":"VEC3","min":[-3.9466891663269505,-0.5513603489478341,-1.5581531376252682],"max":[3.9546890119272633,2.337271995029469,1.5715859439348876]},{"bufferView":73,"componentType":5126,"count":20400,"type":"VEC3","min":[-1.0,-0.1499930371902244,-1.0],"max":[1.0,1.0,1.0]},{"bufferView":74,"componentType":5126,"count":20400,"type":"VEC2"},{"bufferView":75,"componentType":5123,"count":30600,"type":"SCALAR","min":[0],"max":[20399]},{"bufferView":76,"componentType":5126,"count":20000,"type":"VEC3","min":[-4.231366065572053,-0.7456108262573162,-1.8200511687581917],"max":[4.248164532905143,2.5209261904237246,1.8362456817853374]},{"bufferView":77,"componentType":5126,"count":20000,"type":"VEC3","min":[-1.0,-0.14998415121672967,-1.0],"max":[1.0,1.0,1.0]},{"bufferView":78,"componentType":5126,"count":20000,"type":"VEC2"},{"bufferView":79,"componentType":5123,"count":30000,"type":"SCALAR","min":[0],"max":[19999]},{"bufferView":80,"componentType":5126,"count":19600,"type":"VEC3","min":[-4.500830908081781,-0.9269344123132705,-2.1314638117536466],"max":[4.47798301979665,2.71906086331026,2.075711624518255]},{"bufferView":81,"componentType":5126,"count":19600,"type":"VEC3","min":[-1.0,-0.14998673148855793,-1.0],"max":[1.0,1.0,1.0]},{"bufferView":82,"componentType":5126,"count":19600,"type":"VEC2"},{"bufferView":83,"componentType":5123,"count":29400,"type":"SCALAR","min":[0],"max":[19599]},{"bufferView":84,"componentType":5126,"count":19200,"type":"VEC3","min":[-4.809210906188916,-1.142352362984725,-2.4500870421091134],"max":[4.821166677561165,2.9190221610993943,2.3726763271975053]},{"bufferView":85,"componentType":5126,"count":19200,"type":"VEC3","min":[-1.0,-0.1499923460589489,-1.0],"max":[1.0,1.0,1.0]},{"bufferView":86,"componentType":5126,"count":19200,"type":"VEC2"},{"bufferView":87,"componentType":5123,"count":28800,"type":"SCALAR","min":[0],"max":[19199]},{"bufferView":88,"componentType":5126,"count":18600,"type":"VEC3","min":[-5.161093534066879,-1.3968148091878827,-2.774891946984101],"max":[5.12771593171015,3.186168860372606,2.7903119063837276]},{"bufferView":89,"componentType":5126,"count":18600,"type":"VEC3","min":[-1.0,-0.14974929438132617,-1.0],"max":[1.0,1.0,1.0]},{"bufferView":90,"componentType":5126,"count":18600,"type":"VEC2"},{"bufferView":91,"componentType":5123,"count":27900,"type":"SCALAR","min":[0],"max":[18599]},{"bufferView":92,"componentType":5126,"count":18000,"type":"VEC3","min":[-5.607343949623724,-1.7703026361303118,-3.2000726072097994],"max":[5.546086456307794,3.4487950062771113,3.156147309146076]},{"bufferView":93,"componentType":5126,"count":18000,"type":"VEC3","min":[-1.0,-0.14994223416924887,-1.0],"max":[1.0,1.0,1.0]},{"bufferView":94,"componentType":5126,"count":18000,"type":"VEC2"},{"bufferView":95,"componentType":5123,"count":27000,"type":"SCALAR","min":[0],"max":[17999]}],"images":[{"uri":"textures/poly_shrub_01.png"},{"uri":"textures/poly_shrub_01.png"},{"uri":"impostors/himbeere_b_summer.png"},{"uri":"textures/poly_shrub_01.png"},{"uri":"textures/poly_shrub_01.png"},{"uri":"impostors/himbeere_c_summer.png"},{"uri":"textures/poly_shrub_01.png"},{"uri":"textures/poly_shrub_01.png"},{"uri":"impostors/himbeere_a_summer.png"},{"uri":"textures/poly_searsia_lucida.png"}],"samplers":[{"magFilter":9729,"minFilter":9987,"wrapS":10497,"wrapT":10497},{"magFilter":9729,"minFilter":9987,"wrapS":10497,"wrapT":10497},{"magFilter":9729,"minFilter":9987,"wrapS":10497,"wrapT":10497},{"magFilter":9729,"minFilter":9987,"wrapS":10497,"wrapT":10497}],"textures":[{"source":0,"sampler":0},{"source":1,"sampler":0},{"source":2,"sampler":0},{"source":3,"sampler":1},{"source":4,"sampler":1},{"source":5,"sampler":1},{"source":6,"sampler":2},{"source":7,"sampler":2},{"source":8,"sampler":2},{"source":9,"sampler":3}],"materials":[{"name":"himbeere_b_bark","pbrMetallicRoughness":{"baseColorFactor":[0.82,0.82,0.82,1.0],"baseColorTexture":{"index":0},"metallicFactor":0.0,"roughnessFactor":0.91},"doubleSided":false},{"name":"himbeere_b_foliage","pbrMetallicRoughness":{"baseColorFactor":[0.5480392156862745,1.0,0.7080392156862745,1.0],"baseColorTexture":{"index":1},"metallicFactor":0.0,"roughnessFactor":0.78},"doubleSided":true,"alphaMode":"MASK","alphaCutoff":0.18},{"name":"himbeere_b_whole_tree_impostor","pbrMetallicRoughness":{"baseColorFactor":[1,1,1,1],"baseColorTexture":{"index":2},"metallicFactor":0.0,"roughnessFactor":0.92},"doubleSided":true,"alphaMode":"MASK","alphaCutoff":0.18},{"name":"himbeere_c_bark","pbrMetallicRoughness":{"baseColorFactor":[0.82,0.82,0.82,1.0],"baseColorTexture":{"index":3},"metallicFactor":0.0,"roughnessFactor":0.91},"doubleSided":false},{"name":"himbeere_c_foliage","pbrMetallicRoughness":{"baseColorFactor":[0.5480392156862745,1.0,0.7080392156862745,1.0],"baseColorTexture":{"index":4},"metallicFactor":0.0,"roughnessFactor":0.78},"doubleSided":true,"alphaMode":"MASK","alphaCutoff":0.18},{"name":"himbeere_c_whole_tree_impostor","pbrMetallicRoughness":{"baseColorFactor":[1,1,1,1],"baseColorTexture":{"index":5},"metallicFactor":0.0,"roughnessFactor":0.92},"doubleSided":true,"alphaMode":"MASK","alphaCutoff":0.18},{"name":"himbeere_a_bark","pbrMetallicRoughness":{"baseColorFactor":[0.82,0.82,0.82,1.0],"baseColorTexture":{"index":6},"metallicFactor":0.0,"roughnessFactor":0.91},"doubleSided":false},{"name":"himbeere_a_foliage","pbrMetallicRoughness":{"baseColorFactor":[0.5480392156862745,1.0,0.7080392156862745,1.0],"baseColorTexture":{"index":7},"metallicFactor":0.0,"roughnessFactor":0.78},"doubleSided":true,"alphaMode":"MASK","alphaCutoff":0.18},{"name":"himbeere_a_whole_tree_impostor","pbrMetallicRoughness":{"baseColorFactor":[1,1,1,1],"baseColorTexture":{"index":8},"metallicFactor":0.0,"roughnessFactor":0.92},"doubleSided":true,"alphaMode":"MASK","alphaCutoff":0.18},{"name":"ligusterhecke_individual_leaves_LOD0","pbrMetallicRoughness":{"baseColorFactor":[0.58,0.96,0.66,1.0],"baseColorTexture":{"index":9},"metallicFactor":0.0,"roughnessFactor":0.82},"doubleSided":true,"alphaMode":"MASK","alphaCutoff":0.18},{"name":"ligusterhecke_individual_leaves_LOD1","pbrMetallicRoughness":{"baseColorFactor":[0.58,0.96,0.66,1.0],"baseColorTexture":{"index":9},"metallicFactor":0.0,"roughnessFactor":0.82},"doubleSided":true,"alphaMode":"MASK","alphaCutoff":0.08},{"name":"ligusterhecke_individual_leaves_LOD2","pbrMetallicRoughness":{"baseColorFactor":[0.58,0.96,0.66,1.0],"baseColorTexture":{"index":9},"metallicFactor":0.0,"roughnessFactor":0.82},"doubleSided":true,"alphaMode":"MASK","alphaCutoff":0.065},{"name":"ligusterhecke_individual_leaves_LOD3","pbrMetallicRoughness":{"baseColorFactor":[0.58,0.96,0.66,1.0],"baseColorTexture":{"index":9},"metallicFactor":0.0,"roughnessFactor":0.82},"doubleSided":true,"alphaMode":"MASK","alphaCutoff":0.055},{"name":"ligusterhecke_individual_leaves_LOD4","pbrMetallicRoughness":{"baseColorFactor":[0.58,0.96,0.66,1.0],"baseColorTexture":{"index":9},"metallicFactor":0.0,"roughnessFactor":0.82},"doubleSided":true,"alphaMode":"MASK","alphaCutoff":0.045},{"name":"ligusterhecke_individual_leaves_LOD5","pbrMetallicRoughness":{"baseColorFactor":[0.58,0.96,0.66,1.0],"baseColorTexture":{"index":9},"metallicFactor":0.0,"roughnessFactor":0.82},"doubleSided":true,"alphaMode":"MASK","alphaCutoff":0.038},{"name":"ligusterhecke_individual_leaves_LOD6","pbrMetallicRoughness":{"baseColorFactor":[0.58,0.96,0.66,1.0],"baseColorTexture":{"index":9},"metallicFactor":0.0,"roughnessFactor":0.82},"doubleSided":true,"alphaMode":"MASK","alphaCutoff":0.032},{"name":"ligusterhecke_individual_leaves_LOD7","pbrMetallicRoughness":{"baseColorFactor":[0.58,0.96,0.66,1.0],"baseColorTexture":{"index":9},"metallicFactor":0.0,"roughnessFactor":0.82},"doubleSided":true,"alphaMode":"MASK","alphaCutoff":0.027},{"name":"ligusterhecke_individual_leaves_LOD8","pbrMetallicRoughness":{"baseColorFactor":[0.58,0.96,0.66,1.0],"baseColorTexture":{"index":9},"metallicFactor":0.0,"roughnessFactor":0.82},"doubleSided":true,"alphaMode":"MASK","alphaCutoff":0.023},{"name":"ligusterhecke_individual_leaves_LOD9","pbrMetallicRoughness":{"baseColorFactor":[0.58,0.96,0.66,1.0],"baseColorTexture":{"index":9},"metallicFactor":0.0,"roughnessFactor":0.82},"doubleSided":true,"alphaMode":"MASK","alphaCutoff":0.02},{"name":"ligusterhecke_individual_leaves_LOD10","pbrMetallicRoughness":{"baseColorFactor":[0.58,0.96,0.66,1.0],"baseColorTexture":{"index":9},"metallicFactor":0.0,"roughnessFactor":0.82},"doubleSided":true,"alphaMode":"MASK","alphaCutoff":0.017},{"name":"ligusterhecke_individual_leaves_LOD11","pbrMetallicRoughness":{"baseColorFactor":[0.58,0.96,0.66,1.0],"baseColorTexture":{"index":9},"metallicFactor":0.0,"roughnessFactor":0.82},"doubleSided":true,"alphaMode":"MASK","alphaCutoff":0.015}]}