{"asset":{"version":"2.0","generator":"Connected Rails CC0 hedge composer","copyright":"Mantissa and Poly Haven source models: CC0 1.0; hedge composition: Connected Rails"},"scene":0,"scenes":[{"nodes":[0,1,2,3,4,5,6,7,8,9,10,11]}],"nodes":[{"name":"hedge_LOD0","children":[12,20,22,28,30,40,42,46,48,52,62,68,70,72,78,80,84,96,108,110,112,123,127,139]},{"name":"hedge_LOD1","children":[13,21,23,29,31,41,43,47,49,53,63,69,71,73,79,81,85,97,109,111,113,124,128,140]},{"name":"hedge_LOD2","children":[14,24,32,44,50,54,64,74,82,86,98,114,125,129,141]},{"name":"hedge_LOD3","children":[15,25,33,45,51,55,65,75,83,87,99,115,126,130,142]},{"name":"hedge_LOD4","children":[16,26,34,56,66,76,88,100,116,131,143]},{"name":"hedge_LOD5","children":[17,27,35,57,67,77,89,101,117,132,144]},{"name":"hedge_LOD6","children":[18,36,58,90,102,118,133,145]},{"name":"hedge_LOD7","children":[19,37,59,91,103,119,134,146]},{"name":"hedge_LOD8","children":[38,60,92,104,120,135,147]},{"name":"hedge_LOD9","children":[39,61,93,105,121,136,148]},{"name":"hedge_LOD10","children":[94,106,122,137,149]},{"name":"hedge_LOD11","children":[95,107,138,150]},{"name":"himbeere_c_part_12_LOD0","mesh":1,"translation":[-3.0,-0.0,-0.11061904135573172],"rotation":[0.0,-0.01788240274709121,0.0,0.999840097051519],"scale":[0.6760140113798554,1.440572488250693,0.9992143205584864]},{"name":"himbeere_c_part_13_LOD1","mesh":1,"translation":[-3.0,-0.0,-0.11061904135573172],"rotation":[0.0,-0.01788240274709121,0.0,0.999840097051519],"scale":[0.6760140113798554,1.440572488250693,0.9992143205584864]},{"name":"himbeere_c_part_14_LOD2","mesh":1,"translation":[-3.0,-0.0,-0.11061904135573172],"rotation":[0.0,-0.01788240274709121,0.0,0.999840097051519],"scale":[0.6760140113798554,1.440572488250693,0.9992143205584864]},{"name":"himbeere_c_part_15_LOD3","mesh":1,"translation":[-3.0,-0.0,-0.11061904135573172],"rotation":[0.0,-0.01788240274709121,0.0,0.999840097051519],"scale":[0.6760140113798554,1.440572488250693,0.9992143205584864]},{"name":"himbeere_c_part_16_LOD4","mesh":1,"translation":[-3.0,-0.0,-0.11061904135573172],"rotation":[0.0,-0.01788240274709121,0.0,0.999840097051519],"scale":[0.6760140113798554,1.440572488250693,0.9992143205584864]},{"name":"himbeere_c_part_17_LOD5","mesh":1,"translation":[-3.0,-0.0,-0.11061904135573172],"rotation":[0.0,-0.01788240274709121,0.0,0.999840097051519],"scale":[0.6760140113798554,1.440572488250693,0.9992143205584864]},{"name":"himbeere_c_part_18_LOD6","mesh":1,"translation":[-3.0,-0.0,-0.11061904135573172],"rotation":[0.0,-0.01788240274709121,0.0,0.999840097051519],"scale":[0.6760140113798554,1.440572488250693,0.9992143205584864]},{"name":"himbeere_c_part_19_LOD7","mesh":1,"translation":[-3.0,-0.0,-0.11061904135573172],"rotation":[0.0,-0.01788240274709121,0.0,0.999840097051519],"scale":[0.6760140113798554,1.440572488250693,0.9992143205584864]},{"name":"himbeere_a_part_20_LOD0","mesh":5,"translation":[-2.4545454545454546,-0.0,-0.06748494763477594],"rotation":[0.0,0.01109525765652924,0.0,0.9999384457343038],"scale":[1.3292589763177998,2.9379710570278688,2.336065123162447]},{"name":"himbeere_a_part_21_LOD1","mesh":5,"translation":[-2.4545454545454546,-0.0,-0.06748494763477594],"rotation":[0.0,0.01109525765652924,0.0,0.9999384457343038],"scale":[1.3292589763177998,2.9379710570278688,2.336065123162447]},{"name":"himbeere_b_part_22_LOD0","mesh":9,"translation":[-1.9090909090909092,-0.0,0.02258216439035421],"rotation":[0.0,0.0649771591251297,0.0,0.9978867514863736],"scale":[0.8458920758385997,1.9490537499105416,1.4417211410008421]},{"name":"himbeere_b_part_23_LOD1","mesh":9,"translation":[-1.9090909090909092,-0.0,0.02258216439035421],"rotation":[0.0,0.0649771591251297,0.0,0.9978867514863736],"scale":[0.8458920758385997,1.9490537499105416,1.4417211410008421]},{"name":"himbeere_b_part_24_LOD2","mesh":9,"translation":[-1.9090909090909092,-0.0,0.02258216439035421],"rotation":[0.0,0.0649771591251297,0.0,0.9978867514863736],"scale":[0.8458920758385997,1.9490537499105416,1.4417211410008421]},{"name":"himbeere_b_part_25_LOD3","mesh":9,"translation":[-1.9090909090909092,-0.0,0.02258216439035421],"rotation":[0.0,0.0649771591251297,0.0,0.9978867514863736],"scale":[0.8458920758385997,1.9490537499105416,1.4417211410008421]},{"name":"himbeere_b_part_26_LOD4","mesh":9,"translation":[-1.9090909090909092,-0.0,0.02258216439035421],"rotation":[0.0,0.0649771591251297,0.0,0.9978867514863736],"scale":[0.8458920758385997,1.9490537499105416,1.4417211410008421]},{"name":"himbeere_b_part_27_LOD5","mesh":9,"translation":[-1.9090909090909092,-0.0,0.02258216439035421],"rotation":[0.0,0.0649771591251297,0.0,0.9978867514863736],"scale":[0.8458920758385997,1.9490537499105416,1.4417211410008421]},{"name":"himbeere_c_part_28_LOD0","mesh":1,"translation":[-1.3636363636363638,-0.0,0.05468751711008807],"rotation":[0.0,0.06105463372638905,0.0,0.9981344256664713],"scale":[0.6760140113798554,1.3601137375087313,0.9404627512149615]},{"name":"himbeere_c_part_29_LOD1","mesh":1,"translation":[-1.3636363636363638,-0.0,0.05468751711008807],"rotation":[0.0,0.06105463372638905,0.0,0.9981344256664713],"scale":[0.6760140113798554,1.3601137375087313,0.9404627512149615]},{"name":"himbeere_a_part_30_LOD0","mesh":5,"translation":[-0.8181818181818183,-0.0,-0.09888750526935682],"rotation":[0.0,-0.05147093756231957,0.0,0.9986744928085707],"scale":[1.3292589763177998,2.9802923252603666,2.5198553676772764]},{"name":"himbeere_a_part_31_LOD1","mesh":5,"translation":[-0.8181818181818183,-0.0,-0.09888750526935682],"rotation":[0.0,-0.05147093756231957,0.0,0.9986744928085707],"scale":[1.3292589763177998,2.9802923252603666,2.5198553676772764]},{"name":"himbeere_a_part_32_LOD2","mesh":5,"translation":[-0.8181818181818183,-0.0,-0.09888750526935682],"rotation":[0.0,-0.05147093756231957,0.0,0.9986744928085707],"scale":[1.3292589763177998,2.9802923252603666,2.5198553676772764]},{"name":"himbeere_a_part_33_LOD3","mesh":5,"translation":[-0.8181818181818183,-0.0,-0.09888750526935682],"rotation":[0.0,-0.05147093756231957,0.0,0.9986744928085707],"scale":[1.3292589763177998,2.9802923252603666,2.5198553676772764]},{"name":"himbeere_a_part_34_LOD4","mesh":5,"translation":[-0.8181818181818183,-0.0,-0.09888750526935682],"rotation":[0.0,-0.05147093756231957,0.0,0.9986744928085707],"scale":[1.3292589763177998,2.9802923252603666,2.5198553676772764]},{"name":"himbeere_a_part_35_LOD5","mesh":5,"translation":[-0.8181818181818183,-0.0,-0.09888750526935682],"rotation":[0.0,-0.05147093756231957,0.0,0.9986744928085707],"scale":[1.3292589763177998,2.9802923252603666,2.5198553676772764]},{"name":"himbeere_a_part_36_LOD6","mesh":5,"translation":[-0.8181818181818183,-0.0,-0.09888750526935682],"rotation":[0.0,-0.05147093756231957,0.0,0.9986744928085707],"scale":[1.3292589763177998,2.9802923252603666,2.5198553676772764]},{"name":"himbeere_a_part_37_LOD7","mesh":5,"translation":[-0.8181818181818183,-0.0,-0.09888750526935682],"rotation":[0.0,-0.05147093756231957,0.0,0.9986744928085707],"scale":[1.3292589763177998,2.9802923252603666,2.5198553676772764]},{"name":"himbeere_a_part_38_LOD8","mesh":5,"translation":[-0.8181818181818183,-0.0,-0.09888750526935682],"rotation":[0.0,-0.05147093756231957,0.0,0.9986744928085707],"scale":[1.3292589763177998,2.9802923252603666,2.5198553676772764]},{"name":"himbeere_a_part_39_LOD9","mesh":5,"translation":[-0.8181818181818183,-0.0,-0.09888750526935682],"rotation":[0.0,-0.05147093756231957,0.0,0.9986744928085707],"scale":[1.3292589763177998,2.9802923252603666,2.5198553676772764]},{"name":"himbeere_b_part_40_LOD0","mesh":9,"translation":[-0.27272727272727293,-0.0,-0.06814466089966861],"rotation":[0.0,0.041992790908137234,0.0,0.999117913717768],"scale":[0.8458920758385997,1.9030315923963022,1.287577246352728]},{"name":"himbeere_b_part_41_LOD1","mesh":9,"translation":[-0.27272727272727293,-0.0,-0.06814466089966861],"rotation":[0.0,0.041992790908137234,0.0,0.999117913717768],"scale":[0.8458920758385997,1.9030315923963022,1.287577246352728]},{"name":"himbeere_c_part_42_LOD0","mesh":1,"translation":[0.2727272727272725,-0.0,0.11200256323804772],"rotation":[0.0,-0.05695566279196117,0.0,0.9983767087006429],"scale":[0.6760140113798554,1.4068752902868367,0.9127656002778787]},{"name":"himbeere_c_part_43_LOD1","mesh":1,"translation":[0.2727272727272725,-0.0,0.11200256323804772],"rotation":[0.0,-0.05695566279196117,0.0,0.9983767087006429],"scale":[0.6760140113798554,1.4068752902868367,0.9127656002778787]},{"name":"himbeere_c_part_44_LOD2","mesh":1,"translation":[0.2727272727272725,-0.0,0.11200256323804772],"rotation":[0.0,-0.05695566279196117,0.0,0.9983767087006429],"scale":[0.6760140113798554,1.4068752902868367,0.9127656002778787]},{"name":"himbeere_c_part_45_LOD3","mesh":1,"translation":[0.2727272727272725,-0.0,0.11200256323804772],"rotation":[0.0,-0.05695566279196117,0.0,0.9983767087006429],"scale":[0.6760140113798554,1.4068752902868367,0.9127656002778787]},{"name":"himbeere_a_part_46_LOD0","mesh":5,"translation":[0.8181818181818179,-0.0,0.10230250182303771],"rotation":[0.0,-0.005400491096635355,0.0,0.9999854172416291],"scale":[1.3292589763177998,2.92236301991393,2.2374202059249133]},{"name":"himbeere_a_part_47_LOD1","mesh":5,"translation":[0.8181818181818179,-0.0,0.10230250182303771],"rotation":[0.0,-0.005400491096635355,0.0,0.9999854172416291],"scale":[1.3292589763177998,2.92236301991393,2.2374202059249133]},{"name":"himbeere_b_part_48_LOD0","mesh":9,"translation":[1.3636363636363633,-0.0,0.09884434063871064],"rotation":[0.0,0.02609453021238594,0.0,0.9996594797694838],"scale":[0.8458920758385997,1.9607449245505808,1.4738882789338181]},{"name":"himbeere_b_part_49_LOD1","mesh":9,"translation":[1.3636363636363633,-0.0,0.09884434063871064],"rotation":[0.0,0.02609453021238594,0.0,0.9996594797694838],"scale":[0.8458920758385997,1.9607449245505808,1.4738882789338181]},{"name":"himbeere_b_part_50_LOD2","mesh":9,"translation":[1.3636363636363633,-0.0,0.09884434063871064],"rotation":[0.0,0.02609453021238594,0.0,0.9996594797694838],"scale":[0.8458920758385997,1.9607449245505808,1.4738882789338181]},{"name":"himbeere_b_part_51_LOD3","mesh":9,"translation":[1.3636363636363633,-0.0,0.09884434063871064],"rotation":[0.0,0.02609453021238594,0.0,0.9996594797694838],"scale":[0.8458920758385997,1.9607449245505808,1.4738882789338181]},{"name":"himbeere_c_part_52_LOD0","mesh":1,"translation":[1.9090909090909083,-0.0,0.04495160351671135],"rotation":[0.0,0.05167585990241679,0.0,0.9986639101836743],"scale":[0.6760140113798554,1.350464989183475,0.8142150825778458]},{"name":"himbeere_c_part_53_LOD1","mesh":1,"translation":[1.9090909090909083,-0.0,0.04495160351671135],"rotation":[0.0,0.05167585990241679,0.0,0.9986639101836743],"scale":[0.6760140113798554,1.350464989183475,0.8142150825778458]},{"name":"himbeere_c_part_54_LOD2","mesh":1,"translation":[1.9090909090909083,-0.0,0.04495160351671135],"rotation":[0.0,0.05167585990241679,0.0,0.9986639101836743],"scale":[0.6760140113798554,1.350464989183475,0.8142150825778458]},{"name":"himbeere_c_part_55_LOD3","mesh":1,"translation":[1.9090909090909083,-0.0,0.04495160351671135],"rotation":[0.0,0.05167585990241679,0.0,0.9986639101836743],"scale":[0.6760140113798554,1.350464989183475,0.8142150825778458]},{"name":"himbeere_c_part_56_LOD4","mesh":1,"translation":[1.9090909090909083,-0.0,0.04495160351671135],"rotation":[0.0,0.05167585990241679,0.0,0.9986639101836743],"scale":[0.6760140113798554,1.350464989183475,0.8142150825778458]},{"name":"himbeere_c_part_57_LOD5","mesh":1,"translation":[1.9090909090909083,-0.0,0.04495160351671135],"rotation":[0.0,0.05167585990241679,0.0,0.9986639101836743],"scale":[0.6760140113798554,1.350464989183475,0.8142150825778458]},{"name":"himbeere_c_part_58_LOD6","mesh":1,"translation":[1.9090909090909083,-0.0,0.04495160351671135],"rotation":[0.0,0.05167585990241679,0.0,0.9986639101836743],"scale":[0.6760140113798554,1.350464989183475,0.8142150825778458]},{"name":"himbeere_c_part_59_LOD7","mesh":1,"translation":[1.9090909090909083,-0.0,0.04495160351671135],"rotation":[0.0,0.05167585990241679,0.0,0.9986639101836743],"scale":[0.6760140113798554,1.350464989183475,0.8142150825778458]},{"name":"himbeere_c_part_60_LOD8","mesh":1,"translation":[1.9090909090909083,-0.0,0.04495160351671135],"rotation":[0.0,0.05167585990241679,0.0,0.9986639101836743],"scale":[0.6760140113798554,1.350464989183475,0.8142150825778458]},{"name":"himbeere_c_part_61_LOD9","mesh":1,"translation":[1.9090909090909083,-0.0,0.04495160351671135],"rotation":[0.0,0.05167585990241679,0.0,0.9986639101836743],"scale":[0.6760140113798554,1.350464989183475,0.8142150825778458]},{"name":"himbeere_a_part_62_LOD0","mesh":5,"translation":[2.454545454545454,-0.0,0.09913992876580158],"rotation":[0.0,0.059014468257298294,0.0,0.998257127465819],"scale":[1.3292589763177998,3.114129136638528,2.07486935152648]},{"name":"himbeere_a_part_63_LOD1","mesh":5,"translation":[2.454545454545454,-0.0,0.09913992876580158],"rotation":[0.0,0.059014468257298294,0.0,0.998257127465819],"scale":[1.3292589763177998,3.114129136638528,2.07486935152648]},{"name":"himbeere_a_part_64_LOD2","mesh":5,"translation":[2.454545454545454,-0.0,0.09913992876580158],"rotation":[0.0,0.059014468257298294,0.0,0.998257127465819],"scale":[1.3292589763177998,3.114129136638528,2.07486935152648]},{"name":"himbeere_a_part_65_LOD3","mesh":5,"translation":[2.454545454545454,-0.0,0.09913992876580158],"rotation":[0.0,0.059014468257298294,0.0,0.998257127465819],"scale":[1.3292589763177998,3.114129136638528,2.07486935152648]},{"name":"himbeere_a_part_66_LOD4","mesh":5,"translation":[2.454545454545454,-0.0,0.09913992876580158],"rotation":[0.0,0.059014468257298294,0.0,0.998257127465819],"scale":[1.3292589763177998,3.114129136638528,2.07486935152648]},{"name":"himbeere_a_part_67_LOD5","mesh":5,"translation":[2.454545454545454,-0.0,0.09913992876580158],"rotation":[0.0,0.059014468257298294,0.0,0.998257127465819],"scale":[1.3292589763177998,3.114129136638528,2.07486935152648]},{"name":"himbeere_b_part_68_LOD0","mesh":9,"translation":[3.0,-0.0,-0.07146463051129417],"rotation":[0.0,0.037563646933796546,0.0,0.9992942371639262],"scale":[0.8458920758385997,1.9550804774272972,1.3273743223381078]},{"name":"himbeere_b_part_69_LOD1","mesh":9,"translation":[3.0,-0.0,-0.07146463051129417],"rotation":[0.0,0.037563646933796546,0.0,0.9992942371639262],"scale":[0.8458920758385997,1.9550804774272972,1.3273743223381078]},{"name":"himbeere_a_part_70_LOD0","mesh":5,"translation":[-2.7272727272727275,-0.0,0.11012804167124868],"rotation":[0.0,0.047803020371009884,0.0,0.9988567821481761],"scale":[1.4209320091673034,1.9952114358631627,2.4523468986359394]},{"name":"himbeere_a_part_71_LOD1","mesh":5,"translation":[-2.7272727272727275,-0.0,0.11012804167124868],"rotation":[0.0,0.047803020371009884,0.0,0.9988567821481761],"scale":[1.4209320091673034,1.9952114358631627,2.4523468986359394]},{"name":"himbeere_b_part_72_LOD0","mesh":9,"translation":[-2.1818181818181817,-0.0,0.14947715652051513],"rotation":[0.0,0.02828749009192897,0.0,0.9995998288836884],"scale":[0.9042294603791929,1.3148374797592586,1.2564529096211101]},{"name":"himbeere_b_part_73_LOD1","mesh":9,"translation":[-2.1818181818181817,-0.0,0.14947715652051513],"rotation":[0.0,0.02828749009192897,0.0,0.9995998288836884],"scale":[0.9042294603791929,1.3148374797592586,1.2564529096211101]},{"name":"himbeere_b_part_74_LOD2","mesh":9,"translation":[-2.1818181818181817,-0.0,0.14947715652051513],"rotation":[0.0,0.02828749009192897,0.0,0.9995998288836884],"scale":[0.9042294603791929,1.3148374797592586,1.2564529096211101]},{"name":"himbeere_b_part_75_LOD3","mesh":9,"translation":[-2.1818181818181817,-0.0,0.14947715652051513],"rotation":[0.0,0.02828749009192897,0.0,0.9995998288836884],"scale":[0.9042294603791929,1.3148374797592586,1.2564529096211101]},{"name":"himbeere_b_part_76_LOD4","mesh":9,"translation":[-2.1818181818181817,-0.0,0.14947715652051513],"rotation":[0.0,0.02828749009192897,0.0,0.9995998288836884],"scale":[0.9042294603791929,1.3148374797592586,1.2564529096211101]},{"name":"himbeere_b_part_77_LOD5","mesh":9,"translation":[-2.1818181818181817,-0.0,0.14947715652051513],"rotation":[0.0,0.02828749009192897,0.0,0.9995998288836884],"scale":[0.9042294603791929,1.3148374797592586,1.2564529096211101]},{"name":"himbeere_c_part_78_LOD0","mesh":1,"translation":[-1.6363636363636365,-0.0,-0.06427633541712863],"rotation":[0.0,0.053153203021234746,0.0,0.9985863693284539],"scale":[0.722635667337087,0.8421505079991731,0.948360024064014]},{"name":"himbeere_c_part_79_LOD1","mesh":1,"translation":[-1.6363636363636365,-0.0,-0.06427633541712863],"rotation":[0.0,0.053153203021234746,0.0,0.9985863693284539],"scale":[0.722635667337087,0.8421505079991731,0.948360024064014]},{"name":"himbeere_a_part_80_LOD0","mesh":5,"translation":[-1.090909090909091,-0.0,-0.14075997741641222],"rotation":[0.0,0.06459053870919286,0.0,0.9979118509714454],"scale":[1.4209320091673034,1.8460291450969708,2.4379369881341337]},{"name":"himbeere_a_part_81_LOD1","mesh":5,"translation":[-1.090909090909091,-0.0,-0.14075997741641222],"rotation":[0.0,0.06459053870919286,0.0,0.9979118509714454],"scale":[1.4209320091673034,1.8460291450969708,2.4379369881341337]},{"name":"himbeere_a_part_82_LOD2","mesh":5,"translation":[-1.090909090909091,-0.0,-0.14075997741641222],"rotation":[0.0,0.06459053870919286,0.0,0.9979118509714454],"scale":[1.4209320091673034,1.8460291450969708,2.4379369881341337]},{"name":"himbeere_a_part_83_LOD3","mesh":5,"translation":[-1.090909090909091,-0.0,-0.14075997741641222],"rotation":[0.0,0.06459053870919286,0.0,0.9979118509714454],"scale":[1.4209320091673034,1.8460291450969708,2.4379369881341337]},{"name":"himbeere_b_part_84_LOD0","mesh":9,"translation":[-0.5454545454545459,-0.0,-0.05526933154349406],"rotation":[0.0,-0.05561958218051391,0.0,0.9984520329380201],"scale":[0.9042294603791929,1.18324462691145,1.4547742746462693]},{"name":"himbeere_b_part_85_LOD1","mesh":9,"translation":[-0.5454545454545459,-0.0,-0.05526933154349406],"rotation":[0.0,-0.05561958218051391,0.0,0.9984520329380201],"scale":[0.9042294603791929,1.18324462691145,1.4547742746462693]},{"name":"himbeere_b_part_86_LOD2","mesh":9,"translation":[-0.5454545454545459,-0.0,-0.05526933154349406],"rotation":[0.0,-0.05561958218051391,0.0,0.9984520329380201],"scale":[0.9042294603791929,1.18324462691145,1.4547742746462693]},{"name":"himbeere_b_part_87_LOD3","mesh":9,"translation":[-0.5454545454545459,-0.0,-0.05526933154349406],"rotation":[0.0,-0.05561958218051391,0.0,0.9984520329380201],"scale":[0.9042294603791929,1.18324462691145,1.4547742746462693]},{"name":"himbeere_b_part_88_LOD4","mesh":9,"translation":[-0.5454545454545459,-0.0,-0.05526933154349406],"rotation":[0.0,-0.05561958218051391,0.0,0.9984520329380201],"scale":[0.9042294603791929,1.18324462691145,1.4547742746462693]},{"name":"himbeere_b_part_89_LOD5","mesh":9,"translation":[-0.5454545454545459,-0.0,-0.05526933154349406],"rotation":[0.0,-0.05561958218051391,0.0,0.9984520329380201],"scale":[0.9042294603791929,1.18324462691145,1.4547742746462693]},{"name":"himbeere_b_part_90_LOD6","mesh":9,"translation":[-0.5454545454545459,-0.0,-0.05526933154349406],"rotation":[0.0,-0.05561958218051391,0.0,0.9984520329380201],"scale":[0.9042294603791929,1.18324462691145,1.4547742746462693]},{"name":"himbeere_b_part_91_LOD7","mesh":9,"translation":[-0.5454545454545459,-0.0,-0.05526933154349406],"rotation":[0.0,-0.05561958218051391,0.0,0.9984520329380201],"scale":[0.9042294603791929,1.18324462691145,1.4547742746462693]},{"name":"himbeere_b_part_92_LOD8","mesh":9,"translation":[-0.5454545454545459,-0.0,-0.05526933154349406],"rotation":[0.0,-0.05561958218051391,0.0,0.9984520329380201],"scale":[0.9042294603791929,1.18324462691145,1.4547742746462693]},{"name":"himbeere_b_part_93_LOD9","mesh":9,"translation":[-0.5454545454545459,-0.0,-0.05526933154349406],"rotation":[0.0,-0.05561958218051391,0.0,0.9984520329380201],"scale":[0.9042294603791929,1.18324462691145,1.4547742746462693]},{"name":"himbeere_b_part_94_LOD10","mesh":9,"translation":[-0.5454545454545459,-0.0,-0.05526933154349406],"rotation":[0.0,-0.05561958218051391,0.0,0.9984520329380201],"scale":[0.9042294603791929,1.18324462691145,1.4547742746462693]},{"name":"himbeere_b_part_95_LOD11","mesh":9,"translation":[-0.5454545454545459,-0.0,-0.05526933154349406],"rotation":[0.0,-0.05561958218051391,0.0,0.9984520329380201],"scale":[0.9042294603791929,1.18324462691145,1.4547742746462693]},{"name":"himbeere_c_part_96_LOD0","mesh":1,"translation":[0.0,-0.0,0.10283523099653269],"rotation":[0.0,0.10537156993684169,0.0,0.9944329199342936],"scale":[0.722635667337087,0.8937880515618978,0.9346311309710442]},{"name":"himbeere_c_part_97_LOD1","mesh":1,"translation":[0.0,-0.0,0.10283523099653269],"rotation":[0.0,0.10537156993684169,0.0,0.9944329199342936],"scale":[0.722635667337087,0.8937880515618978,0.9346311309710442]},{"name":"himbeere_c_part_98_LOD2","mesh":1,"translation":[0.0,-0.0,0.10283523099653269],"rotation":[0.0,0.10537156993684169,0.0,0.9944329199342936],"scale":[0.722635667337087,0.8937880515618978,0.9346311309710442]},{"name":"himbeere_c_part_99_LOD3","mesh":1,"translation":[0.0,-0.0,0.10283523099653269],"rotation":[0.0,0.10537156993684169,0.0,0.9944329199342936],"scale":[0.722635667337087,0.8937880515618978,0.9346311309710442]},{"name":"himbeere_c_part_100_LOD4","mesh":1,"translation":[0.0,-0.0,0.10283523099653269],"rotation":[0.0,0.10537156993684169,0.0,0.9944329199342936],"scale":[0.722635667337087,0.8937880515618978,0.9346311309710442]},{"name":"himbeere_c_part_101_LOD5","mesh":1,"translation":[0.0,-0.0,0.10283523099653269],"rotation":[0.0,0.10537156993684169,0.0,0.9944329199342936],"scale":[0.722635667337087,0.8937880515618978,0.9346311309710442]},{"name":"himbeere_c_part_102_LOD6","mesh":1,"translation":[0.0,-0.0,0.10283523099653269],"rotation":[0.0,0.10537156993684169,0.0,0.9944329199342936],"scale":[0.722635667337087,0.8937880515618978,0.9346311309710442]},{"name":"himbeere_c_part_103_LOD7","mesh":1,"translation":[0.0,-0.0,0.10283523099653269],"rotation":[0.0,0.10537156993684169,0.0,0.9944329199342936],"scale":[0.722635667337087,0.8937880515618978,0.9346311309710442]},{"name":"himbeere_c_part_104_LOD8","mesh":1,"translation":[0.0,-0.0,0.10283523099653269],"rotation":[0.0,0.10537156993684169,0.0,0.9944329199342936],"scale":[0.722635667337087,0.8937880515618978,0.9346311309710442]},{"name":"himbeere_c_part_105_LOD9","mesh":1,"translation":[0.0,-0.0,0.10283523099653269],"rotation":[0.0,0.10537156993684169,0.0,0.9944329199342936],"scale":[0.722635667337087,0.8937880515618978,0.9346311309710442]},{"name":"himbeere_c_part_106_LOD10","mesh":1,"translation":[0.0,-0.0,0.10283523099653269],"rotation":[0.0,0.10537156993684169,0.0,0.9944329199342936],"scale":[0.722635667337087,0.8937880515618978,0.9346311309710442]},{"name":"himbeere_c_part_107_LOD11","mesh":1,"translation":[0.0,-0.0,0.10283523099653269],"rotation":[0.0,0.10537156993684169,0.0,0.9944329199342936],"scale":[0.722635667337087,0.8937880515618978,0.9346311309710442]},{"name":"himbeere_a_part_108_LOD0","mesh":5,"translation":[0.545454545454545,-0.0,-0.10076761759178879],"rotation":[0.0,-0.021344320826220484,0.0,0.9997721840341766],"scale":[1.4209320091673034,1.798369507984558,2.1014322840716493]},{"name":"himbeere_a_part_109_LOD1","mesh":5,"translation":[0.545454545454545,-0.0,-0.10076761759178879],"rotation":[0.0,-0.021344320826220484,0.0,0.9997721840341766],"scale":[1.4209320091673034,1.798369507984558,2.1014322840716493]},{"name":"himbeere_b_part_110_LOD0","mesh":9,"translation":[1.0909090909090908,-0.0,0.01208524937111044],"rotation":[0.0,0.06047190528571671,0.0,0.9981698997020073],"scale":[0.9042294603791929,1.2322459835486494,1.1890804387703229]},{"name":"himbeere_b_part_111_LOD1","mesh":9,"translation":[1.0909090909090908,-0.0,0.01208524937111044],"rotation":[0.0,0.06047190528571671,0.0,0.9981698997020073],"scale":[0.9042294603791929,1.2322459835486494,1.1890804387703229]},{"name":"himbeere_c_part_112_LOD0","mesh":1,"translation":[1.6363636363636358,-0.0,0.089958022975966],"rotation":[0.0,-0.029509665197407463,0.0,0.999564494997665],"scale":[0.722635667337087,0.8477220576077876,0.8784523335728286]},{"name":"himbeere_c_part_113_LOD1","mesh":1,"translation":[1.6363636363636358,-0.0,0.089958022975966],"rotation":[0.0,-0.029509665197407463,0.0,0.999564494997665],"scale":[0.722635667337087,0.8477220576077876,0.8784523335728286]},{"name":"himbeere_c_part_114_LOD2","mesh":1,"translation":[1.6363636363636358,-0.0,0.089958022975966],"rotation":[0.0,-0.029509665197407463,0.0,0.999564494997665],"scale":[0.722635667337087,0.8477220576077876,0.8784523335728286]},{"name":"himbeere_c_part_115_LOD3","mesh":1,"translation":[1.6363636363636358,-0.0,0.089958022975966],"rotation":[0.0,-0.029509665197407463,0.0,0.999564494997665],"scale":[0.722635667337087,0.8477220576077876,0.8784523335728286]},{"name":"himbeere_c_part_116_LOD4","mesh":1,"translation":[1.6363636363636358,-0.0,0.089958022975966],"rotation":[0.0,-0.029509665197407463,0.0,0.999564494997665],"scale":[0.722635667337087,0.8477220576077876,0.8784523335728286]},{"name":"himbeere_c_part_117_LOD5","mesh":1,"translation":[1.6363636363636358,-0.0,0.089958022975966],"rotation":[0.0,-0.029509665197407463,0.0,0.999564494997665],"scale":[0.722635667337087,0.8477220576077876,0.8784523335728286]},{"name":"himbeere_c_part_118_LOD6","mesh":1,"translation":[1.6363636363636358,-0.0,0.089958022975966],"rotation":[0.0,-0.029509665197407463,0.0,0.999564494997665],"scale":[0.722635667337087,0.8477220576077876,0.8784523335728286]},{"name":"himbeere_c_part_119_LOD7","mesh":1,"translation":[1.6363636363636358,-0.0,0.089958022975966],"rotation":[0.0,-0.029509665197407463,0.0,0.999564494997665],"scale":[0.722635667337087,0.8477220576077876,0.8784523335728286]},{"name":"himbeere_c_part_120_LOD8","mesh":1,"translation":[1.6363636363636358,-0.0,0.089958022975966],"rotation":[0.0,-0.029509665197407463,0.0,0.999564494997665],"scale":[0.722635667337087,0.8477220576077876,0.8784523335728286]},{"name":"himbeere_c_part_121_LOD9","mesh":1,"translation":[1.6363636363636358,-0.0,0.089958022975966],"rotation":[0.0,-0.029509665197407463,0.0,0.999564494997665],"scale":[0.722635667337087,0.8477220576077876,0.8784523335728286]},{"name":"himbeere_c_part_122_LOD10","mesh":1,"translation":[1.6363636363636358,-0.0,0.089958022975966],"rotation":[0.0,-0.029509665197407463,0.0,0.999564494997665],"scale":[0.722635667337087,0.8477220576077876,0.8784523335728286]},{"name":"himbeere_a_part_123_LOD0","mesh":5,"translation":[2.1818181818181817,-0.0,-0.03995817016837361],"rotation":[0.0,-0.06561303269311608,0.0,0.9978451432666354],"scale":[1.4209320091673034,1.6786772917414816,2.4829994611884114]},{"name":"himbeere_a_part_124_LOD1","mesh":5,"translation":[2.1818181818181817,-0.0,-0.03995817016837361],"rotation":[0.0,-0.06561303269311608,0.0,0.9978451432666354],"scale":[1.4209320091673034,1.6786772917414816,2.4829994611884114]},{"name":"himbeere_a_part_125_LOD2","mesh":5,"translation":[2.1818181818181817,-0.0,-0.03995817016837361],"rotation":[0.0,-0.06561303269311608,0.0,0.9978451432666354],"scale":[1.4209320091673034,1.6786772917414816,2.4829994611884114]},{"name":"himbeere_a_part_126_LOD3","mesh":5,"translation":[2.1818181818181817,-0.0,-0.03995817016837361],"rotation":[0.0,-0.06561303269311608,0.0,0.9978451432666354],"scale":[1.4209320091673034,1.6786772917414816,2.4829994611884114]},{"name":"himbeere_b_part_127_LOD0","mesh":9,"translation":[2.7272727272727266,-0.0,-0.16575190871676104],"rotation":[0.0,0.08210958823807368,0.0,0.9966233067309704],"scale":[0.9042294603791929,1.3127550412564275,1.4071725358606306]},{"name":"himbeere_b_part_128_LOD1","mesh":9,"translation":[2.7272727272727266,-0.0,-0.16575190871676104],"rotation":[0.0,0.08210958823807368,0.0,0.9966233067309704],"scale":[0.9042294603791929,1.3127550412564275,1.4071725358606306]},{"name":"himbeere_b_part_129_LOD2","mesh":9,"translation":[2.7272727272727266,-0.0,-0.16575190871676104],"rotation":[0.0,0.08210958823807368,0.0,0.9966233067309704],"scale":[0.9042294603791929,1.3127550412564275,1.4071725358606306]},{"name":"himbeere_b_part_130_LOD3","mesh":9,"translation":[2.7272727272727266,-0.0,-0.16575190871676104],"rotation":[0.0,0.08210958823807368,0.0,0.9966233067309704],"scale":[0.9042294603791929,1.3127550412564275,1.4071725358606306]},{"name":"himbeere_b_part_131_LOD4","mesh":9,"translation":[2.7272727272727266,-0.0,-0.16575190871676104],"rotation":[0.0,0.08210958823807368,0.0,0.9966233067309704],"scale":[0.9042294603791929,1.3127550412564275,1.4071725358606306]},{"name":"himbeere_b_part_132_LOD5","mesh":9,"translation":[2.7272727272727266,-0.0,-0.16575190871676104],"rotation":[0.0,0.08210958823807368,0.0,0.9966233067309704],"scale":[0.9042294603791929,1.3127550412564275,1.4071725358606306]},{"name":"himbeere_b_part_133_LOD6","mesh":9,"translation":[2.7272727272727266,-0.0,-0.16575190871676104],"rotation":[0.0,0.08210958823807368,0.0,0.9966233067309704],"scale":[0.9042294603791929,1.3127550412564275,1.4071725358606306]},{"name":"himbeere_b_part_134_LOD7","mesh":9,"translation":[2.7272727272727266,-0.0,-0.16575190871676104],"rotation":[0.0,0.08210958823807368,0.0,0.9966233067309704],"scale":[0.9042294603791929,1.3127550412564275,1.4071725358606306]},{"name":"himbeere_b_part_135_LOD8","mesh":9,"translation":[2.7272727272727266,-0.0,-0.16575190871676104],"rotation":[0.0,0.08210958823807368,0.0,0.9966233067309704],"scale":[0.9042294603791929,1.3127550412564275,1.4071725358606306]},{"name":"himbeere_b_part_136_LOD9","mesh":9,"translation":[2.7272727272727266,-0.0,-0.16575190871676104],"rotation":[0.0,0.08210958823807368,0.0,0.9966233067309704],"scale":[0.9042294603791929,1.3127550412564275,1.4071725358606306]},{"name":"himbeere_b_part_137_LOD10","mesh":9,"translation":[2.7272727272727266,-0.0,-0.16575190871676104],"rotation":[0.0,0.08210958823807368,0.0,0.9966233067309704],"scale":[0.9042294603791929,1.3127550412564275,1.4071725358606306]},{"name":"himbeere_b_part_138_LOD11","mesh":9,"translation":[2.7272727272727266,-0.0,-0.16575190871676104],"rotation":[0.0,0.08210958823807368,0.0,0.9966233067309704],"scale":[0.9042294603791929,1.3127550412564275,1.4071725358606306]},{"name":"leaf_volume_LOD0","mesh":12},{"name":"leaf_volume_LOD1","mesh":13},{"name":"leaf_volume_LOD2","mesh":14},{"name":"leaf_volume_LOD3","mesh":15},{"name":"leaf_volume_LOD4","mesh":16},{"name":"leaf_volume_LOD5","mesh":17},{"name":"leaf_volume_LOD6","mesh":18},{"name":"leaf_volume_LOD7","mesh":19},{"name":"leaf_volume_LOD8","mesh":20},{"name":"leaf_volume_LOD9","mesh":21},{"name":"leaf_volume_LOD10","mesh":22},{"name":"leaf_volume_LOD11","mesh":23}],"meshes":[{"name":"himbeere_c_crown_LOD0","primitives":[{"attributes":{"POSITION":0,"NORMAL":1,"TEXCOORD_0":2},"indices":3,"material":1}]},{"name":"himbeere_c_crown_LOD1","primitives":[{"attributes":{"POSITION":4,"NORMAL":5,"TEXCOORD_0":6},"indices":7,"material":1}]},{"name":"himbeere_c_crown_LOD2","primitives":[{"attributes":{"POSITION":8,"NORMAL":9,"TEXCOORD_0":10},"indices":11,"material":2}]},{"name":"himbeere_c_crown_LOD3","primitives":[{"attributes":{"POSITION":12,"NORMAL":13,"TEXCOORD_0":14},"indices":15,"material":2}]},{"name":"himbeere_a_crown_LOD0","primitives":[{"attributes":{"POSITION":16,"NORMAL":17,"TEXCOORD_0":18},"indices":19,"material":4}]},{"name":"himbeere_a_crown_LOD1","primitives":[{"attributes":{"POSITION":20,"NORMAL":21,"TEXCOORD_0":22},"indices":23,"material":4}]},{"name":"himbeere_a_crown_LOD2","primitives":[{"attributes":{"POSITION":24,"NORMAL":25,"TEXCOORD_0":26},"indices":27,"material":5}]},{"name":"himbeere_a_crown_LOD3","primitives":[{"attributes":{"POSITION":28,"NORMAL":29,"TEXCOORD_0":30},"indices":31,"material":5}]},{"name":"himbeere_b_crown_LOD0","primitives":[{"attributes":{"POSITION":32,"NORMAL":33,"TEXCOORD_0":34},"indices":35,"material":7}]},{"name":"himbeere_b_crown_LOD1","primitives":[{"attributes":{"POSITION":36,"NORMAL":37,"TEXCOORD_0":38},"indices":39,"material":7}]},{"name":"himbeere_b_crown_LOD2","primitives":[{"attributes":{"POSITION":40,"NORMAL":41,"TEXCOORD_0":42},"indices":43,"material":8}]},{"name":"himbeere_b_crown_LOD3","primitives":[{"attributes":{"POSITION":44,"NORMAL":45,"TEXCOORD_0":46},"indices":47,"material":8}]},{"name":"ligusterhecke_leaf_volume_LOD0","primitives":[{"attributes":{"POSITION":48,"NORMAL":49,"TEXCOORD_0":50},"indices":51,"material":9}]},{"name":"ligusterhecke_leaf_volume_LOD1","primitives":[{"attributes":{"POSITION":52,"NORMAL":53,"TEXCOORD_0":54},"indices":55,"material":10}]},{"name":"ligusterhecke_leaf_volume_LOD2","primitives":[{"attributes":{"POSITION":56,"NORMAL":57,"TEXCOORD_0":58},"indices":59,"material":11}]},{"name":"ligusterhecke_leaf_volume_LOD3","primitives":[{"attributes":{"POSITION":60,"NORMAL":61,"TEXCOORD_0":62},"indices":63,"material":12}]},{"name":"ligusterhecke_leaf_volume_LOD4","primitives":[{"attributes":{"POSITION":64,"NORMAL":65,"TEXCOORD_0":66},"indices":67,"material":13}]},{"name":"ligusterhecke_leaf_volume_LOD5","primitives":[{"attributes":{"POSITION":68,"NORMAL":69,"TEXCOORD_0":70},"indices":71,"material":14}]},{"name":"ligusterhecke_leaf_volume_LOD6","primitives":[{"attributes":{"POSITION":72,"NORMAL":73,"TEXCOORD_0":74},"indices":75,"material":15}]},{"name":"ligusterhecke_leaf_volume_LOD7","primitives":[{"attributes":{"POSITION":76,"NORMAL":77,"TEXCOORD_0":78},"indices":79,"material":16}]},{"name":"ligusterhecke_leaf_volume_LOD8","primitives":[{"attributes":{"POSITION":80,"NORMAL":81,"TEXCOORD_0":82},"indices":83,"material":17}]},{"name":"ligusterhecke_leaf_volume_LOD9","primitives":[{"attributes":{"POSITION":84,"NORMAL":85,"TEXCOORD_0":86},"indices":87,"material":18}]},{"name":"ligusterhecke_leaf_volume_LOD10","primitives":[{"attributes":{"POSITION":88,"NORMAL":89,"TEXCOORD_0":90},"indices":91,"material":19}]},{"name":"ligusterhecke_leaf_volume_LOD11","primitives":[{"attributes":{"POSITION":92,"NORMAL":93,"TEXCOORD_0":94},"indices":95,"material":20}]}],"buffers":[{"uri":"himbeere_c.bin","byteLength":163212},{"uri":"himbeere_a.bin","byteLength":268460},{"uri":"himbeere_b.bin","byteLength":184940},{"uri":"ligusterhecke_c_hedge.bin","byteLength":8841000}],"bufferViews":[{"buffer":0,"byteOffset":0,"byteLength":39372,"target":34962},{"buffer":0,"byteOffset":39372,"byteLength":39372,"target":34962},{"buffer":0,"byteOffset":78744,"byteLength":26248,"target":34962},{"buffer":0,"byteOffset":104992,"byteLength":32088,"target":34963},{"buffer":0,"byteOffset":137080,"byteLength":7680,"target":34962},{"buffer":0,"byteOffset":144760,"byteLength":7680,"target":34962},{"buffer":0,"byteOffset":152440,"byteLength":5120,"target":34962},{"buffer":0,"byteOffset":157560,"byteLength":4812,"target":34963},{"buffer":0,"byteOffset":162372,"byteLength":192,"target":34962},{"buffer":0,"byteOffset":162564,"byteLength":192,"target":34962},{"buffer":0,"byteOffset":162756,"byteLength":128,"target":34962},{"buffer":0,"byteOffset":162884,"byteLength":48,"target":34963},{"buffer":0,"byteOffset":162932,"byteLength":96,"target":34962},{"buffer":0,"byteOffset":163028,"byteLength":96,"target":34962},{"buffer":0,"byteOffset":163124,"byteLength":64,"target":34962},{"buffer":0,"byteOffset":163188,"byteLength":24,"target":34963},{"buffer":1,"byteOffset":0,"byteLength":64836,"target":34962},{"buffer":1,"byteOffset":64836,"byteLength":64836,"target":34962},{"buffer":1,"byteOffset":129672,"byteLength":43224,"target":34962},{"buffer":1,"byteOffset":172896,"byteLength":52680,"target":34963},{"buffer":1,"byteOffset":225576,"byteLength":12792,"target":34962},{"buffer":1,"byteOffset":238368,"byteLength":12792,"target":34962},{"buffer":1,"byteOffset":251160,"byteLength":8528,"target":34962},{"buffer":1,"byteOffset":259688,"byteLength":7932,"target":34963},{"buffer":1,"byteOffset":267620,"byteLength":192,"target":34962},{"buffer":1,"byteOffset":267812,"byteLength":192,"target":34962},{"buffer":1,"byteOffset":268004,"byteLength":128,"target":34962},{"buffer":1,"byteOffset":268132,"byteLength":48,"target":34963},{"buffer":1,"byteOffset":268180,"byteLength":96,"target":34962},{"buffer":1,"byteOffset":268276,"byteLength":96,"target":34962},{"buffer":1,"byteOffset":268372,"byteLength":64,"target":34962},{"buffer":1,"byteOffset":268436,"byteLength":24,"target":34963},{"buffer":2,"byteOffset":0,"byteLength":44904,"target":34962},{"buffer":2,"byteOffset":44904,"byteLength":44904,"target":34962},{"buffer":2,"byteOffset":89808,"byteLength":29936,"target":34962},{"buffer":2,"byteOffset":119744,"byteLength":36384,"target":34963},{"buffer":2,"byteOffset":156128,"byteLength":8532,"target":34962},{"buffer":2,"byteOffset":164660,"byteLength":8532,"target":34962},{"buffer":2,"byteOffset":173192,"byteLength":5688,"target":34962},{"buffer":2,"byteOffset":178880,"byteLength":5220,"target":34963},{"buffer":2,"byteOffset":184100,"byteLength":192,"target":34962},{"buffer":2,"byteOffset":184292,"byteLength":192,"target":34962},{"buffer":2,"byteOffset":184484,"byteLength":128,"target":34962},{"buffer":2,"byteOffset":184612,"byteLength":48,"target":34963},{"buffer":2,"byteOffset":184660,"byteLength":96,"target":34962},{"buffer":2,"byteOffset":184756,"byteLength":96,"target":34962},{"buffer":2,"byteOffset":184852,"byteLength":64,"target":34962},{"buffer":2,"byteOffset":184916,"byteLength":24,"target":34963},{"buffer":3,"byteOffset":0,"byteLength":345600,"target":34962},{"buffer":3,"byteOffset":345600,"byteLength":345600,"target":34962},{"buffer":3,"byteOffset":691200,"byteLength":230400,"target":34962},{"buffer":3,"byteOffset":921600,"byteLength":86400,"target":34963},{"buffer":3,"byteOffset":1008000,"byteLength":268800,"target":34962},{"buffer":3,"byteOffset":1276800,"byteLength":268800,"target":34962},{"buffer":3,"byteOffset":1545600,"byteLength":179200,"target":34962},{"buffer":3,"byteOffset":1724800,"byteLength":67200,"target":34963},{"buffer":3,"byteOffset":1792000,"byteLength":264000,"target":34962},{"buffer":3,"byteOffset":2056000,"byteLength":264000,"target":34962},{"buffer":3,"byteOffset":2320000,"byteLength":176000,"target":34962},{"buffer":3,"byteOffset":2496000,"byteLength":66000,"target":34963},{"buffer":3,"byteOffset":2562000,"byteLength":259200,"target":34962},{"buffer":3,"byteOffset":2821200,"byteLength":259200,"target":34962},{"buffer":3,"byteOffset":3080400,"byteLength":172800,"target":34962},{"buffer":3,"byteOffset":3253200,"byteLength":64800,"target":34963},{"buffer":3,"byteOffset":3318000,"byteLength":254400,"target":34962},{"buffer":3,"byteOffset":3572400,"byteLength":254400,"target":34962},{"buffer":3,"byteOffset":3826800,"byteLength":169600,"target":34962},{"buffer":3,"byteOffset":3996400,"byteLength":63600,"target":34963},{"buffer":3,"byteOffset":4060000,"byteLength":249600,"target":34962},{"buffer":3,"byteOffset":4309600,"byteLength":249600,"target":34962},{"buffer":3,"byteOffset":4559200,"byteLength":166400,"target":34962},{"buffer":3,"byteOffset":4725600,"byteLength":62400,"target":34963},{"buffer":3,"byteOffset":4788000,"byteLength":244800,"target":34962},{"buffer":3,"byteOffset":5032800,"byteLength":244800,"target":34962},{"buffer":3,"byteOffset":5277600,"byteLength":163200,"target":34962},{"buffer":3,"byteOffset":5440800,"byteLength":61200,"target":34963},{"buffer":3,"byteOffset":5502000,"byteLength":240000,"target":34962},{"buffer":3,"byteOffset":5742000,"byteLength":240000,"target":34962},{"buffer":3,"byteOffset":5982000,"byteLength":160000,"target":34962},{"buffer":3,"byteOffset":6142000,"byteLength":60000,"target":34963},{"buffer":3,"byteOffset":6202000,"byteLength":235200,"target":34962},{"buffer":3,"byteOffset":6437200,"byteLength":235200,"target":34962},{"buffer":3,"byteOffset":6672400,"byteLength":156800,"target":34962},{"buffer":3,"byteOffset":6829200,"byteLength":58800,"target":34963},{"buffer":3,"byteOffset":6888000,"byteLength":230400,"target":34962},{"buffer":3,"byteOffset":7118400,"byteLength":230400,"target":34962},{"buffer":3,"byteOffset":7348800,"byteLength":153600,"target":34962},{"buffer":3,"byteOffset":7502400,"byteLength":57600,"target":34963},{"buffer":3,"byteOffset":7560000,"byteLength":223200,"target":34962},{"buffer":3,"byteOffset":7783200,"byteLength":223200,"target":34962},{"buffer":3,"byteOffset":8006400,"byteLength":148800,"target":34962},{"buffer":3,"byteOffset":8155200,"byteLength":55800,"target":34963},{"buffer":3,"byteOffset":8211000,"byteLength":216000,"target":34962},{"buffer":3,"byteOffset":8427000,"byteLength":216000,"target":34962},{"buffer":3,"byteOffset":8643000,"byteLength":144000,"target":34962},{"buffer":3,"byteOffset":8787000,"byteLength":54000,"target":34963}],"accessors":[{"bufferView":0,"componentType":5126,"count":3281,"type":"VEC3","min":[-0.584979806331762,0.0,-0.6375],"max":[0.584979806331762,1.5,0.6375]},{"bufferView":1,"componentType":5126,"count":3281,"type":"VEC3","min":[-0.9998146891593933,-0.4178755581378937,-0.9999851584434509],"max":[0.999520480632782,0.9999264478683472,0.9999779462814331]},{"bufferView":2,"componentType":5126,"count":3281,"type":"VEC2"},{"bufferView":3,"componentType":5123,"count":16044,"type":"SCALAR","min":[0],"max":[3280]},{"bufferView":4,"componentType":5126,"count":640,"type":"VEC3","min":[-0.584332816826827,0.0,-0.637399248678351],"max":[0.584979806331762,1.499926549590565,0.6375]},{"bufferView":5,"componentType":5126,"count":640,"type":"VEC3","min":[-0.9978211522102356,-0.31232166290283203,-0.9999854564666748],"max":[0.9859210848808289,0.9999579787254333,0.9998587965965271]},{"bufferView":6,"componentType":5126,"count":640,"type":"VEC2"},{"bufferView":7,"componentType":5123,"count":2406,"type":"SCALAR","min":[0],"max":[639]},{"bufferView":8,"componentType":5126,"count":16,"type":"VEC3","min":[-0.70125,0,-0.70125],"max":[0.70125,1.5,0.70125]},{"bufferView":9,"componentType":5126,"count":16,"type":"VEC3","min":[-1.0,0,-0.7071067811865475],"max":[-0.0,0,1.0]},{"bufferView":10,"componentType":5126,"count":16,"type":"VEC2"},{"bufferView":11,"componentType":5123,"count":24,"type":"SCALAR","min":[0],"max":[15]},{"bufferView":12,"componentType":5126,"count":8,"type":"VEC3","min":[-0.70125,0,-0.70125],"max":[0.70125,1.5,0.70125]},{"bufferView":13,"componentType":5126,"count":8,"type":"VEC3","min":[-1.0,0,6.123233995736766e-17],"max":[-0.0,0,1.0]},{"bufferView":14,"componentType":5126,"count":8,"type":"VEC2"},{"bufferView":15,"componentType":5123,"count":12,"type":"SCALAR","min":[0],"max":[7]},{"bufferView":16,"componentType":5126,"count":5403,"type":"VEC3","min":[-0.2975,0.0,-0.2652338277353859],"max":[0.2975,0.7,0.2652338277353859]},{"bufferView":17,"componentType":5126,"count":5403,"type":"VEC3","min":[-0.9994304180145264,-0.8523291945457458,-0.9983596801757812],"max":[0.9999390244483948,0.9999638199806213,0.997063398361206]},{"bufferView":18,"componentType":5126,"count":5403,"type":"VEC2"},{"bufferView":19,"componentType":5123,"count":26340,"type":"SCALAR","min":[0],"max":[5402]},{"bufferView":20,"componentType":5126,"count":1066,"type":"VEC3","min":[-0.2971687657304079,0.00027180425854097585,-0.26515763541526727],"max":[0.2968955243065341,0.699973871411052,0.26440942414684815]},{"bufferView":21,"componentType":5126,"count":1066,"type":"VEC3","min":[-0.9994305372238159,-0.5630797743797302,-0.9959743618965149],"max":[0.9791324138641357,0.9999735355377197,0.9973251223564148]},{"bufferView":22,"componentType":5126,"count":1066,"type":"VEC2"},{"bufferView":23,"componentType":5123,"count":3966,"type":"SCALAR","min":[0],"max":[1065]},{"bufferView":24,"componentType":5126,"count":16,"type":"VEC3","min":[-0.32725,0,-0.32725],"max":[0.32725,0.7,0.32725]},{"bufferView":25,"componentType":5126,"count":16,"type":"VEC3","min":[-1.0,0,-0.7071067811865475],"max":[-0.0,0,1.0]},{"bufferView":26,"componentType":5126,"count":16,"type":"VEC2"},{"bufferView":27,"componentType":5123,"count":24,"type":"SCALAR","min":[0],"max":[15]},{"bufferView":28,"componentType":5126,"count":8,"type":"VEC3","min":[-0.32725,0,-0.32725],"max":[0.32725,0.7,0.32725]},{"bufferView":29,"componentType":5126,"count":8,"type":"VEC3","min":[-1.0,0,6.123233995736766e-17],"max":[-0.0,0,1.0]},{"bufferView":30,"componentType":5126,"count":8,"type":"VEC2"},{"bufferView":31,"componentType":5123,"count":12,"type":"SCALAR","min":[0],"max":[7]},{"bufferView":32,"componentType":5126,"count":3742,"type":"VEC3","min":[-0.4675,0.0,-0.4498948973936197],"max":[0.4675,1.1,0.4498948973936197]},{"bufferView":33,"componentType":5126,"count":3742,"type":"VEC3","min":[-0.9961062669754028,-0.5310803055763245,-0.9999850988388062],"max":[0.9980489611625671,0.9998307824134827,0.9981037974357605]},{"bufferView":34,"componentType":5126,"count":3742,"type":"VEC2"},{"bufferView":35,"componentType":5123,"count":18192,"type":"SCALAR","min":[0],"max":[3741]},{"bufferView":36,"componentType":5126,"count":711,"type":"VEC3","min":[-0.4671776978737864,0.0,-0.44979525027712636],"max":[0.46740563778053823,1.1,0.4498948973936197]},{"bufferView":37,"componentType":5126,"count":711,"type":"VEC3","min":[-0.9960769414901733,-0.28742703795433044,-0.99998539686203],"max":[0.9766634106636047,0.9998952150344849,0.9995871186256409]},{"bufferView":38,"componentType":5126,"count":711,"type":"VEC2"},{"bufferView":39,"componentType":5123,"count":2610,"type":"SCALAR","min":[0],"max":[710]},{"bufferView":40,"componentType":5126,"count":16,"type":"VEC3","min":[-0.5142500000000001,0,-0.5142500000000001],"max":[0.5142500000000001,1.1,0.5142500000000001]},{"bufferView":41,"componentType":5126,"count":16,"type":"VEC3","min":[-1.0,0,-0.7071067811865475],"max":[-0.0,0,1.0]},{"bufferView":42,"componentType":5126,"count":16,"type":"VEC2"},{"bufferView":43,"componentType":5123,"count":24,"type":"SCALAR","min":[0],"max":[15]},{"bufferView":44,"componentType":5126,"count":8,"type":"VEC3","min":[-0.5142500000000001,0,-0.5142500000000001],"max":[0.5142500000000001,1.1,0.5142500000000001]},{"bufferView":45,"componentType":5126,"count":8,"type":"VEC3","min":[-1.0,0,6.123233995736766e-17],"max":[-0.0,0,1.0]},{"bufferView":46,"componentType":5126,"count":8,"type":"VEC2"},{"bufferView":47,"componentType":5123,"count":12,"type":"SCALAR","min":[0],"max":[7]},{"bufferView":48,"componentType":5126,"count":28800,"type":"VEC3","min":[-3.1149791884732254,0.026109445001558318,-0.7310834587561275],"max":[3.1154884274969197,2.1537015616985116,0.7336362371350651]},{"bufferView":49,"componentType":5126,"count":28800,"type":"VEC3","min":[-1.0,-0.1499029295789543,-1.0],"max":[1.0,1.0,1.0]},{"bufferView":50,"componentType":5126,"count":28800,"type":"VEC2"},{"bufferView":51,"componentType":5123,"count":43200,"type":"SCALAR","min":[0],"max":[28799]},{"bufferView":52,"componentType":5126,"count":22400,"type":"VEC3","min":[-3.225383219467821,-0.05441721807693567,-0.8436722957641697],"max":[3.2187902012802607,2.20416734798361,0.8474234422288891]},{"bufferView":53,"componentType":5126,"count":22400,"type":"VEC3","min":[-1.0,-0.1499761274038971,-1.0],"max":[1.0,1.0,1.0]},{"bufferView":54,"componentType":5126,"count":22400,"type":"VEC2"},{"bufferView":55,"componentType":5123,"count":33600,"type":"SCALAR","min":[0],"max":[22399]},{"bufferView":56,"componentType":5126,"count":22000,"type":"VEC3","min":[-3.292559298102895,-0.11239144495628217,-0.9341380692791552],"max":[3.2955466850067205,2.2586875442143075,0.9310350384492985]},{"bufferView":57,"componentType":5126,"count":22000,"type":"VEC3","min":[-1.0,-0.14996365570251394,-1.0],"max":[1.0,1.0,1.0]},{"bufferView":58,"componentType":5126,"count":22000,"type":"VEC2"},{"bufferView":59,"componentType":5123,"count":33000,"type":"SCALAR","min":[0],"max":[21999]},{"bufferView":60,"componentType":5126,"count":21600,"type":"VEC3","min":[-3.41795683927402,-0.1862829316483702,-1.0359261538628628],"max":[3.4281509361749336,2.334879900085175,1.0310559150078065]},{"bufferView":61,"componentType":5126,"count":21600,"type":"VEC3","min":[-1.0,-0.14986407929043824,-1.0],"max":[1.0,1.0,1.0]},{"bufferView":62,"componentType":5126,"count":21600,"type":"VEC2"},{"bufferView":63,"componentType":5123,"count":32400,"type":"SCALAR","min":[0],"max":[21599]},{"bufferView":64,"componentType":5126,"count":21200,"type":"VEC3","min":[-3.5442131697936374,-0.28083017975184515,-1.1696922789353768],"max":[3.528952914202887,2.4414122338341215,1.1755198949160852]},{"bufferView":65,"componentType":5126,"count":21200,"type":"VEC3","min":[-1.0,-0.14993151552628398,-1.0],"max":[1.0,1.0,1.0]},{"bufferView":66,"componentType":5126,"count":21200,"type":"VEC2"},{"bufferView":67,"componentType":5123,"count":31800,"type":"SCALAR","min":[0],"max":[21199]},{"bufferView":68,"componentType":5126,"count":20800,"type":"VEC3","min":[-3.7375815193316826,-0.4110947609586228,-1.3592252397169018],"max":[3.7453597523164133,2.5439120272264333,1.3582666446938791]},{"bufferView":69,"componentType":5126,"count":20800,"type":"VEC3","min":[-1.0,-0.14992670842004815,-1.0],"max":[1.0,1.0,1.0]},{"bufferView":70,"componentType":5126,"count":20800,"type":"VEC2"},{"bufferView":71,"componentType":5123,"count":31200,"type":"SCALAR","min":[0],"max":[20799]},{"bufferView":72,"componentType":5126,"count":20400,"type":"VEC3","min":[-3.918095031292879,-0.5079240791492217,-1.5484731152638773],"max":[3.968808038196289,2.7403406026424397,1.5379628815223652]},{"bufferView":73,"componentType":5126,"count":20400,"type":"VEC3","min":[-1.0,-0.14978386535341603,-1.0],"max":[1.0,1.0,1.0]},{"bufferView":74,"componentType":5126,"count":20400,"type":"VEC2"},{"bufferView":75,"componentType":5123,"count":30600,"type":"SCALAR","min":[0],"max":[20399]},{"bufferView":76,"componentType":5126,"count":20000,"type":"VEC3","min":[-4.220282904444922,-0.7478467173415453,-1.8409701945208532],"max":[4.21506036719153,2.938216553396725,1.8144533933129248]},{"bufferView":77,"componentType":5126,"count":20000,"type":"VEC3","min":[-1.0,-0.1499846048807846,-1.0],"max":[1.0,1.0,1.0]},{"bufferView":78,"componentType":5126,"count":20000,"type":"VEC2"},{"bufferView":79,"componentType":5123,"count":30000,"type":"SCALAR","min":[0],"max":[19999]},{"bufferView":80,"componentType":5126,"count":19600,"type":"VEC3","min":[-4.533115891584483,-0.9007963378863468,-2.1232093948746793],"max":[4.497642244900471,3.0860529879223426,2.02524706370036]},{"bufferView":81,"componentType":5126,"count":19600,"type":"VEC3","min":[-1.0,-0.14996549980800572,-1.0],"max":[1.0,1.0,1.0]},{"bufferView":82,"componentType":5126,"count":19600,"type":"VEC2"},{"bufferView":83,"componentType":5123,"count":29400,"type":"SCALAR","min":[0],"max":[19599]},{"bufferView":84,"componentType":5126,"count":19200,"type":"VEC3","min":[-4.782979237213164,-1.203861781932779,-2.4542439582053834],"max":[4.791776904724297,3.3360152020457923,2.410098885505025]},{"bufferView":85,"componentType":5126,"count":19200,"type":"VEC3","min":[-1.0,-0.14987224966452292,-1.0],"max":[1.0,1.0,1.0]},{"bufferView":86,"componentType":5126,"count":19200,"type":"VEC2"},{"bufferView":87,"componentType":5123,"count":28800,"type":"SCALAR","min":[0],"max":[19199]},{"bufferView":88,"componentType":5126,"count":18600,"type":"VEC3","min":[-5.149261605199833,-1.3654685472374646,-2.8038293344563776],"max":[5.149639785945979,3.4987373862338464,2.7581546673077253]},{"bufferView":89,"componentType":5126,"count":18600,"type":"VEC3","min":[-1.0,-0.14984635070053995,-1.0],"max":[1.0,1.0,1.0]},{"bufferView":90,"componentType":5126,"count":18600,"type":"VEC2"},{"bufferView":91,"componentType":5123,"count":27900,"type":"SCALAR","min":[0],"max":[18599]},{"bufferView":92,"componentType":5126,"count":18000,"type":"VEC3","min":[-5.574139820777212,-1.720555335492446,-3.1965539008091866],"max":[5.607274430480429,3.8676569125175586,3.1880588080531895]},{"bufferView":93,"componentType":5126,"count":18000,"type":"VEC3","min":[-1.0,-0.1499679510213773,-1.0],"max":[1.0,1.0,1.0]},{"bufferView":94,"componentType":5126,"count":18000,"type":"VEC2"},{"bufferView":95,"componentType":5123,"count":27000,"type":"SCALAR","min":[0],"max":[17999]}],"images":[{"uri":"textures/poly_shrub_01.png"},{"uri":"textures/poly_shrub_01.png"},{"uri":"impostors/himbeere_c_summer.png"},{"uri":"textures/poly_shrub_01.png"},{"uri":"textures/poly_shrub_01.png"},{"uri":"impostors/himbeere_a_summer.png"},{"uri":"textures/poly_shrub_01.png"},{"uri":"textures/poly_shrub_01.png"},{"uri":"impostors/himbeere_b_summer.png"},{"uri":"textures/poly_searsia_lucida.png"}],"samplers":[{"magFilter":9729,"minFilter":9987,"wrapS":10497,"wrapT":10497},{"magFilter":9729,"minFilter":9987,"wrapS":10497,"wrapT":10497},{"magFilter":9729,"minFilter":9987,"wrapS":10497,"wrapT":10497},{"magFilter":9729,"minFilter":9987,"wrapS":10497,"wrapT":10497}],"textures":[{"source":0,"sampler":0},{"source":1,"sampler":0},{"source":2,"sampler":0},{"source":3,"sampler":1},{"source":4,"sampler":1},{"source":5,"sampler":1},{"source":6,"sampler":2},{"source":7,"sampler":2},{"source":8,"sampler":2},{"source":9,"sampler":3}],"materials":[{"name":"himbeere_c_bark","pbrMetallicRoughness":{"baseColorFactor":[0.82,0.82,0.82,1.0],"baseColorTexture":{"index":0},"metallicFactor":0.0,"roughnessFactor":0.91},"doubleSided":false},{"name":"himbeere_c_foliage","pbrMetallicRoughness":{"baseColorFactor":[0.5480392156862745,1.0,0.7080392156862745,1.0],"baseColorTexture":{"index":1},"metallicFactor":0.0,"roughnessFactor":0.78},"doubleSided":true,"alphaMode":"MASK","alphaCutoff":0.18},{"name":"himbeere_c_whole_tree_impostor","pbrMetallicRoughness":{"baseColorFactor":[1,1,1,1],"baseColorTexture":{"index":2},"metallicFactor":0.0,"roughnessFactor":0.92},"doubleSided":true,"alphaMode":"MASK","alphaCutoff":0.18},{"name":"himbeere_a_bark","pbrMetallicRoughness":{"baseColorFactor":[0.82,0.82,0.82,1.0],"baseColorTexture":{"index":3},"metallicFactor":0.0,"roughnessFactor":0.91},"doubleSided":false},{"name":"himbeere_a_foliage","pbrMetallicRoughness":{"baseColorFactor":[0.5480392156862745,1.0,0.7080392156862745,1.0],"baseColorTexture":{"index":4},"metallicFactor":0.0,"roughnessFactor":0.78},"doubleSided":true,"alphaMode":"MASK","alphaCutoff":0.18},{"name":"himbeere_a_whole_tree_impostor","pbrMetallicRoughness":{"baseColorFactor":[1,1,1,1],"baseColorTexture":{"index":5},"metallicFactor":0.0,"roughnessFactor":0.92},"doubleSided":true,"alphaMode":"MASK","alphaCutoff":0.18},{"name":"himbeere_b_bark","pbrMetallicRoughness":{"baseColorFactor":[0.82,0.82,0.82,1.0],"baseColorTexture":{"index":6},"metallicFactor":0.0,"roughnessFactor":0.91},"doubleSided":false},{"name":"himbeere_b_foliage","pbrMetallicRoughness":{"baseColorFactor":[0.5480392156862745,1.0,0.7080392156862745,1.0],"baseColorTexture":{"index":7},"metallicFactor":0.0,"roughnessFactor":0.78},"doubleSided":true,"alphaMode":"MASK","alphaCutoff":0.18},{"name":"himbeere_b_whole_tree_impostor","pbrMetallicRoughness":{"baseColorFactor":[1,1,1,1],"baseColorTexture":{"index":8},"metallicFactor":0.0,"roughnessFactor":0.92},"doubleSided":true,"alphaMode":"MASK","alphaCutoff":0.18},{"name":"ligusterhecke_individual_leaves_LOD0","pbrMetallicRoughness":{"baseColorFactor":[0.58,0.96,0.66,1.0],"baseColorTexture":{"index":9},"metallicFactor":0.0,"roughnessFactor":0.82},"doubleSided":true,"alphaMode":"MASK","alphaCutoff":0.18},{"name":"ligusterhecke_individual_leaves_LOD1","pbrMetallicRoughness":{"baseColorFactor":[0.58,0.96,0.66,1.0],"baseColorTexture":{"index":9},"metallicFactor":0.0,"roughnessFactor":0.82},"doubleSided":true,"alphaMode":"MASK","alphaCutoff":0.08},{"name":"ligusterhecke_individual_leaves_LOD2","pbrMetallicRoughness":{"baseColorFactor":[0.58,0.96,0.66,1.0],"baseColorTexture":{"index":9},"metallicFactor":0.0,"roughnessFactor":0.82},"doubleSided":true,"alphaMode":"MASK","alphaCutoff":0.065},{"name":"ligusterhecke_individual_leaves_LOD3","pbrMetallicRoughness":{"baseColorFactor":[0.58,0.96,0.66,1.0],"baseColorTexture":{"index":9},"metallicFactor":0.0,"roughnessFactor":0.82},"doubleSided":true,"alphaMode":"MASK","alphaCutoff":0.055},{"name":"ligusterhecke_individual_leaves_LOD4","pbrMetallicRoughness":{"baseColorFactor":[0.58,0.96,0.66,1.0],"baseColorTexture":{"index":9},"metallicFactor":0.0,"roughnessFactor":0.82},"doubleSided":true,"alphaMode":"MASK","alphaCutoff":0.045},{"name":"ligusterhecke_individual_leaves_LOD5","pbrMetallicRoughness":{"baseColorFactor":[0.58,0.96,0.66,1.0],"baseColorTexture":{"index":9},"metallicFactor":0.0,"roughnessFactor":0.82},"doubleSided":true,"alphaMode":"MASK","alphaCutoff":0.038},{"name":"ligusterhecke_individual_leaves_LOD6","pbrMetallicRoughness":{"baseColorFactor":[0.58,0.96,0.66,1.0],"baseColorTexture":{"index":9},"metallicFactor":0.0,"roughnessFactor":0.82},"doubleSided":true,"alphaMode":"MASK","alphaCutoff":0.032},{"name":"ligusterhecke_individual_leaves_LOD7","pbrMetallicRoughness":{"baseColorFactor":[0.58,0.96,0.66,1.0],"baseColorTexture":{"index":9},"metallicFactor":0.0,"roughnessFactor":0.82},"doubleSided":true,"alphaMode":"MASK","alphaCutoff":0.027},{"name":"ligusterhecke_individual_leaves_LOD8","pbrMetallicRoughness":{"baseColorFactor":[0.58,0.96,0.66,1.0],"baseColorTexture":{"index":9},"metallicFactor":0.0,"roughnessFactor":0.82},"doubleSided":true,"alphaMode":"MASK","alphaCutoff":0.023},{"name":"ligusterhecke_individual_leaves_LOD9","pbrMetallicRoughness":{"baseColorFactor":[0.58,0.96,0.66,1.0],"baseColorTexture":{"index":9},"metallicFactor":0.0,"roughnessFactor":0.82},"doubleSided":true,"alphaMode":"MASK","alphaCutoff":0.02},{"name":"ligusterhecke_individual_leaves_LOD10","pbrMetallicRoughness":{"baseColorFactor":[0.58,0.96,0.66,1.0],"baseColorTexture":{"index":9},"metallicFactor":0.0,"roughnessFactor":0.82},"doubleSided":true,"alphaMode":"MASK","alphaCutoff":0.017},{"name":"ligusterhecke_individual_leaves_LOD11","pbrMetallicRoughness":{"baseColorFactor":[0.58,0.96,0.66,1.0],"baseColorTexture":{"index":9},"metallicFactor":0.0,"roughnessFactor":0.82},"doubleSided":true,"alphaMode":"MASK","alphaCutoff":0.015}]}