{"asset":{"version":"2.0","generator":"Connected Rails CC0 tree importer","copyright":"Mantissa and Poly Haven source models: CC0 1.0; optimisation: Connected Rails"},"scene":0,"scenes":[{"nodes":[0,1,2,3]}],"nodes":[{"name":"crown_LOD0","mesh":0},{"name":"crown_LOD1","mesh":1},{"name":"crown_LOD2","mesh":2},{"name":"crown_LOD3","mesh":3}],"meshes":[{"name":"crown_LOD0","primitives":[{"attributes":{"POSITION":0,"NORMAL":1,"TEXCOORD_0":2},"indices":3,"material":1}]},{"name":"crown_LOD1","primitives":[{"attributes":{"POSITION":4,"NORMAL":5,"TEXCOORD_0":6},"indices":7,"material":1}]},{"name":"crown_LOD2","primitives":[{"attributes":{"POSITION":8,"NORMAL":9,"TEXCOORD_0":10},"indices":11,"material":2}]},{"name":"crown_LOD3","primitives":[{"attributes":{"POSITION":12,"NORMAL":13,"TEXCOORD_0":14},"indices":15,"material":2}]}],"buffers":[{"uri":"pfaffenhuetchen_a.bin","byteLength":4340260}],"bufferViews":[{"buffer":0,"byteOffset":0,"byteLength":838224,"target":34962},{"buffer":0,"byteOffset":838224,"byteLength":838224,"target":34962},{"buffer":0,"byteOffset":1676448,"byteLength":558816,"target":34962},{"buffer":0,"byteOffset":2235264,"byteLength":675840,"target":34963},{"buffer":0,"byteOffset":2911104,"byteLength":474060,"target":34962},{"buffer":0,"byteOffset":3385164,"byteLength":474060,"target":34962},{"buffer":0,"byteOffset":3859224,"byteLength":316040,"target":34962},{"buffer":0,"byteOffset":4175264,"byteLength":164154,"target":34963},{"buffer":0,"byteOffset":4339420,"byteLength":192,"target":34962},{"buffer":0,"byteOffset":4339612,"byteLength":192,"target":34962},{"buffer":0,"byteOffset":4339804,"byteLength":128,"target":34962},{"buffer":0,"byteOffset":4339932,"byteLength":48,"target":34963},{"buffer":0,"byteOffset":4339980,"byteLength":96,"target":34962},{"buffer":0,"byteOffset":4340076,"byteLength":96,"target":34962},{"buffer":0,"byteOffset":4340172,"byteLength":64,"target":34962},{"buffer":0,"byteOffset":4340236,"byteLength":24,"target":34963}],"accessors":[{"bufferView":0,"componentType":5126,"count":69852,"type":"VEC3","min":[-1.0,0.0,-0.870907499226037],"max":[1.0,2.0,0.870907499226037]},{"bufferView":1,"componentType":5126,"count":69852,"type":"VEC3","min":[-0.9999561309814453,-0.999817430973053,-0.9999938011169434],"max":[0.9998592138290405,0.999930739402771,0.9999727606773376]},{"bufferView":2,"componentType":5126,"count":69852,"type":"VEC2"},{"bufferView":3,"componentType":5125,"count":168960,"type":"SCALAR","min":[0],"max":[69851]},{"bufferView":4,"componentType":5126,"count":39505,"type":"VEC3","min":[-1.0121572448889469,0.00033060427222071203,-0.888507544240777],"max":[1.0130555806332788,2.002360407502158,0.8658899229617784]},{"bufferView":5,"componentType":5126,"count":39505,"type":"VEC3","min":[-0.9998254776000977,-0.9999162554740906,-0.9996466636657715],"max":[0.9996597170829773,0.9999552965164185,0.9998535513877869]},{"bufferView":6,"componentType":5126,"count":39505,"type":"VEC2"},{"bufferView":7,"componentType":5123,"count":82077,"type":"SCALAR","min":[0],"max":[39504]},{"bufferView":8,"componentType":5126,"count":16,"type":"VEC3","min":[-1.1,0,-1.1],"max":[1.1,2.0,1.1]},{"bufferView":9,"componentType":5126,"count":16,"type":"VEC3","min":[-1.0,0,-0.7071067811865475],"max":[-0.0,0,1.0]},{"bufferView":10,"componentType":5126,"count":16,"type":"VEC2"},{"bufferView":11,"componentType":5123,"count":24,"type":"SCALAR","min":[0],"max":[15]},{"bufferView":12,"componentType":5126,"count":8,"type":"VEC3","min":[-1.1,0,-1.1],"max":[1.1,2.0,1.1]},{"bufferView":13,"componentType":5126,"count":8,"type":"VEC3","min":[-1.0,0,6.123233995736766e-17],"max":[-0.0,0,1.0]},{"bufferView":14,"componentType":5126,"count":8,"type":"VEC2"},{"bufferView":15,"componentType":5123,"count":12,"type":"SCALAR","min":[0],"max":[7]}],"samplers":[{"magFilter":9729,"minFilter":9987,"wrapS":10497,"wrapT":10497}],"images":[{"uri":"textures/poly_searsia_lucida.png"},{"uri":"textures/poly_searsia_lucida.png"},{"uri":"impostors/pfaffenhuetchen_a_autumn.png"}],"textures":[{"source":0,"sampler":0},{"source":1,"sampler":0},{"source":2,"sampler":0}],"materials":[{"name":"bark","pbrMetallicRoughness":{"baseColorFactor":[0.82,0.82,0.82,1.0],"baseColorTexture":{"index":0},"metallicFactor":0.0,"roughnessFactor":0.91},"doubleSided":false},{"name":"foliage","pbrMetallicRoughness":{"baseColorFactor":[0.76,0.18,0.08,1.0],"baseColorTexture":{"index":1},"metallicFactor":0.0,"roughnessFactor":0.78},"doubleSided":true,"alphaMode":"MASK","alphaCutoff":0.18},{"name":"whole_tree_impostor","pbrMetallicRoughness":{"baseColorFactor":[1,1,1,1],"baseColorTexture":{"index":2},"metallicFactor":0.0,"roughnessFactor":0.92},"doubleSided":true,"alphaMode":"MASK","alphaCutoff":0.18}]}