{"asset":{"version":"2.0","generator":"Connected Rails CC0 tree importer","copyright":"Mantissa and Poly Haven source models: CC0 1.0; optimisation: Connected Rails"},"scene":0,"scenes":[{"nodes":[0,1,2,3]}],"nodes":[{"name":"crown_LOD0","mesh":0},{"name":"crown_LOD1","mesh":1},{"name":"crown_LOD2","mesh":2},{"name":"crown_LOD3","mesh":3}],"meshes":[{"name":"crown_LOD0","primitives":[{"attributes":{"POSITION":0,"NORMAL":1,"TEXCOORD_0":2},"indices":3,"material":0}]},{"name":"crown_LOD1","primitives":[{"attributes":{"POSITION":8,"NORMAL":9,"TEXCOORD_0":10},"indices":11,"material":0}]},{"name":"crown_LOD2","primitives":[{"attributes":{"POSITION":16,"NORMAL":17,"TEXCOORD_0":18},"indices":19,"material":2}]},{"name":"crown_LOD3","primitives":[{"attributes":{"POSITION":20,"NORMAL":21,"TEXCOORD_0":22},"indices":23,"material":2}]}],"buffers":[{"uri":"pyramidenpappel_b.bin","byteLength":8104984}],"bufferViews":[{"buffer":0,"byteOffset":0,"byteLength":223764,"target":34962},{"buffer":0,"byteOffset":223764,"byteLength":223764,"target":34962},{"buffer":0,"byteOffset":447528,"byteLength":149176,"target":34962},{"buffer":0,"byteOffset":596704,"byteLength":71994,"target":34963},{"buffer":0,"byteOffset":668700,"byteLength":1499460,"target":34962},{"buffer":0,"byteOffset":2168160,"byteLength":1499460,"target":34962},{"buffer":0,"byteOffset":3667620,"byteLength":999640,"target":34962},{"buffer":0,"byteOffset":4667260,"byteLength":1716000,"target":34963},{"buffer":0,"byteOffset":6383260,"byteLength":42480,"target":34962},{"buffer":0,"byteOffset":6425740,"byteLength":42480,"target":34962},{"buffer":0,"byteOffset":6468220,"byteLength":28320,"target":34962},{"buffer":0,"byteOffset":6496540,"byteLength":19200,"target":34963},{"buffer":0,"byteOffset":6515740,"byteLength":490716,"target":34962},{"buffer":0,"byteOffset":7006456,"byteLength":490716,"target":34962},{"buffer":0,"byteOffset":7497172,"byteLength":327144,"target":34962},{"buffer":0,"byteOffset":7824316,"byteLength":279828,"target":34963},{"buffer":0,"byteOffset":8104144,"byteLength":192,"target":34962},{"buffer":0,"byteOffset":8104336,"byteLength":192,"target":34962},{"buffer":0,"byteOffset":8104528,"byteLength":128,"target":34962},{"buffer":0,"byteOffset":8104656,"byteLength":48,"target":34963},{"buffer":0,"byteOffset":8104704,"byteLength":96,"target":34962},{"buffer":0,"byteOffset":8104800,"byteLength":96,"target":34962},{"buffer":0,"byteOffset":8104896,"byteLength":64,"target":34962},{"buffer":0,"byteOffset":8104960,"byteLength":24,"target":34963}],"accessors":[{"bufferView":0,"componentType":5126,"count":18647,"type":"VEC3","min":[-2.913792377615811,-0.0028039088292051437,-2.98254799457389],"max":[2.92692658040913,27.646157033291015,2.9372603912207422]},{"bufferView":1,"componentType":5126,"count":18647,"type":"VEC3","min":[-0.9999802708625793,-0.9926387667655945,-0.9999936819076538],"max":[0.9999103546142578,0.9986358284950256,0.9999983906745911]},{"bufferView":2,"componentType":5126,"count":18647,"type":"VEC2"},{"bufferView":3,"componentType":5123,"count":35997,"type":"SCALAR","min":[0],"max":[18646]},{"bufferView":4,"componentType":5126,"count":124955,"type":"VEC3","min":[-3.0157952308654785,9.952125549316406,-3.141608715057373],"max":[3.0585989952087402,27.822202682495117,3.20938777923584]},{"bufferView":5,"componentType":5126,"count":124955,"type":"VEC3","min":[-0.9999843835830688,-0.9999996423721313,-0.9999651312828064],"max":[1.0,0.9999943375587463,0.999786913394928]},{"bufferView":6,"componentType":5126,"count":124955,"type":"VEC2"},{"bufferView":7,"componentType":5125,"count":429000,"type":"SCALAR","min":[0],"max":[124954]},{"bufferView":8,"componentType":5126,"count":3540,"type":"VEC3","min":[-2.7091691799134816,0.06324116653122357,-2.8217919541994085],"max":[2.775954910062,27.256770649345594,2.9037082664770755]},{"bufferView":9,"componentType":5126,"count":3540,"type":"VEC3","min":[-0.9999781847000122,-0.9956217408180237,-0.9999936819076538],"max":[0.9996474385261536,0.9985268712043762,0.9997510313987732]},{"bufferView":10,"componentType":5126,"count":3540,"type":"VEC2"},{"bufferView":11,"componentType":5123,"count":9600,"type":"SCALAR","min":[0],"max":[3539]},{"bufferView":12,"componentType":5126,"count":40893,"type":"VEC3","min":[-3.0383570194244385,9.89034652709961,-3.168125867843628],"max":[2.994067907333374,27.84740447998047,3.0202367305755615]},{"bufferView":13,"componentType":5126,"count":40893,"type":"VEC3","min":[-0.9999342560768127,-0.9999853372573853,-0.9999651312828064],"max":[0.9998716115951538,0.9999902844429016,0.9991987347602844]},{"bufferView":14,"componentType":5126,"count":40893,"type":"VEC2"},{"bufferView":15,"componentType":5123,"count":139914,"type":"SCALAR","min":[0],"max":[40892]},{"bufferView":16,"componentType":5126,"count":16,"type":"VEC3","min":[-3.5420000000000007,0,-3.5420000000000007],"max":[3.5420000000000007,28.0,3.5420000000000007]},{"bufferView":17,"componentType":5126,"count":16,"type":"VEC3","min":[-1.0,0,-0.7071067811865475],"max":[-0.0,0,1.0]},{"bufferView":18,"componentType":5126,"count":16,"type":"VEC2"},{"bufferView":19,"componentType":5123,"count":24,"type":"SCALAR","min":[0],"max":[15]},{"bufferView":20,"componentType":5126,"count":8,"type":"VEC3","min":[-3.5420000000000007,0,-3.5420000000000007],"max":[3.5420000000000007,28.0,3.5420000000000007]},{"bufferView":21,"componentType":5126,"count":8,"type":"VEC3","min":[-1.0,0,6.123233995736766e-17],"max":[-0.0,0,1.0]},{"bufferView":22,"componentType":5126,"count":8,"type":"VEC2"},{"bufferView":23,"componentType":5123,"count":12,"type":"SCALAR","min":[0],"max":[7]}],"samplers":[{"magFilter":9729,"minFilter":9987,"wrapS":10497,"wrapT":10497}],"images":[{"uri":"textures/bark_broadleaf.jpg"},{"uri":"textures/foliage_broadleaf.jpg"},{"uri":"impostors/pyramidenpappel_b_winter.png"}],"textures":[{"source":0,"sampler":0},{"source":1,"sampler":0},{"source":2,"sampler":0}],"materials":[{"name":"bark","pbrMetallicRoughness":{"baseColorFactor":[0.82,0.82,0.82,1.0],"baseColorTexture":{"index":0},"metallicFactor":0.0,"roughnessFactor":0.91},"doubleSided":false},{"name":"foliage","pbrMetallicRoughness":{"baseColorFactor":[0.0,0.0,0.0,0.0],"baseColorTexture":{"index":1},"metallicFactor":0.0,"roughnessFactor":0.78},"doubleSided":true},{"name":"whole_tree_impostor","pbrMetallicRoughness":{"baseColorFactor":[1,1,1,1],"baseColorTexture":{"index":2},"metallicFactor":0.0,"roughnessFactor":0.92},"doubleSided":true,"alphaMode":"MASK","alphaCutoff":0.18}]}