{"asset":{"version":"2.0","generator":"Connected Rails CC0 tree importer","copyright":"Mantissa and Poly Haven source models: CC0 1.0; optimisation: Connected Rails"},"scene":0,"scenes":[{"nodes":[0,1,2,3]}],"nodes":[{"name":"crown_LOD0","mesh":0},{"name":"crown_LOD1","mesh":1},{"name":"crown_LOD2","mesh":2},{"name":"crown_LOD3","mesh":3}],"meshes":[{"name":"crown_LOD0","primitives":[{"attributes":{"POSITION":0,"NORMAL":1,"TEXCOORD_0":2},"indices":3,"material":0},{"attributes":{"POSITION":4,"NORMAL":5,"TEXCOORD_0":6},"indices":7,"material":1}]},{"name":"crown_LOD1","primitives":[{"attributes":{"POSITION":8,"NORMAL":9,"TEXCOORD_0":10},"indices":11,"material":0},{"attributes":{"POSITION":12,"NORMAL":13,"TEXCOORD_0":14},"indices":15,"material":1}]},{"name":"crown_LOD2","primitives":[{"attributes":{"POSITION":16,"NORMAL":17,"TEXCOORD_0":18},"indices":19,"material":2}]},{"name":"crown_LOD3","primitives":[{"attributes":{"POSITION":20,"NORMAL":21,"TEXCOORD_0":22},"indices":23,"material":2}]}],"buffers":[{"uri":"pyramidenpappel_a.bin","byteLength":8069664}],"bufferViews":[{"buffer":0,"byteOffset":0,"byteLength":211572,"target":34962},{"buffer":0,"byteOffset":211572,"byteLength":211572,"target":34962},{"buffer":0,"byteOffset":423144,"byteLength":141048,"target":34962},{"buffer":0,"byteOffset":564192,"byteLength":72000,"target":34963},{"buffer":0,"byteOffset":636192,"byteLength":1502448,"target":34962},{"buffer":0,"byteOffset":2138640,"byteLength":1502448,"target":34962},{"buffer":0,"byteOffset":3641088,"byteLength":1001632,"target":34962},{"buffer":0,"byteOffset":4642720,"byteLength":1720644,"target":34963},{"buffer":0,"byteOffset":6363364,"byteLength":43500,"target":34962},{"buffer":0,"byteOffset":6406864,"byteLength":43500,"target":34962},{"buffer":0,"byteOffset":6450364,"byteLength":29000,"target":34962},{"buffer":0,"byteOffset":6479364,"byteLength":19188,"target":34963},{"buffer":0,"byteOffset":6498552,"byteLength":485244,"target":34962},{"buffer":0,"byteOffset":6983796,"byteLength":485244,"target":34962},{"buffer":0,"byteOffset":7469040,"byteLength":323496,"target":34962},{"buffer":0,"byteOffset":7792536,"byteLength":276288,"target":34963},{"buffer":0,"byteOffset":8068824,"byteLength":192,"target":34962},{"buffer":0,"byteOffset":8069016,"byteLength":192,"target":34962},{"buffer":0,"byteOffset":8069208,"byteLength":128,"target":34962},{"buffer":0,"byteOffset":8069336,"byteLength":48,"target":34963},{"buffer":0,"byteOffset":8069384,"byteLength":96,"target":34962},{"buffer":0,"byteOffset":8069480,"byteLength":96,"target":34962},{"buffer":0,"byteOffset":8069576,"byteLength":64,"target":34962},{"buffer":0,"byteOffset":8069640,"byteLength":24,"target":34963}],"accessors":[{"bufferView":0,"componentType":5126,"count":17631,"type":"VEC3","min":[-2.3396997674058495,0.008981529508672282,-2.1925047158634157],"max":[2.3843760020870794,21.74661507315203,2.2760533013114688]},{"bufferView":1,"componentType":5126,"count":17631,"type":"VEC3","min":[-0.9999982118606567,-0.9993221163749695,-0.9998661279678345],"max":[0.9999858736991882,0.9996436238288879,0.9998857378959656]},{"bufferView":2,"componentType":5126,"count":17631,"type":"VEC2"},{"bufferView":3,"componentType":5123,"count":36000,"type":"SCALAR","min":[0],"max":[17630]},{"bufferView":4,"componentType":5126,"count":125204,"type":"VEC3","min":[-2.4450526237487793,3.603001594543457,-2.3103203773498535],"max":[2.505455493927002,21.963499069213867,2.373781681060791]},{"bufferView":5,"componentType":5126,"count":125204,"type":"VEC3","min":[-0.9999125003814697,-0.9999773502349854,-0.9999915957450867],"max":[0.999984085559845,0.9999697804450989,0.9999993443489075]},{"bufferView":6,"componentType":5126,"count":125204,"type":"VEC2"},{"bufferView":7,"componentType":5125,"count":430161,"type":"SCALAR","min":[0],"max":[125203]},{"bufferView":8,"componentType":5126,"count":3625,"type":"VEC3","min":[-2.3396997674058495,0.032846224832926936,-2.154128329729581],"max":[2.244434142243043,21.74661507315203,2.2760533013114688]},{"bufferView":9,"componentType":5126,"count":3625,"type":"VEC3","min":[-0.9998504519462585,-0.9904918670654297,-0.9997597932815552],"max":[0.9999886155128479,0.9928312301635742,0.9991722702980042]},{"bufferView":10,"componentType":5126,"count":3625,"type":"VEC2"},{"bufferView":11,"componentType":5123,"count":9594,"type":"SCALAR","min":[0],"max":[3624]},{"bufferView":12,"componentType":5126,"count":40437,"type":"VEC3","min":[-2.3880810737609863,3.565309524536133,-2.295015335083008],"max":[2.5201048851013184,21.710269927978516,2.327376365661621]},{"bufferView":13,"componentType":5126,"count":40437,"type":"VEC3","min":[-0.9999125003814697,-0.9999647736549377,-0.9999915957450867],"max":[0.9995389580726624,0.9999697804450989,0.9999651908874512]},{"bufferView":14,"componentType":5126,"count":40437,"type":"VEC2"},{"bufferView":15,"componentType":5123,"count":138144,"type":"SCALAR","min":[0],"max":[40436]},{"bufferView":16,"componentType":5126,"count":16,"type":"VEC3","min":[-2.7830000000000004,0,-2.7830000000000004],"max":[2.7830000000000004,22.0,2.7830000000000004]},{"bufferView":17,"componentType":5126,"count":16,"type":"VEC3","min":[-1.0,0,-0.7071067811865475],"max":[-0.0,0,1.0]},{"bufferView":18,"componentType":5126,"count":16,"type":"VEC2"},{"bufferView":19,"componentType":5123,"count":24,"type":"SCALAR","min":[0],"max":[15]},{"bufferView":20,"componentType":5126,"count":8,"type":"VEC3","min":[-2.7830000000000004,0,-2.7830000000000004],"max":[2.7830000000000004,22.0,2.7830000000000004]},{"bufferView":21,"componentType":5126,"count":8,"type":"VEC3","min":[-1.0,0,6.123233995736766e-17],"max":[-0.0,0,1.0]},{"bufferView":22,"componentType":5126,"count":8,"type":"VEC2"},{"bufferView":23,"componentType":5123,"count":12,"type":"SCALAR","min":[0],"max":[7]}],"samplers":[{"magFilter":9729,"minFilter":9987,"wrapS":10497,"wrapT":10497}],"images":[{"uri":"textures/bark_broadleaf.jpg"},{"uri":"textures/foliage_broadleaf.jpg"},{"uri":"impostors/pyramidenpappel_a_autumn.png"}],"textures":[{"source":0,"sampler":0},{"source":1,"sampler":0},{"source":2,"sampler":0}],"materials":[{"name":"bark","pbrMetallicRoughness":{"baseColorFactor":[0.82,0.82,0.82,1.0],"baseColorTexture":{"index":0},"metallicFactor":0.0,"roughnessFactor":0.91},"doubleSided":false},{"name":"foliage","pbrMetallicRoughness":{"baseColorFactor":[0.82,0.58,0.12,1.0],"baseColorTexture":{"index":1},"metallicFactor":0.0,"roughnessFactor":0.78},"doubleSided":true},{"name":"whole_tree_impostor","pbrMetallicRoughness":{"baseColorFactor":[1,1,1,1],"baseColorTexture":{"index":2},"metallicFactor":0.0,"roughnessFactor":0.92},"doubleSided":true,"alphaMode":"MASK","alphaCutoff":0.18}]}