{"asset":{"version":"2.0","generator":"Connected Rails CC0 tree importer","copyright":"Mantissa and Poly Haven source models: CC0 1.0; optimisation: Connected Rails"},"scene":0,"scenes":[{"nodes":[0,1,2,3]}],"nodes":[{"name":"crown_LOD0","mesh":0},{"name":"crown_LOD1","mesh":1},{"name":"crown_LOD2","mesh":2},{"name":"crown_LOD3","mesh":3}],"meshes":[{"name":"crown_LOD0","primitives":[{"attributes":{"POSITION":0,"NORMAL":1,"TEXCOORD_0":2},"indices":3,"material":0},{"attributes":{"POSITION":4,"NORMAL":5,"TEXCOORD_0":6},"indices":7,"material":1}]},{"name":"crown_LOD1","primitives":[{"attributes":{"POSITION":8,"NORMAL":9,"TEXCOORD_0":10},"indices":11,"material":0},{"attributes":{"POSITION":12,"NORMAL":13,"TEXCOORD_0":14},"indices":15,"material":1}]},{"name":"crown_LOD2","primitives":[{"attributes":{"POSITION":16,"NORMAL":17,"TEXCOORD_0":18},"indices":19,"material":2}]},{"name":"crown_LOD3","primitives":[{"attributes":{"POSITION":20,"NORMAL":21,"TEXCOORD_0":22},"indices":23,"material":2}]}],"buffers":[{"uri":"rosskastanie_c.bin","byteLength":8122904}],"bufferViews":[{"buffer":0,"byteOffset":0,"byteLength":219888,"target":34962},{"buffer":0,"byteOffset":219888,"byteLength":219888,"target":34962},{"buffer":0,"byteOffset":439776,"byteLength":146592,"target":34962},{"buffer":0,"byteOffset":586368,"byteLength":71994,"target":34963},{"buffer":0,"byteOffset":658364,"byteLength":1506732,"target":34962},{"buffer":0,"byteOffset":2165096,"byteLength":1506732,"target":34962},{"buffer":0,"byteOffset":3671828,"byteLength":1004488,"target":34962},{"buffer":0,"byteOffset":4676316,"byteLength":1725132,"target":34963},{"buffer":0,"byteOffset":6401448,"byteLength":39504,"target":34962},{"buffer":0,"byteOffset":6440952,"byteLength":39504,"target":34962},{"buffer":0,"byteOffset":6480456,"byteLength":26336,"target":34962},{"buffer":0,"byteOffset":6506792,"byteLength":19200,"target":34963},{"buffer":0,"byteOffset":6525992,"byteLength":493044,"target":34962},{"buffer":0,"byteOffset":7019036,"byteLength":493044,"target":34962},{"buffer":0,"byteOffset":7512080,"byteLength":328696,"target":34962},{"buffer":0,"byteOffset":7840776,"byteLength":281286,"target":34963},{"buffer":0,"byteOffset":8122064,"byteLength":192,"target":34962},{"buffer":0,"byteOffset":8122256,"byteLength":192,"target":34962},{"buffer":0,"byteOffset":8122448,"byteLength":128,"target":34962},{"buffer":0,"byteOffset":8122576,"byteLength":48,"target":34963},{"buffer":0,"byteOffset":8122624,"byteLength":96,"target":34962},{"buffer":0,"byteOffset":8122720,"byteLength":96,"target":34962},{"buffer":0,"byteOffset":8122816,"byteLength":64,"target":34962},{"buffer":0,"byteOffset":8122880,"byteLength":24,"target":34963}],"accessors":[{"bufferView":0,"componentType":5126,"count":18324,"type":"VEC3","min":[-10.042211839195632,-0.0007785833596665173,-10.340255508570802],"max":[10.369889167507328,25.644945902717293,10.351201133714508]},{"bufferView":1,"componentType":5126,"count":18324,"type":"VEC3","min":[-0.9999709129333496,-0.9998278617858887,-0.999951958656311],"max":[0.9997543096542358,0.9998867511749268,0.9998975396156311]},{"bufferView":2,"componentType":5126,"count":18324,"type":"VEC2"},{"bufferView":3,"componentType":5123,"count":35997,"type":"SCALAR","min":[0],"max":[18323]},{"bufferView":4,"componentType":5126,"count":125561,"type":"VEC3","min":[-10.619148254394531,8.85651683807373,-10.629240989685059],"max":[10.866540908813477,25.893842697143555,10.733543395996094]},{"bufferView":5,"componentType":5126,"count":125561,"type":"VEC3","min":[-0.9999879002571106,-0.9999918937683105,-0.9999882578849792],"max":[0.9999986886978149,0.9999997019767761,0.9999333620071411]},{"bufferView":6,"componentType":5126,"count":125561,"type":"VEC2"},{"bufferView":7,"componentType":5125,"count":431283,"type":"SCALAR","min":[0],"max":[125560]},{"bufferView":8,"componentType":5126,"count":3292,"type":"VEC3","min":[-9.352277288604679,0.029251811605107148,-9.16016555125019],"max":[9.91835127007304,25.106306017716772,9.820328938977045]},{"bufferView":9,"componentType":5126,"count":3292,"type":"VEC3","min":[-0.9989159107208252,-0.9998278617858887,-0.9993099570274353],"max":[0.9978514313697815,0.9998867511749268,0.9985663294792175]},{"bufferView":10,"componentType":5126,"count":3292,"type":"VEC2"},{"bufferView":11,"componentType":5123,"count":9600,"type":"SCALAR","min":[0],"max":[3291]},{"bufferView":12,"componentType":5126,"count":41087,"type":"VEC3","min":[-10.656180381774902,8.789087295532227,-10.68359375],"max":[10.912178993225098,25.865575790405273,10.473824501037598]},{"bufferView":13,"componentType":5126,"count":41087,"type":"VEC3","min":[-0.999804675579071,-0.9999918937683105,-0.9999882578849792],"max":[0.9999986886978149,0.9999899864196777,0.9998611211776733]},{"bufferView":14,"componentType":5126,"count":41087,"type":"VEC2"},{"bufferView":15,"componentType":5123,"count":140643,"type":"SCALAR","min":[0],"max":[41086]},{"bufferView":16,"componentType":5126,"count":16,"type":"VEC3","min":[-12.155,0,-12.155],"max":[12.155,26.0,12.155]},{"bufferView":17,"componentType":5126,"count":16,"type":"VEC3","min":[-1.0,0,-0.7071067811865475],"max":[-0.0,0,1.0]},{"bufferView":18,"componentType":5126,"count":16,"type":"VEC2"},{"bufferView":19,"componentType":5123,"count":24,"type":"SCALAR","min":[0],"max":[15]},{"bufferView":20,"componentType":5126,"count":8,"type":"VEC3","min":[-12.155,0,-12.155],"max":[12.155,26.0,12.155]},{"bufferView":21,"componentType":5126,"count":8,"type":"VEC3","min":[-1.0,0,6.123233995736766e-17],"max":[-0.0,0,1.0]},{"bufferView":22,"componentType":5126,"count":8,"type":"VEC2"},{"bufferView":23,"componentType":5123,"count":12,"type":"SCALAR","min":[0],"max":[7]}],"samplers":[{"magFilter":9729,"minFilter":9987,"wrapS":10497,"wrapT":10497}],"images":[{"uri":"textures/bark_broadleaf.jpg"},{"uri":"textures/foliage_broadleaf.jpg"},{"uri":"impostors/rosskastanie_c_autumn.png"}],"textures":[{"source":0,"sampler":0},{"source":1,"sampler":0},{"source":2,"sampler":0}],"materials":[{"name":"bark","pbrMetallicRoughness":{"baseColorFactor":[0.82,0.82,0.82,1.0],"baseColorTexture":{"index":0},"metallicFactor":0.0,"roughnessFactor":0.91},"doubleSided":false},{"name":"foliage","pbrMetallicRoughness":{"baseColorFactor":[0.71,0.34,0.06,1.0],"baseColorTexture":{"index":1},"metallicFactor":0.0,"roughnessFactor":0.78},"doubleSided":true},{"name":"whole_tree_impostor","pbrMetallicRoughness":{"baseColorFactor":[1,1,1,1],"baseColorTexture":{"index":2},"metallicFactor":0.0,"roughnessFactor":0.92},"doubleSided":true,"alphaMode":"MASK","alphaCutoff":0.18}]}