{"asset":{"version":"2.0","generator":"Connected Rails CC0 tree importer","copyright":"Mantissa and Poly Haven source models: CC0 1.0; optimisation: Connected Rails"},"scene":0,"scenes":[{"nodes":[0,1,2,3]}],"nodes":[{"name":"crown_LOD0","mesh":0},{"name":"crown_LOD1","mesh":1},{"name":"crown_LOD2","mesh":2},{"name":"crown_LOD3","mesh":3}],"meshes":[{"name":"crown_LOD0","primitives":[{"attributes":{"POSITION":0,"NORMAL":1,"TEXCOORD_0":2},"indices":3,"material":0},{"attributes":{"POSITION":4,"NORMAL":5,"TEXCOORD_0":6},"indices":7,"material":1}]},{"name":"crown_LOD1","primitives":[{"attributes":{"POSITION":8,"NORMAL":9,"TEXCOORD_0":10},"indices":11,"material":0},{"attributes":{"POSITION":12,"NORMAL":13,"TEXCOORD_0":14},"indices":15,"material":1}]},{"name":"crown_LOD2","primitives":[{"attributes":{"POSITION":16,"NORMAL":17,"TEXCOORD_0":18},"indices":19,"material":2}]},{"name":"crown_LOD3","primitives":[{"attributes":{"POSITION":20,"NORMAL":21,"TEXCOORD_0":22},"indices":23,"material":2}]}],"buffers":[{"uri":"rosskastanie_b.bin","byteLength":8122600}],"bufferViews":[{"buffer":0,"byteOffset":0,"byteLength":221892,"target":34962},{"buffer":0,"byteOffset":221892,"byteLength":221892,"target":34962},{"buffer":0,"byteOffset":443784,"byteLength":147928,"target":34962},{"buffer":0,"byteOffset":591712,"byteLength":72000,"target":34963},{"buffer":0,"byteOffset":663712,"byteLength":1504368,"target":34962},{"buffer":0,"byteOffset":2168080,"byteLength":1504368,"target":34962},{"buffer":0,"byteOffset":3672448,"byteLength":1002912,"target":34962},{"buffer":0,"byteOffset":4675360,"byteLength":1719900,"target":34963},{"buffer":0,"byteOffset":6395260,"byteLength":43308,"target":34962},{"buffer":0,"byteOffset":6438568,"byteLength":43308,"target":34962},{"buffer":0,"byteOffset":6481876,"byteLength":28872,"target":34962},{"buffer":0,"byteOffset":6510748,"byteLength":19200,"target":34963},{"buffer":0,"byteOffset":6529948,"byteLength":491856,"target":34962},{"buffer":0,"byteOffset":7021804,"byteLength":491856,"target":34962},{"buffer":0,"byteOffset":7513660,"byteLength":327904,"target":34962},{"buffer":0,"byteOffset":7841564,"byteLength":280194,"target":34963},{"buffer":0,"byteOffset":8121760,"byteLength":192,"target":34962},{"buffer":0,"byteOffset":8121952,"byteLength":192,"target":34962},{"buffer":0,"byteOffset":8122144,"byteLength":128,"target":34962},{"buffer":0,"byteOffset":8122272,"byteLength":48,"target":34963},{"buffer":0,"byteOffset":8122320,"byteLength":96,"target":34962},{"buffer":0,"byteOffset":8122416,"byteLength":96,"target":34962},{"buffer":0,"byteOffset":8122512,"byteLength":64,"target":34962},{"buffer":0,"byteOffset":8122576,"byteLength":24,"target":34963}],"accessors":[{"bufferView":0,"componentType":5126,"count":18491,"type":"VEC3","min":[-7.513105522853518,0.013242566856476793,-8.418821873468028],"max":[7.506738516808706,20.778362080787613,8.44807159670197]},{"bufferView":1,"componentType":5126,"count":18491,"type":"VEC3","min":[-0.999955415725708,-0.9999966621398926,-0.9998303651809692],"max":[0.9998025894165039,0.9998781681060791,0.9996868968009949]},{"bufferView":2,"componentType":5126,"count":18491,"type":"VEC2"},{"bufferView":3,"componentType":5123,"count":36000,"type":"SCALAR","min":[0],"max":[18490]},{"bufferView":4,"componentType":5126,"count":125364,"type":"VEC3","min":[-7.821291446685791,5.07982873916626,-8.468406677246094],"max":[7.96112585067749,20.755170822143555,8.891237258911133]},{"bufferView":5,"componentType":5126,"count":125364,"type":"VEC3","min":[-0.9999725222587585,-0.9999792575836182,-0.9999344348907471],"max":[0.9999480843544006,0.9999926686286926,0.9999809861183167]},{"bufferView":6,"componentType":5126,"count":125364,"type":"VEC2"},{"bufferView":7,"componentType":5125,"count":429975,"type":"SCALAR","min":[0],"max":[125363]},{"bufferView":8,"componentType":5126,"count":3609,"type":"VEC3","min":[-7.513105522853518,0.016467855557875086,-7.78947037081644],"max":[7.336007983137493,20.778362080787613,7.869334125004525]},{"bufferView":9,"componentType":5126,"count":3609,"type":"VEC3","min":[-0.999955415725708,-0.9991692900657654,-0.9988672137260437],"max":[0.999904453754425,0.9998393058776855,0.9995737075805664]},{"bufferView":10,"componentType":5126,"count":3609,"type":"VEC2"},{"bufferView":11,"componentType":5123,"count":9600,"type":"SCALAR","min":[0],"max":[3608]},{"bufferView":12,"componentType":5126,"count":40988,"type":"VEC3","min":[-7.881777763366699,5.023662090301514,-8.524373054504395],"max":[8.010123252868652,20.789512634277344,8.26082992553711]},{"bufferView":13,"componentType":5126,"count":40988,"type":"VEC3","min":[-0.9999656677246094,-0.9999792575836182,-0.9998558163642883],"max":[0.9999144673347473,0.9999646544456482,0.9999809861183167]},{"bufferView":14,"componentType":5126,"count":40988,"type":"VEC2"},{"bufferView":15,"componentType":5123,"count":140097,"type":"SCALAR","min":[0],"max":[40987]},{"bufferView":16,"componentType":5126,"count":16,"type":"VEC3","min":[-9.817499999999999,0,-9.817499999999999],"max":[9.817499999999999,21.0,9.817499999999999]},{"bufferView":17,"componentType":5126,"count":16,"type":"VEC3","min":[-1.0,0,-0.7071067811865475],"max":[-0.0,0,1.0]},{"bufferView":18,"componentType":5126,"count":16,"type":"VEC2"},{"bufferView":19,"componentType":5123,"count":24,"type":"SCALAR","min":[0],"max":[15]},{"bufferView":20,"componentType":5126,"count":8,"type":"VEC3","min":[-9.817499999999999,0,-9.817499999999999],"max":[9.817499999999999,21.0,9.817499999999999]},{"bufferView":21,"componentType":5126,"count":8,"type":"VEC3","min":[-1.0,0,6.123233995736766e-17],"max":[-0.0,0,1.0]},{"bufferView":22,"componentType":5126,"count":8,"type":"VEC2"},{"bufferView":23,"componentType":5123,"count":12,"type":"SCALAR","min":[0],"max":[7]}],"samplers":[{"magFilter":9729,"minFilter":9987,"wrapS":10497,"wrapT":10497}],"images":[{"uri":"textures/bark_broadleaf.jpg"},{"uri":"textures/foliage_broadleaf.jpg"},{"uri":"impostors/rosskastanie_b_summer.png"}],"textures":[{"source":0,"sampler":0},{"source":1,"sampler":0},{"source":2,"sampler":0}],"materials":[{"name":"bark","pbrMetallicRoughness":{"baseColorFactor":[0.82,0.82,0.82,1.0],"baseColorTexture":{"index":0},"metallicFactor":0.0,"roughnessFactor":0.91},"doubleSided":false},{"name":"foliage","pbrMetallicRoughness":{"baseColorFactor":[0.6292156862745099,0.8646078431372549,0.5692156862745098,1.0],"baseColorTexture":{"index":1},"metallicFactor":0.0,"roughnessFactor":0.78},"doubleSided":true},{"name":"whole_tree_impostor","pbrMetallicRoughness":{"baseColorFactor":[1,1,1,1],"baseColorTexture":{"index":2},"metallicFactor":0.0,"roughnessFactor":0.92},"doubleSided":true,"alphaMode":"MASK","alphaCutoff":0.18}]}