{"asset":{"version":"2.0","generator":"Connected Rails CC0 tree importer","copyright":"Mantissa and Poly Haven source models: CC0 1.0; optimisation: Connected Rails"},"scene":0,"scenes":[{"nodes":[0,1,2,3]}],"nodes":[{"name":"crown_LOD0","mesh":0},{"name":"crown_LOD1","mesh":1},{"name":"crown_LOD2","mesh":2},{"name":"crown_LOD3","mesh":3}],"meshes":[{"name":"crown_LOD0","primitives":[{"attributes":{"POSITION":0,"NORMAL":1,"TEXCOORD_0":2},"indices":3,"material":0},{"attributes":{"POSITION":4,"NORMAL":5,"TEXCOORD_0":6},"indices":7,"material":1}]},{"name":"crown_LOD1","primitives":[{"attributes":{"POSITION":8,"NORMAL":9,"TEXCOORD_0":10},"indices":11,"material":0},{"attributes":{"POSITION":12,"NORMAL":13,"TEXCOORD_0":14},"indices":15,"material":1}]},{"name":"crown_LOD2","primitives":[{"attributes":{"POSITION":16,"NORMAL":17,"TEXCOORD_0":18},"indices":19,"material":2}]},{"name":"crown_LOD3","primitives":[{"attributes":{"POSITION":20,"NORMAL":21,"TEXCOORD_0":22},"indices":23,"material":2}]}],"buffers":[{"uri":"rotbuche_a.bin","byteLength":8152076}],"bufferViews":[{"buffer":0,"byteOffset":0,"byteLength":218820,"target":34962},{"buffer":0,"byteOffset":218820,"byteLength":218820,"target":34962},{"buffer":0,"byteOffset":437640,"byteLength":145880,"target":34962},{"buffer":0,"byteOffset":583520,"byteLength":72000,"target":34963},{"buffer":0,"byteOffset":655520,"byteLength":1506900,"target":34962},{"buffer":0,"byteOffset":2162420,"byteLength":1506900,"target":34962},{"buffer":0,"byteOffset":3669320,"byteLength":1004600,"target":34962},{"buffer":0,"byteOffset":4673920,"byteLength":1724004,"target":34963},{"buffer":0,"byteOffset":6397924,"byteLength":50028,"target":34962},{"buffer":0,"byteOffset":6447952,"byteLength":50028,"target":34962},{"buffer":0,"byteOffset":6497980,"byteLength":33352,"target":34962},{"buffer":0,"byteOffset":6531332,"byteLength":19194,"target":34963},{"buffer":0,"byteOffset":6550528,"byteLength":494484,"target":34962},{"buffer":0,"byteOffset":7045012,"byteLength":494484,"target":34962},{"buffer":0,"byteOffset":7539496,"byteLength":329656,"target":34962},{"buffer":0,"byteOffset":7869152,"byteLength":282084,"target":34963},{"buffer":0,"byteOffset":8151236,"byteLength":192,"target":34962},{"buffer":0,"byteOffset":8151428,"byteLength":192,"target":34962},{"buffer":0,"byteOffset":8151620,"byteLength":128,"target":34962},{"buffer":0,"byteOffset":8151748,"byteLength":48,"target":34963},{"buffer":0,"byteOffset":8151796,"byteLength":96,"target":34962},{"buffer":0,"byteOffset":8151892,"byteLength":96,"target":34962},{"buffer":0,"byteOffset":8151988,"byteLength":64,"target":34962},{"buffer":0,"byteOffset":8152052,"byteLength":24,"target":34963}],"accessors":[{"bufferView":0,"componentType":5126,"count":18235,"type":"VEC3","min":[-8.155250092470318,-0.0008739765514552427,-7.822338501376831],"max":[8.078938554521663,23.675876357186304,8.056191765073573]},{"bufferView":1,"componentType":5126,"count":18235,"type":"VEC3","min":[-0.9998331665992737,-0.9995962381362915,-0.9999970197677612],"max":[0.9997339248657227,0.9998507499694824,0.9997483491897583]},{"bufferView":2,"componentType":5126,"count":18235,"type":"VEC2"},{"bufferView":3,"componentType":5123,"count":36000,"type":"SCALAR","min":[0],"max":[18234]},{"bufferView":4,"componentType":5126,"count":125575,"type":"VEC3","min":[-8.597963333129883,7.623391151428223,-8.520248413085938],"max":[8.465545654296875,23.706295013427734,8.105915069580078]},{"bufferView":5,"componentType":5126,"count":125575,"type":"VEC3","min":[-0.9999209642410278,-0.9999942183494568,-0.9999717473983765],"max":[0.9999182224273682,0.999994158744812,0.9999886155128479]},{"bufferView":6,"componentType":5126,"count":125575,"type":"VEC2"},{"bufferView":7,"componentType":5125,"count":431001,"type":"SCALAR","min":[0],"max":[125574]},{"bufferView":8,"componentType":5126,"count":4169,"type":"VEC3","min":[-7.451984278127833,-0.005100542619582459,-7.527677333494749],"max":[7.546146425522368,23.316704464139068,7.433166903447464]},{"bufferView":9,"componentType":5126,"count":4169,"type":"VEC3","min":[-0.9995617270469666,-0.9995962381362915,-0.9999444484710693],"max":[0.9993626475334167,0.9985353350639343,0.9997483491897583]},{"bufferView":10,"componentType":5126,"count":4169,"type":"VEC2"},{"bufferView":11,"componentType":5123,"count":9597,"type":"SCALAR","min":[0],"max":[4168]},{"bufferView":12,"componentType":5126,"count":41207,"type":"VEC3","min":[-8.248787879943848,7.552251815795898,-8.478872299194336],"max":[8.336783409118652,23.723356246948242,7.959536075592041]},{"bufferView":13,"componentType":5126,"count":41207,"type":"VEC3","min":[-0.9999209642410278,-0.999967098236084,-0.9999717473983765],"max":[0.9998665452003479,0.999994158744812,0.9999886155128479]},{"bufferView":14,"componentType":5126,"count":41207,"type":"VEC2"},{"bufferView":15,"componentType":5123,"count":141042,"type":"SCALAR","min":[0],"max":[41206]},{"bufferView":16,"componentType":5126,"count":16,"type":"VEC3","min":[-9.504000000000001,0,-9.504000000000001],"max":[9.504000000000001,24.0,9.504000000000001]},{"bufferView":17,"componentType":5126,"count":16,"type":"VEC3","min":[-1.0,0,-0.7071067811865475],"max":[-0.0,0,1.0]},{"bufferView":18,"componentType":5126,"count":16,"type":"VEC2"},{"bufferView":19,"componentType":5123,"count":24,"type":"SCALAR","min":[0],"max":[15]},{"bufferView":20,"componentType":5126,"count":8,"type":"VEC3","min":[-9.504000000000001,0,-9.504000000000001],"max":[9.504000000000001,24.0,9.504000000000001]},{"bufferView":21,"componentType":5126,"count":8,"type":"VEC3","min":[-1.0,0,6.123233995736766e-17],"max":[-0.0,0,1.0]},{"bufferView":22,"componentType":5126,"count":8,"type":"VEC2"},{"bufferView":23,"componentType":5123,"count":12,"type":"SCALAR","min":[0],"max":[7]}],"samplers":[{"magFilter":9729,"minFilter":9987,"wrapS":10497,"wrapT":10497}],"images":[{"uri":"textures/bark_broadleaf.jpg"},{"uri":"textures/foliage_broadleaf.jpg"},{"uri":"impostors/rotbuche_a_summer.png"}],"textures":[{"source":0,"sampler":0},{"source":1,"sampler":0},{"source":2,"sampler":0}],"materials":[{"name":"bark","pbrMetallicRoughness":{"baseColorFactor":[0.82,0.82,0.82,1.0],"baseColorTexture":{"index":0},"metallicFactor":0.0,"roughnessFactor":0.91},"doubleSided":false},{"name":"foliage","pbrMetallicRoughness":{"baseColorFactor":[0.6366666666666667,0.8683333333333333,0.5766666666666667,1.0],"baseColorTexture":{"index":1},"metallicFactor":0.0,"roughnessFactor":0.78},"doubleSided":true},{"name":"whole_tree_impostor","pbrMetallicRoughness":{"baseColorFactor":[1,1,1,1],"baseColorTexture":{"index":2},"metallicFactor":0.0,"roughnessFactor":0.92},"doubleSided":true,"alphaMode":"MASK","alphaCutoff":0.18}]}