{"asset":{"version":"2.0","generator":"Connected Rails CC0 tree importer","copyright":"Mantissa and Poly Haven source models: CC0 1.0; optimisation: Connected Rails"},"scene":0,"scenes":[{"nodes":[0,1,2,3]}],"nodes":[{"name":"crown_LOD0","mesh":0},{"name":"crown_LOD1","mesh":1},{"name":"crown_LOD2","mesh":2},{"name":"crown_LOD3","mesh":3}],"meshes":[{"name":"crown_LOD0","primitives":[{"attributes":{"POSITION":0,"NORMAL":1,"TEXCOORD_0":2},"indices":3,"material":0},{"attributes":{"POSITION":4,"NORMAL":5,"TEXCOORD_0":6},"indices":7,"material":1}]},{"name":"crown_LOD1","primitives":[{"attributes":{"POSITION":8,"NORMAL":9,"TEXCOORD_0":10},"indices":11,"material":0},{"attributes":{"POSITION":12,"NORMAL":13,"TEXCOORD_0":14},"indices":15,"material":1}]},{"name":"crown_LOD2","primitives":[{"attributes":{"POSITION":16,"NORMAL":17,"TEXCOORD_0":18},"indices":19,"material":2}]},{"name":"crown_LOD3","primitives":[{"attributes":{"POSITION":20,"NORMAL":21,"TEXCOORD_0":22},"indices":23,"material":2}]}],"buffers":[{"uri":"rotbuche_b.bin","byteLength":8122600}],"bufferViews":[{"buffer":0,"byteOffset":0,"byteLength":221892,"target":34962},{"buffer":0,"byteOffset":221892,"byteLength":221892,"target":34962},{"buffer":0,"byteOffset":443784,"byteLength":147928,"target":34962},{"buffer":0,"byteOffset":591712,"byteLength":72000,"target":34963},{"buffer":0,"byteOffset":663712,"byteLength":1504368,"target":34962},{"buffer":0,"byteOffset":2168080,"byteLength":1504368,"target":34962},{"buffer":0,"byteOffset":3672448,"byteLength":1002912,"target":34962},{"buffer":0,"byteOffset":4675360,"byteLength":1719900,"target":34963},{"buffer":0,"byteOffset":6395260,"byteLength":43308,"target":34962},{"buffer":0,"byteOffset":6438568,"byteLength":43308,"target":34962},{"buffer":0,"byteOffset":6481876,"byteLength":28872,"target":34962},{"buffer":0,"byteOffset":6510748,"byteLength":19200,"target":34963},{"buffer":0,"byteOffset":6529948,"byteLength":491856,"target":34962},{"buffer":0,"byteOffset":7021804,"byteLength":491856,"target":34962},{"buffer":0,"byteOffset":7513660,"byteLength":327904,"target":34962},{"buffer":0,"byteOffset":7841564,"byteLength":280194,"target":34963},{"buffer":0,"byteOffset":8121760,"byteLength":192,"target":34962},{"buffer":0,"byteOffset":8121952,"byteLength":192,"target":34962},{"buffer":0,"byteOffset":8122144,"byteLength":128,"target":34962},{"buffer":0,"byteOffset":8122272,"byteLength":48,"target":34963},{"buffer":0,"byteOffset":8122320,"byteLength":96,"target":34962},{"buffer":0,"byteOffset":8122416,"byteLength":96,"target":34962},{"buffer":0,"byteOffset":8122512,"byteLength":64,"target":34962},{"buffer":0,"byteOffset":8122576,"byteLength":24,"target":34963}],"accessors":[{"bufferView":0,"componentType":5126,"count":18491,"type":"VEC3","min":[-8.788439401522773,0.018287354230372716,-9.847899199888651],"max":[8.780991609577915,28.693928587754325,9.882114002192557]},{"bufferView":1,"componentType":5126,"count":18491,"type":"VEC3","min":[-0.9999558329582214,-0.9999954104423523,-0.9998782873153687],"max":[0.9998477697372437,0.9998301863670349,0.999755322933197]},{"bufferView":2,"componentType":5126,"count":18491,"type":"VEC2"},{"bufferView":3,"componentType":5123,"count":36000,"type":"SCALAR","min":[0],"max":[18490]},{"bufferView":4,"componentType":5126,"count":125364,"type":"VEC3","min":[-9.130270957946777,7.053905010223389,-9.890523910522461],"max":[9.297388076782227,28.63811492919922,10.385089874267578]},{"bufferView":5,"componentType":5126,"count":125364,"type":"VEC3","min":[-0.9999725222587585,-0.9999792575836182,-0.9999344348907471],"max":[0.9999480843544006,0.9999926686286926,0.9999809861183167]},{"bufferView":6,"componentType":5126,"count":125364,"type":"VEC2"},{"bufferView":7,"componentType":5125,"count":429975,"type":"SCALAR","min":[0],"max":[125363]},{"bufferView":8,"componentType":5126,"count":3609,"type":"VEC3","min":[-8.788439401522773,0.0227413243418275,-9.11171660182898],"max":[8.581279926493606,28.693928587754325,9.205137060509497]},{"bufferView":9,"componentType":5126,"count":3609,"type":"VEC3","min":[-0.9999558329582214,-0.9988428354263306,-0.998867928981781],"max":[0.9999220967292786,0.9997760653495789,0.9996243715286255]},{"bufferView":10,"componentType":5126,"count":3609,"type":"VEC2"},{"bufferView":11,"componentType":5123,"count":9600,"type":"SCALAR","min":[0],"max":[3608]},{"bufferView":12,"componentType":5126,"count":40988,"type":"VEC3","min":[-9.190756797790527,6.997738361358643,-9.943706512451172],"max":[9.34638500213623,28.672456741333008,9.647268295288086]},{"bufferView":13,"componentType":5126,"count":40988,"type":"VEC3","min":[-0.9999656677246094,-0.9999792575836182,-0.9998558163642883],"max":[0.9999144673347473,0.9999646544456482,0.9999809861183167]},{"bufferView":14,"componentType":5126,"count":40988,"type":"VEC2"},{"bufferView":15,"componentType":5123,"count":140097,"type":"SCALAR","min":[0],"max":[40987]},{"bufferView":16,"componentType":5126,"count":16,"type":"VEC3","min":[-11.484,0,-11.484],"max":[11.484,29.0,11.484]},{"bufferView":17,"componentType":5126,"count":16,"type":"VEC3","min":[-1.0,0,-0.7071067811865475],"max":[-0.0,0,1.0]},{"bufferView":18,"componentType":5126,"count":16,"type":"VEC2"},{"bufferView":19,"componentType":5123,"count":24,"type":"SCALAR","min":[0],"max":[15]},{"bufferView":20,"componentType":5126,"count":8,"type":"VEC3","min":[-11.484,0,-11.484],"max":[11.484,29.0,11.484]},{"bufferView":21,"componentType":5126,"count":8,"type":"VEC3","min":[-1.0,0,6.123233995736766e-17],"max":[-0.0,0,1.0]},{"bufferView":22,"componentType":5126,"count":8,"type":"VEC2"},{"bufferView":23,"componentType":5123,"count":12,"type":"SCALAR","min":[0],"max":[7]}],"samplers":[{"magFilter":9729,"minFilter":9987,"wrapS":10497,"wrapT":10497}],"images":[{"uri":"textures/bark_broadleaf.jpg"},{"uri":"textures/foliage_broadleaf.jpg"},{"uri":"impostors/rotbuche_b_summer.png"}],"textures":[{"source":0,"sampler":0},{"source":1,"sampler":0},{"source":2,"sampler":0}],"materials":[{"name":"bark","pbrMetallicRoughness":{"baseColorFactor":[0.82,0.82,0.82,1.0],"baseColorTexture":{"index":0},"metallicFactor":0.0,"roughnessFactor":0.91},"doubleSided":false},{"name":"foliage","pbrMetallicRoughness":{"baseColorFactor":[0.6366666666666667,0.8683333333333333,0.5766666666666667,1.0],"baseColorTexture":{"index":1},"metallicFactor":0.0,"roughnessFactor":0.78},"doubleSided":true},{"name":"whole_tree_impostor","pbrMetallicRoughness":{"baseColorFactor":[1,1,1,1],"baseColorTexture":{"index":2},"metallicFactor":0.0,"roughnessFactor":0.92},"doubleSided":true,"alphaMode":"MASK","alphaCutoff":0.18}]}