{
 "asset": {
  "version": "2.0",
  "generator": "tools/trees/build_trees.mjs (Connected Rails, geometry by ez-tree)",
  "copyright": "Connected Rails contributors, EUPL-1.2. Generated with ez-tree (MIT, Daniel Greenheck)."
 },
 "scene": 0,
 "scenes": [
  {
   "name": "rotbuche_a",
   "nodes": [
    0,
    1,
    2,
    3
   ]
  }
 ],
 "nodes": [
  {
   "name": "crown_LOD0",
   "mesh": 0
  },
  {
   "name": "crown_LOD1",
   "mesh": 1
  },
  {
   "name": "crown_LOD2",
   "mesh": 2
  },
  {
   "name": "crown_LOD3",
   "mesh": 3
  }
 ],
 "meshes": [
  {
   "name": "crown_LOD0",
   "primitives": [
    {
     "attributes": {
      "POSITION": 0,
      "NORMAL": 1,
      "TEXCOORD_0": 2
     },
     "indices": 3,
     "material": 0
    }
   ]
  },
  {
   "name": "crown_LOD1",
   "primitives": [
    {
     "attributes": {
      "POSITION": 4,
      "NORMAL": 5,
      "TEXCOORD_0": 6
     },
     "indices": 7,
     "material": 0
    }
   ]
  },
  {
   "name": "crown_LOD2",
   "primitives": [
    {
     "attributes": {
      "POSITION": 8,
      "NORMAL": 9,
      "TEXCOORD_0": 10
     },
     "indices": 11,
     "material": 0
    }
   ]
  },
  {
   "name": "crown_LOD3",
   "primitives": [
    {
     "attributes": {
      "POSITION": 12,
      "NORMAL": 13,
      "TEXCOORD_0": 14
     },
     "indices": 15,
     "material": 0
    }
   ]
  }
 ],
 "materials": [
  {
   "name": "rotbuche_autumn",
   "pbrMetallicRoughness": {
    "baseColorTexture": {
     "index": 0
    },
    "baseColorFactor": [
     1,
     1,
     1,
     1
    ],
    "metallicFactor": 0,
    "roughnessFactor": 0.9
   },
   "alphaMode": "MASK",
   "alphaCutoff": 0.5,
   "doubleSided": true
  }
 ],
 "textures": [
  {
   "source": 0,
   "sampler": 0
  }
 ],
 "images": [
  {
   "uri": "rotbuche_autumn.png"
  }
 ],
 "samplers": [
  {
   "magFilter": 9729,
   "minFilter": 9987,
   "wrapS": 33071,
   "wrapT": 33071
  }
 ],
 "accessors": [
  {
   "bufferView": 0,
   "componentType": 5126,
   "count": 9516,
   "type": "VEC3",
   "min": [
    -9.240704786628465,
    0,
    -11.072308179874643
   ],
   "max": [
    8.018754862581412,
    24,
    7.111778165238446
   ]
  },
  {
   "bufferView": 1,
   "componentType": 5126,
   "count": 9516,
   "type": "VEC3"
  },
  {
   "bufferView": 2,
   "componentType": 5126,
   "count": 9516,
   "type": "VEC2"
  },
  {
   "bufferView": 3,
   "componentType": 5123,
   "count": 21738,
   "type": "SCALAR"
  },
  {
   "bufferView": 4,
   "componentType": 5126,
   "count": 2106,
   "type": "VEC3",
   "min": [
    -9.930649269727306,
    0,
    -11.16398175616049
   ],
   "max": [
    8.03692158458147,
    23.531657074656003,
    7.299962209405788
   ]
  },
  {
   "bufferView": 5,
   "componentType": 5126,
   "count": 2106,
   "type": "VEC3"
  },
  {
   "bufferView": 6,
   "componentType": 5126,
   "count": 2106,
   "type": "VEC2"
  },
  {
   "bufferView": 7,
   "componentType": 5123,
   "count": 4302,
   "type": "SCALAR"
  },
  {
   "bufferView": 8,
   "componentType": 5126,
   "count": 1040,
   "type": "VEC3",
   "min": [
    -10.250291002579852,
    0,
    -11.59530033811474
   ],
   "max": [
    9.294181158772957,
    23.801858132169393,
    7.626411573478384
   ]
  },
  {
   "bufferView": 9,
   "componentType": 5126,
   "count": 1040,
   "type": "VEC3"
  },
  {
   "bufferView": 10,
   "componentType": 5126,
   "count": 1040,
   "type": "VEC2"
  },
  {
   "bufferView": 11,
   "componentType": 5123,
   "count": 1638,
   "type": "SCALAR"
  },
  {
   "bufferView": 12,
   "componentType": 5126,
   "count": 8,
   "type": "VEC3",
   "min": [
    -11.072308179874643,
    0,
    -11.072308179874643
   ],
   "max": [
    11.072308179874643,
    24,
    11.072308179874643
   ]
  },
  {
   "bufferView": 13,
   "componentType": 5126,
   "count": 8,
   "type": "VEC3"
  },
  {
   "bufferView": 14,
   "componentType": 5126,
   "count": 8,
   "type": "VEC2"
  },
  {
   "bufferView": 15,
   "componentType": 5123,
   "count": 12,
   "type": "SCALAR"
  }
 ],
 "bufferViews": [
  {
   "buffer": 0,
   "byteOffset": 0,
   "byteLength": 114192,
   "target": 34962,
   "byteStride": 12
  },
  {
   "buffer": 0,
   "byteOffset": 114192,
   "byteLength": 114192,
   "target": 34962,
   "byteStride": 12
  },
  {
   "buffer": 0,
   "byteOffset": 228384,
   "byteLength": 76128,
   "target": 34962,
   "byteStride": 8
  },
  {
   "buffer": 0,
   "byteOffset": 304512,
   "byteLength": 43476,
   "target": 34963
  },
  {
   "buffer": 0,
   "byteOffset": 347988,
   "byteLength": 25272,
   "target": 34962,
   "byteStride": 12
  },
  {
   "buffer": 0,
   "byteOffset": 373260,
   "byteLength": 25272,
   "target": 34962,
   "byteStride": 12
  },
  {
   "buffer": 0,
   "byteOffset": 398532,
   "byteLength": 16848,
   "target": 34962,
   "byteStride": 8
  },
  {
   "buffer": 0,
   "byteOffset": 415380,
   "byteLength": 8604,
   "target": 34963
  },
  {
   "buffer": 0,
   "byteOffset": 423984,
   "byteLength": 12480,
   "target": 34962,
   "byteStride": 12
  },
  {
   "buffer": 0,
   "byteOffset": 436464,
   "byteLength": 12480,
   "target": 34962,
   "byteStride": 12
  },
  {
   "buffer": 0,
   "byteOffset": 448944,
   "byteLength": 8320,
   "target": 34962,
   "byteStride": 8
  },
  {
   "buffer": 0,
   "byteOffset": 457264,
   "byteLength": 3276,
   "target": 34963
  },
  {
   "buffer": 0,
   "byteOffset": 460540,
   "byteLength": 96,
   "target": 34962,
   "byteStride": 12
  },
  {
   "buffer": 0,
   "byteOffset": 460636,
   "byteLength": 96,
   "target": 34962,
   "byteStride": 12
  },
  {
   "buffer": 0,
   "byteOffset": 460732,
   "byteLength": 64,
   "target": 34962,
   "byteStride": 8
  },
  {
   "buffer": 0,
   "byteOffset": 460796,
   "byteLength": 24,
   "target": 34963
  }
 ],
 "buffers": [
  {
   "uri": "rotbuche_a.bin",
   "byteLength": 460820
  }
 ]
}
