{"asset":{"version":"2.0","generator":"Connected Rails CC0 tree importer","copyright":"Mantissa and Poly Haven source models: CC0 1.0; optimisation: Connected Rails"},"scene":0,"scenes":[{"nodes":[0,1,2,3]}],"nodes":[{"name":"crown_LOD0","mesh":0},{"name":"crown_LOD1","mesh":1},{"name":"crown_LOD2","mesh":2},{"name":"crown_LOD3","mesh":3}],"meshes":[{"name":"crown_LOD0","primitives":[{"attributes":{"POSITION":0,"NORMAL":1,"TEXCOORD_0":2},"indices":3,"material":1}]},{"name":"crown_LOD1","primitives":[{"attributes":{"POSITION":4,"NORMAL":5,"TEXCOORD_0":6},"indices":7,"material":1}]},{"name":"crown_LOD2","primitives":[{"attributes":{"POSITION":8,"NORMAL":9,"TEXCOORD_0":10},"indices":11,"material":2}]},{"name":"crown_LOD3","primitives":[{"attributes":{"POSITION":12,"NORMAL":13,"TEXCOORD_0":14},"indices":15,"material":2}]}],"buffers":[{"uri":"roter_hartriegel_b.bin","byteLength":7326900}],"bufferViews":[{"buffer":0,"byteOffset":0,"byteLength":1330836,"target":34962},{"buffer":0,"byteOffset":1330836,"byteLength":1330836,"target":34962},{"buffer":0,"byteOffset":2661672,"byteLength":887224,"target":34962},{"buffer":0,"byteOffset":3548896,"byteLength":1063548,"target":34963},{"buffer":0,"byteOffset":4612444,"byteLength":806160,"target":34962},{"buffer":0,"byteOffset":5418604,"byteLength":806160,"target":34962},{"buffer":0,"byteOffset":6224764,"byteLength":537440,"target":34962},{"buffer":0,"byteOffset":6762204,"byteLength":563856,"target":34963},{"buffer":0,"byteOffset":7326060,"byteLength":192,"target":34962},{"buffer":0,"byteOffset":7326252,"byteLength":192,"target":34962},{"buffer":0,"byteOffset":7326444,"byteLength":128,"target":34962},{"buffer":0,"byteOffset":7326572,"byteLength":48,"target":34963},{"buffer":0,"byteOffset":7326620,"byteLength":96,"target":34962},{"buffer":0,"byteOffset":7326716,"byteLength":96,"target":34962},{"buffer":0,"byteOffset":7326812,"byteLength":64,"target":34962},{"buffer":0,"byteOffset":7326876,"byteLength":24,"target":34963}],"accessors":[{"bufferView":0,"componentType":5126,"count":110903,"type":"VEC3","min":[-1.8493706957672296,0.0,-1.925],"max":[1.8493706957672296,3.5,1.925]},{"bufferView":1,"componentType":5126,"count":110903,"type":"VEC3","min":[-0.9999979734420776,-0.9998778700828552,-0.9999666810035706],"max":[0.9999952912330627,0.999998927116394,0.999859631061554]},{"bufferView":2,"componentType":5126,"count":110903,"type":"VEC2"},{"bufferView":3,"componentType":5125,"count":265887,"type":"SCALAR","min":[0],"max":[110902]},{"bufferView":4,"componentType":5126,"count":67180,"type":"VEC3","min":[-1.651078314519607,0.0013762806831466123,-1.6021916965994472],"max":[2.163819283588687,3.5042499254047343,2.1067706893128975]},{"bufferView":5,"componentType":5126,"count":67180,"type":"VEC3","min":[-0.9997715353965759,-0.9998782277107239,-0.9999547600746155],"max":[0.9999889135360718,0.999998927116394,0.9998457431793213]},{"bufferView":6,"componentType":5126,"count":67180,"type":"VEC2"},{"bufferView":7,"componentType":5125,"count":140964,"type":"SCALAR","min":[0],"max":[67179]},{"bufferView":8,"componentType":5126,"count":16,"type":"VEC3","min":[-2.1175000000000006,0,-2.1175000000000006],"max":[2.1175000000000006,3.5,2.1175000000000006]},{"bufferView":9,"componentType":5126,"count":16,"type":"VEC3","min":[-1.0,0,-0.7071067811865475],"max":[-0.0,0,1.0]},{"bufferView":10,"componentType":5126,"count":16,"type":"VEC2"},{"bufferView":11,"componentType":5123,"count":24,"type":"SCALAR","min":[0],"max":[15]},{"bufferView":12,"componentType":5126,"count":8,"type":"VEC3","min":[-2.1175000000000006,0,-2.1175000000000006],"max":[2.1175000000000006,3.5,2.1175000000000006]},{"bufferView":13,"componentType":5126,"count":8,"type":"VEC3","min":[-1.0,0,6.123233995736766e-17],"max":[-0.0,0,1.0]},{"bufferView":14,"componentType":5126,"count":8,"type":"VEC2"},{"bufferView":15,"componentType":5123,"count":12,"type":"SCALAR","min":[0],"max":[7]}],"samplers":[{"magFilter":9729,"minFilter":9987,"wrapS":10497,"wrapT":10497}],"images":[{"uri":"textures/poly_searsia_lucida.png"},{"uri":"textures/poly_searsia_lucida.png"},{"uri":"impostors/roter_hartriegel_b_summer.png"}],"textures":[{"source":0,"sampler":0},{"source":1,"sampler":0},{"source":2,"sampler":0}],"materials":[{"name":"bark","pbrMetallicRoughness":{"baseColorFactor":[0.82,0.82,0.82,1.0],"baseColorTexture":{"index":0},"metallicFactor":0.0,"roughnessFactor":0.91},"doubleSided":false},{"name":"foliage","pbrMetallicRoughness":{"baseColorFactor":[0.5323529411764706,1.0,0.6923529411764706,1.0],"baseColorTexture":{"index":1},"metallicFactor":0.0,"roughnessFactor":0.78},"doubleSided":true,"alphaMode":"MASK","alphaCutoff":0.18},{"name":"whole_tree_impostor","pbrMetallicRoughness":{"baseColorFactor":[1,1,1,1],"baseColorTexture":{"index":2},"metallicFactor":0.0,"roughnessFactor":0.92},"doubleSided":true,"alphaMode":"MASK","alphaCutoff":0.18}]}