{"asset":{"version":"2.0","generator":"Connected Rails CC0 tree importer","copyright":"Mantissa and Poly Haven source models: CC0 1.0; optimisation: Connected Rails"},"scene":0,"scenes":[{"nodes":[0,1,2,3]}],"nodes":[{"name":"crown_LOD0","mesh":0},{"name":"crown_LOD1","mesh":1},{"name":"crown_LOD2","mesh":2},{"name":"crown_LOD3","mesh":3}],"meshes":[{"name":"crown_LOD0","primitives":[{"attributes":{"POSITION":0,"NORMAL":1,"TEXCOORD_0":2},"indices":3,"material":0},{"attributes":{"POSITION":4,"NORMAL":5,"TEXCOORD_0":6},"indices":7,"material":1}]},{"name":"crown_LOD1","primitives":[{"attributes":{"POSITION":8,"NORMAL":9,"TEXCOORD_0":10},"indices":11,"material":0},{"attributes":{"POSITION":12,"NORMAL":13,"TEXCOORD_0":14},"indices":15,"material":1}]},{"name":"crown_LOD2","primitives":[{"attributes":{"POSITION":16,"NORMAL":17,"TEXCOORD_0":18},"indices":19,"material":2}]},{"name":"crown_LOD3","primitives":[{"attributes":{"POSITION":20,"NORMAL":21,"TEXCOORD_0":22},"indices":23,"material":2}]}],"buffers":[{"uri":"salweide_a.bin","byteLength":8128140}],"bufferViews":[{"buffer":0,"byteOffset":0,"byteLength":220764,"target":34962},{"buffer":0,"byteOffset":220764,"byteLength":220764,"target":34962},{"buffer":0,"byteOffset":441528,"byteLength":147176,"target":34962},{"buffer":0,"byteOffset":588704,"byteLength":71994,"target":34963},{"buffer":0,"byteOffset":660700,"byteLength":1504992,"target":34962},{"buffer":0,"byteOffset":2165692,"byteLength":1504992,"target":34962},{"buffer":0,"byteOffset":3670684,"byteLength":1003328,"target":34962},{"buffer":0,"byteOffset":4674012,"byteLength":1722852,"target":34963},{"buffer":0,"byteOffset":6396864,"byteLength":43272,"target":34962},{"buffer":0,"byteOffset":6440136,"byteLength":43272,"target":34962},{"buffer":0,"byteOffset":6483408,"byteLength":28848,"target":34962},{"buffer":0,"byteOffset":6512256,"byteLength":19200,"target":34963},{"buffer":0,"byteOffset":6531456,"byteLength":492972,"target":34962},{"buffer":0,"byteOffset":7024428,"byteLength":492972,"target":34962},{"buffer":0,"byteOffset":7517400,"byteLength":328648,"target":34962},{"buffer":0,"byteOffset":7846048,"byteLength":281250,"target":34963},{"buffer":0,"byteOffset":8127300,"byteLength":192,"target":34962},{"buffer":0,"byteOffset":8127492,"byteLength":192,"target":34962},{"buffer":0,"byteOffset":8127684,"byteLength":128,"target":34962},{"buffer":0,"byteOffset":8127812,"byteLength":48,"target":34963},{"buffer":0,"byteOffset":8127860,"byteLength":96,"target":34962},{"buffer":0,"byteOffset":8127956,"byteLength":96,"target":34962},{"buffer":0,"byteOffset":8128052,"byteLength":64,"target":34962},{"buffer":0,"byteOffset":8128116,"byteLength":24,"target":34963}],"accessors":[{"bufferView":0,"componentType":5126,"count":18397,"type":"VEC3","min":[-2.100848798933708,0.0,-2.350379647767581],"max":[2.1024073328960537,4.942999743300318,2.364961423788781]},{"bufferView":1,"componentType":5126,"count":18397,"type":"VEC3","min":[-0.9999074935913086,-0.9999861717224121,-0.9991706609725952],"max":[0.9997425079345703,0.999979555606842,0.9997896552085876]},{"bufferView":2,"componentType":5126,"count":18397,"type":"VEC2"},{"bufferView":3,"componentType":5123,"count":35997,"type":"SCALAR","min":[0],"max":[18396]},{"bufferView":4,"componentType":5126,"count":125416,"type":"VEC3","min":[-2.205543279647827,1.3542355298995972,-2.404489278793335],"max":[2.1868793964385986,4.997383117675781,2.406177282333374]},{"bufferView":5,"componentType":5126,"count":125416,"type":"VEC3","min":[-0.9999898672103882,-0.9999768137931824,-0.9999792575836182],"max":[0.9999904632568359,0.9999784827232361,0.9999015927314758]},{"bufferView":6,"componentType":5126,"count":125416,"type":"VEC2"},{"bufferView":7,"componentType":5125,"count":430713,"type":"SCALAR","min":[0],"max":[125415]},{"bufferView":8,"componentType":5126,"count":3606,"type":"VEC3","min":[-1.9232653027227613,0.005601295373564132,-2.2316827493687095],"max":[1.9397041549404872,4.819239587698127,2.152833752280323]},{"bufferView":9,"componentType":5126,"count":3606,"type":"VEC3","min":[-0.9999074935913086,-0.9993954300880432,-0.9953701496124268],"max":[0.9997339844703674,0.9996429681777954,0.9987139701843262]},{"bufferView":10,"componentType":5126,"count":3606,"type":"VEC2"},{"bufferView":11,"componentType":5123,"count":9600,"type":"SCALAR","min":[0],"max":[3605]},{"bufferView":12,"componentType":5126,"count":41081,"type":"VEC3","min":[-2.2213478088378906,1.346436858177185,-2.416084051132202],"max":[2.2041192054748535,4.898085117340088,2.3742568492889404]},{"bufferView":13,"componentType":5126,"count":41081,"type":"VEC3","min":[-0.9999659061431885,-0.9999668598175049,-0.9999792575836182],"max":[0.9997212290763855,0.999825656414032,0.999897301197052]},{"bufferView":14,"componentType":5126,"count":41081,"type":"VEC2"},{"bufferView":15,"componentType":5123,"count":140625,"type":"SCALAR","min":[0],"max":[41080]},{"bufferView":16,"componentType":5126,"count":16,"type":"VEC3","min":[-2.75,0,-2.75],"max":[2.75,5.0,2.75]},{"bufferView":17,"componentType":5126,"count":16,"type":"VEC3","min":[-1.0,0,-0.7071067811865475],"max":[-0.0,0,1.0]},{"bufferView":18,"componentType":5126,"count":16,"type":"VEC2"},{"bufferView":19,"componentType":5123,"count":24,"type":"SCALAR","min":[0],"max":[15]},{"bufferView":20,"componentType":5126,"count":8,"type":"VEC3","min":[-2.75,0,-2.75],"max":[2.75,5.0,2.75]},{"bufferView":21,"componentType":5126,"count":8,"type":"VEC3","min":[-1.0,0,6.123233995736766e-17],"max":[-0.0,0,1.0]},{"bufferView":22,"componentType":5126,"count":8,"type":"VEC2"},{"bufferView":23,"componentType":5123,"count":12,"type":"SCALAR","min":[0],"max":[7]}],"samplers":[{"magFilter":9729,"minFilter":9987,"wrapS":10497,"wrapT":10497}],"images":[{"uri":"textures/bark_broadleaf.jpg"},{"uri":"textures/foliage_broadleaf.jpg"},{"uri":"impostors/salweide_a_summer.png"}],"textures":[{"source":0,"sampler":0},{"source":1,"sampler":0},{"source":2,"sampler":0}],"materials":[{"name":"bark","pbrMetallicRoughness":{"baseColorFactor":[0.82,0.82,0.82,1.0],"baseColorTexture":{"index":0},"metallicFactor":0.0,"roughnessFactor":0.91},"doubleSided":false},{"name":"foliage","pbrMetallicRoughness":{"baseColorFactor":[0.6468627450980392,0.8734313725490196,0.5868627450980392,1.0],"baseColorTexture":{"index":1},"metallicFactor":0.0,"roughnessFactor":0.78},"doubleSided":true},{"name":"whole_tree_impostor","pbrMetallicRoughness":{"baseColorFactor":[1,1,1,1],"baseColorTexture":{"index":2},"metallicFactor":0.0,"roughnessFactor":0.92},"doubleSided":true,"alphaMode":"MASK","alphaCutoff":0.18}]}