{"asset":{"version":"2.0","generator":"Connected Rails CC0 tree importer","copyright":"Mantissa and Poly Haven source models: CC0 1.0; optimisation: Connected Rails"},"scene":0,"scenes":[{"nodes":[0,1,2,3]}],"nodes":[{"name":"crown_LOD0","mesh":0},{"name":"crown_LOD1","mesh":1},{"name":"crown_LOD2","mesh":2},{"name":"crown_LOD3","mesh":3}],"meshes":[{"name":"crown_LOD0","primitives":[{"attributes":{"POSITION":0,"NORMAL":1,"TEXCOORD_0":2},"indices":3,"material":1}]},{"name":"crown_LOD1","primitives":[{"attributes":{"POSITION":4,"NORMAL":5,"TEXCOORD_0":6},"indices":7,"material":1}]},{"name":"crown_LOD2","primitives":[{"attributes":{"POSITION":8,"NORMAL":9,"TEXCOORD_0":10},"indices":11,"material":2}]},{"name":"crown_LOD3","primitives":[{"attributes":{"POSITION":12,"NORMAL":13,"TEXCOORD_0":14},"indices":15,"material":2}]}],"buffers":[{"uri":"sanddorn_a.bin","byteLength":5929492}],"bufferViews":[{"buffer":0,"byteOffset":0,"byteLength":1149252,"target":34962},{"buffer":0,"byteOffset":1149252,"byteLength":1149252,"target":34962},{"buffer":0,"byteOffset":2298504,"byteLength":766168,"target":34962},{"buffer":0,"byteOffset":3064672,"byteLength":931236,"target":34963},{"buffer":0,"byteOffset":3995908,"byteLength":641256,"target":34962},{"buffer":0,"byteOffset":4637164,"byteLength":641256,"target":34962},{"buffer":0,"byteOffset":5278420,"byteLength":427504,"target":34962},{"buffer":0,"byteOffset":5705924,"byteLength":222726,"target":34963},{"buffer":0,"byteOffset":5928652,"byteLength":192,"target":34962},{"buffer":0,"byteOffset":5928844,"byteLength":192,"target":34962},{"buffer":0,"byteOffset":5929036,"byteLength":128,"target":34962},{"buffer":0,"byteOffset":5929164,"byteLength":48,"target":34963},{"buffer":0,"byteOffset":5929212,"byteLength":96,"target":34962},{"buffer":0,"byteOffset":5929308,"byteLength":96,"target":34962},{"buffer":0,"byteOffset":5929404,"byteLength":64,"target":34962},{"buffer":0,"byteOffset":5929468,"byteLength":24,"target":34963}],"accessors":[{"bufferView":0,"componentType":5126,"count":95771,"type":"VEC3","min":[-1.05,0.0,-0.8693333547168308],"max":[1.05,2.0,0.8693333547168308]},{"bufferView":1,"componentType":5126,"count":95771,"type":"VEC3","min":[-0.9999549984931946,-0.9998449087142944,-0.9999344944953918],"max":[0.9999905824661255,0.9999924898147583,0.9999848008155823]},{"bufferView":2,"componentType":5126,"count":95771,"type":"VEC2"},{"bufferView":3,"componentType":5125,"count":232809,"type":"SCALAR","min":[0],"max":[95770]},{"bufferView":4,"componentType":5126,"count":53438,"type":"VEC3","min":[-1.0451999946909938,-0.0009233632866205743,-0.8734765364042986],"max":[1.0577091748476979,2.001316678244735,0.8704937044033783]},{"bufferView":5,"componentType":5126,"count":53438,"type":"VEC3","min":[-0.999971866607666,-0.9998449087142944,-0.9998550415039062],"max":[0.9998859763145447,0.9999843835830688,0.9997600317001343]},{"bufferView":6,"componentType":5126,"count":53438,"type":"VEC2"},{"bufferView":7,"componentType":5123,"count":111363,"type":"SCALAR","min":[0],"max":[53437]},{"bufferView":8,"componentType":5126,"count":16,"type":"VEC3","min":[-1.1550000000000002,0,-1.1550000000000002],"max":[1.1550000000000002,2.0,1.1550000000000002]},{"bufferView":9,"componentType":5126,"count":16,"type":"VEC3","min":[-1.0,0,-0.7071067811865475],"max":[-0.0,0,1.0]},{"bufferView":10,"componentType":5126,"count":16,"type":"VEC2"},{"bufferView":11,"componentType":5123,"count":24,"type":"SCALAR","min":[0],"max":[15]},{"bufferView":12,"componentType":5126,"count":8,"type":"VEC3","min":[-1.1550000000000002,0,-1.1550000000000002],"max":[1.1550000000000002,2.0,1.1550000000000002]},{"bufferView":13,"componentType":5126,"count":8,"type":"VEC3","min":[-1.0,0,6.123233995736766e-17],"max":[-0.0,0,1.0]},{"bufferView":14,"componentType":5126,"count":8,"type":"VEC2"},{"bufferView":15,"componentType":5123,"count":12,"type":"SCALAR","min":[0],"max":[7]}],"samplers":[{"magFilter":9729,"minFilter":9987,"wrapS":10497,"wrapT":10497}],"images":[{"uri":"textures/poly_searsia_lucida.png"},{"uri":"textures/poly_searsia_lucida.png"},{"uri":"impostors/sanddorn_a_autumn.png"}],"textures":[{"source":0,"sampler":0},{"source":1,"sampler":0},{"source":2,"sampler":0}],"materials":[{"name":"bark","pbrMetallicRoughness":{"baseColorFactor":[0.82,0.82,0.82,1.0],"baseColorTexture":{"index":0},"metallicFactor":0.0,"roughnessFactor":0.91},"doubleSided":false},{"name":"foliage","pbrMetallicRoughness":{"baseColorFactor":[0.72,0.42,0.09,1.0],"baseColorTexture":{"index":1},"metallicFactor":0.0,"roughnessFactor":0.78},"doubleSided":true,"alphaMode":"MASK","alphaCutoff":0.18},{"name":"whole_tree_impostor","pbrMetallicRoughness":{"baseColorFactor":[1,1,1,1],"baseColorTexture":{"index":2},"metallicFactor":0.0,"roughnessFactor":0.92},"doubleSided":true,"alphaMode":"MASK","alphaCutoff":0.18}]}