{"asset":{"version":"2.0","generator":"Connected Rails CC0 tree importer","copyright":"Mantissa and Poly Haven source models: CC0 1.0; optimisation: Connected Rails"},"scene":0,"scenes":[{"nodes":[0,1,2,3]}],"nodes":[{"name":"crown_LOD0","mesh":0},{"name":"crown_LOD1","mesh":1},{"name":"crown_LOD2","mesh":2},{"name":"crown_LOD3","mesh":3}],"meshes":[{"name":"crown_LOD0","primitives":[{"attributes":{"POSITION":0,"NORMAL":1,"TEXCOORD_0":2},"indices":3,"material":0}]},{"name":"crown_LOD1","primitives":[{"attributes":{"POSITION":8,"NORMAL":9,"TEXCOORD_0":10},"indices":11,"material":0}]},{"name":"crown_LOD2","primitives":[{"attributes":{"POSITION":16,"NORMAL":17,"TEXCOORD_0":18},"indices":19,"material":2}]},{"name":"crown_LOD3","primitives":[{"attributes":{"POSITION":20,"NORMAL":21,"TEXCOORD_0":22},"indices":23,"material":2}]}],"buffers":[{"uri":"sandbirke_a.bin","byteLength":8098852}],"bufferViews":[{"buffer":0,"byteOffset":0,"byteLength":216936,"target":34962},{"buffer":0,"byteOffset":216936,"byteLength":216936,"target":34962},{"buffer":0,"byteOffset":433872,"byteLength":144624,"target":34962},{"buffer":0,"byteOffset":578496,"byteLength":72000,"target":34963},{"buffer":0,"byteOffset":650496,"byteLength":1502088,"target":34962},{"buffer":0,"byteOffset":2152584,"byteLength":1502088,"target":34962},{"buffer":0,"byteOffset":3654672,"byteLength":1001392,"target":34962},{"buffer":0,"byteOffset":4656064,"byteLength":1718832,"target":34963},{"buffer":0,"byteOffset":6374896,"byteLength":46188,"target":34962},{"buffer":0,"byteOffset":6421084,"byteLength":46188,"target":34962},{"buffer":0,"byteOffset":6467272,"byteLength":30792,"target":34962},{"buffer":0,"byteOffset":6498064,"byteLength":19200,"target":34963},{"buffer":0,"byteOffset":6517264,"byteLength":488448,"target":34962},{"buffer":0,"byteOffset":7005712,"byteLength":488448,"target":34962},{"buffer":0,"byteOffset":7494160,"byteLength":325632,"target":34962},{"buffer":0,"byteOffset":7819792,"byteLength":278220,"target":34963},{"buffer":0,"byteOffset":8098012,"byteLength":192,"target":34962},{"buffer":0,"byteOffset":8098204,"byteLength":192,"target":34962},{"buffer":0,"byteOffset":8098396,"byteLength":128,"target":34962},{"buffer":0,"byteOffset":8098524,"byteLength":48,"target":34963},{"buffer":0,"byteOffset":8098572,"byteLength":96,"target":34962},{"buffer":0,"byteOffset":8098668,"byteLength":96,"target":34962},{"buffer":0,"byteOffset":8098764,"byteLength":64,"target":34962},{"buffer":0,"byteOffset":8098828,"byteLength":24,"target":34963}],"accessors":[{"bufferView":0,"componentType":5126,"count":18078,"type":"VEC3","min":[-3.316218900667704,0.008979718627713447,-2.9865695394870615],"max":[3.281710300359523,13.84125054682973,2.928621988422454]},{"bufferView":1,"componentType":5126,"count":18078,"type":"VEC3","min":[-0.9999011158943176,-0.999688982963562,-0.9997074604034424],"max":[0.9999508857727051,0.9998772740364075,0.999977171421051]},{"bufferView":2,"componentType":5126,"count":18078,"type":"VEC2"},{"bufferView":3,"componentType":5123,"count":36000,"type":"SCALAR","min":[0],"max":[18077]},{"bufferView":4,"componentType":5126,"count":125174,"type":"VEC3","min":[-3.469132900238037,3.667304277420044,-3.1716716289520264],"max":[3.3837363719940186,13.694384574890137,3.153406858444214]},{"bufferView":5,"componentType":5126,"count":125174,"type":"VEC3","min":[-0.9999845623970032,-0.9999924302101135,-0.9999912977218628],"max":[0.9999902844429016,0.9999750256538391,0.9999809265136719]},{"bufferView":6,"componentType":5126,"count":125174,"type":"VEC2"},{"bufferView":7,"componentType":5125,"count":429708,"type":"SCALAR","min":[0],"max":[125173]},{"bufferView":8,"componentType":5126,"count":3849,"type":"VEC3","min":[-2.916589583697053,0.011105379713829869,-2.7680510215667042],"max":[3.0164717022300254,13.421785629932703,2.7091117738859363]},{"bufferView":9,"componentType":5126,"count":3849,"type":"VEC3","min":[-0.9998326301574707,-0.9989697933197021,-0.999474287033081],"max":[0.9998822808265686,0.9992552995681763,0.9997671842575073]},{"bufferView":10,"componentType":5126,"count":3849,"type":"VEC2"},{"bufferView":11,"componentType":5123,"count":9600,"type":"SCALAR","min":[0],"max":[3848]},{"bufferView":12,"componentType":5126,"count":40704,"type":"VEC3","min":[-3.4890763759613037,3.6466305255889893,-3.1893374919891357],"max":[3.293748140335083,13.686126708984375,3.1746788024902344]},{"bufferView":13,"componentType":5126,"count":40704,"type":"VEC3","min":[-0.9999127388000488,-0.9999924302101135,-0.9993123412132263],"max":[0.9999620914459229,0.9999727010726929,0.9997591376304626]},{"bufferView":14,"componentType":5126,"count":40704,"type":"VEC2"},{"bufferView":15,"componentType":5123,"count":139110,"type":"SCALAR","min":[0],"max":[40703]},{"bufferView":16,"componentType":5126,"count":16,"type":"VEC3","min":[-3.8500000000000005,0,-3.8500000000000005],"max":[3.8500000000000005,14.0,3.8500000000000005]},{"bufferView":17,"componentType":5126,"count":16,"type":"VEC3","min":[-1.0,0,-0.7071067811865475],"max":[-0.0,0,1.0]},{"bufferView":18,"componentType":5126,"count":16,"type":"VEC2"},{"bufferView":19,"componentType":5123,"count":24,"type":"SCALAR","min":[0],"max":[15]},{"bufferView":20,"componentType":5126,"count":8,"type":"VEC3","min":[-3.8500000000000005,0,-3.8500000000000005],"max":[3.8500000000000005,14.0,3.8500000000000005]},{"bufferView":21,"componentType":5126,"count":8,"type":"VEC3","min":[-1.0,0,6.123233995736766e-17],"max":[-0.0,0,1.0]},{"bufferView":22,"componentType":5126,"count":8,"type":"VEC2"},{"bufferView":23,"componentType":5123,"count":12,"type":"SCALAR","min":[0],"max":[7]}],"samplers":[{"magFilter":9729,"minFilter":9987,"wrapS":10497,"wrapT":10497}],"images":[{"uri":"textures/bark_birch.jpg"},{"uri":"textures/foliage_broadleaf.jpg"},{"uri":"impostors/sandbirke_a_winter.png"}],"textures":[{"source":0,"sampler":0},{"source":1,"sampler":0},{"source":2,"sampler":0}],"materials":[{"name":"bark","pbrMetallicRoughness":{"baseColorFactor":[0.82,0.82,0.82,1.0],"baseColorTexture":{"index":0},"metallicFactor":0.0,"roughnessFactor":0.91},"doubleSided":false},{"name":"foliage","pbrMetallicRoughness":{"baseColorFactor":[0.0,0.0,0.0,0.0],"baseColorTexture":{"index":1},"metallicFactor":0.0,"roughnessFactor":0.78},"doubleSided":true},{"name":"whole_tree_impostor","pbrMetallicRoughness":{"baseColorFactor":[1,1,1,1],"baseColorTexture":{"index":2},"metallicFactor":0.0,"roughnessFactor":0.92},"doubleSided":true,"alphaMode":"MASK","alphaCutoff":0.18}]}