{"asset":{"version":"2.0","generator":"Connected Rails CC0 tree importer","copyright":"Mantissa and Poly Haven source models: CC0 1.0; optimisation: Connected Rails"},"scene":0,"scenes":[{"nodes":[0,1,2,3]}],"nodes":[{"name":"crown_LOD0","mesh":0},{"name":"crown_LOD1","mesh":1},{"name":"crown_LOD2","mesh":2},{"name":"crown_LOD3","mesh":3}],"meshes":[{"name":"crown_LOD0","primitives":[{"attributes":{"POSITION":0,"NORMAL":1,"TEXCOORD_0":2},"indices":3,"material":1}]},{"name":"crown_LOD1","primitives":[{"attributes":{"POSITION":4,"NORMAL":5,"TEXCOORD_0":6},"indices":7,"material":1}]},{"name":"crown_LOD2","primitives":[{"attributes":{"POSITION":8,"NORMAL":9,"TEXCOORD_0":10},"indices":11,"material":2}]},{"name":"crown_LOD3","primitives":[{"attributes":{"POSITION":12,"NORMAL":13,"TEXCOORD_0":14},"indices":15,"material":2}]}],"buffers":[{"uri":"sanddorn_c.bin","byteLength":8762660}],"bufferViews":[{"buffer":0,"byteOffset":0,"byteLength":1635732,"target":34962},{"buffer":0,"byteOffset":1635732,"byteLength":1635732,"target":34962},{"buffer":0,"byteOffset":3271464,"byteLength":1090488,"target":34962},{"buffer":0,"byteOffset":4361952,"byteLength":1360860,"target":34963},{"buffer":0,"byteOffset":5722812,"byteLength":899220,"target":34962},{"buffer":0,"byteOffset":6622032,"byteLength":899220,"target":34962},{"buffer":0,"byteOffset":7521252,"byteLength":599480,"target":34962},{"buffer":0,"byteOffset":8120732,"byteLength":641088,"target":34963},{"buffer":0,"byteOffset":8761820,"byteLength":192,"target":34962},{"buffer":0,"byteOffset":8762012,"byteLength":192,"target":34962},{"buffer":0,"byteOffset":8762204,"byteLength":128,"target":34962},{"buffer":0,"byteOffset":8762332,"byteLength":48,"target":34963},{"buffer":0,"byteOffset":8762380,"byteLength":96,"target":34962},{"buffer":0,"byteOffset":8762476,"byteLength":96,"target":34962},{"buffer":0,"byteOffset":8762572,"byteLength":64,"target":34962},{"buffer":0,"byteOffset":8762636,"byteLength":24,"target":34963}],"accessors":[{"bufferView":0,"componentType":5126,"count":136311,"type":"VEC3","min":[-2.411802770677972,0.0,-2.625],"max":[2.411802770677972,5.0,2.625]},{"bufferView":1,"componentType":5126,"count":136311,"type":"VEC3","min":[-0.9999879598617554,-0.9999913573265076,-0.9999948740005493],"max":[0.9999953508377075,0.9999990463256836,0.9999536871910095]},{"bufferView":2,"componentType":5126,"count":136311,"type":"VEC2"},{"bufferView":3,"componentType":5125,"count":340215,"type":"SCALAR","min":[0],"max":[136310]},{"bufferView":4,"componentType":5126,"count":74935,"type":"VEC3","min":[-2.403896777599512,-0.0005952227883450352,-2.6249223123389656],"max":[2.3127745638711135,4.999933742024577,2.625198995033387]},{"bufferView":5,"componentType":5126,"count":74935,"type":"VEC3","min":[-0.9999879002571106,-0.9999986886978149,-0.9999948740005493],"max":[0.9998756647109985,1.0,0.9998655915260315]},{"bufferView":6,"componentType":5126,"count":74935,"type":"VEC2"},{"bufferView":7,"componentType":5125,"count":160272,"type":"SCALAR","min":[0],"max":[74934]},{"bufferView":8,"componentType":5126,"count":16,"type":"VEC3","min":[-2.8875,0,-2.8875],"max":[2.8875,5.0,2.8875]},{"bufferView":9,"componentType":5126,"count":16,"type":"VEC3","min":[-1.0,0,-0.7071067811865475],"max":[-0.0,0,1.0]},{"bufferView":10,"componentType":5126,"count":16,"type":"VEC2"},{"bufferView":11,"componentType":5123,"count":24,"type":"SCALAR","min":[0],"max":[15]},{"bufferView":12,"componentType":5126,"count":8,"type":"VEC3","min":[-2.8875,0,-2.8875],"max":[2.8875,5.0,2.8875]},{"bufferView":13,"componentType":5126,"count":8,"type":"VEC3","min":[-1.0,0,6.123233995736766e-17],"max":[-0.0,0,1.0]},{"bufferView":14,"componentType":5126,"count":8,"type":"VEC2"},{"bufferView":15,"componentType":5123,"count":12,"type":"SCALAR","min":[0],"max":[7]}],"samplers":[{"magFilter":9729,"minFilter":9987,"wrapS":10497,"wrapT":10497}],"images":[{"uri":"textures/poly_searsia_lucida.png"},{"uri":"textures/poly_searsia_lucida.png"},{"uri":"impostors/sanddorn_c_summer.png"}],"textures":[{"source":0,"sampler":0},{"source":1,"sampler":0},{"source":2,"sampler":0}],"materials":[{"name":"bark","pbrMetallicRoughness":{"baseColorFactor":[0.82,0.82,0.82,1.0],"baseColorTexture":{"index":0},"metallicFactor":0.0,"roughnessFactor":0.91},"doubleSided":false},{"name":"foliage","pbrMetallicRoughness":{"baseColorFactor":[0.542156862745098,1.0,0.702156862745098,1.0],"baseColorTexture":{"index":1},"metallicFactor":0.0,"roughnessFactor":0.78},"doubleSided":true,"alphaMode":"MASK","alphaCutoff":0.18},{"name":"whole_tree_impostor","pbrMetallicRoughness":{"baseColorFactor":[1,1,1,1],"baseColorTexture":{"index":2},"metallicFactor":0.0,"roughnessFactor":0.92},"doubleSided":true,"alphaMode":"MASK","alphaCutoff":0.18}]}