{"asset":{"version":"2.0","generator":"Connected Rails CC0 tree importer","copyright":"Mantissa and Poly Haven source models: CC0 1.0; optimisation: Connected Rails"},"scene":0,"scenes":[{"nodes":[0,1,2,3]}],"nodes":[{"name":"crown_LOD0","mesh":0},{"name":"crown_LOD1","mesh":1},{"name":"crown_LOD2","mesh":2},{"name":"crown_LOD3","mesh":3}],"meshes":[{"name":"crown_LOD0","primitives":[{"attributes":{"POSITION":0,"NORMAL":1,"TEXCOORD_0":2},"indices":3,"material":0}]},{"name":"crown_LOD1","primitives":[{"attributes":{"POSITION":8,"NORMAL":9,"TEXCOORD_0":10},"indices":11,"material":0}]},{"name":"crown_LOD2","primitives":[{"attributes":{"POSITION":16,"NORMAL":17,"TEXCOORD_0":18},"indices":19,"material":2}]},{"name":"crown_LOD3","primitives":[{"attributes":{"POSITION":20,"NORMAL":21,"TEXCOORD_0":22},"indices":23,"material":2}]}],"buffers":[{"uri":"schlehe_b.bin","byteLength":6075264}],"bufferViews":[{"buffer":0,"byteOffset":0,"byteLength":219888,"target":34962},{"buffer":0,"byteOffset":219888,"byteLength":219888,"target":34962},{"buffer":0,"byteOffset":439776,"byteLength":146592,"target":34962},{"buffer":0,"byteOffset":586368,"byteLength":71994,"target":34963},{"buffer":0,"byteOffset":658364,"byteLength":1041540,"target":34962},{"buffer":0,"byteOffset":1699904,"byteLength":1041540,"target":34962},{"buffer":0,"byteOffset":2741444,"byteLength":694360,"target":34962},{"buffer":0,"byteOffset":3435804,"byteLength":1191408,"target":34963},{"buffer":0,"byteOffset":4627212,"byteLength":39504,"target":34962},{"buffer":0,"byteOffset":4666716,"byteLength":39504,"target":34962},{"buffer":0,"byteOffset":4706220,"byteLength":26336,"target":34962},{"buffer":0,"byteOffset":4732556,"byteLength":19200,"target":34963},{"buffer":0,"byteOffset":4751756,"byteLength":408660,"target":34962},{"buffer":0,"byteOffset":5160416,"byteLength":408660,"target":34962},{"buffer":0,"byteOffset":5569076,"byteLength":272440,"target":34962},{"buffer":0,"byteOffset":5841516,"byteLength":232908,"target":34963},{"buffer":0,"byteOffset":6074424,"byteLength":192,"target":34962},{"buffer":0,"byteOffset":6074616,"byteLength":192,"target":34962},{"buffer":0,"byteOffset":6074808,"byteLength":128,"target":34962},{"buffer":0,"byteOffset":6074936,"byteLength":48,"target":34963},{"buffer":0,"byteOffset":6074984,"byteLength":96,"target":34962},{"buffer":0,"byteOffset":6075080,"byteLength":96,"target":34962},{"buffer":0,"byteOffset":6075176,"byteLength":64,"target":34962},{"buffer":0,"byteOffset":6075240,"byteLength":24,"target":34963}],"accessors":[{"bufferView":0,"componentType":5126,"count":18324,"type":"VEC3","min":[-1.7721550304462885,-8.983654149998275e-05,-1.8247509721007305],"max":[1.8299804413248233,2.959032219544303,1.8266825530084432]},{"bufferView":1,"componentType":5126,"count":18324,"type":"VEC3","min":[-0.9999679327011108,-0.9999264478683472,-0.9999188184738159],"max":[0.9997211694717407,0.9999515414237976,0.9998719692230225]},{"bufferView":2,"componentType":5126,"count":18324,"type":"VEC2"},{"bufferView":3,"componentType":5123,"count":35997,"type":"SCALAR","min":[0],"max":[18323]},{"bufferView":4,"componentType":5126,"count":86795,"type":"VEC3","min":[-1.8815534114837646,1.0171356201171875,-1.8868825435638428],"max":[1.926973581314087,2.982966899871826,1.8495815992355347]},{"bufferView":5,"componentType":5126,"count":86795,"type":"VEC3","min":[-0.999804675579071,-0.9999918937683105,-0.9999882578849792],"max":[0.9999986886978149,0.9999997019767761,0.9999333620071411]},{"bufferView":6,"componentType":5126,"count":86795,"type":"VEC2"},{"bufferView":7,"componentType":5125,"count":297852,"type":"SCALAR","min":[0],"max":[86794]},{"bufferView":8,"componentType":5126,"count":3292,"type":"VEC3","min":[-1.6504018744596496,0.0033752090313585166,-1.6164998031617988],"max":[1.7502972829540666,2.8968814635827043,1.7329992245253614]},{"bufferView":9,"componentType":5126,"count":3292,"type":"VEC3","min":[-0.9982945919036865,-0.9999264478683472,-0.9985045790672302],"max":[0.9951105713844299,0.9999515414237976,0.9970073699951172]},{"bufferView":10,"componentType":5126,"count":3292,"type":"VEC2"},{"bufferView":11,"componentType":5123,"count":9600,"type":"SCALAR","min":[0],"max":[3291]},{"bufferView":12,"componentType":5126,"count":34055,"type":"VEC3","min":[-1.8899333477020264,1.0089935064315796,-1.899181604385376],"max":[1.937300443649292,2.9870855808258057,1.8596256971359253]},{"bufferView":13,"componentType":5126,"count":34055,"type":"VEC3","min":[-0.9996628761291504,-0.9999918937683105,-0.9999882578849792],"max":[0.9999986886978149,0.9999899864196777,0.9998611211776733]},{"bufferView":14,"componentType":5126,"count":34055,"type":"VEC2"},{"bufferView":15,"componentType":5123,"count":116454,"type":"SCALAR","min":[0],"max":[34054]},{"bufferView":16,"componentType":5126,"count":16,"type":"VEC3","min":[-2.1450000000000005,0,-2.1450000000000005],"max":[2.1450000000000005,3.0,2.1450000000000005]},{"bufferView":17,"componentType":5126,"count":16,"type":"VEC3","min":[-1.0,0,-0.7071067811865475],"max":[-0.0,0,1.0]},{"bufferView":18,"componentType":5126,"count":16,"type":"VEC2"},{"bufferView":19,"componentType":5123,"count":24,"type":"SCALAR","min":[0],"max":[15]},{"bufferView":20,"componentType":5126,"count":8,"type":"VEC3","min":[-2.1450000000000005,0,-2.1450000000000005],"max":[2.1450000000000005,3.0,2.1450000000000005]},{"bufferView":21,"componentType":5126,"count":8,"type":"VEC3","min":[-1.0,0,6.123233995736766e-17],"max":[-0.0,0,1.0]},{"bufferView":22,"componentType":5126,"count":8,"type":"VEC2"},{"bufferView":23,"componentType":5123,"count":12,"type":"SCALAR","min":[0],"max":[7]}],"samplers":[{"magFilter":9729,"minFilter":9987,"wrapS":10497,"wrapT":10497}],"images":[{"uri":"textures/bark_broadleaf.jpg"},{"uri":"textures/foliage_broadleaf.jpg"},{"uri":"impostors/schlehe_b_winter.png"}],"textures":[{"source":0,"sampler":0},{"source":1,"sampler":0},{"source":2,"sampler":0}],"materials":[{"name":"bark","pbrMetallicRoughness":{"baseColorFactor":[0.82,0.82,0.82,1.0],"baseColorTexture":{"index":0},"metallicFactor":0.0,"roughnessFactor":0.91},"doubleSided":false},{"name":"foliage","pbrMetallicRoughness":{"baseColorFactor":[0.0,0.0,0.0,0.0],"baseColorTexture":{"index":1},"metallicFactor":0.0,"roughnessFactor":0.78},"doubleSided":true},{"name":"whole_tree_impostor","pbrMetallicRoughness":{"baseColorFactor":[1,1,1,1],"baseColorTexture":{"index":2},"metallicFactor":0.0,"roughnessFactor":0.92},"doubleSided":true,"alphaMode":"MASK","alphaCutoff":0.18}]}