{"asset":{"version":"2.0","generator":"Connected Rails CC0 tree importer","copyright":"Mantissa and Poly Haven source models: CC0 1.0; optimisation: Connected Rails"},"scene":0,"scenes":[{"nodes":[0,1,2,3]}],"nodes":[{"name":"crown_LOD0","mesh":0},{"name":"crown_LOD1","mesh":1},{"name":"crown_LOD2","mesh":2},{"name":"crown_LOD3","mesh":3}],"meshes":[{"name":"crown_LOD0","primitives":[{"attributes":{"POSITION":0,"NORMAL":1,"TEXCOORD_0":2},"indices":3,"material":0},{"attributes":{"POSITION":4,"NORMAL":5,"TEXCOORD_0":6},"indices":7,"material":1}]},{"name":"crown_LOD1","primitives":[{"attributes":{"POSITION":8,"NORMAL":9,"TEXCOORD_0":10},"indices":11,"material":0},{"attributes":{"POSITION":12,"NORMAL":13,"TEXCOORD_0":14},"indices":15,"material":1}]},{"name":"crown_LOD2","primitives":[{"attributes":{"POSITION":16,"NORMAL":17,"TEXCOORD_0":18},"indices":19,"material":2}]},{"name":"crown_LOD3","primitives":[{"attributes":{"POSITION":20,"NORMAL":21,"TEXCOORD_0":22},"indices":23,"material":2}]}],"buffers":[{"uri":"schlehe_a.bin","byteLength":6103200}],"bufferViews":[{"buffer":0,"byteOffset":0,"byteLength":221892,"target":34962},{"buffer":0,"byteOffset":221892,"byteLength":221892,"target":34962},{"buffer":0,"byteOffset":443784,"byteLength":147928,"target":34962},{"buffer":0,"byteOffset":591712,"byteLength":72000,"target":34963},{"buffer":0,"byteOffset":663712,"byteLength":1045464,"target":34962},{"buffer":0,"byteOffset":1709176,"byteLength":1045464,"target":34962},{"buffer":0,"byteOffset":2754640,"byteLength":696976,"target":34962},{"buffer":0,"byteOffset":3451616,"byteLength":1195416,"target":34963},{"buffer":0,"byteOffset":4647032,"byteLength":43308,"target":34962},{"buffer":0,"byteOffset":4690340,"byteLength":43308,"target":34962},{"buffer":0,"byteOffset":4733648,"byteLength":28872,"target":34962},{"buffer":0,"byteOffset":4762520,"byteLength":19200,"target":34963},{"buffer":0,"byteOffset":4781720,"byteLength":408120,"target":34962},{"buffer":0,"byteOffset":5189840,"byteLength":408120,"target":34962},{"buffer":0,"byteOffset":5597960,"byteLength":272080,"target":34962},{"buffer":0,"byteOffset":5870040,"byteLength":232320,"target":34963},{"buffer":0,"byteOffset":6102360,"byteLength":192,"target":34962},{"buffer":0,"byteOffset":6102552,"byteLength":192,"target":34962},{"buffer":0,"byteOffset":6102744,"byteLength":128,"target":34962},{"buffer":0,"byteOffset":6102872,"byteLength":48,"target":34963},{"buffer":0,"byteOffset":6102920,"byteLength":96,"target":34962},{"buffer":0,"byteOffset":6103016,"byteLength":96,"target":34962},{"buffer":0,"byteOffset":6103112,"byteLength":64,"target":34962},{"buffer":0,"byteOffset":6103176,"byteLength":24,"target":34963}],"accessors":[{"bufferView":0,"componentType":5126,"count":18491,"type":"VEC3","min":[-1.0943459024884679,0.0012611968434739803,-1.2262709731662114],"max":[1.093418495445526,1.9788916267416776,1.2305314370546288]},{"bufferView":1,"componentType":5126,"count":18491,"type":"VEC3","min":[-0.9999529719352722,-0.9999986290931702,-0.9996622800827026],"max":[0.9996901750564575,0.9999479055404663,0.9993632435798645]},{"bufferView":2,"componentType":5126,"count":18491,"type":"VEC2"},{"bufferView":3,"componentType":5123,"count":36000,"type":"SCALAR","min":[0],"max":[18490]},{"bufferView":4,"componentType":5126,"count":87122,"type":"VEC3","min":[-1.1424657106399536,0.4829561114311218,-1.2363108396530151],"max":[1.1622201204299927,1.9771947860717773,1.2977495193481445]},{"bufferView":5,"componentType":5126,"count":87122,"type":"VEC3","min":[-0.9999656677246094,-0.9999792575836182,-0.9999344348907471],"max":[0.9999256134033203,0.9999690651893616,0.9999809861183167]},{"bufferView":6,"componentType":5126,"count":87122,"type":"VEC2"},{"bufferView":7,"componentType":5125,"count":298854,"type":"SCALAR","min":[0],"max":[87121]},{"bufferView":8,"componentType":5126,"count":3609,"type":"VEC3","min":[-1.0943459024884679,0.0015683671959881035,-1.1346007262813864],"max":[1.068550182417786,1.9788916267416776,1.146233542017466]},{"bufferView":9,"componentType":5126,"count":3609,"type":"VEC3","min":[-0.9999529719352722,-0.9996446371078491,-0.9988636374473572],"max":[0.9998205900192261,0.9999313950538635,0.9993333220481873]},{"bufferView":10,"componentType":5126,"count":3609,"type":"VEC2"},{"bufferView":11,"componentType":5123,"count":9600,"type":"SCALAR","min":[0],"max":[3608]},{"bufferView":12,"componentType":5126,"count":34010,"type":"VEC3","min":[-1.150832176208496,0.47836488485336304,-1.2443088293075562],"max":[1.1689975261688232,1.9659664630889893,1.204781413078308]},{"bufferView":13,"componentType":5126,"count":34010,"type":"VEC3","min":[-0.9999656677246094,-0.9999792575836182,-0.9998558163642883],"max":[0.9999144673347473,0.999907910823822,0.9999809861183167]},{"bufferView":14,"componentType":5126,"count":34010,"type":"VEC2"},{"bufferView":15,"componentType":5123,"count":116160,"type":"SCALAR","min":[0],"max":[34009]},{"bufferView":16,"componentType":5126,"count":16,"type":"VEC3","min":[-1.4300000000000002,0,-1.4300000000000002],"max":[1.4300000000000002,2.0,1.4300000000000002]},{"bufferView":17,"componentType":5126,"count":16,"type":"VEC3","min":[-1.0,0,-0.7071067811865475],"max":[-0.0,0,1.0]},{"bufferView":18,"componentType":5126,"count":16,"type":"VEC2"},{"bufferView":19,"componentType":5123,"count":24,"type":"SCALAR","min":[0],"max":[15]},{"bufferView":20,"componentType":5126,"count":8,"type":"VEC3","min":[-1.4300000000000002,0,-1.4300000000000002],"max":[1.4300000000000002,2.0,1.4300000000000002]},{"bufferView":21,"componentType":5126,"count":8,"type":"VEC3","min":[-1.0,0,6.123233995736766e-17],"max":[-0.0,0,1.0]},{"bufferView":22,"componentType":5126,"count":8,"type":"VEC2"},{"bufferView":23,"componentType":5123,"count":12,"type":"SCALAR","min":[0],"max":[7]}],"samplers":[{"magFilter":9729,"minFilter":9987,"wrapS":10497,"wrapT":10497}],"images":[{"uri":"textures/bark_broadleaf.jpg"},{"uri":"textures/foliage_broadleaf.jpg"},{"uri":"impostors/schlehe_a_summer.png"}],"textures":[{"source":0,"sampler":0},{"source":1,"sampler":0},{"source":2,"sampler":0}],"materials":[{"name":"bark","pbrMetallicRoughness":{"baseColorFactor":[0.82,0.82,0.82,1.0],"baseColorTexture":{"index":0},"metallicFactor":0.0,"roughnessFactor":0.91},"doubleSided":false},{"name":"foliage","pbrMetallicRoughness":{"baseColorFactor":[0.6833333333333333,0.8916666666666667,0.6233333333333333,1.0],"baseColorTexture":{"index":1},"metallicFactor":0.0,"roughnessFactor":0.78},"doubleSided":true},{"name":"whole_tree_impostor","pbrMetallicRoughness":{"baseColorFactor":[1,1,1,1],"baseColorTexture":{"index":2},"metallicFactor":0.0,"roughnessFactor":0.92},"doubleSided":true,"alphaMode":"MASK","alphaCutoff":0.18}]}