{"asset":{"version":"2.0","generator":"Connected Rails CC0 tree importer","copyright":"Mantissa and Poly Haven source models: CC0 1.0; optimisation: Connected Rails"},"scene":0,"scenes":[{"nodes":[0,1,2,3]}],"nodes":[{"name":"crown_LOD0","mesh":0},{"name":"crown_LOD1","mesh":1},{"name":"crown_LOD2","mesh":2},{"name":"crown_LOD3","mesh":3}],"meshes":[{"name":"crown_LOD0","primitives":[{"attributes":{"POSITION":0,"NORMAL":1,"TEXCOORD_0":2},"indices":3,"material":0},{"attributes":{"POSITION":4,"NORMAL":5,"TEXCOORD_0":6},"indices":7,"material":1}]},{"name":"crown_LOD1","primitives":[{"attributes":{"POSITION":8,"NORMAL":9,"TEXCOORD_0":10},"indices":11,"material":0},{"attributes":{"POSITION":12,"NORMAL":13,"TEXCOORD_0":14},"indices":15,"material":1}]},{"name":"crown_LOD2","primitives":[{"attributes":{"POSITION":16,"NORMAL":17,"TEXCOORD_0":18},"indices":19,"material":2}]},{"name":"crown_LOD3","primitives":[{"attributes":{"POSITION":20,"NORMAL":21,"TEXCOORD_0":22},"indices":23,"material":2}]}],"buffers":[{"uri":"schlehe_c.bin","byteLength":6063724}],"bufferViews":[{"buffer":0,"byteOffset":0,"byteLength":216936,"target":34962},{"buffer":0,"byteOffset":216936,"byteLength":216936,"target":34962},{"buffer":0,"byteOffset":433872,"byteLength":144624,"target":34962},{"buffer":0,"byteOffset":578496,"byteLength":72000,"target":34963},{"buffer":0,"byteOffset":650496,"byteLength":1037004,"target":34962},{"buffer":0,"byteOffset":1687500,"byteLength":1037004,"target":34962},{"buffer":0,"byteOffset":2724504,"byteLength":691336,"target":34962},{"buffer":0,"byteOffset":3415840,"byteLength":1185456,"target":34963},{"buffer":0,"byteOffset":4601296,"byteLength":46188,"target":34962},{"buffer":0,"byteOffset":4647484,"byteLength":46188,"target":34962},{"buffer":0,"byteOffset":4693672,"byteLength":30792,"target":34962},{"buffer":0,"byteOffset":4724464,"byteLength":19200,"target":34963},{"buffer":0,"byteOffset":4743664,"byteLength":407616,"target":34962},{"buffer":0,"byteOffset":5151280,"byteLength":407616,"target":34962},{"buffer":0,"byteOffset":5558896,"byteLength":271744,"target":34962},{"buffer":0,"byteOffset":5830640,"byteLength":232242,"target":34963},{"buffer":0,"byteOffset":6062884,"byteLength":192,"target":34962},{"buffer":0,"byteOffset":6063076,"byteLength":192,"target":34962},{"buffer":0,"byteOffset":6063268,"byteLength":128,"target":34962},{"buffer":0,"byteOffset":6063396,"byteLength":48,"target":34963},{"buffer":0,"byteOffset":6063444,"byteLength":96,"target":34962},{"buffer":0,"byteOffset":6063540,"byteLength":96,"target":34962},{"buffer":0,"byteOffset":6063636,"byteLength":64,"target":34962},{"buffer":0,"byteOffset":6063700,"byteLength":24,"target":34963}],"accessors":[{"bufferView":0,"componentType":5126,"count":18078,"type":"VEC3","min":[-2.4634768976388663,0.002565633893632413,-2.2185945150475317],"max":[2.4378419374099316,3.954643013379923,2.175547762828109]},{"bufferView":1,"componentType":5126,"count":18078,"type":"VEC3","min":[-0.9997999668121338,-0.9999539256095886,-0.9997023940086365],"max":[0.9999502301216125,0.9999818205833435,0.9999493956565857]},{"bufferView":2,"componentType":5126,"count":18078,"type":"VEC2"},{"bufferView":3,"componentType":5123,"count":36000,"type":"SCALAR","min":[0],"max":[18077]},{"bufferView":4,"componentType":5126,"count":86417,"type":"VEC3","min":[-2.5770702362060547,1.048740267753601,-2.3560988903045654],"max":[2.5136330127716064,3.9031660556793213,2.3425307273864746]},{"bufferView":5,"componentType":5126,"count":86417,"type":"VEC3","min":[-0.9999845623970032,-0.9999924302101135,-0.9999912977218628],"max":[0.9999902844429016,0.9999727010726929,0.9998821020126343]},{"bufferView":6,"componentType":5126,"count":86417,"type":"VEC2"},{"bufferView":7,"componentType":5125,"count":296364,"type":"SCALAR","min":[0],"max":[86416]},{"bufferView":8,"componentType":5126,"count":3849,"type":"VEC3","min":[-2.1666094050320965,0.0031729656325228195,-2.056266473163838],"max":[2.240807550228019,3.834795894266487,2.012483032029553]},{"bufferView":9,"componentType":5126,"count":3849,"type":"VEC3","min":[-0.9995165467262268,-0.999847412109375,-0.9990796446800232],"max":[0.9996681213378906,0.9998897314071655,0.999189555644989]},{"bufferView":10,"componentType":5126,"count":3849,"type":"VEC2"},{"bufferView":11,"componentType":5123,"count":9600,"type":"SCALAR","min":[0],"max":[3848]},{"bufferView":12,"componentType":5126,"count":33968,"type":"VEC3","min":[-2.588623285293579,1.044593334197998,-2.366332530975342],"max":[2.4437780380249023,3.9087462425231934,2.354853391647339]},{"bufferView":13,"componentType":5126,"count":33968,"type":"VEC3","min":[-0.9999127388000488,-0.9999924302101135,-0.9993123412132263],"max":[0.9999620914459229,0.9999727010726929,0.9997591376304626]},{"bufferView":14,"componentType":5126,"count":33968,"type":"VEC2"},{"bufferView":15,"componentType":5123,"count":116121,"type":"SCALAR","min":[0],"max":[33967]},{"bufferView":16,"componentType":5126,"count":16,"type":"VEC3","min":[-2.8600000000000003,0,-2.8600000000000003],"max":[2.8600000000000003,4.0,2.8600000000000003]},{"bufferView":17,"componentType":5126,"count":16,"type":"VEC3","min":[-1.0,0,-0.7071067811865475],"max":[-0.0,0,1.0]},{"bufferView":18,"componentType":5126,"count":16,"type":"VEC2"},{"bufferView":19,"componentType":5123,"count":24,"type":"SCALAR","min":[0],"max":[15]},{"bufferView":20,"componentType":5126,"count":8,"type":"VEC3","min":[-2.8600000000000003,0,-2.8600000000000003],"max":[2.8600000000000003,4.0,2.8600000000000003]},{"bufferView":21,"componentType":5126,"count":8,"type":"VEC3","min":[-1.0,0,6.123233995736766e-17],"max":[-0.0,0,1.0]},{"bufferView":22,"componentType":5126,"count":8,"type":"VEC2"},{"bufferView":23,"componentType":5123,"count":12,"type":"SCALAR","min":[0],"max":[7]}],"samplers":[{"magFilter":9729,"minFilter":9987,"wrapS":10497,"wrapT":10497}],"images":[{"uri":"textures/bark_broadleaf.jpg"},{"uri":"textures/foliage_broadleaf.jpg"},{"uri":"impostors/schlehe_c_summer.png"}],"textures":[{"source":0,"sampler":0},{"source":1,"sampler":0},{"source":2,"sampler":0}],"materials":[{"name":"bark","pbrMetallicRoughness":{"baseColorFactor":[0.82,0.82,0.82,1.0],"baseColorTexture":{"index":0},"metallicFactor":0.0,"roughnessFactor":0.91},"doubleSided":false},{"name":"foliage","pbrMetallicRoughness":{"baseColorFactor":[0.6833333333333333,0.8916666666666667,0.6233333333333333,1.0],"baseColorTexture":{"index":1},"metallicFactor":0.0,"roughnessFactor":0.78},"doubleSided":true},{"name":"whole_tree_impostor","pbrMetallicRoughness":{"baseColorFactor":[1,1,1,1],"baseColorTexture":{"index":2},"metallicFactor":0.0,"roughnessFactor":0.92},"doubleSided":true,"alphaMode":"MASK","alphaCutoff":0.18}]}