{"asset":{"version":"2.0","generator":"Connected Rails CC0 tree importer","copyright":"Mantissa and Poly Haven source models: CC0 1.0; optimisation: Connected Rails"},"scene":0,"scenes":[{"nodes":[0,1,2,3]}],"nodes":[{"name":"crown_LOD0","mesh":0},{"name":"crown_LOD1","mesh":1},{"name":"crown_LOD2","mesh":2},{"name":"crown_LOD3","mesh":3}],"meshes":[{"name":"crown_LOD0","primitives":[{"attributes":{"POSITION":0,"NORMAL":1,"TEXCOORD_0":2},"indices":3,"material":0},{"attributes":{"POSITION":4,"NORMAL":5,"TEXCOORD_0":6},"indices":7,"material":1}]},{"name":"crown_LOD1","primitives":[{"attributes":{"POSITION":8,"NORMAL":9,"TEXCOORD_0":10},"indices":11,"material":0},{"attributes":{"POSITION":12,"NORMAL":13,"TEXCOORD_0":14},"indices":15,"material":1}]},{"name":"crown_LOD2","primitives":[{"attributes":{"POSITION":16,"NORMAL":17,"TEXCOORD_0":18},"indices":19,"material":2}]},{"name":"crown_LOD3","primitives":[{"attributes":{"POSITION":20,"NORMAL":21,"TEXCOORD_0":22},"indices":23,"material":2}]}],"buffers":[{"uri":"silberweide_a.bin","byteLength":8122600}],"bufferViews":[{"buffer":0,"byteOffset":0,"byteLength":221892,"target":34962},{"buffer":0,"byteOffset":221892,"byteLength":221892,"target":34962},{"buffer":0,"byteOffset":443784,"byteLength":147928,"target":34962},{"buffer":0,"byteOffset":591712,"byteLength":72000,"target":34963},{"buffer":0,"byteOffset":663712,"byteLength":1504368,"target":34962},{"buffer":0,"byteOffset":2168080,"byteLength":1504368,"target":34962},{"buffer":0,"byteOffset":3672448,"byteLength":1002912,"target":34962},{"buffer":0,"byteOffset":4675360,"byteLength":1719900,"target":34963},{"buffer":0,"byteOffset":6395260,"byteLength":43308,"target":34962},{"buffer":0,"byteOffset":6438568,"byteLength":43308,"target":34962},{"buffer":0,"byteOffset":6481876,"byteLength":28872,"target":34962},{"buffer":0,"byteOffset":6510748,"byteLength":19200,"target":34963},{"buffer":0,"byteOffset":6529948,"byteLength":491856,"target":34962},{"buffer":0,"byteOffset":7021804,"byteLength":491856,"target":34962},{"buffer":0,"byteOffset":7513660,"byteLength":327904,"target":34962},{"buffer":0,"byteOffset":7841564,"byteLength":280194,"target":34963},{"buffer":0,"byteOffset":8121760,"byteLength":192,"target":34962},{"buffer":0,"byteOffset":8121952,"byteLength":192,"target":34962},{"buffer":0,"byteOffset":8122144,"byteLength":128,"target":34962},{"buffer":0,"byteOffset":8122272,"byteLength":48,"target":34963},{"buffer":0,"byteOffset":8122320,"byteLength":96,"target":34962},{"buffer":0,"byteOffset":8122416,"byteLength":96,"target":34962},{"buffer":0,"byteOffset":8122512,"byteLength":64,"target":34962},{"buffer":0,"byteOffset":8122576,"byteLength":24,"target":34963}],"accessors":[{"bufferView":0,"componentType":5126,"count":18491,"type":"VEC3","min":[-5.30336860436719,0.008828377904317862,-5.942697793036255],"max":[5.2988742471590875,13.852241387191743,5.963344656495509]},{"bufferView":1,"componentType":5126,"count":18491,"type":"VEC3","min":[-0.9999551177024841,-0.9999970197677612,-0.9998099207878113],"max":[0.9997832179069519,0.9998912811279297,0.9996576905250549]},{"bufferView":2,"componentType":5126,"count":18491,"type":"VEC2"},{"bufferView":3,"componentType":5123,"count":36000,"type":"SCALAR","min":[0],"max":[18490]},{"bufferView":4,"componentType":5126,"count":125364,"type":"VEC3","min":[-5.536564350128174,3.380692720413208,-5.991352558135986],"max":[5.632297992706299,13.840362548828125,6.289093971252441]},{"bufferView":5,"componentType":5126,"count":125364,"type":"VEC3","min":[-0.9999725222587585,-0.9999792575836182,-0.9999344348907471],"max":[0.9999480843544006,0.9999926686286926,0.9999809861183167]},{"bufferView":6,"componentType":5126,"count":125364,"type":"VEC2"},{"bufferView":7,"componentType":5125,"count":429975,"type":"SCALAR","min":[0],"max":[125363]},{"bufferView":8,"componentType":5126,"count":3609,"type":"VEC3","min":[-5.30336860436719,0.010978570371916725,-5.498449673517488],"max":[5.178358576332348,13.852241387191743,5.5548240882384885]},{"bufferView":9,"componentType":5126,"count":3609,"type":"VEC3","min":[-0.9999551177024841,-0.9992589950561523,-0.9988669157028198],"max":[0.9998968839645386,0.9998566508293152,0.9995518922805786]},{"bufferView":10,"componentType":5126,"count":3609,"type":"VEC2"},{"bufferView":11,"componentType":5123,"count":9600,"type":"SCALAR","min":[0],"max":[3608]},{"bufferView":12,"componentType":5126,"count":40988,"type":"VEC3","min":[-5.587869644165039,3.3400251865386963,-6.040398120880127],"max":[5.673858642578125,13.865228652954102,5.844439506530762]},{"bufferView":13,"componentType":5126,"count":40988,"type":"VEC3","min":[-0.9999656677246094,-0.9999792575836182,-0.9998558163642883],"max":[0.9999144673347473,0.9999646544456482,0.9999809861183167]},{"bufferView":14,"componentType":5126,"count":40988,"type":"VEC2"},{"bufferView":15,"componentType":5123,"count":140097,"type":"SCALAR","min":[0],"max":[40987]},{"bufferView":16,"componentType":5126,"count":16,"type":"VEC3","min":[-6.930000000000001,0,-6.930000000000001],"max":[6.930000000000001,14.0,6.930000000000001]},{"bufferView":17,"componentType":5126,"count":16,"type":"VEC3","min":[-1.0,0,-0.7071067811865475],"max":[-0.0,0,1.0]},{"bufferView":18,"componentType":5126,"count":16,"type":"VEC2"},{"bufferView":19,"componentType":5123,"count":24,"type":"SCALAR","min":[0],"max":[15]},{"bufferView":20,"componentType":5126,"count":8,"type":"VEC3","min":[-6.930000000000001,0,-6.930000000000001],"max":[6.930000000000001,14.0,6.930000000000001]},{"bufferView":21,"componentType":5126,"count":8,"type":"VEC3","min":[-1.0,0,6.123233995736766e-17],"max":[-0.0,0,1.0]},{"bufferView":22,"componentType":5126,"count":8,"type":"VEC2"},{"bufferView":23,"componentType":5123,"count":12,"type":"SCALAR","min":[0],"max":[7]}],"samplers":[{"magFilter":9729,"minFilter":9987,"wrapS":10497,"wrapT":10497}],"images":[{"uri":"textures/bark_broadleaf.jpg"},{"uri":"textures/foliage_broadleaf.jpg"},{"uri":"impostors/silberweide_a_autumn.png"}],"textures":[{"source":0,"sampler":0},{"source":1,"sampler":0},{"source":2,"sampler":0}],"materials":[{"name":"bark","pbrMetallicRoughness":{"baseColorFactor":[0.82,0.82,0.82,1.0],"baseColorTexture":{"index":0},"metallicFactor":0.0,"roughnessFactor":0.91},"doubleSided":false},{"name":"foliage","pbrMetallicRoughness":{"baseColorFactor":[0.8,0.62,0.18,1.0],"baseColorTexture":{"index":1},"metallicFactor":0.0,"roughnessFactor":0.78},"doubleSided":true},{"name":"whole_tree_impostor","pbrMetallicRoughness":{"baseColorFactor":[1,1,1,1],"baseColorTexture":{"index":2},"metallicFactor":0.0,"roughnessFactor":0.92},"doubleSided":true,"alphaMode":"MASK","alphaCutoff":0.18}]}