{"asset":{"version":"2.0","generator":"Connected Rails CC0 tree importer","copyright":"Mantissa and Poly Haven source models: CC0 1.0; optimisation: Connected Rails"},"scene":0,"scenes":[{"nodes":[0,1,2,3]}],"nodes":[{"name":"crown_LOD0","mesh":0},{"name":"crown_LOD1","mesh":1},{"name":"crown_LOD2","mesh":2},{"name":"crown_LOD3","mesh":3}],"meshes":[{"name":"crown_LOD0","primitives":[{"attributes":{"POSITION":0,"NORMAL":1,"TEXCOORD_0":2},"indices":3,"material":1}]},{"name":"crown_LOD1","primitives":[{"attributes":{"POSITION":4,"NORMAL":5,"TEXCOORD_0":6},"indices":7,"material":1}]},{"name":"crown_LOD2","primitives":[{"attributes":{"POSITION":8,"NORMAL":9,"TEXCOORD_0":10},"indices":11,"material":2}]},{"name":"crown_LOD3","primitives":[{"attributes":{"POSITION":12,"NORMAL":13,"TEXCOORD_0":14},"indices":15,"material":2}]}],"buffers":[{"uri":"stechpalme_a.bin","byteLength":5929492}],"bufferViews":[{"buffer":0,"byteOffset":0,"byteLength":1149252,"target":34962},{"buffer":0,"byteOffset":1149252,"byteLength":1149252,"target":34962},{"buffer":0,"byteOffset":2298504,"byteLength":766168,"target":34962},{"buffer":0,"byteOffset":3064672,"byteLength":931236,"target":34963},{"buffer":0,"byteOffset":3995908,"byteLength":641256,"target":34962},{"buffer":0,"byteOffset":4637164,"byteLength":641256,"target":34962},{"buffer":0,"byteOffset":5278420,"byteLength":427504,"target":34962},{"buffer":0,"byteOffset":5705924,"byteLength":222726,"target":34963},{"buffer":0,"byteOffset":5928652,"byteLength":192,"target":34962},{"buffer":0,"byteOffset":5928844,"byteLength":192,"target":34962},{"buffer":0,"byteOffset":5929036,"byteLength":128,"target":34962},{"buffer":0,"byteOffset":5929164,"byteLength":48,"target":34963},{"buffer":0,"byteOffset":5929212,"byteLength":96,"target":34962},{"buffer":0,"byteOffset":5929308,"byteLength":96,"target":34962},{"buffer":0,"byteOffset":5929404,"byteLength":64,"target":34962},{"buffer":0,"byteOffset":5929468,"byteLength":24,"target":34963}],"accessors":[{"bufferView":0,"componentType":5126,"count":95771,"type":"VEC3","min":[-0.9,0.0,-0.7451428754715693],"max":[0.9,2.0,0.7451428754715693]},{"bufferView":1,"componentType":5126,"count":95771,"type":"VEC3","min":[-0.9999643564224243,-0.9997889399528503,-0.9999387264251709],"max":[0.999992847442627,0.9999896883964539,0.9999873042106628]},{"bufferView":2,"componentType":5126,"count":95771,"type":"VEC2"},{"bufferView":3,"componentType":5125,"count":232809,"type":"SCALAR","min":[0],"max":[95770]},{"bufferView":4,"componentType":5126,"count":53438,"type":"VEC3","min":[-0.8958857097351375,-0.0009233632866205743,-0.7486941740608273],"max":[0.9066078641551696,2.001316678244735,0.7461374609171814]},{"bufferView":5,"componentType":5126,"count":53438,"type":"VEC3","min":[-0.9999721050262451,-0.9997888803482056,-0.9998801946640015],"max":[0.9999030828475952,0.99997878074646,0.9997619986534119]},{"bufferView":6,"componentType":5126,"count":53438,"type":"VEC2"},{"bufferView":7,"componentType":5123,"count":111363,"type":"SCALAR","min":[0],"max":[53437]},{"bufferView":8,"componentType":5126,"count":16,"type":"VEC3","min":[-0.9900000000000001,0,-0.9900000000000001],"max":[0.9900000000000001,2.0,0.9900000000000001]},{"bufferView":9,"componentType":5126,"count":16,"type":"VEC3","min":[-1.0,0,-0.7071067811865475],"max":[-0.0,0,1.0]},{"bufferView":10,"componentType":5126,"count":16,"type":"VEC2"},{"bufferView":11,"componentType":5123,"count":24,"type":"SCALAR","min":[0],"max":[15]},{"bufferView":12,"componentType":5126,"count":8,"type":"VEC3","min":[-0.9900000000000001,0,-0.9900000000000001],"max":[0.9900000000000001,2.0,0.9900000000000001]},{"bufferView":13,"componentType":5126,"count":8,"type":"VEC3","min":[-1.0,0,6.123233995736766e-17],"max":[-0.0,0,1.0]},{"bufferView":14,"componentType":5126,"count":8,"type":"VEC2"},{"bufferView":15,"componentType":5123,"count":12,"type":"SCALAR","min":[0],"max":[7]}],"samplers":[{"magFilter":9729,"minFilter":9987,"wrapS":10497,"wrapT":10497}],"images":[{"uri":"textures/poly_searsia_lucida.png"},{"uri":"textures/poly_searsia_lucida.png"},{"uri":"impostors/stechpalme_a_summer.png"}],"textures":[{"source":0,"sampler":0},{"source":1,"sampler":0},{"source":2,"sampler":0}],"materials":[{"name":"bark","pbrMetallicRoughness":{"baseColorFactor":[0.82,0.82,0.82,1.0],"baseColorTexture":{"index":0},"metallicFactor":0.0,"roughnessFactor":0.91},"doubleSided":false},{"name":"foliage","pbrMetallicRoughness":{"baseColorFactor":[0.5994117647058823,1.0,0.7594117647058823,1.0],"baseColorTexture":{"index":1},"metallicFactor":0.0,"roughnessFactor":0.78},"doubleSided":true,"alphaMode":"MASK","alphaCutoff":0.18},{"name":"whole_tree_impostor","pbrMetallicRoughness":{"baseColorFactor":[1,1,1,1],"baseColorTexture":{"index":2},"metallicFactor":0.0,"roughnessFactor":0.92},"doubleSided":true,"alphaMode":"MASK","alphaCutoff":0.18}]}