{
 "asset": {
  "version": "2.0",
  "generator": "tools/trees/build_trees.mjs (Connected Rails, geometry by ez-tree)",
  "copyright": "Connected Rails contributors, EUPL-1.2. Generated with ez-tree (MIT, Daniel Greenheck)."
 },
 "scene": 0,
 "scenes": [
  {
   "name": "stieleiche_c",
   "nodes": [
    0,
    1,
    2,
    3
   ]
  }
 ],
 "nodes": [
  {
   "name": "crown_LOD0",
   "mesh": 0
  },
  {
   "name": "crown_LOD1",
   "mesh": 1
  },
  {
   "name": "crown_LOD2",
   "mesh": 2
  },
  {
   "name": "crown_LOD3",
   "mesh": 3
  }
 ],
 "meshes": [
  {
   "name": "crown_LOD0",
   "primitives": [
    {
     "attributes": {
      "POSITION": 0,
      "NORMAL": 1,
      "TEXCOORD_0": 2
     },
     "indices": 3,
     "material": 0
    }
   ]
  },
  {
   "name": "crown_LOD1",
   "primitives": [
    {
     "attributes": {
      "POSITION": 4,
      "NORMAL": 5,
      "TEXCOORD_0": 6
     },
     "indices": 7,
     "material": 0
    }
   ]
  },
  {
   "name": "crown_LOD2",
   "primitives": [
    {
     "attributes": {
      "POSITION": 8,
      "NORMAL": 9,
      "TEXCOORD_0": 10
     },
     "indices": 11,
     "material": 0
    }
   ]
  },
  {
   "name": "crown_LOD3",
   "primitives": [
    {
     "attributes": {
      "POSITION": 12,
      "NORMAL": 13,
      "TEXCOORD_0": 14
     },
     "indices": 15,
     "material": 0
    }
   ]
  }
 ],
 "materials": [
  {
   "name": "stieleiche_winter",
   "pbrMetallicRoughness": {
    "baseColorTexture": {
     "index": 0
    },
    "baseColorFactor": [
     1,
     1,
     1,
     1
    ],
    "metallicFactor": 0,
    "roughnessFactor": 0.9
   },
   "alphaMode": "MASK",
   "alphaCutoff": 0.5,
   "doubleSided": true
  }
 ],
 "textures": [
  {
   "source": 0,
   "sampler": 0
  }
 ],
 "images": [
  {
   "uri": "stieleiche_winter.png"
  }
 ],
 "samplers": [
  {
   "magFilter": 9729,
   "minFilter": 9987,
   "wrapS": 33071,
   "wrapT": 33071
  }
 ],
 "accessors": [
  {
   "bufferView": 0,
   "componentType": 5126,
   "count": 3756,
   "type": "VEC3",
   "min": [
    -6.338173734451539,
    0,
    -10.697361426321468
   ],
   "max": [
    11.596849866081707,
    23.001780971343745,
    11.25017188362655
   ]
  },
  {
   "bufferView": 1,
   "componentType": 5126,
   "count": 3756,
   "type": "VEC3"
  },
  {
   "bufferView": 2,
   "componentType": 5126,
   "count": 3756,
   "type": "VEC2"
  },
  {
   "bufferView": 3,
   "componentType": 5123,
   "count": 13098,
   "type": "SCALAR"
  },
  {
   "bufferView": 4,
   "componentType": 5126,
   "count": 702,
   "type": "VEC3",
   "min": [
    -5.534153225653117,
    0,
    -10.136331932794244
   ],
   "max": [
    10.717746549298921,
    22.359408153668554,
    11.00699033806144
   ]
  },
  {
   "bufferView": 5,
   "componentType": 5126,
   "count": 702,
   "type": "VEC3"
  },
  {
   "bufferView": 6,
   "componentType": 5126,
   "count": 702,
   "type": "VEC2"
  },
  {
   "bufferView": 7,
   "componentType": 5123,
   "count": 2214,
   "type": "SCALAR"
  },
  {
   "bufferView": 8,
   "componentType": 5126,
   "count": 80,
   "type": "VEC3",
   "min": [
    -3.9733716540024173,
    0,
    -6.893579391854583
   ],
   "max": [
    7.141941551159682,
    20.5419857765681,
    8.54069426429723
   ]
  },
  {
   "bufferView": 9,
   "componentType": 5126,
   "count": 80,
   "type": "VEC3"
  },
  {
   "bufferView": 10,
   "componentType": 5126,
   "count": 80,
   "type": "VEC2"
  },
  {
   "bufferView": 11,
   "componentType": 5123,
   "count": 198,
   "type": "SCALAR"
  },
  {
   "bufferView": 12,
   "componentType": 5126,
   "count": 8,
   "type": "VEC3",
   "min": [
    -11.596849866081707,
    0,
    -11.596849866081707
   ],
   "max": [
    11.596849866081707,
    23.001780971343745,
    11.596849866081707
   ]
  },
  {
   "bufferView": 13,
   "componentType": 5126,
   "count": 8,
   "type": "VEC3"
  },
  {
   "bufferView": 14,
   "componentType": 5126,
   "count": 8,
   "type": "VEC2"
  },
  {
   "bufferView": 15,
   "componentType": 5123,
   "count": 12,
   "type": "SCALAR"
  }
 ],
 "bufferViews": [
  {
   "buffer": 0,
   "byteOffset": 0,
   "byteLength": 45072,
   "target": 34962,
   "byteStride": 12
  },
  {
   "buffer": 0,
   "byteOffset": 45072,
   "byteLength": 45072,
   "target": 34962,
   "byteStride": 12
  },
  {
   "buffer": 0,
   "byteOffset": 90144,
   "byteLength": 30048,
   "target": 34962,
   "byteStride": 8
  },
  {
   "buffer": 0,
   "byteOffset": 120192,
   "byteLength": 26196,
   "target": 34963
  },
  {
   "buffer": 0,
   "byteOffset": 146388,
   "byteLength": 8424,
   "target": 34962,
   "byteStride": 12
  },
  {
   "buffer": 0,
   "byteOffset": 154812,
   "byteLength": 8424,
   "target": 34962,
   "byteStride": 12
  },
  {
   "buffer": 0,
   "byteOffset": 163236,
   "byteLength": 5616,
   "target": 34962,
   "byteStride": 8
  },
  {
   "buffer": 0,
   "byteOffset": 168852,
   "byteLength": 4428,
   "target": 34963
  },
  {
   "buffer": 0,
   "byteOffset": 173280,
   "byteLength": 960,
   "target": 34962,
   "byteStride": 12
  },
  {
   "buffer": 0,
   "byteOffset": 174240,
   "byteLength": 960,
   "target": 34962,
   "byteStride": 12
  },
  {
   "buffer": 0,
   "byteOffset": 175200,
   "byteLength": 640,
   "target": 34962,
   "byteStride": 8
  },
  {
   "buffer": 0,
   "byteOffset": 175840,
   "byteLength": 396,
   "target": 34963
  },
  {
   "buffer": 0,
   "byteOffset": 176236,
   "byteLength": 96,
   "target": 34962,
   "byteStride": 12
  },
  {
   "buffer": 0,
   "byteOffset": 176332,
   "byteLength": 96,
   "target": 34962,
   "byteStride": 12
  },
  {
   "buffer": 0,
   "byteOffset": 176428,
   "byteLength": 64,
   "target": 34962,
   "byteStride": 8
  },
  {
   "buffer": 0,
   "byteOffset": 176492,
   "byteLength": 24,
   "target": 34963
  }
 ],
 "buffers": [
  {
   "uri": "stieleiche_c_winter.bin",
   "byteLength": 176516
  }
 ]
}
