{"asset":{"version":"2.0","generator":"Connected Rails CC0 tree importer","copyright":"Mantissa and Poly Haven source models: CC0 1.0; optimisation: Connected Rails"},"scene":0,"scenes":[{"nodes":[0,1,2,3]}],"nodes":[{"name":"crown_LOD0","mesh":0},{"name":"crown_LOD1","mesh":1},{"name":"crown_LOD2","mesh":2},{"name":"crown_LOD3","mesh":3}],"meshes":[{"name":"crown_LOD0","primitives":[{"attributes":{"POSITION":0,"NORMAL":1,"TEXCOORD_0":2},"indices":3,"material":0},{"attributes":{"POSITION":4,"NORMAL":5,"TEXCOORD_0":6},"indices":7,"material":1}]},{"name":"crown_LOD1","primitives":[{"attributes":{"POSITION":8,"NORMAL":9,"TEXCOORD_0":10},"indices":11,"material":0},{"attributes":{"POSITION":12,"NORMAL":13,"TEXCOORD_0":14},"indices":15,"material":1}]},{"name":"crown_LOD2","primitives":[{"attributes":{"POSITION":16,"NORMAL":17,"TEXCOORD_0":18},"indices":19,"material":2}]},{"name":"crown_LOD3","primitives":[{"attributes":{"POSITION":20,"NORMAL":21,"TEXCOORD_0":22},"indices":23,"material":2}]}],"buffers":[{"uri":"vogelkirsche_b.bin","byteLength":8135804}],"bufferViews":[{"buffer":0,"byteOffset":0,"byteLength":218148,"target":34962},{"buffer":0,"byteOffset":218148,"byteLength":218148,"target":34962},{"buffer":0,"byteOffset":436296,"byteLength":145432,"target":34962},{"buffer":0,"byteOffset":581728,"byteLength":72000,"target":34963},{"buffer":0,"byteOffset":653728,"byteLength":1508496,"target":34962},{"buffer":0,"byteOffset":2162224,"byteLength":1508496,"target":34962},{"buffer":0,"byteOffset":3670720,"byteLength":1005664,"target":34962},{"buffer":0,"byteOffset":4676384,"byteLength":1724748,"target":34963},{"buffer":0,"byteOffset":6401132,"byteLength":43872,"target":34962},{"buffer":0,"byteOffset":6445004,"byteLength":43872,"target":34962},{"buffer":0,"byteOffset":6488876,"byteLength":29248,"target":34962},{"buffer":0,"byteOffset":6518124,"byteLength":19200,"target":34963},{"buffer":0,"byteOffset":6537324,"byteLength":493644,"target":34962},{"buffer":0,"byteOffset":7030968,"byteLength":493644,"target":34962},{"buffer":0,"byteOffset":7524612,"byteLength":329096,"target":34962},{"buffer":0,"byteOffset":7853708,"byteLength":281256,"target":34963},{"buffer":0,"byteOffset":8134964,"byteLength":192,"target":34962},{"buffer":0,"byteOffset":8135156,"byteLength":192,"target":34962},{"buffer":0,"byteOffset":8135348,"byteLength":128,"target":34962},{"buffer":0,"byteOffset":8135476,"byteLength":48,"target":34963},{"buffer":0,"byteOffset":8135524,"byteLength":96,"target":34962},{"buffer":0,"byteOffset":8135620,"byteLength":96,"target":34962},{"buffer":0,"byteOffset":8135716,"byteLength":64,"target":34962},{"buffer":0,"byteOffset":8135780,"byteLength":24,"target":34963}],"accessors":[{"bufferView":0,"componentType":5126,"count":18179,"type":"VEC3","min":[-4.503476631189857,0.005001224815510336,-4.083900647496548],"max":[4.493818803291132,15.786714761571352,4.058989734978518]},{"bufferView":1,"componentType":5126,"count":18179,"type":"VEC3","min":[-0.9999342560768127,-0.999808132648468,-0.9998947381973267],"max":[0.9999300837516785,0.9999666810035706,0.9996466040611267]},{"bufferView":2,"componentType":5126,"count":18179,"type":"VEC2"},{"bufferView":3,"componentType":5123,"count":36000,"type":"SCALAR","min":[0],"max":[18178]},{"bufferView":4,"componentType":5126,"count":125708,"type":"VEC3","min":[-4.7924394607543945,5.379461288452148,-4.3058977127075195],"max":[4.592128753662109,15.836384773254395,4.332442760467529]},{"bufferView":5,"componentType":5126,"count":125708,"type":"VEC3","min":[-0.999959409236908,-0.9999989867210388,-0.9999808669090271],"max":[0.9999485015869141,0.9999703168869019,0.9999897480010986]},{"bufferView":6,"componentType":5126,"count":125708,"type":"VEC2"},{"bufferView":7,"componentType":5125,"count":431187,"type":"SCALAR","min":[0],"max":[125707]},{"bufferView":8,"componentType":5126,"count":3656,"type":"VEC3","min":[-4.003713076596461,0.00308309322670096,-3.64780162124556],"max":[4.040246450032783,15.392143454234647,3.749612126938902]},{"bufferView":9,"componentType":5126,"count":3656,"type":"VEC3","min":[-0.9997564554214478,-0.9983925819396973,-0.9985207319259644],"max":[0.9998834133148193,0.9999666810035706,0.9994341731071472]},{"bufferView":10,"componentType":5126,"count":3656,"type":"VEC2"},{"bufferView":11,"componentType":5123,"count":9600,"type":"SCALAR","min":[0],"max":[3655]},{"bufferView":12,"componentType":5126,"count":41137,"type":"VEC3","min":[-4.626620769500732,5.331601142883301,-4.335564613342285],"max":[4.428236484527588,15.753040313720703,4.365589618682861]},{"bufferView":13,"componentType":5126,"count":41137,"type":"VEC3","min":[-0.9997296333312988,-0.9999883770942688,-0.9993890523910522],"max":[0.9998787641525269,0.9999526143074036,0.9999890327453613]},{"bufferView":14,"componentType":5126,"count":41137,"type":"VEC2"},{"bufferView":15,"componentType":5123,"count":140628,"type":"SCALAR","min":[0],"max":[41136]},{"bufferView":16,"componentType":5126,"count":16,"type":"VEC3","min":[-5.28,0,-5.28],"max":[5.28,16.0,5.28]},{"bufferView":17,"componentType":5126,"count":16,"type":"VEC3","min":[-1.0,0,-0.7071067811865475],"max":[-0.0,0,1.0]},{"bufferView":18,"componentType":5126,"count":16,"type":"VEC2"},{"bufferView":19,"componentType":5123,"count":24,"type":"SCALAR","min":[0],"max":[15]},{"bufferView":20,"componentType":5126,"count":8,"type":"VEC3","min":[-5.28,0,-5.28],"max":[5.28,16.0,5.28]},{"bufferView":21,"componentType":5126,"count":8,"type":"VEC3","min":[-1.0,0,6.123233995736766e-17],"max":[-0.0,0,1.0]},{"bufferView":22,"componentType":5126,"count":8,"type":"VEC2"},{"bufferView":23,"componentType":5123,"count":12,"type":"SCALAR","min":[0],"max":[7]}],"samplers":[{"magFilter":9729,"minFilter":9987,"wrapS":10497,"wrapT":10497}],"images":[{"uri":"textures/bark_cherry.jpg"},{"uri":"textures/foliage_broadleaf.jpg"},{"uri":"impostors/vogelkirsche_b_summer.png"}],"textures":[{"source":0,"sampler":0},{"source":1,"sampler":0},{"source":2,"sampler":0}],"materials":[{"name":"bark","pbrMetallicRoughness":{"baseColorFactor":[0.82,0.82,0.82,1.0],"baseColorTexture":{"index":0},"metallicFactor":0.0,"roughnessFactor":0.91},"doubleSided":false},{"name":"foliage","pbrMetallicRoughness":{"baseColorFactor":[0.6837254901960784,0.8918627450980392,0.6237254901960784,1.0],"baseColorTexture":{"index":1},"metallicFactor":0.0,"roughnessFactor":0.78},"doubleSided":true},{"name":"whole_tree_impostor","pbrMetallicRoughness":{"baseColorFactor":[1,1,1,1],"baseColorTexture":{"index":2},"metallicFactor":0.0,"roughnessFactor":0.92},"doubleSided":true,"alphaMode":"MASK","alphaCutoff":0.18}]}