{"asset":{"version":"2.0","generator":"Connected Rails CC0 tree importer","copyright":"Mantissa and Poly Haven source models: CC0 1.0; optimisation: Connected Rails"},"scene":0,"scenes":[{"nodes":[0,1,2,3]}],"nodes":[{"name":"crown_LOD0","mesh":0},{"name":"crown_LOD1","mesh":1},{"name":"crown_LOD2","mesh":2},{"name":"crown_LOD3","mesh":3}],"meshes":[{"name":"crown_LOD0","primitives":[{"attributes":{"POSITION":0,"NORMAL":1,"TEXCOORD_0":2},"indices":3,"material":0},{"attributes":{"POSITION":4,"NORMAL":5,"TEXCOORD_0":6},"indices":7,"material":1}]},{"name":"crown_LOD1","primitives":[{"attributes":{"POSITION":8,"NORMAL":9,"TEXCOORD_0":10},"indices":11,"material":0},{"attributes":{"POSITION":12,"NORMAL":13,"TEXCOORD_0":14},"indices":15,"material":1}]},{"name":"crown_LOD2","primitives":[{"attributes":{"POSITION":16,"NORMAL":17,"TEXCOORD_0":18},"indices":19,"material":2}]},{"name":"crown_LOD3","primitives":[{"attributes":{"POSITION":20,"NORMAL":21,"TEXCOORD_0":22},"indices":23,"material":2}]}],"buffers":[{"uri":"vogelkirsche_c.bin","byteLength":8069664}],"bufferViews":[{"buffer":0,"byteOffset":0,"byteLength":211572,"target":34962},{"buffer":0,"byteOffset":211572,"byteLength":211572,"target":34962},{"buffer":0,"byteOffset":423144,"byteLength":141048,"target":34962},{"buffer":0,"byteOffset":564192,"byteLength":72000,"target":34963},{"buffer":0,"byteOffset":636192,"byteLength":1502448,"target":34962},{"buffer":0,"byteOffset":2138640,"byteLength":1502448,"target":34962},{"buffer":0,"byteOffset":3641088,"byteLength":1001632,"target":34962},{"buffer":0,"byteOffset":4642720,"byteLength":1720644,"target":34963},{"buffer":0,"byteOffset":6363364,"byteLength":43500,"target":34962},{"buffer":0,"byteOffset":6406864,"byteLength":43500,"target":34962},{"buffer":0,"byteOffset":6450364,"byteLength":29000,"target":34962},{"buffer":0,"byteOffset":6479364,"byteLength":19188,"target":34963},{"buffer":0,"byteOffset":6498552,"byteLength":485244,"target":34962},{"buffer":0,"byteOffset":6983796,"byteLength":485244,"target":34962},{"buffer":0,"byteOffset":7469040,"byteLength":323496,"target":34962},{"buffer":0,"byteOffset":7792536,"byteLength":276288,"target":34963},{"buffer":0,"byteOffset":8068824,"byteLength":192,"target":34962},{"buffer":0,"byteOffset":8069016,"byteLength":192,"target":34962},{"buffer":0,"byteOffset":8069208,"byteLength":128,"target":34962},{"buffer":0,"byteOffset":8069336,"byteLength":48,"target":34963},{"buffer":0,"byteOffset":8069384,"byteLength":96,"target":34962},{"buffer":0,"byteOffset":8069480,"byteLength":96,"target":34962},{"buffer":0,"byteOffset":8069576,"byteLength":64,"target":34962},{"buffer":0,"byteOffset":8069640,"byteLength":24,"target":34963}],"accessors":[{"bufferView":0,"componentType":5126,"count":17631,"type":"VEC3","min":[-5.548695100567232,0.00816502682606571,-5.199615926948812],"max":[5.6546466452658,19.769650066501843,5.397754864770281]},{"bufferView":1,"componentType":5126,"count":17631,"type":"VEC3","min":[-0.9999905824661255,-0.9999003410339355,-0.999773383140564],"max":[0.9999055862426758,0.9999476075172424,0.9997097253799438]},{"bufferView":2,"componentType":5126,"count":17631,"type":"VEC2"},{"bufferView":3,"componentType":5123,"count":36000,"type":"SCALAR","min":[0],"max":[17630]},{"bufferView":4,"componentType":5126,"count":125204,"type":"VEC3","min":[-5.798543930053711,3.264251470565796,-5.479020595550537],"max":[5.941792011260986,19.97027587890625,5.629522323608398]},{"bufferView":5,"componentType":5126,"count":125204,"type":"VEC3","min":[-0.9999125003814697,-0.9999773502349854,-0.9999915957450867],"max":[0.999984085559845,0.9999697804450989,0.9999993443489075]},{"bufferView":6,"componentType":5126,"count":125204,"type":"VEC2"},{"bufferView":7,"componentType":5125,"count":430161,"type":"SCALAR","min":[0],"max":[125203]},{"bufferView":8,"componentType":5126,"count":3625,"type":"VEC3","min":[-5.548695100567232,0.02986020439356994,-5.108604734536555],"max":[5.32276871678192,19.769650066501843,5.397754864770281]},{"bufferView":9,"componentType":5126,"count":3625,"type":"VEC3","min":[-0.9997025728225708,-0.9985856413841248,-0.999474287033081],"max":[0.9999416470527649,0.9989368915557861,0.9989001154899597]},{"bufferView":10,"componentType":5126,"count":3625,"type":"VEC2"},{"bufferView":11,"componentType":5123,"count":9594,"type":"SCALAR","min":[0],"max":[3624]},{"bufferView":12,"componentType":5126,"count":40437,"type":"VEC3","min":[-5.663433074951172,3.2241873741149902,-5.442724704742432],"max":[5.97653341293335,19.742694854736328,5.51947021484375]},{"bufferView":13,"componentType":5126,"count":40437,"type":"VEC3","min":[-0.9999125003814697,-0.9999647736549377,-0.9999915957450867],"max":[0.9995389580726624,0.9999697804450989,0.9999651908874512]},{"bufferView":14,"componentType":5126,"count":40437,"type":"VEC2"},{"bufferView":15,"componentType":5123,"count":138144,"type":"SCALAR","min":[0],"max":[40436]},{"bufferView":16,"componentType":5126,"count":16,"type":"VEC3","min":[-6.6000000000000005,0,-6.6000000000000005],"max":[6.6000000000000005,20.0,6.6000000000000005]},{"bufferView":17,"componentType":5126,"count":16,"type":"VEC3","min":[-1.0,0,-0.7071067811865475],"max":[-0.0,0,1.0]},{"bufferView":18,"componentType":5126,"count":16,"type":"VEC2"},{"bufferView":19,"componentType":5123,"count":24,"type":"SCALAR","min":[0],"max":[15]},{"bufferView":20,"componentType":5126,"count":8,"type":"VEC3","min":[-6.6000000000000005,0,-6.6000000000000005],"max":[6.6000000000000005,20.0,6.6000000000000005]},{"bufferView":21,"componentType":5126,"count":8,"type":"VEC3","min":[-1.0,0,6.123233995736766e-17],"max":[-0.0,0,1.0]},{"bufferView":22,"componentType":5126,"count":8,"type":"VEC2"},{"bufferView":23,"componentType":5123,"count":12,"type":"SCALAR","min":[0],"max":[7]}],"samplers":[{"magFilter":9729,"minFilter":9987,"wrapS":10497,"wrapT":10497}],"images":[{"uri":"textures/bark_cherry.jpg"},{"uri":"textures/foliage_broadleaf.jpg"},{"uri":"impostors/vogelkirsche_c_summer.png"}],"textures":[{"source":0,"sampler":0},{"source":1,"sampler":0},{"source":2,"sampler":0}],"materials":[{"name":"bark","pbrMetallicRoughness":{"baseColorFactor":[0.82,0.82,0.82,1.0],"baseColorTexture":{"index":0},"metallicFactor":0.0,"roughnessFactor":0.91},"doubleSided":false},{"name":"foliage","pbrMetallicRoughness":{"baseColorFactor":[0.6837254901960784,0.8918627450980392,0.6237254901960784,1.0],"baseColorTexture":{"index":1},"metallicFactor":0.0,"roughnessFactor":0.78},"doubleSided":true},{"name":"whole_tree_impostor","pbrMetallicRoughness":{"baseColorFactor":[1,1,1,1],"baseColorTexture":{"index":2},"metallicFactor":0.0,"roughnessFactor":0.92},"doubleSided":true,"alphaMode":"MASK","alphaCutoff":0.18}]}