{"asset":{"version":"2.0","generator":"Connected Rails CC0 tree importer","copyright":"Mantissa and Poly Haven source models: CC0 1.0; optimisation: Connected Rails"},"scene":0,"scenes":[{"nodes":[0,1,2,3]}],"nodes":[{"name":"crown_LOD0","mesh":0},{"name":"crown_LOD1","mesh":1},{"name":"crown_LOD2","mesh":2},{"name":"crown_LOD3","mesh":3}],"meshes":[{"name":"crown_LOD0","primitives":[{"attributes":{"POSITION":0,"NORMAL":1,"TEXCOORD_0":2},"indices":3,"material":0},{"attributes":{"POSITION":4,"NORMAL":5,"TEXCOORD_0":6},"indices":7,"material":1}]},{"name":"crown_LOD1","primitives":[{"attributes":{"POSITION":8,"NORMAL":9,"TEXCOORD_0":10},"indices":11,"material":0},{"attributes":{"POSITION":12,"NORMAL":13,"TEXCOORD_0":14},"indices":15,"material":1}]},{"name":"crown_LOD2","primitives":[{"attributes":{"POSITION":16,"NORMAL":17,"TEXCOORD_0":18},"indices":19,"material":2}]},{"name":"crown_LOD3","primitives":[{"attributes":{"POSITION":20,"NORMAL":21,"TEXCOORD_0":22},"indices":23,"material":2}]}],"buffers":[{"uri":"vogelkirsche_a.bin","byteLength":8135252}],"bufferViews":[{"buffer":0,"byteOffset":0,"byteLength":214308,"target":34962},{"buffer":0,"byteOffset":214308,"byteLength":214308,"target":34962},{"buffer":0,"byteOffset":428616,"byteLength":142872,"target":34962},{"buffer":0,"byteOffset":571488,"byteLength":72000,"target":34963},{"buffer":0,"byteOffset":643488,"byteLength":1504164,"target":34962},{"buffer":0,"byteOffset":2147652,"byteLength":1504164,"target":34962},{"buffer":0,"byteOffset":3651816,"byteLength":1002776,"target":34962},{"buffer":0,"byteOffset":4654592,"byteLength":1725156,"target":34963},{"buffer":0,"byteOffset":6379748,"byteLength":47088,"target":34962},{"buffer":0,"byteOffset":6426836,"byteLength":47088,"target":34962},{"buffer":0,"byteOffset":6473924,"byteLength":31392,"target":34962},{"buffer":0,"byteOffset":6505316,"byteLength":19194,"target":34963},{"buffer":0,"byteOffset":6524512,"byteLength":496992,"target":34962},{"buffer":0,"byteOffset":7021504,"byteLength":496992,"target":34962},{"buffer":0,"byteOffset":7518496,"byteLength":331328,"target":34962},{"buffer":0,"byteOffset":7849824,"byteLength":284586,"target":34963},{"buffer":0,"byteOffset":8134412,"byteLength":192,"target":34962},{"buffer":0,"byteOffset":8134604,"byteLength":192,"target":34962},{"buffer":0,"byteOffset":8134796,"byteLength":128,"target":34962},{"buffer":0,"byteOffset":8134924,"byteLength":48,"target":34963},{"buffer":0,"byteOffset":8134972,"byteLength":96,"target":34962},{"buffer":0,"byteOffset":8135068,"byteLength":96,"target":34962},{"buffer":0,"byteOffset":8135164,"byteLength":64,"target":34962},{"buffer":0,"byteOffset":8135228,"byteLength":24,"target":34963}],"accessors":[{"bufferView":0,"componentType":5126,"count":17859,"type":"VEC3","min":[-3.2497506574298156,0.0034005060315647198,-3.409883043380668],"max":[3.261297910457931,11.850583882022486,3.371962388611953]},{"bufferView":1,"componentType":5126,"count":17859,"type":"VEC3","min":[-0.9998248815536499,-0.9997855424880981,-0.999823272228241],"max":[0.9999004006385803,0.9999471306800842,0.9999535083770752]},{"bufferView":2,"componentType":5126,"count":17859,"type":"VEC2"},{"bufferView":3,"componentType":5123,"count":36000,"type":"SCALAR","min":[0],"max":[17858]},{"bufferView":4,"componentType":5126,"count":125347,"type":"VEC3","min":[-3.315246820449829,3.2923178672790527,-3.4895925521850586],"max":[3.3359975814819336,11.99393081665039,3.5999999046325684]},{"bufferView":5,"componentType":5126,"count":125347,"type":"VEC3","min":[-0.9999863505363464,-0.9999972581863403,-0.9999932646751404],"max":[0.9999948740005493,1.0,0.9999578595161438]},{"bufferView":6,"componentType":5126,"count":125347,"type":"VEC2"},{"bufferView":7,"componentType":5125,"count":431289,"type":"SCALAR","min":[0],"max":[125346]},{"bufferView":8,"componentType":5126,"count":3924,"type":"VEC3","min":[-3.0445909332606518,0.01327116568211605,-3.132795372372892],"max":[2.8824882252693413,11.47986711006988,3.022039489930129]},{"bufferView":9,"componentType":5126,"count":3924,"type":"VEC3","min":[-0.9998248815536499,-0.9997512102127075,-0.997833788394928],"max":[0.9997630715370178,0.9984250068664551,0.9996600151062012]},{"bufferView":10,"componentType":5126,"count":3924,"type":"VEC2"},{"bufferView":11,"componentType":5123,"count":9597,"type":"SCALAR","min":[0],"max":[3923]},{"bufferView":12,"componentType":5126,"count":41416,"type":"VEC3","min":[-3.3075268268585205,3.254387855529785,-3.376715898513794],"max":[3.3555753231048584,11.875577926635742,3.325226068496704]},{"bufferView":13,"componentType":5126,"count":41416,"type":"VEC3","min":[-0.9999863505363464,-0.9998786449432373,-0.9999885559082031],"max":[0.9999035000801086,0.9999806880950928,0.999878466129303]},{"bufferView":14,"componentType":5126,"count":41416,"type":"VEC2"},{"bufferView":15,"componentType":5123,"count":142293,"type":"SCALAR","min":[0],"max":[41415]},{"bufferView":16,"componentType":5126,"count":16,"type":"VEC3","min":[-3.96,0,-3.96],"max":[3.96,12.0,3.96]},{"bufferView":17,"componentType":5126,"count":16,"type":"VEC3","min":[-1.0,0,-0.7071067811865475],"max":[-0.0,0,1.0]},{"bufferView":18,"componentType":5126,"count":16,"type":"VEC2"},{"bufferView":19,"componentType":5123,"count":24,"type":"SCALAR","min":[0],"max":[15]},{"bufferView":20,"componentType":5126,"count":8,"type":"VEC3","min":[-3.96,0,-3.96],"max":[3.96,12.0,3.96]},{"bufferView":21,"componentType":5126,"count":8,"type":"VEC3","min":[-1.0,0,6.123233995736766e-17],"max":[-0.0,0,1.0]},{"bufferView":22,"componentType":5126,"count":8,"type":"VEC2"},{"bufferView":23,"componentType":5123,"count":12,"type":"SCALAR","min":[0],"max":[7]}],"samplers":[{"magFilter":9729,"minFilter":9987,"wrapS":10497,"wrapT":10497}],"images":[{"uri":"textures/bark_cherry.jpg"},{"uri":"textures/foliage_broadleaf.jpg"},{"uri":"impostors/vogelkirsche_a_autumn.png"}],"textures":[{"source":0,"sampler":0},{"source":1,"sampler":0},{"source":2,"sampler":0}],"materials":[{"name":"bark","pbrMetallicRoughness":{"baseColorFactor":[0.82,0.82,0.82,1.0],"baseColorTexture":{"index":0},"metallicFactor":0.0,"roughnessFactor":0.91},"doubleSided":false},{"name":"foliage","pbrMetallicRoughness":{"baseColorFactor":[0.81,0.37,0.08,1.0],"baseColorTexture":{"index":1},"metallicFactor":0.0,"roughnessFactor":0.78},"doubleSided":true},{"name":"whole_tree_impostor","pbrMetallicRoughness":{"baseColorFactor":[1,1,1,1],"baseColorTexture":{"index":2},"metallicFactor":0.0,"roughnessFactor":0.92},"doubleSided":true,"alphaMode":"MASK","alphaCutoff":0.18}]}