{"asset":{"version":"2.0","generator":"Connected Rails CC0 tree importer","copyright":"Mantissa and Poly Haven source models: CC0 1.0; optimisation: Connected Rails"},"scene":0,"scenes":[{"nodes":[0,1,2,3]}],"nodes":[{"name":"crown_LOD0","mesh":0},{"name":"crown_LOD1","mesh":1},{"name":"crown_LOD2","mesh":2},{"name":"crown_LOD3","mesh":3}],"meshes":[{"name":"crown_LOD0","primitives":[{"attributes":{"POSITION":0,"NORMAL":1,"TEXCOORD_0":2},"indices":3,"material":0},{"attributes":{"POSITION":4,"NORMAL":5,"TEXCOORD_0":6},"indices":7,"material":1}]},{"name":"crown_LOD1","primitives":[{"attributes":{"POSITION":8,"NORMAL":9,"TEXCOORD_0":10},"indices":11,"material":0},{"attributes":{"POSITION":12,"NORMAL":13,"TEXCOORD_0":14},"indices":15,"material":1}]},{"name":"crown_LOD2","primitives":[{"attributes":{"POSITION":16,"NORMAL":17,"TEXCOORD_0":18},"indices":19,"material":2}]},{"name":"crown_LOD3","primitives":[{"attributes":{"POSITION":20,"NORMAL":21,"TEXCOORD_0":22},"indices":23,"material":2}]}],"buffers":[{"uri":"wacholder_b.bin","byteLength":6405412}],"bufferViews":[{"buffer":0,"byteOffset":0,"byteLength":4320,"target":34962},{"buffer":0,"byteOffset":4320,"byteLength":4320,"target":34962},{"buffer":0,"byteOffset":8640,"byteLength":2880,"target":34962},{"buffer":0,"byteOffset":11520,"byteLength":3060,"target":34963},{"buffer":0,"byteOffset":14580,"byteLength":1371888,"target":34962},{"buffer":0,"byteOffset":1386468,"byteLength":1371888,"target":34962},{"buffer":0,"byteOffset":2758356,"byteLength":914592,"target":34962},{"buffer":0,"byteOffset":3672948,"byteLength":1148184,"target":34963},{"buffer":0,"byteOffset":4821132,"byteLength":4320,"target":34962},{"buffer":0,"byteOffset":4825452,"byteLength":4320,"target":34962},{"buffer":0,"byteOffset":4829772,"byteLength":2880,"target":34962},{"buffer":0,"byteOffset":4832652,"byteLength":3060,"target":34963},{"buffer":0,"byteOffset":4835712,"byteLength":507336,"target":34962},{"buffer":0,"byteOffset":5343048,"byteLength":507336,"target":34962},{"buffer":0,"byteOffset":5850384,"byteLength":338224,"target":34962},{"buffer":0,"byteOffset":6188608,"byteLength":215964,"target":34963},{"buffer":0,"byteOffset":6404572,"byteLength":192,"target":34962},{"buffer":0,"byteOffset":6404764,"byteLength":192,"target":34962},{"buffer":0,"byteOffset":6404956,"byteLength":128,"target":34962},{"buffer":0,"byteOffset":6405084,"byteLength":48,"target":34963},{"buffer":0,"byteOffset":6405132,"byteLength":96,"target":34962},{"buffer":0,"byteOffset":6405228,"byteLength":96,"target":34962},{"buffer":0,"byteOffset":6405324,"byteLength":64,"target":34962},{"buffer":0,"byteOffset":6405388,"byteLength":24,"target":34963}],"accessors":[{"bufferView":0,"componentType":5126,"count":360,"type":"VEC3","min":[-0.8582773552741954,0.0,-1.1627571759791537],"max":[0.7394736120724511,4.63464377410065,1.3449657584731138]},{"bufferView":1,"componentType":5126,"count":360,"type":"VEC3","min":[-0.9954491257667542,-0.9936343431472778,-0.9999219179153442],"max":[0.9952924251556396,0.9852166175842285,0.9997974634170532]},{"bufferView":2,"componentType":5126,"count":360,"type":"VEC2"},{"bufferView":3,"componentType":5123,"count":1530,"type":"SCALAR","min":[0],"max":[359]},{"bufferView":4,"componentType":5126,"count":114324,"type":"VEC3","min":[-1.3697391748428345,0.16534128785133362,-1.75],"max":[1.3541462421417236,4.987165927886963,1.75]},{"bufferView":5,"componentType":5126,"count":114324,"type":"VEC3","min":[-0.9999467134475708,-0.9999476075172424,-0.9999492764472961],"max":[0.9999762773513794,0.9999920725822449,0.9999479055404663]},{"bufferView":6,"componentType":5126,"count":114324,"type":"VEC2"},{"bufferView":7,"componentType":5125,"count":287046,"type":"SCALAR","min":[0],"max":[114323]},{"bufferView":8,"componentType":5126,"count":360,"type":"VEC3","min":[-0.8582773552741954,0.0,-1.1627571759791537],"max":[0.7394736120724511,4.63464377410065,1.3449657584731138]},{"bufferView":9,"componentType":5126,"count":360,"type":"VEC3","min":[-0.9954491257667542,-0.9936343431472778,-0.9999219179153442],"max":[0.9952924251556396,0.9852166175842285,0.9997974634170532]},{"bufferView":10,"componentType":5126,"count":360,"type":"VEC2"},{"bufferView":11,"componentType":5123,"count":1530,"type":"SCALAR","min":[0],"max":[359]},{"bufferView":12,"componentType":5126,"count":42278,"type":"VEC3","min":[-1.4161473512649536,0.18605570495128632,-1.8044675588607788],"max":[1.5239626169204712,4.981486797332764,1.7115439176559448]},{"bufferView":13,"componentType":5126,"count":42278,"type":"VEC3","min":[-0.9999467134475708,-0.9998635053634644,-0.9999492764472961],"max":[0.9999023079872131,0.9999920725822449,0.9999479055404663]},{"bufferView":14,"componentType":5126,"count":42278,"type":"VEC2"},{"bufferView":15,"componentType":5123,"count":107982,"type":"SCALAR","min":[0],"max":[42277]},{"bufferView":16,"componentType":5126,"count":16,"type":"VEC3","min":[-1.9250000000000003,0,-1.9250000000000003],"max":[1.9250000000000003,5.0,1.9250000000000003]},{"bufferView":17,"componentType":5126,"count":16,"type":"VEC3","min":[-1.0,0,-0.7071067811865475],"max":[-0.0,0,1.0]},{"bufferView":18,"componentType":5126,"count":16,"type":"VEC2"},{"bufferView":19,"componentType":5123,"count":24,"type":"SCALAR","min":[0],"max":[15]},{"bufferView":20,"componentType":5126,"count":8,"type":"VEC3","min":[-1.9250000000000003,0,-1.9250000000000003],"max":[1.9250000000000003,5.0,1.9250000000000003]},{"bufferView":21,"componentType":5126,"count":8,"type":"VEC3","min":[-1.0,0,6.123233995736766e-17],"max":[-0.0,0,1.0]},{"bufferView":22,"componentType":5126,"count":8,"type":"VEC2"},{"bufferView":23,"componentType":5123,"count":12,"type":"SCALAR","min":[0],"max":[7]}],"samplers":[{"magFilter":9729,"minFilter":9987,"wrapS":10497,"wrapT":10497}],"images":[{"uri":"textures/poly_sapling_bark.jpg"},{"uri":"textures/poly_sapling_foliage.png"},{"uri":"impostors/wacholder_b_winter.png"}],"textures":[{"source":0,"sampler":0},{"source":1,"sampler":0},{"source":2,"sampler":0}],"materials":[{"name":"bark","pbrMetallicRoughness":{"baseColorFactor":[0.82,0.82,0.82,1.0],"baseColorTexture":{"index":0},"metallicFactor":0.0,"roughnessFactor":0.91},"doubleSided":false},{"name":"foliage","pbrMetallicRoughness":{"baseColorFactor":[0.6179411764705883,1.0,0.7939411764705884,1.0],"baseColorTexture":{"index":1},"metallicFactor":0.0,"roughnessFactor":0.78},"doubleSided":true,"alphaMode":"MASK","alphaCutoff":0.18},{"name":"whole_tree_impostor","pbrMetallicRoughness":{"baseColorFactor":[1,1,1,1],"baseColorTexture":{"index":2},"metallicFactor":0.0,"roughnessFactor":0.92},"doubleSided":true,"alphaMode":"MASK","alphaCutoff":0.18}]}