{"asset":{"version":"2.0","generator":"Connected Rails CC0 tree importer","copyright":"Mantissa and Poly Haven source models: CC0 1.0; optimisation: Connected Rails"},"scene":0,"scenes":[{"nodes":[0,1,2,3]}],"nodes":[{"name":"crown_LOD0","mesh":0},{"name":"crown_LOD1","mesh":1},{"name":"crown_LOD2","mesh":2},{"name":"crown_LOD3","mesh":3}],"meshes":[{"name":"crown_LOD0","primitives":[{"attributes":{"POSITION":0,"NORMAL":1,"TEXCOORD_0":2},"indices":3,"material":0},{"attributes":{"POSITION":4,"NORMAL":5,"TEXCOORD_0":6},"indices":7,"material":1}]},{"name":"crown_LOD1","primitives":[{"attributes":{"POSITION":8,"NORMAL":9,"TEXCOORD_0":10},"indices":11,"material":0},{"attributes":{"POSITION":12,"NORMAL":13,"TEXCOORD_0":14},"indices":15,"material":1}]},{"name":"crown_LOD2","primitives":[{"attributes":{"POSITION":16,"NORMAL":17,"TEXCOORD_0":18},"indices":19,"material":2}]},{"name":"crown_LOD3","primitives":[{"attributes":{"POSITION":20,"NORMAL":21,"TEXCOORD_0":22},"indices":23,"material":2}]}],"buffers":[{"uri":"wacholder_c.bin","byteLength":6417668}],"bufferViews":[{"buffer":0,"byteOffset":0,"byteLength":3216,"target":34962},{"buffer":0,"byteOffset":3216,"byteLength":3216,"target":34962},{"buffer":0,"byteOffset":6432,"byteLength":2144,"target":34962},{"buffer":0,"byteOffset":8576,"byteLength":2304,"target":34963},{"buffer":0,"byteOffset":10880,"byteLength":1372032,"target":34962},{"buffer":0,"byteOffset":1382912,"byteLength":1372032,"target":34962},{"buffer":0,"byteOffset":2754944,"byteLength":914688,"target":34962},{"buffer":0,"byteOffset":3669632,"byteLength":1151928,"target":34963},{"buffer":0,"byteOffset":4821560,"byteLength":3216,"target":34962},{"buffer":0,"byteOffset":4824776,"byteLength":3216,"target":34962},{"buffer":0,"byteOffset":4827992,"byteLength":2144,"target":34962},{"buffer":0,"byteOffset":4830136,"byteLength":2304,"target":34963},{"buffer":0,"byteOffset":4832440,"byteLength":513732,"target":34962},{"buffer":0,"byteOffset":5346172,"byteLength":513732,"target":34962},{"buffer":0,"byteOffset":5859904,"byteLength":342488,"target":34962},{"buffer":0,"byteOffset":6202392,"byteLength":214434,"target":34963},{"buffer":0,"byteOffset":6416828,"byteLength":192,"target":34962},{"buffer":0,"byteOffset":6417020,"byteLength":192,"target":34962},{"buffer":0,"byteOffset":6417212,"byteLength":128,"target":34962},{"buffer":0,"byteOffset":6417340,"byteLength":48,"target":34963},{"buffer":0,"byteOffset":6417388,"byteLength":96,"target":34962},{"buffer":0,"byteOffset":6417484,"byteLength":96,"target":34962},{"buffer":0,"byteOffset":6417580,"byteLength":64,"target":34962},{"buffer":0,"byteOffset":6417644,"byteLength":24,"target":34963}],"accessors":[{"bufferView":0,"componentType":5126,"count":268,"type":"VEC3","min":[-1.5521593649619234,0.0,-2.232614502376997],"max":[1.6265656561145845,5.892258171549193,1.2507454773350266]},{"bufferView":1,"componentType":5126,"count":268,"type":"VEC3","min":[-0.9954692125320435,-0.9804104566574097,-0.9999875426292419],"max":[0.9953055381774902,0.965398907661438,0.9999853372573853]},{"bufferView":2,"componentType":5126,"count":268,"type":"VEC2"},{"bufferView":3,"componentType":5123,"count":1152,"type":"SCALAR","min":[0],"max":[267]},{"bufferView":4,"componentType":5126,"count":114336,"type":"VEC3","min":[-2.4043397903442383,0.34325942397117615,-2.4499998092651367],"max":[2.4043397903442383,6.993354797363281,2.4499998092651367]},{"bufferView":5,"componentType":5126,"count":114336,"type":"VEC3","min":[-0.9999161958694458,-0.9999794363975525,-0.9999571442604065],"max":[0.9999570846557617,0.9999920129776001,0.9999562501907349]},{"bufferView":6,"componentType":5126,"count":114336,"type":"VEC2"},{"bufferView":7,"componentType":5125,"count":287982,"type":"SCALAR","min":[0],"max":[114335]},{"bufferView":8,"componentType":5126,"count":268,"type":"VEC3","min":[-1.5521593649619234,0.0,-2.232614502376997],"max":[1.6265656561145845,5.892258171549193,1.2507454773350266]},{"bufferView":9,"componentType":5126,"count":268,"type":"VEC3","min":[-0.9954692125320435,-0.9804104566574097,-0.9999875426292419],"max":[0.9953055381774902,0.965398907661438,0.9999853372573853]},{"bufferView":10,"componentType":5126,"count":268,"type":"VEC2"},{"bufferView":11,"componentType":5123,"count":1152,"type":"SCALAR","min":[0],"max":[267]},{"bufferView":12,"componentType":5126,"count":42811,"type":"VEC3","min":[-2.4270761013031006,0.31095707416534424,-2.402247667312622],"max":[2.3983094692230225,7.002930164337158,2.484567642211914]},{"bufferView":13,"componentType":5126,"count":42811,"type":"VEC3","min":[-0.9998178482055664,-0.9999594688415527,-0.9999495148658752],"max":[0.999932050704956,0.9998823404312134,0.9996024966239929]},{"bufferView":14,"componentType":5126,"count":42811,"type":"VEC2"},{"bufferView":15,"componentType":5123,"count":107217,"type":"SCALAR","min":[0],"max":[42810]},{"bufferView":16,"componentType":5126,"count":16,"type":"VEC3","min":[-2.695,0,-2.695],"max":[2.695,7.0,2.695]},{"bufferView":17,"componentType":5126,"count":16,"type":"VEC3","min":[-1.0,0,-0.7071067811865475],"max":[-0.0,0,1.0]},{"bufferView":18,"componentType":5126,"count":16,"type":"VEC2"},{"bufferView":19,"componentType":5123,"count":24,"type":"SCALAR","min":[0],"max":[15]},{"bufferView":20,"componentType":5126,"count":8,"type":"VEC3","min":[-2.695,0,-2.695],"max":[2.695,7.0,2.695]},{"bufferView":21,"componentType":5126,"count":8,"type":"VEC3","min":[-1.0,0,6.123233995736766e-17],"max":[-0.0,0,1.0]},{"bufferView":22,"componentType":5126,"count":8,"type":"VEC2"},{"bufferView":23,"componentType":5123,"count":12,"type":"SCALAR","min":[0],"max":[7]}],"samplers":[{"magFilter":9729,"minFilter":9987,"wrapS":10497,"wrapT":10497}],"images":[{"uri":"textures/poly_sapling_bark.jpg"},{"uri":"textures/poly_sapling_foliage.png"},{"uri":"impostors/wacholder_c_summer.png"}],"textures":[{"source":0,"sampler":0},{"source":1,"sampler":0},{"source":2,"sampler":0}],"materials":[{"name":"bark","pbrMetallicRoughness":{"baseColorFactor":[0.82,0.82,0.82,1.0],"baseColorTexture":{"index":0},"metallicFactor":0.0,"roughnessFactor":0.91},"doubleSided":false},{"name":"foliage","pbrMetallicRoughness":{"baseColorFactor":[0.5617647058823529,1.0,0.721764705882353,1.0],"baseColorTexture":{"index":1},"metallicFactor":0.0,"roughnessFactor":0.78},"doubleSided":true,"alphaMode":"MASK","alphaCutoff":0.18},{"name":"whole_tree_impostor","pbrMetallicRoughness":{"baseColorFactor":[1,1,1,1],"baseColorTexture":{"index":2},"metallicFactor":0.0,"roughnessFactor":0.92},"doubleSided":true,"alphaMode":"MASK","alphaCutoff":0.18}]}