{"asset":{"version":"2.0","generator":"Connected Rails CC0 tree importer","copyright":"Mantissa and Poly Haven source models: CC0 1.0; optimisation: Connected Rails"},"scene":0,"scenes":[{"nodes":[0,1,2,3]}],"nodes":[{"name":"crown_LOD0","mesh":0},{"name":"crown_LOD1","mesh":1},{"name":"crown_LOD2","mesh":2},{"name":"crown_LOD3","mesh":3}],"meshes":[{"name":"crown_LOD0","primitives":[{"attributes":{"POSITION":0,"NORMAL":1,"TEXCOORD_0":2},"indices":3,"material":0},{"attributes":{"POSITION":4,"NORMAL":5,"TEXCOORD_0":6},"indices":7,"material":1}]},{"name":"crown_LOD1","primitives":[{"attributes":{"POSITION":8,"NORMAL":9,"TEXCOORD_0":10},"indices":11,"material":0},{"attributes":{"POSITION":12,"NORMAL":13,"TEXCOORD_0":14},"indices":15,"material":1}]},{"name":"crown_LOD2","primitives":[{"attributes":{"POSITION":16,"NORMAL":17,"TEXCOORD_0":18},"indices":19,"material":2}]},{"name":"crown_LOD3","primitives":[{"attributes":{"POSITION":20,"NORMAL":21,"TEXCOORD_0":22},"indices":23,"material":2}]}],"buffers":[{"uri":"wacholder_a.bin","byteLength":6429412}],"bufferViews":[{"buffer":0,"byteOffset":0,"byteLength":4656,"target":34962},{"buffer":0,"byteOffset":4656,"byteLength":4656,"target":34962},{"buffer":0,"byteOffset":9312,"byteLength":3104,"target":34962},{"buffer":0,"byteOffset":12416,"byteLength":3276,"target":34963},{"buffer":0,"byteOffset":15692,"byteLength":1374672,"target":34962},{"buffer":0,"byteOffset":1390364,"byteLength":1374672,"target":34962},{"buffer":0,"byteOffset":2765036,"byteLength":916448,"target":34962},{"buffer":0,"byteOffset":3681484,"byteLength":1151676,"target":34963},{"buffer":0,"byteOffset":4833160,"byteLength":4656,"target":34962},{"buffer":0,"byteOffset":4837816,"byteLength":4656,"target":34962},{"buffer":0,"byteOffset":4842472,"byteLength":3104,"target":34962},{"buffer":0,"byteOffset":4845576,"byteLength":3276,"target":34963},{"buffer":0,"byteOffset":4848852,"byteLength":512436,"target":34962},{"buffer":0,"byteOffset":5361288,"byteLength":512436,"target":34962},{"buffer":0,"byteOffset":5873724,"byteLength":341624,"target":34962},{"buffer":0,"byteOffset":6215348,"byteLength":213222,"target":34963},{"buffer":0,"byteOffset":6428572,"byteLength":192,"target":34962},{"buffer":0,"byteOffset":6428764,"byteLength":192,"target":34962},{"buffer":0,"byteOffset":6428956,"byteLength":128,"target":34962},{"buffer":0,"byteOffset":6429084,"byteLength":48,"target":34963},{"buffer":0,"byteOffset":6429132,"byteLength":96,"target":34962},{"buffer":0,"byteOffset":6429228,"byteLength":96,"target":34962},{"buffer":0,"byteOffset":6429324,"byteLength":64,"target":34962},{"buffer":0,"byteOffset":6429388,"byteLength":24,"target":34963}],"accessors":[{"bufferView":0,"componentType":5126,"count":388,"type":"VEC3","min":[-0.6552010322930562,0.0,-0.6755188692908803],"max":[0.6330140718815592,2.57378612294814,0.6892573642556121]},{"bufferView":1,"componentType":5126,"count":388,"type":"VEC3","min":[-0.9929034113883972,-0.935987651348114,-0.9999449253082275],"max":[0.9939346313476562,0.9374278783798218,0.9999961256980896]},{"bufferView":2,"componentType":5126,"count":388,"type":"VEC2"},{"bufferView":3,"componentType":5123,"count":1638,"type":"SCALAR","min":[0],"max":[387]},{"bufferView":4,"componentType":5126,"count":114556,"type":"VEC3","min":[-1.0499999523162842,0.07451911270618439,-0.994489848613739],"max":[1.0440176725387573,3.0,1.002556324005127]},{"bufferView":5,"componentType":5126,"count":114556,"type":"VEC3","min":[-0.9999665021896362,-0.9999551177024841,-0.9999710917472839],"max":[0.9999918341636658,0.9999829530715942,0.9998718500137329]},{"bufferView":6,"componentType":5126,"count":114556,"type":"VEC2"},{"bufferView":7,"componentType":5125,"count":287919,"type":"SCALAR","min":[0],"max":[114555]},{"bufferView":8,"componentType":5126,"count":388,"type":"VEC3","min":[-0.6552010322930562,0.0,-0.6755188692908803],"max":[0.6330140718815592,2.57378612294814,0.6892573642556121]},{"bufferView":9,"componentType":5126,"count":388,"type":"VEC3","min":[-0.9929034113883972,-0.935987651348114,-0.9999449253082275],"max":[0.9939346313476562,0.9374278783798218,0.9999961256980896]},{"bufferView":10,"componentType":5126,"count":388,"type":"VEC2"},{"bufferView":11,"componentType":5123,"count":1638,"type":"SCALAR","min":[0],"max":[387]},{"bufferView":12,"componentType":5126,"count":42703,"type":"VEC3","min":[-1.0427660942077637,0.04209308326244354,-0.9927891492843628],"max":[1.0292736291885376,3.024932622909546,1.0035279989242554]},{"bufferView":13,"componentType":5126,"count":42703,"type":"VEC3","min":[-0.9999665021896362,-0.9999551177024841,-0.9999250769615173],"max":[0.9999676942825317,0.9998820424079895,0.9995880126953125]},{"bufferView":14,"componentType":5126,"count":42703,"type":"VEC2"},{"bufferView":15,"componentType":5123,"count":106611,"type":"SCALAR","min":[0],"max":[42702]},{"bufferView":16,"componentType":5126,"count":16,"type":"VEC3","min":[-1.1549999999999998,0,-1.1549999999999998],"max":[1.1549999999999998,3.0,1.1549999999999998]},{"bufferView":17,"componentType":5126,"count":16,"type":"VEC3","min":[-1.0,0,-0.7071067811865475],"max":[-0.0,0,1.0]},{"bufferView":18,"componentType":5126,"count":16,"type":"VEC2"},{"bufferView":19,"componentType":5123,"count":24,"type":"SCALAR","min":[0],"max":[15]},{"bufferView":20,"componentType":5126,"count":8,"type":"VEC3","min":[-1.1549999999999998,0,-1.1549999999999998],"max":[1.1549999999999998,3.0,1.1549999999999998]},{"bufferView":21,"componentType":5126,"count":8,"type":"VEC3","min":[-1.0,0,6.123233995736766e-17],"max":[-0.0,0,1.0]},{"bufferView":22,"componentType":5126,"count":8,"type":"VEC2"},{"bufferView":23,"componentType":5123,"count":12,"type":"SCALAR","min":[0],"max":[7]}],"samplers":[{"magFilter":9729,"minFilter":9987,"wrapS":10497,"wrapT":10497}],"images":[{"uri":"textures/poly_sapling_bark.jpg"},{"uri":"textures/poly_sapling_foliage.png"},{"uri":"impostors/wacholder_a_summer.png"}],"textures":[{"source":0,"sampler":0},{"source":1,"sampler":0},{"source":2,"sampler":0}],"materials":[{"name":"bark","pbrMetallicRoughness":{"baseColorFactor":[0.82,0.82,0.82,1.0],"baseColorTexture":{"index":0},"metallicFactor":0.0,"roughnessFactor":0.91},"doubleSided":false},{"name":"foliage","pbrMetallicRoughness":{"baseColorFactor":[0.5617647058823529,1.0,0.721764705882353,1.0],"baseColorTexture":{"index":1},"metallicFactor":0.0,"roughnessFactor":0.78},"doubleSided":true,"alphaMode":"MASK","alphaCutoff":0.18},{"name":"whole_tree_impostor","pbrMetallicRoughness":{"baseColorFactor":[1,1,1,1],"baseColorTexture":{"index":2},"metallicFactor":0.0,"roughnessFactor":0.92},"doubleSided":true,"alphaMode":"MASK","alphaCutoff":0.18}]}