{"asset":{"version":"2.0","generator":"Connected Rails CC0 tree importer","copyright":"Mantissa and Poly Haven source models: CC0 1.0; optimisation: Connected Rails"},"scene":0,"scenes":[{"nodes":[0,1,2,3]}],"nodes":[{"name":"crown_LOD0","mesh":0},{"name":"crown_LOD1","mesh":1},{"name":"crown_LOD2","mesh":2},{"name":"crown_LOD3","mesh":3}],"meshes":[{"name":"crown_LOD0","primitives":[{"attributes":{"POSITION":0,"NORMAL":1,"TEXCOORD_0":2},"indices":3,"material":0},{"attributes":{"POSITION":4,"NORMAL":5,"TEXCOORD_0":6},"indices":7,"material":1}]},{"name":"crown_LOD1","primitives":[{"attributes":{"POSITION":8,"NORMAL":9,"TEXCOORD_0":10},"indices":11,"material":0},{"attributes":{"POSITION":12,"NORMAL":13,"TEXCOORD_0":14},"indices":15,"material":1}]},{"name":"crown_LOD2","primitives":[{"attributes":{"POSITION":16,"NORMAL":17,"TEXCOORD_0":18},"indices":19,"material":2}]},{"name":"crown_LOD3","primitives":[{"attributes":{"POSITION":20,"NORMAL":21,"TEXCOORD_0":22},"indices":23,"material":2}]}],"buffers":[{"uri":"weisstanne_c.bin","byteLength":7198240}],"bufferViews":[{"buffer":0,"byteOffset":0,"byteLength":509028,"target":34962},{"buffer":0,"byteOffset":509028,"byteLength":509028,"target":34962},{"buffer":0,"byteOffset":1018056,"byteLength":339352,"target":34962},{"buffer":0,"byteOffset":1357408,"byteLength":477762,"target":34963},{"buffer":0,"byteOffset":1835172,"byteLength":964740,"target":34962},{"buffer":0,"byteOffset":2799912,"byteLength":964740,"target":34962},{"buffer":0,"byteOffset":3764652,"byteLength":643160,"target":34962},{"buffer":0,"byteOffset":4407812,"byteLength":800928,"target":34963},{"buffer":0,"byteOffset":5208740,"byteLength":110328,"target":34962},{"buffer":0,"byteOffset":5319068,"byteLength":110328,"target":34962},{"buffer":0,"byteOffset":5429396,"byteLength":73552,"target":34962},{"buffer":0,"byteOffset":5502948,"byteLength":85362,"target":34963},{"buffer":0,"byteOffset":5588312,"byteLength":522408,"target":34962},{"buffer":0,"byteOffset":6110720,"byteLength":522408,"target":34962},{"buffer":0,"byteOffset":6633128,"byteLength":348272,"target":34962},{"buffer":0,"byteOffset":6981400,"byteLength":216000,"target":34963},{"buffer":0,"byteOffset":7197400,"byteLength":192,"target":34962},{"buffer":0,"byteOffset":7197592,"byteLength":192,"target":34962},{"buffer":0,"byteOffset":7197784,"byteLength":128,"target":34962},{"buffer":0,"byteOffset":7197912,"byteLength":48,"target":34963},{"buffer":0,"byteOffset":7197960,"byteLength":96,"target":34962},{"buffer":0,"byteOffset":7198056,"byteLength":96,"target":34962},{"buffer":0,"byteOffset":7198152,"byteLength":64,"target":34962},{"buffer":0,"byteOffset":7198216,"byteLength":24,"target":34963}],"accessors":[{"bufferView":0,"componentType":5126,"count":42419,"type":"VEC3","min":[-6.603708154390796,0.0,-6.484722059975194],"max":[6.638191935047879,40.99439241729741,6.375810882400747]},{"bufferView":1,"componentType":5126,"count":42419,"type":"VEC3","min":[-0.999983012676239,-0.9994419813156128,-0.9999945163726807],"max":[0.9999887943267822,0.9999980926513672,0.9999847412109375]},{"bufferView":2,"componentType":5126,"count":42419,"type":"VEC2"},{"bufferView":3,"componentType":5123,"count":238881,"type":"SCALAR","min":[0],"max":[42418]},{"bufferView":4,"componentType":5126,"count":80395,"type":"VEC3","min":[-7.980000019073486,12.91022777557373,-7.839125156402588],"max":[7.980000019073486,42.0,7.839125156402588]},{"bufferView":5,"componentType":5126,"count":80395,"type":"VEC3","min":[-0.9999392032623291,-0.9999783635139465,-0.9999816417694092],"max":[0.9999682307243347,0.9999369978904724,0.9999985694885254]},{"bufferView":6,"componentType":5126,"count":80395,"type":"VEC2"},{"bufferView":7,"componentType":5125,"count":200232,"type":"SCALAR","min":[0],"max":[80394]},{"bufferView":8,"componentType":5126,"count":9194,"type":"VEC3","min":[-6.604071719560648,-1.0483311550306459e-05,-6.489048427695916],"max":[6.638191935047879,40.99178476371317,6.375810882400747]},{"bufferView":9,"componentType":5126,"count":9194,"type":"VEC3","min":[-0.9999431371688843,-0.9990184307098389,-0.9998388886451721],"max":[0.9999403953552246,0.9998230934143066,0.9998989105224609]},{"bufferView":10,"componentType":5126,"count":9194,"type":"VEC2"},{"bufferView":11,"componentType":5123,"count":42681,"type":"SCALAR","min":[0],"max":[9193]},{"bufferView":12,"componentType":5126,"count":43534,"type":"VEC3","min":[-8.128028869628906,12.839111328125,-7.995741844177246],"max":[8.06231689453125,42.026832580566406,7.884559631347656]},{"bufferView":13,"componentType":5126,"count":43534,"type":"VEC3","min":[-0.9999392032623291,-0.9999783635139465,-0.9999816417694092],"max":[0.9999682307243347,0.999870240688324,0.9999985694885254]},{"bufferView":14,"componentType":5126,"count":43534,"type":"VEC2"},{"bufferView":15,"componentType":5123,"count":108000,"type":"SCALAR","min":[0],"max":[43533]},{"bufferView":16,"componentType":5126,"count":16,"type":"VEC3","min":[-8.778,0,-8.778],"max":[8.778,42.0,8.778]},{"bufferView":17,"componentType":5126,"count":16,"type":"VEC3","min":[-1.0,0,-0.7071067811865475],"max":[-0.0,0,1.0]},{"bufferView":18,"componentType":5126,"count":16,"type":"VEC2"},{"bufferView":19,"componentType":5123,"count":24,"type":"SCALAR","min":[0],"max":[15]},{"bufferView":20,"componentType":5126,"count":8,"type":"VEC3","min":[-8.778,0,-8.778],"max":[8.778,42.0,8.778]},{"bufferView":21,"componentType":5126,"count":8,"type":"VEC3","min":[-1.0,0,6.123233995736766e-17],"max":[-0.0,0,1.0]},{"bufferView":22,"componentType":5126,"count":8,"type":"VEC2"},{"bufferView":23,"componentType":5123,"count":12,"type":"SCALAR","min":[0],"max":[7]}],"samplers":[{"magFilter":9729,"minFilter":9987,"wrapS":10497,"wrapT":10497}],"images":[{"uri":"textures/poly_fir_bark.jpg"},{"uri":"textures/poly_fir_foliage.png"},{"uri":"impostors/weisstanne_c_summer.png"}],"textures":[{"source":0,"sampler":0},{"source":1,"sampler":0},{"source":2,"sampler":0}],"materials":[{"name":"bark","pbrMetallicRoughness":{"baseColorFactor":[0.82,0.82,0.82,1.0],"baseColorTexture":{"index":0},"metallicFactor":0.0,"roughnessFactor":0.91},"doubleSided":false},{"name":"foliage","pbrMetallicRoughness":{"baseColorFactor":[0.5570588235294117,1.0,0.7170588235294117,1.0],"baseColorTexture":{"index":1},"metallicFactor":0.0,"roughnessFactor":0.78},"doubleSided":true,"alphaMode":"MASK","alphaCutoff":0.18},{"name":"whole_tree_impostor","pbrMetallicRoughness":{"baseColorFactor":[1,1,1,1],"baseColorTexture":{"index":2},"metallicFactor":0.0,"roughnessFactor":0.92},"doubleSided":true,"alphaMode":"MASK","alphaCutoff":0.18}]}