{"asset":{"version":"2.0","generator":"Connected Rails CC0 hedge composer","copyright":"Mantissa and Poly Haven source models: CC0 1.0; hedge composition: Connected Rails"},"scene":0,"scenes":[{"nodes":[0,1,2,3,4,5,6,7,8,9,10,11]}],"nodes":[{"name":"hedge_LOD0","children":[12,16,18,30,38,44,54,56,60,62,64,72,84,86,90,102,104,108,119,125,127,129]},{"name":"hedge_LOD1","children":[13,17,19,31,39,45,55,57,61,63,65,73,85,87,91,103,105,109,120,126,128,130]},{"name":"hedge_LOD2","children":[14,20,32,40,46,58,66,74,88,92,106,110,121,131]},{"name":"hedge_LOD3","children":[15,21,33,41,47,59,67,75,89,93,107,111,122,132]},{"name":"hedge_LOD4","children":[22,34,42,48,68,76,94,112,123,133]},{"name":"hedge_LOD5","children":[23,35,43,49,69,77,95,113,124,134]},{"name":"hedge_LOD6","children":[24,36,50,70,78,96,114,135]},{"name":"hedge_LOD7","children":[25,37,51,71,79,97,115,136]},{"name":"hedge_LOD8","children":[26,52,80,98,116,137]},{"name":"hedge_LOD9","children":[27,53,81,99,117,138]},{"name":"hedge_LOD10","children":[28,82,100,118,139]},{"name":"hedge_LOD11","children":[29,83,101,140]},{"name":"heckenkirsche_a_part_12_LOD0","mesh":1,"translation":[-3.0,-0.0,0.15558654480304732],"rotation":[0.0,0.07812055751938528,0.0,0.9969439194322118],"scale":[0.7909090909090909,2.519485561698811,1.9053119246271248]},{"name":"heckenkirsche_a_part_13_LOD1","mesh":1,"translation":[-3.0,-0.0,0.15558654480304732],"rotation":[0.0,0.07812055751938528,0.0,0.9969439194322118],"scale":[0.7909090909090909,2.519485561698811,1.9053119246271248]},{"name":"heckenkirsche_a_part_14_LOD2","mesh":1,"translation":[-3.0,-0.0,0.15558654480304732],"rotation":[0.0,0.07812055751938528,0.0,0.9969439194322118],"scale":[0.7909090909090909,2.519485561698811,1.9053119246271248]},{"name":"heckenkirsche_a_part_15_LOD3","mesh":1,"translation":[-3.0,-0.0,0.15558654480304732],"rotation":[0.0,0.07812055751938528,0.0,0.9969439194322118],"scale":[0.7909090909090909,2.519485561698811,1.9053119246271248]},{"name":"hundsrose_a_part_16_LOD0","mesh":5,"translation":[-2.4,-0.0,-0.10582854500072228],"rotation":[0.0,-0.056295455534160224,0.0,0.9984141533883629],"scale":[0.464,1.7057903786103124,0.9781811693680371]},{"name":"hundsrose_a_part_17_LOD1","mesh":5,"translation":[-2.4,-0.0,-0.10582854500072228],"rotation":[0.0,-0.056295455534160224,0.0,0.9984141533883629],"scale":[0.464,1.7057903786103124,0.9781811693680371]},{"name":"berberitze_a_part_18_LOD0","mesh":9,"translation":[-1.8,-0.0,0.004872025399804553],"rotation":[0.0,0.06942909887730937,0.0,0.9975868885611342],"scale":[0.725,2.4844247496581424,1.8943581489732944]},{"name":"berberitze_a_part_19_LOD1","mesh":9,"translation":[-1.8,-0.0,0.004872025399804553],"rotation":[0.0,0.06942909887730937,0.0,0.9975868885611342],"scale":[0.725,2.4844247496581424,1.8943581489732944]},{"name":"berberitze_a_part_20_LOD2","mesh":9,"translation":[-1.8,-0.0,0.004872025399804553],"rotation":[0.0,0.06942909887730937,0.0,0.9975868885611342],"scale":[0.725,2.4844247496581424,1.8943581489732944]},{"name":"berberitze_a_part_21_LOD3","mesh":9,"translation":[-1.8,-0.0,0.004872025399804553],"rotation":[0.0,0.06942909887730937,0.0,0.9975868885611342],"scale":[0.725,2.4844247496581424,1.8943581489732944]},{"name":"berberitze_a_part_22_LOD4","mesh":9,"translation":[-1.8,-0.0,0.004872025399804553],"rotation":[0.0,0.06942909887730937,0.0,0.9975868885611342],"scale":[0.725,2.4844247496581424,1.8943581489732944]},{"name":"berberitze_a_part_23_LOD5","mesh":9,"translation":[-1.8,-0.0,0.004872025399804553],"rotation":[0.0,0.06942909887730937,0.0,0.9975868885611342],"scale":[0.725,2.4844247496581424,1.8943581489732944]},{"name":"berberitze_a_part_24_LOD6","mesh":9,"translation":[-1.8,-0.0,0.004872025399804553],"rotation":[0.0,0.06942909887730937,0.0,0.9975868885611342],"scale":[0.725,2.4844247496581424,1.8943581489732944]},{"name":"berberitze_a_part_25_LOD7","mesh":9,"translation":[-1.8,-0.0,0.004872025399804553],"rotation":[0.0,0.06942909887730937,0.0,0.9975868885611342],"scale":[0.725,2.4844247496581424,1.8943581489732944]},{"name":"berberitze_a_part_26_LOD8","mesh":9,"translation":[-1.8,-0.0,0.004872025399804553],"rotation":[0.0,0.06942909887730937,0.0,0.9975868885611342],"scale":[0.725,2.4844247496581424,1.8943581489732944]},{"name":"berberitze_a_part_27_LOD9","mesh":9,"translation":[-1.8,-0.0,0.004872025399804553],"rotation":[0.0,0.06942909887730937,0.0,0.9975868885611342],"scale":[0.725,2.4844247496581424,1.8943581489732944]},{"name":"berberitze_a_part_28_LOD10","mesh":9,"translation":[-1.8,-0.0,0.004872025399804553],"rotation":[0.0,0.06942909887730937,0.0,0.9975868885611342],"scale":[0.725,2.4844247496581424,1.8943581489732944]},{"name":"berberitze_a_part_29_LOD11","mesh":9,"translation":[-1.8,-0.0,0.004872025399804553],"rotation":[0.0,0.06942909887730937,0.0,0.9975868885611342],"scale":[0.725,2.4844247496581424,1.8943581489732944]},{"name":"heckenkirsche_a_part_30_LOD0","mesh":1,"translation":[-1.2000000000000002,-0.0,-0.025569010569757494],"rotation":[0.0,-0.03935476195094224,0.0,0.9992253012768365],"scale":[0.7909090909090909,2.4975476377570893,1.9233764374311315]},{"name":"heckenkirsche_a_part_31_LOD1","mesh":1,"translation":[-1.2000000000000002,-0.0,-0.025569010569757494],"rotation":[0.0,-0.03935476195094224,0.0,0.9992253012768365],"scale":[0.7909090909090909,2.4975476377570893,1.9233764374311315]},{"name":"heckenkirsche_a_part_32_LOD2","mesh":1,"translation":[-1.2000000000000002,-0.0,-0.025569010569757494],"rotation":[0.0,-0.03935476195094224,0.0,0.9992253012768365],"scale":[0.7909090909090909,2.4975476377570893,1.9233764374311315]},{"name":"heckenkirsche_a_part_33_LOD3","mesh":1,"translation":[-1.2000000000000002,-0.0,-0.025569010569757494],"rotation":[0.0,-0.03935476195094224,0.0,0.9992253012768365],"scale":[0.7909090909090909,2.4975476377570893,1.9233764374311315]},{"name":"heckenkirsche_a_part_34_LOD4","mesh":1,"translation":[-1.2000000000000002,-0.0,-0.025569010569757494],"rotation":[0.0,-0.03935476195094224,0.0,0.9992253012768365],"scale":[0.7909090909090909,2.4975476377570893,1.9233764374311315]},{"name":"heckenkirsche_a_part_35_LOD5","mesh":1,"translation":[-1.2000000000000002,-0.0,-0.025569010569757494],"rotation":[0.0,-0.03935476195094224,0.0,0.9992253012768365],"scale":[0.7909090909090909,2.4975476377570893,1.9233764374311315]},{"name":"heckenkirsche_a_part_36_LOD6","mesh":1,"translation":[-1.2000000000000002,-0.0,-0.025569010569757494],"rotation":[0.0,-0.03935476195094224,0.0,0.9992253012768365],"scale":[0.7909090909090909,2.4975476377570893,1.9233764374311315]},{"name":"heckenkirsche_a_part_37_LOD7","mesh":1,"translation":[-1.2000000000000002,-0.0,-0.025569010569757494],"rotation":[0.0,-0.03935476195094224,0.0,0.9992253012768365],"scale":[0.7909090909090909,2.4975476377570893,1.9233764374311315]},{"name":"hundsrose_a_part_38_LOD0","mesh":5,"translation":[-0.6000000000000001,-0.0,0.08288590205850907],"rotation":[0.0,-0.0018397831396563444,0.0,0.9999983075975674],"scale":[0.464,1.631279718043231,1.007468409249693]},{"name":"hundsrose_a_part_39_LOD1","mesh":5,"translation":[-0.6000000000000001,-0.0,0.08288590205850907],"rotation":[0.0,-0.0018397831396563444,0.0,0.9999983075975674],"scale":[0.464,1.631279718043231,1.007468409249693]},{"name":"hundsrose_a_part_40_LOD2","mesh":5,"translation":[-0.6000000000000001,-0.0,0.08288590205850907],"rotation":[0.0,-0.0018397831396563444,0.0,0.9999983075975674],"scale":[0.464,1.631279718043231,1.007468409249693]},{"name":"hundsrose_a_part_41_LOD3","mesh":5,"translation":[-0.6000000000000001,-0.0,0.08288590205850907],"rotation":[0.0,-0.0018397831396563444,0.0,0.9999983075975674],"scale":[0.464,1.631279718043231,1.007468409249693]},{"name":"hundsrose_a_part_42_LOD4","mesh":5,"translation":[-0.6000000000000001,-0.0,0.08288590205850907],"rotation":[0.0,-0.0018397831396563444,0.0,0.9999983075975674],"scale":[0.464,1.631279718043231,1.007468409249693]},{"name":"hundsrose_a_part_43_LOD5","mesh":5,"translation":[-0.6000000000000001,-0.0,0.08288590205850907],"rotation":[0.0,-0.0018397831396563444,0.0,0.9999983075975674],"scale":[0.464,1.631279718043231,1.007468409249693]},{"name":"berberitze_a_part_44_LOD0","mesh":9,"translation":[0.0,-0.0,-0.03233665711497166],"rotation":[0.0,0.015090805155843594,0.0,0.9998861273163802],"scale":[0.725,2.507042949689131,1.9183097071977586]},{"name":"berberitze_a_part_45_LOD1","mesh":9,"translation":[0.0,-0.0,-0.03233665711497166],"rotation":[0.0,0.015090805155843594,0.0,0.9998861273163802],"scale":[0.725,2.507042949689131,1.9183097071977586]},{"name":"berberitze_a_part_46_LOD2","mesh":9,"translation":[0.0,-0.0,-0.03233665711497166],"rotation":[0.0,0.015090805155843594,0.0,0.9998861273163802],"scale":[0.725,2.507042949689131,1.9183097071977586]},{"name":"berberitze_a_part_47_LOD3","mesh":9,"translation":[0.0,-0.0,-0.03233665711497166],"rotation":[0.0,0.015090805155843594,0.0,0.9998861273163802],"scale":[0.725,2.507042949689131,1.9183097071977586]},{"name":"berberitze_a_part_48_LOD4","mesh":9,"translation":[0.0,-0.0,-0.03233665711497166],"rotation":[0.0,0.015090805155843594,0.0,0.9998861273163802],"scale":[0.725,2.507042949689131,1.9183097071977586]},{"name":"berberitze_a_part_49_LOD5","mesh":9,"translation":[0.0,-0.0,-0.03233665711497166],"rotation":[0.0,0.015090805155843594,0.0,0.9998861273163802],"scale":[0.725,2.507042949689131,1.9183097071977586]},{"name":"berberitze_a_part_50_LOD6","mesh":9,"translation":[0.0,-0.0,-0.03233665711497166],"rotation":[0.0,0.015090805155843594,0.0,0.9998861273163802],"scale":[0.725,2.507042949689131,1.9183097071977586]},{"name":"berberitze_a_part_51_LOD7","mesh":9,"translation":[0.0,-0.0,-0.03233665711497166],"rotation":[0.0,0.015090805155843594,0.0,0.9998861273163802],"scale":[0.725,2.507042949689131,1.9183097071977586]},{"name":"berberitze_a_part_52_LOD8","mesh":9,"translation":[0.0,-0.0,-0.03233665711497166],"rotation":[0.0,0.015090805155843594,0.0,0.9998861273163802],"scale":[0.725,2.507042949689131,1.9183097071977586]},{"name":"berberitze_a_part_53_LOD9","mesh":9,"translation":[0.0,-0.0,-0.03233665711497166],"rotation":[0.0,0.015090805155843594,0.0,0.9998861273163802],"scale":[0.725,2.507042949689131,1.9183097071977586]},{"name":"heckenkirsche_a_part_54_LOD0","mesh":1,"translation":[0.5999999999999996,-0.0,0.05196876407962456],"rotation":[0.0,0.06445696748838886,0.0,0.9979204874849502],"scale":[0.7909090909090909,2.58243815540005,1.8924015100673706]},{"name":"heckenkirsche_a_part_55_LOD1","mesh":1,"translation":[0.5999999999999996,-0.0,0.05196876407962456],"rotation":[0.0,0.06445696748838886,0.0,0.9979204874849502],"scale":[0.7909090909090909,2.58243815540005,1.8924015100673706]},{"name":"hundsrose_a_part_56_LOD0","mesh":5,"translation":[1.2000000000000002,-0.0,-0.014764757360213793],"rotation":[0.0,0.06468065382903317,0.0,0.9979060141216951],"scale":[0.464,1.6698054014002686,0.9875747991767707]},{"name":"hundsrose_a_part_57_LOD1","mesh":5,"translation":[1.2000000000000002,-0.0,-0.014764757360213793],"rotation":[0.0,0.06468065382903317,0.0,0.9979060141216951],"scale":[0.464,1.6698054014002686,0.9875747991767707]},{"name":"hundsrose_a_part_58_LOD2","mesh":5,"translation":[1.2000000000000002,-0.0,-0.014764757360213793],"rotation":[0.0,0.06468065382903317,0.0,0.9979060141216951],"scale":[0.464,1.6698054014002686,0.9875747991767707]},{"name":"hundsrose_a_part_59_LOD3","mesh":5,"translation":[1.2000000000000002,-0.0,-0.014764757360213793],"rotation":[0.0,0.06468065382903317,0.0,0.9979060141216951],"scale":[0.464,1.6698054014002686,0.9875747991767707]},{"name":"berberitze_a_part_60_LOD0","mesh":9,"translation":[1.7999999999999998,-0.0,0.13509042184047151],"rotation":[0.0,-0.004275523925043241,0.0,0.9999908599058125],"scale":[0.725,2.591292110520846,1.6755661972781635]},{"name":"berberitze_a_part_61_LOD1","mesh":9,"translation":[1.7999999999999998,-0.0,0.13509042184047151],"rotation":[0.0,-0.004275523925043241,0.0,0.9999908599058125],"scale":[0.725,2.591292110520846,1.6755661972781635]},{"name":"heckenkirsche_a_part_62_LOD0","mesh":1,"translation":[2.3999999999999995,-0.0,0.008812388766613943],"rotation":[0.0,0.04101200108774711,0.0,0.9991586539518029],"scale":[0.7909090909090909,2.5993896797063165,1.8132722162178567]},{"name":"heckenkirsche_a_part_63_LOD1","mesh":1,"translation":[2.3999999999999995,-0.0,0.008812388766613943],"rotation":[0.0,0.04101200108774711,0.0,0.9991586539518029],"scale":[0.7909090909090909,2.5993896797063165,1.8132722162178567]},{"name":"hundsrose_a_part_64_LOD0","mesh":5,"translation":[3.0,-0.0,0.08905448998260265],"rotation":[0.0,-0.03073840640700498,0.0,0.9995274635404261],"scale":[0.464,1.7176804157164836,1.250904174760669]},{"name":"hundsrose_a_part_65_LOD1","mesh":5,"translation":[3.0,-0.0,0.08905448998260265],"rotation":[0.0,-0.03073840640700498,0.0,0.9995274635404261],"scale":[0.464,1.7176804157164836,1.250904174760669]},{"name":"hundsrose_a_part_66_LOD2","mesh":5,"translation":[3.0,-0.0,0.08905448998260265],"rotation":[0.0,-0.03073840640700498,0.0,0.9995274635404261],"scale":[0.464,1.7176804157164836,1.250904174760669]},{"name":"hundsrose_a_part_67_LOD3","mesh":5,"translation":[3.0,-0.0,0.08905448998260265],"rotation":[0.0,-0.03073840640700498,0.0,0.9995274635404261],"scale":[0.464,1.7176804157164836,1.250904174760669]},{"name":"hundsrose_a_part_68_LOD4","mesh":5,"translation":[3.0,-0.0,0.08905448998260265],"rotation":[0.0,-0.03073840640700498,0.0,0.9995274635404261],"scale":[0.464,1.7176804157164836,1.250904174760669]},{"name":"hundsrose_a_part_69_LOD5","mesh":5,"translation":[3.0,-0.0,0.08905448998260265],"rotation":[0.0,-0.03073840640700498,0.0,0.9995274635404261],"scale":[0.464,1.7176804157164836,1.250904174760669]},{"name":"hundsrose_a_part_70_LOD6","mesh":5,"translation":[3.0,-0.0,0.08905448998260265],"rotation":[0.0,-0.03073840640700498,0.0,0.9995274635404261],"scale":[0.464,1.7176804157164836,1.250904174760669]},{"name":"hundsrose_a_part_71_LOD7","mesh":5,"translation":[3.0,-0.0,0.08905448998260265],"rotation":[0.0,-0.03073840640700498,0.0,0.9995274635404261],"scale":[0.464,1.7176804157164836,1.250904174760669]},{"name":"hundsrose_a_part_72_LOD0","mesh":5,"translation":[-2.7,-0.0,-0.2543870790346371],"rotation":[0.0,0.01786818806836944,0.0,0.9998403511837044],"scale":[0.49599999999999994,0.951604405304483,1.2740922290690317]},{"name":"hundsrose_a_part_73_LOD1","mesh":5,"translation":[-2.7,-0.0,-0.2543870790346371],"rotation":[0.0,0.01786818806836944,0.0,0.9998403511837044],"scale":[0.49599999999999994,0.951604405304483,1.2740922290690317]},{"name":"hundsrose_a_part_74_LOD2","mesh":5,"translation":[-2.7,-0.0,-0.2543870790346371],"rotation":[0.0,0.01786818806836944,0.0,0.9998403511837044],"scale":[0.49599999999999994,0.951604405304483,1.2740922290690317]},{"name":"hundsrose_a_part_75_LOD3","mesh":5,"translation":[-2.7,-0.0,-0.2543870790346371],"rotation":[0.0,0.01786818806836944,0.0,0.9998403511837044],"scale":[0.49599999999999994,0.951604405304483,1.2740922290690317]},{"name":"hundsrose_a_part_76_LOD4","mesh":5,"translation":[-2.7,-0.0,-0.2543870790346371],"rotation":[0.0,0.01786818806836944,0.0,0.9998403511837044],"scale":[0.49599999999999994,0.951604405304483,1.2740922290690317]},{"name":"hundsrose_a_part_77_LOD5","mesh":5,"translation":[-2.7,-0.0,-0.2543870790346371],"rotation":[0.0,0.01786818806836944,0.0,0.9998403511837044],"scale":[0.49599999999999994,0.951604405304483,1.2740922290690317]},{"name":"hundsrose_a_part_78_LOD6","mesh":5,"translation":[-2.7,-0.0,-0.2543870790346371],"rotation":[0.0,0.01786818806836944,0.0,0.9998403511837044],"scale":[0.49599999999999994,0.951604405304483,1.2740922290690317]},{"name":"hundsrose_a_part_79_LOD7","mesh":5,"translation":[-2.7,-0.0,-0.2543870790346371],"rotation":[0.0,0.01786818806836944,0.0,0.9998403511837044],"scale":[0.49599999999999994,0.951604405304483,1.2740922290690317]},{"name":"hundsrose_a_part_80_LOD8","mesh":5,"translation":[-2.7,-0.0,-0.2543870790346371],"rotation":[0.0,0.01786818806836944,0.0,0.9998403511837044],"scale":[0.49599999999999994,0.951604405304483,1.2740922290690317]},{"name":"hundsrose_a_part_81_LOD9","mesh":5,"translation":[-2.7,-0.0,-0.2543870790346371],"rotation":[0.0,0.01786818806836944,0.0,0.9998403511837044],"scale":[0.49599999999999994,0.951604405304483,1.2740922290690317]},{"name":"hundsrose_a_part_82_LOD10","mesh":5,"translation":[-2.7,-0.0,-0.2543870790346371],"rotation":[0.0,0.01786818806836944,0.0,0.9998403511837044],"scale":[0.49599999999999994,0.951604405304483,1.2740922290690317]},{"name":"hundsrose_a_part_83_LOD11","mesh":5,"translation":[-2.7,-0.0,-0.2543870790346371],"rotation":[0.0,0.01786818806836944,0.0,0.9998403511837044],"scale":[0.49599999999999994,0.951604405304483,1.2740922290690317]},{"name":"berberitze_a_part_84_LOD0","mesh":9,"translation":[-2.1,-0.0,-0.27598360775239605],"rotation":[0.0,-0.08488199426431818,0.0,0.9963910111245045],"scale":[0.775,1.6779410520646363,1.660442728344346]},{"name":"berberitze_a_part_85_LOD1","mesh":9,"translation":[-2.1,-0.0,-0.27598360775239605],"rotation":[0.0,-0.08488199426431818,0.0,0.9963910111245045],"scale":[0.775,1.6779410520646363,1.660442728344346]},{"name":"heckenkirsche_a_part_86_LOD0","mesh":1,"translation":[-1.5,-0.0,0.021155839982671232],"rotation":[0.0,0.05259770548062397,0.0,0.998615782660265],"scale":[0.8454545454545453,1.5018079594751685,2.0165080714076273]},{"name":"heckenkirsche_a_part_87_LOD1","mesh":1,"translation":[-1.5,-0.0,0.021155839982671232],"rotation":[0.0,0.05259770548062397,0.0,0.998615782660265],"scale":[0.8454545454545453,1.5018079594751685,2.0165080714076273]},{"name":"heckenkirsche_a_part_88_LOD2","mesh":1,"translation":[-1.5,-0.0,0.021155839982671232],"rotation":[0.0,0.05259770548062397,0.0,0.998615782660265],"scale":[0.8454545454545453,1.5018079594751685,2.0165080714076273]},{"name":"heckenkirsche_a_part_89_LOD3","mesh":1,"translation":[-1.5,-0.0,0.021155839982671232],"rotation":[0.0,0.05259770548062397,0.0,0.998615782660265],"scale":[0.8454545454545453,1.5018079594751685,2.0165080714076273]},{"name":"hundsrose_a_part_90_LOD0","mesh":5,"translation":[-0.8999999999999999,-0.0,0.1125352468643725],"rotation":[0.0,0.04569954240225543,0.0,0.9989552301400821],"scale":[0.49599999999999994,1.124077269877185,1.2790241961009972]},{"name":"hundsrose_a_part_91_LOD1","mesh":5,"translation":[-0.8999999999999999,-0.0,0.1125352468643725],"rotation":[0.0,0.04569954240225543,0.0,0.9989552301400821],"scale":[0.49599999999999994,1.124077269877185,1.2790241961009972]},{"name":"hundsrose_a_part_92_LOD2","mesh":5,"translation":[-0.8999999999999999,-0.0,0.1125352468643725],"rotation":[0.0,0.04569954240225543,0.0,0.9989552301400821],"scale":[0.49599999999999994,1.124077269877185,1.2790241961009972]},{"name":"hundsrose_a_part_93_LOD3","mesh":5,"translation":[-0.8999999999999999,-0.0,0.1125352468643725],"rotation":[0.0,0.04569954240225543,0.0,0.9989552301400821],"scale":[0.49599999999999994,1.124077269877185,1.2790241961009972]},{"name":"hundsrose_a_part_94_LOD4","mesh":5,"translation":[-0.8999999999999999,-0.0,0.1125352468643725],"rotation":[0.0,0.04569954240225543,0.0,0.9989552301400821],"scale":[0.49599999999999994,1.124077269877185,1.2790241961009972]},{"name":"hundsrose_a_part_95_LOD5","mesh":5,"translation":[-0.8999999999999999,-0.0,0.1125352468643725],"rotation":[0.0,0.04569954240225543,0.0,0.9989552301400821],"scale":[0.49599999999999994,1.124077269877185,1.2790241961009972]},{"name":"hundsrose_a_part_96_LOD6","mesh":5,"translation":[-0.8999999999999999,-0.0,0.1125352468643725],"rotation":[0.0,0.04569954240225543,0.0,0.9989552301400821],"scale":[0.49599999999999994,1.124077269877185,1.2790241961009972]},{"name":"hundsrose_a_part_97_LOD7","mesh":5,"translation":[-0.8999999999999999,-0.0,0.1125352468643725],"rotation":[0.0,0.04569954240225543,0.0,0.9989552301400821],"scale":[0.49599999999999994,1.124077269877185,1.2790241961009972]},{"name":"hundsrose_a_part_98_LOD8","mesh":5,"translation":[-0.8999999999999999,-0.0,0.1125352468643725],"rotation":[0.0,0.04569954240225543,0.0,0.9989552301400821],"scale":[0.49599999999999994,1.124077269877185,1.2790241961009972]},{"name":"hundsrose_a_part_99_LOD9","mesh":5,"translation":[-0.8999999999999999,-0.0,0.1125352468643725],"rotation":[0.0,0.04569954240225543,0.0,0.9989552301400821],"scale":[0.49599999999999994,1.124077269877185,1.2790241961009972]},{"name":"hundsrose_a_part_100_LOD10","mesh":5,"translation":[-0.8999999999999999,-0.0,0.1125352468643725],"rotation":[0.0,0.04569954240225543,0.0,0.9989552301400821],"scale":[0.49599999999999994,1.124077269877185,1.2790241961009972]},{"name":"hundsrose_a_part_101_LOD11","mesh":5,"translation":[-0.8999999999999999,-0.0,0.1125352468643725],"rotation":[0.0,0.04569954240225543,0.0,0.9989552301400821],"scale":[0.49599999999999994,1.124077269877185,1.2790241961009972]},{"name":"berberitze_a_part_102_LOD0","mesh":9,"translation":[-0.30000000000000027,-0.0,-0.28378864188807335],"rotation":[0.0,-0.034300595447407774,0.0,0.9994115614460107],"scale":[0.775,1.6521552313799368,1.9274940932398628]},{"name":"berberitze_a_part_103_LOD1","mesh":9,"translation":[-0.30000000000000027,-0.0,-0.28378864188807335],"rotation":[0.0,-0.034300595447407774,0.0,0.9994115614460107],"scale":[0.775,1.6521552313799368,1.9274940932398628]},{"name":"heckenkirsche_a_part_104_LOD0","mesh":1,"translation":[0.2999999999999998,-0.0,-0.14699421645105012],"rotation":[0.0,0.05328241570921173,0.0,0.9985794831540405],"scale":[0.8454545454545453,1.48589740419732,1.9430921508293577]},{"name":"heckenkirsche_a_part_105_LOD1","mesh":1,"translation":[0.2999999999999998,-0.0,-0.14699421645105012],"rotation":[0.0,0.05328241570921173,0.0,0.9985794831540405],"scale":[0.8454545454545453,1.48589740419732,1.9430921508293577]},{"name":"heckenkirsche_a_part_106_LOD2","mesh":1,"translation":[0.2999999999999998,-0.0,-0.14699421645105012],"rotation":[0.0,0.05328241570921173,0.0,0.9985794831540405],"scale":[0.8454545454545453,1.48589740419732,1.9430921508293577]},{"name":"heckenkirsche_a_part_107_LOD3","mesh":1,"translation":[0.2999999999999998,-0.0,-0.14699421645105012],"rotation":[0.0,0.05328241570921173,0.0,0.9985794831540405],"scale":[0.8454545454545453,1.48589740419732,1.9430921508293577]},{"name":"hundsrose_a_part_108_LOD0","mesh":5,"translation":[0.8999999999999999,-0.0,-0.2824103033594669],"rotation":[0.0,0.079880448065559,0.0,0.996804451242492],"scale":[0.49599999999999994,1.0821695888049752,1.2227485005547782]},{"name":"hundsrose_a_part_109_LOD1","mesh":5,"translation":[0.8999999999999999,-0.0,-0.2824103033594669],"rotation":[0.0,0.079880448065559,0.0,0.996804451242492],"scale":[0.49599999999999994,1.0821695888049752,1.2227485005547782]},{"name":"hundsrose_a_part_110_LOD2","mesh":5,"translation":[0.8999999999999999,-0.0,-0.2824103033594669],"rotation":[0.0,0.079880448065559,0.0,0.996804451242492],"scale":[0.49599999999999994,1.0821695888049752,1.2227485005547782]},{"name":"hundsrose_a_part_111_LOD3","mesh":5,"translation":[0.8999999999999999,-0.0,-0.2824103033594669],"rotation":[0.0,0.079880448065559,0.0,0.996804451242492],"scale":[0.49599999999999994,1.0821695888049752,1.2227485005547782]},{"name":"hundsrose_a_part_112_LOD4","mesh":5,"translation":[0.8999999999999999,-0.0,-0.2824103033594669],"rotation":[0.0,0.079880448065559,0.0,0.996804451242492],"scale":[0.49599999999999994,1.0821695888049752,1.2227485005547782]},{"name":"hundsrose_a_part_113_LOD5","mesh":5,"translation":[0.8999999999999999,-0.0,-0.2824103033594669],"rotation":[0.0,0.079880448065559,0.0,0.996804451242492],"scale":[0.49599999999999994,1.0821695888049752,1.2227485005547782]},{"name":"hundsrose_a_part_114_LOD6","mesh":5,"translation":[0.8999999999999999,-0.0,-0.2824103033594669],"rotation":[0.0,0.079880448065559,0.0,0.996804451242492],"scale":[0.49599999999999994,1.0821695888049752,1.2227485005547782]},{"name":"hundsrose_a_part_115_LOD7","mesh":5,"translation":[0.8999999999999999,-0.0,-0.2824103033594669],"rotation":[0.0,0.079880448065559,0.0,0.996804451242492],"scale":[0.49599999999999994,1.0821695888049752,1.2227485005547782]},{"name":"hundsrose_a_part_116_LOD8","mesh":5,"translation":[0.8999999999999999,-0.0,-0.2824103033594669],"rotation":[0.0,0.079880448065559,0.0,0.996804451242492],"scale":[0.49599999999999994,1.0821695888049752,1.2227485005547782]},{"name":"hundsrose_a_part_117_LOD9","mesh":5,"translation":[0.8999999999999999,-0.0,-0.2824103033594669],"rotation":[0.0,0.079880448065559,0.0,0.996804451242492],"scale":[0.49599999999999994,1.0821695888049752,1.2227485005547782]},{"name":"hundsrose_a_part_118_LOD10","mesh":5,"translation":[0.8999999999999999,-0.0,-0.2824103033594669],"rotation":[0.0,0.079880448065559,0.0,0.996804451242492],"scale":[0.49599999999999994,1.0821695888049752,1.2227485005547782]},{"name":"berberitze_a_part_119_LOD0","mesh":9,"translation":[1.5,-0.0,0.12242146772752738],"rotation":[0.0,-0.1010372130674359,0.0,0.9948826471376238],"scale":[0.775,1.4315395412598733,1.6287048913628683]},{"name":"berberitze_a_part_120_LOD1","mesh":9,"translation":[1.5,-0.0,0.12242146772752738],"rotation":[0.0,-0.1010372130674359,0.0,0.9948826471376238],"scale":[0.775,1.4315395412598733,1.6287048913628683]},{"name":"berberitze_a_part_121_LOD2","mesh":9,"translation":[1.5,-0.0,0.12242146772752738],"rotation":[0.0,-0.1010372130674359,0.0,0.9948826471376238],"scale":[0.775,1.4315395412598733,1.6287048913628683]},{"name":"berberitze_a_part_122_LOD3","mesh":9,"translation":[1.5,-0.0,0.12242146772752738],"rotation":[0.0,-0.1010372130674359,0.0,0.9948826471376238],"scale":[0.775,1.4315395412598733,1.6287048913628683]},{"name":"berberitze_a_part_123_LOD4","mesh":9,"translation":[1.5,-0.0,0.12242146772752738],"rotation":[0.0,-0.1010372130674359,0.0,0.9948826471376238],"scale":[0.775,1.4315395412598733,1.6287048913628683]},{"name":"berberitze_a_part_124_LOD5","mesh":9,"translation":[1.5,-0.0,0.12242146772752738],"rotation":[0.0,-0.1010372130674359,0.0,0.9948826471376238],"scale":[0.775,1.4315395412598733,1.6287048913628683]},{"name":"heckenkirsche_a_part_125_LOD0","mesh":1,"translation":[2.0999999999999996,-0.0,-0.17404893263973792],"rotation":[0.0,0.08352636519579655,0.0,0.9965055676297943],"scale":[0.8454545454545453,1.692701177451621,1.8453873265809115]},{"name":"heckenkirsche_a_part_126_LOD1","mesh":1,"translation":[2.0999999999999996,-0.0,-0.17404893263973792],"rotation":[0.0,0.08352636519579655,0.0,0.9965055676297943],"scale":[0.8454545454545453,1.692701177451621,1.8453873265809115]},{"name":"hundsrose_a_part_127_LOD0","mesh":5,"translation":[2.7,-0.0,0.10964514153124277],"rotation":[0.0,-0.0017661231626450054,0.0,0.999998440403271],"scale":[0.49599999999999994,1.047450179815119,1.0881559822253326]},{"name":"hundsrose_a_part_128_LOD1","mesh":5,"translation":[2.7,-0.0,0.10964514153124277],"rotation":[0.0,-0.0017661231626450054,0.0,0.999998440403271],"scale":[0.49599999999999994,1.047450179815119,1.0881559822253326]},{"name":"leaf_volume_LOD0","mesh":12},{"name":"leaf_volume_LOD1","mesh":13},{"name":"leaf_volume_LOD2","mesh":14},{"name":"leaf_volume_LOD3","mesh":15},{"name":"leaf_volume_LOD4","mesh":16},{"name":"leaf_volume_LOD5","mesh":17},{"name":"leaf_volume_LOD6","mesh":18},{"name":"leaf_volume_LOD7","mesh":19},{"name":"leaf_volume_LOD8","mesh":20},{"name":"leaf_volume_LOD9","mesh":21},{"name":"leaf_volume_LOD10","mesh":22},{"name":"leaf_volume_LOD11","mesh":23}],"meshes":[{"name":"heckenkirsche_a_crown_LOD0","primitives":[{"attributes":{"POSITION":0,"NORMAL":1,"TEXCOORD_0":2},"indices":3,"material":1}]},{"name":"heckenkirsche_a_crown_LOD1","primitives":[{"attributes":{"POSITION":4,"NORMAL":5,"TEXCOORD_0":6},"indices":7,"material":1}]},{"name":"heckenkirsche_a_crown_LOD2","primitives":[{"attributes":{"POSITION":8,"NORMAL":9,"TEXCOORD_0":10},"indices":11,"material":2}]},{"name":"heckenkirsche_a_crown_LOD3","primitives":[{"attributes":{"POSITION":12,"NORMAL":13,"TEXCOORD_0":14},"indices":15,"material":2}]},{"name":"hundsrose_a_crown_LOD0","primitives":[{"attributes":{"POSITION":16,"NORMAL":17,"TEXCOORD_0":18},"indices":19,"material":4}]},{"name":"hundsrose_a_crown_LOD1","primitives":[{"attributes":{"POSITION":20,"NORMAL":21,"TEXCOORD_0":22},"indices":23,"material":4}]},{"name":"hundsrose_a_crown_LOD2","primitives":[{"attributes":{"POSITION":24,"NORMAL":25,"TEXCOORD_0":26},"indices":27,"material":5}]},{"name":"hundsrose_a_crown_LOD3","primitives":[{"attributes":{"POSITION":28,"NORMAL":29,"TEXCOORD_0":30},"indices":31,"material":5}]},{"name":"berberitze_a_crown_LOD0","primitives":[{"attributes":{"POSITION":32,"NORMAL":33,"TEXCOORD_0":34},"indices":35,"material":7}]},{"name":"berberitze_a_crown_LOD1","primitives":[{"attributes":{"POSITION":36,"NORMAL":37,"TEXCOORD_0":38},"indices":39,"material":7}]},{"name":"berberitze_a_crown_LOD2","primitives":[{"attributes":{"POSITION":40,"NORMAL":41,"TEXCOORD_0":42},"indices":43,"material":8}]},{"name":"berberitze_a_crown_LOD3","primitives":[{"attributes":{"POSITION":44,"NORMAL":45,"TEXCOORD_0":46},"indices":47,"material":8}]},{"name":"weissdornhecke_leaf_volume_LOD0","primitives":[{"attributes":{"POSITION":48,"NORMAL":49,"TEXCOORD_0":50},"indices":51,"material":9}]},{"name":"weissdornhecke_leaf_volume_LOD1","primitives":[{"attributes":{"POSITION":52,"NORMAL":53,"TEXCOORD_0":54},"indices":55,"material":10}]},{"name":"weissdornhecke_leaf_volume_LOD2","primitives":[{"attributes":{"POSITION":56,"NORMAL":57,"TEXCOORD_0":58},"indices":59,"material":11}]},{"name":"weissdornhecke_leaf_volume_LOD3","primitives":[{"attributes":{"POSITION":60,"NORMAL":61,"TEXCOORD_0":62},"indices":63,"material":12}]},{"name":"weissdornhecke_leaf_volume_LOD4","primitives":[{"attributes":{"POSITION":64,"NORMAL":65,"TEXCOORD_0":66},"indices":67,"material":13}]},{"name":"weissdornhecke_leaf_volume_LOD5","primitives":[{"attributes":{"POSITION":68,"NORMAL":69,"TEXCOORD_0":70},"indices":71,"material":14}]},{"name":"weissdornhecke_leaf_volume_LOD6","primitives":[{"attributes":{"POSITION":72,"NORMAL":73,"TEXCOORD_0":74},"indices":75,"material":15}]},{"name":"weissdornhecke_leaf_volume_LOD7","primitives":[{"attributes":{"POSITION":76,"NORMAL":77,"TEXCOORD_0":78},"indices":79,"material":16}]},{"name":"weissdornhecke_leaf_volume_LOD8","primitives":[{"attributes":{"POSITION":80,"NORMAL":81,"TEXCOORD_0":82},"indices":83,"material":17}]},{"name":"weissdornhecke_leaf_volume_LOD9","primitives":[{"attributes":{"POSITION":84,"NORMAL":85,"TEXCOORD_0":86},"indices":87,"material":18}]},{"name":"weissdornhecke_leaf_volume_LOD10","primitives":[{"attributes":{"POSITION":88,"NORMAL":89,"TEXCOORD_0":90},"indices":91,"material":19}]},{"name":"weissdornhecke_leaf_volume_LOD11","primitives":[{"attributes":{"POSITION":92,"NORMAL":93,"TEXCOORD_0":94},"indices":95,"material":20}]}],"buffers":[{"uri":"heckenkirsche_a.bin","byteLength":494748},{"uri":"hundsrose_a.bin","byteLength":494748},{"uri":"berberitze_a.bin","byteLength":494748},{"uri":"weissdornhecke_c_hedge.bin","byteLength":8841000}],"bufferViews":[{"buffer":0,"byteOffset":0,"byteLength":105048,"target":34962},{"buffer":0,"byteOffset":105048,"byteLength":105048,"target":34962},{"buffer":0,"byteOffset":210096,"byteLength":70032,"target":34962},{"buffer":0,"byteOffset":280128,"byteLength":43392,"target":34963},{"buffer":0,"byteOffset":323520,"byteLength":56400,"target":34962},{"buffer":0,"byteOffset":379920,"byteLength":56400,"target":34962},{"buffer":0,"byteOffset":436320,"byteLength":37600,"target":34962},{"buffer":0,"byteOffset":473920,"byteLength":19986,"target":34963},{"buffer":0,"byteOffset":493908,"byteLength":192,"target":34962},{"buffer":0,"byteOffset":494100,"byteLength":192,"target":34962},{"buffer":0,"byteOffset":494292,"byteLength":128,"target":34962},{"buffer":0,"byteOffset":494420,"byteLength":48,"target":34963},{"buffer":0,"byteOffset":494468,"byteLength":96,"target":34962},{"buffer":0,"byteOffset":494564,"byteLength":96,"target":34962},{"buffer":0,"byteOffset":494660,"byteLength":64,"target":34962},{"buffer":0,"byteOffset":494724,"byteLength":24,"target":34963},{"buffer":1,"byteOffset":0,"byteLength":105048,"target":34962},{"buffer":1,"byteOffset":105048,"byteLength":105048,"target":34962},{"buffer":1,"byteOffset":210096,"byteLength":70032,"target":34962},{"buffer":1,"byteOffset":280128,"byteLength":43392,"target":34963},{"buffer":1,"byteOffset":323520,"byteLength":56400,"target":34962},{"buffer":1,"byteOffset":379920,"byteLength":56400,"target":34962},{"buffer":1,"byteOffset":436320,"byteLength":37600,"target":34962},{"buffer":1,"byteOffset":473920,"byteLength":19986,"target":34963},{"buffer":1,"byteOffset":493908,"byteLength":192,"target":34962},{"buffer":1,"byteOffset":494100,"byteLength":192,"target":34962},{"buffer":1,"byteOffset":494292,"byteLength":128,"target":34962},{"buffer":1,"byteOffset":494420,"byteLength":48,"target":34963},{"buffer":1,"byteOffset":494468,"byteLength":96,"target":34962},{"buffer":1,"byteOffset":494564,"byteLength":96,"target":34962},{"buffer":1,"byteOffset":494660,"byteLength":64,"target":34962},{"buffer":1,"byteOffset":494724,"byteLength":24,"target":34963},{"buffer":2,"byteOffset":0,"byteLength":105048,"target":34962},{"buffer":2,"byteOffset":105048,"byteLength":105048,"target":34962},{"buffer":2,"byteOffset":210096,"byteLength":70032,"target":34962},{"buffer":2,"byteOffset":280128,"byteLength":43392,"target":34963},{"buffer":2,"byteOffset":323520,"byteLength":56400,"target":34962},{"buffer":2,"byteOffset":379920,"byteLength":56400,"target":34962},{"buffer":2,"byteOffset":436320,"byteLength":37600,"target":34962},{"buffer":2,"byteOffset":473920,"byteLength":19986,"target":34963},{"buffer":2,"byteOffset":493908,"byteLength":192,"target":34962},{"buffer":2,"byteOffset":494100,"byteLength":192,"target":34962},{"buffer":2,"byteOffset":494292,"byteLength":128,"target":34962},{"buffer":2,"byteOffset":494420,"byteLength":48,"target":34963},{"buffer":2,"byteOffset":494468,"byteLength":96,"target":34962},{"buffer":2,"byteOffset":494564,"byteLength":96,"target":34962},{"buffer":2,"byteOffset":494660,"byteLength":64,"target":34962},{"buffer":2,"byteOffset":494724,"byteLength":24,"target":34963},{"buffer":3,"byteOffset":0,"byteLength":345600,"target":34962},{"buffer":3,"byteOffset":345600,"byteLength":345600,"target":34962},{"buffer":3,"byteOffset":691200,"byteLength":230400,"target":34962},{"buffer":3,"byteOffset":921600,"byteLength":86400,"target":34963},{"buffer":3,"byteOffset":1008000,"byteLength":268800,"target":34962},{"buffer":3,"byteOffset":1276800,"byteLength":268800,"target":34962},{"buffer":3,"byteOffset":1545600,"byteLength":179200,"target":34962},{"buffer":3,"byteOffset":1724800,"byteLength":67200,"target":34963},{"buffer":3,"byteOffset":1792000,"byteLength":264000,"target":34962},{"buffer":3,"byteOffset":2056000,"byteLength":264000,"target":34962},{"buffer":3,"byteOffset":2320000,"byteLength":176000,"target":34962},{"buffer":3,"byteOffset":2496000,"byteLength":66000,"target":34963},{"buffer":3,"byteOffset":2562000,"byteLength":259200,"target":34962},{"buffer":3,"byteOffset":2821200,"byteLength":259200,"target":34962},{"buffer":3,"byteOffset":3080400,"byteLength":172800,"target":34962},{"buffer":3,"byteOffset":3253200,"byteLength":64800,"target":34963},{"buffer":3,"byteOffset":3318000,"byteLength":254400,"target":34962},{"buffer":3,"byteOffset":3572400,"byteLength":254400,"target":34962},{"buffer":3,"byteOffset":3826800,"byteLength":169600,"target":34962},{"buffer":3,"byteOffset":3996400,"byteLength":63600,"target":34963},{"buffer":3,"byteOffset":4060000,"byteLength":249600,"target":34962},{"buffer":3,"byteOffset":4309600,"byteLength":249600,"target":34962},{"buffer":3,"byteOffset":4559200,"byteLength":166400,"target":34962},{"buffer":3,"byteOffset":4725600,"byteLength":62400,"target":34963},{"buffer":3,"byteOffset":4788000,"byteLength":244800,"target":34962},{"buffer":3,"byteOffset":5032800,"byteLength":244800,"target":34962},{"buffer":3,"byteOffset":5277600,"byteLength":163200,"target":34962},{"buffer":3,"byteOffset":5440800,"byteLength":61200,"target":34963},{"buffer":3,"byteOffset":5502000,"byteLength":240000,"target":34962},{"buffer":3,"byteOffset":5742000,"byteLength":240000,"target":34962},{"buffer":3,"byteOffset":5982000,"byteLength":160000,"target":34962},{"buffer":3,"byteOffset":6142000,"byteLength":60000,"target":34963},{"buffer":3,"byteOffset":6202000,"byteLength":235200,"target":34962},{"buffer":3,"byteOffset":6437200,"byteLength":235200,"target":34962},{"buffer":3,"byteOffset":6672400,"byteLength":156800,"target":34962},{"buffer":3,"byteOffset":6829200,"byteLength":58800,"target":34963},{"buffer":3,"byteOffset":6888000,"byteLength":230400,"target":34962},{"buffer":3,"byteOffset":7118400,"byteLength":230400,"target":34962},{"buffer":3,"byteOffset":7348800,"byteLength":153600,"target":34962},{"buffer":3,"byteOffset":7502400,"byteLength":57600,"target":34963},{"buffer":3,"byteOffset":7560000,"byteLength":223200,"target":34962},{"buffer":3,"byteOffset":7783200,"byteLength":223200,"target":34962},{"buffer":3,"byteOffset":8006400,"byteLength":148800,"target":34962},{"buffer":3,"byteOffset":8155200,"byteLength":55800,"target":34963},{"buffer":3,"byteOffset":8211000,"byteLength":216000,"target":34962},{"buffer":3,"byteOffset":8427000,"byteLength":216000,"target":34962},{"buffer":3,"byteOffset":8643000,"byteLength":144000,"target":34962},{"buffer":3,"byteOffset":8787000,"byteLength":54000,"target":34963}],"accessors":[{"bufferView":0,"componentType":5126,"count":8754,"type":"VEC3","min":[-0.55,0.0,-0.4041117252880997],"max":[0.55,1.0,0.4041117252880997]},{"bufferView":1,"componentType":5126,"count":8754,"type":"VEC3","min":[-0.9996779561042786,-0.9997625946998596,-0.9988284111022949],"max":[0.999296247959137,0.9999527335166931,0.9998937249183655]},{"bufferView":2,"componentType":5126,"count":8754,"type":"VEC2"},{"bufferView":3,"componentType":5123,"count":21696,"type":"SCALAR","min":[0],"max":[8753]},{"bufferView":4,"componentType":5126,"count":4700,"type":"VEC3","min":[-0.5486376445947689,1.6705947594052684e-05,-0.39361191808792245],"max":[0.5569338556352812,1.000045272121852,0.3933479710747246]},{"bufferView":5,"componentType":5126,"count":4700,"type":"VEC3","min":[-0.9976954460144043,-0.999291181564331,-0.9989568591117859],"max":[0.998948872089386,0.9999527335166931,0.9998225569725037]},{"bufferView":6,"componentType":5126,"count":4700,"type":"VEC2"},{"bufferView":7,"componentType":5123,"count":9993,"type":"SCALAR","min":[0],"max":[4699]},{"bufferView":8,"componentType":5126,"count":16,"type":"VEC3","min":[-0.6050000000000001,0,-0.6050000000000001],"max":[0.6050000000000001,1.0,0.6050000000000001]},{"bufferView":9,"componentType":5126,"count":16,"type":"VEC3","min":[-1.0,0,-0.7071067811865475],"max":[-0.0,0,1.0]},{"bufferView":10,"componentType":5126,"count":16,"type":"VEC2"},{"bufferView":11,"componentType":5123,"count":24,"type":"SCALAR","min":[0],"max":[15]},{"bufferView":12,"componentType":5126,"count":8,"type":"VEC3","min":[-0.6050000000000001,0,-0.6050000000000001],"max":[0.6050000000000001,1.0,0.6050000000000001]},{"bufferView":13,"componentType":5126,"count":8,"type":"VEC3","min":[-1.0,0,6.123233995736766e-17],"max":[-0.0,0,1.0]},{"bufferView":14,"componentType":5126,"count":8,"type":"VEC2"},{"bufferView":15,"componentType":5123,"count":12,"type":"SCALAR","min":[0],"max":[7]},{"bufferView":16,"componentType":5126,"count":8754,"type":"VEC3","min":[-0.9375,0.0,-0.6888268044683518],"max":[0.9375,1.5000000000000002,0.6888268044683518]},{"bufferView":17,"componentType":5126,"count":8754,"type":"VEC3","min":[-0.9996474385261536,-0.9998162388801575,-0.9986070990562439],"max":[0.9991918206214905,0.9999634027481079,0.9998778700828552]},{"bufferView":18,"componentType":5126,"count":8754,"type":"VEC2"},{"bufferView":19,"componentType":5123,"count":21696,"type":"SCALAR","min":[0],"max":[8753]},{"bufferView":20,"componentType":5126,"count":4700,"type":"VEC3","min":[-0.935177803286538,2.5058921391079027e-05,-0.6709294058316859],"max":[0.949319072105593,1.5000679081827781,0.6704794961500986]},{"bufferView":21,"componentType":5126,"count":4700,"type":"VEC3","min":[-0.9976518154144287,-0.9994509816169739,-0.9989542961120605],"max":[0.9988946318626404,0.9999633431434631,0.9998062252998352]},{"bufferView":22,"componentType":5126,"count":4700,"type":"VEC2"},{"bufferView":23,"componentType":5123,"count":9993,"type":"SCALAR","min":[0],"max":[4699]},{"bufferView":24,"componentType":5126,"count":16,"type":"VEC3","min":[-1.03125,0,-1.03125],"max":[1.03125,1.5,1.03125]},{"bufferView":25,"componentType":5126,"count":16,"type":"VEC3","min":[-1.0,0,-0.7071067811865475],"max":[-0.0,0,1.0]},{"bufferView":26,"componentType":5126,"count":16,"type":"VEC2"},{"bufferView":27,"componentType":5123,"count":24,"type":"SCALAR","min":[0],"max":[15]},{"bufferView":28,"componentType":5126,"count":8,"type":"VEC3","min":[-1.03125,0,-1.03125],"max":[1.03125,1.5,1.03125]},{"bufferView":29,"componentType":5126,"count":8,"type":"VEC3","min":[-1.0,0,6.123233995736766e-17],"max":[-0.0,0,1.0]},{"bufferView":30,"componentType":5126,"count":8,"type":"VEC2"},{"bufferView":31,"componentType":5123,"count":12,"type":"SCALAR","min":[0],"max":[7]},{"bufferView":32,"componentType":5126,"count":8754,"type":"VEC3","min":[-0.6,0.0,-0.44084915485974513],"max":[0.6,1.0,0.44084915485974513]},{"bufferView":33,"componentType":5126,"count":8754,"type":"VEC3","min":[-0.9996581077575684,-0.9998005628585815,-0.9986739158630371],"max":[0.9992280602455139,0.9999603033065796,0.9998832941055298]},{"bufferView":34,"componentType":5126,"count":8754,"type":"VEC2"},{"bufferView":35,"componentType":5123,"count":21696,"type":"SCALAR","min":[0],"max":[8753]},{"bufferView":36,"componentType":5126,"count":4700,"type":"VEC3","min":[-0.5985137941033843,1.6705947594052684e-05,-0.429394819732279],"max":[0.6075642061475794,1.000045272121852,0.42910687753606314]},{"bufferView":37,"componentType":5126,"count":4700,"type":"VEC3","min":[-0.9976669549942017,-0.99940425157547,-0.9989551305770874],"max":[0.9989135265350342,0.9999603033065796,0.9998118281364441]},{"bufferView":38,"componentType":5126,"count":4700,"type":"VEC2"},{"bufferView":39,"componentType":5123,"count":9993,"type":"SCALAR","min":[0],"max":[4699]},{"bufferView":40,"componentType":5126,"count":16,"type":"VEC3","min":[-0.66,0,-0.66],"max":[0.66,1.0,0.66]},{"bufferView":41,"componentType":5126,"count":16,"type":"VEC3","min":[-1.0,0,-0.7071067811865475],"max":[-0.0,0,1.0]},{"bufferView":42,"componentType":5126,"count":16,"type":"VEC2"},{"bufferView":43,"componentType":5123,"count":24,"type":"SCALAR","min":[0],"max":[15]},{"bufferView":44,"componentType":5126,"count":8,"type":"VEC3","min":[-0.66,0,-0.66],"max":[0.66,1.0,0.66]},{"bufferView":45,"componentType":5126,"count":8,"type":"VEC3","min":[-1.0,0,6.123233995736766e-17],"max":[-0.0,0,1.0]},{"bufferView":46,"componentType":5126,"count":8,"type":"VEC2"},{"bufferView":47,"componentType":5123,"count":12,"type":"SCALAR","min":[0],"max":[7]},{"bufferView":48,"componentType":5126,"count":28800,"type":"VEC3","min":[-3.106370829968018,0.026327151835799853,-0.9274951670085163],"max":[3.1162045478844624,2.5557016946503075,0.9276116272712666]},{"bufferView":49,"componentType":5126,"count":28800,"type":"VEC3","min":[-1.0,-0.14995912810977313,-1.0],"max":[1.0,1.0,1.0]},{"bufferView":50,"componentType":5126,"count":28800,"type":"VEC2"},{"bufferView":51,"componentType":5123,"count":43200,"type":"SCALAR","min":[0],"max":[28799]},{"bufferView":52,"componentType":5126,"count":22400,"type":"VEC3","min":[-3.216641747896201,-0.0571922113872369,-1.0095837201313582],"max":[3.230633308646859,2.6136494889680724,1.0399579220173978]},{"bufferView":53,"componentType":5126,"count":22400,"type":"VEC3","min":[-1.0,-0.14991024796460706,-1.0],"max":[1.0,1.0,1.0]},{"bufferView":54,"componentType":5126,"count":22400,"type":"VEC2"},{"bufferView":55,"componentType":5123,"count":33600,"type":"SCALAR","min":[0],"max":[22399]},{"bufferView":56,"componentType":5126,"count":22000,"type":"VEC3","min":[-3.308339201179996,-0.1099767363861024,-1.1181028119332874],"max":[3.319338762918227,2.6736822782194127,1.1033854957191171]},{"bufferView":57,"componentType":5126,"count":22000,"type":"VEC3","min":[-1.0,-0.14992617280840767,-1.0],"max":[1.0,1.0,1.0]},{"bufferView":58,"componentType":5126,"count":22000,"type":"VEC2"},{"bufferView":59,"componentType":5123,"count":33000,"type":"SCALAR","min":[0],"max":[21999]},{"bufferView":60,"componentType":5126,"count":21600,"type":"VEC3","min":[-3.4228577759233354,-0.18443976587892377,-1.2135085236236685],"max":[3.417860174004748,2.7286624449153756,1.196511299962718]},{"bufferView":61,"componentType":5126,"count":21600,"type":"VEC3","min":[-1.0,-0.14996071488302362,-1.0],"max":[1.0,1.0,1.0]},{"bufferView":62,"componentType":5126,"count":21600,"type":"VEC2"},{"bufferView":63,"componentType":5123,"count":32400,"type":"SCALAR","min":[0],"max":[21599]},{"bufferView":64,"componentType":5126,"count":21200,"type":"VEC3","min":[-3.5535175663727343,-0.2908563395927266,-1.3499701144857745],"max":[3.5756802089013147,2.82990569595001,1.3754024913168745]},{"bufferView":65,"componentType":5126,"count":21200,"type":"VEC3","min":[-1.0,-0.14990872310835143,-1.0],"max":[1.0,1.0,1.0]},{"bufferView":66,"componentType":5126,"count":21200,"type":"VEC2"},{"bufferView":67,"componentType":5123,"count":31800,"type":"SCALAR","min":[0],"max":[21199]},{"bufferView":68,"componentType":5126,"count":20800,"type":"VEC3","min":[-3.7122619159710304,-0.3741355923396431,-1.54319256875588],"max":[3.715435322363418,2.971295831334874,1.4736848173833805]},{"bufferView":69,"componentType":5126,"count":20800,"type":"VEC3","min":[-1.0,-0.14989395271783582,-1.0],"max":[1.0,1.0,1.0]},{"bufferView":70,"componentType":5126,"count":20800,"type":"VEC2"},{"bufferView":71,"componentType":5123,"count":31200,"type":"SCALAR","min":[0],"max":[20799]},{"bufferView":72,"componentType":5126,"count":20400,"type":"VEC3","min":[-3.9479153479882223,-0.542408964226728,-1.744155696876938],"max":[3.935060779205492,3.125857797469191,1.7370877567075078]},{"bufferView":73,"componentType":5126,"count":20400,"type":"VEC3","min":[-1.0,-0.14996120035394467,-1.0],"max":[1.0,1.0,1.0]},{"bufferView":74,"componentType":5126,"count":20400,"type":"VEC2"},{"bufferView":75,"componentType":5123,"count":30600,"type":"SCALAR","min":[0],"max":[20399]},{"bufferView":76,"componentType":5126,"count":20000,"type":"VEC3","min":[-4.2233660110558295,-0.7343343620732687,-2.040452198191739],"max":[4.229154427515896,3.2806463482058827,1.9790759906237092]},{"bufferView":77,"componentType":5126,"count":20000,"type":"VEC3","min":[-1.0,-0.14990798559185556,-1.0],"max":[1.0,1.0,1.0]},{"bufferView":78,"componentType":5126,"count":20000,"type":"VEC2"},{"bufferView":79,"componentType":5123,"count":30000,"type":"SCALAR","min":[0],"max":[19999]},{"bufferView":80,"componentType":5126,"count":19600,"type":"VEC3","min":[-4.448453968290655,-0.8965607215381675,-2.240374047784643],"max":[4.484926213070039,3.513345891999671,2.309003636687654]},{"bufferView":81,"componentType":5126,"count":19600,"type":"VEC3","min":[-1.0,-0.14968655517788443,-1.0],"max":[1.0,1.0,1.0]},{"bufferView":82,"componentType":5126,"count":19600,"type":"VEC2"},{"bufferView":83,"componentType":5123,"count":29400,"type":"SCALAR","min":[0],"max":[19599]},{"bufferView":84,"componentType":5126,"count":19200,"type":"VEC3","min":[-4.802728778641618,-1.1411913796167241,-2.6062756980545596],"max":[4.756203006896055,3.6774555318154425,2.651699910071142]},{"bufferView":85,"componentType":5126,"count":19200,"type":"VEC3","min":[-1.0,-0.14997577353581923,-1.0],"max":[1.0,1.0,1.0]},{"bufferView":86,"componentType":5126,"count":19200,"type":"VEC2"},{"bufferView":87,"componentType":5123,"count":28800,"type":"SCALAR","min":[0],"max":[19199]},{"bufferView":88,"componentType":5126,"count":18600,"type":"VEC3","min":[-5.16954562731029,-1.3635478485138213,-2.9691935101079667],"max":[5.209472929188345,3.931401407710232,2.943476401737886]},{"bufferView":89,"componentType":5126,"count":18600,"type":"VEC3","min":[-1.0,-0.14994476468983645,-1.0],"max":[1.0,1.0,1.0]},{"bufferView":90,"componentType":5126,"count":18600,"type":"VEC2"},{"bufferView":91,"componentType":5123,"count":27900,"type":"SCALAR","min":[0],"max":[18599]},{"bufferView":92,"componentType":5126,"count":18000,"type":"VEC3","min":[-5.590378682713904,-1.6823614972935719,-3.4117349696952086],"max":[5.612350857883132,4.235444957104532,3.4068305514858723]},{"bufferView":93,"componentType":5126,"count":18000,"type":"VEC3","min":[-1.0,-0.14980813170549712,-1.0],"max":[1.0,1.0,1.0]},{"bufferView":94,"componentType":5126,"count":18000,"type":"VEC2"},{"bufferView":95,"componentType":5123,"count":27000,"type":"SCALAR","min":[0],"max":[17999]}],"images":[{"uri":"textures/poly_searsia_lucida.png"},{"uri":"textures/poly_searsia_lucida.png"},{"uri":"impostors/heckenkirsche_a_autumn.png"},{"uri":"textures/poly_searsia_lucida.png"},{"uri":"textures/poly_searsia_lucida.png"},{"uri":"impostors/hundsrose_a_autumn.png"},{"uri":"textures/poly_searsia_lucida.png"},{"uri":"textures/poly_searsia_lucida.png"},{"uri":"impostors/berberitze_a_autumn.png"},{"uri":"textures/poly_searsia_lucida.png"}],"samplers":[{"magFilter":9729,"minFilter":9987,"wrapS":10497,"wrapT":10497},{"magFilter":9729,"minFilter":9987,"wrapS":10497,"wrapT":10497},{"magFilter":9729,"minFilter":9987,"wrapS":10497,"wrapT":10497},{"magFilter":9729,"minFilter":9987,"wrapS":10497,"wrapT":10497}],"textures":[{"source":0,"sampler":0},{"source":1,"sampler":0},{"source":2,"sampler":0},{"source":3,"sampler":1},{"source":4,"sampler":1},{"source":5,"sampler":1},{"source":6,"sampler":2},{"source":7,"sampler":2},{"source":8,"sampler":2},{"source":9,"sampler":3}],"materials":[{"name":"heckenkirsche_a_bark","pbrMetallicRoughness":{"baseColorFactor":[0.82,0.82,0.82,1.0],"baseColorTexture":{"index":0},"metallicFactor":0.0,"roughnessFactor":0.91},"doubleSided":false},{"name":"heckenkirsche_a_foliage","pbrMetallicRoughness":{"baseColorFactor":[0.72,0.42,0.09,1.0],"baseColorTexture":{"index":1},"metallicFactor":0.0,"roughnessFactor":0.78},"doubleSided":true,"alphaMode":"MASK","alphaCutoff":0.18},{"name":"heckenkirsche_a_whole_tree_impostor","pbrMetallicRoughness":{"baseColorFactor":[1,1,1,1],"baseColorTexture":{"index":2},"metallicFactor":0.0,"roughnessFactor":0.92},"doubleSided":true,"alphaMode":"MASK","alphaCutoff":0.18},{"name":"hundsrose_a_bark","pbrMetallicRoughness":{"baseColorFactor":[0.82,0.82,0.82,1.0],"baseColorTexture":{"index":3},"metallicFactor":0.0,"roughnessFactor":0.91},"doubleSided":false},{"name":"hundsrose_a_foliage","pbrMetallicRoughness":{"baseColorFactor":[0.72,0.42,0.09,1.0],"baseColorTexture":{"index":4},"metallicFactor":0.0,"roughnessFactor":0.78},"doubleSided":true,"alphaMode":"MASK","alphaCutoff":0.18},{"name":"hundsrose_a_whole_tree_impostor","pbrMetallicRoughness":{"baseColorFactor":[1,1,1,1],"baseColorTexture":{"index":5},"metallicFactor":0.0,"roughnessFactor":0.92},"doubleSided":true,"alphaMode":"MASK","alphaCutoff":0.18},{"name":"berberitze_a_bark","pbrMetallicRoughness":{"baseColorFactor":[0.82,0.82,0.82,1.0],"baseColorTexture":{"index":6},"metallicFactor":0.0,"roughnessFactor":0.91},"doubleSided":false},{"name":"berberitze_a_foliage","pbrMetallicRoughness":{"baseColorFactor":[0.72,0.42,0.09,1.0],"baseColorTexture":{"index":7},"metallicFactor":0.0,"roughnessFactor":0.78},"doubleSided":true,"alphaMode":"MASK","alphaCutoff":0.18},{"name":"berberitze_a_whole_tree_impostor","pbrMetallicRoughness":{"baseColorFactor":[1,1,1,1],"baseColorTexture":{"index":8},"metallicFactor":0.0,"roughnessFactor":0.92},"doubleSided":true,"alphaMode":"MASK","alphaCutoff":0.18},{"name":"weissdornhecke_individual_leaves_LOD0","pbrMetallicRoughness":{"baseColorFactor":[0.72,0.37,0.1,1.0],"baseColorTexture":{"index":9},"metallicFactor":0.0,"roughnessFactor":0.82},"doubleSided":true,"alphaMode":"MASK","alphaCutoff":0.18},{"name":"weissdornhecke_individual_leaves_LOD1","pbrMetallicRoughness":{"baseColorFactor":[0.72,0.37,0.1,1.0],"baseColorTexture":{"index":9},"metallicFactor":0.0,"roughnessFactor":0.82},"doubleSided":true,"alphaMode":"MASK","alphaCutoff":0.08},{"name":"weissdornhecke_individual_leaves_LOD2","pbrMetallicRoughness":{"baseColorFactor":[0.72,0.37,0.1,1.0],"baseColorTexture":{"index":9},"metallicFactor":0.0,"roughnessFactor":0.82},"doubleSided":true,"alphaMode":"MASK","alphaCutoff":0.065},{"name":"weissdornhecke_individual_leaves_LOD3","pbrMetallicRoughness":{"baseColorFactor":[0.72,0.37,0.1,1.0],"baseColorTexture":{"index":9},"metallicFactor":0.0,"roughnessFactor":0.82},"doubleSided":true,"alphaMode":"MASK","alphaCutoff":0.055},{"name":"weissdornhecke_individual_leaves_LOD4","pbrMetallicRoughness":{"baseColorFactor":[0.72,0.37,0.1,1.0],"baseColorTexture":{"index":9},"metallicFactor":0.0,"roughnessFactor":0.82},"doubleSided":true,"alphaMode":"MASK","alphaCutoff":0.045},{"name":"weissdornhecke_individual_leaves_LOD5","pbrMetallicRoughness":{"baseColorFactor":[0.72,0.37,0.1,1.0],"baseColorTexture":{"index":9},"metallicFactor":0.0,"roughnessFactor":0.82},"doubleSided":true,"alphaMode":"MASK","alphaCutoff":0.038},{"name":"weissdornhecke_individual_leaves_LOD6","pbrMetallicRoughness":{"baseColorFactor":[0.72,0.37,0.1,1.0],"baseColorTexture":{"index":9},"metallicFactor":0.0,"roughnessFactor":0.82},"doubleSided":true,"alphaMode":"MASK","alphaCutoff":0.032},{"name":"weissdornhecke_individual_leaves_LOD7","pbrMetallicRoughness":{"baseColorFactor":[0.72,0.37,0.1,1.0],"baseColorTexture":{"index":9},"metallicFactor":0.0,"roughnessFactor":0.82},"doubleSided":true,"alphaMode":"MASK","alphaCutoff":0.027},{"name":"weissdornhecke_individual_leaves_LOD8","pbrMetallicRoughness":{"baseColorFactor":[0.72,0.37,0.1,1.0],"baseColorTexture":{"index":9},"metallicFactor":0.0,"roughnessFactor":0.82},"doubleSided":true,"alphaMode":"MASK","alphaCutoff":0.023},{"name":"weissdornhecke_individual_leaves_LOD9","pbrMetallicRoughness":{"baseColorFactor":[0.72,0.37,0.1,1.0],"baseColorTexture":{"index":9},"metallicFactor":0.0,"roughnessFactor":0.82},"doubleSided":true,"alphaMode":"MASK","alphaCutoff":0.02},{"name":"weissdornhecke_individual_leaves_LOD10","pbrMetallicRoughness":{"baseColorFactor":[0.72,0.37,0.1,1.0],"baseColorTexture":{"index":9},"metallicFactor":0.0,"roughnessFactor":0.82},"doubleSided":true,"alphaMode":"MASK","alphaCutoff":0.017},{"name":"weissdornhecke_individual_leaves_LOD11","pbrMetallicRoughness":{"baseColorFactor":[0.72,0.37,0.1,1.0],"baseColorTexture":{"index":9},"metallicFactor":0.0,"roughnessFactor":0.82},"doubleSided":true,"alphaMode":"MASK","alphaCutoff":0.015}]}