{"asset":{"version":"2.0","generator":"Connected Rails CC0 hedge composer","copyright":"Mantissa and Poly Haven source models: CC0 1.0; hedge composition: Connected Rails"},"scene":0,"scenes":[{"nodes":[0,1,2,3,4,5,6,7,8,9,10,11]}],"nodes":[{"name":"hedge_LOD0","children":[12,14,20,22,33,45,47,55,63,65,71,73,85,97,107,111,115,119,121,123,127,129]},{"name":"hedge_LOD1","children":[13,15,21,23,34,46,48,56,64,66,72,74,86,98,108,112,116,120,122,124,128,130]},{"name":"hedge_LOD2","children":[16,24,35,49,57,67,75,87,99,109,113,117,125,131]},{"name":"hedge_LOD3","children":[17,25,36,50,58,68,76,88,100,110,114,118,126,132]},{"name":"hedge_LOD4","children":[18,26,37,51,59,69,77,89,101,133]},{"name":"hedge_LOD5","children":[19,27,38,52,60,70,78,90,102,134]},{"name":"hedge_LOD6","children":[28,39,53,61,79,91,103,135]},{"name":"hedge_LOD7","children":[29,40,54,62,80,92,104,136]},{"name":"hedge_LOD8","children":[30,41,81,93,105,137]},{"name":"hedge_LOD9","children":[31,42,82,94,106,138]},{"name":"hedge_LOD10","children":[32,43,83,95,139]},{"name":"hedge_LOD11","children":[44,84,96,140]},{"name":"berberitze_a_part_12_LOD0","mesh":1,"translation":[-3.0,-0.0,0.12782425716820625],"rotation":[0.0,-0.056569788940087906,0.0,0.9983986473244412],"scale":[0.725,1.9283416382195873,1.9254444675512217]},{"name":"berberitze_a_part_13_LOD1","mesh":1,"translation":[-3.0,-0.0,0.12782425716820625],"rotation":[0.0,-0.056569788940087906,0.0,0.9983986473244412],"scale":[0.725,1.9283416382195873,1.9254444675512217]},{"name":"heckenkirsche_a_part_14_LOD0","mesh":5,"translation":[-2.4,-0.0,-0.07311642176394738],"rotation":[0.0,-0.007220611608170315,0.0,0.9999739310442067],"scale":[0.7909090909090909,1.9268442657100446,2.172945088463451]},{"name":"heckenkirsche_a_part_15_LOD1","mesh":5,"translation":[-2.4,-0.0,-0.07311642176394738],"rotation":[0.0,-0.007220611608170315,0.0,0.9999739310442067],"scale":[0.7909090909090909,1.9268442657100446,2.172945088463451]},{"name":"heckenkirsche_a_part_16_LOD2","mesh":5,"translation":[-2.4,-0.0,-0.07311642176394738],"rotation":[0.0,-0.007220611608170315,0.0,0.9999739310442067],"scale":[0.7909090909090909,1.9268442657100446,2.172945088463451]},{"name":"heckenkirsche_a_part_17_LOD3","mesh":5,"translation":[-2.4,-0.0,-0.07311642176394738],"rotation":[0.0,-0.007220611608170315,0.0,0.9999739310442067],"scale":[0.7909090909090909,1.9268442657100446,2.172945088463451]},{"name":"heckenkirsche_a_part_18_LOD4","mesh":5,"translation":[-2.4,-0.0,-0.07311642176394738],"rotation":[0.0,-0.007220611608170315,0.0,0.9999739310442067],"scale":[0.7909090909090909,1.9268442657100446,2.172945088463451]},{"name":"heckenkirsche_a_part_19_LOD5","mesh":5,"translation":[-2.4,-0.0,-0.07311642176394738],"rotation":[0.0,-0.007220611608170315,0.0,0.9999739310442067],"scale":[0.7909090909090909,1.9268442657100446,2.172945088463451]},{"name":"hundsrose_a_part_20_LOD0","mesh":9,"translation":[-1.8,-0.0,-0.03309451302450209],"rotation":[0.0,0.07653794627310105,0.0,0.9970666691752843],"scale":[0.464,1.3808879871629507,1.2137153977572746]},{"name":"hundsrose_a_part_21_LOD1","mesh":9,"translation":[-1.8,-0.0,-0.03309451302450209],"rotation":[0.0,0.07653794627310105,0.0,0.9970666691752843],"scale":[0.464,1.3808879871629507,1.2137153977572746]},{"name":"berberitze_a_part_22_LOD0","mesh":1,"translation":[-1.2000000000000002,-0.0,0.1507047521154475],"rotation":[0.0,-0.07199216287291713,0.0,0.9974051977430634],"scale":[0.725,2.0406909546444516,1.9324515419395651]},{"name":"berberitze_a_part_23_LOD1","mesh":1,"translation":[-1.2000000000000002,-0.0,0.1507047521154475],"rotation":[0.0,-0.07199216287291713,0.0,0.9974051977430634],"scale":[0.725,2.0406909546444516,1.9324515419395651]},{"name":"berberitze_a_part_24_LOD2","mesh":1,"translation":[-1.2000000000000002,-0.0,0.1507047521154475],"rotation":[0.0,-0.07199216287291713,0.0,0.9974051977430634],"scale":[0.725,2.0406909546444516,1.9324515419395651]},{"name":"berberitze_a_part_25_LOD3","mesh":1,"translation":[-1.2000000000000002,-0.0,0.1507047521154475],"rotation":[0.0,-0.07199216287291713,0.0,0.9974051977430634],"scale":[0.725,2.0406909546444516,1.9324515419395651]},{"name":"berberitze_a_part_26_LOD4","mesh":1,"translation":[-1.2000000000000002,-0.0,0.1507047521154475],"rotation":[0.0,-0.07199216287291713,0.0,0.9974051977430634],"scale":[0.725,2.0406909546444516,1.9324515419395651]},{"name":"berberitze_a_part_27_LOD5","mesh":1,"translation":[-1.2000000000000002,-0.0,0.1507047521154475],"rotation":[0.0,-0.07199216287291713,0.0,0.9974051977430634],"scale":[0.725,2.0406909546444516,1.9324515419395651]},{"name":"berberitze_a_part_28_LOD6","mesh":1,"translation":[-1.2000000000000002,-0.0,0.1507047521154475],"rotation":[0.0,-0.07199216287291713,0.0,0.9974051977430634],"scale":[0.725,2.0406909546444516,1.9324515419395651]},{"name":"berberitze_a_part_29_LOD7","mesh":1,"translation":[-1.2000000000000002,-0.0,0.1507047521154475],"rotation":[0.0,-0.07199216287291713,0.0,0.9974051977430634],"scale":[0.725,2.0406909546444516,1.9324515419395651]},{"name":"berberitze_a_part_30_LOD8","mesh":1,"translation":[-1.2000000000000002,-0.0,0.1507047521154475],"rotation":[0.0,-0.07199216287291713,0.0,0.9974051977430634],"scale":[0.725,2.0406909546444516,1.9324515419395651]},{"name":"berberitze_a_part_31_LOD9","mesh":1,"translation":[-1.2000000000000002,-0.0,0.1507047521154475],"rotation":[0.0,-0.07199216287291713,0.0,0.9974051977430634],"scale":[0.725,2.0406909546444516,1.9324515419395651]},{"name":"berberitze_a_part_32_LOD10","mesh":1,"translation":[-1.2000000000000002,-0.0,0.1507047521154475],"rotation":[0.0,-0.07199216287291713,0.0,0.9974051977430634],"scale":[0.725,2.0406909546444516,1.9324515419395651]},{"name":"heckenkirsche_a_part_33_LOD0","mesh":5,"translation":[-0.6000000000000001,-0.0,-0.03929933596735577],"rotation":[0.0,0.020152989574327915,0.0,0.9997969078824044],"scale":[0.7909090909090909,2.020243137520611,1.8230739113614869]},{"name":"heckenkirsche_a_part_34_LOD1","mesh":5,"translation":[-0.6000000000000001,-0.0,-0.03929933596735577],"rotation":[0.0,0.020152989574327915,0.0,0.9997969078824044],"scale":[0.7909090909090909,2.020243137520611,1.8230739113614869]},{"name":"heckenkirsche_a_part_35_LOD2","mesh":5,"translation":[-0.6000000000000001,-0.0,-0.03929933596735577],"rotation":[0.0,0.020152989574327915,0.0,0.9997969078824044],"scale":[0.7909090909090909,2.020243137520611,1.8230739113614869]},{"name":"heckenkirsche_a_part_36_LOD3","mesh":5,"translation":[-0.6000000000000001,-0.0,-0.03929933596735577],"rotation":[0.0,0.020152989574327915,0.0,0.9997969078824044],"scale":[0.7909090909090909,2.020243137520611,1.8230739113614869]},{"name":"heckenkirsche_a_part_37_LOD4","mesh":5,"translation":[-0.6000000000000001,-0.0,-0.03929933596735577],"rotation":[0.0,0.020152989574327915,0.0,0.9997969078824044],"scale":[0.7909090909090909,2.020243137520611,1.8230739113614869]},{"name":"heckenkirsche_a_part_38_LOD5","mesh":5,"translation":[-0.6000000000000001,-0.0,-0.03929933596735577],"rotation":[0.0,0.020152989574327915,0.0,0.9997969078824044],"scale":[0.7909090909090909,2.020243137520611,1.8230739113614869]},{"name":"heckenkirsche_a_part_39_LOD6","mesh":5,"translation":[-0.6000000000000001,-0.0,-0.03929933596735577],"rotation":[0.0,0.020152989574327915,0.0,0.9997969078824044],"scale":[0.7909090909090909,2.020243137520611,1.8230739113614869]},{"name":"heckenkirsche_a_part_40_LOD7","mesh":5,"translation":[-0.6000000000000001,-0.0,-0.03929933596735577],"rotation":[0.0,0.020152989574327915,0.0,0.9997969078824044],"scale":[0.7909090909090909,2.020243137520611,1.8230739113614869]},{"name":"heckenkirsche_a_part_41_LOD8","mesh":5,"translation":[-0.6000000000000001,-0.0,-0.03929933596735577],"rotation":[0.0,0.020152989574327915,0.0,0.9997969078824044],"scale":[0.7909090909090909,2.020243137520611,1.8230739113614869]},{"name":"heckenkirsche_a_part_42_LOD9","mesh":5,"translation":[-0.6000000000000001,-0.0,-0.03929933596735577],"rotation":[0.0,0.020152989574327915,0.0,0.9997969078824044],"scale":[0.7909090909090909,2.020243137520611,1.8230739113614869]},{"name":"heckenkirsche_a_part_43_LOD10","mesh":5,"translation":[-0.6000000000000001,-0.0,-0.03929933596735577],"rotation":[0.0,0.020152989574327915,0.0,0.9997969078824044],"scale":[0.7909090909090909,2.020243137520611,1.8230739113614869]},{"name":"heckenkirsche_a_part_44_LOD11","mesh":5,"translation":[-0.6000000000000001,-0.0,-0.03929933596735577],"rotation":[0.0,0.020152989574327915,0.0,0.9997969078824044],"scale":[0.7909090909090909,2.020243137520611,1.8230739113614869]},{"name":"hundsrose_a_part_45_LOD0","mesh":9,"translation":[0.0,-0.0,0.07476312141315203],"rotation":[0.0,0.06858931964305841,0.0,0.9976449795548026],"scale":[0.464,1.3023059420725616,0.9813683250361215]},{"name":"hundsrose_a_part_46_LOD1","mesh":9,"translation":[0.0,-0.0,0.07476312141315203],"rotation":[0.0,0.06858931964305841,0.0,0.9976449795548026],"scale":[0.464,1.3023059420725616,0.9813683250361215]},{"name":"berberitze_a_part_47_LOD0","mesh":1,"translation":[0.5999999999999996,-0.0,-0.0045264053995084375],"rotation":[0.0,0.008546412424354626,0.0,0.9999634787504356],"scale":[0.725,2.033459701084708,1.7162301730058886]},{"name":"berberitze_a_part_48_LOD1","mesh":1,"translation":[0.5999999999999996,-0.0,-0.0045264053995084375],"rotation":[0.0,0.008546412424354626,0.0,0.9999634787504356],"scale":[0.725,2.033459701084708,1.7162301730058886]},{"name":"berberitze_a_part_49_LOD2","mesh":1,"translation":[0.5999999999999996,-0.0,-0.0045264053995084375],"rotation":[0.0,0.008546412424354626,0.0,0.9999634787504356],"scale":[0.725,2.033459701084708,1.7162301730058886]},{"name":"berberitze_a_part_50_LOD3","mesh":1,"translation":[0.5999999999999996,-0.0,-0.0045264053995084375],"rotation":[0.0,0.008546412424354626,0.0,0.9999634787504356],"scale":[0.725,2.033459701084708,1.7162301730058886]},{"name":"berberitze_a_part_51_LOD4","mesh":1,"translation":[0.5999999999999996,-0.0,-0.0045264053995084375],"rotation":[0.0,0.008546412424354626,0.0,0.9999634787504356],"scale":[0.725,2.033459701084708,1.7162301730058886]},{"name":"berberitze_a_part_52_LOD5","mesh":1,"translation":[0.5999999999999996,-0.0,-0.0045264053995084375],"rotation":[0.0,0.008546412424354626,0.0,0.9999634787504356],"scale":[0.725,2.033459701084708,1.7162301730058886]},{"name":"berberitze_a_part_53_LOD6","mesh":1,"translation":[0.5999999999999996,-0.0,-0.0045264053995084375],"rotation":[0.0,0.008546412424354626,0.0,0.9999634787504356],"scale":[0.725,2.033459701084708,1.7162301730058886]},{"name":"berberitze_a_part_54_LOD7","mesh":1,"translation":[0.5999999999999996,-0.0,-0.0045264053995084375],"rotation":[0.0,0.008546412424354626,0.0,0.9999634787504356],"scale":[0.725,2.033459701084708,1.7162301730058886]},{"name":"heckenkirsche_a_part_55_LOD0","mesh":5,"translation":[1.2000000000000002,-0.0,0.12784389048796238],"rotation":[0.0,-0.03875183539510663,0.0,0.9992488655252557],"scale":[0.7909090909090909,2.010620134391037,2.1448314586883668]},{"name":"heckenkirsche_a_part_56_LOD1","mesh":5,"translation":[1.2000000000000002,-0.0,0.12784389048796238],"rotation":[0.0,-0.03875183539510663,0.0,0.9992488655252557],"scale":[0.7909090909090909,2.010620134391037,2.1448314586883668]},{"name":"heckenkirsche_a_part_57_LOD2","mesh":5,"translation":[1.2000000000000002,-0.0,0.12784389048796238],"rotation":[0.0,-0.03875183539510663,0.0,0.9992488655252557],"scale":[0.7909090909090909,2.010620134391037,2.1448314586883668]},{"name":"heckenkirsche_a_part_58_LOD3","mesh":5,"translation":[1.2000000000000002,-0.0,0.12784389048796238],"rotation":[0.0,-0.03875183539510663,0.0,0.9992488655252557],"scale":[0.7909090909090909,2.010620134391037,2.1448314586883668]},{"name":"heckenkirsche_a_part_59_LOD4","mesh":5,"translation":[1.2000000000000002,-0.0,0.12784389048796238],"rotation":[0.0,-0.03875183539510663,0.0,0.9992488655252557],"scale":[0.7909090909090909,2.010620134391037,2.1448314586883668]},{"name":"heckenkirsche_a_part_60_LOD5","mesh":5,"translation":[1.2000000000000002,-0.0,0.12784389048796238],"rotation":[0.0,-0.03875183539510663,0.0,0.9992488655252557],"scale":[0.7909090909090909,2.010620134391037,2.1448314586883668]},{"name":"heckenkirsche_a_part_61_LOD6","mesh":5,"translation":[1.2000000000000002,-0.0,0.12784389048796238],"rotation":[0.0,-0.03875183539510663,0.0,0.9992488655252557],"scale":[0.7909090909090909,2.010620134391037,2.1448314586883668]},{"name":"heckenkirsche_a_part_62_LOD7","mesh":5,"translation":[1.2000000000000002,-0.0,0.12784389048796238],"rotation":[0.0,-0.03875183539510663,0.0,0.9992488655252557],"scale":[0.7909090909090909,2.010620134391037,2.1448314586883668]},{"name":"hundsrose_a_part_63_LOD0","mesh":9,"translation":[1.7999999999999998,-0.0,-0.0517158993559505],"rotation":[0.0,-0.056986447449849396,0.0,0.9983749520130428],"scale":[0.464,1.3150112256755528,1.086552670896184]},{"name":"hundsrose_a_part_64_LOD1","mesh":9,"translation":[1.7999999999999998,-0.0,-0.0517158993559505],"rotation":[0.0,-0.056986447449849396,0.0,0.9983749520130428],"scale":[0.464,1.3150112256755528,1.086552670896184]},{"name":"berberitze_a_part_65_LOD0","mesh":1,"translation":[2.3999999999999995,-0.0,-0.07494390502931349],"rotation":[0.0,0.059861116259291657,0.0,0.9982067154453488],"scale":[0.725,2.0345656532563763,1.5309686823387432]},{"name":"berberitze_a_part_66_LOD1","mesh":1,"translation":[2.3999999999999995,-0.0,-0.07494390502931349],"rotation":[0.0,0.059861116259291657,0.0,0.9982067154453488],"scale":[0.725,2.0345656532563763,1.5309686823387432]},{"name":"berberitze_a_part_67_LOD2","mesh":1,"translation":[2.3999999999999995,-0.0,-0.07494390502931349],"rotation":[0.0,0.059861116259291657,0.0,0.9982067154453488],"scale":[0.725,2.0345656532563763,1.5309686823387432]},{"name":"berberitze_a_part_68_LOD3","mesh":1,"translation":[2.3999999999999995,-0.0,-0.07494390502931349],"rotation":[0.0,0.059861116259291657,0.0,0.9982067154453488],"scale":[0.725,2.0345656532563763,1.5309686823387432]},{"name":"berberitze_a_part_69_LOD4","mesh":1,"translation":[2.3999999999999995,-0.0,-0.07494390502931349],"rotation":[0.0,0.059861116259291657,0.0,0.9982067154453488],"scale":[0.725,2.0345656532563763,1.5309686823387432]},{"name":"berberitze_a_part_70_LOD5","mesh":1,"translation":[2.3999999999999995,-0.0,-0.07494390502931349],"rotation":[0.0,0.059861116259291657,0.0,0.9982067154453488],"scale":[0.725,2.0345656532563763,1.5309686823387432]},{"name":"heckenkirsche_a_part_71_LOD0","mesh":5,"translation":[3.0,-0.0,-0.08080402966960708],"rotation":[0.0,0.03726809791034828,0.0,0.9993053031372068],"scale":[0.7909090909090909,2.033692472974101,1.815613670200065]},{"name":"heckenkirsche_a_part_72_LOD1","mesh":5,"translation":[3.0,-0.0,-0.08080402966960708],"rotation":[0.0,0.03726809791034828,0.0,0.9993053031372068],"scale":[0.7909090909090909,2.033692472974101,1.815613670200065]},{"name":"heckenkirsche_a_part_73_LOD0","mesh":5,"translation":[-2.7,-0.0,-0.21361049073074811],"rotation":[0.0,0.04657559479941397,0.0,0.9989147681204241],"scale":[0.8454545454545453,1.2534105983063168,2.0183303105698585]},{"name":"heckenkirsche_a_part_74_LOD1","mesh":5,"translation":[-2.7,-0.0,-0.21361049073074811],"rotation":[0.0,0.04657559479941397,0.0,0.9989147681204241],"scale":[0.8454545454545453,1.2534105983063168,2.0183303105698585]},{"name":"heckenkirsche_a_part_75_LOD2","mesh":5,"translation":[-2.7,-0.0,-0.21361049073074811],"rotation":[0.0,0.04657559479941397,0.0,0.9989147681204241],"scale":[0.8454545454545453,1.2534105983063168,2.0183303105698585]},{"name":"heckenkirsche_a_part_76_LOD3","mesh":5,"translation":[-2.7,-0.0,-0.21361049073074811],"rotation":[0.0,0.04657559479941397,0.0,0.9989147681204241],"scale":[0.8454545454545453,1.2534105983063168,2.0183303105698585]},{"name":"heckenkirsche_a_part_77_LOD4","mesh":5,"translation":[-2.7,-0.0,-0.21361049073074811],"rotation":[0.0,0.04657559479941397,0.0,0.9989147681204241],"scale":[0.8454545454545453,1.2534105983063168,2.0183303105698585]},{"name":"heckenkirsche_a_part_78_LOD5","mesh":5,"translation":[-2.7,-0.0,-0.21361049073074811],"rotation":[0.0,0.04657559479941397,0.0,0.9989147681204241],"scale":[0.8454545454545453,1.2534105983063168,2.0183303105698585]},{"name":"heckenkirsche_a_part_79_LOD6","mesh":5,"translation":[-2.7,-0.0,-0.21361049073074811],"rotation":[0.0,0.04657559479941397,0.0,0.9989147681204241],"scale":[0.8454545454545453,1.2534105983063168,2.0183303105698585]},{"name":"heckenkirsche_a_part_80_LOD7","mesh":5,"translation":[-2.7,-0.0,-0.21361049073074811],"rotation":[0.0,0.04657559479941397,0.0,0.9989147681204241],"scale":[0.8454545454545453,1.2534105983063168,2.0183303105698585]},{"name":"heckenkirsche_a_part_81_LOD8","mesh":5,"translation":[-2.7,-0.0,-0.21361049073074811],"rotation":[0.0,0.04657559479941397,0.0,0.9989147681204241],"scale":[0.8454545454545453,1.2534105983063168,2.0183303105698585]},{"name":"heckenkirsche_a_part_82_LOD9","mesh":5,"translation":[-2.7,-0.0,-0.21361049073074811],"rotation":[0.0,0.04657559479941397,0.0,0.9989147681204241],"scale":[0.8454545454545453,1.2534105983063168,2.0183303105698585]},{"name":"heckenkirsche_a_part_83_LOD10","mesh":5,"translation":[-2.7,-0.0,-0.21361049073074811],"rotation":[0.0,0.04657559479941397,0.0,0.9989147681204241],"scale":[0.8454545454545453,1.2534105983063168,2.0183303105698585]},{"name":"heckenkirsche_a_part_84_LOD11","mesh":5,"translation":[-2.7,-0.0,-0.21361049073074811],"rotation":[0.0,0.04657559479941397,0.0,0.9989147681204241],"scale":[0.8454545454545453,1.2534105983063168,2.0183303105698585]},{"name":"hundsrose_a_part_85_LOD0","mesh":9,"translation":[-2.1,-0.0,0.13283179328023315],"rotation":[0.0,-0.10319971331579819,0.0,0.9946606552847745],"scale":[0.49599999999999994,0.8496806629870591,1.1828308217403556]},{"name":"hundsrose_a_part_86_LOD1","mesh":9,"translation":[-2.1,-0.0,0.13283179328023315],"rotation":[0.0,-0.10319971331579819,0.0,0.9946606552847745],"scale":[0.49599999999999994,0.8496806629870591,1.1828308217403556]},{"name":"hundsrose_a_part_87_LOD2","mesh":9,"translation":[-2.1,-0.0,0.13283179328023315],"rotation":[0.0,-0.10319971331579819,0.0,0.9946606552847745],"scale":[0.49599999999999994,0.8496806629870591,1.1828308217403556]},{"name":"hundsrose_a_part_88_LOD3","mesh":9,"translation":[-2.1,-0.0,0.13283179328023315],"rotation":[0.0,-0.10319971331579819,0.0,0.9946606552847745],"scale":[0.49599999999999994,0.8496806629870591,1.1828308217403556]},{"name":"hundsrose_a_part_89_LOD4","mesh":9,"translation":[-2.1,-0.0,0.13283179328023315],"rotation":[0.0,-0.10319971331579819,0.0,0.9946606552847745],"scale":[0.49599999999999994,0.8496806629870591,1.1828308217403556]},{"name":"hundsrose_a_part_90_LOD5","mesh":9,"translation":[-2.1,-0.0,0.13283179328023315],"rotation":[0.0,-0.10319971331579819,0.0,0.9946606552847745],"scale":[0.49599999999999994,0.8496806629870591,1.1828308217403556]},{"name":"hundsrose_a_part_91_LOD6","mesh":9,"translation":[-2.1,-0.0,0.13283179328023315],"rotation":[0.0,-0.10319971331579819,0.0,0.9946606552847745],"scale":[0.49599999999999994,0.8496806629870591,1.1828308217403556]},{"name":"hundsrose_a_part_92_LOD7","mesh":9,"translation":[-2.1,-0.0,0.13283179328023315],"rotation":[0.0,-0.10319971331579819,0.0,0.9946606552847745],"scale":[0.49599999999999994,0.8496806629870591,1.1828308217403556]},{"name":"hundsrose_a_part_93_LOD8","mesh":9,"translation":[-2.1,-0.0,0.13283179328023315],"rotation":[0.0,-0.10319971331579819,0.0,0.9946606552847745],"scale":[0.49599999999999994,0.8496806629870591,1.1828308217403556]},{"name":"hundsrose_a_part_94_LOD9","mesh":9,"translation":[-2.1,-0.0,0.13283179328023315],"rotation":[0.0,-0.10319971331579819,0.0,0.9946606552847745],"scale":[0.49599999999999994,0.8496806629870591,1.1828308217403556]},{"name":"hundsrose_a_part_95_LOD10","mesh":9,"translation":[-2.1,-0.0,0.13283179328023315],"rotation":[0.0,-0.10319971331579819,0.0,0.9946606552847745],"scale":[0.49599999999999994,0.8496806629870591,1.1828308217403556]},{"name":"hundsrose_a_part_96_LOD11","mesh":9,"translation":[-2.1,-0.0,0.13283179328023315],"rotation":[0.0,-0.10319971331579819,0.0,0.9946606552847745],"scale":[0.49599999999999994,0.8496806629870591,1.1828308217403556]},{"name":"berberitze_a_part_97_LOD0","mesh":1,"translation":[-1.5,-0.0,-0.12575830315654052],"rotation":[0.0,0.0553414002118521,0.0,0.9984674904184871],"scale":[0.775,1.2970900102505634,1.7875580302373635]},{"name":"berberitze_a_part_98_LOD1","mesh":1,"translation":[-1.5,-0.0,-0.12575830315654052],"rotation":[0.0,0.0553414002118521,0.0,0.9984674904184871],"scale":[0.775,1.2970900102505634,1.7875580302373635]},{"name":"berberitze_a_part_99_LOD2","mesh":1,"translation":[-1.5,-0.0,-0.12575830315654052],"rotation":[0.0,0.0553414002118521,0.0,0.9984674904184871],"scale":[0.775,1.2970900102505634,1.7875580302373635]},{"name":"berberitze_a_part_100_LOD3","mesh":1,"translation":[-1.5,-0.0,-0.12575830315654052],"rotation":[0.0,0.0553414002118521,0.0,0.9984674904184871],"scale":[0.775,1.2970900102505634,1.7875580302373635]},{"name":"berberitze_a_part_101_LOD4","mesh":1,"translation":[-1.5,-0.0,-0.12575830315654052],"rotation":[0.0,0.0553414002118521,0.0,0.9984674904184871],"scale":[0.775,1.2970900102505634,1.7875580302373635]},{"name":"berberitze_a_part_102_LOD5","mesh":1,"translation":[-1.5,-0.0,-0.12575830315654052],"rotation":[0.0,0.0553414002118521,0.0,0.9984674904184871],"scale":[0.775,1.2970900102505634,1.7875580302373635]},{"name":"berberitze_a_part_103_LOD6","mesh":1,"translation":[-1.5,-0.0,-0.12575830315654052],"rotation":[0.0,0.0553414002118521,0.0,0.9984674904184871],"scale":[0.775,1.2970900102505634,1.7875580302373635]},{"name":"berberitze_a_part_104_LOD7","mesh":1,"translation":[-1.5,-0.0,-0.12575830315654052],"rotation":[0.0,0.0553414002118521,0.0,0.9984674904184871],"scale":[0.775,1.2970900102505634,1.7875580302373635]},{"name":"berberitze_a_part_105_LOD8","mesh":1,"translation":[-1.5,-0.0,-0.12575830315654052],"rotation":[0.0,0.0553414002118521,0.0,0.9984674904184871],"scale":[0.775,1.2970900102505634,1.7875580302373635]},{"name":"berberitze_a_part_106_LOD9","mesh":1,"translation":[-1.5,-0.0,-0.12575830315654052],"rotation":[0.0,0.0553414002118521,0.0,0.9984674904184871],"scale":[0.775,1.2970900102505634,1.7875580302373635]},{"name":"heckenkirsche_a_part_107_LOD0","mesh":5,"translation":[-0.8999999999999999,-0.0,0.1552664833884213],"rotation":[0.0,-0.0018479479312451988,0.0,0.999998292542764],"scale":[0.8454545454545453,1.2598744138652727,1.8829452245390905]},{"name":"heckenkirsche_a_part_108_LOD1","mesh":5,"translation":[-0.8999999999999999,-0.0,0.1552664833884213],"rotation":[0.0,-0.0018479479312451988,0.0,0.999998292542764],"scale":[0.8454545454545453,1.2598744138652727,1.8829452245390905]},{"name":"heckenkirsche_a_part_109_LOD2","mesh":5,"translation":[-0.8999999999999999,-0.0,0.1552664833884213],"rotation":[0.0,-0.0018479479312451988,0.0,0.999998292542764],"scale":[0.8454545454545453,1.2598744138652727,1.8829452245390905]},{"name":"heckenkirsche_a_part_110_LOD3","mesh":5,"translation":[-0.8999999999999999,-0.0,0.1552664833884213],"rotation":[0.0,-0.0018479479312451988,0.0,0.999998292542764],"scale":[0.8454545454545453,1.2598744138652727,1.8829452245390905]},{"name":"hundsrose_a_part_111_LOD0","mesh":9,"translation":[-0.30000000000000027,-0.0,-0.0802082229525991],"rotation":[0.0,0.09375144200573382,0.0,0.9955956343425003],"scale":[0.49599999999999994,0.9212421448750456,1.0706997802211744]},{"name":"hundsrose_a_part_112_LOD1","mesh":9,"translation":[-0.30000000000000027,-0.0,-0.0802082229525991],"rotation":[0.0,0.09375144200573382,0.0,0.9955956343425003],"scale":[0.49599999999999994,0.9212421448750456,1.0706997802211744]},{"name":"hundsrose_a_part_113_LOD2","mesh":9,"translation":[-0.30000000000000027,-0.0,-0.0802082229525991],"rotation":[0.0,0.09375144200573382,0.0,0.9955956343425003],"scale":[0.49599999999999994,0.9212421448750456,1.0706997802211744]},{"name":"hundsrose_a_part_114_LOD3","mesh":9,"translation":[-0.30000000000000027,-0.0,-0.0802082229525991],"rotation":[0.0,0.09375144200573382,0.0,0.9955956343425003],"scale":[0.49599999999999994,0.9212421448750456,1.0706997802211744]},{"name":"berberitze_a_part_115_LOD0","mesh":1,"translation":[0.2999999999999998,-0.0,0.1487867630432123],"rotation":[0.0,-0.05028808202117784,0.0,0.9987347539795696],"scale":[0.775,1.3265926424750547,1.7306820932019602]},{"name":"berberitze_a_part_116_LOD1","mesh":1,"translation":[0.2999999999999998,-0.0,0.1487867630432123],"rotation":[0.0,-0.05028808202117784,0.0,0.9987347539795696],"scale":[0.775,1.3265926424750547,1.7306820932019602]},{"name":"berberitze_a_part_117_LOD2","mesh":1,"translation":[0.2999999999999998,-0.0,0.1487867630432123],"rotation":[0.0,-0.05028808202117784,0.0,0.9987347539795696],"scale":[0.775,1.3265926424750547,1.7306820932019602]},{"name":"berberitze_a_part_118_LOD3","mesh":1,"translation":[0.2999999999999998,-0.0,0.1487867630432123],"rotation":[0.0,-0.05028808202117784,0.0,0.9987347539795696],"scale":[0.775,1.3265926424750547,1.7306820932019602]},{"name":"heckenkirsche_a_part_119_LOD0","mesh":5,"translation":[0.8999999999999999,-0.0,0.1646622185095895],"rotation":[0.0,-0.04067736380145794,0.0,0.9991723335211818],"scale":[0.8454545454545453,1.3437804239697817,2.106811087112091]},{"name":"heckenkirsche_a_part_120_LOD1","mesh":5,"translation":[0.8999999999999999,-0.0,0.1646622185095895],"rotation":[0.0,-0.04067736380145794,0.0,0.9991723335211818],"scale":[0.8454545454545453,1.3437804239697817,2.106811087112091]},{"name":"hundsrose_a_part_121_LOD0","mesh":9,"translation":[1.5,-0.0,0.0872391793728724],"rotation":[0.0,0.0030403265459887294,0.0,0.9999953781965664],"scale":[0.49599999999999994,0.8801077746542977,1.090626106504908]},{"name":"hundsrose_a_part_122_LOD1","mesh":9,"translation":[1.5,-0.0,0.0872391793728724],"rotation":[0.0,0.0030403265459887294,0.0,0.9999953781965664],"scale":[0.49599999999999994,0.8801077746542977,1.090626106504908]},{"name":"berberitze_a_part_123_LOD0","mesh":1,"translation":[2.0999999999999996,-0.0,-0.20588422259920533],"rotation":[0.0,-0.07856724840848166,0.0,0.9969088160295905],"scale":[0.775,1.2384684807770237,1.9447703252706523]},{"name":"berberitze_a_part_124_LOD1","mesh":1,"translation":[2.0999999999999996,-0.0,-0.20588422259920533],"rotation":[0.0,-0.07856724840848166,0.0,0.9969088160295905],"scale":[0.775,1.2384684807770237,1.9447703252706523]},{"name":"berberitze_a_part_125_LOD2","mesh":1,"translation":[2.0999999999999996,-0.0,-0.20588422259920533],"rotation":[0.0,-0.07856724840848166,0.0,0.9969088160295905],"scale":[0.775,1.2384684807770237,1.9447703252706523]},{"name":"berberitze_a_part_126_LOD3","mesh":1,"translation":[2.0999999999999996,-0.0,-0.20588422259920533],"rotation":[0.0,-0.07856724840848166,0.0,0.9969088160295905],"scale":[0.775,1.2384684807770237,1.9447703252706523]},{"name":"heckenkirsche_a_part_127_LOD0","mesh":5,"translation":[2.7,-0.0,-0.026011878739698957],"rotation":[0.0,0.03021094436361129,0.0,0.9995435452448577],"scale":[0.8454545454545453,1.3517741673728578,2.1679040375953584]},{"name":"heckenkirsche_a_part_128_LOD1","mesh":5,"translation":[2.7,-0.0,-0.026011878739698957],"rotation":[0.0,0.03021094436361129,0.0,0.9995435452448577],"scale":[0.8454545454545453,1.3517741673728578,2.1679040375953584]},{"name":"leaf_volume_LOD0","mesh":12},{"name":"leaf_volume_LOD1","mesh":13},{"name":"leaf_volume_LOD2","mesh":14},{"name":"leaf_volume_LOD3","mesh":15},{"name":"leaf_volume_LOD4","mesh":16},{"name":"leaf_volume_LOD5","mesh":17},{"name":"leaf_volume_LOD6","mesh":18},{"name":"leaf_volume_LOD7","mesh":19},{"name":"leaf_volume_LOD8","mesh":20},{"name":"leaf_volume_LOD9","mesh":21},{"name":"leaf_volume_LOD10","mesh":22},{"name":"leaf_volume_LOD11","mesh":23}],"meshes":[{"name":"berberitze_a_crown_LOD0","primitives":[{"attributes":{"POSITION":0,"NORMAL":1,"TEXCOORD_0":2},"indices":3,"material":1}]},{"name":"berberitze_a_crown_LOD1","primitives":[{"attributes":{"POSITION":4,"NORMAL":5,"TEXCOORD_0":6},"indices":7,"material":1}]},{"name":"berberitze_a_crown_LOD2","primitives":[{"attributes":{"POSITION":8,"NORMAL":9,"TEXCOORD_0":10},"indices":11,"material":2}]},{"name":"berberitze_a_crown_LOD3","primitives":[{"attributes":{"POSITION":12,"NORMAL":13,"TEXCOORD_0":14},"indices":15,"material":2}]},{"name":"heckenkirsche_a_crown_LOD0","primitives":[{"attributes":{"POSITION":16,"NORMAL":17,"TEXCOORD_0":18},"indices":19,"material":4}]},{"name":"heckenkirsche_a_crown_LOD1","primitives":[{"attributes":{"POSITION":20,"NORMAL":21,"TEXCOORD_0":22},"indices":23,"material":4}]},{"name":"heckenkirsche_a_crown_LOD2","primitives":[{"attributes":{"POSITION":24,"NORMAL":25,"TEXCOORD_0":26},"indices":27,"material":5}]},{"name":"heckenkirsche_a_crown_LOD3","primitives":[{"attributes":{"POSITION":28,"NORMAL":29,"TEXCOORD_0":30},"indices":31,"material":5}]},{"name":"hundsrose_a_crown_LOD0","primitives":[{"attributes":{"POSITION":32,"NORMAL":33,"TEXCOORD_0":34},"indices":35,"material":7}]},{"name":"hundsrose_a_crown_LOD1","primitives":[{"attributes":{"POSITION":36,"NORMAL":37,"TEXCOORD_0":38},"indices":39,"material":7}]},{"name":"hundsrose_a_crown_LOD2","primitives":[{"attributes":{"POSITION":40,"NORMAL":41,"TEXCOORD_0":42},"indices":43,"material":8}]},{"name":"hundsrose_a_crown_LOD3","primitives":[{"attributes":{"POSITION":44,"NORMAL":45,"TEXCOORD_0":46},"indices":47,"material":8}]},{"name":"weissdornhecke_leaf_volume_LOD0","primitives":[{"attributes":{"POSITION":48,"NORMAL":49,"TEXCOORD_0":50},"indices":51,"material":9}]},{"name":"weissdornhecke_leaf_volume_LOD1","primitives":[{"attributes":{"POSITION":52,"NORMAL":53,"TEXCOORD_0":54},"indices":55,"material":10}]},{"name":"weissdornhecke_leaf_volume_LOD2","primitives":[{"attributes":{"POSITION":56,"NORMAL":57,"TEXCOORD_0":58},"indices":59,"material":11}]},{"name":"weissdornhecke_leaf_volume_LOD3","primitives":[{"attributes":{"POSITION":60,"NORMAL":61,"TEXCOORD_0":62},"indices":63,"material":12}]},{"name":"weissdornhecke_leaf_volume_LOD4","primitives":[{"attributes":{"POSITION":64,"NORMAL":65,"TEXCOORD_0":66},"indices":67,"material":13}]},{"name":"weissdornhecke_leaf_volume_LOD5","primitives":[{"attributes":{"POSITION":68,"NORMAL":69,"TEXCOORD_0":70},"indices":71,"material":14}]},{"name":"weissdornhecke_leaf_volume_LOD6","primitives":[{"attributes":{"POSITION":72,"NORMAL":73,"TEXCOORD_0":74},"indices":75,"material":15}]},{"name":"weissdornhecke_leaf_volume_LOD7","primitives":[{"attributes":{"POSITION":76,"NORMAL":77,"TEXCOORD_0":78},"indices":79,"material":16}]},{"name":"weissdornhecke_leaf_volume_LOD8","primitives":[{"attributes":{"POSITION":80,"NORMAL":81,"TEXCOORD_0":82},"indices":83,"material":17}]},{"name":"weissdornhecke_leaf_volume_LOD9","primitives":[{"attributes":{"POSITION":84,"NORMAL":85,"TEXCOORD_0":86},"indices":87,"material":18}]},{"name":"weissdornhecke_leaf_volume_LOD10","primitives":[{"attributes":{"POSITION":88,"NORMAL":89,"TEXCOORD_0":90},"indices":91,"material":19}]},{"name":"weissdornhecke_leaf_volume_LOD11","primitives":[{"attributes":{"POSITION":92,"NORMAL":93,"TEXCOORD_0":94},"indices":95,"material":20}]}],"buffers":[{"uri":"berberitze_a.bin","byteLength":494748},{"uri":"heckenkirsche_a.bin","byteLength":494748},{"uri":"hundsrose_a.bin","byteLength":494748},{"uri":"weissdornhecke_b_hedge.bin","byteLength":8841000}],"bufferViews":[{"buffer":0,"byteOffset":0,"byteLength":105048,"target":34962},{"buffer":0,"byteOffset":105048,"byteLength":105048,"target":34962},{"buffer":0,"byteOffset":210096,"byteLength":70032,"target":34962},{"buffer":0,"byteOffset":280128,"byteLength":43392,"target":34963},{"buffer":0,"byteOffset":323520,"byteLength":56400,"target":34962},{"buffer":0,"byteOffset":379920,"byteLength":56400,"target":34962},{"buffer":0,"byteOffset":436320,"byteLength":37600,"target":34962},{"buffer":0,"byteOffset":473920,"byteLength":19986,"target":34963},{"buffer":0,"byteOffset":493908,"byteLength":192,"target":34962},{"buffer":0,"byteOffset":494100,"byteLength":192,"target":34962},{"buffer":0,"byteOffset":494292,"byteLength":128,"target":34962},{"buffer":0,"byteOffset":494420,"byteLength":48,"target":34963},{"buffer":0,"byteOffset":494468,"byteLength":96,"target":34962},{"buffer":0,"byteOffset":494564,"byteLength":96,"target":34962},{"buffer":0,"byteOffset":494660,"byteLength":64,"target":34962},{"buffer":0,"byteOffset":494724,"byteLength":24,"target":34963},{"buffer":1,"byteOffset":0,"byteLength":105048,"target":34962},{"buffer":1,"byteOffset":105048,"byteLength":105048,"target":34962},{"buffer":1,"byteOffset":210096,"byteLength":70032,"target":34962},{"buffer":1,"byteOffset":280128,"byteLength":43392,"target":34963},{"buffer":1,"byteOffset":323520,"byteLength":56400,"target":34962},{"buffer":1,"byteOffset":379920,"byteLength":56400,"target":34962},{"buffer":1,"byteOffset":436320,"byteLength":37600,"target":34962},{"buffer":1,"byteOffset":473920,"byteLength":19986,"target":34963},{"buffer":1,"byteOffset":493908,"byteLength":192,"target":34962},{"buffer":1,"byteOffset":494100,"byteLength":192,"target":34962},{"buffer":1,"byteOffset":494292,"byteLength":128,"target":34962},{"buffer":1,"byteOffset":494420,"byteLength":48,"target":34963},{"buffer":1,"byteOffset":494468,"byteLength":96,"target":34962},{"buffer":1,"byteOffset":494564,"byteLength":96,"target":34962},{"buffer":1,"byteOffset":494660,"byteLength":64,"target":34962},{"buffer":1,"byteOffset":494724,"byteLength":24,"target":34963},{"buffer":2,"byteOffset":0,"byteLength":105048,"target":34962},{"buffer":2,"byteOffset":105048,"byteLength":105048,"target":34962},{"buffer":2,"byteOffset":210096,"byteLength":70032,"target":34962},{"buffer":2,"byteOffset":280128,"byteLength":43392,"target":34963},{"buffer":2,"byteOffset":323520,"byteLength":56400,"target":34962},{"buffer":2,"byteOffset":379920,"byteLength":56400,"target":34962},{"buffer":2,"byteOffset":436320,"byteLength":37600,"target":34962},{"buffer":2,"byteOffset":473920,"byteLength":19986,"target":34963},{"buffer":2,"byteOffset":493908,"byteLength":192,"target":34962},{"buffer":2,"byteOffset":494100,"byteLength":192,"target":34962},{"buffer":2,"byteOffset":494292,"byteLength":128,"target":34962},{"buffer":2,"byteOffset":494420,"byteLength":48,"target":34963},{"buffer":2,"byteOffset":494468,"byteLength":96,"target":34962},{"buffer":2,"byteOffset":494564,"byteLength":96,"target":34962},{"buffer":2,"byteOffset":494660,"byteLength":64,"target":34962},{"buffer":2,"byteOffset":494724,"byteLength":24,"target":34963},{"buffer":3,"byteOffset":0,"byteLength":345600,"target":34962},{"buffer":3,"byteOffset":345600,"byteLength":345600,"target":34962},{"buffer":3,"byteOffset":691200,"byteLength":230400,"target":34962},{"buffer":3,"byteOffset":921600,"byteLength":86400,"target":34963},{"buffer":3,"byteOffset":1008000,"byteLength":268800,"target":34962},{"buffer":3,"byteOffset":1276800,"byteLength":268800,"target":34962},{"buffer":3,"byteOffset":1545600,"byteLength":179200,"target":34962},{"buffer":3,"byteOffset":1724800,"byteLength":67200,"target":34963},{"buffer":3,"byteOffset":1792000,"byteLength":264000,"target":34962},{"buffer":3,"byteOffset":2056000,"byteLength":264000,"target":34962},{"buffer":3,"byteOffset":2320000,"byteLength":176000,"target":34962},{"buffer":3,"byteOffset":2496000,"byteLength":66000,"target":34963},{"buffer":3,"byteOffset":2562000,"byteLength":259200,"target":34962},{"buffer":3,"byteOffset":2821200,"byteLength":259200,"target":34962},{"buffer":3,"byteOffset":3080400,"byteLength":172800,"target":34962},{"buffer":3,"byteOffset":3253200,"byteLength":64800,"target":34963},{"buffer":3,"byteOffset":3318000,"byteLength":254400,"target":34962},{"buffer":3,"byteOffset":3572400,"byteLength":254400,"target":34962},{"buffer":3,"byteOffset":3826800,"byteLength":169600,"target":34962},{"buffer":3,"byteOffset":3996400,"byteLength":63600,"target":34963},{"buffer":3,"byteOffset":4060000,"byteLength":249600,"target":34962},{"buffer":3,"byteOffset":4309600,"byteLength":249600,"target":34962},{"buffer":3,"byteOffset":4559200,"byteLength":166400,"target":34962},{"buffer":3,"byteOffset":4725600,"byteLength":62400,"target":34963},{"buffer":3,"byteOffset":4788000,"byteLength":244800,"target":34962},{"buffer":3,"byteOffset":5032800,"byteLength":244800,"target":34962},{"buffer":3,"byteOffset":5277600,"byteLength":163200,"target":34962},{"buffer":3,"byteOffset":5440800,"byteLength":61200,"target":34963},{"buffer":3,"byteOffset":5502000,"byteLength":240000,"target":34962},{"buffer":3,"byteOffset":5742000,"byteLength":240000,"target":34962},{"buffer":3,"byteOffset":5982000,"byteLength":160000,"target":34962},{"buffer":3,"byteOffset":6142000,"byteLength":60000,"target":34963},{"buffer":3,"byteOffset":6202000,"byteLength":235200,"target":34962},{"buffer":3,"byteOffset":6437200,"byteLength":235200,"target":34962},{"buffer":3,"byteOffset":6672400,"byteLength":156800,"target":34962},{"buffer":3,"byteOffset":6829200,"byteLength":58800,"target":34963},{"buffer":3,"byteOffset":6888000,"byteLength":230400,"target":34962},{"buffer":3,"byteOffset":7118400,"byteLength":230400,"target":34962},{"buffer":3,"byteOffset":7348800,"byteLength":153600,"target":34962},{"buffer":3,"byteOffset":7502400,"byteLength":57600,"target":34963},{"buffer":3,"byteOffset":7560000,"byteLength":223200,"target":34962},{"buffer":3,"byteOffset":7783200,"byteLength":223200,"target":34962},{"buffer":3,"byteOffset":8006400,"byteLength":148800,"target":34962},{"buffer":3,"byteOffset":8155200,"byteLength":55800,"target":34963},{"buffer":3,"byteOffset":8211000,"byteLength":216000,"target":34962},{"buffer":3,"byteOffset":8427000,"byteLength":216000,"target":34962},{"buffer":3,"byteOffset":8643000,"byteLength":144000,"target":34962},{"buffer":3,"byteOffset":8787000,"byteLength":54000,"target":34963}],"accessors":[{"bufferView":0,"componentType":5126,"count":8754,"type":"VEC3","min":[-0.6,0.0,-0.44084915485974513],"max":[0.6,1.0,0.44084915485974513]},{"bufferView":1,"componentType":5126,"count":8754,"type":"VEC3","min":[-0.9996581077575684,-0.9998005628585815,-0.9986739158630371],"max":[0.9992280602455139,0.9999603033065796,0.9998832941055298]},{"bufferView":2,"componentType":5126,"count":8754,"type":"VEC2"},{"bufferView":3,"componentType":5123,"count":21696,"type":"SCALAR","min":[0],"max":[8753]},{"bufferView":4,"componentType":5126,"count":4700,"type":"VEC3","min":[-0.5985137941033843,1.6705947594052684e-05,-0.429394819732279],"max":[0.6075642061475794,1.000045272121852,0.42910687753606314]},{"bufferView":5,"componentType":5126,"count":4700,"type":"VEC3","min":[-0.9976669549942017,-0.99940425157547,-0.9989551305770874],"max":[0.9989135265350342,0.9999603033065796,0.9998118281364441]},{"bufferView":6,"componentType":5126,"count":4700,"type":"VEC2"},{"bufferView":7,"componentType":5123,"count":9993,"type":"SCALAR","min":[0],"max":[4699]},{"bufferView":8,"componentType":5126,"count":16,"type":"VEC3","min":[-0.66,0,-0.66],"max":[0.66,1.0,0.66]},{"bufferView":9,"componentType":5126,"count":16,"type":"VEC3","min":[-1.0,0,-0.7071067811865475],"max":[-0.0,0,1.0]},{"bufferView":10,"componentType":5126,"count":16,"type":"VEC2"},{"bufferView":11,"componentType":5123,"count":24,"type":"SCALAR","min":[0],"max":[15]},{"bufferView":12,"componentType":5126,"count":8,"type":"VEC3","min":[-0.66,0,-0.66],"max":[0.66,1.0,0.66]},{"bufferView":13,"componentType":5126,"count":8,"type":"VEC3","min":[-1.0,0,6.123233995736766e-17],"max":[-0.0,0,1.0]},{"bufferView":14,"componentType":5126,"count":8,"type":"VEC2"},{"bufferView":15,"componentType":5123,"count":12,"type":"SCALAR","min":[0],"max":[7]},{"bufferView":16,"componentType":5126,"count":8754,"type":"VEC3","min":[-0.55,0.0,-0.4041117252880997],"max":[0.55,1.0,0.4041117252880997]},{"bufferView":17,"componentType":5126,"count":8754,"type":"VEC3","min":[-0.9996779561042786,-0.9997625946998596,-0.9988284111022949],"max":[0.999296247959137,0.9999527335166931,0.9998937249183655]},{"bufferView":18,"componentType":5126,"count":8754,"type":"VEC2"},{"bufferView":19,"componentType":5123,"count":21696,"type":"SCALAR","min":[0],"max":[8753]},{"bufferView":20,"componentType":5126,"count":4700,"type":"VEC3","min":[-0.5486376445947689,1.6705947594052684e-05,-0.39361191808792245],"max":[0.5569338556352812,1.000045272121852,0.3933479710747246]},{"bufferView":21,"componentType":5126,"count":4700,"type":"VEC3","min":[-0.9976954460144043,-0.999291181564331,-0.9989568591117859],"max":[0.998948872089386,0.9999527335166931,0.9998225569725037]},{"bufferView":22,"componentType":5126,"count":4700,"type":"VEC2"},{"bufferView":23,"componentType":5123,"count":9993,"type":"SCALAR","min":[0],"max":[4699]},{"bufferView":24,"componentType":5126,"count":16,"type":"VEC3","min":[-0.6050000000000001,0,-0.6050000000000001],"max":[0.6050000000000001,1.0,0.6050000000000001]},{"bufferView":25,"componentType":5126,"count":16,"type":"VEC3","min":[-1.0,0,-0.7071067811865475],"max":[-0.0,0,1.0]},{"bufferView":26,"componentType":5126,"count":16,"type":"VEC2"},{"bufferView":27,"componentType":5123,"count":24,"type":"SCALAR","min":[0],"max":[15]},{"bufferView":28,"componentType":5126,"count":8,"type":"VEC3","min":[-0.6050000000000001,0,-0.6050000000000001],"max":[0.6050000000000001,1.0,0.6050000000000001]},{"bufferView":29,"componentType":5126,"count":8,"type":"VEC3","min":[-1.0,0,6.123233995736766e-17],"max":[-0.0,0,1.0]},{"bufferView":30,"componentType":5126,"count":8,"type":"VEC2"},{"bufferView":31,"componentType":5123,"count":12,"type":"SCALAR","min":[0],"max":[7]},{"bufferView":32,"componentType":5126,"count":8754,"type":"VEC3","min":[-0.9375,0.0,-0.6888268044683518],"max":[0.9375,1.5000000000000002,0.6888268044683518]},{"bufferView":33,"componentType":5126,"count":8754,"type":"VEC3","min":[-0.9996474385261536,-0.9998162388801575,-0.9986070990562439],"max":[0.9991918206214905,0.9999634027481079,0.9998778700828552]},{"bufferView":34,"componentType":5126,"count":8754,"type":"VEC2"},{"bufferView":35,"componentType":5123,"count":21696,"type":"SCALAR","min":[0],"max":[8753]},{"bufferView":36,"componentType":5126,"count":4700,"type":"VEC3","min":[-0.935177803286538,2.5058921391079027e-05,-0.6709294058316859],"max":[0.949319072105593,1.5000679081827781,0.6704794961500986]},{"bufferView":37,"componentType":5126,"count":4700,"type":"VEC3","min":[-0.9976518154144287,-0.9994509816169739,-0.9989542961120605],"max":[0.9988946318626404,0.9999633431434631,0.9998062252998352]},{"bufferView":38,"componentType":5126,"count":4700,"type":"VEC2"},{"bufferView":39,"componentType":5123,"count":9993,"type":"SCALAR","min":[0],"max":[4699]},{"bufferView":40,"componentType":5126,"count":16,"type":"VEC3","min":[-1.03125,0,-1.03125],"max":[1.03125,1.5,1.03125]},{"bufferView":41,"componentType":5126,"count":16,"type":"VEC3","min":[-1.0,0,-0.7071067811865475],"max":[-0.0,0,1.0]},{"bufferView":42,"componentType":5126,"count":16,"type":"VEC2"},{"bufferView":43,"componentType":5123,"count":24,"type":"SCALAR","min":[0],"max":[15]},{"bufferView":44,"componentType":5126,"count":8,"type":"VEC3","min":[-1.03125,0,-1.03125],"max":[1.03125,1.5,1.03125]},{"bufferView":45,"componentType":5126,"count":8,"type":"VEC3","min":[-1.0,0,6.123233995736766e-17],"max":[-0.0,0,1.0]},{"bufferView":46,"componentType":5126,"count":8,"type":"VEC2"},{"bufferView":47,"componentType":5123,"count":12,"type":"SCALAR","min":[0],"max":[7]},{"bufferView":48,"componentType":5126,"count":28800,"type":"VEC3","min":[-3.1149101236386527,0.027221351877174366,-0.9252344564167174],"max":[3.110907133738842,2.0585183297935,0.925502924271223]},{"bufferView":49,"componentType":5126,"count":28800,"type":"VEC3","min":[-1.0,-0.14995028157857673,-1.0],"max":[1.0,1.0,1.0]},{"bufferView":50,"componentType":5126,"count":28800,"type":"VEC2"},{"bufferView":51,"componentType":5123,"count":43200,"type":"SCALAR","min":[0],"max":[28799]},{"bufferView":52,"componentType":5126,"count":22400,"type":"VEC3","min":[-3.234564919780702,-0.04742840444207573,-1.0440490486263074],"max":[3.230614597961131,2.119124532002909,1.0552661714687863]},{"bufferView":53,"componentType":5126,"count":22400,"type":"VEC3","min":[-1.0,-0.14996641912234876,-1.0],"max":[1.0,1.0,1.0]},{"bufferView":54,"componentType":5126,"count":22400,"type":"VEC2"},{"bufferView":55,"componentType":5123,"count":33600,"type":"SCALAR","min":[0],"max":[22399]},{"bufferView":56,"componentType":5126,"count":22000,"type":"VEC3","min":[-3.2824838477021405,-0.09999533864482897,-1.092699741841102],"max":[3.3192985933171446,2.158627453154471,1.121659590517386]},{"bufferView":57,"componentType":5126,"count":22000,"type":"VEC3","min":[-1.0,-0.1499988519592576,-1.0],"max":[1.0,1.0,1.0]},{"bufferView":58,"componentType":5126,"count":22000,"type":"VEC2"},{"bufferView":59,"componentType":5123,"count":33000,"type":"SCALAR","min":[0],"max":[21999]},{"bufferView":60,"componentType":5126,"count":21600,"type":"VEC3","min":[-3.399222345896113,-0.1808625163112085,-1.2267841844424998],"max":[3.408074568017203,2.242392412618562,1.2279635644192959]},{"bufferView":61,"componentType":5126,"count":21600,"type":"VEC3","min":[-1.0,-0.14985251196477112,-1.0],"max":[1.0,1.0,1.0]},{"bufferView":62,"componentType":5126,"count":21600,"type":"VEC2"},{"bufferView":63,"componentType":5123,"count":32400,"type":"SCALAR","min":[0],"max":[21599]},{"bufferView":64,"componentType":5126,"count":21200,"type":"VEC3","min":[-3.559848316623825,-0.2711956777064602,-1.3460583261841703],"max":[3.5651093733790304,2.358628817265058,1.3409655693168983]},{"bufferView":65,"componentType":5126,"count":21200,"type":"VEC3","min":[-1.0,-0.14999172758076823,-1.0],"max":[1.0,1.0,1.0]},{"bufferView":66,"componentType":5126,"count":21200,"type":"VEC2"},{"bufferView":67,"componentType":5123,"count":31800,"type":"SCALAR","min":[0],"max":[21199]},{"bufferView":68,"componentType":5126,"count":20800,"type":"VEC3","min":[-3.72587877575173,-0.40237740359627777,-1.5208175742335868],"max":[3.726701754604237,2.4768029192424814,1.5282552023120535]},{"bufferView":69,"componentType":5126,"count":20800,"type":"VEC3","min":[-1.0,-0.14975560048458825,-1.0],"max":[1.0,1.0,1.0]},{"bufferView":70,"componentType":5126,"count":20800,"type":"VEC2"},{"bufferView":71,"componentType":5123,"count":31200,"type":"SCALAR","min":[0],"max":[20799]},{"bufferView":72,"componentType":5126,"count":20400,"type":"VEC3","min":[-3.961547033557474,-0.5278900186997604,-1.7912813501497653],"max":[3.955707009943048,2.6300220032206374,1.7541765189685727]},{"bufferView":73,"componentType":5126,"count":20400,"type":"VEC3","min":[-1.0,-0.1499611735888221,-1.0],"max":[1.0,1.0,1.0]},{"bufferView":74,"componentType":5126,"count":20400,"type":"VEC2"},{"bufferView":75,"componentType":5123,"count":30600,"type":"SCALAR","min":[0],"max":[20399]},{"bufferView":76,"componentType":5126,"count":20000,"type":"VEC3","min":[-4.218763082402775,-0.7414193839712974,-2.050032941644602],"max":[4.237161489856832,2.8007691111798936,2.03696300490052]},{"bufferView":77,"componentType":5126,"count":20000,"type":"VEC3","min":[-1.0,-0.14994813032673948,-1.0],"max":[1.0,1.0,1.0]},{"bufferView":78,"componentType":5126,"count":20000,"type":"VEC2"},{"bufferView":79,"componentType":5123,"count":30000,"type":"SCALAR","min":[0],"max":[19999]},{"bufferView":80,"componentType":5126,"count":19600,"type":"VEC3","min":[-4.503912299116548,-0.9215137112017193,-2.239150832651583],"max":[4.480244041532437,2.942955239434423,2.279461863554935]},{"bufferView":81,"componentType":5126,"count":19600,"type":"VEC3","min":[-1.0,-0.14999937435807634,-1.0],"max":[1.0,1.0,1.0]},{"bufferView":82,"componentType":5126,"count":19600,"type":"VEC2"},{"bufferView":83,"componentType":5123,"count":29400,"type":"SCALAR","min":[0],"max":[19599]},{"bufferView":84,"componentType":5126,"count":19200,"type":"VEC3","min":[-4.810247723759894,-1.1842755453812635,-2.591301850641781],"max":[4.82148476847883,3.1835984650581786,2.5575544946381084]},{"bufferView":85,"componentType":5126,"count":19200,"type":"VEC3","min":[-1.0,-0.14979371690968168,-1.0],"max":[1.0,1.0,1.0]},{"bufferView":86,"componentType":5126,"count":19200,"type":"VEC2"},{"bufferView":87,"componentType":5123,"count":28800,"type":"SCALAR","min":[0],"max":[19199]},{"bufferView":88,"componentType":5126,"count":18600,"type":"VEC3","min":[-5.1879493339744815,-1.3899381752008906,-2.9766310300828405],"max":[5.199647325666437,3.434629600670309,3.0212360996200993]},{"bufferView":89,"componentType":5126,"count":18600,"type":"VEC3","min":[-1.0,-0.1498994369957293,-1.0],"max":[1.0,1.0,1.0]},{"bufferView":90,"componentType":5126,"count":18600,"type":"VEC2"},{"bufferView":91,"componentType":5123,"count":27900,"type":"SCALAR","min":[0],"max":[18599]},{"bufferView":92,"componentType":5126,"count":18000,"type":"VEC3","min":[-5.571914893632108,-1.6728998331782816,-3.38638054117065],"max":[5.550255168996553,3.753868446211711,3.3382980420992925]},{"bufferView":93,"componentType":5126,"count":18000,"type":"VEC3","min":[-1.0,-0.14999953078349398,-1.0],"max":[1.0,1.0,1.0]},{"bufferView":94,"componentType":5126,"count":18000,"type":"VEC2"},{"bufferView":95,"componentType":5123,"count":27000,"type":"SCALAR","min":[0],"max":[17999]}],"images":[{"uri":"textures/poly_searsia_lucida.png"},{"uri":"textures/poly_searsia_lucida.png"},{"uri":"impostors/berberitze_a_summer.png"},{"uri":"textures/poly_searsia_lucida.png"},{"uri":"textures/poly_searsia_lucida.png"},{"uri":"impostors/heckenkirsche_a_summer.png"},{"uri":"textures/poly_searsia_lucida.png"},{"uri":"textures/poly_searsia_lucida.png"},{"uri":"impostors/hundsrose_a_summer.png"},{"uri":"textures/poly_searsia_lucida.png"}],"samplers":[{"magFilter":9729,"minFilter":9987,"wrapS":10497,"wrapT":10497},{"magFilter":9729,"minFilter":9987,"wrapS":10497,"wrapT":10497},{"magFilter":9729,"minFilter":9987,"wrapS":10497,"wrapT":10497},{"magFilter":9729,"minFilter":9987,"wrapS":10497,"wrapT":10497}],"textures":[{"source":0,"sampler":0},{"source":1,"sampler":0},{"source":2,"sampler":0},{"source":3,"sampler":1},{"source":4,"sampler":1},{"source":5,"sampler":1},{"source":6,"sampler":2},{"source":7,"sampler":2},{"source":8,"sampler":2},{"source":9,"sampler":3}],"materials":[{"name":"berberitze_a_bark","pbrMetallicRoughness":{"baseColorFactor":[0.82,0.82,0.82,1.0],"baseColorTexture":{"index":0},"metallicFactor":0.0,"roughnessFactor":0.91},"doubleSided":false},{"name":"berberitze_a_foliage","pbrMetallicRoughness":{"baseColorFactor":[0.5754901960784313,1.0,0.7354901960784314,1.0],"baseColorTexture":{"index":1},"metallicFactor":0.0,"roughnessFactor":0.78},"doubleSided":true,"alphaMode":"MASK","alphaCutoff":0.18},{"name":"berberitze_a_whole_tree_impostor","pbrMetallicRoughness":{"baseColorFactor":[1,1,1,1],"baseColorTexture":{"index":2},"metallicFactor":0.0,"roughnessFactor":0.92},"doubleSided":true,"alphaMode":"MASK","alphaCutoff":0.18},{"name":"heckenkirsche_a_bark","pbrMetallicRoughness":{"baseColorFactor":[0.82,0.82,0.82,1.0],"baseColorTexture":{"index":3},"metallicFactor":0.0,"roughnessFactor":0.91},"doubleSided":false},{"name":"heckenkirsche_a_foliage","pbrMetallicRoughness":{"baseColorFactor":[0.6209803921568627,1.0,0.7809803921568628,1.0],"baseColorTexture":{"index":4},"metallicFactor":0.0,"roughnessFactor":0.78},"doubleSided":true,"alphaMode":"MASK","alphaCutoff":0.18},{"name":"heckenkirsche_a_whole_tree_impostor","pbrMetallicRoughness":{"baseColorFactor":[1,1,1,1],"baseColorTexture":{"index":5},"metallicFactor":0.0,"roughnessFactor":0.92},"doubleSided":true,"alphaMode":"MASK","alphaCutoff":0.18},{"name":"hundsrose_a_bark","pbrMetallicRoughness":{"baseColorFactor":[0.82,0.82,0.82,1.0],"baseColorTexture":{"index":6},"metallicFactor":0.0,"roughnessFactor":0.91},"doubleSided":false},{"name":"hundsrose_a_foliage","pbrMetallicRoughness":{"baseColorFactor":[0.5550980392156862,1.0,0.7150980392156863,1.0],"baseColorTexture":{"index":7},"metallicFactor":0.0,"roughnessFactor":0.78},"doubleSided":true,"alphaMode":"MASK","alphaCutoff":0.18},{"name":"hundsrose_a_whole_tree_impostor","pbrMetallicRoughness":{"baseColorFactor":[1,1,1,1],"baseColorTexture":{"index":8},"metallicFactor":0.0,"roughnessFactor":0.92},"doubleSided":true,"alphaMode":"MASK","alphaCutoff":0.18},{"name":"weissdornhecke_individual_leaves_LOD0","pbrMetallicRoughness":{"baseColorFactor":[0.58,0.96,0.66,1.0],"baseColorTexture":{"index":9},"metallicFactor":0.0,"roughnessFactor":0.82},"doubleSided":true,"alphaMode":"MASK","alphaCutoff":0.18},{"name":"weissdornhecke_individual_leaves_LOD1","pbrMetallicRoughness":{"baseColorFactor":[0.58,0.96,0.66,1.0],"baseColorTexture":{"index":9},"metallicFactor":0.0,"roughnessFactor":0.82},"doubleSided":true,"alphaMode":"MASK","alphaCutoff":0.08},{"name":"weissdornhecke_individual_leaves_LOD2","pbrMetallicRoughness":{"baseColorFactor":[0.58,0.96,0.66,1.0],"baseColorTexture":{"index":9},"metallicFactor":0.0,"roughnessFactor":0.82},"doubleSided":true,"alphaMode":"MASK","alphaCutoff":0.065},{"name":"weissdornhecke_individual_leaves_LOD3","pbrMetallicRoughness":{"baseColorFactor":[0.58,0.96,0.66,1.0],"baseColorTexture":{"index":9},"metallicFactor":0.0,"roughnessFactor":0.82},"doubleSided":true,"alphaMode":"MASK","alphaCutoff":0.055},{"name":"weissdornhecke_individual_leaves_LOD4","pbrMetallicRoughness":{"baseColorFactor":[0.58,0.96,0.66,1.0],"baseColorTexture":{"index":9},"metallicFactor":0.0,"roughnessFactor":0.82},"doubleSided":true,"alphaMode":"MASK","alphaCutoff":0.045},{"name":"weissdornhecke_individual_leaves_LOD5","pbrMetallicRoughness":{"baseColorFactor":[0.58,0.96,0.66,1.0],"baseColorTexture":{"index":9},"metallicFactor":0.0,"roughnessFactor":0.82},"doubleSided":true,"alphaMode":"MASK","alphaCutoff":0.038},{"name":"weissdornhecke_individual_leaves_LOD6","pbrMetallicRoughness":{"baseColorFactor":[0.58,0.96,0.66,1.0],"baseColorTexture":{"index":9},"metallicFactor":0.0,"roughnessFactor":0.82},"doubleSided":true,"alphaMode":"MASK","alphaCutoff":0.032},{"name":"weissdornhecke_individual_leaves_LOD7","pbrMetallicRoughness":{"baseColorFactor":[0.58,0.96,0.66,1.0],"baseColorTexture":{"index":9},"metallicFactor":0.0,"roughnessFactor":0.82},"doubleSided":true,"alphaMode":"MASK","alphaCutoff":0.027},{"name":"weissdornhecke_individual_leaves_LOD8","pbrMetallicRoughness":{"baseColorFactor":[0.58,0.96,0.66,1.0],"baseColorTexture":{"index":9},"metallicFactor":0.0,"roughnessFactor":0.82},"doubleSided":true,"alphaMode":"MASK","alphaCutoff":0.023},{"name":"weissdornhecke_individual_leaves_LOD9","pbrMetallicRoughness":{"baseColorFactor":[0.58,0.96,0.66,1.0],"baseColorTexture":{"index":9},"metallicFactor":0.0,"roughnessFactor":0.82},"doubleSided":true,"alphaMode":"MASK","alphaCutoff":0.02},{"name":"weissdornhecke_individual_leaves_LOD10","pbrMetallicRoughness":{"baseColorFactor":[0.58,0.96,0.66,1.0],"baseColorTexture":{"index":9},"metallicFactor":0.0,"roughnessFactor":0.82},"doubleSided":true,"alphaMode":"MASK","alphaCutoff":0.017},{"name":"weissdornhecke_individual_leaves_LOD11","pbrMetallicRoughness":{"baseColorFactor":[0.58,0.96,0.66,1.0],"baseColorTexture":{"index":9},"metallicFactor":0.0,"roughnessFactor":0.82},"doubleSided":true,"alphaMode":"MASK","alphaCutoff":0.015}]}