{"asset":{"version":"2.0","generator":"Connected Rails CC0 hedge composer","copyright":"Mantissa and Poly Haven source models: CC0 1.0; hedge composition: Connected Rails"},"scene":0,"scenes":[{"nodes":[0,1,2,3,4,5,6,7,8,9,10,11]}],"nodes":[{"name":"hedge_LOD0","children":[12,14,16,28,40,52,56,64,72,74,80,84,86,88,92,98,100,104,115,117,127,129]},{"name":"hedge_LOD1","children":[13,15,17,29,41,53,57,65,73,75,81,85,87,89,93,99,101,105,116,118,128,130]},{"name":"hedge_LOD2","children":[18,30,42,54,58,66,76,82,90,94,102,106,119,131]},{"name":"hedge_LOD3","children":[19,31,43,55,59,67,77,83,91,95,103,107,120,132]},{"name":"hedge_LOD4","children":[20,32,44,60,68,78,96,108,121,133]},{"name":"hedge_LOD5","children":[21,33,45,61,69,79,97,109,122,134]},{"name":"hedge_LOD6","children":[22,34,46,62,70,110,123,135]},{"name":"hedge_LOD7","children":[23,35,47,63,71,111,124,136]},{"name":"hedge_LOD8","children":[24,36,48,112,125,137]},{"name":"hedge_LOD9","children":[25,37,49,113,126,138]},{"name":"hedge_LOD10","children":[26,38,50,114,139]},{"name":"hedge_LOD11","children":[27,39,51,140]},{"name":"hundsrose_a_part_12_LOD0","mesh":1,"translation":[-3.0,-0.0,0.005550115056870558],"rotation":[0.0,0.006256265134035168,0.0,0.9999804293817818],"scale":[0.464,1.0355640834624988,1.0036428760962857]},{"name":"hundsrose_a_part_13_LOD1","mesh":1,"translation":[-3.0,-0.0,0.005550115056870558],"rotation":[0.0,0.006256265134035168,0.0,0.9999804293817818],"scale":[0.464,1.0355640834624988,1.0036428760962857]},{"name":"berberitze_a_part_14_LOD0","mesh":5,"translation":[-2.4,-0.0,0.042342791971161114],"rotation":[0.0,-0.02511630967419389,0.0,0.9996845357353239],"scale":[0.725,1.6164219611606065,1.7481347253159079]},{"name":"berberitze_a_part_15_LOD1","mesh":5,"translation":[-2.4,-0.0,0.042342791971161114],"rotation":[0.0,-0.02511630967419389,0.0,0.9996845357353239],"scale":[0.725,1.6164219611606065,1.7481347253159079]},{"name":"heckenkirsche_a_part_16_LOD0","mesh":9,"translation":[-1.8,-0.0,0.04777078203657084],"rotation":[0.0,0.0203004734403106,0.0,0.9997939241554228],"scale":[0.7909090909090909,1.6025520445989372,1.8559497528792654]},{"name":"heckenkirsche_a_part_17_LOD1","mesh":9,"translation":[-1.8,-0.0,0.04777078203657084],"rotation":[0.0,0.0203004734403106,0.0,0.9997939241554228],"scale":[0.7909090909090909,1.6025520445989372,1.8559497528792654]},{"name":"heckenkirsche_a_part_18_LOD2","mesh":9,"translation":[-1.8,-0.0,0.04777078203657084],"rotation":[0.0,0.0203004734403106,0.0,0.9997939241554228],"scale":[0.7909090909090909,1.6025520445989372,1.8559497528792654]},{"name":"heckenkirsche_a_part_19_LOD3","mesh":9,"translation":[-1.8,-0.0,0.04777078203657084],"rotation":[0.0,0.0203004734403106,0.0,0.9997939241554228],"scale":[0.7909090909090909,1.6025520445989372,1.8559497528792654]},{"name":"heckenkirsche_a_part_20_LOD4","mesh":9,"translation":[-1.8,-0.0,0.04777078203657084],"rotation":[0.0,0.0203004734403106,0.0,0.9997939241554228],"scale":[0.7909090909090909,1.6025520445989372,1.8559497528792654]},{"name":"heckenkirsche_a_part_21_LOD5","mesh":9,"translation":[-1.8,-0.0,0.04777078203657084],"rotation":[0.0,0.0203004734403106,0.0,0.9997939241554228],"scale":[0.7909090909090909,1.6025520445989372,1.8559497528792654]},{"name":"heckenkirsche_a_part_22_LOD6","mesh":9,"translation":[-1.8,-0.0,0.04777078203657084],"rotation":[0.0,0.0203004734403106,0.0,0.9997939241554228],"scale":[0.7909090909090909,1.6025520445989372,1.8559497528792654]},{"name":"heckenkirsche_a_part_23_LOD7","mesh":9,"translation":[-1.8,-0.0,0.04777078203657084],"rotation":[0.0,0.0203004734403106,0.0,0.9997939241554228],"scale":[0.7909090909090909,1.6025520445989372,1.8559497528792654]},{"name":"heckenkirsche_a_part_24_LOD8","mesh":9,"translation":[-1.8,-0.0,0.04777078203657084],"rotation":[0.0,0.0203004734403106,0.0,0.9997939241554228],"scale":[0.7909090909090909,1.6025520445989372,1.8559497528792654]},{"name":"heckenkirsche_a_part_25_LOD9","mesh":9,"translation":[-1.8,-0.0,0.04777078203657084],"rotation":[0.0,0.0203004734403106,0.0,0.9997939241554228],"scale":[0.7909090909090909,1.6025520445989372,1.8559497528792654]},{"name":"heckenkirsche_a_part_26_LOD10","mesh":9,"translation":[-1.8,-0.0,0.04777078203657084],"rotation":[0.0,0.0203004734403106,0.0,0.9997939241554228],"scale":[0.7909090909090909,1.6025520445989372,1.8559497528792654]},{"name":"heckenkirsche_a_part_27_LOD11","mesh":9,"translation":[-1.8,-0.0,0.04777078203657084],"rotation":[0.0,0.0203004734403106,0.0,0.9997939241554228],"scale":[0.7909090909090909,1.6025520445989372,1.8559497528792654]},{"name":"hundsrose_a_part_28_LOD0","mesh":1,"translation":[-1.2000000000000002,-0.0,-0.12400128910658574],"rotation":[0.0,-0.04584963562132028,0.0,0.9989483524754381],"scale":[0.464,1.0343503499807722,1.0298271721933394]},{"name":"hundsrose_a_part_29_LOD1","mesh":1,"translation":[-1.2000000000000002,-0.0,-0.12400128910658574],"rotation":[0.0,-0.04584963562132028,0.0,0.9989483524754381],"scale":[0.464,1.0343503499807722,1.0298271721933394]},{"name":"hundsrose_a_part_30_LOD2","mesh":1,"translation":[-1.2000000000000002,-0.0,-0.12400128910658574],"rotation":[0.0,-0.04584963562132028,0.0,0.9989483524754381],"scale":[0.464,1.0343503499807722,1.0298271721933394]},{"name":"hundsrose_a_part_31_LOD3","mesh":1,"translation":[-1.2000000000000002,-0.0,-0.12400128910658574],"rotation":[0.0,-0.04584963562132028,0.0,0.9989483524754381],"scale":[0.464,1.0343503499807722,1.0298271721933394]},{"name":"hundsrose_a_part_32_LOD4","mesh":1,"translation":[-1.2000000000000002,-0.0,-0.12400128910658574],"rotation":[0.0,-0.04584963562132028,0.0,0.9989483524754381],"scale":[0.464,1.0343503499807722,1.0298271721933394]},{"name":"hundsrose_a_part_33_LOD5","mesh":1,"translation":[-1.2000000000000002,-0.0,-0.12400128910658574],"rotation":[0.0,-0.04584963562132028,0.0,0.9989483524754381],"scale":[0.464,1.0343503499807722,1.0298271721933394]},{"name":"hundsrose_a_part_34_LOD6","mesh":1,"translation":[-1.2000000000000002,-0.0,-0.12400128910658574],"rotation":[0.0,-0.04584963562132028,0.0,0.9989483524754381],"scale":[0.464,1.0343503499807722,1.0298271721933394]},{"name":"hundsrose_a_part_35_LOD7","mesh":1,"translation":[-1.2000000000000002,-0.0,-0.12400128910658574],"rotation":[0.0,-0.04584963562132028,0.0,0.9989483524754381],"scale":[0.464,1.0343503499807722,1.0298271721933394]},{"name":"hundsrose_a_part_36_LOD8","mesh":1,"translation":[-1.2000000000000002,-0.0,-0.12400128910658574],"rotation":[0.0,-0.04584963562132028,0.0,0.9989483524754381],"scale":[0.464,1.0343503499807722,1.0298271721933394]},{"name":"hundsrose_a_part_37_LOD9","mesh":1,"translation":[-1.2000000000000002,-0.0,-0.12400128910658574],"rotation":[0.0,-0.04584963562132028,0.0,0.9989483524754381],"scale":[0.464,1.0343503499807722,1.0298271721933394]},{"name":"hundsrose_a_part_38_LOD10","mesh":1,"translation":[-1.2000000000000002,-0.0,-0.12400128910658574],"rotation":[0.0,-0.04584963562132028,0.0,0.9989483524754381],"scale":[0.464,1.0343503499807722,1.0298271721933394]},{"name":"hundsrose_a_part_39_LOD11","mesh":1,"translation":[-1.2000000000000002,-0.0,-0.12400128910658574],"rotation":[0.0,-0.04584963562132028,0.0,0.9989483524754381],"scale":[0.464,1.0343503499807722,1.0298271721933394]},{"name":"berberitze_a_part_40_LOD0","mesh":5,"translation":[-0.6000000000000001,-0.0,0.09828786100788214],"rotation":[0.0,-0.00969142806872082,0.0,0.9999530370082331],"scale":[0.725,1.6427881275201877,1.9765982516094573]},{"name":"berberitze_a_part_41_LOD1","mesh":5,"translation":[-0.6000000000000001,-0.0,0.09828786100788214],"rotation":[0.0,-0.00969142806872082,0.0,0.9999530370082331],"scale":[0.725,1.6427881275201877,1.9765982516094573]},{"name":"berberitze_a_part_42_LOD2","mesh":5,"translation":[-0.6000000000000001,-0.0,0.09828786100788214],"rotation":[0.0,-0.00969142806872082,0.0,0.9999530370082331],"scale":[0.725,1.6427881275201877,1.9765982516094573]},{"name":"berberitze_a_part_43_LOD3","mesh":5,"translation":[-0.6000000000000001,-0.0,0.09828786100788214],"rotation":[0.0,-0.00969142806872082,0.0,0.9999530370082331],"scale":[0.725,1.6427881275201877,1.9765982516094573]},{"name":"berberitze_a_part_44_LOD4","mesh":5,"translation":[-0.6000000000000001,-0.0,0.09828786100788214],"rotation":[0.0,-0.00969142806872082,0.0,0.9999530370082331],"scale":[0.725,1.6427881275201877,1.9765982516094573]},{"name":"berberitze_a_part_45_LOD5","mesh":5,"translation":[-0.6000000000000001,-0.0,0.09828786100788214],"rotation":[0.0,-0.00969142806872082,0.0,0.9999530370082331],"scale":[0.725,1.6427881275201877,1.9765982516094573]},{"name":"berberitze_a_part_46_LOD6","mesh":5,"translation":[-0.6000000000000001,-0.0,0.09828786100788214],"rotation":[0.0,-0.00969142806872082,0.0,0.9999530370082331],"scale":[0.725,1.6427881275201877,1.9765982516094573]},{"name":"berberitze_a_part_47_LOD7","mesh":5,"translation":[-0.6000000000000001,-0.0,0.09828786100788214],"rotation":[0.0,-0.00969142806872082,0.0,0.9999530370082331],"scale":[0.725,1.6427881275201877,1.9765982516094573]},{"name":"berberitze_a_part_48_LOD8","mesh":5,"translation":[-0.6000000000000001,-0.0,0.09828786100788214],"rotation":[0.0,-0.00969142806872082,0.0,0.9999530370082331],"scale":[0.725,1.6427881275201877,1.9765982516094573]},{"name":"berberitze_a_part_49_LOD9","mesh":5,"translation":[-0.6000000000000001,-0.0,0.09828786100788214],"rotation":[0.0,-0.00969142806872082,0.0,0.9999530370082331],"scale":[0.725,1.6427881275201877,1.9765982516094573]},{"name":"berberitze_a_part_50_LOD10","mesh":5,"translation":[-0.6000000000000001,-0.0,0.09828786100788214],"rotation":[0.0,-0.00969142806872082,0.0,0.9999530370082331],"scale":[0.725,1.6427881275201877,1.9765982516094573]},{"name":"berberitze_a_part_51_LOD11","mesh":5,"translation":[-0.6000000000000001,-0.0,0.09828786100788214],"rotation":[0.0,-0.00969142806872082,0.0,0.9999530370082331],"scale":[0.725,1.6427881275201877,1.9765982516094573]},{"name":"heckenkirsche_a_part_52_LOD0","mesh":9,"translation":[0.0,-0.0,-0.09452484147063749],"rotation":[0.0,0.006658978662619356,0.0,0.9999778287558033],"scale":[0.7909090909090909,1.5713344890816958,1.772508193551312]},{"name":"heckenkirsche_a_part_53_LOD1","mesh":9,"translation":[0.0,-0.0,-0.09452484147063749],"rotation":[0.0,0.006658978662619356,0.0,0.9999778287558033],"scale":[0.7909090909090909,1.5713344890816958,1.772508193551312]},{"name":"heckenkirsche_a_part_54_LOD2","mesh":9,"translation":[0.0,-0.0,-0.09452484147063749],"rotation":[0.0,0.006658978662619356,0.0,0.9999778287558033],"scale":[0.7909090909090909,1.5713344890816958,1.772508193551312]},{"name":"heckenkirsche_a_part_55_LOD3","mesh":9,"translation":[0.0,-0.0,-0.09452484147063749],"rotation":[0.0,0.006658978662619356,0.0,0.9999778287558033],"scale":[0.7909090909090909,1.5713344890816958,1.772508193551312]},{"name":"hundsrose_a_part_56_LOD0","mesh":1,"translation":[0.5999999999999996,-0.0,-0.10532631241624064],"rotation":[0.0,0.016419089317369604,0.0,0.9998651976671596],"scale":[0.464,1.0639446929562493,1.1858539657979232]},{"name":"hundsrose_a_part_57_LOD1","mesh":1,"translation":[0.5999999999999996,-0.0,-0.10532631241624064],"rotation":[0.0,0.016419089317369604,0.0,0.9998651976671596],"scale":[0.464,1.0639446929562493,1.1858539657979232]},{"name":"hundsrose_a_part_58_LOD2","mesh":1,"translation":[0.5999999999999996,-0.0,-0.10532631241624064],"rotation":[0.0,0.016419089317369604,0.0,0.9998651976671596],"scale":[0.464,1.0639446929562493,1.1858539657979232]},{"name":"hundsrose_a_part_59_LOD3","mesh":1,"translation":[0.5999999999999996,-0.0,-0.10532631241624064],"rotation":[0.0,0.016419089317369604,0.0,0.9998651976671596],"scale":[0.464,1.0639446929562493,1.1858539657979232]},{"name":"hundsrose_a_part_60_LOD4","mesh":1,"translation":[0.5999999999999996,-0.0,-0.10532631241624064],"rotation":[0.0,0.016419089317369604,0.0,0.9998651976671596],"scale":[0.464,1.0639446929562493,1.1858539657979232]},{"name":"hundsrose_a_part_61_LOD5","mesh":1,"translation":[0.5999999999999996,-0.0,-0.10532631241624064],"rotation":[0.0,0.016419089317369604,0.0,0.9998651976671596],"scale":[0.464,1.0639446929562493,1.1858539657979232]},{"name":"hundsrose_a_part_62_LOD6","mesh":1,"translation":[0.5999999999999996,-0.0,-0.10532631241624064],"rotation":[0.0,0.016419089317369604,0.0,0.9998651976671596],"scale":[0.464,1.0639446929562493,1.1858539657979232]},{"name":"hundsrose_a_part_63_LOD7","mesh":1,"translation":[0.5999999999999996,-0.0,-0.10532631241624064],"rotation":[0.0,0.016419089317369604,0.0,0.9998651976671596],"scale":[0.464,1.0639446929562493,1.1858539657979232]},{"name":"berberitze_a_part_64_LOD0","mesh":5,"translation":[1.2000000000000002,-0.0,0.02709541032636187],"rotation":[0.0,0.07424427606370979,0.0,0.9972400851709561],"scale":[0.725,1.583360206004418,1.8387304661234987]},{"name":"berberitze_a_part_65_LOD1","mesh":5,"translation":[1.2000000000000002,-0.0,0.02709541032636187],"rotation":[0.0,0.07424427606370979,0.0,0.9972400851709561],"scale":[0.725,1.583360206004418,1.8387304661234987]},{"name":"berberitze_a_part_66_LOD2","mesh":5,"translation":[1.2000000000000002,-0.0,0.02709541032636187],"rotation":[0.0,0.07424427606370979,0.0,0.9972400851709561],"scale":[0.725,1.583360206004418,1.8387304661234987]},{"name":"berberitze_a_part_67_LOD3","mesh":5,"translation":[1.2000000000000002,-0.0,0.02709541032636187],"rotation":[0.0,0.07424427606370979,0.0,0.9972400851709561],"scale":[0.725,1.583360206004418,1.8387304661234987]},{"name":"berberitze_a_part_68_LOD4","mesh":5,"translation":[1.2000000000000002,-0.0,0.02709541032636187],"rotation":[0.0,0.07424427606370979,0.0,0.9972400851709561],"scale":[0.725,1.583360206004418,1.8387304661234987]},{"name":"berberitze_a_part_69_LOD5","mesh":5,"translation":[1.2000000000000002,-0.0,0.02709541032636187],"rotation":[0.0,0.07424427606370979,0.0,0.9972400851709561],"scale":[0.725,1.583360206004418,1.8387304661234987]},{"name":"berberitze_a_part_70_LOD6","mesh":5,"translation":[1.2000000000000002,-0.0,0.02709541032636187],"rotation":[0.0,0.07424427606370979,0.0,0.9972400851709561],"scale":[0.725,1.583360206004418,1.8387304661234987]},{"name":"berberitze_a_part_71_LOD7","mesh":5,"translation":[1.2000000000000002,-0.0,0.02709541032636187],"rotation":[0.0,0.07424427606370979,0.0,0.9972400851709561],"scale":[0.725,1.583360206004418,1.8387304661234987]},{"name":"heckenkirsche_a_part_72_LOD0","mesh":9,"translation":[1.7999999999999998,-0.0,-0.1223821408428677],"rotation":[0.0,-0.01276886303842847,0.0,0.9999184747451694],"scale":[0.7909090909090909,1.5985397631254106,1.998853054491984]},{"name":"heckenkirsche_a_part_73_LOD1","mesh":9,"translation":[1.7999999999999998,-0.0,-0.1223821408428677],"rotation":[0.0,-0.01276886303842847,0.0,0.9999184747451694],"scale":[0.7909090909090909,1.5985397631254106,1.998853054491984]},{"name":"hundsrose_a_part_74_LOD0","mesh":1,"translation":[2.3999999999999995,-0.0,0.01907396187056587],"rotation":[0.0,-0.033951827385237526,0.0,0.9994234705154783],"scale":[0.464,1.0545885421819714,1.1627956571502922]},{"name":"hundsrose_a_part_75_LOD1","mesh":1,"translation":[2.3999999999999995,-0.0,0.01907396187056587],"rotation":[0.0,-0.033951827385237526,0.0,0.9994234705154783],"scale":[0.464,1.0545885421819714,1.1627956571502922]},{"name":"hundsrose_a_part_76_LOD2","mesh":1,"translation":[2.3999999999999995,-0.0,0.01907396187056587],"rotation":[0.0,-0.033951827385237526,0.0,0.9994234705154783],"scale":[0.464,1.0545885421819714,1.1627956571502922]},{"name":"hundsrose_a_part_77_LOD3","mesh":1,"translation":[2.3999999999999995,-0.0,0.01907396187056587],"rotation":[0.0,-0.033951827385237526,0.0,0.9994234705154783],"scale":[0.464,1.0545885421819714,1.1627956571502922]},{"name":"hundsrose_a_part_78_LOD4","mesh":1,"translation":[2.3999999999999995,-0.0,0.01907396187056587],"rotation":[0.0,-0.033951827385237526,0.0,0.9994234705154783],"scale":[0.464,1.0545885421819714,1.1627956571502922]},{"name":"hundsrose_a_part_79_LOD5","mesh":1,"translation":[2.3999999999999995,-0.0,0.01907396187056587],"rotation":[0.0,-0.033951827385237526,0.0,0.9994234705154783],"scale":[0.464,1.0545885421819714,1.1627956571502922]},{"name":"berberitze_a_part_80_LOD0","mesh":5,"translation":[3.0,-0.0,-0.1209974155814135],"rotation":[0.0,-0.07306278701725986,0.0,0.997327343028993],"scale":[0.725,1.641530699469001,1.7197900654299676]},{"name":"berberitze_a_part_81_LOD1","mesh":5,"translation":[3.0,-0.0,-0.1209974155814135],"rotation":[0.0,-0.07306278701725986,0.0,0.997327343028993],"scale":[0.725,1.641530699469001,1.7197900654299676]},{"name":"berberitze_a_part_82_LOD2","mesh":5,"translation":[3.0,-0.0,-0.1209974155814135],"rotation":[0.0,-0.07306278701725986,0.0,0.997327343028993],"scale":[0.725,1.641530699469001,1.7197900654299676]},{"name":"berberitze_a_part_83_LOD3","mesh":5,"translation":[3.0,-0.0,-0.1209974155814135],"rotation":[0.0,-0.07306278701725986,0.0,0.997327343028993],"scale":[0.725,1.641530699469001,1.7197900654299676]},{"name":"berberitze_a_part_84_LOD0","mesh":5,"translation":[-2.7,-0.0,0.23519343954077682],"rotation":[0.0,0.08198153910199087,0.0,0.996633848134042],"scale":[0.775,1.093005047857002,1.8335868715594363]},{"name":"berberitze_a_part_85_LOD1","mesh":5,"translation":[-2.7,-0.0,0.23519343954077682],"rotation":[0.0,0.08198153910199087,0.0,0.996633848134042],"scale":[0.775,1.093005047857002,1.8335868715594363]},{"name":"heckenkirsche_a_part_86_LOD0","mesh":9,"translation":[-2.1,-0.0,-0.24379005431088052],"rotation":[0.0,0.008984271626307262,0.0,0.9999596406172325],"scale":[0.8454545454545453,0.9163142317176227,1.8842635743735714]},{"name":"heckenkirsche_a_part_87_LOD1","mesh":9,"translation":[-2.1,-0.0,-0.24379005431088052],"rotation":[0.0,0.008984271626307262,0.0,0.9999596406172325],"scale":[0.8454545454545453,0.9163142317176227,1.8842635743735714]},{"name":"hundsrose_a_part_88_LOD0","mesh":1,"translation":[-1.5,-0.0,0.11100271727155803],"rotation":[0.0,-0.04776312522577974,0.0,0.9988586906408066],"scale":[0.49599999999999994,0.6465192203632169,1.0894233508512396]},{"name":"hundsrose_a_part_89_LOD1","mesh":1,"translation":[-1.5,-0.0,0.11100271727155803],"rotation":[0.0,-0.04776312522577974,0.0,0.9988586906408066],"scale":[0.49599999999999994,0.6465192203632169,1.0894233508512396]},{"name":"hundsrose_a_part_90_LOD2","mesh":1,"translation":[-1.5,-0.0,0.11100271727155803],"rotation":[0.0,-0.04776312522577974,0.0,0.9988586906408066],"scale":[0.49599999999999994,0.6465192203632169,1.0894233508512396]},{"name":"hundsrose_a_part_91_LOD3","mesh":1,"translation":[-1.5,-0.0,0.11100271727155803],"rotation":[0.0,-0.04776312522577974,0.0,0.9988586906408066],"scale":[0.49599999999999994,0.6465192203632169,1.0894233508512396]},{"name":"berberitze_a_part_92_LOD0","mesh":5,"translation":[-0.8999999999999999,-0.0,0.24759050081255723],"rotation":[0.0,-0.06784502534225385,0.0,0.9976958717646921],"scale":[0.775,0.9589927461307243,1.8550680375197908]},{"name":"berberitze_a_part_93_LOD1","mesh":5,"translation":[-0.8999999999999999,-0.0,0.24759050081255723],"rotation":[0.0,-0.06784502534225385,0.0,0.9976958717646921],"scale":[0.775,0.9589927461307243,1.8550680375197908]},{"name":"berberitze_a_part_94_LOD2","mesh":5,"translation":[-0.8999999999999999,-0.0,0.24759050081255723],"rotation":[0.0,-0.06784502534225385,0.0,0.9976958717646921],"scale":[0.775,0.9589927461307243,1.8550680375197908]},{"name":"berberitze_a_part_95_LOD3","mesh":5,"translation":[-0.8999999999999999,-0.0,0.24759050081255723],"rotation":[0.0,-0.06784502534225385,0.0,0.9976958717646921],"scale":[0.775,0.9589927461307243,1.8550680375197908]},{"name":"berberitze_a_part_96_LOD4","mesh":5,"translation":[-0.8999999999999999,-0.0,0.24759050081255723],"rotation":[0.0,-0.06784502534225385,0.0,0.9976958717646921],"scale":[0.775,0.9589927461307243,1.8550680375197908]},{"name":"berberitze_a_part_97_LOD5","mesh":5,"translation":[-0.8999999999999999,-0.0,0.24759050081255723],"rotation":[0.0,-0.06784502534225385,0.0,0.9976958717646921],"scale":[0.775,0.9589927461307243,1.8550680375197908]},{"name":"heckenkirsche_a_part_98_LOD0","mesh":9,"translation":[-0.30000000000000027,-0.0,-0.04898255258275419],"rotation":[0.0,-0.09269020223653199,0.0,0.9956949966778736],"scale":[0.8454545454545453,1.029382454620076,1.8488029286040852]},{"name":"heckenkirsche_a_part_99_LOD1","mesh":9,"translation":[-0.30000000000000027,-0.0,-0.04898255258275419],"rotation":[0.0,-0.09269020223653199,0.0,0.9956949966778736],"scale":[0.8454545454545453,1.029382454620076,1.8488029286040852]},{"name":"hundsrose_a_part_100_LOD0","mesh":1,"translation":[0.2999999999999998,-0.0,0.16965345580948532],"rotation":[0.0,-0.09022165933023393,0.0,0.9959217098686519],"scale":[0.49599999999999994,0.741840683725134,1.0978925197924183]},{"name":"hundsrose_a_part_101_LOD1","mesh":1,"translation":[0.2999999999999998,-0.0,0.16965345580948532],"rotation":[0.0,-0.09022165933023393,0.0,0.9959217098686519],"scale":[0.49599999999999994,0.741840683725134,1.0978925197924183]},{"name":"hundsrose_a_part_102_LOD2","mesh":1,"translation":[0.2999999999999998,-0.0,0.16965345580948532],"rotation":[0.0,-0.09022165933023393,0.0,0.9959217098686519],"scale":[0.49599999999999994,0.741840683725134,1.0978925197924183]},{"name":"hundsrose_a_part_103_LOD3","mesh":1,"translation":[0.2999999999999998,-0.0,0.16965345580948532],"rotation":[0.0,-0.09022165933023393,0.0,0.9959217098686519],"scale":[0.49599999999999994,0.741840683725134,1.0978925197924183]},{"name":"berberitze_a_part_104_LOD0","mesh":5,"translation":[0.8999999999999999,-0.0,-0.254217808515961],"rotation":[0.0,0.019109102272162205,0.0,0.9998174044346058],"scale":[0.775,1.008571802252159,1.8698122292731292]},{"name":"berberitze_a_part_105_LOD1","mesh":5,"translation":[0.8999999999999999,-0.0,-0.254217808515961],"rotation":[0.0,0.019109102272162205,0.0,0.9998174044346058],"scale":[0.775,1.008571802252159,1.8698122292731292]},{"name":"berberitze_a_part_106_LOD2","mesh":5,"translation":[0.8999999999999999,-0.0,-0.254217808515961],"rotation":[0.0,0.019109102272162205,0.0,0.9998174044346058],"scale":[0.775,1.008571802252159,1.8698122292731292]},{"name":"berberitze_a_part_107_LOD3","mesh":5,"translation":[0.8999999999999999,-0.0,-0.254217808515961],"rotation":[0.0,0.019109102272162205,0.0,0.9998174044346058],"scale":[0.775,1.008571802252159,1.8698122292731292]},{"name":"berberitze_a_part_108_LOD4","mesh":5,"translation":[0.8999999999999999,-0.0,-0.254217808515961],"rotation":[0.0,0.019109102272162205,0.0,0.9998174044346058],"scale":[0.775,1.008571802252159,1.8698122292731292]},{"name":"berberitze_a_part_109_LOD5","mesh":5,"translation":[0.8999999999999999,-0.0,-0.254217808515961],"rotation":[0.0,0.019109102272162205,0.0,0.9998174044346058],"scale":[0.775,1.008571802252159,1.8698122292731292]},{"name":"berberitze_a_part_110_LOD6","mesh":5,"translation":[0.8999999999999999,-0.0,-0.254217808515961],"rotation":[0.0,0.019109102272162205,0.0,0.9998174044346058],"scale":[0.775,1.008571802252159,1.8698122292731292]},{"name":"berberitze_a_part_111_LOD7","mesh":5,"translation":[0.8999999999999999,-0.0,-0.254217808515961],"rotation":[0.0,0.019109102272162205,0.0,0.9998174044346058],"scale":[0.775,1.008571802252159,1.8698122292731292]},{"name":"berberitze_a_part_112_LOD8","mesh":5,"translation":[0.8999999999999999,-0.0,-0.254217808515961],"rotation":[0.0,0.019109102272162205,0.0,0.9998174044346058],"scale":[0.775,1.008571802252159,1.8698122292731292]},{"name":"berberitze_a_part_113_LOD9","mesh":5,"translation":[0.8999999999999999,-0.0,-0.254217808515961],"rotation":[0.0,0.019109102272162205,0.0,0.9998174044346058],"scale":[0.775,1.008571802252159,1.8698122292731292]},{"name":"berberitze_a_part_114_LOD10","mesh":5,"translation":[0.8999999999999999,-0.0,-0.254217808515961],"rotation":[0.0,0.019109102272162205,0.0,0.9998174044346058],"scale":[0.775,1.008571802252159,1.8698122292731292]},{"name":"heckenkirsche_a_part_115_LOD0","mesh":9,"translation":[1.5,-0.0,0.013992904352437774],"rotation":[0.0,-0.028091616948729897,0.0,0.9996053526553396],"scale":[0.8454545454545453,0.9113507047479619,1.751748363037582]},{"name":"heckenkirsche_a_part_116_LOD1","mesh":9,"translation":[1.5,-0.0,0.013992904352437774],"rotation":[0.0,-0.028091616948729897,0.0,0.9996053526553396],"scale":[0.8454545454545453,0.9113507047479619,1.751748363037582]},{"name":"hundsrose_a_part_117_LOD0","mesh":1,"translation":[2.0999999999999996,-0.0,0.18533572117188118],"rotation":[0.0,0.0019690973457159046,0.0,0.9999980613259423],"scale":[0.49599999999999994,0.6359419467553116,1.0407066916930645]},{"name":"hundsrose_a_part_118_LOD1","mesh":1,"translation":[2.0999999999999996,-0.0,0.18533572117188118],"rotation":[0.0,0.0019690973457159046,0.0,0.9999980613259423],"scale":[0.49599999999999994,0.6359419467553116,1.0407066916930645]},{"name":"hundsrose_a_part_119_LOD2","mesh":1,"translation":[2.0999999999999996,-0.0,0.18533572117188118],"rotation":[0.0,0.0019690973457159046,0.0,0.9999980613259423],"scale":[0.49599999999999994,0.6359419467553116,1.0407066916930645]},{"name":"hundsrose_a_part_120_LOD3","mesh":1,"translation":[2.0999999999999996,-0.0,0.18533572117188118],"rotation":[0.0,0.0019690973457159046,0.0,0.9999980613259423],"scale":[0.49599999999999994,0.6359419467553116,1.0407066916930645]},{"name":"hundsrose_a_part_121_LOD4","mesh":1,"translation":[2.0999999999999996,-0.0,0.18533572117188118],"rotation":[0.0,0.0019690973457159046,0.0,0.9999980613259423],"scale":[0.49599999999999994,0.6359419467553116,1.0407066916930645]},{"name":"hundsrose_a_part_122_LOD5","mesh":1,"translation":[2.0999999999999996,-0.0,0.18533572117188118],"rotation":[0.0,0.0019690973457159046,0.0,0.9999980613259423],"scale":[0.49599999999999994,0.6359419467553116,1.0407066916930645]},{"name":"hundsrose_a_part_123_LOD6","mesh":1,"translation":[2.0999999999999996,-0.0,0.18533572117188118],"rotation":[0.0,0.0019690973457159046,0.0,0.9999980613259423],"scale":[0.49599999999999994,0.6359419467553116,1.0407066916930645]},{"name":"hundsrose_a_part_124_LOD7","mesh":1,"translation":[2.0999999999999996,-0.0,0.18533572117188118],"rotation":[0.0,0.0019690973457159046,0.0,0.9999980613259423],"scale":[0.49599999999999994,0.6359419467553116,1.0407066916930645]},{"name":"hundsrose_a_part_125_LOD8","mesh":1,"translation":[2.0999999999999996,-0.0,0.18533572117188118],"rotation":[0.0,0.0019690973457159046,0.0,0.9999980613259423],"scale":[0.49599999999999994,0.6359419467553116,1.0407066916930645]},{"name":"hundsrose_a_part_126_LOD9","mesh":1,"translation":[2.0999999999999996,-0.0,0.18533572117188118],"rotation":[0.0,0.0019690973457159046,0.0,0.9999980613259423],"scale":[0.49599999999999994,0.6359419467553116,1.0407066916930645]},{"name":"berberitze_a_part_127_LOD0","mesh":5,"translation":[2.7,-0.0,0.10995433559265755],"rotation":[0.0,0.05785530266899626,0.0,0.9983249791290804],"scale":[0.775,0.9803656905369948,1.8698827302523704]},{"name":"berberitze_a_part_128_LOD1","mesh":5,"translation":[2.7,-0.0,0.10995433559265755],"rotation":[0.0,0.05785530266899626,0.0,0.9983249791290804],"scale":[0.775,0.9803656905369948,1.8698827302523704]},{"name":"leaf_volume_LOD0","mesh":12},{"name":"leaf_volume_LOD1","mesh":13},{"name":"leaf_volume_LOD2","mesh":14},{"name":"leaf_volume_LOD3","mesh":15},{"name":"leaf_volume_LOD4","mesh":16},{"name":"leaf_volume_LOD5","mesh":17},{"name":"leaf_volume_LOD6","mesh":18},{"name":"leaf_volume_LOD7","mesh":19},{"name":"leaf_volume_LOD8","mesh":20},{"name":"leaf_volume_LOD9","mesh":21},{"name":"leaf_volume_LOD10","mesh":22},{"name":"leaf_volume_LOD11","mesh":23}],"meshes":[{"name":"hundsrose_a_crown_LOD0","primitives":[{"attributes":{"POSITION":0,"NORMAL":1,"TEXCOORD_0":2},"indices":3,"material":1}]},{"name":"hundsrose_a_crown_LOD1","primitives":[{"attributes":{"POSITION":4,"NORMAL":5,"TEXCOORD_0":6},"indices":7,"material":1}]},{"name":"hundsrose_a_crown_LOD2","primitives":[{"attributes":{"POSITION":8,"NORMAL":9,"TEXCOORD_0":10},"indices":11,"material":2}]},{"name":"hundsrose_a_crown_LOD3","primitives":[{"attributes":{"POSITION":12,"NORMAL":13,"TEXCOORD_0":14},"indices":15,"material":2}]},{"name":"berberitze_a_crown_LOD0","primitives":[{"attributes":{"POSITION":16,"NORMAL":17,"TEXCOORD_0":18},"indices":19,"material":4}]},{"name":"berberitze_a_crown_LOD1","primitives":[{"attributes":{"POSITION":20,"NORMAL":21,"TEXCOORD_0":22},"indices":23,"material":4}]},{"name":"berberitze_a_crown_LOD2","primitives":[{"attributes":{"POSITION":24,"NORMAL":25,"TEXCOORD_0":26},"indices":27,"material":5}]},{"name":"berberitze_a_crown_LOD3","primitives":[{"attributes":{"POSITION":28,"NORMAL":29,"TEXCOORD_0":30},"indices":31,"material":5}]},{"name":"heckenkirsche_a_crown_LOD0","primitives":[{"attributes":{"POSITION":32,"NORMAL":33,"TEXCOORD_0":34},"indices":35,"material":7}]},{"name":"heckenkirsche_a_crown_LOD1","primitives":[{"attributes":{"POSITION":36,"NORMAL":37,"TEXCOORD_0":38},"indices":39,"material":7}]},{"name":"heckenkirsche_a_crown_LOD2","primitives":[{"attributes":{"POSITION":40,"NORMAL":41,"TEXCOORD_0":42},"indices":43,"material":8}]},{"name":"heckenkirsche_a_crown_LOD3","primitives":[{"attributes":{"POSITION":44,"NORMAL":45,"TEXCOORD_0":46},"indices":47,"material":8}]},{"name":"weissdornhecke_leaf_volume_LOD0","primitives":[{"attributes":{"POSITION":48,"NORMAL":49,"TEXCOORD_0":50},"indices":51,"material":9}]},{"name":"weissdornhecke_leaf_volume_LOD1","primitives":[{"attributes":{"POSITION":52,"NORMAL":53,"TEXCOORD_0":54},"indices":55,"material":10}]},{"name":"weissdornhecke_leaf_volume_LOD2","primitives":[{"attributes":{"POSITION":56,"NORMAL":57,"TEXCOORD_0":58},"indices":59,"material":11}]},{"name":"weissdornhecke_leaf_volume_LOD3","primitives":[{"attributes":{"POSITION":60,"NORMAL":61,"TEXCOORD_0":62},"indices":63,"material":12}]},{"name":"weissdornhecke_leaf_volume_LOD4","primitives":[{"attributes":{"POSITION":64,"NORMAL":65,"TEXCOORD_0":66},"indices":67,"material":13}]},{"name":"weissdornhecke_leaf_volume_LOD5","primitives":[{"attributes":{"POSITION":68,"NORMAL":69,"TEXCOORD_0":70},"indices":71,"material":14}]},{"name":"weissdornhecke_leaf_volume_LOD6","primitives":[{"attributes":{"POSITION":72,"NORMAL":73,"TEXCOORD_0":74},"indices":75,"material":15}]},{"name":"weissdornhecke_leaf_volume_LOD7","primitives":[{"attributes":{"POSITION":76,"NORMAL":77,"TEXCOORD_0":78},"indices":79,"material":16}]},{"name":"weissdornhecke_leaf_volume_LOD8","primitives":[{"attributes":{"POSITION":80,"NORMAL":81,"TEXCOORD_0":82},"indices":83,"material":17}]},{"name":"weissdornhecke_leaf_volume_LOD9","primitives":[{"attributes":{"POSITION":84,"NORMAL":85,"TEXCOORD_0":86},"indices":87,"material":18}]},{"name":"weissdornhecke_leaf_volume_LOD10","primitives":[{"attributes":{"POSITION":88,"NORMAL":89,"TEXCOORD_0":90},"indices":91,"material":19}]},{"name":"weissdornhecke_leaf_volume_LOD11","primitives":[{"attributes":{"POSITION":92,"NORMAL":93,"TEXCOORD_0":94},"indices":95,"material":20}]}],"buffers":[{"uri":"hundsrose_a.bin","byteLength":494748},{"uri":"berberitze_a.bin","byteLength":494748},{"uri":"heckenkirsche_a.bin","byteLength":494748},{"uri":"weissdornhecke_a_hedge.bin","byteLength":8841000}],"bufferViews":[{"buffer":0,"byteOffset":0,"byteLength":105048,"target":34962},{"buffer":0,"byteOffset":105048,"byteLength":105048,"target":34962},{"buffer":0,"byteOffset":210096,"byteLength":70032,"target":34962},{"buffer":0,"byteOffset":280128,"byteLength":43392,"target":34963},{"buffer":0,"byteOffset":323520,"byteLength":56400,"target":34962},{"buffer":0,"byteOffset":379920,"byteLength":56400,"target":34962},{"buffer":0,"byteOffset":436320,"byteLength":37600,"target":34962},{"buffer":0,"byteOffset":473920,"byteLength":19986,"target":34963},{"buffer":0,"byteOffset":493908,"byteLength":192,"target":34962},{"buffer":0,"byteOffset":494100,"byteLength":192,"target":34962},{"buffer":0,"byteOffset":494292,"byteLength":128,"target":34962},{"buffer":0,"byteOffset":494420,"byteLength":48,"target":34963},{"buffer":0,"byteOffset":494468,"byteLength":96,"target":34962},{"buffer":0,"byteOffset":494564,"byteLength":96,"target":34962},{"buffer":0,"byteOffset":494660,"byteLength":64,"target":34962},{"buffer":0,"byteOffset":494724,"byteLength":24,"target":34963},{"buffer":1,"byteOffset":0,"byteLength":105048,"target":34962},{"buffer":1,"byteOffset":105048,"byteLength":105048,"target":34962},{"buffer":1,"byteOffset":210096,"byteLength":70032,"target":34962},{"buffer":1,"byteOffset":280128,"byteLength":43392,"target":34963},{"buffer":1,"byteOffset":323520,"byteLength":56400,"target":34962},{"buffer":1,"byteOffset":379920,"byteLength":56400,"target":34962},{"buffer":1,"byteOffset":436320,"byteLength":37600,"target":34962},{"buffer":1,"byteOffset":473920,"byteLength":19986,"target":34963},{"buffer":1,"byteOffset":493908,"byteLength":192,"target":34962},{"buffer":1,"byteOffset":494100,"byteLength":192,"target":34962},{"buffer":1,"byteOffset":494292,"byteLength":128,"target":34962},{"buffer":1,"byteOffset":494420,"byteLength":48,"target":34963},{"buffer":1,"byteOffset":494468,"byteLength":96,"target":34962},{"buffer":1,"byteOffset":494564,"byteLength":96,"target":34962},{"buffer":1,"byteOffset":494660,"byteLength":64,"target":34962},{"buffer":1,"byteOffset":494724,"byteLength":24,"target":34963},{"buffer":2,"byteOffset":0,"byteLength":105048,"target":34962},{"buffer":2,"byteOffset":105048,"byteLength":105048,"target":34962},{"buffer":2,"byteOffset":210096,"byteLength":70032,"target":34962},{"buffer":2,"byteOffset":280128,"byteLength":43392,"target":34963},{"buffer":2,"byteOffset":323520,"byteLength":56400,"target":34962},{"buffer":2,"byteOffset":379920,"byteLength":56400,"target":34962},{"buffer":2,"byteOffset":436320,"byteLength":37600,"target":34962},{"buffer":2,"byteOffset":473920,"byteLength":19986,"target":34963},{"buffer":2,"byteOffset":493908,"byteLength":192,"target":34962},{"buffer":2,"byteOffset":494100,"byteLength":192,"target":34962},{"buffer":2,"byteOffset":494292,"byteLength":128,"target":34962},{"buffer":2,"byteOffset":494420,"byteLength":48,"target":34963},{"buffer":2,"byteOffset":494468,"byteLength":96,"target":34962},{"buffer":2,"byteOffset":494564,"byteLength":96,"target":34962},{"buffer":2,"byteOffset":494660,"byteLength":64,"target":34962},{"buffer":2,"byteOffset":494724,"byteLength":24,"target":34963},{"buffer":3,"byteOffset":0,"byteLength":345600,"target":34962},{"buffer":3,"byteOffset":345600,"byteLength":345600,"target":34962},{"buffer":3,"byteOffset":691200,"byteLength":230400,"target":34962},{"buffer":3,"byteOffset":921600,"byteLength":86400,"target":34963},{"buffer":3,"byteOffset":1008000,"byteLength":268800,"target":34962},{"buffer":3,"byteOffset":1276800,"byteLength":268800,"target":34962},{"buffer":3,"byteOffset":1545600,"byteLength":179200,"target":34962},{"buffer":3,"byteOffset":1724800,"byteLength":67200,"target":34963},{"buffer":3,"byteOffset":1792000,"byteLength":264000,"target":34962},{"buffer":3,"byteOffset":2056000,"byteLength":264000,"target":34962},{"buffer":3,"byteOffset":2320000,"byteLength":176000,"target":34962},{"buffer":3,"byteOffset":2496000,"byteLength":66000,"target":34963},{"buffer":3,"byteOffset":2562000,"byteLength":259200,"target":34962},{"buffer":3,"byteOffset":2821200,"byteLength":259200,"target":34962},{"buffer":3,"byteOffset":3080400,"byteLength":172800,"target":34962},{"buffer":3,"byteOffset":3253200,"byteLength":64800,"target":34963},{"buffer":3,"byteOffset":3318000,"byteLength":254400,"target":34962},{"buffer":3,"byteOffset":3572400,"byteLength":254400,"target":34962},{"buffer":3,"byteOffset":3826800,"byteLength":169600,"target":34962},{"buffer":3,"byteOffset":3996400,"byteLength":63600,"target":34963},{"buffer":3,"byteOffset":4060000,"byteLength":249600,"target":34962},{"buffer":3,"byteOffset":4309600,"byteLength":249600,"target":34962},{"buffer":3,"byteOffset":4559200,"byteLength":166400,"target":34962},{"buffer":3,"byteOffset":4725600,"byteLength":62400,"target":34963},{"buffer":3,"byteOffset":4788000,"byteLength":244800,"target":34962},{"buffer":3,"byteOffset":5032800,"byteLength":244800,"target":34962},{"buffer":3,"byteOffset":5277600,"byteLength":163200,"target":34962},{"buffer":3,"byteOffset":5440800,"byteLength":61200,"target":34963},{"buffer":3,"byteOffset":5502000,"byteLength":240000,"target":34962},{"buffer":3,"byteOffset":5742000,"byteLength":240000,"target":34962},{"buffer":3,"byteOffset":5982000,"byteLength":160000,"target":34962},{"buffer":3,"byteOffset":6142000,"byteLength":60000,"target":34963},{"buffer":3,"byteOffset":6202000,"byteLength":235200,"target":34962},{"buffer":3,"byteOffset":6437200,"byteLength":235200,"target":34962},{"buffer":3,"byteOffset":6672400,"byteLength":156800,"target":34962},{"buffer":3,"byteOffset":6829200,"byteLength":58800,"target":34963},{"buffer":3,"byteOffset":6888000,"byteLength":230400,"target":34962},{"buffer":3,"byteOffset":7118400,"byteLength":230400,"target":34962},{"buffer":3,"byteOffset":7348800,"byteLength":153600,"target":34962},{"buffer":3,"byteOffset":7502400,"byteLength":57600,"target":34963},{"buffer":3,"byteOffset":7560000,"byteLength":223200,"target":34962},{"buffer":3,"byteOffset":7783200,"byteLength":223200,"target":34962},{"buffer":3,"byteOffset":8006400,"byteLength":148800,"target":34962},{"buffer":3,"byteOffset":8155200,"byteLength":55800,"target":34963},{"buffer":3,"byteOffset":8211000,"byteLength":216000,"target":34962},{"buffer":3,"byteOffset":8427000,"byteLength":216000,"target":34962},{"buffer":3,"byteOffset":8643000,"byteLength":144000,"target":34962},{"buffer":3,"byteOffset":8787000,"byteLength":54000,"target":34963}],"accessors":[{"bufferView":0,"componentType":5126,"count":8754,"type":"VEC3","min":[-0.9375,0.0,-0.6888268044683518],"max":[0.9375,1.5000000000000002,0.6888268044683518]},{"bufferView":1,"componentType":5126,"count":8754,"type":"VEC3","min":[-0.9996474385261536,-0.9998162388801575,-0.9986070990562439],"max":[0.9991918206214905,0.9999634027481079,0.9998778700828552]},{"bufferView":2,"componentType":5126,"count":8754,"type":"VEC2"},{"bufferView":3,"componentType":5123,"count":21696,"type":"SCALAR","min":[0],"max":[8753]},{"bufferView":4,"componentType":5126,"count":4700,"type":"VEC3","min":[-0.935177803286538,2.5058921391079027e-05,-0.6709294058316859],"max":[0.949319072105593,1.5000679081827781,0.6704794961500986]},{"bufferView":5,"componentType":5126,"count":4700,"type":"VEC3","min":[-0.9976518154144287,-0.9994509816169739,-0.9989542961120605],"max":[0.9988946318626404,0.9999633431434631,0.9998062252998352]},{"bufferView":6,"componentType":5126,"count":4700,"type":"VEC2"},{"bufferView":7,"componentType":5123,"count":9993,"type":"SCALAR","min":[0],"max":[4699]},{"bufferView":8,"componentType":5126,"count":16,"type":"VEC3","min":[-1.03125,0,-1.03125],"max":[1.03125,1.5,1.03125]},{"bufferView":9,"componentType":5126,"count":16,"type":"VEC3","min":[-1.0,0,-0.7071067811865475],"max":[-0.0,0,1.0]},{"bufferView":10,"componentType":5126,"count":16,"type":"VEC2"},{"bufferView":11,"componentType":5123,"count":24,"type":"SCALAR","min":[0],"max":[15]},{"bufferView":12,"componentType":5126,"count":8,"type":"VEC3","min":[-1.03125,0,-1.03125],"max":[1.03125,1.5,1.03125]},{"bufferView":13,"componentType":5126,"count":8,"type":"VEC3","min":[-1.0,0,6.123233995736766e-17],"max":[-0.0,0,1.0]},{"bufferView":14,"componentType":5126,"count":8,"type":"VEC2"},{"bufferView":15,"componentType":5123,"count":12,"type":"SCALAR","min":[0],"max":[7]},{"bufferView":16,"componentType":5126,"count":8754,"type":"VEC3","min":[-0.6,0.0,-0.44084915485974513],"max":[0.6,1.0,0.44084915485974513]},{"bufferView":17,"componentType":5126,"count":8754,"type":"VEC3","min":[-0.9996581077575684,-0.9998005628585815,-0.9986739158630371],"max":[0.9992280602455139,0.9999603033065796,0.9998832941055298]},{"bufferView":18,"componentType":5126,"count":8754,"type":"VEC2"},{"bufferView":19,"componentType":5123,"count":21696,"type":"SCALAR","min":[0],"max":[8753]},{"bufferView":20,"componentType":5126,"count":4700,"type":"VEC3","min":[-0.5985137941033843,1.6705947594052684e-05,-0.429394819732279],"max":[0.6075642061475794,1.000045272121852,0.42910687753606314]},{"bufferView":21,"componentType":5126,"count":4700,"type":"VEC3","min":[-0.9976669549942017,-0.99940425157547,-0.9989551305770874],"max":[0.9989135265350342,0.9999603033065796,0.9998118281364441]},{"bufferView":22,"componentType":5126,"count":4700,"type":"VEC2"},{"bufferView":23,"componentType":5123,"count":9993,"type":"SCALAR","min":[0],"max":[4699]},{"bufferView":24,"componentType":5126,"count":16,"type":"VEC3","min":[-0.66,0,-0.66],"max":[0.66,1.0,0.66]},{"bufferView":25,"componentType":5126,"count":16,"type":"VEC3","min":[-1.0,0,-0.7071067811865475],"max":[-0.0,0,1.0]},{"bufferView":26,"componentType":5126,"count":16,"type":"VEC2"},{"bufferView":27,"componentType":5123,"count":24,"type":"SCALAR","min":[0],"max":[15]},{"bufferView":28,"componentType":5126,"count":8,"type":"VEC3","min":[-0.66,0,-0.66],"max":[0.66,1.0,0.66]},{"bufferView":29,"componentType":5126,"count":8,"type":"VEC3","min":[-1.0,0,6.123233995736766e-17],"max":[-0.0,0,1.0]},{"bufferView":30,"componentType":5126,"count":8,"type":"VEC2"},{"bufferView":31,"componentType":5123,"count":12,"type":"SCALAR","min":[0],"max":[7]},{"bufferView":32,"componentType":5126,"count":8754,"type":"VEC3","min":[-0.55,0.0,-0.4041117252880997],"max":[0.55,1.0,0.4041117252880997]},{"bufferView":33,"componentType":5126,"count":8754,"type":"VEC3","min":[-0.9996779561042786,-0.9997625946998596,-0.9988284111022949],"max":[0.999296247959137,0.9999527335166931,0.9998937249183655]},{"bufferView":34,"componentType":5126,"count":8754,"type":"VEC2"},{"bufferView":35,"componentType":5123,"count":21696,"type":"SCALAR","min":[0],"max":[8753]},{"bufferView":36,"componentType":5126,"count":4700,"type":"VEC3","min":[-0.5486376445947689,1.6705947594052684e-05,-0.39361191808792245],"max":[0.5569338556352812,1.000045272121852,0.3933479710747246]},{"bufferView":37,"componentType":5126,"count":4700,"type":"VEC3","min":[-0.9976954460144043,-0.999291181564331,-0.9989568591117859],"max":[0.998948872089386,0.9999527335166931,0.9998225569725037]},{"bufferView":38,"componentType":5126,"count":4700,"type":"VEC2"},{"bufferView":39,"componentType":5123,"count":9993,"type":"SCALAR","min":[0],"max":[4699]},{"bufferView":40,"componentType":5126,"count":16,"type":"VEC3","min":[-0.6050000000000001,0,-0.6050000000000001],"max":[0.6050000000000001,1.0,0.6050000000000001]},{"bufferView":41,"componentType":5126,"count":16,"type":"VEC3","min":[-1.0,0,-0.7071067811865475],"max":[-0.0,0,1.0]},{"bufferView":42,"componentType":5126,"count":16,"type":"VEC2"},{"bufferView":43,"componentType":5123,"count":24,"type":"SCALAR","min":[0],"max":[15]},{"bufferView":44,"componentType":5126,"count":8,"type":"VEC3","min":[-0.6050000000000001,0,-0.6050000000000001],"max":[0.6050000000000001,1.0,0.6050000000000001]},{"bufferView":45,"componentType":5126,"count":8,"type":"VEC3","min":[-1.0,0,6.123233995736766e-17],"max":[-0.0,0,1.0]},{"bufferView":46,"componentType":5126,"count":8,"type":"VEC2"},{"bufferView":47,"componentType":5123,"count":12,"type":"SCALAR","min":[0],"max":[7]},{"bufferView":48,"componentType":5126,"count":28800,"type":"VEC3","min":[-3.1008673854195394,0.03154667169606344,-0.9305162089733711],"max":[3.118198652976902,1.657694626133971,0.9284159775723674]},{"bufferView":49,"componentType":5126,"count":28800,"type":"VEC3","min":[-1.0,-0.14998388758318573,-1.0],"max":[1.0,1.0,1.0]},{"bufferView":50,"componentType":5126,"count":28800,"type":"VEC2"},{"bufferView":51,"componentType":5123,"count":43200,"type":"SCALAR","min":[0],"max":[28799]},{"bufferView":52,"componentType":5126,"count":22400,"type":"VEC3","min":[-3.2288697096552226,-0.059857571069846016,-1.0228013761230623],"max":[3.219692204279157,1.7246944202707033,1.0199949945051499]},{"bufferView":53,"componentType":5126,"count":22400,"type":"VEC3","min":[-1.0,-0.14994682882673924,-1.0],"max":[1.0,1.0,1.0]},{"bufferView":54,"componentType":5126,"count":22400,"type":"VEC2"},{"bufferView":55,"componentType":5123,"count":33600,"type":"SCALAR","min":[0],"max":[22399]},{"bufferView":56,"componentType":5126,"count":22000,"type":"VEC3","min":[-3.3019512382961085,-0.12061853199914942,-1.1190960735689235],"max":[3.277893395362068,1.764295989035797,1.1205652083906457]},{"bufferView":57,"componentType":5126,"count":22000,"type":"VEC3","min":[-1.0,-0.14995141185721936,-1.0],"max":[1.0,1.0,1.0]},{"bufferView":58,"componentType":5126,"count":22000,"type":"VEC2"},{"bufferView":59,"componentType":5123,"count":33000,"type":"SCALAR","min":[0],"max":[21999]},{"bufferView":60,"componentType":5126,"count":21600,"type":"VEC3","min":[-3.4077619414629754,-0.174050021349771,-1.227270201681417],"max":[3.4158741666332824,1.8468399589160096,1.2275661402139533]},{"bufferView":61,"componentType":5126,"count":21600,"type":"VEC3","min":[-1.0,-0.14993954374002455,-1.0],"max":[1.0,1.0,1.0]},{"bufferView":62,"componentType":5126,"count":21600,"type":"VEC2"},{"bufferView":63,"componentType":5123,"count":32400,"type":"SCALAR","min":[0],"max":[21599]},{"bufferView":64,"componentType":5126,"count":21200,"type":"VEC3","min":[-3.538213769448374,-0.28073540275955744,-1.380806463946096],"max":[3.574271592959959,1.9260461134355238,1.3626790988147421]},{"bufferView":65,"componentType":5126,"count":21200,"type":"VEC3","min":[-1.0,-0.14988146085978601,-1.0],"max":[1.0,1.0,1.0]},{"bufferView":66,"componentType":5126,"count":21200,"type":"VEC2"},{"bufferView":67,"componentType":5123,"count":31800,"type":"SCALAR","min":[0],"max":[21199]},{"bufferView":68,"componentType":5126,"count":20800,"type":"VEC3","min":[-3.726386446790163,-0.4149658655414477,-1.5218147081032596],"max":[3.7292430642256615,2.0711803581631054,1.5528880951214736]},{"bufferView":69,"componentType":5126,"count":20800,"type":"VEC3","min":[-1.0,-0.14999106227023987,-1.0],"max":[1.0,1.0,1.0]},{"bufferView":70,"componentType":5126,"count":20800,"type":"VEC2"},{"bufferView":71,"componentType":5123,"count":31200,"type":"SCALAR","min":[0],"max":[20799]},{"bufferView":72,"componentType":5126,"count":20400,"type":"VEC3","min":[-3.9429615541256986,-0.5436626785355952,-1.7396646607751487],"max":[3.9561545373119293,2.2089570546984505,1.7701110692467887]},{"bufferView":73,"componentType":5126,"count":20400,"type":"VEC3","min":[-1.0,-0.14985288475831632,-1.0],"max":[1.0,1.0,1.0]},{"bufferView":74,"componentType":5126,"count":20400,"type":"VEC2"},{"bufferView":75,"componentType":5123,"count":30600,"type":"SCALAR","min":[0],"max":[20399]},{"bufferView":76,"componentType":5126,"count":20000,"type":"VEC3","min":[-4.237104505491551,-0.730866808013696,-2.0651480406345017],"max":[4.216782409387841,2.4275446616301974,2.0143309630210484]},{"bufferView":77,"componentType":5126,"count":20000,"type":"VEC3","min":[-1.0,-0.14996211345591157,-1.0],"max":[1.0,1.0,1.0]},{"bufferView":78,"componentType":5126,"count":20000,"type":"VEC2"},{"bufferView":79,"componentType":5123,"count":30000,"type":"SCALAR","min":[0],"max":[19999]},{"bufferView":80,"componentType":5126,"count":19600,"type":"VEC3","min":[-4.505394204774637,-0.9361687805793377,-2.3003438016440105],"max":[4.5134763004618454,2.5859551744978004,2.3111808538814076]},{"bufferView":81,"componentType":5126,"count":19600,"type":"VEC3","min":[-1.0,-0.1499891018503991,-1.0],"max":[1.0,1.0,1.0]},{"bufferView":82,"componentType":5126,"count":19600,"type":"VEC2"},{"bufferView":83,"componentType":5123,"count":29400,"type":"SCALAR","min":[0],"max":[19599]},{"bufferView":84,"componentType":5126,"count":19200,"type":"VEC3","min":[-4.821193370147605,-1.1679666009985392,-2.5918544596470046],"max":[4.83829717972332,2.8380107399498526,2.5648530405904784]},{"bufferView":85,"componentType":5126,"count":19200,"type":"VEC3","min":[-1.0,-0.14984609840179272,-1.0],"max":[1.0,1.0,1.0]},{"bufferView":86,"componentType":5126,"count":19200,"type":"VEC2"},{"bufferView":87,"componentType":5123,"count":28800,"type":"SCALAR","min":[0],"max":[19199]},{"bufferView":88,"componentType":5126,"count":18600,"type":"VEC3","min":[-5.159527746138812,-1.3936504729137245,-2.971558642572064],"max":[5.1362127863459115,3.120212853096826,2.9538796659161872]},{"bufferView":89,"componentType":5126,"count":18600,"type":"VEC3","min":[-1.0,-0.14975353280766243,-1.0],"max":[1.0,1.0,1.0]},{"bufferView":90,"componentType":5126,"count":18600,"type":"VEC2"},{"bufferView":91,"componentType":5123,"count":27900,"type":"SCALAR","min":[0],"max":[18599]},{"bufferView":92,"componentType":5126,"count":18000,"type":"VEC3","min":[-5.548758824980773,-1.7064207369694837,-3.3851462864557544],"max":[5.631063190834068,3.351971255392917,3.4315045731647]},{"bufferView":93,"componentType":5126,"count":18000,"type":"VEC3","min":[-1.0,-0.14984268635848358,-1.0],"max":[1.0,1.0,1.0]},{"bufferView":94,"componentType":5126,"count":18000,"type":"VEC2"},{"bufferView":95,"componentType":5123,"count":27000,"type":"SCALAR","min":[0],"max":[17999]}],"images":[{"uri":"textures/poly_searsia_lucida.png"},{"uri":"textures/poly_searsia_lucida.png"},{"uri":"impostors/hundsrose_a_summer.png"},{"uri":"textures/poly_searsia_lucida.png"},{"uri":"textures/poly_searsia_lucida.png"},{"uri":"impostors/berberitze_a_summer.png"},{"uri":"textures/poly_searsia_lucida.png"},{"uri":"textures/poly_searsia_lucida.png"},{"uri":"impostors/heckenkirsche_a_summer.png"},{"uri":"textures/poly_searsia_lucida.png"}],"samplers":[{"magFilter":9729,"minFilter":9987,"wrapS":10497,"wrapT":10497},{"magFilter":9729,"minFilter":9987,"wrapS":10497,"wrapT":10497},{"magFilter":9729,"minFilter":9987,"wrapS":10497,"wrapT":10497},{"magFilter":9729,"minFilter":9987,"wrapS":10497,"wrapT":10497}],"textures":[{"source":0,"sampler":0},{"source":1,"sampler":0},{"source":2,"sampler":0},{"source":3,"sampler":1},{"source":4,"sampler":1},{"source":5,"sampler":1},{"source":6,"sampler":2},{"source":7,"sampler":2},{"source":8,"sampler":2},{"source":9,"sampler":3}],"materials":[{"name":"hundsrose_a_bark","pbrMetallicRoughness":{"baseColorFactor":[0.82,0.82,0.82,1.0],"baseColorTexture":{"index":0},"metallicFactor":0.0,"roughnessFactor":0.91},"doubleSided":false},{"name":"hundsrose_a_foliage","pbrMetallicRoughness":{"baseColorFactor":[0.5550980392156862,1.0,0.7150980392156863,1.0],"baseColorTexture":{"index":1},"metallicFactor":0.0,"roughnessFactor":0.78},"doubleSided":true,"alphaMode":"MASK","alphaCutoff":0.18},{"name":"hundsrose_a_whole_tree_impostor","pbrMetallicRoughness":{"baseColorFactor":[1,1,1,1],"baseColorTexture":{"index":2},"metallicFactor":0.0,"roughnessFactor":0.92},"doubleSided":true,"alphaMode":"MASK","alphaCutoff":0.18},{"name":"berberitze_a_bark","pbrMetallicRoughness":{"baseColorFactor":[0.82,0.82,0.82,1.0],"baseColorTexture":{"index":3},"metallicFactor":0.0,"roughnessFactor":0.91},"doubleSided":false},{"name":"berberitze_a_foliage","pbrMetallicRoughness":{"baseColorFactor":[0.5754901960784313,1.0,0.7354901960784314,1.0],"baseColorTexture":{"index":4},"metallicFactor":0.0,"roughnessFactor":0.78},"doubleSided":true,"alphaMode":"MASK","alphaCutoff":0.18},{"name":"berberitze_a_whole_tree_impostor","pbrMetallicRoughness":{"baseColorFactor":[1,1,1,1],"baseColorTexture":{"index":5},"metallicFactor":0.0,"roughnessFactor":0.92},"doubleSided":true,"alphaMode":"MASK","alphaCutoff":0.18},{"name":"heckenkirsche_a_bark","pbrMetallicRoughness":{"baseColorFactor":[0.82,0.82,0.82,1.0],"baseColorTexture":{"index":6},"metallicFactor":0.0,"roughnessFactor":0.91},"doubleSided":false},{"name":"heckenkirsche_a_foliage","pbrMetallicRoughness":{"baseColorFactor":[0.6209803921568627,1.0,0.7809803921568628,1.0],"baseColorTexture":{"index":7},"metallicFactor":0.0,"roughnessFactor":0.78},"doubleSided":true,"alphaMode":"MASK","alphaCutoff":0.18},{"name":"heckenkirsche_a_whole_tree_impostor","pbrMetallicRoughness":{"baseColorFactor":[1,1,1,1],"baseColorTexture":{"index":8},"metallicFactor":0.0,"roughnessFactor":0.92},"doubleSided":true,"alphaMode":"MASK","alphaCutoff":0.18},{"name":"weissdornhecke_individual_leaves_LOD0","pbrMetallicRoughness":{"baseColorFactor":[0.58,0.96,0.66,1.0],"baseColorTexture":{"index":9},"metallicFactor":0.0,"roughnessFactor":0.82},"doubleSided":true,"alphaMode":"MASK","alphaCutoff":0.18},{"name":"weissdornhecke_individual_leaves_LOD1","pbrMetallicRoughness":{"baseColorFactor":[0.58,0.96,0.66,1.0],"baseColorTexture":{"index":9},"metallicFactor":0.0,"roughnessFactor":0.82},"doubleSided":true,"alphaMode":"MASK","alphaCutoff":0.08},{"name":"weissdornhecke_individual_leaves_LOD2","pbrMetallicRoughness":{"baseColorFactor":[0.58,0.96,0.66,1.0],"baseColorTexture":{"index":9},"metallicFactor":0.0,"roughnessFactor":0.82},"doubleSided":true,"alphaMode":"MASK","alphaCutoff":0.065},{"name":"weissdornhecke_individual_leaves_LOD3","pbrMetallicRoughness":{"baseColorFactor":[0.58,0.96,0.66,1.0],"baseColorTexture":{"index":9},"metallicFactor":0.0,"roughnessFactor":0.82},"doubleSided":true,"alphaMode":"MASK","alphaCutoff":0.055},{"name":"weissdornhecke_individual_leaves_LOD4","pbrMetallicRoughness":{"baseColorFactor":[0.58,0.96,0.66,1.0],"baseColorTexture":{"index":9},"metallicFactor":0.0,"roughnessFactor":0.82},"doubleSided":true,"alphaMode":"MASK","alphaCutoff":0.045},{"name":"weissdornhecke_individual_leaves_LOD5","pbrMetallicRoughness":{"baseColorFactor":[0.58,0.96,0.66,1.0],"baseColorTexture":{"index":9},"metallicFactor":0.0,"roughnessFactor":0.82},"doubleSided":true,"alphaMode":"MASK","alphaCutoff":0.038},{"name":"weissdornhecke_individual_leaves_LOD6","pbrMetallicRoughness":{"baseColorFactor":[0.58,0.96,0.66,1.0],"baseColorTexture":{"index":9},"metallicFactor":0.0,"roughnessFactor":0.82},"doubleSided":true,"alphaMode":"MASK","alphaCutoff":0.032},{"name":"weissdornhecke_individual_leaves_LOD7","pbrMetallicRoughness":{"baseColorFactor":[0.58,0.96,0.66,1.0],"baseColorTexture":{"index":9},"metallicFactor":0.0,"roughnessFactor":0.82},"doubleSided":true,"alphaMode":"MASK","alphaCutoff":0.027},{"name":"weissdornhecke_individual_leaves_LOD8","pbrMetallicRoughness":{"baseColorFactor":[0.58,0.96,0.66,1.0],"baseColorTexture":{"index":9},"metallicFactor":0.0,"roughnessFactor":0.82},"doubleSided":true,"alphaMode":"MASK","alphaCutoff":0.023},{"name":"weissdornhecke_individual_leaves_LOD9","pbrMetallicRoughness":{"baseColorFactor":[0.58,0.96,0.66,1.0],"baseColorTexture":{"index":9},"metallicFactor":0.0,"roughnessFactor":0.82},"doubleSided":true,"alphaMode":"MASK","alphaCutoff":0.02},{"name":"weissdornhecke_individual_leaves_LOD10","pbrMetallicRoughness":{"baseColorFactor":[0.58,0.96,0.66,1.0],"baseColorTexture":{"index":9},"metallicFactor":0.0,"roughnessFactor":0.82},"doubleSided":true,"alphaMode":"MASK","alphaCutoff":0.017},{"name":"weissdornhecke_individual_leaves_LOD11","pbrMetallicRoughness":{"baseColorFactor":[0.58,0.96,0.66,1.0],"baseColorTexture":{"index":9},"metallicFactor":0.0,"roughnessFactor":0.82},"doubleSided":true,"alphaMode":"MASK","alphaCutoff":0.015}]}