{"asset":{"version":"2.0","generator":"Connected Rails CC0 tree importer","copyright":"Mantissa and Poly Haven source models: CC0 1.0; optimisation: Connected Rails"},"scene":0,"scenes":[{"nodes":[0,1,2,3]}],"nodes":[{"name":"crown_LOD0","mesh":0},{"name":"crown_LOD1","mesh":1},{"name":"crown_LOD2","mesh":2},{"name":"crown_LOD3","mesh":3}],"meshes":[{"name":"crown_LOD0","primitives":[{"attributes":{"POSITION":0,"NORMAL":1,"TEXCOORD_0":2},"indices":3,"material":0},{"attributes":{"POSITION":4,"NORMAL":5,"TEXCOORD_0":6},"indices":7,"material":1}]},{"name":"crown_LOD1","primitives":[{"attributes":{"POSITION":8,"NORMAL":9,"TEXCOORD_0":10},"indices":11,"material":0},{"attributes":{"POSITION":12,"NORMAL":13,"TEXCOORD_0":14},"indices":15,"material":1}]},{"name":"crown_LOD2","primitives":[{"attributes":{"POSITION":16,"NORMAL":17,"TEXCOORD_0":18},"indices":19,"material":2}]},{"name":"crown_LOD3","primitives":[{"attributes":{"POSITION":20,"NORMAL":21,"TEXCOORD_0":22},"indices":23,"material":2}]}],"buffers":[{"uri":"weisstanne_a.bin","byteLength":5239872}],"bufferViews":[{"buffer":0,"byteOffset":0,"byteLength":493800,"target":34962},{"buffer":0,"byteOffset":493800,"byteLength":493800,"target":34962},{"buffer":0,"byteOffset":987600,"byteLength":329200,"target":34962},{"buffer":0,"byteOffset":1316800,"byteLength":477492,"target":34963},{"buffer":0,"byteOffset":1794292,"byteLength":514752,"target":34962},{"buffer":0,"byteOffset":2309044,"byteLength":514752,"target":34962},{"buffer":0,"byteOffset":2823796,"byteLength":343168,"target":34962},{"buffer":0,"byteOffset":3166964,"byteLength":210816,"target":34963},{"buffer":0,"byteOffset":3377780,"byteLength":79344,"target":34962},{"buffer":0,"byteOffset":3457124,"byteLength":79344,"target":34962},{"buffer":0,"byteOffset":3536468,"byteLength":52896,"target":34962},{"buffer":0,"byteOffset":3589364,"byteLength":66180,"target":34963},{"buffer":0,"byteOffset":3655544,"byteLength":514752,"target":34962},{"buffer":0,"byteOffset":4170296,"byteLength":514752,"target":34962},{"buffer":0,"byteOffset":4685048,"byteLength":343168,"target":34962},{"buffer":0,"byteOffset":5028216,"byteLength":210816,"target":34963},{"buffer":0,"byteOffset":5239032,"byteLength":192,"target":34962},{"buffer":0,"byteOffset":5239224,"byteLength":192,"target":34962},{"buffer":0,"byteOffset":5239416,"byteLength":128,"target":34962},{"buffer":0,"byteOffset":5239544,"byteLength":48,"target":34963},{"buffer":0,"byteOffset":5239592,"byteLength":96,"target":34962},{"buffer":0,"byteOffset":5239688,"byteLength":96,"target":34962},{"buffer":0,"byteOffset":5239784,"byteLength":64,"target":34962},{"buffer":0,"byteOffset":5239848,"byteLength":24,"target":34963}],"accessors":[{"bufferView":0,"componentType":5126,"count":41150,"type":"VEC3","min":[-4.003885088003731,0.0,-4.4631177397534705],"max":[4.0221417828408645,26.927649210179386,4.452187654301637]},{"bufferView":1,"componentType":5126,"count":41150,"type":"VEC3","min":[-0.9999610185623169,-0.9977492690086365,-0.9999814033508301],"max":[0.9999955296516418,0.9999898076057434,0.9999950528144836]},{"bufferView":2,"componentType":5126,"count":41150,"type":"VEC2"},{"bufferView":3,"componentType":5123,"count":238746,"type":"SCALAR","min":[0],"max":[41149]},{"bufferView":4,"componentType":5126,"count":42896,"type":"VEC3","min":[-4.924312591552734,7.972969055175781,-5.320000171661377],"max":[4.924312591552734,28.0,5.320000171661377]},{"bufferView":5,"componentType":5126,"count":42896,"type":"VEC3","min":[-0.9999921321868896,-0.9999992251396179,-0.9999749064445496],"max":[0.9999784231185913,0.9999023079872131,0.9997899532318115]},{"bufferView":6,"componentType":5126,"count":42896,"type":"VEC2"},{"bufferView":7,"componentType":5123,"count":105408,"type":"SCALAR","min":[0],"max":[42895]},{"bufferView":8,"componentType":5126,"count":6612,"type":"VEC3","min":[-4.004859856839037,-0.0015373333360233527,-4.4631177397534705],"max":[4.022188478353933,26.927649210179386,4.452187654301637]},{"bufferView":9,"componentType":5126,"count":6612,"type":"VEC3","min":[-0.9999736547470093,-0.9978646636009216,-0.9998664855957031],"max":[0.9999755620956421,0.9998202919960022,0.9999821782112122]},{"bufferView":10,"componentType":5126,"count":6612,"type":"VEC2"},{"bufferView":11,"componentType":5123,"count":33090,"type":"SCALAR","min":[0],"max":[6611]},{"bufferView":12,"componentType":5126,"count":42896,"type":"VEC3","min":[-4.924312591552734,7.972969055175781,-5.320000171661377],"max":[4.924312591552734,28.0,5.320000171661377]},{"bufferView":13,"componentType":5126,"count":42896,"type":"VEC3","min":[-0.9999921321868896,-0.9999992251396179,-0.9999749064445496],"max":[0.9999784231185913,0.9999023079872131,0.9997899532318115]},{"bufferView":14,"componentType":5126,"count":42896,"type":"VEC2"},{"bufferView":15,"componentType":5123,"count":105408,"type":"SCALAR","min":[0],"max":[42895]},{"bufferView":16,"componentType":5126,"count":16,"type":"VEC3","min":[-5.852000000000001,0,-5.852000000000001],"max":[5.852000000000001,28.0,5.852000000000001]},{"bufferView":17,"componentType":5126,"count":16,"type":"VEC3","min":[-1.0,0,-0.7071067811865475],"max":[-0.0,0,1.0]},{"bufferView":18,"componentType":5126,"count":16,"type":"VEC2"},{"bufferView":19,"componentType":5123,"count":24,"type":"SCALAR","min":[0],"max":[15]},{"bufferView":20,"componentType":5126,"count":8,"type":"VEC3","min":[-5.852000000000001,0,-5.852000000000001],"max":[5.852000000000001,28.0,5.852000000000001]},{"bufferView":21,"componentType":5126,"count":8,"type":"VEC3","min":[-1.0,0,6.123233995736766e-17],"max":[-0.0,0,1.0]},{"bufferView":22,"componentType":5126,"count":8,"type":"VEC2"},{"bufferView":23,"componentType":5123,"count":12,"type":"SCALAR","min":[0],"max":[7]}],"samplers":[{"magFilter":9729,"minFilter":9987,"wrapS":10497,"wrapT":10497}],"images":[{"uri":"textures/poly_fir_bark.jpg"},{"uri":"textures/poly_fir_foliage.png"},{"uri":"impostors/weisstanne_a_summer.png"}],"textures":[{"source":0,"sampler":0},{"source":1,"sampler":0},{"source":2,"sampler":0}],"materials":[{"name":"bark","pbrMetallicRoughness":{"baseColorFactor":[0.82,0.82,0.82,1.0],"baseColorTexture":{"index":0},"metallicFactor":0.0,"roughnessFactor":0.91},"doubleSided":false},{"name":"foliage","pbrMetallicRoughness":{"baseColorFactor":[0.5570588235294117,1.0,0.7170588235294117,1.0],"baseColorTexture":{"index":1},"metallicFactor":0.0,"roughnessFactor":0.78},"doubleSided":true,"alphaMode":"MASK","alphaCutoff":0.18},{"name":"whole_tree_impostor","pbrMetallicRoughness":{"baseColorFactor":[1,1,1,1],"baseColorTexture":{"index":2},"metallicFactor":0.0,"roughnessFactor":0.92},"doubleSided":true,"alphaMode":"MASK","alphaCutoff":0.18}]}