{"asset":{"version":"2.0","generator":"Connected Rails CC0 tree importer","copyright":"Mantissa and Poly Haven source models: CC0 1.0; optimisation: Connected Rails"},"scene":0,"scenes":[{"nodes":[0,1,2,3]}],"nodes":[{"name":"crown_LOD0","mesh":0},{"name":"crown_LOD1","mesh":1},{"name":"crown_LOD2","mesh":2},{"name":"crown_LOD3","mesh":3}],"meshes":[{"name":"crown_LOD0","primitives":[{"attributes":{"POSITION":0,"NORMAL":1,"TEXCOORD_0":2},"indices":3,"material":0},{"attributes":{"POSITION":4,"NORMAL":5,"TEXCOORD_0":6},"indices":7,"material":1}]},{"name":"crown_LOD1","primitives":[{"attributes":{"POSITION":8,"NORMAL":9,"TEXCOORD_0":10},"indices":11,"material":0},{"attributes":{"POSITION":12,"NORMAL":13,"TEXCOORD_0":14},"indices":15,"material":1}]},{"name":"crown_LOD2","primitives":[{"attributes":{"POSITION":16,"NORMAL":17,"TEXCOORD_0":18},"indices":19,"material":2}]},{"name":"crown_LOD3","primitives":[{"attributes":{"POSITION":20,"NORMAL":21,"TEXCOORD_0":22},"indices":23,"material":2}]}],"buffers":[{"uri":"weissdorn_c.bin","byteLength":6116364}],"bufferViews":[{"buffer":0,"byteOffset":0,"byteLength":218148,"target":34962},{"buffer":0,"byteOffset":218148,"byteLength":218148,"target":34962},{"buffer":0,"byteOffset":436296,"byteLength":145432,"target":34962},{"buffer":0,"byteOffset":581728,"byteLength":72000,"target":34963},{"buffer":0,"byteOffset":653728,"byteLength":1049184,"target":34962},{"buffer":0,"byteOffset":1702912,"byteLength":1049184,"target":34962},{"buffer":0,"byteOffset":2752096,"byteLength":699456,"target":34962},{"buffer":0,"byteOffset":3451552,"byteLength":1199832,"target":34963},{"buffer":0,"byteOffset":4651384,"byteLength":43872,"target":34962},{"buffer":0,"byteOffset":4695256,"byteLength":43872,"target":34962},{"buffer":0,"byteOffset":4739128,"byteLength":29248,"target":34962},{"buffer":0,"byteOffset":4768376,"byteLength":19200,"target":34963},{"buffer":0,"byteOffset":4787576,"byteLength":410340,"target":34962},{"buffer":0,"byteOffset":5197916,"byteLength":410340,"target":34962},{"buffer":0,"byteOffset":5608256,"byteLength":273560,"target":34962},{"buffer":0,"byteOffset":5881816,"byteLength":233706,"target":34963},{"buffer":0,"byteOffset":6115524,"byteLength":192,"target":34962},{"buffer":0,"byteOffset":6115716,"byteLength":192,"target":34962},{"buffer":0,"byteOffset":6115908,"byteLength":128,"target":34962},{"buffer":0,"byteOffset":6116036,"byteLength":48,"target":34963},{"buffer":0,"byteOffset":6116084,"byteLength":96,"target":34962},{"buffer":0,"byteOffset":6116180,"byteLength":96,"target":34962},{"buffer":0,"byteOffset":6116276,"byteLength":64,"target":34962},{"buffer":0,"byteOffset":6116340,"byteLength":24,"target":34963}],"accessors":[{"bufferView":0,"componentType":5126,"count":18179,"type":"VEC3","min":[-3.2837850435759375,0.0021880358567857717,-2.9778442221329],"max":[3.276742877399784,6.906687708187466,2.9596800150885025]},{"bufferView":1,"componentType":5126,"count":18179,"type":"VEC3","min":[-0.9998325109481812,-0.9999308586120605,-0.9997084736824036],"max":[0.9998612403869629,0.9999880194664001,0.9993463754653931]},{"bufferView":2,"componentType":5126,"count":18179,"type":"VEC2"},{"bufferView":3,"componentType":5123,"count":36000,"type":"SCALAR","min":[0],"max":[18178]},{"bufferView":4,"componentType":5126,"count":87432,"type":"VEC3","min":[-3.3557045459747314,2.3535141944885254,-3.1397171020507812],"max":[3.302805185317993,6.91561222076416,3.1590726375579834]},{"bufferView":5,"componentType":5126,"count":87432,"type":"VEC3","min":[-0.999959409236908,-0.9999989867210388,-0.9998937249183655],"max":[0.9999485015869141,0.9999703168869019,0.9999890327453613]},{"bufferView":6,"componentType":5126,"count":87432,"type":"VEC2"},{"bufferView":7,"componentType":5125,"count":299958,"type":"SCALAR","min":[0],"max":[87431]},{"bufferView":8,"componentType":5126,"count":3656,"type":"VEC3","min":[-2.9193741183515867,0.0013488532866816698,-2.659855348824888],"max":[2.946013036482238,6.734062761227658,2.7340921758929495]},{"bufferView":9,"componentType":5126,"count":3656,"type":"VEC3","min":[-0.9993265271186829,-0.9994204044342041,-0.99767005443573],"max":[0.9996765851974487,0.9999880194664001,0.9987165927886963]},{"bufferView":10,"componentType":5126,"count":3656,"type":"VEC2"},{"bufferView":11,"componentType":5123,"count":9600,"type":"SCALAR","min":[0],"max":[3655]},{"bufferView":12,"componentType":5126,"count":34195,"type":"VEC3","min":[-3.3697762489318848,2.3370285034179688,-3.1567485332489014],"max":[3.223813772201538,6.889124393463135,3.1781017780303955]},{"bufferView":13,"componentType":5126,"count":34195,"type":"VEC3","min":[-0.9997296333312988,-0.9999533891677856,-0.9993890523910522],"max":[0.9998787641525269,0.9999470710754395,0.9999890327453613]},{"bufferView":14,"componentType":5126,"count":34195,"type":"VEC2"},{"bufferView":15,"componentType":5123,"count":116853,"type":"SCALAR","min":[0],"max":[34194]},{"bufferView":16,"componentType":5126,"count":16,"type":"VEC3","min":[-3.8500000000000005,0,-3.8500000000000005],"max":[3.8500000000000005,7.0,3.8500000000000005]},{"bufferView":17,"componentType":5126,"count":16,"type":"VEC3","min":[-1.0,0,-0.7071067811865475],"max":[-0.0,0,1.0]},{"bufferView":18,"componentType":5126,"count":16,"type":"VEC2"},{"bufferView":19,"componentType":5123,"count":24,"type":"SCALAR","min":[0],"max":[15]},{"bufferView":20,"componentType":5126,"count":8,"type":"VEC3","min":[-3.8500000000000005,0,-3.8500000000000005],"max":[3.8500000000000005,7.0,3.8500000000000005]},{"bufferView":21,"componentType":5126,"count":8,"type":"VEC3","min":[-1.0,0,6.123233995736766e-17],"max":[-0.0,0,1.0]},{"bufferView":22,"componentType":5126,"count":8,"type":"VEC2"},{"bufferView":23,"componentType":5123,"count":12,"type":"SCALAR","min":[0],"max":[7]}],"samplers":[{"magFilter":9729,"minFilter":9987,"wrapS":10497,"wrapT":10497}],"images":[{"uri":"textures/bark_broadleaf.jpg"},{"uri":"textures/foliage_broadleaf.jpg"},{"uri":"impostors/weissdorn_c_summer.png"}],"textures":[{"source":0,"sampler":0},{"source":1,"sampler":0},{"source":2,"sampler":0}],"materials":[{"name":"bark","pbrMetallicRoughness":{"baseColorFactor":[0.82,0.82,0.82,1.0],"baseColorTexture":{"index":0},"metallicFactor":0.0,"roughnessFactor":0.91},"doubleSided":false},{"name":"foliage","pbrMetallicRoughness":{"baseColorFactor":[0.6441176470588236,0.8720588235294118,0.5841176470588235,1.0],"baseColorTexture":{"index":1},"metallicFactor":0.0,"roughnessFactor":0.78},"doubleSided":true},{"name":"whole_tree_impostor","pbrMetallicRoughness":{"baseColorFactor":[1,1,1,1],"baseColorTexture":{"index":2},"metallicFactor":0.0,"roughnessFactor":0.92},"doubleSided":true,"alphaMode":"MASK","alphaCutoff":0.18}]}