{"asset":{"version":"2.0","generator":"Connected Rails CC0 tree importer","copyright":"Mantissa and Poly Haven source models: CC0 1.0; optimisation: Connected Rails"},"scene":0,"scenes":[{"nodes":[0,1,2,3]}],"nodes":[{"name":"crown_LOD0","mesh":0},{"name":"crown_LOD1","mesh":1},{"name":"crown_LOD2","mesh":2},{"name":"crown_LOD3","mesh":3}],"meshes":[{"name":"crown_LOD0","primitives":[{"attributes":{"POSITION":0,"NORMAL":1,"TEXCOORD_0":2},"indices":3,"material":0},{"attributes":{"POSITION":4,"NORMAL":5,"TEXCOORD_0":6},"indices":7,"material":1}]},{"name":"crown_LOD1","primitives":[{"attributes":{"POSITION":8,"NORMAL":9,"TEXCOORD_0":10},"indices":11,"material":0},{"attributes":{"POSITION":12,"NORMAL":13,"TEXCOORD_0":14},"indices":15,"material":1}]},{"name":"crown_LOD2","primitives":[{"attributes":{"POSITION":16,"NORMAL":17,"TEXCOORD_0":18},"indices":19,"material":2}]},{"name":"crown_LOD3","primitives":[{"attributes":{"POSITION":20,"NORMAL":21,"TEXCOORD_0":22},"indices":23,"material":2}]}],"buffers":[{"uri":"winterlinde_c.bin","byteLength":8135804}],"bufferViews":[{"buffer":0,"byteOffset":0,"byteLength":218148,"target":34962},{"buffer":0,"byteOffset":218148,"byteLength":218148,"target":34962},{"buffer":0,"byteOffset":436296,"byteLength":145432,"target":34962},{"buffer":0,"byteOffset":581728,"byteLength":72000,"target":34963},{"buffer":0,"byteOffset":653728,"byteLength":1508496,"target":34962},{"buffer":0,"byteOffset":2162224,"byteLength":1508496,"target":34962},{"buffer":0,"byteOffset":3670720,"byteLength":1005664,"target":34962},{"buffer":0,"byteOffset":4676384,"byteLength":1724748,"target":34963},{"buffer":0,"byteOffset":6401132,"byteLength":43872,"target":34962},{"buffer":0,"byteOffset":6445004,"byteLength":43872,"target":34962},{"buffer":0,"byteOffset":6488876,"byteLength":29248,"target":34962},{"buffer":0,"byteOffset":6518124,"byteLength":19200,"target":34963},{"buffer":0,"byteOffset":6537324,"byteLength":493644,"target":34962},{"buffer":0,"byteOffset":7030968,"byteLength":493644,"target":34962},{"buffer":0,"byteOffset":7524612,"byteLength":329096,"target":34962},{"buffer":0,"byteOffset":7853708,"byteLength":281256,"target":34963},{"buffer":0,"byteOffset":8134964,"byteLength":192,"target":34962},{"buffer":0,"byteOffset":8135156,"byteLength":192,"target":34962},{"buffer":0,"byteOffset":8135348,"byteLength":128,"target":34962},{"buffer":0,"byteOffset":8135476,"byteLength":48,"target":34963},{"buffer":0,"byteOffset":8135524,"byteLength":96,"target":34962},{"buffer":0,"byteOffset":8135620,"byteLength":96,"target":34962},{"buffer":0,"byteOffset":8135716,"byteLength":64,"target":34962},{"buffer":0,"byteOffset":8135780,"byteLength":24,"target":34963}],"accessors":[{"bufferView":0,"componentType":5126,"count":18179,"type":"VEC3","min":[-10.132822420177177,0.00937729652908188,-9.188776456867233],"max":[10.111092307405048,29.60009017794628,9.132726903701665]},{"bufferView":1,"componentType":5126,"count":18179,"type":"VEC3","min":[-0.9999090433120728,-0.9998667240142822,-0.9998486638069153],"max":[0.9999130964279175,0.9999768733978271,0.999572217464447]},{"bufferView":2,"componentType":5126,"count":18179,"type":"VEC2"},{"bufferView":3,"componentType":5123,"count":36000,"type":"SCALAR","min":[0],"max":[18178]},{"bufferView":4,"componentType":5126,"count":125708,"type":"VEC3","min":[-10.726157188415527,10.144351959228516,-9.646400451660156],"max":[10.288646697998047,29.65332794189453,9.701213836669922]},{"bufferView":5,"componentType":5126,"count":125708,"type":"VEC3","min":[-0.999959409236908,-0.9999989867210388,-0.9999808669090271],"max":[0.9999485015869141,0.9999703168869019,0.9999897480010986]},{"bufferView":6,"componentType":5126,"count":125708,"type":"VEC2"},{"bufferView":7,"componentType":5125,"count":431187,"type":"SCALAR","min":[0],"max":[125707]},{"bufferView":8,"componentType":5126,"count":3656,"type":"VEC3","min":[-9.008354422342038,0.005780799800064299,-8.207553647802511],"max":[9.090554512573762,28.86026897668996,8.436627285612529]},{"bufferView":9,"componentType":5126,"count":3656,"type":"VEC3","min":[-0.9996500015258789,-0.9988829493522644,-0.9983100295066833],"max":[0.9998322129249573,0.9999768733978271,0.999256432056427]},{"bufferView":10,"componentType":5126,"count":3656,"type":"VEC2"},{"bufferView":11,"componentType":5123,"count":9600,"type":"SCALAR","min":[0],"max":[3655]},{"bufferView":12,"componentType":5126,"count":41137,"type":"VEC3","min":[-10.356273651123047,10.086438179016113,-9.690120697021484],"max":[9.891462326049805,29.479944229125977,9.750062942504883]},{"bufferView":13,"componentType":5126,"count":41137,"type":"VEC3","min":[-0.9997296333312988,-0.9999883770942688,-0.9993890523910522],"max":[0.9998787641525269,0.9999526143074036,0.9999890327453613]},{"bufferView":14,"componentType":5126,"count":41137,"type":"VEC2"},{"bufferView":15,"componentType":5123,"count":140628,"type":"SCALAR","min":[0],"max":[41136]},{"bufferView":16,"componentType":5126,"count":16,"type":"VEC3","min":[-11.879999999999999,0,-11.879999999999999],"max":[11.879999999999999,30.0,11.879999999999999]},{"bufferView":17,"componentType":5126,"count":16,"type":"VEC3","min":[-1.0,0,-0.7071067811865475],"max":[-0.0,0,1.0]},{"bufferView":18,"componentType":5126,"count":16,"type":"VEC2"},{"bufferView":19,"componentType":5123,"count":24,"type":"SCALAR","min":[0],"max":[15]},{"bufferView":20,"componentType":5126,"count":8,"type":"VEC3","min":[-11.879999999999999,0,-11.879999999999999],"max":[11.879999999999999,30.0,11.879999999999999]},{"bufferView":21,"componentType":5126,"count":8,"type":"VEC3","min":[-1.0,0,6.123233995736766e-17],"max":[-0.0,0,1.0]},{"bufferView":22,"componentType":5126,"count":8,"type":"VEC2"},{"bufferView":23,"componentType":5123,"count":12,"type":"SCALAR","min":[0],"max":[7]}],"samplers":[{"magFilter":9729,"minFilter":9987,"wrapS":10497,"wrapT":10497}],"images":[{"uri":"textures/bark_broadleaf.jpg"},{"uri":"textures/foliage_broadleaf.jpg"},{"uri":"impostors/winterlinde_c_autumn.png"}],"textures":[{"source":0,"sampler":0},{"source":1,"sampler":0},{"source":2,"sampler":0}],"materials":[{"name":"bark","pbrMetallicRoughness":{"baseColorFactor":[0.82,0.82,0.82,1.0],"baseColorTexture":{"index":0},"metallicFactor":0.0,"roughnessFactor":0.91},"doubleSided":false},{"name":"foliage","pbrMetallicRoughness":{"baseColorFactor":[0.87,0.56,0.1,1.0],"baseColorTexture":{"index":1},"metallicFactor":0.0,"roughnessFactor":0.78},"doubleSided":true},{"name":"whole_tree_impostor","pbrMetallicRoughness":{"baseColorFactor":[1,1,1,1],"baseColorTexture":{"index":2},"metallicFactor":0.0,"roughnessFactor":0.92},"doubleSided":true,"alphaMode":"MASK","alphaCutoff":0.18}]}