{"asset":{"version":"2.0","generator":"Connected Rails CC0 tree importer","copyright":"Mantissa and Poly Haven source models: CC0 1.0; optimisation: Connected Rails"},"scene":0,"scenes":[{"nodes":[0,1,2,3]}],"nodes":[{"name":"crown_LOD0","mesh":0},{"name":"crown_LOD1","mesh":1},{"name":"crown_LOD2","mesh":2},{"name":"crown_LOD3","mesh":3}],"meshes":[{"name":"crown_LOD0","primitives":[{"attributes":{"POSITION":0,"NORMAL":1,"TEXCOORD_0":2},"indices":3,"material":0},{"attributes":{"POSITION":4,"NORMAL":5,"TEXCOORD_0":6},"indices":7,"material":1}]},{"name":"crown_LOD1","primitives":[{"attributes":{"POSITION":8,"NORMAL":9,"TEXCOORD_0":10},"indices":11,"material":0},{"attributes":{"POSITION":12,"NORMAL":13,"TEXCOORD_0":14},"indices":15,"material":1}]},{"name":"crown_LOD2","primitives":[{"attributes":{"POSITION":16,"NORMAL":17,"TEXCOORD_0":18},"indices":19,"material":2}]},{"name":"crown_LOD3","primitives":[{"attributes":{"POSITION":20,"NORMAL":21,"TEXCOORD_0":22},"indices":23,"material":2}]}],"buffers":[{"uri":"winterlinde_b.bin","byteLength":8135252}],"bufferViews":[{"buffer":0,"byteOffset":0,"byteLength":214308,"target":34962},{"buffer":0,"byteOffset":214308,"byteLength":214308,"target":34962},{"buffer":0,"byteOffset":428616,"byteLength":142872,"target":34962},{"buffer":0,"byteOffset":571488,"byteLength":72000,"target":34963},{"buffer":0,"byteOffset":643488,"byteLength":1504164,"target":34962},{"buffer":0,"byteOffset":2147652,"byteLength":1504164,"target":34962},{"buffer":0,"byteOffset":3651816,"byteLength":1002776,"target":34962},{"buffer":0,"byteOffset":4654592,"byteLength":1725156,"target":34963},{"buffer":0,"byteOffset":6379748,"byteLength":47088,"target":34962},{"buffer":0,"byteOffset":6426836,"byteLength":47088,"target":34962},{"buffer":0,"byteOffset":6473924,"byteLength":31392,"target":34962},{"buffer":0,"byteOffset":6505316,"byteLength":19194,"target":34963},{"buffer":0,"byteOffset":6524512,"byteLength":496992,"target":34962},{"buffer":0,"byteOffset":7021504,"byteLength":496992,"target":34962},{"buffer":0,"byteOffset":7518496,"byteLength":331328,"target":34962},{"buffer":0,"byteOffset":7849824,"byteLength":284586,"target":34963},{"buffer":0,"byteOffset":8134412,"byteLength":192,"target":34962},{"buffer":0,"byteOffset":8134604,"byteLength":192,"target":34962},{"buffer":0,"byteOffset":8134796,"byteLength":128,"target":34962},{"buffer":0,"byteOffset":8134924,"byteLength":48,"target":34963},{"buffer":0,"byteOffset":8134972,"byteLength":96,"target":34962},{"buffer":0,"byteOffset":8135068,"byteLength":96,"target":34962},{"buffer":0,"byteOffset":8135164,"byteLength":64,"target":34962},{"buffer":0,"byteOffset":8135228,"byteLength":24,"target":34963}],"accessors":[{"bufferView":0,"componentType":5126,"count":17859,"type":"VEC3","min":[-8.12437664357454,0.007084387565759834,-8.52470760845167],"max":[8.153244776144827,24.68871642088018,8.429905971529884]},{"bufferView":1,"componentType":5126,"count":17859,"type":"VEC3","min":[-0.9997565150260925,-0.9998509883880615,-0.9997760057449341],"max":[0.9998574256896973,0.9999632835388184,0.9999462962150574]},{"bufferView":2,"componentType":5126,"count":17859,"type":"VEC2"},{"bufferView":3,"componentType":5123,"count":36000,"type":"SCALAR","min":[0],"max":[17858]},{"bufferView":4,"componentType":5126,"count":125347,"type":"VEC3","min":[-8.267143249511719,6.891724586486816,-8.70376968383789],"max":[8.323797225952148,24.97031021118164,8.97634506225586]},{"bufferView":5,"componentType":5126,"count":125347,"type":"VEC3","min":[-0.9999863505363464,-0.9999972581863403,-0.9999932646751404],"max":[0.9999948740005493,1.0,0.9999578595161438]},{"bufferView":6,"componentType":5126,"count":125347,"type":"VEC2"},{"bufferView":7,"componentType":5125,"count":431289,"type":"SCALAR","min":[0],"max":[125346]},{"bufferView":8,"componentType":5126,"count":3924,"type":"VEC3","min":[-7.6114773331516306,0.027648261837741776,-7.831988430932229],"max":[7.206220563173353,23.916389812645587,7.5550987248253225]},{"bufferView":9,"componentType":5126,"count":3924,"type":"VEC3","min":[-0.9997565150260925,-0.9998273253440857,-0.9975663423538208],"max":[0.9996827244758606,0.9989054799079895,0.9996582865715027]},{"bufferView":10,"componentType":5126,"count":3924,"type":"VEC2"},{"bufferView":11,"componentType":5123,"count":9597,"type":"SCALAR","min":[0],"max":[3923]},{"bufferView":12,"componentType":5126,"count":41416,"type":"VEC3","min":[-8.240885734558105,6.830704689025879,-8.411983489990234],"max":[8.3638334274292,24.720630645751953,8.279144287109375]},{"bufferView":13,"componentType":5126,"count":41416,"type":"VEC3","min":[-0.9999863505363464,-0.9998786449432373,-0.9999885559082031],"max":[0.9999035000801086,0.9999806880950928,0.999878466129303]},{"bufferView":14,"componentType":5126,"count":41416,"type":"VEC2"},{"bufferView":15,"componentType":5123,"count":142293,"type":"SCALAR","min":[0],"max":[41415]},{"bufferView":16,"componentType":5126,"count":16,"type":"VEC3","min":[-9.9,0,-9.9],"max":[9.9,25.0,9.9]},{"bufferView":17,"componentType":5126,"count":16,"type":"VEC3","min":[-1.0,0,-0.7071067811865475],"max":[-0.0,0,1.0]},{"bufferView":18,"componentType":5126,"count":16,"type":"VEC2"},{"bufferView":19,"componentType":5123,"count":24,"type":"SCALAR","min":[0],"max":[15]},{"bufferView":20,"componentType":5126,"count":8,"type":"VEC3","min":[-9.9,0,-9.9],"max":[9.9,25.0,9.9]},{"bufferView":21,"componentType":5126,"count":8,"type":"VEC3","min":[-1.0,0,6.123233995736766e-17],"max":[-0.0,0,1.0]},{"bufferView":22,"componentType":5126,"count":8,"type":"VEC2"},{"bufferView":23,"componentType":5123,"count":12,"type":"SCALAR","min":[0],"max":[7]}],"samplers":[{"magFilter":9729,"minFilter":9987,"wrapS":10497,"wrapT":10497}],"images":[{"uri":"textures/bark_broadleaf.jpg"},{"uri":"textures/foliage_broadleaf.jpg"},{"uri":"impostors/winterlinde_b_summer.png"}],"textures":[{"source":0,"sampler":0},{"source":1,"sampler":0},{"source":2,"sampler":0}],"materials":[{"name":"bark","pbrMetallicRoughness":{"baseColorFactor":[0.82,0.82,0.82,1.0],"baseColorTexture":{"index":0},"metallicFactor":0.0,"roughnessFactor":0.91},"doubleSided":false},{"name":"foliage","pbrMetallicRoughness":{"baseColorFactor":[0.6296078431372549,0.8648039215686274,0.5696078431372549,1.0],"baseColorTexture":{"index":1},"metallicFactor":0.0,"roughnessFactor":0.78},"doubleSided":true},{"name":"whole_tree_impostor","pbrMetallicRoughness":{"baseColorFactor":[1,1,1,1],"baseColorTexture":{"index":2},"metallicFactor":0.0,"roughnessFactor":0.92},"doubleSided":true,"alphaMode":"MASK","alphaCutoff":0.18}]}