{"asset":{"version":"2.0","generator":"Connected Rails CC0 tree importer","copyright":"Mantissa and Poly Haven source models: CC0 1.0; optimisation: Connected Rails"},"scene":0,"scenes":[{"nodes":[0,1,2,3]}],"nodes":[{"name":"crown_LOD0","mesh":0},{"name":"crown_LOD1","mesh":1},{"name":"crown_LOD2","mesh":2},{"name":"crown_LOD3","mesh":3}],"meshes":[{"name":"crown_LOD0","primitives":[{"attributes":{"POSITION":0,"NORMAL":1,"TEXCOORD_0":2},"indices":3,"material":0},{"attributes":{"POSITION":4,"NORMAL":5,"TEXCOORD_0":6},"indices":7,"material":1}]},{"name":"crown_LOD1","primitives":[{"attributes":{"POSITION":8,"NORMAL":9,"TEXCOORD_0":10},"indices":11,"material":0},{"attributes":{"POSITION":12,"NORMAL":13,"TEXCOORD_0":14},"indices":15,"material":1}]},{"name":"crown_LOD2","primitives":[{"attributes":{"POSITION":16,"NORMAL":17,"TEXCOORD_0":18},"indices":19,"material":2}]},{"name":"crown_LOD3","primitives":[{"attributes":{"POSITION":20,"NORMAL":21,"TEXCOORD_0":22},"indices":23,"material":2}]}],"buffers":[{"uri":"zitterpappel_c.bin","byteLength":8152076}],"bufferViews":[{"buffer":0,"byteOffset":0,"byteLength":218820,"target":34962},{"buffer":0,"byteOffset":218820,"byteLength":218820,"target":34962},{"buffer":0,"byteOffset":437640,"byteLength":145880,"target":34962},{"buffer":0,"byteOffset":583520,"byteLength":72000,"target":34963},{"buffer":0,"byteOffset":655520,"byteLength":1506900,"target":34962},{"buffer":0,"byteOffset":2162420,"byteLength":1506900,"target":34962},{"buffer":0,"byteOffset":3669320,"byteLength":1004600,"target":34962},{"buffer":0,"byteOffset":4673920,"byteLength":1724004,"target":34963},{"buffer":0,"byteOffset":6397924,"byteLength":50028,"target":34962},{"buffer":0,"byteOffset":6447952,"byteLength":50028,"target":34962},{"buffer":0,"byteOffset":6497980,"byteLength":33352,"target":34962},{"buffer":0,"byteOffset":6531332,"byteLength":19194,"target":34963},{"buffer":0,"byteOffset":6550528,"byteLength":494484,"target":34962},{"buffer":0,"byteOffset":7045012,"byteLength":494484,"target":34962},{"buffer":0,"byteOffset":7539496,"byteLength":329656,"target":34962},{"buffer":0,"byteOffset":7869152,"byteLength":282084,"target":34963},{"buffer":0,"byteOffset":8151236,"byteLength":192,"target":34962},{"buffer":0,"byteOffset":8151428,"byteLength":192,"target":34962},{"buffer":0,"byteOffset":8151620,"byteLength":128,"target":34962},{"buffer":0,"byteOffset":8151748,"byteLength":48,"target":34963},{"buffer":0,"byteOffset":8151796,"byteLength":96,"target":34962},{"buffer":0,"byteOffset":8151892,"byteLength":96,"target":34962},{"buffer":0,"byteOffset":8151988,"byteLength":64,"target":34962},{"buffer":0,"byteOffset":8152052,"byteLength":24,"target":34963}],"accessors":[{"bufferView":0,"componentType":5126,"count":18235,"type":"VEC3","min":[-6.135315463085309,-0.0009468079307431796,-5.884861141082107],"max":[6.077905162545233,25.648866053618494,6.06079241585396]},{"bufferView":1,"componentType":5126,"count":18235,"type":"VEC3","min":[-0.9998869895935059,-0.9991634488105774,-0.9999972581863403],"max":[0.9998555779457092,0.9996907114982605,0.9998355507850647]},{"bufferView":2,"componentType":5126,"count":18235,"type":"VEC2"},{"bufferView":3,"componentType":5123,"count":36000,"type":"SCALAR","min":[0],"max":[18234]},{"bufferView":4,"componentType":5126,"count":125575,"type":"VEC3","min":[-6.479122638702393,8.269453048706055,-6.422732353210449],"max":[6.379765033721924,25.67923355102539,6.108824729919434]},{"bufferView":5,"componentType":5126,"count":125575,"type":"VEC3","min":[-0.9999209642410278,-0.9999942183494568,-0.9999717473983765],"max":[0.9999182224273682,0.999994158744812,0.9999886155128479]},{"bufferView":6,"componentType":5126,"count":125575,"type":"VEC2"},{"bufferView":7,"componentType":5125,"count":431001,"type":"SCALAR","min":[0],"max":[125574]},{"bufferView":8,"componentType":5126,"count":4169,"type":"VEC3","min":[-5.6062381722026515,-0.0055255878378809966,-5.663183179133781],"max":[5.677077750682336,25.25976316948399,5.592081582454689]},{"bufferView":9,"componentType":5126,"count":4169,"type":"VEC3","min":[-0.9995781183242798,-0.9991634488105774,-0.9999730587005615],"max":[0.999629020690918,0.9969701766967773,0.9998355507850647]},{"bufferView":10,"componentType":5126,"count":4169,"type":"VEC2"},{"bufferView":11,"componentType":5123,"count":9597,"type":"SCALAR","min":[0],"max":[4168]},{"bufferView":12,"componentType":5126,"count":41207,"type":"VEC3","min":[-6.221219539642334,8.198312759399414,-6.396551609039307],"max":[6.288939952850342,25.6962947845459,6.00545072555542]},{"bufferView":13,"componentType":5126,"count":41207,"type":"VEC3","min":[-0.9999209642410278,-0.999967098236084,-0.9999717473983765],"max":[0.9998665452003479,0.999994158744812,0.9999886155128479]},{"bufferView":14,"componentType":5126,"count":41207,"type":"VEC2"},{"bufferView":15,"componentType":5123,"count":141042,"type":"SCALAR","min":[0],"max":[41206]},{"bufferView":16,"componentType":5126,"count":16,"type":"VEC3","min":[-7.15,0,-7.15],"max":[7.15,26.0,7.15]},{"bufferView":17,"componentType":5126,"count":16,"type":"VEC3","min":[-1.0,0,-0.7071067811865475],"max":[-0.0,0,1.0]},{"bufferView":18,"componentType":5126,"count":16,"type":"VEC2"},{"bufferView":19,"componentType":5123,"count":24,"type":"SCALAR","min":[0],"max":[15]},{"bufferView":20,"componentType":5126,"count":8,"type":"VEC3","min":[-7.15,0,-7.15],"max":[7.15,26.0,7.15]},{"bufferView":21,"componentType":5126,"count":8,"type":"VEC3","min":[-1.0,0,6.123233995736766e-17],"max":[-0.0,0,1.0]},{"bufferView":22,"componentType":5126,"count":8,"type":"VEC2"},{"bufferView":23,"componentType":5123,"count":12,"type":"SCALAR","min":[0],"max":[7]}],"samplers":[{"magFilter":9729,"minFilter":9987,"wrapS":10497,"wrapT":10497}],"images":[{"uri":"textures/bark_broadleaf.jpg"},{"uri":"textures/foliage_broadleaf.jpg"},{"uri":"impostors/zitterpappel_c_summer.png"}],"textures":[{"source":0,"sampler":0},{"source":1,"sampler":0},{"source":2,"sampler":0}],"materials":[{"name":"bark","pbrMetallicRoughness":{"baseColorFactor":[0.82,0.82,0.82,1.0],"baseColorTexture":{"index":0},"metallicFactor":0.0,"roughnessFactor":0.91},"doubleSided":false},{"name":"foliage","pbrMetallicRoughness":{"baseColorFactor":[0.693921568627451,0.8969607843137255,0.633921568627451,1.0],"baseColorTexture":{"index":1},"metallicFactor":0.0,"roughnessFactor":0.78},"doubleSided":true},{"name":"whole_tree_impostor","pbrMetallicRoughness":{"baseColorFactor":[1,1,1,1],"baseColorTexture":{"index":2},"metallicFactor":0.0,"roughnessFactor":0.92},"doubleSided":true,"alphaMode":"MASK","alphaCutoff":0.18}]}