{"asset":{"version":"2.0","generator":"Connected Rails CC0 tree importer","copyright":"Mantissa and Poly Haven source models: CC0 1.0; optimisation: Connected Rails"},"scene":0,"scenes":[{"nodes":[0,1,2,3]}],"nodes":[{"name":"crown_LOD0","mesh":0},{"name":"crown_LOD1","mesh":1},{"name":"crown_LOD2","mesh":2},{"name":"crown_LOD3","mesh":3}],"meshes":[{"name":"crown_LOD0","primitives":[{"attributes":{"POSITION":0,"NORMAL":1,"TEXCOORD_0":2},"indices":3,"material":0},{"attributes":{"POSITION":4,"NORMAL":5,"TEXCOORD_0":6},"indices":7,"material":1}]},{"name":"crown_LOD1","primitives":[{"attributes":{"POSITION":8,"NORMAL":9,"TEXCOORD_0":10},"indices":11,"material":0},{"attributes":{"POSITION":12,"NORMAL":13,"TEXCOORD_0":14},"indices":15,"material":1}]},{"name":"crown_LOD2","primitives":[{"attributes":{"POSITION":16,"NORMAL":17,"TEXCOORD_0":18},"indices":19,"material":2}]},{"name":"crown_LOD3","primitives":[{"attributes":{"POSITION":20,"NORMAL":21,"TEXCOORD_0":22},"indices":23,"material":2}]}],"buffers":[{"uri":"zitterpappel_a.bin","byteLength":8069664}],"bufferViews":[{"buffer":0,"byteOffset":0,"byteLength":211572,"target":34962},{"buffer":0,"byteOffset":211572,"byteLength":211572,"target":34962},{"buffer":0,"byteOffset":423144,"byteLength":141048,"target":34962},{"buffer":0,"byteOffset":564192,"byteLength":72000,"target":34963},{"buffer":0,"byteOffset":636192,"byteLength":1502448,"target":34962},{"buffer":0,"byteOffset":2138640,"byteLength":1502448,"target":34962},{"buffer":0,"byteOffset":3641088,"byteLength":1001632,"target":34962},{"buffer":0,"byteOffset":4642720,"byteLength":1720644,"target":34963},{"buffer":0,"byteOffset":6363364,"byteLength":43500,"target":34962},{"buffer":0,"byteOffset":6406864,"byteLength":43500,"target":34962},{"buffer":0,"byteOffset":6450364,"byteLength":29000,"target":34962},{"buffer":0,"byteOffset":6479364,"byteLength":19188,"target":34963},{"buffer":0,"byteOffset":6498552,"byteLength":485244,"target":34962},{"buffer":0,"byteOffset":6983796,"byteLength":485244,"target":34962},{"buffer":0,"byteOffset":7469040,"byteLength":323496,"target":34962},{"buffer":0,"byteOffset":7792536,"byteLength":276288,"target":34963},{"buffer":0,"byteOffset":8068824,"byteLength":192,"target":34962},{"buffer":0,"byteOffset":8069016,"byteLength":192,"target":34962},{"buffer":0,"byteOffset":8069208,"byteLength":128,"target":34962},{"buffer":0,"byteOffset":8069336,"byteLength":48,"target":34963},{"buffer":0,"byteOffset":8069384,"byteLength":96,"target":34962},{"buffer":0,"byteOffset":8069480,"byteLength":96,"target":34962},{"buffer":0,"byteOffset":8069576,"byteLength":64,"target":34962},{"buffer":0,"byteOffset":8069640,"byteLength":24,"target":34963}],"accessors":[{"bufferView":0,"componentType":5126,"count":17631,"type":"VEC3","min":[-3.699130067044821,0.006532021460852569,-3.4664106179658742],"max":[3.7697644301772004,15.815720053201474,3.5985032431801875]},{"bufferView":1,"componentType":5126,"count":17631,"type":"VEC3","min":[-0.9999932050704956,-0.9998564720153809,-0.99978107213974],"max":[0.9999344348907471,0.9999245405197144,0.9997727870941162]},{"bufferView":2,"componentType":5126,"count":17631,"type":"VEC2"},{"bufferView":3,"componentType":5123,"count":36000,"type":"SCALAR","min":[0],"max":[17630]},{"bufferView":4,"componentType":5126,"count":125204,"type":"VEC3","min":[-3.8656959533691406,2.6064207553863525,-3.6526806354522705],"max":[3.9611945152282715,15.977757453918457,3.75301456451416]},{"bufferView":5,"componentType":5126,"count":125204,"type":"VEC3","min":[-0.9999125003814697,-0.9999773502349854,-0.9999915957450867],"max":[0.999984085559845,0.9999697804450989,0.9999993443489075]},{"bufferView":6,"componentType":5126,"count":125204,"type":"VEC2"},{"bufferView":7,"componentType":5125,"count":430161,"type":"SCALAR","min":[0],"max":[125203]},{"bufferView":8,"componentType":5126,"count":3625,"type":"VEC3","min":[-3.699130067044821,0.023888163514855953,-3.4057364896910367],"max":[3.5485124778546133,15.815720053201474,3.5985032431801875]},{"bufferView":9,"componentType":5126,"count":3625,"type":"VEC3","min":[-0.9997363686561584,-0.9979652166366577,-0.9995764493942261],"max":[0.9999584555625916,0.99847012758255,0.9989975094795227]},{"bufferView":10,"componentType":5126,"count":3625,"type":"VEC2"},{"bufferView":11,"componentType":5123,"count":9594,"type":"SCALAR","min":[0],"max":[3624]},{"bufferView":12,"componentType":5126,"count":40437,"type":"VEC3","min":[-3.7756218910217285,2.5717923641204834,-3.6284828186035156],"max":[3.9843556880950928,15.796860694885254,3.6796464920043945]},{"bufferView":13,"componentType":5126,"count":40437,"type":"VEC3","min":[-0.9999125003814697,-0.9999647736549377,-0.9999915957450867],"max":[0.9995389580726624,0.9999697804450989,0.9999651908874512]},{"bufferView":14,"componentType":5126,"count":40437,"type":"VEC2"},{"bufferView":15,"componentType":5123,"count":138144,"type":"SCALAR","min":[0],"max":[40436]},{"bufferView":16,"componentType":5126,"count":16,"type":"VEC3","min":[-4.4,0,-4.4],"max":[4.4,16.0,4.4]},{"bufferView":17,"componentType":5126,"count":16,"type":"VEC3","min":[-1.0,0,-0.7071067811865475],"max":[-0.0,0,1.0]},{"bufferView":18,"componentType":5126,"count":16,"type":"VEC2"},{"bufferView":19,"componentType":5123,"count":24,"type":"SCALAR","min":[0],"max":[15]},{"bufferView":20,"componentType":5126,"count":8,"type":"VEC3","min":[-4.4,0,-4.4],"max":[4.4,16.0,4.4]},{"bufferView":21,"componentType":5126,"count":8,"type":"VEC3","min":[-1.0,0,6.123233995736766e-17],"max":[-0.0,0,1.0]},{"bufferView":22,"componentType":5126,"count":8,"type":"VEC2"},{"bufferView":23,"componentType":5123,"count":12,"type":"SCALAR","min":[0],"max":[7]}],"samplers":[{"magFilter":9729,"minFilter":9987,"wrapS":10497,"wrapT":10497}],"images":[{"uri":"textures/bark_broadleaf.jpg"},{"uri":"textures/foliage_broadleaf.jpg"},{"uri":"impostors/zitterpappel_a_summer.png"}],"textures":[{"source":0,"sampler":0},{"source":1,"sampler":0},{"source":2,"sampler":0}],"materials":[{"name":"bark","pbrMetallicRoughness":{"baseColorFactor":[0.82,0.82,0.82,1.0],"baseColorTexture":{"index":0},"metallicFactor":0.0,"roughnessFactor":0.91},"doubleSided":false},{"name":"foliage","pbrMetallicRoughness":{"baseColorFactor":[0.693921568627451,0.8969607843137255,0.633921568627451,1.0],"baseColorTexture":{"index":1},"metallicFactor":0.0,"roughnessFactor":0.78},"doubleSided":true},{"name":"whole_tree_impostor","pbrMetallicRoughness":{"baseColorFactor":[1,1,1,1],"baseColorTexture":{"index":2},"metallicFactor":0.0,"roughnessFactor":0.92},"doubleSided":true,"alphaMode":"MASK","alphaCutoff":0.18}]}