{"asset":{"version":"2.0","generator":"Connected Rails CC0 tree importer","copyright":"Mantissa and Poly Haven source models: CC0 1.0; optimisation: Connected Rails"},"scene":0,"scenes":[{"nodes":[0,1,2,3]}],"nodes":[{"name":"crown_LOD0","mesh":0},{"name":"crown_LOD1","mesh":1},{"name":"crown_LOD2","mesh":2},{"name":"crown_LOD3","mesh":3}],"meshes":[{"name":"crown_LOD0","primitives":[{"attributes":{"POSITION":0,"NORMAL":1,"TEXCOORD_0":2},"indices":3,"material":0},{"attributes":{"POSITION":4,"NORMAL":5,"TEXCOORD_0":6},"indices":7,"material":1}]},{"name":"crown_LOD1","primitives":[{"attributes":{"POSITION":8,"NORMAL":9,"TEXCOORD_0":10},"indices":11,"material":0},{"attributes":{"POSITION":12,"NORMAL":13,"TEXCOORD_0":14},"indices":15,"material":1}]},{"name":"crown_LOD2","primitives":[{"attributes":{"POSITION":16,"NORMAL":17,"TEXCOORD_0":18},"indices":19,"material":2}]},{"name":"crown_LOD3","primitives":[{"attributes":{"POSITION":20,"NORMAL":21,"TEXCOORD_0":22},"indices":23,"material":2}]}],"buffers":[{"uri":"zitterpappel_b.bin","byteLength":8104984}],"bufferViews":[{"buffer":0,"byteOffset":0,"byteLength":223764,"target":34962},{"buffer":0,"byteOffset":223764,"byteLength":223764,"target":34962},{"buffer":0,"byteOffset":447528,"byteLength":149176,"target":34962},{"buffer":0,"byteOffset":596704,"byteLength":71994,"target":34963},{"buffer":0,"byteOffset":668700,"byteLength":1499460,"target":34962},{"buffer":0,"byteOffset":2168160,"byteLength":1499460,"target":34962},{"buffer":0,"byteOffset":3667620,"byteLength":999640,"target":34962},{"buffer":0,"byteOffset":4667260,"byteLength":1716000,"target":34963},{"buffer":0,"byteOffset":6383260,"byteLength":42480,"target":34962},{"buffer":0,"byteOffset":6425740,"byteLength":42480,"target":34962},{"buffer":0,"byteOffset":6468220,"byteLength":28320,"target":34962},{"buffer":0,"byteOffset":6496540,"byteLength":19200,"target":34963},{"buffer":0,"byteOffset":6515740,"byteLength":490716,"target":34962},{"buffer":0,"byteOffset":7006456,"byteLength":490716,"target":34962},{"buffer":0,"byteOffset":7497172,"byteLength":327144,"target":34962},{"buffer":0,"byteOffset":7824316,"byteLength":279828,"target":34963},{"buffer":0,"byteOffset":8104144,"byteLength":192,"target":34962},{"buffer":0,"byteOffset":8104336,"byteLength":192,"target":34962},{"buffer":0,"byteOffset":8104528,"byteLength":128,"target":34962},{"buffer":0,"byteOffset":8104656,"byteLength":48,"target":34963},{"buffer":0,"byteOffset":8104704,"byteLength":96,"target":34962},{"buffer":0,"byteOffset":8104800,"byteLength":96,"target":34962},{"buffer":0,"byteOffset":8104896,"byteLength":64,"target":34962},{"buffer":0,"byteOffset":8104960,"byteLength":24,"target":34963}],"accessors":[{"bufferView":0,"componentType":5126,"count":18647,"type":"VEC3","min":[-4.750748441764909,-0.002102931621903858,-4.862849991153081],"max":[4.772162902840972,20.734617774968264,4.789011507425123]},{"bufferView":1,"componentType":5126,"count":18647,"type":"VEC3","min":[-0.9999623894691467,-0.9984287023544312,-0.9999929070472717],"max":[0.9997324347496033,0.9997108578681946,0.9999956488609314]},{"bufferView":2,"componentType":5126,"count":18647,"type":"VEC2"},{"bufferView":3,"componentType":5123,"count":35997,"type":"SCALAR","min":[0],"max":[18646]},{"bufferView":4,"componentType":5126,"count":124955,"type":"VEC3","min":[-4.917057514190674,7.436012268066406,-5.122188091278076],"max":[4.986845970153809,20.87810707092285,5.232697486877441]},{"bufferView":5,"componentType":5126,"count":124955,"type":"VEC3","min":[-0.9999843835830688,-0.9999996423721313,-0.9999651312828064],"max":[1.0,0.9999943375587463,0.999786913394928]},{"bufferView":6,"componentType":5126,"count":124955,"type":"VEC2"},{"bufferView":7,"componentType":5125,"count":429000,"type":"SCALAR","min":[0],"max":[124954]},{"bufferView":8,"componentType":5126,"count":3540,"type":"VEC3","min":[-4.417123662902416,0.04743087489841768,-4.6007477514120785],"max":[4.5260134403184775,20.442577987009194,4.734306956212622]},{"bufferView":9,"componentType":5126,"count":3540,"type":"VEC3","min":[-0.9999093413352966,-0.9990687370300293,-0.9999929070472717],"max":[0.999313235282898,0.9996877908706665,0.9993122816085815]},{"bufferView":10,"componentType":5126,"count":3540,"type":"VEC2"},{"bufferView":11,"componentType":5123,"count":9600,"type":"SCALAR","min":[0],"max":[3539]},{"bufferView":12,"componentType":5126,"count":40893,"type":"VEC3","min":[-4.953843116760254,7.374233245849609,-5.165422439575195],"max":[4.8816328048706055,20.903308868408203,4.924299240112305]},{"bufferView":13,"componentType":5126,"count":40893,"type":"VEC3","min":[-0.9999342560768127,-0.9999853372573853,-0.9999651312828064],"max":[0.9998716115951538,0.9999902844429016,0.9991987347602844]},{"bufferView":14,"componentType":5126,"count":40893,"type":"VEC2"},{"bufferView":15,"componentType":5123,"count":139914,"type":"SCALAR","min":[0],"max":[40892]},{"bufferView":16,"componentType":5126,"count":16,"type":"VEC3","min":[-5.775,0,-5.775],"max":[5.775,21.0,5.775]},{"bufferView":17,"componentType":5126,"count":16,"type":"VEC3","min":[-1.0,0,-0.7071067811865475],"max":[-0.0,0,1.0]},{"bufferView":18,"componentType":5126,"count":16,"type":"VEC2"},{"bufferView":19,"componentType":5123,"count":24,"type":"SCALAR","min":[0],"max":[15]},{"bufferView":20,"componentType":5126,"count":8,"type":"VEC3","min":[-5.775,0,-5.775],"max":[5.775,21.0,5.775]},{"bufferView":21,"componentType":5126,"count":8,"type":"VEC3","min":[-1.0,0,6.123233995736766e-17],"max":[-0.0,0,1.0]},{"bufferView":22,"componentType":5126,"count":8,"type":"VEC2"},{"bufferView":23,"componentType":5123,"count":12,"type":"SCALAR","min":[0],"max":[7]}],"samplers":[{"magFilter":9729,"minFilter":9987,"wrapS":10497,"wrapT":10497}],"images":[{"uri":"textures/bark_broadleaf.jpg"},{"uri":"textures/foliage_broadleaf.jpg"},{"uri":"impostors/zitterpappel_b_autumn.png"}],"textures":[{"source":0,"sampler":0},{"source":1,"sampler":0},{"source":2,"sampler":0}],"materials":[{"name":"bark","pbrMetallicRoughness":{"baseColorFactor":[0.82,0.82,0.82,1.0],"baseColorTexture":{"index":0},"metallicFactor":0.0,"roughnessFactor":0.91},"doubleSided":false},{"name":"foliage","pbrMetallicRoughness":{"baseColorFactor":[0.88,0.64,0.16,1.0],"baseColorTexture":{"index":1},"metallicFactor":0.0,"roughnessFactor":0.78},"doubleSided":true},{"name":"whole_tree_impostor","pbrMetallicRoughness":{"baseColorFactor":[1,1,1,1],"baseColorTexture":{"index":2},"metallicFactor":0.0,"roughnessFactor":0.92},"doubleSided":true,"alphaMode":"MASK","alphaCutoff":0.18}]}