{
 "asset": {
  "version": "2.0",
  "generator": "tools/wind/build_wind.mjs (Connected Rails)",
  "copyright": "Connected Rails, EUPL v. 1.2 — generated by tools/wind/build_wind.mjs"
 },
 "extensionsUsed": [
  "KHR_materials_emissive_strength"
 ],
 "scene": 0,
 "scenes": [
  {
   "name": "wea_150_enercon",
   "nodes": [
    0,
    1,
    2,
    3,
    4
   ]
  }
 ],
 "nodes": [
  {
   "name": "turm_LOD0",
   "mesh": 0
  },
  {
   "name": "turm_LOD1",
   "mesh": 1
  },
  {
   "name": "turm_LOD2",
   "mesh": 2
  },
  {
   "name": "turm_LOD3",
   "mesh": 3
  },
  {
   "name": "nacelle",
   "translation": [
    0,
    140,
    0
   ],
   "children": [
    5,
    6,
    7,
    8,
    9,
    15
   ]
  },
  {
   "name": "gondel_LOD0",
   "mesh": 4
  },
  {
   "name": "gondel_LOD1",
   "mesh": 5
  },
  {
   "name": "gondel_LOD2",
   "mesh": 6
  },
  {
   "name": "gondel_LOD3",
   "mesh": 7
  },
  {
   "name": "feuer_NIGHT",
   "children": [
    10
   ]
  },
  {
   "name": "blink",
   "children": [
    11,
    12,
    13,
    14
   ]
  },
  {
   "name": "lampe_LOD0",
   "mesh": 8
  },
  {
   "name": "lampe_LOD1",
   "mesh": 9
  },
  {
   "name": "lampe_LOD2",
   "mesh": 10
  },
  {
   "name": "lampe_LOD3",
   "mesh": 11
  },
  {
   "name": "rotor",
   "translation": [
    0,
    0,
    -5.6
   ],
   "rotation": [
    0.043619387365336,
    0,
    0,
    0.9990482215818578
   ],
   "extras": {
    "rotor_diameter": 150,
    "rated_rpm": 11,
    "hub_height": 140
   },
   "children": [
    16,
    17,
    18,
    19
   ]
  },
  {
   "name": "rotor_LOD0",
   "mesh": 12
  },
  {
   "name": "rotor_LOD1",
   "mesh": 13
  },
  {
   "name": "rotor_LOD2",
   "mesh": 14
  },
  {
   "name": "rotor_LOD3",
   "mesh": 15
  }
 ],
 "meshes": [
  {
   "name": "turm_LOD0",
   "primitives": [
    {
     "attributes": {
      "POSITION": 0,
      "NORMAL": 1,
      "TEXCOORD_0": 2,
      "COLOR_0": 3
     },
     "indices": 4,
     "material": 0
    },
    {
     "attributes": {
      "POSITION": 5,
      "NORMAL": 6,
      "TEXCOORD_0": 7,
      "COLOR_0": 8
     },
     "indices": 9,
     "material": 1
    }
   ]
  },
  {
   "name": "turm_LOD1",
   "primitives": [
    {
     "attributes": {
      "POSITION": 10,
      "NORMAL": 11,
      "TEXCOORD_0": 12,
      "COLOR_0": 13
     },
     "indices": 14,
     "material": 0
    },
    {
     "attributes": {
      "POSITION": 15,
      "NORMAL": 16,
      "TEXCOORD_0": 17,
      "COLOR_0": 18
     },
     "indices": 19,
     "material": 1
    }
   ]
  },
  {
   "name": "turm_LOD2",
   "primitives": [
    {
     "attributes": {
      "POSITION": 20,
      "NORMAL": 21,
      "TEXCOORD_0": 22,
      "COLOR_0": 23
     },
     "indices": 24,
     "material": 0
    }
   ]
  },
  {
   "name": "turm_LOD3",
   "primitives": [
    {
     "attributes": {
      "POSITION": 25,
      "NORMAL": 26,
      "TEXCOORD_0": 27,
      "COLOR_0": 28
     },
     "indices": 29,
     "material": 0
    }
   ]
  },
  {
   "name": "gondel_LOD0",
   "primitives": [
    {
     "attributes": {
      "POSITION": 30,
      "NORMAL": 31,
      "TEXCOORD_0": 32,
      "COLOR_0": 33
     },
     "indices": 34,
     "material": 0
    }
   ]
  },
  {
   "name": "gondel_LOD1",
   "primitives": [
    {
     "attributes": {
      "POSITION": 35,
      "NORMAL": 36,
      "TEXCOORD_0": 37,
      "COLOR_0": 38
     },
     "indices": 39,
     "material": 0
    }
   ]
  },
  {
   "name": "gondel_LOD2",
   "primitives": [
    {
     "attributes": {
      "POSITION": 40,
      "NORMAL": 41,
      "TEXCOORD_0": 42,
      "COLOR_0": 43
     },
     "indices": 44,
     "material": 0
    }
   ]
  },
  {
   "name": "gondel_LOD3",
   "primitives": [
    {
     "attributes": {
      "POSITION": 45,
      "NORMAL": 46,
      "TEXCOORD_0": 47,
      "COLOR_0": 48
     },
     "indices": 49,
     "material": 0
    }
   ]
  },
  {
   "name": "lampe_LOD0",
   "primitives": [
    {
     "attributes": {
      "POSITION": 50,
      "NORMAL": 51,
      "TEXCOORD_0": 52,
      "COLOR_0": 53
     },
     "indices": 54,
     "material": 3
    }
   ]
  },
  {
   "name": "lampe_LOD1",
   "primitives": [
    {
     "attributes": {
      "POSITION": 55,
      "NORMAL": 56,
      "TEXCOORD_0": 57,
      "COLOR_0": 58
     },
     "indices": 59,
     "material": 3
    }
   ]
  },
  {
   "name": "lampe_LOD2",
   "primitives": [
    {
     "attributes": {
      "POSITION": 60,
      "NORMAL": 61,
      "TEXCOORD_0": 62,
      "COLOR_0": 63
     },
     "indices": 64,
     "material": 3
    }
   ]
  },
  {
   "name": "lampe_LOD3",
   "primitives": [
    {
     "attributes": {
      "POSITION": 65,
      "NORMAL": 66,
      "TEXCOORD_0": 67,
      "COLOR_0": 68
     },
     "indices": 69,
     "material": 3
    }
   ]
  },
  {
   "name": "rotor_LOD0",
   "primitives": [
    {
     "attributes": {
      "POSITION": 70,
      "NORMAL": 71,
      "TEXCOORD_0": 72,
      "COLOR_0": 73
     },
     "indices": 74,
     "material": 0
    }
   ]
  },
  {
   "name": "rotor_LOD1",
   "primitives": [
    {
     "attributes": {
      "POSITION": 75,
      "NORMAL": 76,
      "TEXCOORD_0": 77,
      "COLOR_0": 78
     },
     "indices": 79,
     "material": 0
    }
   ]
  },
  {
   "name": "rotor_LOD2",
   "primitives": [
    {
     "attributes": {
      "POSITION": 80,
      "NORMAL": 81,
      "TEXCOORD_0": 82,
      "COLOR_0": 83
     },
     "indices": 84,
     "material": 0
    }
   ]
  },
  {
   "name": "rotor_LOD3",
   "primitives": [
    {
     "attributes": {
      "POSITION": 85,
      "NORMAL": 86,
      "TEXCOORD_0": 87,
      "COLOR_0": 88
     },
     "indices": 89,
     "material": 0
    }
   ]
  }
 ],
 "materials": [
  {
   "name": "lack",
   "pbrMetallicRoughness": {
    "baseColorFactor": [
     1,
     1,
     1,
     1
    ],
    "metallicFactor": 1,
    "roughnessFactor": 1,
    "baseColorTexture": {
     "index": 0
    },
    "metallicRoughnessTexture": {
     "index": 1
    }
   },
   "doubleSided": false,
   "occlusionTexture": {
    "index": 1
   },
   "normalTexture": {
    "index": 2,
    "scale": 0.5
   }
  },
  {
   "name": "fundament",
   "pbrMetallicRoughness": {
    "baseColorFactor": [
     1,
     1,
     1,
     1
    ],
    "metallicFactor": 1,
    "roughnessFactor": 1,
    "baseColorTexture": {
     "index": 3
    },
    "metallicRoughnessTexture": {
     "index": 4
    }
   },
   "doubleSided": false,
   "occlusionTexture": {
    "index": 4
   },
   "normalTexture": {
    "index": 5,
    "scale": 1
   }
  },
  {
   "name": "verzinkt",
   "pbrMetallicRoughness": {
    "baseColorFactor": [
     1,
     1,
     1,
     1
    ],
    "metallicFactor": 1,
    "roughnessFactor": 1,
    "baseColorTexture": {
     "index": 6
    },
    "metallicRoughnessTexture": {
     "index": 7
    }
   },
   "doubleSided": false,
   "occlusionTexture": {
    "index": 7
   },
   "normalTexture": {
    "index": 8,
    "scale": 0.36
   }
  },
  {
   "name": "hindernisfeuer",
   "pbrMetallicRoughness": {
    "baseColorFactor": [
     0.8,
     0.03,
     0.03,
     1
    ],
    "metallicFactor": 0,
    "roughnessFactor": 0.3
   },
   "doubleSided": false,
   "emissiveFactor": [
    1,
    0.04,
    0.02
   ],
   "extensions": {
    "KHR_materials_emissive_strength": {
     "emissiveStrength": 40
    }
   }
  },
  {
   "name": "dunkel",
   "pbrMetallicRoughness": {
    "baseColorFactor": [
     0.05,
     0.05,
     0.055,
     1
    ],
    "metallicFactor": 0,
    "roughnessFactor": 0.7
   },
   "doubleSided": false
  }
 ],
 "images": [
  {
   "uri": "lack_colour.png"
  },
  {
   "uri": "lack_orm.png"
  },
  {
   "uri": "lack_normal.png"
  },
  {
   "uri": "beton_colour.png"
  },
  {
   "uri": "beton_orm.png"
  },
  {
   "uri": "beton_normal.png"
  },
  {
   "uri": "verzinkt_colour.png"
  },
  {
   "uri": "verzinkt_orm.png"
  },
  {
   "uri": "verzinkt_normal.png"
  }
 ],
 "textures": [
  {
   "source": 0,
   "sampler": 0
  },
  {
   "source": 1,
   "sampler": 0
  },
  {
   "source": 2,
   "sampler": 0
  },
  {
   "source": 3,
   "sampler": 0
  },
  {
   "source": 4,
   "sampler": 0
  },
  {
   "source": 5,
   "sampler": 0
  },
  {
   "source": 6,
   "sampler": 0
  },
  {
   "source": 7,
   "sampler": 0
  },
  {
   "source": 8,
   "sampler": 0
  }
 ],
 "samplers": [
  {
   "magFilter": 9729,
   "minFilter": 9987,
   "wrapS": 10497,
   "wrapT": 10497
  }
 ],
 "accessors": [
  {
   "bufferView": 0,
   "componentType": 5126,
   "count": 2632,
   "type": "VEC3",
   "min": [
    -3.1,
    0,
    -3.1
   ],
   "max": [
    3.1,
    136.4,
    3.1135043988269793
   ]
  },
  {
   "bufferView": 1,
   "componentType": 5126,
   "count": 2632,
   "type": "VEC3"
  },
  {
   "bufferView": 2,
   "componentType": 5126,
   "count": 2632,
   "type": "VEC2"
  },
  {
   "bufferView": 3,
   "componentType": 5121,
   "count": 2632,
   "type": "VEC4",
   "normalized": true
  },
  {
   "bufferView": 4,
   "componentType": 5123,
   "count": 3474,
   "type": "SCALAR"
  },
  {
   "bufferView": 5,
   "componentType": 5126,
   "count": 268,
   "type": "VEC3",
   "min": [
    -4.7,
    -0.4,
    -4.7
   ],
   "max": [
    4.7,
    0.25,
    4.7
   ]
  },
  {
   "bufferView": 6,
   "componentType": 5126,
   "count": 268,
   "type": "VEC3"
  },
  {
   "bufferView": 7,
   "componentType": 5126,
   "count": 268,
   "type": "VEC2"
  },
  {
   "bufferView": 8,
   "componentType": 5121,
   "count": 268,
   "type": "VEC4",
   "normalized": true
  },
  {
   "bufferView": 9,
   "componentType": 5123,
   "count": 324,
   "type": "SCALAR"
  },
  {
   "bufferView": 10,
   "componentType": 5126,
   "count": 736,
   "type": "VEC3",
   "min": [
    -3.1,
    0,
    -3.1
   ],
   "max": [
    3.1,
    136.40000000000003,
    3.1
   ]
  },
  {
   "bufferView": 11,
   "componentType": 5126,
   "count": 736,
   "type": "VEC3"
  },
  {
   "bufferView": 12,
   "componentType": 5126,
   "count": 736,
   "type": "VEC2"
  },
  {
   "bufferView": 13,
   "componentType": 5121,
   "count": 736,
   "type": "VEC4",
   "normalized": true
  },
  {
   "bufferView": 14,
   "componentType": 5123,
   "count": 1056,
   "type": "SCALAR"
  },
  {
   "bufferView": 15,
   "componentType": 5126,
   "count": 148,
   "type": "VEC3",
   "min": [
    -4.7,
    -0.4,
    -4.7
   ],
   "max": [
    4.7,
    0.25,
    4.7
   ]
  },
  {
   "bufferView": 16,
   "componentType": 5126,
   "count": 148,
   "type": "VEC3"
  },
  {
   "bufferView": 17,
   "componentType": 5126,
   "count": 148,
   "type": "VEC2"
  },
  {
   "bufferView": 18,
   "componentType": 5121,
   "count": 148,
   "type": "VEC4",
   "normalized": true
  },
  {
   "bufferView": 19,
   "componentType": 5123,
   "count": 180,
   "type": "SCALAR"
  },
  {
   "bufferView": 20,
   "componentType": 5126,
   "count": 460,
   "type": "VEC3",
   "min": [
    -3.1,
    0,
    -2.9482752005149764
   ],
   "max": [
    3.1,
    136.4,
    2.9482752005149764
   ]
  },
  {
   "bufferView": 21,
   "componentType": 5126,
   "count": 460,
   "type": "VEC3"
  },
  {
   "bufferView": 22,
   "componentType": 5126,
   "count": 460,
   "type": "VEC2"
  },
  {
   "bufferView": 23,
   "componentType": 5121,
   "count": 460,
   "type": "VEC4",
   "normalized": true
  },
  {
   "bufferView": 24,
   "componentType": 5123,
   "count": 660,
   "type": "SCALAR"
  },
  {
   "bufferView": 25,
   "componentType": 5126,
   "count": 276,
   "type": "VEC3",
   "min": [
    -3.1,
    0,
    -2.68467875173176
   ],
   "max": [
    3.1,
    136.4,
    2.68467875173176
   ]
  },
  {
   "bufferView": 26,
   "componentType": 5126,
   "count": 276,
   "type": "VEC3"
  },
  {
   "bufferView": 27,
   "componentType": 5126,
   "count": 276,
   "type": "VEC2"
  },
  {
   "bufferView": 28,
   "componentType": 5121,
   "count": 276,
   "type": "VEC4",
   "normalized": true
  },
  {
   "bufferView": 29,
   "componentType": 5123,
   "count": 396,
   "type": "SCALAR"
  },
  {
   "bufferView": 30,
   "componentType": 5126,
   "count": 820,
   "type": "VEC3",
   "min": [
    -2.9,
    -3.5999999999999996,
    -4.075000000000001
   ],
   "max": [
    2.9,
    3.688,
    11.975000000000001
   ]
  },
  {
   "bufferView": 31,
   "componentType": 5126,
   "count": 820,
   "type": "VEC3"
  },
  {
   "bufferView": 32,
   "componentType": 5126,
   "count": 820,
   "type": "VEC2"
  },
  {
   "bufferView": 33,
   "componentType": 5121,
   "count": 820,
   "type": "VEC4",
   "normalized": true
  },
  {
   "bufferView": 34,
   "componentType": 5123,
   "count": 1128,
   "type": "SCALAR"
  },
  {
   "bufferView": 35,
   "componentType": 5126,
   "count": 538,
   "type": "VEC3",
   "min": [
    -2.9,
    -3.5999999999999996,
    -4.074999999999999
   ],
   "max": [
    2.9,
    3.688,
    11.975000000000001
   ]
  },
  {
   "bufferView": 36,
   "componentType": 5126,
   "count": 538,
   "type": "VEC3"
  },
  {
   "bufferView": 37,
   "componentType": 5126,
   "count": 538,
   "type": "VEC2"
  },
  {
   "bufferView": 38,
   "componentType": 5121,
   "count": 538,
   "type": "VEC4",
   "normalized": true
  },
  {
   "bufferView": 39,
   "componentType": 5123,
   "count": 750,
   "type": "SCALAR"
  },
  {
   "bufferView": 40,
   "componentType": 5126,
   "count": 250,
   "type": "VEC3",
   "min": [
    -2.9,
    -3.5999999999999996,
    -4.074999999999999
   ],
   "max": [
    2.9,
    2.511473670974872,
    11.975000000000001
   ]
  },
  {
   "bufferView": 41,
   "componentType": 5126,
   "count": 250,
   "type": "VEC3"
  },
  {
   "bufferView": 42,
   "componentType": 5126,
   "count": 250,
   "type": "VEC2"
  },
  {
   "bufferView": 43,
   "componentType": 5121,
   "count": 250,
   "type": "VEC4",
   "normalized": true
  },
  {
   "bufferView": 44,
   "componentType": 5123,
   "count": 342,
   "type": "SCALAR"
  },
  {
   "bufferView": 45,
   "componentType": 5126,
   "count": 210,
   "type": "VEC3",
   "min": [
    -2.9,
    -3.5999999999999996,
    -4.074999999999999
   ],
   "max": [
    2.9,
    2.511473670974872,
    11.975000000000001
   ]
  },
  {
   "bufferView": 46,
   "componentType": 5126,
   "count": 210,
   "type": "VEC3"
  },
  {
   "bufferView": 47,
   "componentType": 5126,
   "count": 210,
   "type": "VEC2"
  },
  {
   "bufferView": 48,
   "componentType": 5121,
   "count": 210,
   "type": "VEC4",
   "normalized": true
  },
  {
   "bufferView": 49,
   "componentType": 5123,
   "count": 294,
   "type": "SCALAR"
  },
  {
   "bufferView": 50,
   "componentType": 5126,
   "count": 1024,
   "type": "VEC3",
   "min": [
    -1.675,
    2.422,
    8.280000000000001
   ],
   "max": [
    1.675,
    2.772,
    8.630000000000003
   ]
  },
  {
   "bufferView": 51,
   "componentType": 5126,
   "count": 1024,
   "type": "VEC3"
  },
  {
   "bufferView": 52,
   "componentType": 5126,
   "count": 1024,
   "type": "VEC2"
  },
  {
   "bufferView": 53,
   "componentType": 5121,
   "count": 1024,
   "type": "VEC4",
   "normalized": true
  },
  {
   "bufferView": 54,
   "componentType": 5123,
   "count": 1536,
   "type": "SCALAR"
  },
  {
   "bufferView": 55,
   "componentType": 5126,
   "count": 400,
   "type": "VEC3",
   "min": [
    -1.7377641290737884,
    2.422,
    8.228872875703134
   ],
   "max": [
    1.7377641290737884,
    2.922,
    8.68112712429687
   ]
  },
  {
   "bufferView": 56,
   "componentType": 5126,
   "count": 400,
   "type": "VEC3"
  },
  {
   "bufferView": 57,
   "componentType": 5126,
   "count": 400,
   "type": "VEC2"
  },
  {
   "bufferView": 58,
   "componentType": 5121,
   "count": 400,
   "type": "VEC4",
   "normalized": true
  },
  {
   "bufferView": 59,
   "componentType": 5123,
   "count": 600,
   "type": "SCALAR"
  },
  {
   "bufferView": 60,
   "componentType": 5126,
   "count": 72,
   "type": "VEC3",
   "min": [
    -0.43301270189221935,
    1.972,
    8.080000000000002
   ],
   "max": [
    0.43301270189221935,
    2.972,
    8.830000000000002
   ]
  },
  {
   "bufferView": 61,
   "componentType": 5126,
   "count": 72,
   "type": "VEC3"
  },
  {
   "bufferView": 62,
   "componentType": 5126,
   "count": 72,
   "type": "VEC2"
  },
  {
   "bufferView": 63,
   "componentType": 5121,
   "count": 72,
   "type": "VEC4",
   "normalized": true
  },
  {
   "bufferView": 64,
   "componentType": 5123,
   "count": 108,
   "type": "SCALAR"
  },
  {
   "bufferView": 65,
   "componentType": 5126,
   "count": 72,
   "type": "VEC3",
   "min": [
    -0.692820323027551,
    1.9720000000000002,
    7.855000000000002
   ],
   "max": [
    0.692820323027551,
    3.572,
    9.055000000000001
   ]
  },
  {
   "bufferView": 66,
   "componentType": 5126,
   "count": 72,
   "type": "VEC3"
  },
  {
   "bufferView": 67,
   "componentType": 5126,
   "count": 72,
   "type": "VEC2"
  },
  {
   "bufferView": 68,
   "componentType": 5121,
   "count": 72,
   "type": "VEC4",
   "normalized": true
  },
  {
   "bufferView": 69,
   "componentType": 5123,
   "count": 108,
   "type": "SCALAR"
  },
  {
   "bufferView": 70,
   "componentType": 5126,
   "count": 6008,
   "type": "VEC3",
   "min": [
    -64.32039719249461,
    -37.44518099987718,
    -3.910636321800253
   ],
   "max": [
    64.43963248091804,
    74.16753647813862,
    1.8900000000000003
   ]
  },
  {
   "bufferView": 71,
   "componentType": 5126,
   "count": 6008,
   "type": "VEC3"
  },
  {
   "bufferView": 72,
   "componentType": 5126,
   "count": 6008,
   "type": "VEC2"
  },
  {
   "bufferView": 73,
   "componentType": 5121,
   "count": 6008,
   "type": "VEC4",
   "normalized": true
  },
  {
   "bufferView": 74,
   "componentType": 5123,
   "count": 8808,
   "type": "SCALAR"
  },
  {
   "bufferView": 75,
   "componentType": 5126,
   "count": 2318,
   "type": "VEC3",
   "min": [
    -64.32039719249461,
    -37.44518099987718,
    -3.9102695078835352
   ],
   "max": [
    64.43963248091804,
    74.16753647813856,
    1.8900000000000003
   ]
  },
  {
   "bufferView": 76,
   "componentType": 5126,
   "count": 2318,
   "type": "VEC3"
  },
  {
   "bufferView": 77,
   "componentType": 5126,
   "count": 2318,
   "type": "VEC2"
  },
  {
   "bufferView": 78,
   "componentType": 5121,
   "count": 2318,
   "type": "VEC4",
   "normalized": true
  },
  {
   "bufferView": 79,
   "componentType": 5123,
   "count": 3354,
   "type": "SCALAR"
  },
  {
   "bufferView": 80,
   "componentType": 5126,
   "count": 1050,
   "type": "VEC3",
   "min": [
    -64.32039719249461,
    -37.44518099987718,
    -3.910308497748962
   ],
   "max": [
    64.43963248091804,
    74.16753647813856,
    1.8900000000000001
   ]
  },
  {
   "bufferView": 81,
   "componentType": 5126,
   "count": 1050,
   "type": "VEC3"
  },
  {
   "bufferView": 82,
   "componentType": 5126,
   "count": 1050,
   "type": "VEC2"
  },
  {
   "bufferView": 83,
   "componentType": 5121,
   "count": 1050,
   "type": "VEC4",
   "normalized": true
  },
  {
   "bufferView": 84,
   "componentType": 5123,
   "count": 1494,
   "type": "SCALAR"
  },
  {
   "bufferView": 85,
   "componentType": 5126,
   "count": 498,
   "type": "VEC3",
   "min": [
    -64.32039719249461,
    -37.44518099987718,
    -3.905659829946064
   ],
   "max": [
    64.43963248091804,
    74.16753647813856,
    1.8900000000000001
   ]
  },
  {
   "bufferView": 86,
   "componentType": 5126,
   "count": 498,
   "type": "VEC3"
  },
  {
   "bufferView": 87,
   "componentType": 5126,
   "count": 498,
   "type": "VEC2"
  },
  {
   "bufferView": 88,
   "componentType": 5121,
   "count": 498,
   "type": "VEC4",
   "normalized": true
  },
  {
   "bufferView": 89,
   "componentType": 5123,
   "count": 702,
   "type": "SCALAR"
  }
 ],
 "bufferViews": [
  {
   "buffer": 0,
   "byteOffset": 613452,
   "byteLength": 31584,
   "target": 34962,
   "byteStride": 12
  },
  {
   "buffer": 0,
   "byteOffset": 645036,
   "byteLength": 31584,
   "target": 34962,
   "byteStride": 12
  },
  {
   "buffer": 0,
   "byteOffset": 676620,
   "byteLength": 21056,
   "target": 34962,
   "byteStride": 8
  },
  {
   "buffer": 0,
   "byteOffset": 697676,
   "byteLength": 10528,
   "target": 34962,
   "byteStride": 4
  },
  {
   "buffer": 0,
   "byteOffset": 708204,
   "byteLength": 6948,
   "target": 34963
  },
  {
   "buffer": 0,
   "byteOffset": 715152,
   "byteLength": 3216,
   "target": 34962,
   "byteStride": 12
  },
  {
   "buffer": 0,
   "byteOffset": 718368,
   "byteLength": 3216,
   "target": 34962,
   "byteStride": 12
  },
  {
   "buffer": 0,
   "byteOffset": 721584,
   "byteLength": 2144,
   "target": 34962,
   "byteStride": 8
  },
  {
   "buffer": 0,
   "byteOffset": 723728,
   "byteLength": 1072,
   "target": 34962,
   "byteStride": 4
  },
  {
   "buffer": 0,
   "byteOffset": 724800,
   "byteLength": 648,
   "target": 34963
  },
  {
   "buffer": 0,
   "byteOffset": 1031064,
   "byteLength": 8832,
   "target": 34962,
   "byteStride": 12
  },
  {
   "buffer": 0,
   "byteOffset": 1039896,
   "byteLength": 8832,
   "target": 34962,
   "byteStride": 12
  },
  {
   "buffer": 0,
   "byteOffset": 1048728,
   "byteLength": 5888,
   "target": 34962,
   "byteStride": 8
  },
  {
   "buffer": 0,
   "byteOffset": 1054616,
   "byteLength": 2944,
   "target": 34962,
   "byteStride": 4
  },
  {
   "buffer": 0,
   "byteOffset": 1057560,
   "byteLength": 2112,
   "target": 34963
  },
  {
   "buffer": 0,
   "byteOffset": 1059672,
   "byteLength": 1776,
   "target": 34962,
   "byteStride": 12
  },
  {
   "buffer": 0,
   "byteOffset": 1061448,
   "byteLength": 1776,
   "target": 34962,
   "byteStride": 12
  },
  {
   "buffer": 0,
   "byteOffset": 1063224,
   "byteLength": 1184,
   "target": 34962,
   "byteStride": 8
  },
  {
   "buffer": 0,
   "byteOffset": 1064408,
   "byteLength": 592,
   "target": 34962,
   "byteStride": 4
  },
  {
   "buffer": 0,
   "byteOffset": 1065000,
   "byteLength": 360,
   "target": 34963
  },
  {
   "buffer": 0,
   "byteOffset": 1191984,
   "byteLength": 5520,
   "target": 34962,
   "byteStride": 12
  },
  {
   "buffer": 0,
   "byteOffset": 1197504,
   "byteLength": 5520,
   "target": 34962,
   "byteStride": 12
  },
  {
   "buffer": 0,
   "byteOffset": 1203024,
   "byteLength": 3680,
   "target": 34962,
   "byteStride": 8
  },
  {
   "buffer": 0,
   "byteOffset": 1206704,
   "byteLength": 1840,
   "target": 34962,
   "byteStride": 4
  },
  {
   "buffer": 0,
   "byteOffset": 1208544,
   "byteLength": 1320,
   "target": 34963
  },
  {
   "buffer": 0,
   "byteOffset": 1263144,
   "byteLength": 3312,
   "target": 34962,
   "byteStride": 12
  },
  {
   "buffer": 0,
   "byteOffset": 1266456,
   "byteLength": 3312,
   "target": 34962,
   "byteStride": 12
  },
  {
   "buffer": 0,
   "byteOffset": 1269768,
   "byteLength": 2208,
   "target": 34962,
   "byteStride": 8
  },
  {
   "buffer": 0,
   "byteOffset": 1271976,
   "byteLength": 1104,
   "target": 34962,
   "byteStride": 4
  },
  {
   "buffer": 0,
   "byteOffset": 1273080,
   "byteLength": 792,
   "target": 34963
  },
  {
   "buffer": 0,
   "byteOffset": 725448,
   "byteLength": 9840,
   "target": 34962,
   "byteStride": 12
  },
  {
   "buffer": 0,
   "byteOffset": 735288,
   "byteLength": 9840,
   "target": 34962,
   "byteStride": 12
  },
  {
   "buffer": 0,
   "byteOffset": 745128,
   "byteLength": 6560,
   "target": 34962,
   "byteStride": 8
  },
  {
   "buffer": 0,
   "byteOffset": 751688,
   "byteLength": 3280,
   "target": 34962,
   "byteStride": 4
  },
  {
   "buffer": 0,
   "byteOffset": 754968,
   "byteLength": 2256,
   "target": 34963
  },
  {
   "buffer": 0,
   "byteOffset": 1065360,
   "byteLength": 6456,
   "target": 34962,
   "byteStride": 12
  },
  {
   "buffer": 0,
   "byteOffset": 1071816,
   "byteLength": 6456,
   "target": 34962,
   "byteStride": 12
  },
  {
   "buffer": 0,
   "byteOffset": 1078272,
   "byteLength": 4304,
   "target": 34962,
   "byteStride": 8
  },
  {
   "buffer": 0,
   "byteOffset": 1082576,
   "byteLength": 2152,
   "target": 34962,
   "byteStride": 4
  },
  {
   "buffer": 0,
   "byteOffset": 1084728,
   "byteLength": 1500,
   "target": 34963
  },
  {
   "buffer": 0,
   "byteOffset": 1209864,
   "byteLength": 3000,
   "target": 34962,
   "byteStride": 12
  },
  {
   "buffer": 0,
   "byteOffset": 1212864,
   "byteLength": 3000,
   "target": 34962,
   "byteStride": 12
  },
  {
   "buffer": 0,
   "byteOffset": 1215864,
   "byteLength": 2000,
   "target": 34962,
   "byteStride": 8
  },
  {
   "buffer": 0,
   "byteOffset": 1217864,
   "byteLength": 1000,
   "target": 34962,
   "byteStride": 4
  },
  {
   "buffer": 0,
   "byteOffset": 1218864,
   "byteLength": 684,
   "target": 34963
  },
  {
   "buffer": 0,
   "byteOffset": 1273872,
   "byteLength": 2520,
   "target": 34962,
   "byteStride": 12
  },
  {
   "buffer": 0,
   "byteOffset": 1276392,
   "byteLength": 2520,
   "target": 34962,
   "byteStride": 12
  },
  {
   "buffer": 0,
   "byteOffset": 1278912,
   "byteLength": 1680,
   "target": 34962,
   "byteStride": 8
  },
  {
   "buffer": 0,
   "byteOffset": 1280592,
   "byteLength": 840,
   "target": 34962,
   "byteStride": 4
  },
  {
   "buffer": 0,
   "byteOffset": 1281432,
   "byteLength": 588,
   "target": 34963
  },
  {
   "buffer": 0,
   "byteOffset": 757224,
   "byteLength": 12288,
   "target": 34962,
   "byteStride": 12
  },
  {
   "buffer": 0,
   "byteOffset": 769512,
   "byteLength": 12288,
   "target": 34962,
   "byteStride": 12
  },
  {
   "buffer": 0,
   "byteOffset": 781800,
   "byteLength": 8192,
   "target": 34962,
   "byteStride": 8
  },
  {
   "buffer": 0,
   "byteOffset": 789992,
   "byteLength": 4096,
   "target": 34962,
   "byteStride": 4
  },
  {
   "buffer": 0,
   "byteOffset": 794088,
   "byteLength": 3072,
   "target": 34963
  },
  {
   "buffer": 0,
   "byteOffset": 1086228,
   "byteLength": 4800,
   "target": 34962,
   "byteStride": 12
  },
  {
   "buffer": 0,
   "byteOffset": 1091028,
   "byteLength": 4800,
   "target": 34962,
   "byteStride": 12
  },
  {
   "buffer": 0,
   "byteOffset": 1095828,
   "byteLength": 3200,
   "target": 34962,
   "byteStride": 8
  },
  {
   "buffer": 0,
   "byteOffset": 1099028,
   "byteLength": 1600,
   "target": 34962,
   "byteStride": 4
  },
  {
   "buffer": 0,
   "byteOffset": 1100628,
   "byteLength": 1200,
   "target": 34963
  },
  {
   "buffer": 0,
   "byteOffset": 1219548,
   "byteLength": 864,
   "target": 34962,
   "byteStride": 12
  },
  {
   "buffer": 0,
   "byteOffset": 1220412,
   "byteLength": 864,
   "target": 34962,
   "byteStride": 12
  },
  {
   "buffer": 0,
   "byteOffset": 1221276,
   "byteLength": 576,
   "target": 34962,
   "byteStride": 8
  },
  {
   "buffer": 0,
   "byteOffset": 1221852,
   "byteLength": 288,
   "target": 34962,
   "byteStride": 4
  },
  {
   "buffer": 0,
   "byteOffset": 1222140,
   "byteLength": 216,
   "target": 34963
  },
  {
   "buffer": 0,
   "byteOffset": 1282020,
   "byteLength": 864,
   "target": 34962,
   "byteStride": 12
  },
  {
   "buffer": 0,
   "byteOffset": 1282884,
   "byteLength": 864,
   "target": 34962,
   "byteStride": 12
  },
  {
   "buffer": 0,
   "byteOffset": 1283748,
   "byteLength": 576,
   "target": 34962,
   "byteStride": 8
  },
  {
   "buffer": 0,
   "byteOffset": 1284324,
   "byteLength": 288,
   "target": 34962,
   "byteStride": 4
  },
  {
   "buffer": 0,
   "byteOffset": 1284612,
   "byteLength": 216,
   "target": 34963
  },
  {
   "buffer": 0,
   "byteOffset": 797160,
   "byteLength": 72096,
   "target": 34962,
   "byteStride": 12
  },
  {
   "buffer": 0,
   "byteOffset": 869256,
   "byteLength": 72096,
   "target": 34962,
   "byteStride": 12
  },
  {
   "buffer": 0,
   "byteOffset": 941352,
   "byteLength": 48064,
   "target": 34962,
   "byteStride": 8
  },
  {
   "buffer": 0,
   "byteOffset": 989416,
   "byteLength": 24032,
   "target": 34962,
   "byteStride": 4
  },
  {
   "buffer": 0,
   "byteOffset": 1013448,
   "byteLength": 17616,
   "target": 34963
  },
  {
   "buffer": 0,
   "byteOffset": 1101828,
   "byteLength": 27816,
   "target": 34962,
   "byteStride": 12
  },
  {
   "buffer": 0,
   "byteOffset": 1129644,
   "byteLength": 27816,
   "target": 34962,
   "byteStride": 12
  },
  {
   "buffer": 0,
   "byteOffset": 1157460,
   "byteLength": 18544,
   "target": 34962,
   "byteStride": 8
  },
  {
   "buffer": 0,
   "byteOffset": 1176004,
   "byteLength": 9272,
   "target": 34962,
   "byteStride": 4
  },
  {
   "buffer": 0,
   "byteOffset": 1185276,
   "byteLength": 6708,
   "target": 34963
  },
  {
   "buffer": 0,
   "byteOffset": 1222356,
   "byteLength": 12600,
   "target": 34962,
   "byteStride": 12
  },
  {
   "buffer": 0,
   "byteOffset": 1234956,
   "byteLength": 12600,
   "target": 34962,
   "byteStride": 12
  },
  {
   "buffer": 0,
   "byteOffset": 1247556,
   "byteLength": 8400,
   "target": 34962,
   "byteStride": 8
  },
  {
   "buffer": 0,
   "byteOffset": 1255956,
   "byteLength": 4200,
   "target": 34962,
   "byteStride": 4
  },
  {
   "buffer": 0,
   "byteOffset": 1260156,
   "byteLength": 2988,
   "target": 34963
  },
  {
   "buffer": 0,
   "byteOffset": 1284828,
   "byteLength": 5976,
   "target": 34962,
   "byteStride": 12
  },
  {
   "buffer": 0,
   "byteOffset": 1290804,
   "byteLength": 5976,
   "target": 34962,
   "byteStride": 12
  },
  {
   "buffer": 0,
   "byteOffset": 1296780,
   "byteLength": 3984,
   "target": 34962,
   "byteStride": 8
  },
  {
   "buffer": 0,
   "byteOffset": 1300764,
   "byteLength": 1992,
   "target": 34962,
   "byteStride": 4
  },
  {
   "buffer": 0,
   "byteOffset": 1302756,
   "byteLength": 1404,
   "target": 34963
  }
 ],
 "buffers": [
  {
   "uri": "wea_150.bin",
   "byteLength": 1304160
  }
 ]
}
