{
 "asset": {
  "version": "2.0",
  "generator": "tools/wind/build_wind.mjs (Connected Rails)",
  "copyright": "Connected Rails, EUPL v. 1.2 — generated by tools/wind/build_wind.mjs"
 },
 "extensionsUsed": [
  "KHR_materials_emissive_strength"
 ],
 "scene": 0,
 "scenes": [
  {
   "name": "wea_50_enercon",
   "nodes": [
    0,
    1,
    2,
    3,
    4
   ]
  }
 ],
 "nodes": [
  {
   "name": "turm_LOD0",
   "mesh": 0
  },
  {
   "name": "turm_LOD1",
   "mesh": 1
  },
  {
   "name": "turm_LOD2",
   "mesh": 2
  },
  {
   "name": "turm_LOD3",
   "mesh": 3
  },
  {
   "name": "nacelle",
   "translation": [
    0,
    65,
    0
   ],
   "children": [
    5,
    6,
    7,
    8,
    9
   ]
  },
  {
   "name": "gondel_LOD0",
   "mesh": 4
  },
  {
   "name": "gondel_LOD1",
   "mesh": 5
  },
  {
   "name": "gondel_LOD2",
   "mesh": 6
  },
  {
   "name": "gondel_LOD3",
   "mesh": 7
  },
  {
   "name": "rotor",
   "translation": [
    0,
    0,
    -2.6
   ],
   "rotation": [
    0.043619387365336,
    0,
    0,
    0.9990482215818578
   ],
   "extras": {
    "rotor_diameter": 50,
    "rated_rpm": 30,
    "hub_height": 65
   },
   "children": [
    10,
    11,
    12,
    13
   ]
  },
  {
   "name": "rotor_LOD0",
   "mesh": 8
  },
  {
   "name": "rotor_LOD1",
   "mesh": 9
  },
  {
   "name": "rotor_LOD2",
   "mesh": 10
  },
  {
   "name": "rotor_LOD3",
   "mesh": 11
  }
 ],
 "meshes": [
  {
   "name": "turm_LOD0",
   "primitives": [
    {
     "attributes": {
      "POSITION": 0,
      "NORMAL": 1,
      "TEXCOORD_0": 2,
      "COLOR_0": 3
     },
     "indices": 4,
     "material": 0
    },
    {
     "attributes": {
      "POSITION": 5,
      "NORMAL": 6,
      "TEXCOORD_0": 7,
      "COLOR_0": 8
     },
     "indices": 9,
     "material": 1
    }
   ]
  },
  {
   "name": "turm_LOD1",
   "primitives": [
    {
     "attributes": {
      "POSITION": 10,
      "NORMAL": 11,
      "TEXCOORD_0": 12,
      "COLOR_0": 13
     },
     "indices": 14,
     "material": 0
    },
    {
     "attributes": {
      "POSITION": 15,
      "NORMAL": 16,
      "TEXCOORD_0": 17,
      "COLOR_0": 18
     },
     "indices": 19,
     "material": 1
    }
   ]
  },
  {
   "name": "turm_LOD2",
   "primitives": [
    {
     "attributes": {
      "POSITION": 20,
      "NORMAL": 21,
      "TEXCOORD_0": 22,
      "COLOR_0": 23
     },
     "indices": 24,
     "material": 0
    }
   ]
  },
  {
   "name": "turm_LOD3",
   "primitives": [
    {
     "attributes": {
      "POSITION": 25,
      "NORMAL": 26,
      "TEXCOORD_0": 27,
      "COLOR_0": 28
     },
     "indices": 29,
     "material": 0
    }
   ]
  },
  {
   "name": "gondel_LOD0",
   "primitives": [
    {
     "attributes": {
      "POSITION": 30,
      "NORMAL": 31,
      "TEXCOORD_0": 32,
      "COLOR_0": 33
     },
     "indices": 34,
     "material": 0
    }
   ]
  },
  {
   "name": "gondel_LOD1",
   "primitives": [
    {
     "attributes": {
      "POSITION": 35,
      "NORMAL": 36,
      "TEXCOORD_0": 37,
      "COLOR_0": 38
     },
     "indices": 39,
     "material": 0
    }
   ]
  },
  {
   "name": "gondel_LOD2",
   "primitives": [
    {
     "attributes": {
      "POSITION": 40,
      "NORMAL": 41,
      "TEXCOORD_0": 42,
      "COLOR_0": 43
     },
     "indices": 44,
     "material": 0
    }
   ]
  },
  {
   "name": "gondel_LOD3",
   "primitives": [
    {
     "attributes": {
      "POSITION": 45,
      "NORMAL": 46,
      "TEXCOORD_0": 47,
      "COLOR_0": 48
     },
     "indices": 49,
     "material": 0
    }
   ]
  },
  {
   "name": "rotor_LOD0",
   "primitives": [
    {
     "attributes": {
      "POSITION": 50,
      "NORMAL": 51,
      "TEXCOORD_0": 52,
      "COLOR_0": 53
     },
     "indices": 54,
     "material": 0
    }
   ]
  },
  {
   "name": "rotor_LOD1",
   "primitives": [
    {
     "attributes": {
      "POSITION": 55,
      "NORMAL": 56,
      "TEXCOORD_0": 57,
      "COLOR_0": 58
     },
     "indices": 59,
     "material": 0
    }
   ]
  },
  {
   "name": "rotor_LOD2",
   "primitives": [
    {
     "attributes": {
      "POSITION": 60,
      "NORMAL": 61,
      "TEXCOORD_0": 62,
      "COLOR_0": 63
     },
     "indices": 64,
     "material": 0
    }
   ]
  },
  {
   "name": "rotor_LOD3",
   "primitives": [
    {
     "attributes": {
      "POSITION": 65,
      "NORMAL": 66,
      "TEXCOORD_0": 67,
      "COLOR_0": 68
     },
     "indices": 69,
     "material": 0
    }
   ]
  }
 ],
 "materials": [
  {
   "name": "lack",
   "pbrMetallicRoughness": {
    "baseColorFactor": [
     1,
     1,
     1,
     1
    ],
    "metallicFactor": 1,
    "roughnessFactor": 1,
    "baseColorTexture": {
     "index": 0
    },
    "metallicRoughnessTexture": {
     "index": 1
    }
   },
   "doubleSided": false,
   "occlusionTexture": {
    "index": 1
   },
   "normalTexture": {
    "index": 2,
    "scale": 0.5
   }
  },
  {
   "name": "fundament",
   "pbrMetallicRoughness": {
    "baseColorFactor": [
     1,
     1,
     1,
     1
    ],
    "metallicFactor": 1,
    "roughnessFactor": 1,
    "baseColorTexture": {
     "index": 3
    },
    "metallicRoughnessTexture": {
     "index": 4
    }
   },
   "doubleSided": false,
   "occlusionTexture": {
    "index": 4
   },
   "normalTexture": {
    "index": 5,
    "scale": 1
   }
  },
  {
   "name": "verzinkt",
   "pbrMetallicRoughness": {
    "baseColorFactor": [
     1,
     1,
     1,
     1
    ],
    "metallicFactor": 1,
    "roughnessFactor": 1,
    "baseColorTexture": {
     "index": 6
    },
    "metallicRoughnessTexture": {
     "index": 7
    }
   },
   "doubleSided": false,
   "occlusionTexture": {
    "index": 7
   },
   "normalTexture": {
    "index": 8,
    "scale": 0.36
   }
  },
  {
   "name": "hindernisfeuer",
   "pbrMetallicRoughness": {
    "baseColorFactor": [
     0.8,
     0.03,
     0.03,
     1
    ],
    "metallicFactor": 0,
    "roughnessFactor": 0.3
   },
   "doubleSided": false,
   "emissiveFactor": [
    1,
    0.04,
    0.02
   ],
   "extensions": {
    "KHR_materials_emissive_strength": {
     "emissiveStrength": 40
    }
   }
  },
  {
   "name": "dunkel",
   "pbrMetallicRoughness": {
    "baseColorFactor": [
     0.05,
     0.05,
     0.055,
     1
    ],
    "metallicFactor": 0,
    "roughnessFactor": 0.7
   },
   "doubleSided": false
  }
 ],
 "images": [
  {
   "uri": "lack_colour.png"
  },
  {
   "uri": "lack_orm.png"
  },
  {
   "uri": "lack_normal.png"
  },
  {
   "uri": "beton_colour.png"
  },
  {
   "uri": "beton_orm.png"
  },
  {
   "uri": "beton_normal.png"
  },
  {
   "uri": "verzinkt_colour.png"
  },
  {
   "uri": "verzinkt_orm.png"
  },
  {
   "uri": "verzinkt_normal.png"
  }
 ],
 "textures": [
  {
   "source": 0,
   "sampler": 0
  },
  {
   "source": 1,
   "sampler": 0
  },
  {
   "source": 2,
   "sampler": 0
  },
  {
   "source": 3,
   "sampler": 0
  },
  {
   "source": 4,
   "sampler": 0
  },
  {
   "source": 5,
   "sampler": 0
  },
  {
   "source": 6,
   "sampler": 0
  },
  {
   "source": 7,
   "sampler": 0
  },
  {
   "source": 8,
   "sampler": 0
  }
 ],
 "samplers": [
  {
   "magFilter": 9729,
   "minFilter": 9987,
   "wrapS": 10497,
   "wrapT": 10497
  }
 ],
 "accessors": [
  {
   "bufferView": 0,
   "componentType": 5126,
   "count": 1604,
   "type": "VEC3",
   "min": [
    -1.6,
    0,
    -1.6
   ],
   "max": [
    1.6,
    62.60000000000004,
    1.6144249201277956
   ]
  },
  {
   "bufferView": 1,
   "componentType": 5126,
   "count": 1604,
   "type": "VEC3"
  },
  {
   "bufferView": 2,
   "componentType": 5126,
   "count": 1604,
   "type": "VEC2"
  },
  {
   "bufferView": 3,
   "componentType": 5121,
   "count": 1604,
   "type": "VEC4",
   "normalized": true
  },
  {
   "bufferView": 4,
   "componentType": 5123,
   "count": 2166,
   "type": "SCALAR"
  },
  {
   "bufferView": 5,
   "componentType": 5126,
   "count": 268,
   "type": "VEC3",
   "min": [
    -3.2,
    -0.4,
    -3.2
   ],
   "max": [
    3.2,
    0.25,
    3.2
   ]
  },
  {
   "bufferView": 6,
   "componentType": 5126,
   "count": 268,
   "type": "VEC3"
  },
  {
   "bufferView": 7,
   "componentType": 5126,
   "count": 268,
   "type": "VEC2"
  },
  {
   "bufferView": 8,
   "componentType": 5121,
   "count": 268,
   "type": "VEC4",
   "normalized": true
  },
  {
   "bufferView": 9,
   "componentType": 5123,
   "count": 324,
   "type": "SCALAR"
  },
  {
   "bufferView": 10,
   "componentType": 5126,
   "count": 608,
   "type": "VEC3",
   "min": [
    -1.6,
    0,
    -1.6
   ],
   "max": [
    1.6,
    62.600000000000016,
    1.6
   ]
  },
  {
   "bufferView": 11,
   "componentType": 5126,
   "count": 608,
   "type": "VEC3"
  },
  {
   "bufferView": 12,
   "componentType": 5126,
   "count": 608,
   "type": "VEC2"
  },
  {
   "bufferView": 13,
   "componentType": 5121,
   "count": 608,
   "type": "VEC4",
   "normalized": true
  },
  {
   "bufferView": 14,
   "componentType": 5123,
   "count": 864,
   "type": "SCALAR"
  },
  {
   "bufferView": 15,
   "componentType": 5126,
   "count": 148,
   "type": "VEC3",
   "min": [
    -3.2,
    -0.4,
    -3.2
   ],
   "max": [
    3.2,
    0.25,
    3.2
   ]
  },
  {
   "bufferView": 16,
   "componentType": 5126,
   "count": 148,
   "type": "VEC3"
  },
  {
   "bufferView": 17,
   "componentType": 5126,
   "count": 148,
   "type": "VEC2"
  },
  {
   "bufferView": 18,
   "componentType": 5121,
   "count": 148,
   "type": "VEC4",
   "normalized": true
  },
  {
   "bufferView": 19,
   "componentType": 5123,
   "count": 180,
   "type": "SCALAR"
  },
  {
   "bufferView": 20,
   "componentType": 5126,
   "count": 380,
   "type": "VEC3",
   "min": [
    -1.6,
    0,
    -1.521690426072246
   ],
   "max": [
    1.6,
    62.6,
    1.521690426072246
   ]
  },
  {
   "bufferView": 21,
   "componentType": 5126,
   "count": 380,
   "type": "VEC3"
  },
  {
   "bufferView": 22,
   "componentType": 5126,
   "count": 380,
   "type": "VEC2"
  },
  {
   "bufferView": 23,
   "componentType": 5121,
   "count": 380,
   "type": "VEC4",
   "normalized": true
  },
  {
   "bufferView": 24,
   "componentType": 5123,
   "count": 540,
   "type": "SCALAR"
  },
  {
   "bufferView": 25,
   "componentType": 5126,
   "count": 228,
   "type": "VEC3",
   "min": [
    -1.6,
    0,
    -1.3856406460551018
   ],
   "max": [
    1.6,
    62.60000000000001,
    1.385640646055102
   ]
  },
  {
   "bufferView": 26,
   "componentType": 5126,
   "count": 228,
   "type": "VEC3"
  },
  {
   "bufferView": 27,
   "componentType": 5126,
   "count": 228,
   "type": "VEC2"
  },
  {
   "bufferView": 28,
   "componentType": 5121,
   "count": 228,
   "type": "VEC4",
   "normalized": true
  },
  {
   "bufferView": 29,
   "componentType": 5123,
   "count": 324,
   "type": "SCALAR"
  },
  {
   "bufferView": 30,
   "componentType": 5126,
   "count": 772,
   "type": "VEC3",
   "min": [
    -1.7,
    -2.4,
    -1.9750000000000005
   ],
   "max": [
    1.7,
    2.824,
    4.575
   ]
  },
  {
   "bufferView": 31,
   "componentType": 5126,
   "count": 772,
   "type": "VEC3"
  },
  {
   "bufferView": 32,
   "componentType": 5126,
   "count": 772,
   "type": "VEC2"
  },
  {
   "bufferView": 33,
   "componentType": 5121,
   "count": 772,
   "type": "VEC4",
   "normalized": true
  },
  {
   "bufferView": 34,
   "componentType": 5123,
   "count": 1056,
   "type": "SCALAR"
  },
  {
   "bufferView": 35,
   "componentType": 5126,
   "count": 490,
   "type": "VEC3",
   "min": [
    -1.7,
    -2.4,
    -1.975
   ],
   "max": [
    1.7,
    2.824,
    4.575
   ]
  },
  {
   "bufferView": 36,
   "componentType": 5126,
   "count": 490,
   "type": "VEC3"
  },
  {
   "bufferView": 37,
   "componentType": 5126,
   "count": 490,
   "type": "VEC2"
  },
  {
   "bufferView": 38,
   "componentType": 5121,
   "count": 490,
   "type": "VEC4",
   "normalized": true
  },
  {
   "bufferView": 39,
   "componentType": 5123,
   "count": 678,
   "type": "SCALAR"
  },
  {
   "bufferView": 40,
   "componentType": 5126,
   "count": 250,
   "type": "VEC3",
   "min": [
    -1.7,
    -2.4,
    -1.975
   ],
   "max": [
    1.7,
    1.4722431864335457,
    4.575
   ]
  },
  {
   "bufferView": 41,
   "componentType": 5126,
   "count": 250,
   "type": "VEC3"
  },
  {
   "bufferView": 42,
   "componentType": 5126,
   "count": 250,
   "type": "VEC2"
  },
  {
   "bufferView": 43,
   "componentType": 5121,
   "count": 250,
   "type": "VEC4",
   "normalized": true
  },
  {
   "bufferView": 44,
   "componentType": 5123,
   "count": 342,
   "type": "SCALAR"
  },
  {
   "bufferView": 45,
   "componentType": 5126,
   "count": 210,
   "type": "VEC3",
   "min": [
    -1.7,
    -2.4,
    -1.975
   ],
   "max": [
    1.7,
    1.4722431864335457,
    4.575
   ]
  },
  {
   "bufferView": 46,
   "componentType": 5126,
   "count": 210,
   "type": "VEC3"
  },
  {
   "bufferView": 47,
   "componentType": 5126,
   "count": 210,
   "type": "VEC2"
  },
  {
   "bufferView": 48,
   "componentType": 5121,
   "count": 210,
   "type": "VEC4",
   "normalized": true
  },
  {
   "bufferView": 49,
   "componentType": 5123,
   "count": 294,
   "type": "SCALAR"
  },
  {
   "bufferView": 50,
   "componentType": 5126,
   "count": 5288,
   "type": "VEC3",
   "min": [
    -21.456628111475897,
    -12.542881199265688,
    -1.615
   ],
   "max": [
    21.516245755687613,
    24.72434963772347,
    0.8100000000000004
   ]
  },
  {
   "bufferView": 51,
   "componentType": 5126,
   "count": 5288,
   "type": "VEC3"
  },
  {
   "bufferView": 52,
   "componentType": 5126,
   "count": 5288,
   "type": "VEC2"
  },
  {
   "bufferView": 53,
   "componentType": 5121,
   "count": 5288,
   "type": "VEC4",
   "normalized": true
  },
  {
   "bufferView": 54,
   "componentType": 5123,
   "count": 7728,
   "type": "SCALAR"
  },
  {
   "bufferView": 55,
   "componentType": 5126,
   "count": 1886,
   "type": "VEC3",
   "min": [
    -21.456628111475897,
    -12.542881199265688,
    -1.615
   ],
   "max": [
    21.516245755687613,
    24.724349637723474,
    0.81
   ]
  },
  {
   "bufferView": 56,
   "componentType": 5126,
   "count": 1886,
   "type": "VEC3"
  },
  {
   "bufferView": 57,
   "componentType": 5126,
   "count": 1886,
   "type": "VEC2"
  },
  {
   "bufferView": 58,
   "componentType": 5121,
   "count": 1886,
   "type": "VEC4",
   "normalized": true
  },
  {
   "bufferView": 59,
   "componentType": 5123,
   "count": 2706,
   "type": "SCALAR"
  },
  {
   "bufferView": 60,
   "componentType": 5126,
   "count": 762,
   "type": "VEC3",
   "min": [
    -21.456628111475897,
    -12.542881199265688,
    -1.615
   ],
   "max": [
    21.516245755687613,
    24.72434963772347,
    0.81
   ]
  },
  {
   "bufferView": 61,
   "componentType": 5126,
   "count": 762,
   "type": "VEC3"
  },
  {
   "bufferView": 62,
   "componentType": 5126,
   "count": 762,
   "type": "VEC2"
  },
  {
   "bufferView": 63,
   "componentType": 5121,
   "count": 762,
   "type": "VEC4",
   "normalized": true
  },
  {
   "bufferView": 64,
   "componentType": 5123,
   "count": 1062,
   "type": "SCALAR"
  },
  {
   "bufferView": 65,
   "componentType": 5126,
   "count": 354,
   "type": "VEC3",
   "min": [
    -21.456628111475897,
    -12.542881199265688,
    -1.615
   ],
   "max": [
    21.516245755687613,
    24.72434963772347,
    0.81
   ]
  },
  {
   "bufferView": 66,
   "componentType": 5126,
   "count": 354,
   "type": "VEC3"
  },
  {
   "bufferView": 67,
   "componentType": 5126,
   "count": 354,
   "type": "VEC2"
  },
  {
   "bufferView": 68,
   "componentType": 5121,
   "count": 354,
   "type": "VEC4",
   "normalized": true
  },
  {
   "bufferView": 69,
   "componentType": 5123,
   "count": 486,
   "type": "SCALAR"
  }
 ],
 "bufferViews": [
  {
   "buffer": 0,
   "byteOffset": 437172,
   "byteLength": 19248,
   "target": 34962,
   "byteStride": 12
  },
  {
   "buffer": 0,
   "byteOffset": 456420,
   "byteLength": 19248,
   "target": 34962,
   "byteStride": 12
  },
  {
   "buffer": 0,
   "byteOffset": 475668,
   "byteLength": 12832,
   "target": 34962,
   "byteStride": 8
  },
  {
   "buffer": 0,
   "byteOffset": 488500,
   "byteLength": 6416,
   "target": 34962,
   "byteStride": 4
  },
  {
   "buffer": 0,
   "byteOffset": 494916,
   "byteLength": 4332,
   "target": 34963
  },
  {
   "buffer": 0,
   "byteOffset": 499248,
   "byteLength": 3216,
   "target": 34962,
   "byteStride": 12
  },
  {
   "buffer": 0,
   "byteOffset": 502464,
   "byteLength": 3216,
   "target": 34962,
   "byteStride": 12
  },
  {
   "buffer": 0,
   "byteOffset": 505680,
   "byteLength": 2144,
   "target": 34962,
   "byteStride": 8
  },
  {
   "buffer": 0,
   "byteOffset": 507824,
   "byteLength": 1072,
   "target": 34962,
   "byteStride": 4
  },
  {
   "buffer": 0,
   "byteOffset": 508896,
   "byteLength": 648,
   "target": 34963
  },
  {
   "buffer": 0,
   "byteOffset": 745272,
   "byteLength": 7296,
   "target": 34962,
   "byteStride": 12
  },
  {
   "buffer": 0,
   "byteOffset": 752568,
   "byteLength": 7296,
   "target": 34962,
   "byteStride": 12
  },
  {
   "buffer": 0,
   "byteOffset": 759864,
   "byteLength": 4864,
   "target": 34962,
   "byteStride": 8
  },
  {
   "buffer": 0,
   "byteOffset": 764728,
   "byteLength": 2432,
   "target": 34962,
   "byteStride": 4
  },
  {
   "buffer": 0,
   "byteOffset": 767160,
   "byteLength": 1728,
   "target": 34963
  },
  {
   "buffer": 0,
   "byteOffset": 768888,
   "byteLength": 1776,
   "target": 34962,
   "byteStride": 12
  },
  {
   "buffer": 0,
   "byteOffset": 770664,
   "byteLength": 1776,
   "target": 34962,
   "byteStride": 12
  },
  {
   "buffer": 0,
   "byteOffset": 772440,
   "byteLength": 1184,
   "target": 34962,
   "byteStride": 8
  },
  {
   "buffer": 0,
   "byteOffset": 773624,
   "byteLength": 592,
   "target": 34962,
   "byteStride": 4
  },
  {
   "buffer": 0,
   "byteOffset": 774216,
   "byteLength": 360,
   "target": 34963
  },
  {
   "buffer": 0,
   "byteOffset": 866880,
   "byteLength": 4560,
   "target": 34962,
   "byteStride": 12
  },
  {
   "buffer": 0,
   "byteOffset": 871440,
   "byteLength": 4560,
   "target": 34962,
   "byteStride": 12
  },
  {
   "buffer": 0,
   "byteOffset": 876000,
   "byteLength": 3040,
   "target": 34962,
   "byteStride": 8
  },
  {
   "buffer": 0,
   "byteOffset": 879040,
   "byteLength": 1520,
   "target": 34962,
   "byteStride": 4
  },
  {
   "buffer": 0,
   "byteOffset": 880560,
   "byteLength": 1080,
   "target": 34963
  },
  {
   "buffer": 0,
   "byteOffset": 920880,
   "byteLength": 2736,
   "target": 34962,
   "byteStride": 12
  },
  {
   "buffer": 0,
   "byteOffset": 923616,
   "byteLength": 2736,
   "target": 34962,
   "byteStride": 12
  },
  {
   "buffer": 0,
   "byteOffset": 926352,
   "byteLength": 1824,
   "target": 34962,
   "byteStride": 8
  },
  {
   "buffer": 0,
   "byteOffset": 928176,
   "byteLength": 912,
   "target": 34962,
   "byteStride": 4
  },
  {
   "buffer": 0,
   "byteOffset": 929088,
   "byteLength": 648,
   "target": 34963
  },
  {
   "buffer": 0,
   "byteOffset": 509544,
   "byteLength": 9264,
   "target": 34962,
   "byteStride": 12
  },
  {
   "buffer": 0,
   "byteOffset": 518808,
   "byteLength": 9264,
   "target": 34962,
   "byteStride": 12
  },
  {
   "buffer": 0,
   "byteOffset": 528072,
   "byteLength": 6176,
   "target": 34962,
   "byteStride": 8
  },
  {
   "buffer": 0,
   "byteOffset": 534248,
   "byteLength": 3088,
   "target": 34962,
   "byteStride": 4
  },
  {
   "buffer": 0,
   "byteOffset": 537336,
   "byteLength": 2112,
   "target": 34963
  },
  {
   "buffer": 0,
   "byteOffset": 774576,
   "byteLength": 5880,
   "target": 34962,
   "byteStride": 12
  },
  {
   "buffer": 0,
   "byteOffset": 780456,
   "byteLength": 5880,
   "target": 34962,
   "byteStride": 12
  },
  {
   "buffer": 0,
   "byteOffset": 786336,
   "byteLength": 3920,
   "target": 34962,
   "byteStride": 8
  },
  {
   "buffer": 0,
   "byteOffset": 790256,
   "byteLength": 1960,
   "target": 34962,
   "byteStride": 4
  },
  {
   "buffer": 0,
   "byteOffset": 792216,
   "byteLength": 1356,
   "target": 34963
  },
  {
   "buffer": 0,
   "byteOffset": 881640,
   "byteLength": 3000,
   "target": 34962,
   "byteStride": 12
  },
  {
   "buffer": 0,
   "byteOffset": 884640,
   "byteLength": 3000,
   "target": 34962,
   "byteStride": 12
  },
  {
   "buffer": 0,
   "byteOffset": 887640,
   "byteLength": 2000,
   "target": 34962,
   "byteStride": 8
  },
  {
   "buffer": 0,
   "byteOffset": 889640,
   "byteLength": 1000,
   "target": 34962,
   "byteStride": 4
  },
  {
   "buffer": 0,
   "byteOffset": 890640,
   "byteLength": 684,
   "target": 34963
  },
  {
   "buffer": 0,
   "byteOffset": 929736,
   "byteLength": 2520,
   "target": 34962,
   "byteStride": 12
  },
  {
   "buffer": 0,
   "byteOffset": 932256,
   "byteLength": 2520,
   "target": 34962,
   "byteStride": 12
  },
  {
   "buffer": 0,
   "byteOffset": 934776,
   "byteLength": 1680,
   "target": 34962,
   "byteStride": 8
  },
  {
   "buffer": 0,
   "byteOffset": 936456,
   "byteLength": 840,
   "target": 34962,
   "byteStride": 4
  },
  {
   "buffer": 0,
   "byteOffset": 937296,
   "byteLength": 588,
   "target": 34963
  },
  {
   "buffer": 0,
   "byteOffset": 539448,
   "byteLength": 63456,
   "target": 34962,
   "byteStride": 12
  },
  {
   "buffer": 0,
   "byteOffset": 602904,
   "byteLength": 63456,
   "target": 34962,
   "byteStride": 12
  },
  {
   "buffer": 0,
   "byteOffset": 666360,
   "byteLength": 42304,
   "target": 34962,
   "byteStride": 8
  },
  {
   "buffer": 0,
   "byteOffset": 708664,
   "byteLength": 21152,
   "target": 34962,
   "byteStride": 4
  },
  {
   "buffer": 0,
   "byteOffset": 729816,
   "byteLength": 15456,
   "target": 34963
  },
  {
   "buffer": 0,
   "byteOffset": 793572,
   "byteLength": 22632,
   "target": 34962,
   "byteStride": 12
  },
  {
   "buffer": 0,
   "byteOffset": 816204,
   "byteLength": 22632,
   "target": 34962,
   "byteStride": 12
  },
  {
   "buffer": 0,
   "byteOffset": 838836,
   "byteLength": 15088,
   "target": 34962,
   "byteStride": 8
  },
  {
   "buffer": 0,
   "byteOffset": 853924,
   "byteLength": 7544,
   "target": 34962,
   "byteStride": 4
  },
  {
   "buffer": 0,
   "byteOffset": 861468,
   "byteLength": 5412,
   "target": 34963
  },
  {
   "buffer": 0,
   "byteOffset": 891324,
   "byteLength": 9144,
   "target": 34962,
   "byteStride": 12
  },
  {
   "buffer": 0,
   "byteOffset": 900468,
   "byteLength": 9144,
   "target": 34962,
   "byteStride": 12
  },
  {
   "buffer": 0,
   "byteOffset": 909612,
   "byteLength": 6096,
   "target": 34962,
   "byteStride": 8
  },
  {
   "buffer": 0,
   "byteOffset": 915708,
   "byteLength": 3048,
   "target": 34962,
   "byteStride": 4
  },
  {
   "buffer": 0,
   "byteOffset": 918756,
   "byteLength": 2124,
   "target": 34963
  },
  {
   "buffer": 0,
   "byteOffset": 937884,
   "byteLength": 4248,
   "target": 34962,
   "byteStride": 12
  },
  {
   "buffer": 0,
   "byteOffset": 942132,
   "byteLength": 4248,
   "target": 34962,
   "byteStride": 12
  },
  {
   "buffer": 0,
   "byteOffset": 946380,
   "byteLength": 2832,
   "target": 34962,
   "byteStride": 8
  },
  {
   "buffer": 0,
   "byteOffset": 949212,
   "byteLength": 1416,
   "target": 34962,
   "byteStride": 4
  },
  {
   "buffer": 0,
   "byteOffset": 950628,
   "byteLength": 972,
   "target": 34963
  }
 ],
 "buffers": [
  {
   "uri": "wea_50.bin",
   "byteLength": 1737288
  }
 ]
}
