{
 "asset": {
  "version": "2.0",
  "generator": "tools/wind/build_wind.mjs (Connected Rails)",
  "copyright": "Connected Rails, EUPL v. 1.2 — generated by tools/wind/build_wind.mjs"
 },
 "extensionsUsed": [
  "KHR_materials_emissive_strength"
 ],
 "scene": 0,
 "scenes": [
  {
   "name": "wea_115_enercon",
   "nodes": [
    0,
    1,
    2,
    3,
    4
   ]
  }
 ],
 "nodes": [
  {
   "name": "turm_LOD0",
   "mesh": 0
  },
  {
   "name": "turm_LOD1",
   "mesh": 1
  },
  {
   "name": "turm_LOD2",
   "mesh": 2
  },
  {
   "name": "turm_LOD3",
   "mesh": 3
  },
  {
   "name": "nacelle",
   "translation": [
    0,
    125,
    0
   ],
   "children": [
    5,
    6,
    7,
    8,
    9,
    15
   ]
  },
  {
   "name": "gondel_LOD0",
   "mesh": 4
  },
  {
   "name": "gondel_LOD1",
   "mesh": 5
  },
  {
   "name": "gondel_LOD2",
   "mesh": 6
  },
  {
   "name": "gondel_LOD3",
   "mesh": 7
  },
  {
   "name": "feuer_NIGHT",
   "children": [
    10
   ]
  },
  {
   "name": "blink",
   "children": [
    11,
    12,
    13,
    14
   ]
  },
  {
   "name": "lampe_LOD0",
   "mesh": 8
  },
  {
   "name": "lampe_LOD1",
   "mesh": 9
  },
  {
   "name": "lampe_LOD2",
   "mesh": 10
  },
  {
   "name": "lampe_LOD3",
   "mesh": 11
  },
  {
   "name": "rotor",
   "translation": [
    0,
    0,
    -4.6
   ],
   "rotation": [
    0.043619387365336,
    0,
    0,
    0.9990482215818578
   ],
   "extras": {
    "rotor_diameter": 115,
    "rated_rpm": 14,
    "hub_height": 125
   },
   "children": [
    16,
    17,
    18,
    19
   ]
  },
  {
   "name": "rotor_LOD0",
   "mesh": 12
  },
  {
   "name": "rotor_LOD1",
   "mesh": 13
  },
  {
   "name": "rotor_LOD2",
   "mesh": 14
  },
  {
   "name": "rotor_LOD3",
   "mesh": 15
  }
 ],
 "meshes": [
  {
   "name": "turm_LOD0",
   "primitives": [
    {
     "attributes": {
      "POSITION": 0,
      "NORMAL": 1,
      "TEXCOORD_0": 2,
      "COLOR_0": 3
     },
     "indices": 4,
     "material": 0
    },
    {
     "attributes": {
      "POSITION": 5,
      "NORMAL": 6,
      "TEXCOORD_0": 7,
      "COLOR_0": 8
     },
     "indices": 9,
     "material": 1
    }
   ]
  },
  {
   "name": "turm_LOD1",
   "primitives": [
    {
     "attributes": {
      "POSITION": 10,
      "NORMAL": 11,
      "TEXCOORD_0": 12,
      "COLOR_0": 13
     },
     "indices": 14,
     "material": 0
    },
    {
     "attributes": {
      "POSITION": 15,
      "NORMAL": 16,
      "TEXCOORD_0": 17,
      "COLOR_0": 18
     },
     "indices": 19,
     "material": 1
    }
   ]
  },
  {
   "name": "turm_LOD2",
   "primitives": [
    {
     "attributes": {
      "POSITION": 20,
      "NORMAL": 21,
      "TEXCOORD_0": 22,
      "COLOR_0": 23
     },
     "indices": 24,
     "material": 0
    }
   ]
  },
  {
   "name": "turm_LOD3",
   "primitives": [
    {
     "attributes": {
      "POSITION": 25,
      "NORMAL": 26,
      "TEXCOORD_0": 27,
      "COLOR_0": 28
     },
     "indices": 29,
     "material": 0
    }
   ]
  },
  {
   "name": "gondel_LOD0",
   "primitives": [
    {
     "attributes": {
      "POSITION": 30,
      "NORMAL": 31,
      "TEXCOORD_0": 32,
      "COLOR_0": 33
     },
     "indices": 34,
     "material": 0
    }
   ]
  },
  {
   "name": "gondel_LOD1",
   "primitives": [
    {
     "attributes": {
      "POSITION": 35,
      "NORMAL": 36,
      "TEXCOORD_0": 37,
      "COLOR_0": 38
     },
     "indices": 39,
     "material": 0
    }
   ]
  },
  {
   "name": "gondel_LOD2",
   "primitives": [
    {
     "attributes": {
      "POSITION": 40,
      "NORMAL": 41,
      "TEXCOORD_0": 42,
      "COLOR_0": 43
     },
     "indices": 44,
     "material": 0
    }
   ]
  },
  {
   "name": "gondel_LOD3",
   "primitives": [
    {
     "attributes": {
      "POSITION": 45,
      "NORMAL": 46,
      "TEXCOORD_0": 47,
      "COLOR_0": 48
     },
     "indices": 49,
     "material": 0
    }
   ]
  },
  {
   "name": "lampe_LOD0",
   "primitives": [
    {
     "attributes": {
      "POSITION": 50,
      "NORMAL": 51,
      "TEXCOORD_0": 52,
      "COLOR_0": 53
     },
     "indices": 54,
     "material": 3
    }
   ]
  },
  {
   "name": "lampe_LOD1",
   "primitives": [
    {
     "attributes": {
      "POSITION": 55,
      "NORMAL": 56,
      "TEXCOORD_0": 57,
      "COLOR_0": 58
     },
     "indices": 59,
     "material": 3
    }
   ]
  },
  {
   "name": "lampe_LOD2",
   "primitives": [
    {
     "attributes": {
      "POSITION": 60,
      "NORMAL": 61,
      "TEXCOORD_0": 62,
      "COLOR_0": 63
     },
     "indices": 64,
     "material": 3
    }
   ]
  },
  {
   "name": "lampe_LOD3",
   "primitives": [
    {
     "attributes": {
      "POSITION": 65,
      "NORMAL": 66,
      "TEXCOORD_0": 67,
      "COLOR_0": 68
     },
     "indices": 69,
     "material": 3
    }
   ]
  },
  {
   "name": "rotor_LOD0",
   "primitives": [
    {
     "attributes": {
      "POSITION": 70,
      "NORMAL": 71,
      "TEXCOORD_0": 72,
      "COLOR_0": 73
     },
     "indices": 74,
     "material": 0
    }
   ]
  },
  {
   "name": "rotor_LOD1",
   "primitives": [
    {
     "attributes": {
      "POSITION": 75,
      "NORMAL": 76,
      "TEXCOORD_0": 77,
      "COLOR_0": 78
     },
     "indices": 79,
     "material": 0
    }
   ]
  },
  {
   "name": "rotor_LOD2",
   "primitives": [
    {
     "attributes": {
      "POSITION": 80,
      "NORMAL": 81,
      "TEXCOORD_0": 82,
      "COLOR_0": 83
     },
     "indices": 84,
     "material": 0
    }
   ]
  },
  {
   "name": "rotor_LOD3",
   "primitives": [
    {
     "attributes": {
      "POSITION": 85,
      "NORMAL": 86,
      "TEXCOORD_0": 87,
      "COLOR_0": 88
     },
     "indices": 89,
     "material": 0
    }
   ]
  }
 ],
 "materials": [
  {
   "name": "lack",
   "pbrMetallicRoughness": {
    "baseColorFactor": [
     1,
     1,
     1,
     1
    ],
    "metallicFactor": 1,
    "roughnessFactor": 1,
    "baseColorTexture": {
     "index": 0
    },
    "metallicRoughnessTexture": {
     "index": 1
    }
   },
   "doubleSided": false,
   "occlusionTexture": {
    "index": 1
   },
   "normalTexture": {
    "index": 2,
    "scale": 0.5
   }
  },
  {
   "name": "fundament",
   "pbrMetallicRoughness": {
    "baseColorFactor": [
     1,
     1,
     1,
     1
    ],
    "metallicFactor": 1,
    "roughnessFactor": 1,
    "baseColorTexture": {
     "index": 3
    },
    "metallicRoughnessTexture": {
     "index": 4
    }
   },
   "doubleSided": false,
   "occlusionTexture": {
    "index": 4
   },
   "normalTexture": {
    "index": 5,
    "scale": 1
   }
  },
  {
   "name": "verzinkt",
   "pbrMetallicRoughness": {
    "baseColorFactor": [
     1,
     1,
     1,
     1
    ],
    "metallicFactor": 1,
    "roughnessFactor": 1,
    "baseColorTexture": {
     "index": 6
    },
    "metallicRoughnessTexture": {
     "index": 7
    }
   },
   "doubleSided": false,
   "occlusionTexture": {
    "index": 7
   },
   "normalTexture": {
    "index": 8,
    "scale": 0.36
   }
  },
  {
   "name": "hindernisfeuer",
   "pbrMetallicRoughness": {
    "baseColorFactor": [
     0.8,
     0.03,
     0.03,
     1
    ],
    "metallicFactor": 0,
    "roughnessFactor": 0.3
   },
   "doubleSided": false,
   "emissiveFactor": [
    1,
    0.04,
    0.02
   ],
   "extensions": {
    "KHR_materials_emissive_strength": {
     "emissiveStrength": 40
    }
   }
  },
  {
   "name": "dunkel",
   "pbrMetallicRoughness": {
    "baseColorFactor": [
     0.05,
     0.05,
     0.055,
     1
    ],
    "metallicFactor": 0,
    "roughnessFactor": 0.7
   },
   "doubleSided": false
  }
 ],
 "images": [
  {
   "uri": "lack_colour.png"
  },
  {
   "uri": "lack_orm.png"
  },
  {
   "uri": "lack_normal.png"
  },
  {
   "uri": "beton_colour.png"
  },
  {
   "uri": "beton_orm.png"
  },
  {
   "uri": "beton_normal.png"
  },
  {
   "uri": "verzinkt_colour.png"
  },
  {
   "uri": "verzinkt_orm.png"
  },
  {
   "uri": "verzinkt_normal.png"
  }
 ],
 "textures": [
  {
   "source": 0,
   "sampler": 0
  },
  {
   "source": 1,
   "sampler": 0
  },
  {
   "source": 2,
   "sampler": 0
  },
  {
   "source": 3,
   "sampler": 0
  },
  {
   "source": 4,
   "sampler": 0
  },
  {
   "source": 5,
   "sampler": 0
  },
  {
   "source": 6,
   "sampler": 0
  },
  {
   "source": 7,
   "sampler": 0
  },
  {
   "source": 8,
   "sampler": 0
  }
 ],
 "samplers": [
  {
   "magFilter": 9729,
   "minFilter": 9987,
   "wrapS": 10497,
   "wrapT": 10497
  }
 ],
 "accessors": [
  {
   "bufferView": 0,
   "componentType": 5126,
   "count": 2364,
   "type": "VEC3",
   "min": [
    -2.6,
    0,
    -2.6
   ],
   "max": [
    2.6,
    121.70000000000002,
    2.6152095316351684
   ]
  },
  {
   "bufferView": 1,
   "componentType": 5126,
   "count": 2364,
   "type": "VEC3"
  },
  {
   "bufferView": 2,
   "componentType": 5126,
   "count": 2364,
   "type": "VEC2"
  },
  {
   "bufferView": 3,
   "componentType": 5121,
   "count": 2364,
   "type": "VEC4",
   "normalized": true
  },
  {
   "bufferView": 4,
   "componentType": 5123,
   "count": 3150,
   "type": "SCALAR"
  },
  {
   "bufferView": 5,
   "componentType": 5126,
   "count": 268,
   "type": "VEC3",
   "min": [
    -4.2,
    -0.4,
    -4.2
   ],
   "max": [
    4.2,
    0.25,
    4.2
   ]
  },
  {
   "bufferView": 6,
   "componentType": 5126,
   "count": 268,
   "type": "VEC3"
  },
  {
   "bufferView": 7,
   "componentType": 5126,
   "count": 268,
   "type": "VEC2"
  },
  {
   "bufferView": 8,
   "componentType": 5121,
   "count": 268,
   "type": "VEC4",
   "normalized": true
  },
  {
   "bufferView": 9,
   "componentType": 5123,
   "count": 324,
   "type": "SCALAR"
  },
  {
   "bufferView": 10,
   "componentType": 5126,
   "count": 736,
   "type": "VEC3",
   "min": [
    -2.6,
    0,
    -2.6
   ],
   "max": [
    2.6,
    121.70000000000003,
    2.6
   ]
  },
  {
   "bufferView": 11,
   "componentType": 5126,
   "count": 736,
   "type": "VEC3"
  },
  {
   "bufferView": 12,
   "componentType": 5126,
   "count": 736,
   "type": "VEC2"
  },
  {
   "bufferView": 13,
   "componentType": 5121,
   "count": 736,
   "type": "VEC4",
   "normalized": true
  },
  {
   "bufferView": 14,
   "componentType": 5123,
   "count": 1056,
   "type": "SCALAR"
  },
  {
   "bufferView": 15,
   "componentType": 5126,
   "count": 148,
   "type": "VEC3",
   "min": [
    -4.2,
    -0.4,
    -4.2
   ],
   "max": [
    4.2,
    0.25,
    4.2
   ]
  },
  {
   "bufferView": 16,
   "componentType": 5126,
   "count": 148,
   "type": "VEC3"
  },
  {
   "bufferView": 17,
   "componentType": 5126,
   "count": 148,
   "type": "VEC2"
  },
  {
   "bufferView": 18,
   "componentType": 5121,
   "count": 148,
   "type": "VEC4",
   "normalized": true
  },
  {
   "bufferView": 19,
   "componentType": 5123,
   "count": 180,
   "type": "SCALAR"
  },
  {
   "bufferView": 20,
   "componentType": 5126,
   "count": 460,
   "type": "VEC3",
   "min": [
    -2.6,
    0,
    -2.4727469423673996
   ],
   "max": [
    2.6,
    121.7,
    2.4727469423673996
   ]
  },
  {
   "bufferView": 21,
   "componentType": 5126,
   "count": 460,
   "type": "VEC3"
  },
  {
   "bufferView": 22,
   "componentType": 5126,
   "count": 460,
   "type": "VEC2"
  },
  {
   "bufferView": 23,
   "componentType": 5121,
   "count": 460,
   "type": "VEC4",
   "normalized": true
  },
  {
   "bufferView": 24,
   "componentType": 5123,
   "count": 660,
   "type": "SCALAR"
  },
  {
   "bufferView": 25,
   "componentType": 5126,
   "count": 276,
   "type": "VEC3",
   "min": [
    -2.6,
    0,
    -2.25166604983954
   ],
   "max": [
    2.6,
    121.69999999999999,
    2.2516660498395407
   ]
  },
  {
   "bufferView": 26,
   "componentType": 5126,
   "count": 276,
   "type": "VEC3"
  },
  {
   "bufferView": 27,
   "componentType": 5126,
   "count": 276,
   "type": "VEC2"
  },
  {
   "bufferView": 28,
   "componentType": 5121,
   "count": 276,
   "type": "VEC4",
   "normalized": true
  },
  {
   "bufferView": 29,
   "componentType": 5123,
   "count": 396,
   "type": "SCALAR"
  },
  {
   "bufferView": 30,
   "componentType": 5126,
   "count": 820,
   "type": "VEC3",
   "min": [
    -2.6,
    -3.3,
    -3.3374999999999995
   ],
   "max": [
    2.6,
    3.472,
    9.2125
   ]
  },
  {
   "bufferView": 31,
   "componentType": 5126,
   "count": 820,
   "type": "VEC3"
  },
  {
   "bufferView": 32,
   "componentType": 5126,
   "count": 820,
   "type": "VEC2"
  },
  {
   "bufferView": 33,
   "componentType": 5121,
   "count": 820,
   "type": "VEC4",
   "normalized": true
  },
  {
   "bufferView": 34,
   "componentType": 5123,
   "count": 1128,
   "type": "SCALAR"
  },
  {
   "bufferView": 35,
   "componentType": 5126,
   "count": 538,
   "type": "VEC3",
   "min": [
    -2.6,
    -3.3,
    -3.3374999999999995
   ],
   "max": [
    2.6,
    3.472,
    9.2125
   ]
  },
  {
   "bufferView": 36,
   "componentType": 5126,
   "count": 538,
   "type": "VEC3"
  },
  {
   "bufferView": 37,
   "componentType": 5126,
   "count": 538,
   "type": "VEC2"
  },
  {
   "bufferView": 38,
   "componentType": 5121,
   "count": 538,
   "type": "VEC4",
   "normalized": true
  },
  {
   "bufferView": 39,
   "componentType": 5123,
   "count": 750,
   "type": "SCALAR"
  },
  {
   "bufferView": 40,
   "componentType": 5126,
   "count": 250,
   "type": "VEC3",
   "min": [
    -2.6,
    -3.3,
    -3.3374999999999995
   ],
   "max": [
    2.6,
    2.2516660498395407,
    9.2125
   ]
  },
  {
   "bufferView": 41,
   "componentType": 5126,
   "count": 250,
   "type": "VEC3"
  },
  {
   "bufferView": 42,
   "componentType": 5126,
   "count": 250,
   "type": "VEC2"
  },
  {
   "bufferView": 43,
   "componentType": 5121,
   "count": 250,
   "type": "VEC4",
   "normalized": true
  },
  {
   "bufferView": 44,
   "componentType": 5123,
   "count": 342,
   "type": "SCALAR"
  },
  {
   "bufferView": 45,
   "componentType": 5126,
   "count": 210,
   "type": "VEC3",
   "min": [
    -2.6,
    -3.3,
    -3.3374999999999995
   ],
   "max": [
    2.6,
    2.2516660498395407,
    9.2125
   ]
  },
  {
   "bufferView": 46,
   "componentType": 5126,
   "count": 210,
   "type": "VEC3"
  },
  {
   "bufferView": 47,
   "componentType": 5126,
   "count": 210,
   "type": "VEC2"
  },
  {
   "bufferView": 48,
   "componentType": 5121,
   "count": 210,
   "type": "VEC4",
   "normalized": true
  },
  {
   "bufferView": 49,
   "componentType": 5123,
   "count": 294,
   "type": "SCALAR"
  },
  {
   "bufferView": 50,
   "componentType": 5126,
   "count": 1024,
   "type": "VEC3",
   "min": [
    -1.375,
    2.2180000000000004,
    6.2875000000000005
   ],
   "max": [
    1.375,
    2.568,
    6.6375
   ]
  },
  {
   "bufferView": 51,
   "componentType": 5126,
   "count": 1024,
   "type": "VEC3"
  },
  {
   "bufferView": 52,
   "componentType": 5126,
   "count": 1024,
   "type": "VEC2"
  },
  {
   "bufferView": 53,
   "componentType": 5121,
   "count": 1024,
   "type": "VEC4",
   "normalized": true
  },
  {
   "bufferView": 54,
   "componentType": 5123,
   "count": 1536,
   "type": "SCALAR"
  },
  {
   "bufferView": 55,
   "componentType": 5126,
   "count": 400,
   "type": "VEC3",
   "min": [
    -1.4377641290737884,
    2.2180000000000004,
    6.236372875703132
   ],
   "max": [
    1.4377641290737884,
    2.7180000000000004,
    6.688627124296869
   ]
  },
  {
   "bufferView": 56,
   "componentType": 5126,
   "count": 400,
   "type": "VEC3"
  },
  {
   "bufferView": 57,
   "componentType": 5126,
   "count": 400,
   "type": "VEC2"
  },
  {
   "bufferView": 58,
   "componentType": 5121,
   "count": 400,
   "type": "VEC4",
   "normalized": true
  },
  {
   "bufferView": 59,
   "componentType": 5123,
   "count": 600,
   "type": "SCALAR"
  },
  {
   "bufferView": 60,
   "componentType": 5126,
   "count": 72,
   "type": "VEC3",
   "min": [
    -0.43301270189221935,
    1.7680000000000002,
    6.0875
   ],
   "max": [
    0.43301270189221935,
    2.7680000000000002,
    6.8375
   ]
  },
  {
   "bufferView": 61,
   "componentType": 5126,
   "count": 72,
   "type": "VEC3"
  },
  {
   "bufferView": 62,
   "componentType": 5126,
   "count": 72,
   "type": "VEC2"
  },
  {
   "bufferView": 63,
   "componentType": 5121,
   "count": 72,
   "type": "VEC4",
   "normalized": true
  },
  {
   "bufferView": 64,
   "componentType": 5123,
   "count": 108,
   "type": "SCALAR"
  },
  {
   "bufferView": 65,
   "componentType": 5126,
   "count": 72,
   "type": "VEC3",
   "min": [
    -0.692820323027551,
    1.7680000000000005,
    5.862500000000001
   ],
   "max": [
    0.692820323027551,
    3.3680000000000003,
    7.0625
   ]
  },
  {
   "bufferView": 66,
   "componentType": 5126,
   "count": 72,
   "type": "VEC3"
  },
  {
   "bufferView": 67,
   "componentType": 5126,
   "count": 72,
   "type": "VEC2"
  },
  {
   "bufferView": 68,
   "componentType": 5121,
   "count": 72,
   "type": "VEC4",
   "normalized": true
  },
  {
   "bufferView": 69,
   "componentType": 5123,
   "count": 108,
   "type": "SCALAR"
  },
  {
   "bufferView": 70,
   "componentType": 5126,
   "count": 6008,
   "type": "VEC3",
   "min": [
    -49.319380190714384,
    -28.73270940138008,
    -2.999800618097639
   ],
   "max": [
    49.41874293106723,
    56.863064201413664,
    1.575
   ]
  },
  {
   "bufferView": 71,
   "componentType": 5126,
   "count": 6008,
   "type": "VEC3"
  },
  {
   "bufferView": 72,
   "componentType": 5126,
   "count": 6008,
   "type": "VEC2"
  },
  {
   "bufferView": 73,
   "componentType": 5121,
   "count": 6008,
   "type": "VEC4",
   "normalized": true
  },
  {
   "bufferView": 74,
   "componentType": 5123,
   "count": 8808,
   "type": "SCALAR"
  },
  {
   "bufferView": 75,
   "componentType": 5126,
   "count": 2318,
   "type": "VEC3",
   "min": [
    -49.319380190714384,
    -28.73270940138008,
    -2.9994949398337076
   ],
   "max": [
    49.41874293106723,
    56.863064201413685,
    1.575
   ]
  },
  {
   "bufferView": 76,
   "componentType": 5126,
   "count": 2318,
   "type": "VEC3"
  },
  {
   "bufferView": 77,
   "componentType": 5126,
   "count": 2318,
   "type": "VEC2"
  },
  {
   "bufferView": 78,
   "componentType": 5121,
   "count": 2318,
   "type": "VEC4",
   "normalized": true
  },
  {
   "bufferView": 79,
   "componentType": 5123,
   "count": 3354,
   "type": "SCALAR"
  },
  {
   "bufferView": 80,
   "componentType": 5126,
   "count": 1050,
   "type": "VEC3",
   "min": [
    -49.319380190714384,
    -28.73270940138008,
    -2.99952743138823
   ],
   "max": [
    49.41874293106723,
    56.863064201413664,
    1.575
   ]
  },
  {
   "bufferView": 81,
   "componentType": 5126,
   "count": 1050,
   "type": "VEC3"
  },
  {
   "bufferView": 82,
   "componentType": 5126,
   "count": 1050,
   "type": "VEC2"
  },
  {
   "bufferView": 83,
   "componentType": 5121,
   "count": 1050,
   "type": "VEC4",
   "normalized": true
  },
  {
   "bufferView": 84,
   "componentType": 5123,
   "count": 1494,
   "type": "SCALAR"
  },
  {
   "bufferView": 85,
   "componentType": 5126,
   "count": 498,
   "type": "VEC3",
   "min": [
    -49.319380190714384,
    -28.73270940138008,
    -2.9956535415524814
   ],
   "max": [
    49.41874293106723,
    56.863064201413664,
    1.575
   ]
  },
  {
   "bufferView": 86,
   "componentType": 5126,
   "count": 498,
   "type": "VEC3"
  },
  {
   "bufferView": 87,
   "componentType": 5126,
   "count": 498,
   "type": "VEC2"
  },
  {
   "bufferView": 88,
   "componentType": 5121,
   "count": 498,
   "type": "VEC4",
   "normalized": true
  },
  {
   "bufferView": 89,
   "componentType": 5123,
   "count": 702,
   "type": "SCALAR"
  }
 ],
 "bufferViews": [
  {
   "buffer": 0,
   "byteOffset": 603156,
   "byteLength": 28368,
   "target": 34962,
   "byteStride": 12
  },
  {
   "buffer": 0,
   "byteOffset": 631524,
   "byteLength": 28368,
   "target": 34962,
   "byteStride": 12
  },
  {
   "buffer": 0,
   "byteOffset": 659892,
   "byteLength": 18912,
   "target": 34962,
   "byteStride": 8
  },
  {
   "buffer": 0,
   "byteOffset": 678804,
   "byteLength": 9456,
   "target": 34962,
   "byteStride": 4
  },
  {
   "buffer": 0,
   "byteOffset": 688260,
   "byteLength": 6300,
   "target": 34963
  },
  {
   "buffer": 0,
   "byteOffset": 694560,
   "byteLength": 3216,
   "target": 34962,
   "byteStride": 12
  },
  {
   "buffer": 0,
   "byteOffset": 697776,
   "byteLength": 3216,
   "target": 34962,
   "byteStride": 12
  },
  {
   "buffer": 0,
   "byteOffset": 700992,
   "byteLength": 2144,
   "target": 34962,
   "byteStride": 8
  },
  {
   "buffer": 0,
   "byteOffset": 703136,
   "byteLength": 1072,
   "target": 34962,
   "byteStride": 4
  },
  {
   "buffer": 0,
   "byteOffset": 704208,
   "byteLength": 648,
   "target": 34963
  },
  {
   "buffer": 0,
   "byteOffset": 1010472,
   "byteLength": 8832,
   "target": 34962,
   "byteStride": 12
  },
  {
   "buffer": 0,
   "byteOffset": 1019304,
   "byteLength": 8832,
   "target": 34962,
   "byteStride": 12
  },
  {
   "buffer": 0,
   "byteOffset": 1028136,
   "byteLength": 5888,
   "target": 34962,
   "byteStride": 8
  },
  {
   "buffer": 0,
   "byteOffset": 1034024,
   "byteLength": 2944,
   "target": 34962,
   "byteStride": 4
  },
  {
   "buffer": 0,
   "byteOffset": 1036968,
   "byteLength": 2112,
   "target": 34963
  },
  {
   "buffer": 0,
   "byteOffset": 1039080,
   "byteLength": 1776,
   "target": 34962,
   "byteStride": 12
  },
  {
   "buffer": 0,
   "byteOffset": 1040856,
   "byteLength": 1776,
   "target": 34962,
   "byteStride": 12
  },
  {
   "buffer": 0,
   "byteOffset": 1042632,
   "byteLength": 1184,
   "target": 34962,
   "byteStride": 8
  },
  {
   "buffer": 0,
   "byteOffset": 1043816,
   "byteLength": 592,
   "target": 34962,
   "byteStride": 4
  },
  {
   "buffer": 0,
   "byteOffset": 1044408,
   "byteLength": 360,
   "target": 34963
  },
  {
   "buffer": 0,
   "byteOffset": 1171392,
   "byteLength": 5520,
   "target": 34962,
   "byteStride": 12
  },
  {
   "buffer": 0,
   "byteOffset": 1176912,
   "byteLength": 5520,
   "target": 34962,
   "byteStride": 12
  },
  {
   "buffer": 0,
   "byteOffset": 1182432,
   "byteLength": 3680,
   "target": 34962,
   "byteStride": 8
  },
  {
   "buffer": 0,
   "byteOffset": 1186112,
   "byteLength": 1840,
   "target": 34962,
   "byteStride": 4
  },
  {
   "buffer": 0,
   "byteOffset": 1187952,
   "byteLength": 1320,
   "target": 34963
  },
  {
   "buffer": 0,
   "byteOffset": 1242552,
   "byteLength": 3312,
   "target": 34962,
   "byteStride": 12
  },
  {
   "buffer": 0,
   "byteOffset": 1245864,
   "byteLength": 3312,
   "target": 34962,
   "byteStride": 12
  },
  {
   "buffer": 0,
   "byteOffset": 1249176,
   "byteLength": 2208,
   "target": 34962,
   "byteStride": 8
  },
  {
   "buffer": 0,
   "byteOffset": 1251384,
   "byteLength": 1104,
   "target": 34962,
   "byteStride": 4
  },
  {
   "buffer": 0,
   "byteOffset": 1252488,
   "byteLength": 792,
   "target": 34963
  },
  {
   "buffer": 0,
   "byteOffset": 704856,
   "byteLength": 9840,
   "target": 34962,
   "byteStride": 12
  },
  {
   "buffer": 0,
   "byteOffset": 714696,
   "byteLength": 9840,
   "target": 34962,
   "byteStride": 12
  },
  {
   "buffer": 0,
   "byteOffset": 724536,
   "byteLength": 6560,
   "target": 34962,
   "byteStride": 8
  },
  {
   "buffer": 0,
   "byteOffset": 731096,
   "byteLength": 3280,
   "target": 34962,
   "byteStride": 4
  },
  {
   "buffer": 0,
   "byteOffset": 734376,
   "byteLength": 2256,
   "target": 34963
  },
  {
   "buffer": 0,
   "byteOffset": 1044768,
   "byteLength": 6456,
   "target": 34962,
   "byteStride": 12
  },
  {
   "buffer": 0,
   "byteOffset": 1051224,
   "byteLength": 6456,
   "target": 34962,
   "byteStride": 12
  },
  {
   "buffer": 0,
   "byteOffset": 1057680,
   "byteLength": 4304,
   "target": 34962,
   "byteStride": 8
  },
  {
   "buffer": 0,
   "byteOffset": 1061984,
   "byteLength": 2152,
   "target": 34962,
   "byteStride": 4
  },
  {
   "buffer": 0,
   "byteOffset": 1064136,
   "byteLength": 1500,
   "target": 34963
  },
  {
   "buffer": 0,
   "byteOffset": 1189272,
   "byteLength": 3000,
   "target": 34962,
   "byteStride": 12
  },
  {
   "buffer": 0,
   "byteOffset": 1192272,
   "byteLength": 3000,
   "target": 34962,
   "byteStride": 12
  },
  {
   "buffer": 0,
   "byteOffset": 1195272,
   "byteLength": 2000,
   "target": 34962,
   "byteStride": 8
  },
  {
   "buffer": 0,
   "byteOffset": 1197272,
   "byteLength": 1000,
   "target": 34962,
   "byteStride": 4
  },
  {
   "buffer": 0,
   "byteOffset": 1198272,
   "byteLength": 684,
   "target": 34963
  },
  {
   "buffer": 0,
   "byteOffset": 1253280,
   "byteLength": 2520,
   "target": 34962,
   "byteStride": 12
  },
  {
   "buffer": 0,
   "byteOffset": 1255800,
   "byteLength": 2520,
   "target": 34962,
   "byteStride": 12
  },
  {
   "buffer": 0,
   "byteOffset": 1258320,
   "byteLength": 1680,
   "target": 34962,
   "byteStride": 8
  },
  {
   "buffer": 0,
   "byteOffset": 1260000,
   "byteLength": 840,
   "target": 34962,
   "byteStride": 4
  },
  {
   "buffer": 0,
   "byteOffset": 1260840,
   "byteLength": 588,
   "target": 34963
  },
  {
   "buffer": 0,
   "byteOffset": 736632,
   "byteLength": 12288,
   "target": 34962,
   "byteStride": 12
  },
  {
   "buffer": 0,
   "byteOffset": 748920,
   "byteLength": 12288,
   "target": 34962,
   "byteStride": 12
  },
  {
   "buffer": 0,
   "byteOffset": 761208,
   "byteLength": 8192,
   "target": 34962,
   "byteStride": 8
  },
  {
   "buffer": 0,
   "byteOffset": 769400,
   "byteLength": 4096,
   "target": 34962,
   "byteStride": 4
  },
  {
   "buffer": 0,
   "byteOffset": 773496,
   "byteLength": 3072,
   "target": 34963
  },
  {
   "buffer": 0,
   "byteOffset": 1065636,
   "byteLength": 4800,
   "target": 34962,
   "byteStride": 12
  },
  {
   "buffer": 0,
   "byteOffset": 1070436,
   "byteLength": 4800,
   "target": 34962,
   "byteStride": 12
  },
  {
   "buffer": 0,
   "byteOffset": 1075236,
   "byteLength": 3200,
   "target": 34962,
   "byteStride": 8
  },
  {
   "buffer": 0,
   "byteOffset": 1078436,
   "byteLength": 1600,
   "target": 34962,
   "byteStride": 4
  },
  {
   "buffer": 0,
   "byteOffset": 1080036,
   "byteLength": 1200,
   "target": 34963
  },
  {
   "buffer": 0,
   "byteOffset": 1198956,
   "byteLength": 864,
   "target": 34962,
   "byteStride": 12
  },
  {
   "buffer": 0,
   "byteOffset": 1199820,
   "byteLength": 864,
   "target": 34962,
   "byteStride": 12
  },
  {
   "buffer": 0,
   "byteOffset": 1200684,
   "byteLength": 576,
   "target": 34962,
   "byteStride": 8
  },
  {
   "buffer": 0,
   "byteOffset": 1201260,
   "byteLength": 288,
   "target": 34962,
   "byteStride": 4
  },
  {
   "buffer": 0,
   "byteOffset": 1201548,
   "byteLength": 216,
   "target": 34963
  },
  {
   "buffer": 0,
   "byteOffset": 1261428,
   "byteLength": 864,
   "target": 34962,
   "byteStride": 12
  },
  {
   "buffer": 0,
   "byteOffset": 1262292,
   "byteLength": 864,
   "target": 34962,
   "byteStride": 12
  },
  {
   "buffer": 0,
   "byteOffset": 1263156,
   "byteLength": 576,
   "target": 34962,
   "byteStride": 8
  },
  {
   "buffer": 0,
   "byteOffset": 1263732,
   "byteLength": 288,
   "target": 34962,
   "byteStride": 4
  },
  {
   "buffer": 0,
   "byteOffset": 1264020,
   "byteLength": 216,
   "target": 34963
  },
  {
   "buffer": 0,
   "byteOffset": 776568,
   "byteLength": 72096,
   "target": 34962,
   "byteStride": 12
  },
  {
   "buffer": 0,
   "byteOffset": 848664,
   "byteLength": 72096,
   "target": 34962,
   "byteStride": 12
  },
  {
   "buffer": 0,
   "byteOffset": 920760,
   "byteLength": 48064,
   "target": 34962,
   "byteStride": 8
  },
  {
   "buffer": 0,
   "byteOffset": 968824,
   "byteLength": 24032,
   "target": 34962,
   "byteStride": 4
  },
  {
   "buffer": 0,
   "byteOffset": 992856,
   "byteLength": 17616,
   "target": 34963
  },
  {
   "buffer": 0,
   "byteOffset": 1081236,
   "byteLength": 27816,
   "target": 34962,
   "byteStride": 12
  },
  {
   "buffer": 0,
   "byteOffset": 1109052,
   "byteLength": 27816,
   "target": 34962,
   "byteStride": 12
  },
  {
   "buffer": 0,
   "byteOffset": 1136868,
   "byteLength": 18544,
   "target": 34962,
   "byteStride": 8
  },
  {
   "buffer": 0,
   "byteOffset": 1155412,
   "byteLength": 9272,
   "target": 34962,
   "byteStride": 4
  },
  {
   "buffer": 0,
   "byteOffset": 1164684,
   "byteLength": 6708,
   "target": 34963
  },
  {
   "buffer": 0,
   "byteOffset": 1201764,
   "byteLength": 12600,
   "target": 34962,
   "byteStride": 12
  },
  {
   "buffer": 0,
   "byteOffset": 1214364,
   "byteLength": 12600,
   "target": 34962,
   "byteStride": 12
  },
  {
   "buffer": 0,
   "byteOffset": 1226964,
   "byteLength": 8400,
   "target": 34962,
   "byteStride": 8
  },
  {
   "buffer": 0,
   "byteOffset": 1235364,
   "byteLength": 4200,
   "target": 34962,
   "byteStride": 4
  },
  {
   "buffer": 0,
   "byteOffset": 1239564,
   "byteLength": 2988,
   "target": 34963
  },
  {
   "buffer": 0,
   "byteOffset": 1264236,
   "byteLength": 5976,
   "target": 34962,
   "byteStride": 12
  },
  {
   "buffer": 0,
   "byteOffset": 1270212,
   "byteLength": 5976,
   "target": 34962,
   "byteStride": 12
  },
  {
   "buffer": 0,
   "byteOffset": 1276188,
   "byteLength": 3984,
   "target": 34962,
   "byteStride": 8
  },
  {
   "buffer": 0,
   "byteOffset": 1280172,
   "byteLength": 1992,
   "target": 34962,
   "byteStride": 4
  },
  {
   "buffer": 0,
   "byteOffset": 1282164,
   "byteLength": 1404,
   "target": 34963
  }
 ],
 "buffers": [
  {
   "uri": "wea_115.bin",
   "byteLength": 1283568
  }
 ]
}
