{
 "asset": {
  "version": "2.0",
  "generator": "tools/wind/build_wind.mjs (Connected Rails)",
  "copyright": "Connected Rails, EUPL v. 1.2 — generated by tools/wind/build_wind.mjs"
 },
 "extensionsUsed": [
  "KHR_materials_emissive_strength"
 ],
 "scene": 0,
 "scenes": [
  {
   "name": "wea_50_gitter",
   "nodes": [
    0,
    1,
    2,
    3,
    4
   ]
  }
 ],
 "nodes": [
  {
   "name": "turm_LOD0",
   "mesh": 0
  },
  {
   "name": "turm_LOD1",
   "mesh": 1
  },
  {
   "name": "turm_LOD2",
   "mesh": 2
  },
  {
   "name": "turm_LOD3",
   "mesh": 3
  },
  {
   "name": "nacelle",
   "translation": [
    0,
    65,
    0
   ],
   "children": [
    5,
    6,
    7,
    8,
    9
   ]
  },
  {
   "name": "gondel_LOD0",
   "mesh": 4
  },
  {
   "name": "gondel_LOD1",
   "mesh": 5
  },
  {
   "name": "gondel_LOD2",
   "mesh": 6
  },
  {
   "name": "gondel_LOD3",
   "mesh": 7
  },
  {
   "name": "rotor",
   "translation": [
    0,
    0,
    -2.6
   ],
   "rotation": [
    0.043619387365336,
    0,
    0,
    0.9990482215818578
   ],
   "extras": {
    "rotor_diameter": 50,
    "rated_rpm": 30,
    "hub_height": 65
   },
   "children": [
    10,
    11,
    12,
    13
   ]
  },
  {
   "name": "rotor_LOD0",
   "mesh": 8
  },
  {
   "name": "rotor_LOD1",
   "mesh": 9
  },
  {
   "name": "rotor_LOD2",
   "mesh": 10
  },
  {
   "name": "rotor_LOD3",
   "mesh": 11
  }
 ],
 "meshes": [
  {
   "name": "turm_LOD0",
   "primitives": [
    {
     "attributes": {
      "POSITION": 0,
      "NORMAL": 1,
      "TEXCOORD_0": 2,
      "COLOR_0": 3
     },
     "indices": 4,
     "material": 0
    },
    {
     "attributes": {
      "POSITION": 5,
      "NORMAL": 6,
      "TEXCOORD_0": 7,
      "COLOR_0": 8
     },
     "indices": 9,
     "material": 2
    },
    {
     "attributes": {
      "POSITION": 10,
      "NORMAL": 11,
      "TEXCOORD_0": 12,
      "COLOR_0": 13
     },
     "indices": 14,
     "material": 1
    }
   ]
  },
  {
   "name": "turm_LOD1",
   "primitives": [
    {
     "attributes": {
      "POSITION": 15,
      "NORMAL": 16,
      "TEXCOORD_0": 17,
      "COLOR_0": 18
     },
     "indices": 19,
     "material": 0
    },
    {
     "attributes": {
      "POSITION": 20,
      "NORMAL": 21,
      "TEXCOORD_0": 22,
      "COLOR_0": 23
     },
     "indices": 24,
     "material": 2
    },
    {
     "attributes": {
      "POSITION": 25,
      "NORMAL": 26,
      "TEXCOORD_0": 27,
      "COLOR_0": 28
     },
     "indices": 29,
     "material": 1
    }
   ]
  },
  {
   "name": "turm_LOD2",
   "primitives": [
    {
     "attributes": {
      "POSITION": 30,
      "NORMAL": 31,
      "TEXCOORD_0": 32,
      "COLOR_0": 33
     },
     "indices": 34,
     "material": 0
    },
    {
     "attributes": {
      "POSITION": 35,
      "NORMAL": 36,
      "TEXCOORD_0": 37,
      "COLOR_0": 38
     },
     "indices": 39,
     "material": 2
    }
   ]
  },
  {
   "name": "turm_LOD3",
   "primitives": [
    {
     "attributes": {
      "POSITION": 40,
      "NORMAL": 41,
      "TEXCOORD_0": 42,
      "COLOR_0": 43
     },
     "indices": 44,
     "material": 0
    },
    {
     "attributes": {
      "POSITION": 45,
      "NORMAL": 46,
      "TEXCOORD_0": 47,
      "COLOR_0": 48
     },
     "indices": 49,
     "material": 2
    }
   ]
  },
  {
   "name": "gondel_LOD0",
   "primitives": [
    {
     "attributes": {
      "POSITION": 50,
      "NORMAL": 51,
      "TEXCOORD_0": 52,
      "COLOR_0": 53
     },
     "indices": 54,
     "material": 0
    },
    {
     "attributes": {
      "POSITION": 55,
      "NORMAL": 56,
      "TEXCOORD_0": 57,
      "COLOR_0": 58
     },
     "indices": 59,
     "material": 4
    }
   ]
  },
  {
   "name": "gondel_LOD1",
   "primitives": [
    {
     "attributes": {
      "POSITION": 60,
      "NORMAL": 61,
      "TEXCOORD_0": 62,
      "COLOR_0": 63
     },
     "indices": 64,
     "material": 0
    },
    {
     "attributes": {
      "POSITION": 65,
      "NORMAL": 66,
      "TEXCOORD_0": 67,
      "COLOR_0": 68
     },
     "indices": 69,
     "material": 4
    }
   ]
  },
  {
   "name": "gondel_LOD2",
   "primitives": [
    {
     "attributes": {
      "POSITION": 70,
      "NORMAL": 71,
      "TEXCOORD_0": 72,
      "COLOR_0": 73
     },
     "indices": 74,
     "material": 0
    }
   ]
  },
  {
   "name": "gondel_LOD3",
   "primitives": [
    {
     "attributes": {
      "POSITION": 75,
      "NORMAL": 76,
      "TEXCOORD_0": 77,
      "COLOR_0": 78
     },
     "indices": 79,
     "material": 0
    }
   ]
  },
  {
   "name": "rotor_LOD0",
   "primitives": [
    {
     "attributes": {
      "POSITION": 80,
      "NORMAL": 81,
      "TEXCOORD_0": 82,
      "COLOR_0": 83
     },
     "indices": 84,
     "material": 0
    }
   ]
  },
  {
   "name": "rotor_LOD1",
   "primitives": [
    {
     "attributes": {
      "POSITION": 85,
      "NORMAL": 86,
      "TEXCOORD_0": 87,
      "COLOR_0": 88
     },
     "indices": 89,
     "material": 0
    }
   ]
  },
  {
   "name": "rotor_LOD2",
   "primitives": [
    {
     "attributes": {
      "POSITION": 90,
      "NORMAL": 91,
      "TEXCOORD_0": 92,
      "COLOR_0": 93
     },
     "indices": 94,
     "material": 0
    }
   ]
  },
  {
   "name": "rotor_LOD3",
   "primitives": [
    {
     "attributes": {
      "POSITION": 95,
      "NORMAL": 96,
      "TEXCOORD_0": 97,
      "COLOR_0": 98
     },
     "indices": 99,
     "material": 0
    }
   ]
  }
 ],
 "materials": [
  {
   "name": "lack",
   "pbrMetallicRoughness": {
    "baseColorFactor": [
     1,
     1,
     1,
     1
    ],
    "metallicFactor": 1,
    "roughnessFactor": 1,
    "baseColorTexture": {
     "index": 0
    },
    "metallicRoughnessTexture": {
     "index": 1
    }
   },
   "doubleSided": false,
   "occlusionTexture": {
    "index": 1
   },
   "normalTexture": {
    "index": 2,
    "scale": 0.5
   }
  },
  {
   "name": "fundament",
   "pbrMetallicRoughness": {
    "baseColorFactor": [
     1,
     1,
     1,
     1
    ],
    "metallicFactor": 1,
    "roughnessFactor": 1,
    "baseColorTexture": {
     "index": 3
    },
    "metallicRoughnessTexture": {
     "index": 4
    }
   },
   "doubleSided": false,
   "occlusionTexture": {
    "index": 4
   },
   "normalTexture": {
    "index": 5,
    "scale": 1
   }
  },
  {
   "name": "verzinkt",
   "pbrMetallicRoughness": {
    "baseColorFactor": [
     1,
     1,
     1,
     1
    ],
    "metallicFactor": 1,
    "roughnessFactor": 1,
    "baseColorTexture": {
     "index": 6
    },
    "metallicRoughnessTexture": {
     "index": 7
    }
   },
   "doubleSided": false,
   "occlusionTexture": {
    "index": 7
   },
   "normalTexture": {
    "index": 8,
    "scale": 0.36
   }
  },
  {
   "name": "hindernisfeuer",
   "pbrMetallicRoughness": {
    "baseColorFactor": [
     0.8,
     0.03,
     0.03,
     1
    ],
    "metallicFactor": 0,
    "roughnessFactor": 0.3
   },
   "doubleSided": false,
   "emissiveFactor": [
    1,
    0.04,
    0.02
   ],
   "extensions": {
    "KHR_materials_emissive_strength": {
     "emissiveStrength": 40
    }
   }
  },
  {
   "name": "dunkel",
   "pbrMetallicRoughness": {
    "baseColorFactor": [
     0.05,
     0.05,
     0.055,
     1
    ],
    "metallicFactor": 0,
    "roughnessFactor": 0.7
   },
   "doubleSided": false
  }
 ],
 "images": [
  {
   "uri": "lack_colour.png"
  },
  {
   "uri": "lack_orm.png"
  },
  {
   "uri": "lack_normal.png"
  },
  {
   "uri": "beton_colour.png"
  },
  {
   "uri": "beton_orm.png"
  },
  {
   "uri": "beton_normal.png"
  },
  {
   "uri": "verzinkt_colour.png"
  },
  {
   "uri": "verzinkt_orm.png"
  },
  {
   "uri": "verzinkt_normal.png"
  }
 ],
 "textures": [
  {
   "source": 0,
   "sampler": 0
  },
  {
   "source": 1,
   "sampler": 0
  },
  {
   "source": 2,
   "sampler": 0
  },
  {
   "source": 3,
   "sampler": 0
  },
  {
   "source": 4,
   "sampler": 0
  },
  {
   "source": 5,
   "sampler": 0
  },
  {
   "source": 6,
   "sampler": 0
  },
  {
   "source": 7,
   "sampler": 0
  },
  {
   "source": 8,
   "sampler": 0
  }
 ],
 "samplers": [
  {
   "magFilter": 9729,
   "minFilter": 9987,
   "wrapS": 10497,
   "wrapT": 10497
  }
 ],
 "accessors": [
  {
   "bufferView": 0,
   "componentType": 5126,
   "count": 268,
   "type": "VEC3",
   "min": [
    -1.08,
    62.15,
    -1.08
   ],
   "max": [
    1.08,
    62.76,
    1.08
   ]
  },
  {
   "bufferView": 1,
   "componentType": 5126,
   "count": 268,
   "type": "VEC3"
  },
  {
   "bufferView": 2,
   "componentType": 5126,
   "count": 268,
   "type": "VEC2"
  },
  {
   "bufferView": 3,
   "componentType": 5121,
   "count": 268,
   "type": "VEC4",
   "normalized": true
  },
  {
   "bufferView": 4,
   "componentType": 5123,
   "count": 324,
   "type": "SCALAR"
  },
  {
   "bufferView": 5,
   "componentType": 5126,
   "count": 3584,
   "type": "VEC3",
   "min": [
    -5.834921539185889,
    -0.05561518212921048,
    -5.834168265915098
   ],
   "max": [
    5.834921539185889,
    62.81,
    5.834168265915098
   ]
  },
  {
   "bufferView": 6,
   "componentType": 5126,
   "count": 3584,
   "type": "VEC3"
  },
  {
   "bufferView": 7,
   "componentType": 5126,
   "count": 3584,
   "type": "VEC2"
  },
  {
   "bufferView": 8,
   "componentType": 5121,
   "count": 3584,
   "type": "VEC4",
   "normalized": true
  },
  {
   "bufferView": 9,
   "componentType": 5123,
   "count": 5376,
   "type": "SCALAR"
  },
  {
   "bufferView": 10,
   "componentType": 5126,
   "count": 512,
   "type": "VEC3",
   "min": [
    -6.404545454545454,
    -0.4,
    -6.38699499307273
   ],
   "max": [
    6.404545454545454,
    0.3,
    6.38699499307273
   ]
  },
  {
   "bufferView": 11,
   "componentType": 5126,
   "count": 512,
   "type": "VEC3"
  },
  {
   "bufferView": 12,
   "componentType": 5126,
   "count": 512,
   "type": "VEC2"
  },
  {
   "bufferView": 13,
   "componentType": 5121,
   "count": 512,
   "type": "VEC4",
   "normalized": true
  },
  {
   "bufferView": 14,
   "componentType": 5123,
   "count": 624,
   "type": "SCALAR"
  },
  {
   "bufferView": 15,
   "componentType": 5126,
   "count": 148,
   "type": "VEC3",
   "min": [
    -1.08,
    62.15,
    -1.08
   ],
   "max": [
    1.08,
    62.76,
    1.08
   ]
  },
  {
   "bufferView": 16,
   "componentType": 5126,
   "count": 148,
   "type": "VEC3"
  },
  {
   "bufferView": 17,
   "componentType": 5126,
   "count": 148,
   "type": "VEC2"
  },
  {
   "bufferView": 18,
   "componentType": 5121,
   "count": 148,
   "type": "VEC4",
   "normalized": true
  },
  {
   "bufferView": 19,
   "componentType": 5123,
   "count": 180,
   "type": "SCALAR"
  },
  {
   "bufferView": 20,
   "componentType": 5126,
   "count": 2688,
   "type": "VEC3",
   "min": [
    -5.854979398361341,
    -0.0695189776615131,
    -5.854110236895043
   ],
   "max": [
    5.854979398361341,
    62.825,
    5.854110236895043
   ]
  },
  {
   "bufferView": 21,
   "componentType": 5126,
   "count": 2688,
   "type": "VEC3"
  },
  {
   "bufferView": 22,
   "componentType": 5126,
   "count": 2688,
   "type": "VEC2"
  },
  {
   "bufferView": 23,
   "componentType": 5121,
   "count": 2688,
   "type": "VEC4",
   "normalized": true
  },
  {
   "bufferView": 24,
   "componentType": 5123,
   "count": 4032,
   "type": "SCALAR"
  },
  {
   "bufferView": 25,
   "componentType": 5126,
   "count": 272,
   "type": "VEC3",
   "min": [
    -6.404545454545454,
    -0.4,
    -6.404545454545454
   ],
   "max": [
    6.404545454545454,
    0.3,
    6.404545454545454
   ]
  },
  {
   "bufferView": 26,
   "componentType": 5126,
   "count": 272,
   "type": "VEC3"
  },
  {
   "bufferView": 27,
   "componentType": 5126,
   "count": 272,
   "type": "VEC2"
  },
  {
   "bufferView": 28,
   "componentType": 5121,
   "count": 272,
   "type": "VEC4",
   "normalized": true
  },
  {
   "bufferView": 29,
   "componentType": 5123,
   "count": 336,
   "type": "SCALAR"
  },
  {
   "bufferView": 30,
   "componentType": 5126,
   "count": 88,
   "type": "VEC3",
   "min": [
    -1.08,
    62.15,
    -1.027141037598766
   ],
   "max": [
    1.08,
    62.76,
    1.027141037598766
   ]
  },
  {
   "bufferView": 31,
   "componentType": 5126,
   "count": 88,
   "type": "VEC3"
  },
  {
   "bufferView": 32,
   "componentType": 5126,
   "count": 88,
   "type": "VEC2"
  },
  {
   "bufferView": 33,
   "componentType": 5121,
   "count": 88,
   "type": "VEC4",
   "normalized": true
  },
  {
   "bufferView": 34,
   "componentType": 5123,
   "count": 108,
   "type": "SCALAR"
  },
  {
   "bufferView": 35,
   "componentType": 5126,
   "count": 1856,
   "type": "VEC3",
   "min": [
    -5.885066187124519,
    -0.0926919702153508,
    -5.8840231933649605
   ],
   "max": [
    5.885066187124519,
    62.77740362559212,
    5.8840231933649605
   ]
  },
  {
   "bufferView": 36,
   "componentType": 5126,
   "count": 1856,
   "type": "VEC3"
  },
  {
   "bufferView": 37,
   "componentType": 5126,
   "count": 1856,
   "type": "VEC2"
  },
  {
   "bufferView": 38,
   "componentType": 5121,
   "count": 1856,
   "type": "VEC4",
   "normalized": true
  },
  {
   "bufferView": 39,
   "componentType": 5123,
   "count": 2784,
   "type": "SCALAR"
  },
  {
   "bufferView": 40,
   "componentType": 5126,
   "count": 48,
   "type": "VEC3",
   "min": [
    -1.08,
    62.15,
    -0.9353074360871938
   ],
   "max": [
    1.08,
    62.76,
    0.9353074360871939
   ]
  },
  {
   "bufferView": 41,
   "componentType": 5126,
   "count": 48,
   "type": "VEC3"
  },
  {
   "bufferView": 42,
   "componentType": 5126,
   "count": 48,
   "type": "VEC2"
  },
  {
   "bufferView": 43,
   "componentType": 5121,
   "count": 48,
   "type": "VEC4",
   "normalized": true
  },
  {
   "bufferView": 44,
   "componentType": 5123,
   "count": 60,
   "type": "SCALAR"
  },
  {
   "bufferView": 45,
   "componentType": 5126,
   "count": 1024,
   "type": "VEC3",
   "min": [
    -5.9552686942386,
    -0.03806059110017407,
    -5.953820091794769
   ],
   "max": [
    5.9552686942386,
    62.78806059110017,
    5.953820091794769
   ]
  },
  {
   "bufferView": 46,
   "componentType": 5126,
   "count": 1024,
   "type": "VEC3"
  },
  {
   "bufferView": 47,
   "componentType": 5126,
   "count": 1024,
   "type": "VEC2"
  },
  {
   "bufferView": 48,
   "componentType": 5121,
   "count": 1024,
   "type": "VEC4",
   "normalized": true
  },
  {
   "bufferView": 49,
   "componentType": 5123,
   "count": 1536,
   "type": "SCALAR"
  },
  {
   "bufferView": 50,
   "componentType": 5126,
   "count": 700,
   "type": "VEC3",
   "min": [
    -1.4,
    -2.25,
    -1.925
   ],
   "max": [
    1.4,
    3,
    4.575
   ]
  },
  {
   "bufferView": 51,
   "componentType": 5126,
   "count": 700,
   "type": "VEC3"
  },
  {
   "bufferView": 52,
   "componentType": 5126,
   "count": 700,
   "type": "VEC2"
  },
  {
   "bufferView": 53,
   "componentType": 5121,
   "count": 700,
   "type": "VEC4",
   "normalized": true
  },
  {
   "bufferView": 54,
   "componentType": 5123,
   "count": 912,
   "type": "SCALAR"
  },
  {
   "bufferView": 55,
   "componentType": 5126,
   "count": 4,
   "type": "VEC3",
   "min": [
    -0.84,
    -0.84,
    4.595
   ],
   "max": [
    0.84,
    0.84,
    4.595
   ]
  },
  {
   "bufferView": 56,
   "componentType": 5126,
   "count": 4,
   "type": "VEC3"
  },
  {
   "bufferView": 57,
   "componentType": 5126,
   "count": 4,
   "type": "VEC2"
  },
  {
   "bufferView": 58,
   "componentType": 5121,
   "count": 4,
   "type": "VEC4",
   "normalized": true
  },
  {
   "bufferView": 59,
   "componentType": 5123,
   "count": 6,
   "type": "SCALAR"
  },
  {
   "bufferView": 60,
   "componentType": 5126,
   "count": 436,
   "type": "VEC3",
   "min": [
    -1.4,
    -2.25,
    -1.925
   ],
   "max": [
    1.4,
    3,
    4.575
   ]
  },
  {
   "bufferView": 61,
   "componentType": 5126,
   "count": 436,
   "type": "VEC3"
  },
  {
   "bufferView": 62,
   "componentType": 5126,
   "count": 436,
   "type": "VEC2"
  },
  {
   "bufferView": 63,
   "componentType": 5121,
   "count": 436,
   "type": "VEC4",
   "normalized": true
  },
  {
   "bufferView": 64,
   "componentType": 5123,
   "count": 576,
   "type": "SCALAR"
  },
  {
   "bufferView": 65,
   "componentType": 5126,
   "count": 4,
   "type": "VEC3",
   "min": [
    -0.84,
    -0.84,
    4.595
   ],
   "max": [
    0.84,
    0.84,
    4.595
   ]
  },
  {
   "bufferView": 66,
   "componentType": 5126,
   "count": 4,
   "type": "VEC3"
  },
  {
   "bufferView": 67,
   "componentType": 5126,
   "count": 4,
   "type": "VEC2"
  },
  {
   "bufferView": 68,
   "componentType": 5121,
   "count": 4,
   "type": "VEC4",
   "normalized": true
  },
  {
   "bufferView": 69,
   "componentType": 5123,
   "count": 6,
   "type": "SCALAR"
  },
  {
   "bufferView": 70,
   "componentType": 5126,
   "count": 200,
   "type": "VEC3",
   "min": [
    -1.4,
    -2.25,
    -1.9250000000000003
   ],
   "max": [
    1.4,
    1.4,
    4.575
   ]
  },
  {
   "bufferView": 71,
   "componentType": 5126,
   "count": 200,
   "type": "VEC3"
  },
  {
   "bufferView": 72,
   "componentType": 5126,
   "count": 200,
   "type": "VEC2"
  },
  {
   "bufferView": 73,
   "componentType": 5121,
   "count": 200,
   "type": "VEC4",
   "normalized": true
  },
  {
   "bufferView": 74,
   "componentType": 5123,
   "count": 252,
   "type": "SCALAR"
  },
  {
   "bufferView": 75,
   "componentType": 5126,
   "count": 160,
   "type": "VEC3",
   "min": [
    -1.4,
    -2.25,
    -1.9250000000000003
   ],
   "max": [
    1.4,
    1.4,
    4.575
   ]
  },
  {
   "bufferView": 76,
   "componentType": 5126,
   "count": 160,
   "type": "VEC3"
  },
  {
   "bufferView": 77,
   "componentType": 5126,
   "count": 160,
   "type": "VEC2"
  },
  {
   "bufferView": 78,
   "componentType": 5121,
   "count": 160,
   "type": "VEC4",
   "normalized": true
  },
  {
   "bufferView": 79,
   "componentType": 5123,
   "count": 204,
   "type": "SCALAR"
  },
  {
   "bufferView": 80,
   "componentType": 5126,
   "count": 5288,
   "type": "VEC3",
   "min": [
    -21.456628111475897,
    -12.542881199265688,
    -1.3075884787740815
   ],
   "max": [
    21.516245755687613,
    24.72434963772347,
    0.7066658282308425
   ]
  },
  {
   "bufferView": 81,
   "componentType": 5126,
   "count": 5288,
   "type": "VEC3"
  },
  {
   "bufferView": 82,
   "componentType": 5126,
   "count": 5288,
   "type": "VEC2"
  },
  {
   "bufferView": 83,
   "componentType": 5121,
   "count": 5288,
   "type": "VEC4",
   "normalized": true
  },
  {
   "bufferView": 84,
   "componentType": 5123,
   "count": 7728,
   "type": "SCALAR"
  },
  {
   "bufferView": 85,
   "componentType": 5126,
   "count": 1886,
   "type": "VEC3",
   "min": [
    -21.456628111475897,
    -12.542881199265688,
    -1.3074050718157226
   ],
   "max": [
    21.516245755687613,
    24.724349637723474,
    0.6902765287811967
   ]
  },
  {
   "bufferView": 86,
   "componentType": 5126,
   "count": 1886,
   "type": "VEC3"
  },
  {
   "bufferView": 87,
   "componentType": 5126,
   "count": 1886,
   "type": "VEC2"
  },
  {
   "bufferView": 88,
   "componentType": 5121,
   "count": 1886,
   "type": "VEC4",
   "normalized": true
  },
  {
   "bufferView": 89,
   "componentType": 5123,
   "count": 2706,
   "type": "SCALAR"
  },
  {
   "bufferView": 90,
   "componentType": 5126,
   "count": 762,
   "type": "VEC3",
   "min": [
    -21.456628111475897,
    -12.542881199265688,
    -1.307424566748436
   ],
   "max": [
    21.516245755687613,
    24.72434963772347,
    0.6699582154522077
   ]
  },
  {
   "bufferView": 91,
   "componentType": 5126,
   "count": 762,
   "type": "VEC3"
  },
  {
   "bufferView": 92,
   "componentType": 5126,
   "count": 762,
   "type": "VEC2"
  },
  {
   "bufferView": 93,
   "componentType": 5121,
   "count": 762,
   "type": "VEC4",
   "normalized": true
  },
  {
   "bufferView": 94,
   "componentType": 5123,
   "count": 1062,
   "type": "SCALAR"
  },
  {
   "bufferView": 95,
   "componentType": 5126,
   "count": 276,
   "type": "VEC3",
   "min": [
    -21.456628111475897,
    -12.542881199265688,
    -1.305100232846987
   ],
   "max": [
    21.516245755687613,
    24.72434963772347,
    0.6699582154522077
   ]
  },
  {
   "bufferView": 96,
   "componentType": 5126,
   "count": 276,
   "type": "VEC3"
  },
  {
   "bufferView": 97,
   "componentType": 5126,
   "count": 276,
   "type": "VEC2"
  },
  {
   "bufferView": 98,
   "componentType": 5121,
   "count": 276,
   "type": "VEC4",
   "normalized": true
  },
  {
   "bufferView": 99,
   "componentType": 5123,
   "count": 360,
   "type": "SCALAR"
  }
 ],
 "bufferViews": [
  {
   "buffer": 0,
   "byteOffset": 951600,
   "byteLength": 3216,
   "target": 34962,
   "byteStride": 12
  },
  {
   "buffer": 0,
   "byteOffset": 954816,
   "byteLength": 3216,
   "target": 34962,
   "byteStride": 12
  },
  {
   "buffer": 0,
   "byteOffset": 958032,
   "byteLength": 2144,
   "target": 34962,
   "byteStride": 8
  },
  {
   "buffer": 0,
   "byteOffset": 960176,
   "byteLength": 1072,
   "target": 34962,
   "byteStride": 4
  },
  {
   "buffer": 0,
   "byteOffset": 961248,
   "byteLength": 648,
   "target": 34963
  },
  {
   "buffer": 0,
   "byteOffset": 961896,
   "byteLength": 43008,
   "target": 34962,
   "byteStride": 12
  },
  {
   "buffer": 0,
   "byteOffset": 1004904,
   "byteLength": 43008,
   "target": 34962,
   "byteStride": 12
  },
  {
   "buffer": 0,
   "byteOffset": 1047912,
   "byteLength": 28672,
   "target": 34962,
   "byteStride": 8
  },
  {
   "buffer": 0,
   "byteOffset": 1076584,
   "byteLength": 14336,
   "target": 34962,
   "byteStride": 4
  },
  {
   "buffer": 0,
   "byteOffset": 1090920,
   "byteLength": 10752,
   "target": 34963
  },
  {
   "buffer": 0,
   "byteOffset": 1101672,
   "byteLength": 6144,
   "target": 34962,
   "byteStride": 12
  },
  {
   "buffer": 0,
   "byteOffset": 1107816,
   "byteLength": 6144,
   "target": 34962,
   "byteStride": 12
  },
  {
   "buffer": 0,
   "byteOffset": 1113960,
   "byteLength": 4096,
   "target": 34962,
   "byteStride": 8
  },
  {
   "buffer": 0,
   "byteOffset": 1118056,
   "byteLength": 2048,
   "target": 34962,
   "byteStride": 4
  },
  {
   "buffer": 0,
   "byteOffset": 1120104,
   "byteLength": 1248,
   "target": 34963
  },
  {
   "buffer": 0,
   "byteOffset": 1354356,
   "byteLength": 1776,
   "target": 34962,
   "byteStride": 12
  },
  {
   "buffer": 0,
   "byteOffset": 1356132,
   "byteLength": 1776,
   "target": 34962,
   "byteStride": 12
  },
  {
   "buffer": 0,
   "byteOffset": 1357908,
   "byteLength": 1184,
   "target": 34962,
   "byteStride": 8
  },
  {
   "buffer": 0,
   "byteOffset": 1359092,
   "byteLength": 592,
   "target": 34962,
   "byteStride": 4
  },
  {
   "buffer": 0,
   "byteOffset": 1359684,
   "byteLength": 360,
   "target": 34963
  },
  {
   "buffer": 0,
   "byteOffset": 1360044,
   "byteLength": 32256,
   "target": 34962,
   "byteStride": 12
  },
  {
   "buffer": 0,
   "byteOffset": 1392300,
   "byteLength": 32256,
   "target": 34962,
   "byteStride": 12
  },
  {
   "buffer": 0,
   "byteOffset": 1424556,
   "byteLength": 21504,
   "target": 34962,
   "byteStride": 8
  },
  {
   "buffer": 0,
   "byteOffset": 1446060,
   "byteLength": 10752,
   "target": 34962,
   "byteStride": 4
  },
  {
   "buffer": 0,
   "byteOffset": 1456812,
   "byteLength": 8064,
   "target": 34963
  },
  {
   "buffer": 0,
   "byteOffset": 1464876,
   "byteLength": 3264,
   "target": 34962,
   "byteStride": 12
  },
  {
   "buffer": 0,
   "byteOffset": 1468140,
   "byteLength": 3264,
   "target": 34962,
   "byteStride": 12
  },
  {
   "buffer": 0,
   "byteOffset": 1471404,
   "byteLength": 2176,
   "target": 34962,
   "byteStride": 8
  },
  {
   "buffer": 0,
   "byteOffset": 1473580,
   "byteLength": 1088,
   "target": 34962,
   "byteStride": 4
  },
  {
   "buffer": 0,
   "byteOffset": 1474668,
   "byteLength": 672,
   "target": 34963
  },
  {
   "buffer": 0,
   "byteOffset": 1565652,
   "byteLength": 1056,
   "target": 34962,
   "byteStride": 12
  },
  {
   "buffer": 0,
   "byteOffset": 1566708,
   "byteLength": 1056,
   "target": 34962,
   "byteStride": 12
  },
  {
   "buffer": 0,
   "byteOffset": 1567764,
   "byteLength": 704,
   "target": 34962,
   "byteStride": 8
  },
  {
   "buffer": 0,
   "byteOffset": 1568468,
   "byteLength": 352,
   "target": 34962,
   "byteStride": 4
  },
  {
   "buffer": 0,
   "byteOffset": 1568820,
   "byteLength": 216,
   "target": 34963
  },
  {
   "buffer": 0,
   "byteOffset": 1569036,
   "byteLength": 22272,
   "target": 34962,
   "byteStride": 12
  },
  {
   "buffer": 0,
   "byteOffset": 1591308,
   "byteLength": 22272,
   "target": 34962,
   "byteStride": 12
  },
  {
   "buffer": 0,
   "byteOffset": 1613580,
   "byteLength": 14848,
   "target": 34962,
   "byteStride": 8
  },
  {
   "buffer": 0,
   "byteOffset": 1628428,
   "byteLength": 7424,
   "target": 34962,
   "byteStride": 4
  },
  {
   "buffer": 0,
   "byteOffset": 1635852,
   "byteLength": 5568,
   "target": 34963
  },
  {
   "buffer": 0,
   "byteOffset": 1678680,
   "byteLength": 576,
   "target": 34962,
   "byteStride": 12
  },
  {
   "buffer": 0,
   "byteOffset": 1679256,
   "byteLength": 576,
   "target": 34962,
   "byteStride": 12
  },
  {
   "buffer": 0,
   "byteOffset": 1679832,
   "byteLength": 384,
   "target": 34962,
   "byteStride": 8
  },
  {
   "buffer": 0,
   "byteOffset": 1680216,
   "byteLength": 192,
   "target": 34962,
   "byteStride": 4
  },
  {
   "buffer": 0,
   "byteOffset": 1680408,
   "byteLength": 120,
   "target": 34963
  },
  {
   "buffer": 0,
   "byteOffset": 1680528,
   "byteLength": 12288,
   "target": 34962,
   "byteStride": 12
  },
  {
   "buffer": 0,
   "byteOffset": 1692816,
   "byteLength": 12288,
   "target": 34962,
   "byteStride": 12
  },
  {
   "buffer": 0,
   "byteOffset": 1705104,
   "byteLength": 8192,
   "target": 34962,
   "byteStride": 8
  },
  {
   "buffer": 0,
   "byteOffset": 1713296,
   "byteLength": 4096,
   "target": 34962,
   "byteStride": 4
  },
  {
   "buffer": 0,
   "byteOffset": 1717392,
   "byteLength": 3072,
   "target": 34963
  },
  {
   "buffer": 0,
   "byteOffset": 1121352,
   "byteLength": 8400,
   "target": 34962,
   "byteStride": 12
  },
  {
   "buffer": 0,
   "byteOffset": 1129752,
   "byteLength": 8400,
   "target": 34962,
   "byteStride": 12
  },
  {
   "buffer": 0,
   "byteOffset": 1138152,
   "byteLength": 5600,
   "target": 34962,
   "byteStride": 8
  },
  {
   "buffer": 0,
   "byteOffset": 1143752,
   "byteLength": 2800,
   "target": 34962,
   "byteStride": 4
  },
  {
   "buffer": 0,
   "byteOffset": 1146552,
   "byteLength": 1824,
   "target": 34963
  },
  {
   "buffer": 0,
   "byteOffset": 1148376,
   "byteLength": 48,
   "target": 34962,
   "byteStride": 12
  },
  {
   "buffer": 0,
   "byteOffset": 1148424,
   "byteLength": 48,
   "target": 34962,
   "byteStride": 12
  },
  {
   "buffer": 0,
   "byteOffset": 1148472,
   "byteLength": 32,
   "target": 34962,
   "byteStride": 8
  },
  {
   "buffer": 0,
   "byteOffset": 1148504,
   "byteLength": 16,
   "target": 34962,
   "byteStride": 4
  },
  {
   "buffer": 0,
   "byteOffset": 1148520,
   "byteLength": 12,
   "target": 34963
  },
  {
   "buffer": 0,
   "byteOffset": 1475340,
   "byteLength": 5232,
   "target": 34962,
   "byteStride": 12
  },
  {
   "buffer": 0,
   "byteOffset": 1480572,
   "byteLength": 5232,
   "target": 34962,
   "byteStride": 12
  },
  {
   "buffer": 0,
   "byteOffset": 1485804,
   "byteLength": 3488,
   "target": 34962,
   "byteStride": 8
  },
  {
   "buffer": 0,
   "byteOffset": 1489292,
   "byteLength": 1744,
   "target": 34962,
   "byteStride": 4
  },
  {
   "buffer": 0,
   "byteOffset": 1491036,
   "byteLength": 1152,
   "target": 34963
  },
  {
   "buffer": 0,
   "byteOffset": 1492188,
   "byteLength": 48,
   "target": 34962,
   "byteStride": 12
  },
  {
   "buffer": 0,
   "byteOffset": 1492236,
   "byteLength": 48,
   "target": 34962,
   "byteStride": 12
  },
  {
   "buffer": 0,
   "byteOffset": 1492284,
   "byteLength": 32,
   "target": 34962,
   "byteStride": 8
  },
  {
   "buffer": 0,
   "byteOffset": 1492316,
   "byteLength": 16,
   "target": 34962,
   "byteStride": 4
  },
  {
   "buffer": 0,
   "byteOffset": 1492332,
   "byteLength": 12,
   "target": 34963
  },
  {
   "buffer": 0,
   "byteOffset": 1641420,
   "byteLength": 2400,
   "target": 34962,
   "byteStride": 12
  },
  {
   "buffer": 0,
   "byteOffset": 1643820,
   "byteLength": 2400,
   "target": 34962,
   "byteStride": 12
  },
  {
   "buffer": 0,
   "byteOffset": 1646220,
   "byteLength": 1600,
   "target": 34962,
   "byteStride": 8
  },
  {
   "buffer": 0,
   "byteOffset": 1647820,
   "byteLength": 800,
   "target": 34962,
   "byteStride": 4
  },
  {
   "buffer": 0,
   "byteOffset": 1648620,
   "byteLength": 504,
   "target": 34963
  },
  {
   "buffer": 0,
   "byteOffset": 1720464,
   "byteLength": 1920,
   "target": 34962,
   "byteStride": 12
  },
  {
   "buffer": 0,
   "byteOffset": 1722384,
   "byteLength": 1920,
   "target": 34962,
   "byteStride": 12
  },
  {
   "buffer": 0,
   "byteOffset": 1724304,
   "byteLength": 1280,
   "target": 34962,
   "byteStride": 8
  },
  {
   "buffer": 0,
   "byteOffset": 1725584,
   "byteLength": 640,
   "target": 34962,
   "byteStride": 4
  },
  {
   "buffer": 0,
   "byteOffset": 1726224,
   "byteLength": 408,
   "target": 34963
  },
  {
   "buffer": 0,
   "byteOffset": 1148532,
   "byteLength": 63456,
   "target": 34962,
   "byteStride": 12
  },
  {
   "buffer": 0,
   "byteOffset": 1211988,
   "byteLength": 63456,
   "target": 34962,
   "byteStride": 12
  },
  {
   "buffer": 0,
   "byteOffset": 1275444,
   "byteLength": 42304,
   "target": 34962,
   "byteStride": 8
  },
  {
   "buffer": 0,
   "byteOffset": 1317748,
   "byteLength": 21152,
   "target": 34962,
   "byteStride": 4
  },
  {
   "buffer": 0,
   "byteOffset": 1338900,
   "byteLength": 15456,
   "target": 34963
  },
  {
   "buffer": 0,
   "byteOffset": 1492344,
   "byteLength": 22632,
   "target": 34962,
   "byteStride": 12
  },
  {
   "buffer": 0,
   "byteOffset": 1514976,
   "byteLength": 22632,
   "target": 34962,
   "byteStride": 12
  },
  {
   "buffer": 0,
   "byteOffset": 1537608,
   "byteLength": 15088,
   "target": 34962,
   "byteStride": 8
  },
  {
   "buffer": 0,
   "byteOffset": 1552696,
   "byteLength": 7544,
   "target": 34962,
   "byteStride": 4
  },
  {
   "buffer": 0,
   "byteOffset": 1560240,
   "byteLength": 5412,
   "target": 34963
  },
  {
   "buffer": 0,
   "byteOffset": 1649124,
   "byteLength": 9144,
   "target": 34962,
   "byteStride": 12
  },
  {
   "buffer": 0,
   "byteOffset": 1658268,
   "byteLength": 9144,
   "target": 34962,
   "byteStride": 12
  },
  {
   "buffer": 0,
   "byteOffset": 1667412,
   "byteLength": 6096,
   "target": 34962,
   "byteStride": 8
  },
  {
   "buffer": 0,
   "byteOffset": 1673508,
   "byteLength": 3048,
   "target": 34962,
   "byteStride": 4
  },
  {
   "buffer": 0,
   "byteOffset": 1676556,
   "byteLength": 2124,
   "target": 34963
  },
  {
   "buffer": 0,
   "byteOffset": 1726632,
   "byteLength": 3312,
   "target": 34962,
   "byteStride": 12
  },
  {
   "buffer": 0,
   "byteOffset": 1729944,
   "byteLength": 3312,
   "target": 34962,
   "byteStride": 12
  },
  {
   "buffer": 0,
   "byteOffset": 1733256,
   "byteLength": 2208,
   "target": 34962,
   "byteStride": 8
  },
  {
   "buffer": 0,
   "byteOffset": 1735464,
   "byteLength": 1104,
   "target": 34962,
   "byteStride": 4
  },
  {
   "buffer": 0,
   "byteOffset": 1736568,
   "byteLength": 720,
   "target": 34963
  }
 ],
 "buffers": [
  {
   "uri": "wea_50.bin",
   "byteLength": 1737288
  }
 ]
}
