{
 "asset": {
  "version": "2.0",
  "generator": "tools/wind/build_wind.mjs (Connected Rails)",
  "copyright": "Connected Rails, EUPL v. 1.2 — generated by tools/wind/build_wind.mjs"
 },
 "extensionsUsed": [
  "KHR_materials_emissive_strength"
 ],
 "scene": 0,
 "scenes": [
  {
   "name": "wea_150_standard",
   "nodes": [
    0,
    1,
    2,
    3,
    4
   ]
  }
 ],
 "nodes": [
  {
   "name": "turm_LOD0",
   "mesh": 0
  },
  {
   "name": "turm_LOD1",
   "mesh": 1
  },
  {
   "name": "turm_LOD2",
   "mesh": 2
  },
  {
   "name": "turm_LOD3",
   "mesh": 3
  },
  {
   "name": "nacelle",
   "translation": [
    0,
    140,
    0
   ],
   "children": [
    5,
    6,
    7,
    8,
    9,
    15
   ]
  },
  {
   "name": "gondel_LOD0",
   "mesh": 4
  },
  {
   "name": "gondel_LOD1",
   "mesh": 5
  },
  {
   "name": "gondel_LOD2",
   "mesh": 6
  },
  {
   "name": "gondel_LOD3",
   "mesh": 7
  },
  {
   "name": "feuer_NIGHT",
   "children": [
    10
   ]
  },
  {
   "name": "blink",
   "children": [
    11,
    12,
    13,
    14
   ]
  },
  {
   "name": "lampe_LOD0",
   "mesh": 8
  },
  {
   "name": "lampe_LOD1",
   "mesh": 9
  },
  {
   "name": "lampe_LOD2",
   "mesh": 10
  },
  {
   "name": "lampe_LOD3",
   "mesh": 11
  },
  {
   "name": "rotor",
   "translation": [
    0,
    0,
    -5.6
   ],
   "rotation": [
    0.043619387365336,
    0,
    0,
    0.9990482215818578
   ],
   "extras": {
    "rotor_diameter": 150,
    "rated_rpm": 11,
    "hub_height": 140
   },
   "children": [
    16,
    17,
    18,
    19
   ]
  },
  {
   "name": "rotor_LOD0",
   "mesh": 12
  },
  {
   "name": "rotor_LOD1",
   "mesh": 13
  },
  {
   "name": "rotor_LOD2",
   "mesh": 14
  },
  {
   "name": "rotor_LOD3",
   "mesh": 15
  }
 ],
 "meshes": [
  {
   "name": "turm_LOD0",
   "primitives": [
    {
     "attributes": {
      "POSITION": 0,
      "NORMAL": 1,
      "TEXCOORD_0": 2,
      "COLOR_0": 3
     },
     "indices": 4,
     "material": 0
    },
    {
     "attributes": {
      "POSITION": 5,
      "NORMAL": 6,
      "TEXCOORD_0": 7,
      "COLOR_0": 8
     },
     "indices": 9,
     "material": 1
    }
   ]
  },
  {
   "name": "turm_LOD1",
   "primitives": [
    {
     "attributes": {
      "POSITION": 10,
      "NORMAL": 11,
      "TEXCOORD_0": 12,
      "COLOR_0": 13
     },
     "indices": 14,
     "material": 0
    },
    {
     "attributes": {
      "POSITION": 15,
      "NORMAL": 16,
      "TEXCOORD_0": 17,
      "COLOR_0": 18
     },
     "indices": 19,
     "material": 1
    }
   ]
  },
  {
   "name": "turm_LOD2",
   "primitives": [
    {
     "attributes": {
      "POSITION": 20,
      "NORMAL": 21,
      "TEXCOORD_0": 22,
      "COLOR_0": 23
     },
     "indices": 24,
     "material": 0
    }
   ]
  },
  {
   "name": "turm_LOD3",
   "primitives": [
    {
     "attributes": {
      "POSITION": 25,
      "NORMAL": 26,
      "TEXCOORD_0": 27,
      "COLOR_0": 28
     },
     "indices": 29,
     "material": 0
    }
   ]
  },
  {
   "name": "gondel_LOD0",
   "primitives": [
    {
     "attributes": {
      "POSITION": 30,
      "NORMAL": 31,
      "TEXCOORD_0": 32,
      "COLOR_0": 33
     },
     "indices": 34,
     "material": 0
    },
    {
     "attributes": {
      "POSITION": 35,
      "NORMAL": 36,
      "TEXCOORD_0": 37,
      "COLOR_0": 38
     },
     "indices": 39,
     "material": 4
    }
   ]
  },
  {
   "name": "gondel_LOD1",
   "primitives": [
    {
     "attributes": {
      "POSITION": 40,
      "NORMAL": 41,
      "TEXCOORD_0": 42,
      "COLOR_0": 43
     },
     "indices": 44,
     "material": 0
    },
    {
     "attributes": {
      "POSITION": 45,
      "NORMAL": 46,
      "TEXCOORD_0": 47,
      "COLOR_0": 48
     },
     "indices": 49,
     "material": 4
    }
   ]
  },
  {
   "name": "gondel_LOD2",
   "primitives": [
    {
     "attributes": {
      "POSITION": 50,
      "NORMAL": 51,
      "TEXCOORD_0": 52,
      "COLOR_0": 53
     },
     "indices": 54,
     "material": 0
    }
   ]
  },
  {
   "name": "gondel_LOD3",
   "primitives": [
    {
     "attributes": {
      "POSITION": 55,
      "NORMAL": 56,
      "TEXCOORD_0": 57,
      "COLOR_0": 58
     },
     "indices": 59,
     "material": 0
    }
   ]
  },
  {
   "name": "lampe_LOD0",
   "primitives": [
    {
     "attributes": {
      "POSITION": 60,
      "NORMAL": 61,
      "TEXCOORD_0": 62,
      "COLOR_0": 63
     },
     "indices": 64,
     "material": 3
    }
   ]
  },
  {
   "name": "lampe_LOD1",
   "primitives": [
    {
     "attributes": {
      "POSITION": 65,
      "NORMAL": 66,
      "TEXCOORD_0": 67,
      "COLOR_0": 68
     },
     "indices": 69,
     "material": 3
    }
   ]
  },
  {
   "name": "lampe_LOD2",
   "primitives": [
    {
     "attributes": {
      "POSITION": 70,
      "NORMAL": 71,
      "TEXCOORD_0": 72,
      "COLOR_0": 73
     },
     "indices": 74,
     "material": 3
    }
   ]
  },
  {
   "name": "lampe_LOD3",
   "primitives": [
    {
     "attributes": {
      "POSITION": 75,
      "NORMAL": 76,
      "TEXCOORD_0": 77,
      "COLOR_0": 78
     },
     "indices": 79,
     "material": 3
    }
   ]
  },
  {
   "name": "rotor_LOD0",
   "primitives": [
    {
     "attributes": {
      "POSITION": 80,
      "NORMAL": 81,
      "TEXCOORD_0": 82,
      "COLOR_0": 83
     },
     "indices": 84,
     "material": 0
    }
   ]
  },
  {
   "name": "rotor_LOD1",
   "primitives": [
    {
     "attributes": {
      "POSITION": 85,
      "NORMAL": 86,
      "TEXCOORD_0": 87,
      "COLOR_0": 88
     },
     "indices": 89,
     "material": 0
    }
   ]
  },
  {
   "name": "rotor_LOD2",
   "primitives": [
    {
     "attributes": {
      "POSITION": 90,
      "NORMAL": 91,
      "TEXCOORD_0": 92,
      "COLOR_0": 93
     },
     "indices": 94,
     "material": 0
    }
   ]
  },
  {
   "name": "rotor_LOD3",
   "primitives": [
    {
     "attributes": {
      "POSITION": 95,
      "NORMAL": 96,
      "TEXCOORD_0": 97,
      "COLOR_0": 98
     },
     "indices": 99,
     "material": 0
    }
   ]
  }
 ],
 "materials": [
  {
   "name": "lack",
   "pbrMetallicRoughness": {
    "baseColorFactor": [
     1,
     1,
     1,
     1
    ],
    "metallicFactor": 1,
    "roughnessFactor": 1,
    "baseColorTexture": {
     "index": 0
    },
    "metallicRoughnessTexture": {
     "index": 1
    }
   },
   "doubleSided": false,
   "occlusionTexture": {
    "index": 1
   },
   "normalTexture": {
    "index": 2,
    "scale": 0.5
   }
  },
  {
   "name": "fundament",
   "pbrMetallicRoughness": {
    "baseColorFactor": [
     1,
     1,
     1,
     1
    ],
    "metallicFactor": 1,
    "roughnessFactor": 1,
    "baseColorTexture": {
     "index": 3
    },
    "metallicRoughnessTexture": {
     "index": 4
    }
   },
   "doubleSided": false,
   "occlusionTexture": {
    "index": 4
   },
   "normalTexture": {
    "index": 5,
    "scale": 1
   }
  },
  {
   "name": "verzinkt",
   "pbrMetallicRoughness": {
    "baseColorFactor": [
     1,
     1,
     1,
     1
    ],
    "metallicFactor": 1,
    "roughnessFactor": 1,
    "baseColorTexture": {
     "index": 6
    },
    "metallicRoughnessTexture": {
     "index": 7
    }
   },
   "doubleSided": false,
   "occlusionTexture": {
    "index": 7
   },
   "normalTexture": {
    "index": 8,
    "scale": 0.36
   }
  },
  {
   "name": "hindernisfeuer",
   "pbrMetallicRoughness": {
    "baseColorFactor": [
     0.8,
     0.03,
     0.03,
     1
    ],
    "metallicFactor": 0,
    "roughnessFactor": 0.3
   },
   "doubleSided": false,
   "emissiveFactor": [
    1,
    0.04,
    0.02
   ],
   "extensions": {
    "KHR_materials_emissive_strength": {
     "emissiveStrength": 40
    }
   }
  },
  {
   "name": "dunkel",
   "pbrMetallicRoughness": {
    "baseColorFactor": [
     0.05,
     0.05,
     0.055,
     1
    ],
    "metallicFactor": 0,
    "roughnessFactor": 0.7
   },
   "doubleSided": false
  }
 ],
 "images": [
  {
   "uri": "lack_colour.png"
  },
  {
   "uri": "lack_orm.png"
  },
  {
   "uri": "lack_normal.png"
  },
  {
   "uri": "beton_colour.png"
  },
  {
   "uri": "beton_orm.png"
  },
  {
   "uri": "beton_normal.png"
  },
  {
   "uri": "verzinkt_colour.png"
  },
  {
   "uri": "verzinkt_orm.png"
  },
  {
   "uri": "verzinkt_normal.png"
  }
 ],
 "textures": [
  {
   "source": 0,
   "sampler": 0
  },
  {
   "source": 1,
   "sampler": 0
  },
  {
   "source": 2,
   "sampler": 0
  },
  {
   "source": 3,
   "sampler": 0
  },
  {
   "source": 4,
   "sampler": 0
  },
  {
   "source": 5,
   "sampler": 0
  },
  {
   "source": 6,
   "sampler": 0
  },
  {
   "source": 7,
   "sampler": 0
  },
  {
   "source": 8,
   "sampler": 0
  }
 ],
 "samplers": [
  {
   "magFilter": 9729,
   "minFilter": 9987,
   "wrapS": 10497,
   "wrapT": 10497
  }
 ],
 "accessors": [
  {
   "bufferView": 0,
   "componentType": 5126,
   "count": 1848,
   "type": "VEC3",
   "min": [
    -3.1,
    0,
    -3.1
   ],
   "max": [
    3.1,
    136.6500000000001,
    3.1135345773874863
   ]
  },
  {
   "bufferView": 1,
   "componentType": 5126,
   "count": 1848,
   "type": "VEC3"
  },
  {
   "bufferView": 2,
   "componentType": 5126,
   "count": 1848,
   "type": "VEC2"
  },
  {
   "bufferView": 3,
   "componentType": 5121,
   "count": 1848,
   "type": "VEC4",
   "normalized": true
  },
  {
   "bufferView": 4,
   "componentType": 5123,
   "count": 2298,
   "type": "SCALAR"
  },
  {
   "bufferView": 5,
   "componentType": 5126,
   "count": 268,
   "type": "VEC3",
   "min": [
    -4.3,
    -0.4,
    -4.3
   ],
   "max": [
    4.3,
    0.25,
    4.3
   ]
  },
  {
   "bufferView": 6,
   "componentType": 5126,
   "count": 268,
   "type": "VEC3"
  },
  {
   "bufferView": 7,
   "componentType": 5126,
   "count": 268,
   "type": "VEC2"
  },
  {
   "bufferView": 8,
   "componentType": 5121,
   "count": 268,
   "type": "VEC4",
   "normalized": true
  },
  {
   "bufferView": 9,
   "componentType": 5123,
   "count": 324,
   "type": "SCALAR"
  },
  {
   "bufferView": 10,
   "componentType": 5126,
   "count": 288,
   "type": "VEC3",
   "min": [
    -3.1,
    0,
    -3.1
   ],
   "max": [
    3.1,
    136.65000000000003,
    3.1
   ]
  },
  {
   "bufferView": 11,
   "componentType": 5126,
   "count": 288,
   "type": "VEC3"
  },
  {
   "bufferView": 12,
   "componentType": 5126,
   "count": 288,
   "type": "VEC2"
  },
  {
   "bufferView": 13,
   "componentType": 5121,
   "count": 288,
   "type": "VEC4",
   "normalized": true
  },
  {
   "bufferView": 14,
   "componentType": 5123,
   "count": 384,
   "type": "SCALAR"
  },
  {
   "bufferView": 15,
   "componentType": 5126,
   "count": 148,
   "type": "VEC3",
   "min": [
    -4.3,
    -0.4,
    -4.3
   ],
   "max": [
    4.3,
    0.25,
    4.3
   ]
  },
  {
   "bufferView": 16,
   "componentType": 5126,
   "count": 148,
   "type": "VEC3"
  },
  {
   "bufferView": 17,
   "componentType": 5126,
   "count": 148,
   "type": "VEC2"
  },
  {
   "bufferView": 18,
   "componentType": 5121,
   "count": 148,
   "type": "VEC4",
   "normalized": true
  },
  {
   "bufferView": 19,
   "componentType": 5123,
   "count": 180,
   "type": "SCALAR"
  },
  {
   "bufferView": 20,
   "componentType": 5126,
   "count": 180,
   "type": "VEC3",
   "min": [
    -3.1,
    0,
    -2.9482752005149764
   ],
   "max": [
    3.1,
    136.65000000000003,
    2.9482752005149764
   ]
  },
  {
   "bufferView": 21,
   "componentType": 5126,
   "count": 180,
   "type": "VEC3"
  },
  {
   "bufferView": 22,
   "componentType": 5126,
   "count": 180,
   "type": "VEC2"
  },
  {
   "bufferView": 23,
   "componentType": 5121,
   "count": 180,
   "type": "VEC4",
   "normalized": true
  },
  {
   "bufferView": 24,
   "componentType": 5123,
   "count": 240,
   "type": "SCALAR"
  },
  {
   "bufferView": 25,
   "componentType": 5126,
   "count": 108,
   "type": "VEC3",
   "min": [
    -3.1,
    0,
    -2.68467875173176
   ],
   "max": [
    3.1,
    136.65,
    2.68467875173176
   ]
  },
  {
   "bufferView": 26,
   "componentType": 5126,
   "count": 108,
   "type": "VEC3"
  },
  {
   "bufferView": 27,
   "componentType": 5126,
   "count": 108,
   "type": "VEC2"
  },
  {
   "bufferView": 28,
   "componentType": 5121,
   "count": 108,
   "type": "VEC4",
   "normalized": true
  },
  {
   "bufferView": 29,
   "componentType": 5123,
   "count": 144,
   "type": "SCALAR"
  },
  {
   "bufferView": 30,
   "componentType": 5126,
   "count": 748,
   "type": "VEC3",
   "min": [
    -2.5,
    -3.35,
    -4.0249999999999995
   ],
   "max": [
    2.5,
    4.1,
    11.975000000000005
   ]
  },
  {
   "bufferView": 31,
   "componentType": 5126,
   "count": 748,
   "type": "VEC3"
  },
  {
   "bufferView": 32,
   "componentType": 5126,
   "count": 748,
   "type": "VEC2"
  },
  {
   "bufferView": 33,
   "componentType": 5121,
   "count": 748,
   "type": "VEC4",
   "normalized": true
  },
  {
   "bufferView": 34,
   "componentType": 5123,
   "count": 984,
   "type": "SCALAR"
  },
  {
   "bufferView": 35,
   "componentType": 5126,
   "count": 4,
   "type": "VEC3",
   "min": [
    -1.5,
    -1.5,
    11.995000000000001
   ],
   "max": [
    1.5,
    1.5,
    11.995000000000001
   ]
  },
  {
   "bufferView": 36,
   "componentType": 5126,
   "count": 4,
   "type": "VEC3"
  },
  {
   "bufferView": 37,
   "componentType": 5126,
   "count": 4,
   "type": "VEC2"
  },
  {
   "bufferView": 38,
   "componentType": 5121,
   "count": 4,
   "type": "VEC4",
   "normalized": true
  },
  {
   "bufferView": 39,
   "componentType": 5123,
   "count": 6,
   "type": "SCALAR"
  },
  {
   "bufferView": 40,
   "componentType": 5126,
   "count": 484,
   "type": "VEC3",
   "min": [
    -2.5,
    -3.35,
    -4.0249999999999995
   ],
   "max": [
    2.5,
    4.1,
    11.975000000000001
   ]
  },
  {
   "bufferView": 41,
   "componentType": 5126,
   "count": 484,
   "type": "VEC3"
  },
  {
   "bufferView": 42,
   "componentType": 5126,
   "count": 484,
   "type": "VEC2"
  },
  {
   "bufferView": 43,
   "componentType": 5121,
   "count": 484,
   "type": "VEC4",
   "normalized": true
  },
  {
   "bufferView": 44,
   "componentType": 5123,
   "count": 648,
   "type": "SCALAR"
  },
  {
   "bufferView": 45,
   "componentType": 5126,
   "count": 4,
   "type": "VEC3",
   "min": [
    -1.5,
    -1.5,
    11.995000000000001
   ],
   "max": [
    1.5,
    1.5,
    11.995000000000001
   ]
  },
  {
   "bufferView": 46,
   "componentType": 5126,
   "count": 4,
   "type": "VEC3"
  },
  {
   "bufferView": 47,
   "componentType": 5126,
   "count": 4,
   "type": "VEC2"
  },
  {
   "bufferView": 48,
   "componentType": 5121,
   "count": 4,
   "type": "VEC4",
   "normalized": true
  },
  {
   "bufferView": 49,
   "componentType": 5123,
   "count": 6,
   "type": "SCALAR"
  },
  {
   "bufferView": 50,
   "componentType": 5126,
   "count": 200,
   "type": "VEC3",
   "min": [
    -2.5,
    -3.35,
    -4.0249999999999995
   ],
   "max": [
    2.5,
    2.5,
    11.975000000000001
   ]
  },
  {
   "bufferView": 51,
   "componentType": 5126,
   "count": 200,
   "type": "VEC3"
  },
  {
   "bufferView": 52,
   "componentType": 5126,
   "count": 200,
   "type": "VEC2"
  },
  {
   "bufferView": 53,
   "componentType": 5121,
   "count": 200,
   "type": "VEC4",
   "normalized": true
  },
  {
   "bufferView": 54,
   "componentType": 5123,
   "count": 252,
   "type": "SCALAR"
  },
  {
   "bufferView": 55,
   "componentType": 5126,
   "count": 160,
   "type": "VEC3",
   "min": [
    -2.5,
    -3.35,
    -4.0249999999999995
   ],
   "max": [
    2.5,
    2.5,
    11.975000000000001
   ]
  },
  {
   "bufferView": 56,
   "componentType": 5126,
   "count": 160,
   "type": "VEC3"
  },
  {
   "bufferView": 57,
   "componentType": 5126,
   "count": 160,
   "type": "VEC2"
  },
  {
   "bufferView": 58,
   "componentType": 5121,
   "count": 160,
   "type": "VEC4",
   "normalized": true
  },
  {
   "bufferView": 59,
   "componentType": 5123,
   "count": 204,
   "type": "SCALAR"
  },
  {
   "bufferView": 60,
   "componentType": 5126,
   "count": 1024,
   "type": "VEC3",
   "min": [
    -1.675,
    2.95,
    8.280000000000001
   ],
   "max": [
    1.675,
    3.3,
    8.630000000000003
   ]
  },
  {
   "bufferView": 61,
   "componentType": 5126,
   "count": 1024,
   "type": "VEC3"
  },
  {
   "bufferView": 62,
   "componentType": 5126,
   "count": 1024,
   "type": "VEC2"
  },
  {
   "bufferView": 63,
   "componentType": 5121,
   "count": 1024,
   "type": "VEC4",
   "normalized": true
  },
  {
   "bufferView": 64,
   "componentType": 5123,
   "count": 1536,
   "type": "SCALAR"
  },
  {
   "bufferView": 65,
   "componentType": 5126,
   "count": 400,
   "type": "VEC3",
   "min": [
    -1.7377641290737884,
    2.95,
    8.228872875703134
   ],
   "max": [
    1.7377641290737884,
    3.45,
    8.68112712429687
   ]
  },
  {
   "bufferView": 66,
   "componentType": 5126,
   "count": 400,
   "type": "VEC3"
  },
  {
   "bufferView": 67,
   "componentType": 5126,
   "count": 400,
   "type": "VEC2"
  },
  {
   "bufferView": 68,
   "componentType": 5121,
   "count": 400,
   "type": "VEC4",
   "normalized": true
  },
  {
   "bufferView": 69,
   "componentType": 5123,
   "count": 600,
   "type": "SCALAR"
  },
  {
   "bufferView": 70,
   "componentType": 5126,
   "count": 72,
   "type": "VEC3",
   "min": [
    -0.43301270189221935,
    2.5,
    8.080000000000002
   ],
   "max": [
    0.43301270189221935,
    3.5,
    8.830000000000002
   ]
  },
  {
   "bufferView": 71,
   "componentType": 5126,
   "count": 72,
   "type": "VEC3"
  },
  {
   "bufferView": 72,
   "componentType": 5126,
   "count": 72,
   "type": "VEC2"
  },
  {
   "bufferView": 73,
   "componentType": 5121,
   "count": 72,
   "type": "VEC4",
   "normalized": true
  },
  {
   "bufferView": 74,
   "componentType": 5123,
   "count": 108,
   "type": "SCALAR"
  },
  {
   "bufferView": 75,
   "componentType": 5126,
   "count": 72,
   "type": "VEC3",
   "min": [
    -0.692820323027551,
    2.5,
    7.855000000000002
   ],
   "max": [
    0.692820323027551,
    4.1,
    9.055000000000001
   ]
  },
  {
   "bufferView": 76,
   "componentType": 5126,
   "count": 72,
   "type": "VEC3"
  },
  {
   "bufferView": 77,
   "componentType": 5126,
   "count": 72,
   "type": "VEC2"
  },
  {
   "bufferView": 78,
   "componentType": 5121,
   "count": 72,
   "type": "VEC4",
   "normalized": true
  },
  {
   "bufferView": 79,
   "componentType": 5123,
   "count": 108,
   "type": "SCALAR"
  },
  {
   "bufferView": 80,
   "componentType": 5126,
   "count": 6008,
   "type": "VEC3",
   "min": [
    -64.32039719249461,
    -37.44518099987718,
    -3.910636321800253
   ],
   "max": [
    64.43963248091804,
    74.16753647813862,
    1.4988869325386327
   ]
  },
  {
   "bufferView": 81,
   "componentType": 5126,
   "count": 6008,
   "type": "VEC3"
  },
  {
   "bufferView": 82,
   "componentType": 5126,
   "count": 6008,
   "type": "VEC2"
  },
  {
   "bufferView": 83,
   "componentType": 5121,
   "count": 6008,
   "type": "VEC4",
   "normalized": true
  },
  {
   "bufferView": 84,
   "componentType": 5123,
   "count": 8808,
   "type": "SCALAR"
  },
  {
   "bufferView": 85,
   "componentType": 5126,
   "count": 2318,
   "type": "VEC3",
   "min": [
    -64.32039719249461,
    -37.44518099987718,
    -3.9102695078835352
   ],
   "max": [
    64.43963248091804,
    74.16753647813856,
    1.47
   ]
  },
  {
   "bufferView": 86,
   "componentType": 5126,
   "count": 2318,
   "type": "VEC3"
  },
  {
   "bufferView": 87,
   "componentType": 5126,
   "count": 2318,
   "type": "VEC2"
  },
  {
   "bufferView": 88,
   "componentType": 5121,
   "count": 2318,
   "type": "VEC4",
   "normalized": true
  },
  {
   "bufferView": 89,
   "componentType": 5123,
   "count": 3354,
   "type": "SCALAR"
  },
  {
   "bufferView": 90,
   "componentType": 5126,
   "count": 1050,
   "type": "VEC3",
   "min": [
    -64.32039719249461,
    -37.44518099987718,
    -3.910308497748962
   ],
   "max": [
    64.43963248091804,
    74.16753647813856,
    1.4700000000000002
   ]
  },
  {
   "bufferView": 91,
   "componentType": 5126,
   "count": 1050,
   "type": "VEC3"
  },
  {
   "bufferView": 92,
   "componentType": 5126,
   "count": 1050,
   "type": "VEC2"
  },
  {
   "bufferView": 93,
   "componentType": 5121,
   "count": 1050,
   "type": "VEC4",
   "normalized": true
  },
  {
   "bufferView": 94,
   "componentType": 5123,
   "count": 1494,
   "type": "SCALAR"
  },
  {
   "bufferView": 95,
   "componentType": 5126,
   "count": 420,
   "type": "VEC3",
   "min": [
    -64.32039719249461,
    -37.44518099987718,
    -3.905659829946064
   ],
   "max": [
    64.43963248091804,
    74.16753647813856,
    1.4205773586108783
   ]
  },
  {
   "bufferView": 96,
   "componentType": 5126,
   "count": 420,
   "type": "VEC3"
  },
  {
   "bufferView": 97,
   "componentType": 5126,
   "count": 420,
   "type": "VEC2"
  },
  {
   "bufferView": 98,
   "componentType": 5121,
   "count": 420,
   "type": "VEC4",
   "normalized": true
  },
  {
   "bufferView": 99,
   "componentType": 5123,
   "count": 576,
   "type": "SCALAR"
  }
 ],
 "bufferViews": [
  {
   "buffer": 0,
   "byteOffset": 0,
   "byteLength": 22176,
   "target": 34962,
   "byteStride": 12
  },
  {
   "buffer": 0,
   "byteOffset": 22176,
   "byteLength": 22176,
   "target": 34962,
   "byteStride": 12
  },
  {
   "buffer": 0,
   "byteOffset": 44352,
   "byteLength": 14784,
   "target": 34962,
   "byteStride": 8
  },
  {
   "buffer": 0,
   "byteOffset": 59136,
   "byteLength": 7392,
   "target": 34962,
   "byteStride": 4
  },
  {
   "buffer": 0,
   "byteOffset": 66528,
   "byteLength": 4596,
   "target": 34963
  },
  {
   "buffer": 0,
   "byteOffset": 71124,
   "byteLength": 3216,
   "target": 34962,
   "byteStride": 12
  },
  {
   "buffer": 0,
   "byteOffset": 74340,
   "byteLength": 3216,
   "target": 34962,
   "byteStride": 12
  },
  {
   "buffer": 0,
   "byteOffset": 77556,
   "byteLength": 2144,
   "target": 34962,
   "byteStride": 8
  },
  {
   "buffer": 0,
   "byteOffset": 79700,
   "byteLength": 1072,
   "target": 34962,
   "byteStride": 4
  },
  {
   "buffer": 0,
   "byteOffset": 80772,
   "byteLength": 648,
   "target": 34963
  },
  {
   "buffer": 0,
   "byteOffset": 384312,
   "byteLength": 3456,
   "target": 34962,
   "byteStride": 12
  },
  {
   "buffer": 0,
   "byteOffset": 387768,
   "byteLength": 3456,
   "target": 34962,
   "byteStride": 12
  },
  {
   "buffer": 0,
   "byteOffset": 391224,
   "byteLength": 2304,
   "target": 34962,
   "byteStride": 8
  },
  {
   "buffer": 0,
   "byteOffset": 393528,
   "byteLength": 1152,
   "target": 34962,
   "byteStride": 4
  },
  {
   "buffer": 0,
   "byteOffset": 394680,
   "byteLength": 768,
   "target": 34963
  },
  {
   "buffer": 0,
   "byteOffset": 395448,
   "byteLength": 1776,
   "target": 34962,
   "byteStride": 12
  },
  {
   "buffer": 0,
   "byteOffset": 397224,
   "byteLength": 1776,
   "target": 34962,
   "byteStride": 12
  },
  {
   "buffer": 0,
   "byteOffset": 399000,
   "byteLength": 1184,
   "target": 34962,
   "byteStride": 8
  },
  {
   "buffer": 0,
   "byteOffset": 400184,
   "byteLength": 592,
   "target": 34962,
   "byteStride": 4
  },
  {
   "buffer": 0,
   "byteOffset": 400776,
   "byteLength": 360,
   "target": 34963
  },
  {
   "buffer": 0,
   "byteOffset": 525768,
   "byteLength": 2160,
   "target": 34962,
   "byteStride": 12
  },
  {
   "buffer": 0,
   "byteOffset": 527928,
   "byteLength": 2160,
   "target": 34962,
   "byteStride": 12
  },
  {
   "buffer": 0,
   "byteOffset": 530088,
   "byteLength": 1440,
   "target": 34962,
   "byteStride": 8
  },
  {
   "buffer": 0,
   "byteOffset": 531528,
   "byteLength": 720,
   "target": 34962,
   "byteStride": 4
  },
  {
   "buffer": 0,
   "byteOffset": 532248,
   "byteLength": 480,
   "target": 34963
  },
  {
   "buffer": 0,
   "byteOffset": 584028,
   "byteLength": 1296,
   "target": 34962,
   "byteStride": 12
  },
  {
   "buffer": 0,
   "byteOffset": 585324,
   "byteLength": 1296,
   "target": 34962,
   "byteStride": 12
  },
  {
   "buffer": 0,
   "byteOffset": 586620,
   "byteLength": 864,
   "target": 34962,
   "byteStride": 8
  },
  {
   "buffer": 0,
   "byteOffset": 587484,
   "byteLength": 432,
   "target": 34962,
   "byteStride": 4
  },
  {
   "buffer": 0,
   "byteOffset": 587916,
   "byteLength": 288,
   "target": 34963
  },
  {
   "buffer": 0,
   "byteOffset": 81420,
   "byteLength": 8976,
   "target": 34962,
   "byteStride": 12
  },
  {
   "buffer": 0,
   "byteOffset": 90396,
   "byteLength": 8976,
   "target": 34962,
   "byteStride": 12
  },
  {
   "buffer": 0,
   "byteOffset": 99372,
   "byteLength": 5984,
   "target": 34962,
   "byteStride": 8
  },
  {
   "buffer": 0,
   "byteOffset": 105356,
   "byteLength": 2992,
   "target": 34962,
   "byteStride": 4
  },
  {
   "buffer": 0,
   "byteOffset": 108348,
   "byteLength": 1968,
   "target": 34963
  },
  {
   "buffer": 0,
   "byteOffset": 110316,
   "byteLength": 48,
   "target": 34962,
   "byteStride": 12
  },
  {
   "buffer": 0,
   "byteOffset": 110364,
   "byteLength": 48,
   "target": 34962,
   "byteStride": 12
  },
  {
   "buffer": 0,
   "byteOffset": 110412,
   "byteLength": 32,
   "target": 34962,
   "byteStride": 8
  },
  {
   "buffer": 0,
   "byteOffset": 110444,
   "byteLength": 16,
   "target": 34962,
   "byteStride": 4
  },
  {
   "buffer": 0,
   "byteOffset": 110460,
   "byteLength": 12,
   "target": 34963
  },
  {
   "buffer": 0,
   "byteOffset": 401136,
   "byteLength": 5808,
   "target": 34962,
   "byteStride": 12
  },
  {
   "buffer": 0,
   "byteOffset": 406944,
   "byteLength": 5808,
   "target": 34962,
   "byteStride": 12
  },
  {
   "buffer": 0,
   "byteOffset": 412752,
   "byteLength": 3872,
   "target": 34962,
   "byteStride": 8
  },
  {
   "buffer": 0,
   "byteOffset": 416624,
   "byteLength": 1936,
   "target": 34962,
   "byteStride": 4
  },
  {
   "buffer": 0,
   "byteOffset": 418560,
   "byteLength": 1296,
   "target": 34963
  },
  {
   "buffer": 0,
   "byteOffset": 419856,
   "byteLength": 48,
   "target": 34962,
   "byteStride": 12
  },
  {
   "buffer": 0,
   "byteOffset": 419904,
   "byteLength": 48,
   "target": 34962,
   "byteStride": 12
  },
  {
   "buffer": 0,
   "byteOffset": 419952,
   "byteLength": 32,
   "target": 34962,
   "byteStride": 8
  },
  {
   "buffer": 0,
   "byteOffset": 419984,
   "byteLength": 16,
   "target": 34962,
   "byteStride": 4
  },
  {
   "buffer": 0,
   "byteOffset": 420000,
   "byteLength": 12,
   "target": 34963
  },
  {
   "buffer": 0,
   "byteOffset": 532728,
   "byteLength": 2400,
   "target": 34962,
   "byteStride": 12
  },
  {
   "buffer": 0,
   "byteOffset": 535128,
   "byteLength": 2400,
   "target": 34962,
   "byteStride": 12
  },
  {
   "buffer": 0,
   "byteOffset": 537528,
   "byteLength": 1600,
   "target": 34962,
   "byteStride": 8
  },
  {
   "buffer": 0,
   "byteOffset": 539128,
   "byteLength": 800,
   "target": 34962,
   "byteStride": 4
  },
  {
   "buffer": 0,
   "byteOffset": 539928,
   "byteLength": 504,
   "target": 34963
  },
  {
   "buffer": 0,
   "byteOffset": 588204,
   "byteLength": 1920,
   "target": 34962,
   "byteStride": 12
  },
  {
   "buffer": 0,
   "byteOffset": 590124,
   "byteLength": 1920,
   "target": 34962,
   "byteStride": 12
  },
  {
   "buffer": 0,
   "byteOffset": 592044,
   "byteLength": 1280,
   "target": 34962,
   "byteStride": 8
  },
  {
   "buffer": 0,
   "byteOffset": 593324,
   "byteLength": 640,
   "target": 34962,
   "byteStride": 4
  },
  {
   "buffer": 0,
   "byteOffset": 593964,
   "byteLength": 408,
   "target": 34963
  },
  {
   "buffer": 0,
   "byteOffset": 110472,
   "byteLength": 12288,
   "target": 34962,
   "byteStride": 12
  },
  {
   "buffer": 0,
   "byteOffset": 122760,
   "byteLength": 12288,
   "target": 34962,
   "byteStride": 12
  },
  {
   "buffer": 0,
   "byteOffset": 135048,
   "byteLength": 8192,
   "target": 34962,
   "byteStride": 8
  },
  {
   "buffer": 0,
   "byteOffset": 143240,
   "byteLength": 4096,
   "target": 34962,
   "byteStride": 4
  },
  {
   "buffer": 0,
   "byteOffset": 147336,
   "byteLength": 3072,
   "target": 34963
  },
  {
   "buffer": 0,
   "byteOffset": 420012,
   "byteLength": 4800,
   "target": 34962,
   "byteStride": 12
  },
  {
   "buffer": 0,
   "byteOffset": 424812,
   "byteLength": 4800,
   "target": 34962,
   "byteStride": 12
  },
  {
   "buffer": 0,
   "byteOffset": 429612,
   "byteLength": 3200,
   "target": 34962,
   "byteStride": 8
  },
  {
   "buffer": 0,
   "byteOffset": 432812,
   "byteLength": 1600,
   "target": 34962,
   "byteStride": 4
  },
  {
   "buffer": 0,
   "byteOffset": 434412,
   "byteLength": 1200,
   "target": 34963
  },
  {
   "buffer": 0,
   "byteOffset": 540432,
   "byteLength": 864,
   "target": 34962,
   "byteStride": 12
  },
  {
   "buffer": 0,
   "byteOffset": 541296,
   "byteLength": 864,
   "target": 34962,
   "byteStride": 12
  },
  {
   "buffer": 0,
   "byteOffset": 542160,
   "byteLength": 576,
   "target": 34962,
   "byteStride": 8
  },
  {
   "buffer": 0,
   "byteOffset": 542736,
   "byteLength": 288,
   "target": 34962,
   "byteStride": 4
  },
  {
   "buffer": 0,
   "byteOffset": 543024,
   "byteLength": 216,
   "target": 34963
  },
  {
   "buffer": 0,
   "byteOffset": 594372,
   "byteLength": 864,
   "target": 34962,
   "byteStride": 12
  },
  {
   "buffer": 0,
   "byteOffset": 595236,
   "byteLength": 864,
   "target": 34962,
   "byteStride": 12
  },
  {
   "buffer": 0,
   "byteOffset": 596100,
   "byteLength": 576,
   "target": 34962,
   "byteStride": 8
  },
  {
   "buffer": 0,
   "byteOffset": 596676,
   "byteLength": 288,
   "target": 34962,
   "byteStride": 4
  },
  {
   "buffer": 0,
   "byteOffset": 596964,
   "byteLength": 216,
   "target": 34963
  },
  {
   "buffer": 0,
   "byteOffset": 150408,
   "byteLength": 72096,
   "target": 34962,
   "byteStride": 12
  },
  {
   "buffer": 0,
   "byteOffset": 222504,
   "byteLength": 72096,
   "target": 34962,
   "byteStride": 12
  },
  {
   "buffer": 0,
   "byteOffset": 294600,
   "byteLength": 48064,
   "target": 34962,
   "byteStride": 8
  },
  {
   "buffer": 0,
   "byteOffset": 342664,
   "byteLength": 24032,
   "target": 34962,
   "byteStride": 4
  },
  {
   "buffer": 0,
   "byteOffset": 366696,
   "byteLength": 17616,
   "target": 34963
  },
  {
   "buffer": 0,
   "byteOffset": 435612,
   "byteLength": 27816,
   "target": 34962,
   "byteStride": 12
  },
  {
   "buffer": 0,
   "byteOffset": 463428,
   "byteLength": 27816,
   "target": 34962,
   "byteStride": 12
  },
  {
   "buffer": 0,
   "byteOffset": 491244,
   "byteLength": 18544,
   "target": 34962,
   "byteStride": 8
  },
  {
   "buffer": 0,
   "byteOffset": 509788,
   "byteLength": 9272,
   "target": 34962,
   "byteStride": 4
  },
  {
   "buffer": 0,
   "byteOffset": 519060,
   "byteLength": 6708,
   "target": 34963
  },
  {
   "buffer": 0,
   "byteOffset": 543240,
   "byteLength": 12600,
   "target": 34962,
   "byteStride": 12
  },
  {
   "buffer": 0,
   "byteOffset": 555840,
   "byteLength": 12600,
   "target": 34962,
   "byteStride": 12
  },
  {
   "buffer": 0,
   "byteOffset": 568440,
   "byteLength": 8400,
   "target": 34962,
   "byteStride": 8
  },
  {
   "buffer": 0,
   "byteOffset": 576840,
   "byteLength": 4200,
   "target": 34962,
   "byteStride": 4
  },
  {
   "buffer": 0,
   "byteOffset": 581040,
   "byteLength": 2988,
   "target": 34963
  },
  {
   "buffer": 0,
   "byteOffset": 597180,
   "byteLength": 5040,
   "target": 34962,
   "byteStride": 12
  },
  {
   "buffer": 0,
   "byteOffset": 602220,
   "byteLength": 5040,
   "target": 34962,
   "byteStride": 12
  },
  {
   "buffer": 0,
   "byteOffset": 607260,
   "byteLength": 3360,
   "target": 34962,
   "byteStride": 8
  },
  {
   "buffer": 0,
   "byteOffset": 610620,
   "byteLength": 1680,
   "target": 34962,
   "byteStride": 4
  },
  {
   "buffer": 0,
   "byteOffset": 612300,
   "byteLength": 1152,
   "target": 34963
  }
 ],
 "buffers": [
  {
   "uri": "wea_150.bin",
   "byteLength": 1304160
  }
 ]
}
