{
 "asset": {
  "version": "2.0",
  "generator": "tools/gen_signal_parts.py (Connected Rails example mod)",
  "copyright": "Connected Rails project. Procedural model built from scratch in tools/gen_signal_parts.py, no third-party assets; licensed like the project."
 },
 "scene": 0,
 "scenes": [
  {
   "name": "sig_schirm_ks",
   "nodes": [
    0,
    1,
    2,
    3,
    4,
    5
   ]
  }
 ],
 "nodes": [
  {
   "name": "schirm",
   "mesh": 0
  },
  {
   "name": "lamp_red",
   "mesh": 1
  },
  {
   "name": "lamp_green",
   "mesh": 2
  },
  {
   "name": "lamp_yellow",
   "mesh": 3
  },
  {
   "name": "lamp_zs1",
   "mesh": 4
  },
  {
   "name": "mp_top",
   "translation": [
    0.0,
    0.65,
    0.0
   ]
  }
 ],
 "meshes": [
  {
   "name": "schirm",
   "primitives": [
    {
     "attributes": {
      "POSITION": 0,
      "NORMAL": 1
     },
     "indices": 2,
     "material": 0
    }
   ]
  },
  {
   "name": "lamp_red",
   "primitives": [
    {
     "attributes": {
      "POSITION": 3,
      "NORMAL": 4
     },
     "indices": 5,
     "material": 1
    }
   ]
  },
  {
   "name": "lamp_green",
   "primitives": [
    {
     "attributes": {
      "POSITION": 6,
      "NORMAL": 7
     },
     "indices": 8,
     "material": 2
    }
   ]
  },
  {
   "name": "lamp_yellow",
   "primitives": [
    {
     "attributes": {
      "POSITION": 9,
      "NORMAL": 10
     },
     "indices": 11,
     "material": 3
    }
   ]
  },
  {
   "name": "lamp_zs1",
   "primitives": [
    {
     "attributes": {
      "POSITION": 12,
      "NORMAL": 13
     },
     "indices": 14,
     "material": 4
    }
   ]
  }
 ],
 "materials": [
  {
   "name": "black",
   "pbrMetallicRoughness": {
    "baseColorFactor": [
     0.03,
     0.03,
     0.035,
     1.0
    ],
    "metallicFactor": 0.0,
    "roughnessFactor": 0.8
   }
  },
  {
   "name": "lens_red",
   "pbrMetallicRoughness": {
    "baseColorFactor": [
     0.8,
     0.03,
     0.03,
     1.0
    ],
    "metallicFactor": 0.0,
    "roughnessFactor": 0.3
   },
   "emissiveFactor": [
    1.0,
    0.05,
    0.05
   ]
  },
  {
   "name": "lens_green",
   "pbrMetallicRoughness": {
    "baseColorFactor": [
     0.05,
     0.7,
     0.2,
     1.0
    ],
    "metallicFactor": 0.0,
    "roughnessFactor": 0.3
   },
   "emissiveFactor": [
    0.1,
    1.0,
    0.3
   ]
  },
  {
   "name": "lens_yellow",
   "pbrMetallicRoughness": {
    "baseColorFactor": [
     0.85,
     0.6,
     0.05,
     1.0
    ],
    "metallicFactor": 0.0,
    "roughnessFactor": 0.3
   },
   "emissiveFactor": [
    1.0,
    0.75,
    0.1
   ]
  },
  {
   "name": "lens_white",
   "pbrMetallicRoughness": {
    "baseColorFactor": [
     0.9,
     0.9,
     0.85,
     1.0
    ],
    "metallicFactor": 0.0,
    "roughnessFactor": 0.3
   },
   "emissiveFactor": [
    1.0,
    1.0,
    0.9
   ]
  }
 ],
 "accessors": [
  {
   "bufferView": 0,
   "componentType": 5126,
   "count": 216,
   "type": "VEC3",
   "min": [
    -0.36,
    -0.55,
    0.0
   ],
   "max": [
    0.36,
    0.55,
    0.085
   ]
  },
  {
   "bufferView": 1,
   "componentType": 5126,
   "count": 216,
   "type": "VEC3"
  },
  {
   "bufferView": 2,
   "componentType": 5125,
   "count": 216,
   "type": "SCALAR"
  },
  {
   "bufferView": 3,
   "componentType": 5126,
   "count": 36,
   "type": "VEC3",
   "min": [
    -0.055,
    0.045000000000000005,
    0.085
   ],
   "max": [
    0.055,
    0.155,
    0.105
   ]
  },
  {
   "bufferView": 4,
   "componentType": 5126,
   "count": 36,
   "type": "VEC3"
  },
  {
   "bufferView": 5,
   "componentType": 5125,
   "count": 36,
   "type": "SCALAR"
  },
  {
   "bufferView": 6,
   "componentType": 5126,
   "count": 36,
   "type": "VEC3",
   "min": [
    -0.055,
    0.28500000000000003,
    0.085
   ],
   "max": [
    0.055,
    0.395,
    0.105
   ]
  },
  {
   "bufferView": 7,
   "componentType": 5126,
   "count": 36,
   "type": "VEC3"
  },
  {
   "bufferView": 8,
   "componentType": 5125,
   "count": 36,
   "type": "SCALAR"
  },
  {
   "bufferView": 9,
   "componentType": 5126,
   "count": 36,
   "type": "VEC3",
   "min": [
    -0.255,
    -0.235,
    0.085
   ],
   "max": [
    -0.14500000000000002,
    -0.125,
    0.105
   ]
  },
  {
   "bufferView": 10,
   "componentType": 5126,
   "count": 36,
   "type": "VEC3"
  },
  {
   "bufferView": 11,
   "componentType": 5125,
   "count": 36,
   "type": "SCALAR"
  },
  {
   "bufferView": 12,
   "componentType": 5126,
   "count": 72,
   "type": "VEC3",
   "min": [
    -0.195,
    -0.455,
    0.085
   ],
   "max": [
    0.195,
    -0.34500000000000003,
    0.105
   ]
  },
  {
   "bufferView": 13,
   "componentType": 5126,
   "count": 72,
   "type": "VEC3"
  },
  {
   "bufferView": 14,
   "componentType": 5125,
   "count": 72,
   "type": "SCALAR"
  }
 ],
 "bufferViews": [
  {
   "buffer": 0,
   "byteOffset": 0,
   "byteLength": 2592,
   "target": 34962
  },
  {
   "buffer": 0,
   "byteOffset": 2592,
   "byteLength": 2592,
   "target": 34962
  },
  {
   "buffer": 0,
   "byteOffset": 5184,
   "byteLength": 864,
   "target": 34963
  },
  {
   "buffer": 0,
   "byteOffset": 6048,
   "byteLength": 432,
   "target": 34962
  },
  {
   "buffer": 0,
   "byteOffset": 6480,
   "byteLength": 432,
   "target": 34962
  },
  {
   "buffer": 0,
   "byteOffset": 6912,
   "byteLength": 144,
   "target": 34963
  },
  {
   "buffer": 0,
   "byteOffset": 7056,
   "byteLength": 432,
   "target": 34962
  },
  {
   "buffer": 0,
   "byteOffset": 7488,
   "byteLength": 432,
   "target": 34962
  },
  {
   "buffer": 0,
   "byteOffset": 7920,
   "byteLength": 144,
   "target": 34963
  },
  {
   "buffer": 0,
   "byteOffset": 8064,
   "byteLength": 432,
   "target": 34962
  },
  {
   "buffer": 0,
   "byteOffset": 8496,
   "byteLength": 432,
   "target": 34962
  },
  {
   "buffer": 0,
   "byteOffset": 8928,
   "byteLength": 144,
   "target": 34963
  },
  {
   "buffer": 0,
   "byteOffset": 9072,
   "byteLength": 864,
   "target": 34962
  },
  {
   "buffer": 0,
   "byteOffset": 9936,
   "byteLength": 864,
   "target": 34962
  },
  {
   "buffer": 0,
   "byteOffset": 10800,
   "byteLength": 288,
   "target": 34963
  }
 ],
 "buffers": [
  {
   "byteLength": 11088,
   "uri": "data:application/octet-stream;base64,"
  }
 ]
}
