{
 "asset": {
  "version": "2.0",
  "generator": "tools/gen_signal_parts.py (TrainSim-DE example mod)",
  "copyright": "TrainSim-DE project. Procedural model built from scratch in tools/gen_signal_parts.py, no third-party assets; licensed like the project."
 },
 "scene": 0,
 "scenes": [
  {
   "name": "sig_form_hp",
   "nodes": [
    0,
    1,
    2
   ]
  }
 ],
 "nodes": [
  {
   "name": "mast",
   "mesh": 0
  },
  {
   "name": "fluegel1",
   "mesh": 1,
   "translation": [
    0.0,
    5.6,
    0.1
   ]
  },
  {
   "name": "fluegel2",
   "mesh": 2,
   "translation": [
    0.0,
    4.5,
    0.1
   ]
  }
 ],
 "meshes": [
  {
   "name": "mast",
   "primitives": [
    {
     "attributes": {
      "POSITION": 0,
      "NORMAL": 1
     },
     "indices": 2,
     "material": 0
    }
   ]
  },
  {
   "name": "fluegel1",
   "primitives": [
    {
     "attributes": {
      "POSITION": 3,
      "NORMAL": 4
     },
     "indices": 5,
     "material": 1
    },
    {
     "attributes": {
      "POSITION": 6,
      "NORMAL": 7
     },
     "indices": 8,
     "material": 2
    }
   ]
  },
  {
   "name": "fluegel2",
   "primitives": [
    {
     "attributes": {
      "POSITION": 9,
      "NORMAL": 10
     },
     "indices": 11,
     "material": 1
    },
    {
     "attributes": {
      "POSITION": 12,
      "NORMAL": 13
     },
     "indices": 14,
     "material": 2
    }
   ]
  }
 ],
 "materials": [
  {
   "name": "grey",
   "pbrMetallicRoughness": {
    "baseColorFactor": [
     0.42,
     0.44,
     0.46,
     1.0
    ],
    "metallicFactor": 0.3,
    "roughnessFactor": 0.6
   }
  },
  {
   "name": "red_arm",
   "pbrMetallicRoughness": {
    "baseColorFactor": [
     0.7,
     0.05,
     0.05,
     1.0
    ],
    "metallicFactor": 0.0,
    "roughnessFactor": 0.6
   }
  },
  {
   "name": "white",
   "pbrMetallicRoughness": {
    "baseColorFactor": [
     0.85,
     0.86,
     0.85,
     1.0
    ],
    "metallicFactor": 0.0,
    "roughnessFactor": 0.6
   }
  }
 ],
 "accessors": [
  {
   "bufferView": 0,
   "componentType": 5126,
   "count": 72,
   "type": "VEC3",
   "min": [
    -0.18,
    0.0,
    -0.18
   ],
   "max": [
    0.18,
    6.0,
    0.18
   ]
  },
  {
   "bufferView": 1,
   "componentType": 5126,
   "count": 72,
   "type": "VEC3"
  },
  {
   "bufferView": 2,
   "componentType": 5125,
   "count": 72,
   "type": "SCALAR"
  },
  {
   "bufferView": 3,
   "componentType": 5126,
   "count": 36,
   "type": "VEC3",
   "min": [
    0.05,
    -0.09,
    0.0
   ],
   "max": [
    1.05,
    0.09,
    0.03
   ]
  },
  {
   "bufferView": 4,
   "componentType": 5126,
   "count": 36,
   "type": "VEC3"
  },
  {
   "bufferView": 5,
   "componentType": 5125,
   "count": 36,
   "type": "SCALAR"
  },
  {
   "bufferView": 6,
   "componentType": 5126,
   "count": 36,
   "type": "VEC3",
   "min": [
    1.05,
    -0.09,
    0.0
   ],
   "max": [
    1.25,
    0.09,
    0.03
   ]
  },
  {
   "bufferView": 7,
   "componentType": 5126,
   "count": 36,
   "type": "VEC3"
  },
  {
   "bufferView": 8,
   "componentType": 5125,
   "count": 36,
   "type": "SCALAR"
  },
  {
   "bufferView": 9,
   "componentType": 5126,
   "count": 36,
   "type": "VEC3",
   "min": [
    -0.09,
    -1.05,
    0.0
   ],
   "max": [
    0.09,
    -0.05,
    0.03
   ]
  },
  {
   "bufferView": 10,
   "componentType": 5126,
   "count": 36,
   "type": "VEC3"
  },
  {
   "bufferView": 11,
   "componentType": 5125,
   "count": 36,
   "type": "SCALAR"
  },
  {
   "bufferView": 12,
   "componentType": 5126,
   "count": 36,
   "type": "VEC3",
   "min": [
    -0.09,
    -1.25,
    0.0
   ],
   "max": [
    0.09,
    -1.05,
    0.03
   ]
  },
  {
   "bufferView": 13,
   "componentType": 5126,
   "count": 36,
   "type": "VEC3"
  },
  {
   "bufferView": 14,
   "componentType": 5125,
   "count": 36,
   "type": "SCALAR"
  }
 ],
 "bufferViews": [
  {
   "buffer": 0,
   "byteOffset": 0,
   "byteLength": 864,
   "target": 34962
  },
  {
   "buffer": 0,
   "byteOffset": 864,
   "byteLength": 864,
   "target": 34962
  },
  {
   "buffer": 0,
   "byteOffset": 1728,
   "byteLength": 288,
   "target": 34963
  },
  {
   "buffer": 0,
   "byteOffset": 2016,
   "byteLength": 432,
   "target": 34962
  },
  {
   "buffer": 0,
   "byteOffset": 2448,
   "byteLength": 432,
   "target": 34962
  },
  {
   "buffer": 0,
   "byteOffset": 2880,
   "byteLength": 144,
   "target": 34963
  },
  {
   "buffer": 0,
   "byteOffset": 3024,
   "byteLength": 432,
   "target": 34962
  },
  {
   "buffer": 0,
   "byteOffset": 3456,
   "byteLength": 432,
   "target": 34962
  },
  {
   "buffer": 0,
   "byteOffset": 3888,
   "byteLength": 144,
   "target": 34963
  },
  {
   "buffer": 0,
   "byteOffset": 4032,
   "byteLength": 432,
   "target": 34962
  },
  {
   "buffer": 0,
   "byteOffset": 4464,
   "byteLength": 432,
   "target": 34962
  },
  {
   "buffer": 0,
   "byteOffset": 4896,
   "byteLength": 144,
   "target": 34963
  },
  {
   "buffer": 0,
   "byteOffset": 5040,
   "byteLength": 432,
   "target": 34962
  },
  {
   "buffer": 0,
   "byteOffset": 5472,
   "byteLength": 432,
   "target": 34962
  },
  {
   "buffer": 0,
   "byteOffset": 5904,
   "byteLength": 144,
   "target": 34963
  }
 ],
 "buffers": [
  {
   "byteLength": 6048,
   "uri": "data:application/octet-stream;base64,"
  }
 ]
}
