{
 "asset": {
  "version": "2.0",
  "generator": "tools/gen_signal_parts.py (Connected Rails example mod)",
  "copyright": "Connected Rails project. Procedural model built from scratch in tools/gen_signal_parts.py, no third-party assets; licensed like the project."
 },
 "scene": 0,
 "scenes": [
  {
   "name": "sig_form_ne2_frei_hoch_eisengrau",
   "nodes": [
    0,
    1,
    2
   ]
  }
 ],
 "nodes": [
  {
   "name": "tafel_LOD0",
   "mesh": 0
  },
  {
   "name": "tafel_LOD1",
   "mesh": 1
  },
  {
   "name": "tafel_LOD2",
   "mesh": 2
  }
 ],
 "meshes": [
  {
   "name": "tafel_LOD0",
   "primitives": [
    {
     "attributes": {
      "POSITION": 0,
      "NORMAL": 1,
      "TEXCOORD_0": 2
     },
     "indices": 3,
     "material": 5
    },
    {
     "attributes": {
      "POSITION": 4,
      "NORMAL": 5,
      "TEXCOORD_0": 6
     },
     "indices": 7,
     "material": 0
    },
    {
     "attributes": {
      "POSITION": 8,
      "NORMAL": 9,
      "TEXCOORD_0": 10
     },
     "indices": 11,
     "material": 1
    },
    {
     "attributes": {
      "POSITION": 12,
      "NORMAL": 13,
      "TEXCOORD_0": 14
     },
     "indices": 15,
     "material": 2
    },
    {
     "attributes": {
      "POSITION": 16,
      "NORMAL": 17,
      "TEXCOORD_0": 18
     },
     "indices": 19,
     "material": 3
    },
    {
     "attributes": {
      "POSITION": 20,
      "NORMAL": 21,
      "TEXCOORD_0": 22
     },
     "indices": 23,
     "material": 4
    },
    {
     "attributes": {
      "POSITION": 24,
      "NORMAL": 25,
      "TEXCOORD_0": 26
     },
     "indices": 27,
     "material": 6
    }
   ]
  },
  {
   "name": "tafel_LOD1",
   "primitives": [
    {
     "attributes": {
      "POSITION": 28,
      "NORMAL": 29,
      "TEXCOORD_0": 30
     },
     "indices": 31,
     "material": 5
    },
    {
     "attributes": {
      "POSITION": 32,
      "NORMAL": 33,
      "TEXCOORD_0": 34
     },
     "indices": 35,
     "material": 0
    },
    {
     "attributes": {
      "POSITION": 36,
      "NORMAL": 37,
      "TEXCOORD_0": 38
     },
     "indices": 39,
     "material": 1
    },
    {
     "attributes": {
      "POSITION": 40,
      "NORMAL": 41,
      "TEXCOORD_0": 42
     },
     "indices": 43,
     "material": 2
    },
    {
     "attributes": {
      "POSITION": 44,
      "NORMAL": 45,
      "TEXCOORD_0": 46
     },
     "indices": 47,
     "material": 3
    },
    {
     "attributes": {
      "POSITION": 48,
      "NORMAL": 49,
      "TEXCOORD_0": 50
     },
     "indices": 51,
     "material": 4
    },
    {
     "attributes": {
      "POSITION": 52,
      "NORMAL": 53,
      "TEXCOORD_0": 54
     },
     "indices": 55,
     "material": 6
    }
   ]
  },
  {
   "name": "tafel_LOD2",
   "primitives": [
    {
     "attributes": {
      "POSITION": 56,
      "NORMAL": 57,
      "TEXCOORD_0": 58
     },
     "indices": 59,
     "material": 0
    },
    {
     "attributes": {
      "POSITION": 60,
      "NORMAL": 61,
      "TEXCOORD_0": 62
     },
     "indices": 63,
     "material": 6
    }
   ]
  }
 ],
 "materials": [
  {
   "name": "structure paint",
   "pbrMetallicRoughness": {
    "baseColorFactor": [
     0.075739,
     0.090655,
     0.09753,
     1.0
    ],
    "metallicFactor": 0.02,
    "roughnessFactor": 0.78,
    "baseColorTexture": {
     "index": 0
    },
    "metallicRoughnessTexture": {
     "index": 1
    }
   },
   "occlusionTexture": {
    "index": 1,
    "strength": 0.65
   },
   "normalTexture": {
    "index": 2,
    "scale": 0.24
   }
  },
  {
   "name": "matte black ironwork",
   "pbrMetallicRoughness": {
    "baseColorFactor": [
     0.002,
     0.0023,
     0.0022,
     1.0
    ],
    "metallicFactor": 0.02,
    "roughnessFactor": 0.86,
    "baseColorTexture": {
     "index": 3
    },
    "metallicRoughnessTexture": {
     "index": 4
    }
   },
   "occlusionTexture": {
    "index": 4,
    "strength": 0.65
   },
   "normalTexture": {
    "index": 5,
    "scale": 0.28
   }
  },
  {
   "name": "matte black enamel",
   "pbrMetallicRoughness": {
    "baseColorFactor": [
     0.0019,
     0.0019,
     0.0023,
     1.0
    ],
    "metallicFactor": 0.01,
    "roughnessFactor": 0.84,
    "baseColorTexture": {
     "index": 3
    },
    "metallicRoughnessTexture": {
     "index": 4
    }
   },
   "occlusionTexture": {
    "index": 4,
    "strength": 0.65
   },
   "normalTexture": {
    "index": 5,
    "scale": 0.28
   }
  },
  {
   "name": "iron oxide",
   "pbrMetallicRoughness": {
    "baseColorFactor": [
     0.31,
     0.075,
     0.021,
     1.0
    ],
    "metallicFactor": 0.05,
    "roughnessFactor": 0.96,
    "baseColorTexture": {
     "index": 6
    },
    "metallicRoughnessTexture": {
     "index": 7
    }
   },
   "occlusionTexture": {
    "index": 7,
    "strength": 0.65
   },
   "normalTexture": {
    "index": 8,
    "scale": 0.78
   }
  },
  {
   "name": "railway grime",
   "pbrMetallicRoughness": {
    "baseColorFactor": [
     0.075,
     0.061,
     0.044,
     1.0
    ],
    "metallicFactor": 0.0,
    "roughnessFactor": 0.98,
    "baseColorTexture": {
     "index": 9
    },
    "metallicRoughnessTexture": {
     "index": 10
    }
   },
   "occlusionTexture": {
    "index": 10,
    "strength": 0.65
   },
   "normalTexture": {
    "index": 11,
    "scale": 0.38
   }
  },
  {
   "name": "weathered concrete",
   "pbrMetallicRoughness": {
    "baseColorFactor": [
     0.43,
     0.43,
     0.39,
     1.0
    ],
    "metallicFactor": 0.0,
    "roughnessFactor": 0.92,
    "baseColorTexture": {
     "index": 12
    },
    "metallicRoughnessTexture": {
     "index": 13
    }
   },
   "occlusionTexture": {
    "index": 13,
    "strength": 0.65
   },
   "normalTexture": {
    "index": 14,
    "scale": 0.68
   }
  },
  {
   "name": "Ne 2 retroreflective face",
   "pbrMetallicRoughness": {
    "baseColorFactor": [
     1.0,
     1.0,
     1.0,
     1.0
    ],
    "metallicFactor": 0.0,
    "roughnessFactor": 0.84,
    "baseColorTexture": {
     "index": 15
    },
    "metallicRoughnessTexture": {
     "index": 16
    }
   },
   "occlusionTexture": {
    "index": 16,
    "strength": 0.65
   },
   "normalTexture": {
    "index": 17,
    "scale": 0.22
   }
  }
 ],
 "accessors": [
  {
   "bufferView": 0,
   "componentType": 5126,
   "count": 36,
   "type": "VEC3",
   "min": [
    -0.19,
    -0.22,
    -0.19
   ],
   "max": [
    0.19,
    0.08,
    0.19
   ]
  },
  {
   "bufferView": 1,
   "componentType": 5126,
   "count": 36,
   "type": "VEC3"
  },
  {
   "bufferView": 2,
   "componentType": 5126,
   "count": 36,
   "type": "VEC2"
  },
  {
   "bufferView": 3,
   "componentType": 5125,
   "count": 36,
   "type": "SCALAR"
  },
  {
   "bufferView": 4,
   "componentType": 5126,
   "count": 144,
   "type": "VEC3",
   "min": [
    -0.16799999999999998,
    0.08,
    -0.15200000000000002
   ],
   "max": [
    0.16799999999999998,
    1.753,
    0.2
   ]
  },
  {
   "bufferView": 5,
   "componentType": 5126,
   "count": 144,
   "type": "VEC3"
  },
  {
   "bufferView": 6,
   "componentType": 5126,
   "count": 144,
   "type": "VEC2"
  },
  {
   "bufferView": 7,
   "componentType": 5125,
   "count": 144,
   "type": "SCALAR"
  },
  {
   "bufferView": 8,
   "componentType": 5126,
   "count": 576,
   "type": "VEC3",
   "min": [
    -0.12660000000000002,
    0.125,
    -0.12660000000000002
   ],
   "max": [
    0.12660000000000002,
    0.185,
    0.12660000000000002
   ]
  },
  {
   "bufferView": 9,
   "componentType": 5126,
   "count": 576,
   "type": "VEC3"
  },
  {
   "bufferView": 10,
   "componentType": 5126,
   "count": 576,
   "type": "VEC2"
  },
  {
   "bufferView": 11,
   "componentType": 5125,
   "count": 576,
   "type": "SCALAR"
  },
  {
   "bufferView": 12,
   "componentType": 5126,
   "count": 36,
   "type": "VEC3",
   "min": [
    -0.252,
    1.138,
    0.2
   ],
   "max": [
    0.252,
    1.912,
    0.235
   ]
  },
  {
   "bufferView": 13,
   "componentType": 5126,
   "count": 36,
   "type": "VEC3"
  },
  {
   "bufferView": 14,
   "componentType": 5126,
   "count": 36,
   "type": "VEC2"
  },
  {
   "bufferView": 15,
   "componentType": 5125,
   "count": 36,
   "type": "SCALAR"
  },
  {
   "bufferView": 16,
   "componentType": 5126,
   "count": 576,
   "type": "VEC3",
   "min": [
    -0.12960000000000002,
    0.125,
    -0.12960000000000002
   ],
   "max": [
    0.12960000000000002,
    0.131,
    0.12960000000000002
   ]
  },
  {
   "bufferView": 17,
   "componentType": 5126,
   "count": 576,
   "type": "VEC3"
  },
  {
   "bufferView": 18,
   "componentType": 5126,
   "count": 576,
   "type": "VEC2"
  },
  {
   "bufferView": 19,
   "componentType": 5125,
   "count": 576,
   "type": "SCALAR"
  },
  {
   "bufferView": 20,
   "componentType": 5126,
   "count": 36,
   "type": "VEC3",
   "min": [
    -0.196,
    -0.025,
    -0.196
   ],
   "max": [
    0.196,
    0.02,
    0.196
   ]
  },
  {
   "bufferView": 21,
   "componentType": 5126,
   "count": 36,
   "type": "VEC3"
  },
  {
   "bufferView": 22,
   "componentType": 5126,
   "count": 36,
   "type": "VEC2"
  },
  {
   "bufferView": 23,
   "componentType": 5125,
   "count": 36,
   "type": "SCALAR"
  },
  {
   "bufferView": 24,
   "componentType": 5126,
   "count": 6,
   "type": "VEC3",
   "min": [
    -0.24,
    1.15,
    0.238
   ],
   "max": [
    0.24,
    1.9,
    0.238
   ]
  },
  {
   "bufferView": 25,
   "componentType": 5126,
   "count": 6,
   "type": "VEC3"
  },
  {
   "bufferView": 26,
   "componentType": 5126,
   "count": 6,
   "type": "VEC2"
  },
  {
   "bufferView": 27,
   "componentType": 5125,
   "count": 6,
   "type": "SCALAR"
  },
  {
   "bufferView": 28,
   "componentType": 5126,
   "count": 36,
   "type": "VEC3",
   "min": [
    -0.19,
    -0.22,
    -0.19
   ],
   "max": [
    0.19,
    0.08,
    0.19
   ]
  },
  {
   "bufferView": 29,
   "componentType": 5126,
   "count": 36,
   "type": "VEC3"
  },
  {
   "bufferView": 30,
   "componentType": 5126,
   "count": 36,
   "type": "VEC2"
  },
  {
   "bufferView": 31,
   "componentType": 5125,
   "count": 36,
   "type": "SCALAR"
  },
  {
   "bufferView": 32,
   "componentType": 5126,
   "count": 72,
   "type": "VEC3",
   "min": [
    -0.15200000000000002,
    0.08,
    -0.15200000000000002
   ],
   "max": [
    0.15200000000000002,
    1.15,
    0.15200000000000002
   ]
  },
  {
   "bufferView": 33,
   "componentType": 5126,
   "count": 72,
   "type": "VEC3"
  },
  {
   "bufferView": 34,
   "componentType": 5126,
   "count": 72,
   "type": "VEC2"
  },
  {
   "bufferView": 35,
   "componentType": 5125,
   "count": 72,
   "type": "SCALAR"
  },
  {
   "bufferView": 36,
   "componentType": 5126,
   "count": 576,
   "type": "VEC3",
   "min": [
    -0.12660000000000002,
    0.125,
    -0.12660000000000002
   ],
   "max": [
    0.12660000000000002,
    0.185,
    0.12660000000000002
   ]
  },
  {
   "bufferView": 37,
   "componentType": 5126,
   "count": 576,
   "type": "VEC3"
  },
  {
   "bufferView": 38,
   "componentType": 5126,
   "count": 576,
   "type": "VEC2"
  },
  {
   "bufferView": 39,
   "componentType": 5125,
   "count": 576,
   "type": "SCALAR"
  },
  {
   "bufferView": 40,
   "componentType": 5126,
   "count": 36,
   "type": "VEC3",
   "min": [
    -0.252,
    1.138,
    0.2
   ],
   "max": [
    0.252,
    1.912,
    0.235
   ]
  },
  {
   "bufferView": 41,
   "componentType": 5126,
   "count": 36,
   "type": "VEC3"
  },
  {
   "bufferView": 42,
   "componentType": 5126,
   "count": 36,
   "type": "VEC2"
  },
  {
   "bufferView": 43,
   "componentType": 5125,
   "count": 36,
   "type": "SCALAR"
  },
  {
   "bufferView": 44,
   "componentType": 5126,
   "count": 576,
   "type": "VEC3",
   "min": [
    -0.12960000000000002,
    0.125,
    -0.12960000000000002
   ],
   "max": [
    0.12960000000000002,
    0.131,
    0.12960000000000002
   ]
  },
  {
   "bufferView": 45,
   "componentType": 5126,
   "count": 576,
   "type": "VEC3"
  },
  {
   "bufferView": 46,
   "componentType": 5126,
   "count": 576,
   "type": "VEC2"
  },
  {
   "bufferView": 47,
   "componentType": 5125,
   "count": 576,
   "type": "SCALAR"
  },
  {
   "bufferView": 48,
   "componentType": 5126,
   "count": 36,
   "type": "VEC3",
   "min": [
    -0.196,
    -0.025,
    -0.196
   ],
   "max": [
    0.196,
    0.02,
    0.196
   ]
  },
  {
   "bufferView": 49,
   "componentType": 5126,
   "count": 36,
   "type": "VEC3"
  },
  {
   "bufferView": 50,
   "componentType": 5126,
   "count": 36,
   "type": "VEC2"
  },
  {
   "bufferView": 51,
   "componentType": 5125,
   "count": 36,
   "type": "SCALAR"
  },
  {
   "bufferView": 52,
   "componentType": 5126,
   "count": 6,
   "type": "VEC3",
   "min": [
    -0.24,
    1.15,
    0.238
   ],
   "max": [
    0.24,
    1.9,
    0.238
   ]
  },
  {
   "bufferView": 53,
   "componentType": 5126,
   "count": 6,
   "type": "VEC3"
  },
  {
   "bufferView": 54,
   "componentType": 5126,
   "count": 6,
   "type": "VEC2"
  },
  {
   "bufferView": 55,
   "componentType": 5125,
   "count": 6,
   "type": "SCALAR"
  },
  {
   "bufferView": 56,
   "componentType": 5126,
   "count": 36,
   "type": "VEC3",
   "min": [
    -0.055,
    0.17,
    -0.055
   ],
   "max": [
    0.055,
    1.15,
    0.055
   ]
  },
  {
   "bufferView": 57,
   "componentType": 5126,
   "count": 36,
   "type": "VEC3"
  },
  {
   "bufferView": 58,
   "componentType": 5126,
   "count": 36,
   "type": "VEC2"
  },
  {
   "bufferView": 59,
   "componentType": 5125,
   "count": 36,
   "type": "SCALAR"
  },
  {
   "bufferView": 60,
   "componentType": 5126,
   "count": 6,
   "type": "VEC3",
   "min": [
    -0.24,
    1.15,
    0.238
   ],
   "max": [
    0.24,
    1.9,
    0.238
   ]
  },
  {
   "bufferView": 61,
   "componentType": 5126,
   "count": 6,
   "type": "VEC3"
  },
  {
   "bufferView": 62,
   "componentType": 5126,
   "count": 6,
   "type": "VEC2"
  },
  {
   "bufferView": 63,
   "componentType": 5125,
   "count": 6,
   "type": "SCALAR"
  }
 ],
 "bufferViews": [
  {
   "buffer": 0,
   "byteOffset": 0,
   "byteLength": 432,
   "target": 34962
  },
  {
   "buffer": 0,
   "byteOffset": 432,
   "byteLength": 432,
   "target": 34962
  },
  {
   "buffer": 0,
   "byteOffset": 864,
   "byteLength": 288,
   "target": 34962
  },
  {
   "buffer": 0,
   "byteOffset": 1152,
   "byteLength": 144,
   "target": 34963
  },
  {
   "buffer": 0,
   "byteOffset": 1296,
   "byteLength": 1728,
   "target": 34962
  },
  {
   "buffer": 0,
   "byteOffset": 3024,
   "byteLength": 1728,
   "target": 34962
  },
  {
   "buffer": 0,
   "byteOffset": 4752,
   "byteLength": 1152,
   "target": 34962
  },
  {
   "buffer": 0,
   "byteOffset": 5904,
   "byteLength": 576,
   "target": 34963
  },
  {
   "buffer": 0,
   "byteOffset": 6480,
   "byteLength": 6912,
   "target": 34962
  },
  {
   "buffer": 0,
   "byteOffset": 13392,
   "byteLength": 6912,
   "target": 34962
  },
  {
   "buffer": 0,
   "byteOffset": 20304,
   "byteLength": 4608,
   "target": 34962
  },
  {
   "buffer": 0,
   "byteOffset": 24912,
   "byteLength": 2304,
   "target": 34963
  },
  {
   "buffer": 0,
   "byteOffset": 27216,
   "byteLength": 432,
   "target": 34962
  },
  {
   "buffer": 0,
   "byteOffset": 27648,
   "byteLength": 432,
   "target": 34962
  },
  {
   "buffer": 0,
   "byteOffset": 28080,
   "byteLength": 288,
   "target": 34962
  },
  {
   "buffer": 0,
   "byteOffset": 28368,
   "byteLength": 144,
   "target": 34963
  },
  {
   "buffer": 0,
   "byteOffset": 28512,
   "byteLength": 6912,
   "target": 34962
  },
  {
   "buffer": 0,
   "byteOffset": 35424,
   "byteLength": 6912,
   "target": 34962
  },
  {
   "buffer": 0,
   "byteOffset": 42336,
   "byteLength": 4608,
   "target": 34962
  },
  {
   "buffer": 0,
   "byteOffset": 46944,
   "byteLength": 2304,
   "target": 34963
  },
  {
   "buffer": 0,
   "byteOffset": 49248,
   "byteLength": 432,
   "target": 34962
  },
  {
   "buffer": 0,
   "byteOffset": 49680,
   "byteLength": 432,
   "target": 34962
  },
  {
   "buffer": 0,
   "byteOffset": 50112,
   "byteLength": 288,
   "target": 34962
  },
  {
   "buffer": 0,
   "byteOffset": 50400,
   "byteLength": 144,
   "target": 34963
  },
  {
   "buffer": 0,
   "byteOffset": 50544,
   "byteLength": 72,
   "target": 34962
  },
  {
   "buffer": 0,
   "byteOffset": 50616,
   "byteLength": 72,
   "target": 34962
  },
  {
   "buffer": 0,
   "byteOffset": 50688,
   "byteLength": 48,
   "target": 34962
  },
  {
   "buffer": 0,
   "byteOffset": 50736,
   "byteLength": 24,
   "target": 34963
  },
  {
   "buffer": 0,
   "byteOffset": 50760,
   "byteLength": 432,
   "target": 34962
  },
  {
   "buffer": 0,
   "byteOffset": 51192,
   "byteLength": 432,
   "target": 34962
  },
  {
   "buffer": 0,
   "byteOffset": 51624,
   "byteLength": 288,
   "target": 34962
  },
  {
   "buffer": 0,
   "byteOffset": 51912,
   "byteLength": 144,
   "target": 34963
  },
  {
   "buffer": 0,
   "byteOffset": 52056,
   "byteLength": 864,
   "target": 34962
  },
  {
   "buffer": 0,
   "byteOffset": 52920,
   "byteLength": 864,
   "target": 34962
  },
  {
   "buffer": 0,
   "byteOffset": 53784,
   "byteLength": 576,
   "target": 34962
  },
  {
   "buffer": 0,
   "byteOffset": 54360,
   "byteLength": 288,
   "target": 34963
  },
  {
   "buffer": 0,
   "byteOffset": 54648,
   "byteLength": 6912,
   "target": 34962
  },
  {
   "buffer": 0,
   "byteOffset": 61560,
   "byteLength": 6912,
   "target": 34962
  },
  {
   "buffer": 0,
   "byteOffset": 68472,
   "byteLength": 4608,
   "target": 34962
  },
  {
   "buffer": 0,
   "byteOffset": 73080,
   "byteLength": 2304,
   "target": 34963
  },
  {
   "buffer": 0,
   "byteOffset": 75384,
   "byteLength": 432,
   "target": 34962
  },
  {
   "buffer": 0,
   "byteOffset": 75816,
   "byteLength": 432,
   "target": 34962
  },
  {
   "buffer": 0,
   "byteOffset": 76248,
   "byteLength": 288,
   "target": 34962
  },
  {
   "buffer": 0,
   "byteOffset": 76536,
   "byteLength": 144,
   "target": 34963
  },
  {
   "buffer": 0,
   "byteOffset": 76680,
   "byteLength": 6912,
   "target": 34962
  },
  {
   "buffer": 0,
   "byteOffset": 83592,
   "byteLength": 6912,
   "target": 34962
  },
  {
   "buffer": 0,
   "byteOffset": 90504,
   "byteLength": 4608,
   "target": 34962
  },
  {
   "buffer": 0,
   "byteOffset": 95112,
   "byteLength": 2304,
   "target": 34963
  },
  {
   "buffer": 0,
   "byteOffset": 97416,
   "byteLength": 432,
   "target": 34962
  },
  {
   "buffer": 0,
   "byteOffset": 97848,
   "byteLength": 432,
   "target": 34962
  },
  {
   "buffer": 0,
   "byteOffset": 98280,
   "byteLength": 288,
   "target": 34962
  },
  {
   "buffer": 0,
   "byteOffset": 98568,
   "byteLength": 144,
   "target": 34963
  },
  {
   "buffer": 0,
   "byteOffset": 98712,
   "byteLength": 72,
   "target": 34962
  },
  {
   "buffer": 0,
   "byteOffset": 98784,
   "byteLength": 72,
   "target": 34962
  },
  {
   "buffer": 0,
   "byteOffset": 98856,
   "byteLength": 48,
   "target": 34962
  },
  {
   "buffer": 0,
   "byteOffset": 98904,
   "byteLength": 24,
   "target": 34963
  },
  {
   "buffer": 0,
   "byteOffset": 98928,
   "byteLength": 432,
   "target": 34962
  },
  {
   "buffer": 0,
   "byteOffset": 99360,
   "byteLength": 432,
   "target": 34962
  },
  {
   "buffer": 0,
   "byteOffset": 99792,
   "byteLength": 288,
   "target": 34962
  },
  {
   "buffer": 0,
   "byteOffset": 100080,
   "byteLength": 144,
   "target": 34963
  },
  {
   "buffer": 0,
   "byteOffset": 100224,
   "byteLength": 72,
   "target": 34962
  },
  {
   "buffer": 0,
   "byteOffset": 100296,
   "byteLength": 72,
   "target": 34962
  },
  {
   "buffer": 0,
   "byteOffset": 100368,
   "byteLength": 48,
   "target": 34962
  },
  {
   "buffer": 0,
   "byteOffset": 100416,
   "byteLength": 24,
   "target": 34963
  }
 ],
 "buffers": [
  {
   "byteLength": 100440,
   "uri": "data:application/octet-stream;base64,"
  }
 ],
 "images": [
  {
   "uri": "textures/signals/painted-512-basecolor.png"
  },
  {
   "uri": "textures/signals/painted-512-orm.png"
  },
  {
   "uri": "textures/signals/painted-512-normal.png"
  },
  {
   "uri": "textures/signals/black-paint-512-basecolor.png"
  },
  {
   "uri": "textures/signals/black-paint-512-orm.png"
  },
  {
   "uri": "textures/signals/black-paint-512-normal.png"
  },
  {
   "uri": "textures/signals/rust-512-basecolor.png"
  },
  {
   "uri": "textures/signals/rust-512-orm.png"
  },
  {
   "uri": "textures/signals/rust-512-normal.png"
  },
  {
   "uri": "textures/signals/rubber-512-basecolor.png"
  },
  {
   "uri": "textures/signals/rubber-512-orm.png"
  },
  {
   "uri": "textures/signals/rubber-512-normal.png"
  },
  {
   "uri": "textures/signals/concrete-512-basecolor.png"
  },
  {
   "uri": "textures/signals/concrete-512-orm.png"
  },
  {
   "uri": "textures/signals/concrete-512-normal.png"
  },
  {
   "uri": "textures/signals/ne2-face-1024-basecolor.png"
  },
  {
   "uri": "textures/signals/ne2-face-1024-orm.png"
  },
  {
   "uri": "textures/signals/ne2-face-1024-normal.png"
  }
 ],
 "samplers": [
  {
   "magFilter": 9729,
   "minFilter": 9987,
   "wrapS": 10497,
   "wrapT": 10497
  }
 ],
 "textures": [
  {
   "sampler": 0,
   "source": 0
  },
  {
   "sampler": 0,
   "source": 1
  },
  {
   "sampler": 0,
   "source": 2
  },
  {
   "sampler": 0,
   "source": 3
  },
  {
   "sampler": 0,
   "source": 4
  },
  {
   "sampler": 0,
   "source": 5
  },
  {
   "sampler": 0,
   "source": 6
  },
  {
   "sampler": 0,
   "source": 7
  },
  {
   "sampler": 0,
   "source": 8
  },
  {
   "sampler": 0,
   "source": 9
  },
  {
   "sampler": 0,
   "source": 10
  },
  {
   "sampler": 0,
   "source": 11
  },
  {
   "sampler": 0,
   "source": 12
  },
  {
   "sampler": 0,
   "source": 13
  },
  {
   "sampler": 0,
   "source": 14
  },
  {
   "sampler": 0,
   "source": 15
  },
  {
   "sampler": 0,
   "source": 16
  },
  {
   "sampler": 0,
   "source": 17
  }
 ]
}
