{
 "asset": {
  "version": "2.0",
  "generator": "tools/gen_signal_parts.py (Connected Rails example mod)",
  "copyright": "Connected Rails project. Procedural model built from scratch in tools/gen_signal_parts.py, no third-party assets; licensed like the project."
 },
 "scene": 0,
 "scenes": [
  {
   "name": "sig_zs3",
   "nodes": [
    0,
    1
   ]
  }
 ],
 "nodes": [
  {
   "name": "board",
   "mesh": 0
  },
  {
   "name": "zs3_4",
   "mesh": 1
  }
 ],
 "meshes": [
  {
   "name": "board",
   "primitives": [
    {
     "attributes": {
      "POSITION": 0,
      "NORMAL": 1,
      "TEXCOORD_0": 2
     },
     "indices": 3,
     "material": 0
    }
   ]
  },
  {
   "name": "zs3_4",
   "primitives": [
    {
     "attributes": {
      "POSITION": 4,
      "NORMAL": 5,
      "TEXCOORD_0": 6
     },
     "indices": 7,
     "material": 1
    }
   ]
  }
 ],
 "materials": [
  {
   "name": "black",
   "pbrMetallicRoughness": {
    "baseColorFactor": [
     0.03,
     0.03,
     0.035,
     1.0
    ],
    "metallicFactor": 0.0,
    "roughnessFactor": 0.8
   }
  },
  {
   "name": "lens_white",
   "pbrMetallicRoughness": {
    "baseColorFactor": [
     0.9,
     0.9,
     0.85,
     1.0
    ],
    "metallicFactor": 0.0,
    "roughnessFactor": 0.3
   },
   "emissiveFactor": [
    1.0,
    1.0,
    0.9
   ]
  }
 ],
 "accessors": [
  {
   "bufferView": 0,
   "componentType": 5126,
   "count": 36,
   "type": "VEC3",
   "min": [
    -0.3,
    0.0,
    -0.02
   ],
   "max": [
    0.3,
    0.72,
    0.03
   ]
  },
  {
   "bufferView": 1,
   "componentType": 5126,
   "count": 36,
   "type": "VEC3"
  },
  {
   "bufferView": 2,
   "componentType": 5126,
   "count": 36,
   "type": "VEC2"
  },
  {
   "bufferView": 3,
   "componentType": 5125,
   "count": 36,
   "type": "SCALAR"
  },
  {
   "bufferView": 4,
   "componentType": 5126,
   "count": 108,
   "type": "VEC3",
   "min": [
    -0.13,
    0.12,
    0.03
   ],
   "max": [
    0.13,
    0.6,
    0.05
   ]
  },
  {
   "bufferView": 5,
   "componentType": 5126,
   "count": 108,
   "type": "VEC3"
  },
  {
   "bufferView": 6,
   "componentType": 5126,
   "count": 108,
   "type": "VEC2"
  },
  {
   "bufferView": 7,
   "componentType": 5125,
   "count": 108,
   "type": "SCALAR"
  }
 ],
 "bufferViews": [
  {
   "buffer": 0,
   "byteOffset": 0,
   "byteLength": 432,
   "target": 34962
  },
  {
   "buffer": 0,
   "byteOffset": 432,
   "byteLength": 432,
   "target": 34962
  },
  {
   "buffer": 0,
   "byteOffset": 864,
   "byteLength": 288,
   "target": 34962
  },
  {
   "buffer": 0,
   "byteOffset": 1152,
   "byteLength": 144,
   "target": 34963
  },
  {
   "buffer": 0,
   "byteOffset": 1296,
   "byteLength": 1296,
   "target": 34962
  },
  {
   "buffer": 0,
   "byteOffset": 2592,
   "byteLength": 1296,
   "target": 34962
  },
  {
   "buffer": 0,
   "byteOffset": 3888,
   "byteLength": 864,
   "target": 34962
  },
  {
   "buffer": 0,
   "byteOffset": 4752,
   "byteLength": 432,
   "target": 34963
  }
 ],
 "buffers": [
  {
   "byteLength": 5184,
   "uri": "data:application/octet-stream;base64,"
  }
 ]
}
