{
 "asset": {
  "version": "2.0",
  "generator": "tools/gen_signal_parts.py (Connected Rails example mod)",
  "copyright": "Connected Rails project. Procedural model built from scratch in tools/gen_signal_parts.py, no third-party assets; licensed like the project."
 },
 "scene": 0,
 "scenes": [
  {
   "name": "sig_mast",
   "nodes": [
    0,
    1,
    2
   ]
  }
 ],
 "nodes": [
  {
   "name": "mast_LOD0",
   "mesh": 0
  },
  {
   "name": "mast_LOD1",
   "mesh": 1
  },
  {
   "name": "mp_schirm",
   "translation": [
    0.0,
    3.0,
    0.08
   ]
  }
 ],
 "meshes": [
  {
   "name": "mast_LOD0",
   "primitives": [
    {
     "attributes": {
      "POSITION": 0,
      "NORMAL": 1,
      "TEXCOORD_0": 2
     },
     "indices": 3,
     "material": 0
    }
   ]
  },
  {
   "name": "mast_LOD1",
   "primitives": [
    {
     "attributes": {
      "POSITION": 4,
      "NORMAL": 5,
      "TEXCOORD_0": 6
     },
     "indices": 7,
     "material": 0
    }
   ]
  }
 ],
 "materials": [
  {
   "name": "grey",
   "pbrMetallicRoughness": {
    "baseColorFactor": [
     0.42,
     0.44,
     0.46,
     1.0
    ],
    "metallicFactor": 0.3,
    "roughnessFactor": 0.6
   }
  }
 ],
 "accessors": [
  {
   "bufferView": 0,
   "componentType": 5126,
   "count": 108,
   "type": "VEC3",
   "min": [
    -0.16,
    0.0,
    -0.16
   ],
   "max": [
    0.16,
    3.8,
    0.16
   ]
  },
  {
   "bufferView": 1,
   "componentType": 5126,
   "count": 108,
   "type": "VEC3"
  },
  {
   "bufferView": 2,
   "componentType": 5126,
   "count": 108,
   "type": "VEC2"
  },
  {
   "bufferView": 3,
   "componentType": 5125,
   "count": 108,
   "type": "SCALAR"
  },
  {
   "bufferView": 4,
   "componentType": 5126,
   "count": 36,
   "type": "VEC3",
   "min": [
    -0.06,
    0.0,
    -0.06
   ],
   "max": [
    0.06,
    3.8,
    0.06
   ]
  },
  {
   "bufferView": 5,
   "componentType": 5126,
   "count": 36,
   "type": "VEC3"
  },
  {
   "bufferView": 6,
   "componentType": 5126,
   "count": 36,
   "type": "VEC2"
  },
  {
   "bufferView": 7,
   "componentType": 5125,
   "count": 36,
   "type": "SCALAR"
  }
 ],
 "bufferViews": [
  {
   "buffer": 0,
   "byteOffset": 0,
   "byteLength": 1296,
   "target": 34962
  },
  {
   "buffer": 0,
   "byteOffset": 1296,
   "byteLength": 1296,
   "target": 34962
  },
  {
   "buffer": 0,
   "byteOffset": 2592,
   "byteLength": 864,
   "target": 34962
  },
  {
   "buffer": 0,
   "byteOffset": 3456,
   "byteLength": 432,
   "target": 34963
  },
  {
   "buffer": 0,
   "byteOffset": 3888,
   "byteLength": 432,
   "target": 34962
  },
  {
   "buffer": 0,
   "byteOffset": 4320,
   "byteLength": 432,
   "target": 34962
  },
  {
   "buffer": 0,
   "byteOffset": 4752,
   "byteLength": 288,
   "target": 34962
  },
  {
   "buffer": 0,
   "byteOffset": 5040,
   "byteLength": 144,
   "target": 34963
  }
 ],
 "buffers": [
  {
   "byteLength": 5184,
   "uri": "data:application/octet-stream;base64,"
  }
 ]
}
