{
 "asset": {
  "version": "2.0",
  "generator": "tools/cars/build_cars.mjs (Connected Rails)",
  "copyright": "Vehicle meshes generated with a 3D tool; cleaned, fitted and cut into levels of detail by tools/cars/build_cars.mjs (Connected Rails, EUPL-1.2)"
 },
 "scene": 0,
 "scenes": [
  {
   "name": "limousine",
   "nodes": [
    0,
    1,
    2,
    3
   ]
  }
 ],
 "nodes": [
  {
   "name": "car_LOD0",
   "mesh": 0
  },
  {
   "name": "car_LOD1",
   "mesh": 1
  },
  {
   "name": "car_LOD2",
   "mesh": 2
  },
  {
   "name": "car_LOD3",
   "mesh": 3
  }
 ],
 "meshes": [
  {
   "name": "car_LOD0",
   "primitives": [
    {
     "attributes": {
      "POSITION": 0,
      "NORMAL": 1,
      "TEXCOORD_0": 2,
      "COLOR_0": 3
     },
     "indices": 4,
     "material": 0
    }
   ]
  },
  {
   "name": "car_LOD1",
   "primitives": [
    {
     "attributes": {
      "POSITION": 5,
      "NORMAL": 6,
      "TEXCOORD_0": 7,
      "COLOR_0": 8
     },
     "indices": 9,
     "material": 0
    }
   ]
  },
  {
   "name": "car_LOD2",
   "primitives": [
    {
     "attributes": {
      "POSITION": 10,
      "NORMAL": 11,
      "TEXCOORD_0": 12,
      "COLOR_0": 13
     },
     "indices": 14,
     "material": 0
    }
   ]
  },
  {
   "name": "car_LOD3",
   "primitives": [
    {
     "attributes": {
      "POSITION": 15,
      "NORMAL": 16,
      "TEXCOORD_0": 17,
      "COLOR_0": 18
     },
     "indices": 19,
     "material": 0
    }
   ]
  }
 ],
 "materials": [
  {
   "name": "lack",
   "pbrMetallicRoughness": {
    "baseColorFactor": [
     0.82,
     0.82,
     0.82,
     1
    ],
    "metallicFactor": 0.05,
    "roughnessFactor": 0.45,
    "baseColorTexture": {
     "index": 0
    }
   },
   "doubleSided": false
  },
  {
   "name": "glas",
   "pbrMetallicRoughness": {
    "baseColorFactor": [
     0.045,
     0.05,
     0.062,
     1
    ],
    "metallicFactor": 0,
    "roughnessFactor": 0.06
   },
   "doubleSided": false
  }
 ],
 "images": [
  {
   "uri": "limousine.dds"
  }
 ],
 "textures": [
  {
   "source": 0,
   "sampler": 0
  }
 ],
 "samplers": [
  {
   "magFilter": 9729,
   "minFilter": 9987,
   "wrapS": 10497,
   "wrapT": 10497
  }
 ],
 "accessors": [
  {
   "bufferView": 0,
   "componentType": 5126,
   "count": 30405,
   "type": "VEC3",
   "min": [
    -1.0065730337078653,
    0,
    -2.185
   ],
   "max": [
    1.0065730337078653,
    1.7804494382022473,
    2.185
   ]
  },
  {
   "bufferView": 1,
   "componentType": 5126,
   "count": 30405,
   "type": "VEC3"
  },
  {
   "bufferView": 2,
   "componentType": 5126,
   "count": 30405,
   "type": "VEC2"
  },
  {
   "bufferView": 3,
   "componentType": 5121,
   "count": 30405,
   "type": "VEC4",
   "normalized": true
  },
  {
   "bufferView": 4,
   "componentType": 5123,
   "count": 34203,
   "type": "SCALAR"
  },
  {
   "bufferView": 5,
   "componentType": 5126,
   "count": 5783,
   "type": "VEC3",
   "min": [
    -1.0065730337078653,
    0,
    -2.185
   ],
   "max": [
    1.0044382022471912,
    1.5968539325842699,
    2.182865168539326
   ]
  },
  {
   "bufferView": 6,
   "componentType": 5126,
   "count": 5783,
   "type": "VEC3"
  },
  {
   "bufferView": 7,
   "componentType": 5126,
   "count": 5783,
   "type": "VEC2"
  },
  {
   "bufferView": 8,
   "componentType": 5121,
   "count": 5783,
   "type": "VEC4",
   "normalized": true
  },
  {
   "bufferView": 9,
   "componentType": 5123,
   "count": 13680,
   "type": "SCALAR"
  },
  {
   "bufferView": 10,
   "componentType": 5126,
   "count": 1747,
   "type": "VEC3",
   "min": [
    -1.0065730337078653,
    0,
    -2.185
   ],
   "max": [
    0.9937640449438203,
    1.4901123595505619,
    2.182865168539326
   ]
  },
  {
   "bufferView": 11,
   "componentType": 5126,
   "count": 1747,
   "type": "VEC3"
  },
  {
   "bufferView": 12,
   "componentType": 5126,
   "count": 1747,
   "type": "VEC2"
  },
  {
   "bufferView": 13,
   "componentType": 5121,
   "count": 1747,
   "type": "VEC4",
   "normalized": true
  },
  {
   "bufferView": 14,
   "componentType": 5123,
   "count": 3762,
   "type": "SCALAR"
  },
  {
   "bufferView": 15,
   "componentType": 5126,
   "count": 552,
   "type": "VEC3",
   "min": [
    -0.9937640449438203,
    0,
    -2.1764606741573034
   ],
   "max": [
    0.9937640449438203,
    1.479438202247191,
    2.182865168539326
   ]
  },
  {
   "bufferView": 16,
   "componentType": 5126,
   "count": 552,
   "type": "VEC3"
  },
  {
   "bufferView": 17,
   "componentType": 5126,
   "count": 552,
   "type": "VEC2"
  },
  {
   "bufferView": 18,
   "componentType": 5121,
   "count": 552,
   "type": "VEC4",
   "normalized": true
  },
  {
   "bufferView": 19,
   "componentType": 5123,
   "count": 1026,
   "type": "SCALAR"
  }
 ],
 "bufferViews": [
  {
   "buffer": 0,
   "byteOffset": 0,
   "byteLength": 364860,
   "target": 34962,
   "byteStride": 12
  },
  {
   "buffer": 0,
   "byteOffset": 364860,
   "byteLength": 364860,
   "target": 34962,
   "byteStride": 12
  },
  {
   "buffer": 0,
   "byteOffset": 729720,
   "byteLength": 243240,
   "target": 34962,
   "byteStride": 8
  },
  {
   "buffer": 0,
   "byteOffset": 972960,
   "byteLength": 121620,
   "target": 34962,
   "byteStride": 4
  },
  {
   "buffer": 0,
   "byteOffset": 1094580,
   "byteLength": 68406,
   "target": 34963
  },
  {
   "buffer": 0,
   "byteOffset": 1162988,
   "byteLength": 69396,
   "target": 34962,
   "byteStride": 12
  },
  {
   "buffer": 0,
   "byteOffset": 1232384,
   "byteLength": 69396,
   "target": 34962,
   "byteStride": 12
  },
  {
   "buffer": 0,
   "byteOffset": 1301780,
   "byteLength": 46264,
   "target": 34962,
   "byteStride": 8
  },
  {
   "buffer": 0,
   "byteOffset": 1348044,
   "byteLength": 23132,
   "target": 34962,
   "byteStride": 4
  },
  {
   "buffer": 0,
   "byteOffset": 1371176,
   "byteLength": 27360,
   "target": 34963
  },
  {
   "buffer": 0,
   "byteOffset": 1398536,
   "byteLength": 20964,
   "target": 34962,
   "byteStride": 12
  },
  {
   "buffer": 0,
   "byteOffset": 1419500,
   "byteLength": 20964,
   "target": 34962,
   "byteStride": 12
  },
  {
   "buffer": 0,
   "byteOffset": 1440464,
   "byteLength": 13976,
   "target": 34962,
   "byteStride": 8
  },
  {
   "buffer": 0,
   "byteOffset": 1454440,
   "byteLength": 6988,
   "target": 34962,
   "byteStride": 4
  },
  {
   "buffer": 0,
   "byteOffset": 1461428,
   "byteLength": 7524,
   "target": 34963
  },
  {
   "buffer": 0,
   "byteOffset": 1468952,
   "byteLength": 6624,
   "target": 34962,
   "byteStride": 12
  },
  {
   "buffer": 0,
   "byteOffset": 1475576,
   "byteLength": 6624,
   "target": 34962,
   "byteStride": 12
  },
  {
   "buffer": 0,
   "byteOffset": 1482200,
   "byteLength": 4416,
   "target": 34962,
   "byteStride": 8
  },
  {
   "buffer": 0,
   "byteOffset": 1486616,
   "byteLength": 2208,
   "target": 34962,
   "byteStride": 4
  },
  {
   "buffer": 0,
   "byteOffset": 1488824,
   "byteLength": 2052,
   "target": 34963
  }
 ],
 "buffers": [
  {
   "uri": "limousine.bin",
   "byteLength": 1490876
  }
 ]
}
