{
 "asset": {
  "version": "2.0",
  "generator": "tools/pylons/build_pylons.mjs (Connected Rails)",
  "copyright": "Connected Rails, EUPL v. 1.2 — generated by tools/pylons/build_pylons.mjs"
 },
 "scene": 0,
 "scenes": [
  {
   "name": "bahnstrommast_110_zweiebenen_abspann",
   "nodes": [
    0,
    1,
    2,
    3
   ]
  }
 ],
 "nodes": [
  {
   "name": "mast_LOD0",
   "mesh": 0
  },
  {
   "name": "mast_LOD1",
   "mesh": 1
  },
  {
   "name": "mast_LOD2",
   "mesh": 2
  },
  {
   "name": "mast_LOD3",
   "mesh": 3
  }
 ],
 "meshes": [
  {
   "name": "mast_LOD0",
   "primitives": [
    {
     "attributes": {
      "POSITION": 0,
      "NORMAL": 1,
      "TEXCOORD_0": 2,
      "COLOR_0": 3
     },
     "indices": 4,
     "material": 0
    },
    {
     "attributes": {
      "POSITION": 5,
      "NORMAL": 6,
      "TEXCOORD_0": 7,
      "COLOR_0": 8
     },
     "indices": 9,
     "material": 1
    },
    {
     "attributes": {
      "POSITION": 10,
      "NORMAL": 11,
      "TEXCOORD_0": 12,
      "COLOR_0": 13
     },
     "indices": 14,
     "material": 2
    }
   ]
  },
  {
   "name": "mast_LOD1",
   "primitives": [
    {
     "attributes": {
      "POSITION": 15,
      "NORMAL": 16,
      "TEXCOORD_0": 17,
      "COLOR_0": 18
     },
     "indices": 19,
     "material": 0
    },
    {
     "attributes": {
      "POSITION": 20,
      "NORMAL": 21,
      "TEXCOORD_0": 22,
      "COLOR_0": 23
     },
     "indices": 24,
     "material": 1
    },
    {
     "attributes": {
      "POSITION": 25,
      "NORMAL": 26,
      "TEXCOORD_0": 27,
      "COLOR_0": 28
     },
     "indices": 29,
     "material": 2
    }
   ]
  },
  {
   "name": "mast_LOD2",
   "primitives": [
    {
     "attributes": {
      "POSITION": 30,
      "NORMAL": 31,
      "TEXCOORD_0": 32,
      "COLOR_0": 33
     },
     "indices": 34,
     "material": 0
    },
    {
     "attributes": {
      "POSITION": 35,
      "NORMAL": 36,
      "TEXCOORD_0": 37,
      "COLOR_0": 38
     },
     "indices": 39,
     "material": 1
    }
   ]
  },
  {
   "name": "mast_LOD3",
   "primitives": [
    {
     "attributes": {
      "POSITION": 40,
      "NORMAL": 41,
      "TEXCOORD_0": 42,
      "COLOR_0": 43
     },
     "indices": 44,
     "material": 0
    },
    {
     "attributes": {
      "POSITION": 45,
      "NORMAL": 46,
      "TEXCOORD_0": 47,
      "COLOR_0": 48
     },
     "indices": 49,
     "material": 1
    }
   ]
  }
 ],
 "materials": [
  {
   "name": "verzinkt",
   "pbrMetallicRoughness": {
    "baseColorFactor": [
     1,
     1,
     1,
     1
    ],
    "metallicFactor": 1,
    "roughnessFactor": 1,
    "baseColorTexture": {
     "index": 0
    },
    "metallicRoughnessTexture": {
     "index": 1
    }
   },
   "doubleSided": false,
   "occlusionTexture": {
    "index": 1
   },
   "normalTexture": {
    "index": 2,
    "scale": 1
   }
  },
  {
   "name": "isolator",
   "pbrMetallicRoughness": {
    "baseColorFactor": [
     0.111,
     0.043,
     0.026,
     1
    ],
    "metallicFactor": 0,
    "roughnessFactor": 0.32
   },
   "doubleSided": false
  },
  {
   "name": "fundament",
   "pbrMetallicRoughness": {
    "baseColorFactor": [
     1,
     1,
     1,
     1
    ],
    "metallicFactor": 1,
    "roughnessFactor": 1,
    "baseColorTexture": {
     "index": 3
    },
    "metallicRoughnessTexture": {
     "index": 4
    }
   },
   "doubleSided": false,
   "occlusionTexture": {
    "index": 4
   },
   "normalTexture": {
    "index": 5,
    "scale": 1
   }
  }
 ],
 "images": [
  {
   "uri": "verzinkt_colour.png"
  },
  {
   "uri": "verzinkt_orm.png"
  },
  {
   "uri": "verzinkt_normal.png"
  },
  {
   "uri": "beton_colour.png"
  },
  {
   "uri": "beton_orm.png"
  },
  {
   "uri": "beton_normal.png"
  },
  {
   "uri": "holz_colour.png"
  },
  {
   "uri": "holz_orm.png"
  },
  {
   "uri": "holz_normal.png"
  }
 ],
 "textures": [
  {
   "source": 0,
   "sampler": 0
  },
  {
   "source": 1,
   "sampler": 0
  },
  {
   "source": 2,
   "sampler": 0
  },
  {
   "source": 3,
   "sampler": 0
  },
  {
   "source": 4,
   "sampler": 0
  },
  {
   "source": 5,
   "sampler": 0
  },
  {
   "source": 6,
   "sampler": 0
  },
  {
   "source": 7,
   "sampler": 0
  },
  {
   "source": 8,
   "sampler": 0
  }
 ],
 "samplers": [
  {
   "magFilter": 9729,
   "minFilter": 9987,
   "wrapS": 10497,
   "wrapT": 10497
  }
 ],
 "accessors": [
  {
   "bufferView": 0,
   "componentType": 5126,
   "count": 5120,
   "type": "VEC3",
   "min": [
    -4.576190660054825,
    -0.14776782505264302,
    -3.4412700913339247
   ],
   "max": [
    4.576190660054825,
    32.02595605809418,
    3.4412700913339247
   ]
  },
  {
   "bufferView": 1,
   "componentType": 5126,
   "count": 5120,
   "type": "VEC3"
  },
  {
   "bufferView": 2,
   "componentType": 5126,
   "count": 5120,
   "type": "VEC2"
  },
  {
   "bufferView": 3,
   "componentType": 5121,
   "count": 5120,
   "type": "VEC4",
   "normalized": true
  },
  {
   "bufferView": 4,
   "componentType": 5123,
   "count": 7680,
   "type": "SCALAR"
  },
  {
   "bufferView": 5,
   "componentType": 5126,
   "count": 3840,
   "type": "VEC3",
   "min": [
    -4.58,
    23.680717967697245,
    -1.4449999999999998
   ],
   "max": [
    4.58,
    28.299282032302756,
    1.4449999999999998
   ]
  },
  {
   "bufferView": 6,
   "componentType": 5126,
   "count": 3840,
   "type": "VEC3"
  },
  {
   "bufferView": 7,
   "componentType": 5126,
   "count": 3840,
   "type": "VEC2"
  },
  {
   "bufferView": 8,
   "componentType": 5121,
   "count": 3840,
   "type": "VEC4",
   "normalized": true
  },
  {
   "bufferView": 9,
   "componentType": 5123,
   "count": 5760,
   "type": "SCALAR"
  },
  {
   "bufferView": 10,
   "componentType": 5126,
   "count": 96,
   "type": "VEC3",
   "min": [
    -3.5969999999999995,
    -0.4,
    -3.5969999999999995
   ],
   "max": [
    3.5969999999999995,
    0.45760000000000006,
    3.5969999999999995
   ]
  },
  {
   "bufferView": 11,
   "componentType": 5126,
   "count": 96,
   "type": "VEC3"
  },
  {
   "bufferView": 12,
   "componentType": 5126,
   "count": 96,
   "type": "VEC2"
  },
  {
   "bufferView": 13,
   "componentType": 5121,
   "count": 96,
   "type": "VEC4",
   "normalized": true
  },
  {
   "bufferView": 14,
   "componentType": 5123,
   "count": 144,
   "type": "SCALAR"
  },
  {
   "bufferView": 15,
   "componentType": 5126,
   "count": 1600,
   "type": "VEC3",
   "min": [
    -4.587619259063049,
    -0.18027674656422438,
    -3.4844495114273886
   ],
   "max": [
    4.587619259063049,
    32.0316663908749,
    3.4844495114273886
   ]
  },
  {
   "bufferView": 16,
   "componentType": 5126,
   "count": 1600,
   "type": "VEC3"
  },
  {
   "bufferView": 17,
   "componentType": 5126,
   "count": 1600,
   "type": "VEC2"
  },
  {
   "bufferView": 18,
   "componentType": 5121,
   "count": 1600,
   "type": "VEC4",
   "normalized": true
  },
  {
   "bufferView": 19,
   "componentType": 5123,
   "count": 2400,
   "type": "SCALAR"
  },
  {
   "bufferView": 20,
   "componentType": 5126,
   "count": 1792,
   "type": "VEC3",
   "min": [
    -4.58,
    23.680717967697245,
    -1.4449999999999998
   ],
   "max": [
    4.58,
    28.299282032302756,
    1.4449999999999998
   ]
  },
  {
   "bufferView": 21,
   "componentType": 5126,
   "count": 1792,
   "type": "VEC3"
  },
  {
   "bufferView": 22,
   "componentType": 5126,
   "count": 1792,
   "type": "VEC2"
  },
  {
   "bufferView": 23,
   "componentType": 5121,
   "count": 1792,
   "type": "VEC4",
   "normalized": true
  },
  {
   "bufferView": 24,
   "componentType": 5123,
   "count": 2688,
   "type": "SCALAR"
  },
  {
   "bufferView": 25,
   "componentType": 5126,
   "count": 96,
   "type": "VEC3",
   "min": [
    -3.6744399999999997,
    -0.4,
    -3.6744399999999997
   ],
   "max": [
    3.6744399999999997,
    0.558272,
    3.6744399999999997
   ]
  },
  {
   "bufferView": 26,
   "componentType": 5126,
   "count": 96,
   "type": "VEC3"
  },
  {
   "bufferView": 27,
   "componentType": 5126,
   "count": 96,
   "type": "VEC2"
  },
  {
   "bufferView": 28,
   "componentType": 5121,
   "count": 96,
   "type": "VEC4",
   "normalized": true
  },
  {
   "bufferView": 29,
   "componentType": 5123,
   "count": 144,
   "type": "SCALAR"
  },
  {
   "bufferView": 30,
   "componentType": 5126,
   "count": 768,
   "type": "VEC3",
   "min": [
    -4.615642547035455,
    -0.16993299881053944,
    -3.470710605034013
   ],
   "max": [
    4.615642547035455,
    32.02984946680831,
    3.470710605034013
   ]
  },
  {
   "bufferView": 31,
   "componentType": 5126,
   "count": 768,
   "type": "VEC3"
  },
  {
   "bufferView": 32,
   "componentType": 5126,
   "count": 768,
   "type": "VEC2"
  },
  {
   "bufferView": 33,
   "componentType": 5121,
   "count": 768,
   "type": "VEC4",
   "normalized": true
  },
  {
   "bufferView": 34,
   "componentType": 5123,
   "count": 1152,
   "type": "SCALAR"
  },
  {
   "bufferView": 35,
   "componentType": 5126,
   "count": 256,
   "type": "VEC3",
   "min": [
    -4.525,
    23.725,
    -1.4449999999999998
   ],
   "max": [
    4.525,
    28.255,
    1.4449999999999998
   ]
  },
  {
   "bufferView": 36,
   "componentType": 5126,
   "count": 256,
   "type": "VEC3"
  },
  {
   "bufferView": 37,
   "componentType": 5126,
   "count": 256,
   "type": "VEC2"
  },
  {
   "bufferView": 38,
   "componentType": 5121,
   "count": 256,
   "type": "VEC4",
   "normalized": true
  },
  {
   "bufferView": 39,
   "componentType": 5123,
   "count": 384,
   "type": "SCALAR"
  },
  {
   "bufferView": 40,
   "componentType": 5126,
   "count": 384,
   "type": "VEC3",
   "min": [
    -4.557270594722321,
    -0.295535650105286,
    -3.6375401826678497
   ],
   "max": [
    4.557270594722321,
    32.05191211618836,
    3.6375401826678497
   ]
  },
  {
   "bufferView": 41,
   "componentType": 5126,
   "count": 384,
   "type": "VEC3"
  },
  {
   "bufferView": 42,
   "componentType": 5126,
   "count": 384,
   "type": "VEC2"
  },
  {
   "bufferView": 43,
   "componentType": 5121,
   "count": 384,
   "type": "VEC4",
   "normalized": true
  },
  {
   "bufferView": 44,
   "componentType": 5123,
   "count": 576,
   "type": "SCALAR"
  },
  {
   "bufferView": 45,
   "componentType": 5126,
   "count": 128,
   "type": "VEC3",
   "min": [
    -4.565,
    22.5,
    -0.065
   ],
   "max": [
    4.565,
    28.28,
    0.065
   ]
  },
  {
   "bufferView": 46,
   "componentType": 5126,
   "count": 128,
   "type": "VEC3"
  },
  {
   "bufferView": 47,
   "componentType": 5126,
   "count": 128,
   "type": "VEC2"
  },
  {
   "bufferView": 48,
   "componentType": 5121,
   "count": 128,
   "type": "VEC4",
   "normalized": true
  },
  {
   "bufferView": 49,
   "componentType": 5123,
   "count": 192,
   "type": "SCALAR"
  }
 ],
 "bufferViews": [
  {
   "buffer": 0,
   "byteOffset": 434304,
   "byteLength": 61440,
   "target": 34962,
   "byteStride": 12
  },
  {
   "buffer": 0,
   "byteOffset": 495744,
   "byteLength": 61440,
   "target": 34962,
   "byteStride": 12
  },
  {
   "buffer": 0,
   "byteOffset": 557184,
   "byteLength": 40960,
   "target": 34962,
   "byteStride": 8
  },
  {
   "buffer": 0,
   "byteOffset": 598144,
   "byteLength": 20480,
   "target": 34962,
   "byteStride": 4
  },
  {
   "buffer": 0,
   "byteOffset": 618624,
   "byteLength": 15360,
   "target": 34963
  },
  {
   "buffer": 0,
   "byteOffset": 633984,
   "byteLength": 46080,
   "target": 34962,
   "byteStride": 12
  },
  {
   "buffer": 0,
   "byteOffset": 680064,
   "byteLength": 46080,
   "target": 34962,
   "byteStride": 12
  },
  {
   "buffer": 0,
   "byteOffset": 726144,
   "byteLength": 30720,
   "target": 34962,
   "byteStride": 8
  },
  {
   "buffer": 0,
   "byteOffset": 756864,
   "byteLength": 15360,
   "target": 34962,
   "byteStride": 4
  },
  {
   "buffer": 0,
   "byteOffset": 772224,
   "byteLength": 11520,
   "target": 34963
  },
  {
   "buffer": 0,
   "byteOffset": 783744,
   "byteLength": 1152,
   "target": 34962,
   "byteStride": 12
  },
  {
   "buffer": 0,
   "byteOffset": 784896,
   "byteLength": 1152,
   "target": 34962,
   "byteStride": 12
  },
  {
   "buffer": 0,
   "byteOffset": 786048,
   "byteLength": 768,
   "target": 34962,
   "byteStride": 8
  },
  {
   "buffer": 0,
   "byteOffset": 786816,
   "byteLength": 384,
   "target": 34962,
   "byteStride": 4
  },
  {
   "buffer": 0,
   "byteOffset": 787200,
   "byteLength": 288,
   "target": 34963
  },
  {
   "buffer": 0,
   "byteOffset": 787488,
   "byteLength": 19200,
   "target": 34962,
   "byteStride": 12
  },
  {
   "buffer": 0,
   "byteOffset": 806688,
   "byteLength": 19200,
   "target": 34962,
   "byteStride": 12
  },
  {
   "buffer": 0,
   "byteOffset": 825888,
   "byteLength": 12800,
   "target": 34962,
   "byteStride": 8
  },
  {
   "buffer": 0,
   "byteOffset": 838688,
   "byteLength": 6400,
   "target": 34962,
   "byteStride": 4
  },
  {
   "buffer": 0,
   "byteOffset": 845088,
   "byteLength": 4800,
   "target": 34963
  },
  {
   "buffer": 0,
   "byteOffset": 849888,
   "byteLength": 21504,
   "target": 34962,
   "byteStride": 12
  },
  {
   "buffer": 0,
   "byteOffset": 871392,
   "byteLength": 21504,
   "target": 34962,
   "byteStride": 12
  },
  {
   "buffer": 0,
   "byteOffset": 892896,
   "byteLength": 14336,
   "target": 34962,
   "byteStride": 8
  },
  {
   "buffer": 0,
   "byteOffset": 907232,
   "byteLength": 7168,
   "target": 34962,
   "byteStride": 4
  },
  {
   "buffer": 0,
   "byteOffset": 914400,
   "byteLength": 5376,
   "target": 34963
  },
  {
   "buffer": 0,
   "byteOffset": 919776,
   "byteLength": 1152,
   "target": 34962,
   "byteStride": 12
  },
  {
   "buffer": 0,
   "byteOffset": 920928,
   "byteLength": 1152,
   "target": 34962,
   "byteStride": 12
  },
  {
   "buffer": 0,
   "byteOffset": 922080,
   "byteLength": 768,
   "target": 34962,
   "byteStride": 8
  },
  {
   "buffer": 0,
   "byteOffset": 922848,
   "byteLength": 384,
   "target": 34962,
   "byteStride": 4
  },
  {
   "buffer": 0,
   "byteOffset": 923232,
   "byteLength": 288,
   "target": 34963
  },
  {
   "buffer": 0,
   "byteOffset": 923520,
   "byteLength": 9216,
   "target": 34962,
   "byteStride": 12
  },
  {
   "buffer": 0,
   "byteOffset": 932736,
   "byteLength": 9216,
   "target": 34962,
   "byteStride": 12
  },
  {
   "buffer": 0,
   "byteOffset": 941952,
   "byteLength": 6144,
   "target": 34962,
   "byteStride": 8
  },
  {
   "buffer": 0,
   "byteOffset": 948096,
   "byteLength": 3072,
   "target": 34962,
   "byteStride": 4
  },
  {
   "buffer": 0,
   "byteOffset": 951168,
   "byteLength": 2304,
   "target": 34963
  },
  {
   "buffer": 0,
   "byteOffset": 953472,
   "byteLength": 3072,
   "target": 34962,
   "byteStride": 12
  },
  {
   "buffer": 0,
   "byteOffset": 956544,
   "byteLength": 3072,
   "target": 34962,
   "byteStride": 12
  },
  {
   "buffer": 0,
   "byteOffset": 959616,
   "byteLength": 2048,
   "target": 34962,
   "byteStride": 8
  },
  {
   "buffer": 0,
   "byteOffset": 961664,
   "byteLength": 1024,
   "target": 34962,
   "byteStride": 4
  },
  {
   "buffer": 0,
   "byteOffset": 962688,
   "byteLength": 768,
   "target": 34963
  },
  {
   "buffer": 0,
   "byteOffset": 963456,
   "byteLength": 4608,
   "target": 34962,
   "byteStride": 12
  },
  {
   "buffer": 0,
   "byteOffset": 968064,
   "byteLength": 4608,
   "target": 34962,
   "byteStride": 12
  },
  {
   "buffer": 0,
   "byteOffset": 972672,
   "byteLength": 3072,
   "target": 34962,
   "byteStride": 8
  },
  {
   "buffer": 0,
   "byteOffset": 975744,
   "byteLength": 1536,
   "target": 34962,
   "byteStride": 4
  },
  {
   "buffer": 0,
   "byteOffset": 977280,
   "byteLength": 1152,
   "target": 34963
  },
  {
   "buffer": 0,
   "byteOffset": 978432,
   "byteLength": 1536,
   "target": 34962,
   "byteStride": 12
  },
  {
   "buffer": 0,
   "byteOffset": 979968,
   "byteLength": 1536,
   "target": 34962,
   "byteStride": 12
  },
  {
   "buffer": 0,
   "byteOffset": 981504,
   "byteLength": 1024,
   "target": 34962,
   "byteStride": 8
  },
  {
   "buffer": 0,
   "byteOffset": 982528,
   "byteLength": 512,
   "target": 34962,
   "byteStride": 4
  },
  {
   "buffer": 0,
   "byteOffset": 983040,
   "byteLength": 384,
   "target": 34963
  }
 ],
 "buffers": [
  {
   "uri": "bahnstrommast_110_zweiebenen.bin",
   "byteLength": 983424
  }
 ]
}
