{
 "asset": {
  "version": "2.0",
  "generator": "tools/pylons/build_pylons.mjs (Connected Rails)",
  "copyright": "Connected Rails, EUPL v. 1.2 — generated by tools/pylons/build_pylons.mjs"
 },
 "scene": 0,
 "scenes": [
  {
   "name": "einebenenmast_380_abspann",
   "nodes": [
    0,
    1,
    2,
    3
   ]
  }
 ],
 "nodes": [
  {
   "name": "mast_LOD0",
   "mesh": 0
  },
  {
   "name": "mast_LOD1",
   "mesh": 1
  },
  {
   "name": "mast_LOD2",
   "mesh": 2
  },
  {
   "name": "mast_LOD3",
   "mesh": 3
  }
 ],
 "meshes": [
  {
   "name": "mast_LOD0",
   "primitives": [
    {
     "attributes": {
      "POSITION": 0,
      "NORMAL": 1,
      "TEXCOORD_0": 2,
      "COLOR_0": 3
     },
     "indices": 4,
     "material": 0
    },
    {
     "attributes": {
      "POSITION": 5,
      "NORMAL": 6,
      "TEXCOORD_0": 7,
      "COLOR_0": 8
     },
     "indices": 9,
     "material": 1
    },
    {
     "attributes": {
      "POSITION": 10,
      "NORMAL": 11,
      "TEXCOORD_0": 12,
      "COLOR_0": 13
     },
     "indices": 14,
     "material": 2
    },
    {
     "attributes": {
      "POSITION": 15,
      "NORMAL": 16,
      "TEXCOORD_0": 17,
      "COLOR_0": 18
     },
     "indices": 19,
     "material": 3
    },
    {
     "attributes": {
      "POSITION": 20,
      "NORMAL": 21,
      "TEXCOORD_0": 22,
      "COLOR_0": 23
     },
     "indices": 24,
     "material": 4
    }
   ]
  },
  {
   "name": "mast_LOD1",
   "primitives": [
    {
     "attributes": {
      "POSITION": 25,
      "NORMAL": 26,
      "TEXCOORD_0": 27,
      "COLOR_0": 28
     },
     "indices": 29,
     "material": 0
    },
    {
     "attributes": {
      "POSITION": 30,
      "NORMAL": 31,
      "TEXCOORD_0": 32,
      "COLOR_0": 33
     },
     "indices": 34,
     "material": 1
    },
    {
     "attributes": {
      "POSITION": 35,
      "NORMAL": 36,
      "TEXCOORD_0": 37,
      "COLOR_0": 38
     },
     "indices": 39,
     "material": 2
    }
   ]
  },
  {
   "name": "mast_LOD2",
   "primitives": [
    {
     "attributes": {
      "POSITION": 40,
      "NORMAL": 41,
      "TEXCOORD_0": 42,
      "COLOR_0": 43
     },
     "indices": 44,
     "material": 0
    }
   ]
  },
  {
   "name": "mast_LOD3",
   "primitives": [
    {
     "attributes": {
      "POSITION": 45,
      "NORMAL": 46,
      "TEXCOORD_0": 47,
      "COLOR_0": 48
     },
     "indices": 49,
     "material": 0
    },
    {
     "attributes": {
      "POSITION": 50,
      "NORMAL": 51,
      "TEXCOORD_0": 52,
      "COLOR_0": 53
     },
     "indices": 54,
     "material": 1
    }
   ]
  }
 ],
 "materials": [
  {
   "name": "verzinkt",
   "pbrMetallicRoughness": {
    "baseColorFactor": [
     1,
     1,
     1,
     1
    ],
    "metallicFactor": 1,
    "roughnessFactor": 1,
    "baseColorTexture": {
     "index": 0
    },
    "metallicRoughnessTexture": {
     "index": 1
    }
   },
   "doubleSided": false,
   "occlusionTexture": {
    "index": 1
   },
   "normalTexture": {
    "index": 2,
    "scale": 0.36
   }
  },
  {
   "name": "isolator",
   "pbrMetallicRoughness": {
    "baseColorFactor": [
     0.111,
     0.043,
     0.026,
     1
    ],
    "metallicFactor": 0,
    "roughnessFactor": 0.32
   },
   "doubleSided": false
  },
  {
   "name": "fundament",
   "pbrMetallicRoughness": {
    "baseColorFactor": [
     1,
     1,
     1,
     1
    ],
    "metallicFactor": 1,
    "roughnessFactor": 1,
    "baseColorTexture": {
     "index": 3
    },
    "metallicRoughnessTexture": {
     "index": 4
    }
   },
   "doubleSided": false,
   "occlusionTexture": {
    "index": 4
   },
   "normalTexture": {
    "index": 5,
    "scale": 1
   }
  },
  {
   "name": "beschlaege_verzinkt",
   "pbrMetallicRoughness": {
    "baseColorFactor": [
     1,
     1,
     1,
     1
    ],
    "metallicFactor": 1,
    "roughnessFactor": 1,
    "baseColorTexture": {
     "index": 0
    },
    "metallicRoughnessTexture": {
     "index": 1
    }
   },
   "doubleSided": false,
   "occlusionTexture": {
    "index": 1
   },
   "normalTexture": {
    "index": 2,
    "scale": 0.36
   }
  },
  {
   "name": "warnschild_bedruckt",
   "pbrMetallicRoughness": {
    "baseColorFactor": [
     1,
     1,
     1,
     1
    ],
    "metallicFactor": 1,
    "roughnessFactor": 1,
    "baseColorTexture": {
     "index": 9
    },
    "metallicRoughnessTexture": {
     "index": 10
    }
   },
   "doubleSided": false,
   "occlusionTexture": {
    "index": 10
   },
   "normalTexture": {
    "index": 11,
    "scale": 0.12
   }
  },
  {
   "name": "warnschild_schwarz",
   "pbrMetallicRoughness": {
    "baseColorFactor": [
     0.006,
     0.006,
     0.006,
     1
    ],
    "metallicFactor": 0,
    "roughnessFactor": 0.58
   },
   "doubleSided": false
  }
 ],
 "images": [
  {
   "uri": "verzinkt_colour.png"
  },
  {
   "uri": "verzinkt_orm.png"
  },
  {
   "uri": "verzinkt_normal.png"
  },
  {
   "uri": "beton_colour.png"
  },
  {
   "uri": "beton_orm.png"
  },
  {
   "uri": "beton_normal.png"
  },
  {
   "uri": "holz_colour.png"
  },
  {
   "uri": "holz_orm.png"
  },
  {
   "uri": "holz_normal.png"
  },
  {
   "uri": "warnschild_colour.png"
  },
  {
   "uri": "warnschild_orm.png"
  },
  {
   "uri": "warnschild_normal.png"
  }
 ],
 "textures": [
  {
   "source": 0,
   "sampler": 0
  },
  {
   "source": 1,
   "sampler": 0
  },
  {
   "source": 2,
   "sampler": 0
  },
  {
   "source": 3,
   "sampler": 0
  },
  {
   "source": 4,
   "sampler": 0
  },
  {
   "source": 5,
   "sampler": 0
  },
  {
   "source": 6,
   "sampler": 0
  },
  {
   "source": 7,
   "sampler": 0
  },
  {
   "source": 8,
   "sampler": 0
  },
  {
   "source": 9,
   "sampler": 0
  },
  {
   "source": 10,
   "sampler": 0
  },
  {
   "source": 11,
   "sampler": 0
  }
 ],
 "samplers": [
  {
   "magFilter": 9729,
   "minFilter": 9987,
   "wrapS": 10497,
   "wrapT": 10497
  }
 ],
 "accessors": [
  {
   "bufferView": 0,
   "componentType": 5126,
   "count": 17616,
   "type": "VEC3",
   "min": [
    -22.71436003828175,
    -0.25231003034227467,
    -4.922255753722427
   ],
   "max": [
    22.71436003828175,
    42.125249911254436,
    4.922255753722427
   ]
  },
  {
   "bufferView": 1,
   "componentType": 5126,
   "count": 17616,
   "type": "VEC3"
  },
  {
   "bufferView": 2,
   "componentType": 5126,
   "count": 17616,
   "type": "VEC2"
  },
  {
   "bufferView": 3,
   "componentType": 5121,
   "count": 17616,
   "type": "VEC4",
   "normalized": true
  },
  {
   "bufferView": 4,
   "componentType": 5123,
   "count": 25200,
   "type": "SCALAR"
  },
  {
   "bufferView": 5,
   "componentType": 5126,
   "count": 26496,
   "type": "VEC3",
   "min": [
    -22.745000000000005,
    32.742999999999995,
    -3.4780869565217394
   ],
   "max": [
    22.745000000000005,
    33.033,
    3.4780869565217394
   ]
  },
  {
   "bufferView": 6,
   "componentType": 5126,
   "count": 26496,
   "type": "VEC3"
  },
  {
   "bufferView": 7,
   "componentType": 5126,
   "count": 26496,
   "type": "VEC2"
  },
  {
   "bufferView": 8,
   "componentType": 5121,
   "count": 26496,
   "type": "VEC4",
   "normalized": true
  },
  {
   "bufferView": 9,
   "componentType": 5123,
   "count": 39744,
   "type": "SCALAR"
  },
  {
   "bufferView": 10,
   "componentType": 5126,
   "count": 96,
   "type": "VEC3",
   "min": [
    -5.145999999999999,
    -0.4,
    -5.145999999999999
   ],
   "max": [
    5.145999999999999,
    0.7072,
    5.145999999999999
   ]
  },
  {
   "bufferView": 11,
   "componentType": 5126,
   "count": 96,
   "type": "VEC3"
  },
  {
   "bufferView": 12,
   "componentType": 5126,
   "count": 96,
   "type": "VEC2"
  },
  {
   "bufferView": 13,
   "componentType": 5121,
   "count": 96,
   "type": "VEC4",
   "normalized": true
  },
  {
   "bufferView": 14,
   "componentType": 5123,
   "count": 144,
   "type": "SCALAR"
  },
  {
   "bufferView": 15,
   "componentType": 5126,
   "count": 252,
   "type": "VEC3",
   "min": [
    3.8033735664322648,
    2.8975615879001575,
    -4.279886142281912
   ],
   "max": [
    4.279886142281912,
    3.568958004894515,
    -3.8033735664322648
   ]
  },
  {
   "bufferView": 16,
   "componentType": 5126,
   "count": 252,
   "type": "VEC3"
  },
  {
   "bufferView": 17,
   "componentType": 5126,
   "count": 252,
   "type": "VEC2"
  },
  {
   "bufferView": 18,
   "componentType": 5121,
   "count": 252,
   "type": "VEC4",
   "normalized": true
  },
  {
   "bufferView": 19,
   "componentType": 5123,
   "count": 324,
   "type": "SCALAR"
  },
  {
   "bufferView": 20,
   "componentType": 5126,
   "count": 4,
   "type": "VEC3",
   "min": [
    3.812782841797114,
    2.904285333329014,
    -4.289328515297536
   ],
   "max": [
    4.289328515297536,
    3.5707917536478395,
    -3.812782841797114
   ]
  },
  {
   "bufferView": 21,
   "componentType": 5126,
   "count": 4,
   "type": "VEC3"
  },
  {
   "bufferView": 22,
   "componentType": 5126,
   "count": 4,
   "type": "VEC2"
  },
  {
   "bufferView": 23,
   "componentType": 5121,
   "count": 4,
   "type": "VEC4",
   "normalized": true
  },
  {
   "bufferView": 24,
   "componentType": 5123,
   "count": 6,
   "type": "SCALAR"
  },
  {
   "bufferView": 25,
   "componentType": 5126,
   "count": 2480,
   "type": "VEC3",
   "min": [
    -22.731290050950793,
    -0.30781823701757505,
    -4.992712019541361
   ],
   "max": [
    22.731290050950793,
    42.152804891730405,
    4.992712019541361
   ]
  },
  {
   "bufferView": 26,
   "componentType": 5126,
   "count": 2480,
   "type": "VEC3"
  },
  {
   "bufferView": 27,
   "componentType": 5126,
   "count": 2480,
   "type": "VEC2"
  },
  {
   "bufferView": 28,
   "componentType": 5121,
   "count": 2480,
   "type": "VEC4",
   "normalized": true
  },
  {
   "bufferView": 29,
   "componentType": 5123,
   "count": 3504,
   "type": "SCALAR"
  },
  {
   "bufferView": 30,
   "componentType": 5126,
   "count": 6144,
   "type": "VEC3",
   "min": [
    -22.745000000000005,
    32.742999999999995,
    -3.3395
   ],
   "max": [
    22.745000000000005,
    33.033,
    3.3395
   ]
  },
  {
   "bufferView": 31,
   "componentType": 5126,
   "count": 6144,
   "type": "VEC3"
  },
  {
   "bufferView": 32,
   "componentType": 5126,
   "count": 6144,
   "type": "VEC2"
  },
  {
   "bufferView": 33,
   "componentType": 5121,
   "count": 6144,
   "type": "VEC4",
   "normalized": true
  },
  {
   "bufferView": 34,
   "componentType": 5123,
   "count": 9216,
   "type": "SCALAR"
  },
  {
   "bufferView": 35,
   "componentType": 5126,
   "count": 96,
   "type": "VEC3",
   "min": [
    -5.26568,
    -0.4,
    -5.26568
   ],
   "max": [
    5.26568,
    0.8627840000000001,
    5.26568
   ]
  },
  {
   "bufferView": 36,
   "componentType": 5126,
   "count": 96,
   "type": "VEC3"
  },
  {
   "bufferView": 37,
   "componentType": 5126,
   "count": 96,
   "type": "VEC2"
  },
  {
   "bufferView": 38,
   "componentType": 5121,
   "count": 96,
   "type": "VEC4",
   "normalized": true
  },
  {
   "bufferView": 39,
   "componentType": 5123,
   "count": 144,
   "type": "SCALAR"
  },
  {
   "bufferView": 40,
   "componentType": 5126,
   "count": 1248,
   "type": "VEC3",
   "min": [
    -22.7647,
    -0.26240243155596565,
    -4.935065983871324
   ],
   "max": [
    22.7647,
    42.13025990770461,
    4.935065983871324
   ]
  },
  {
   "bufferView": 41,
   "componentType": 5126,
   "count": 1248,
   "type": "VEC3"
  },
  {
   "bufferView": 42,
   "componentType": 5126,
   "count": 1248,
   "type": "VEC2"
  },
  {
   "bufferView": 43,
   "componentType": 5121,
   "count": 1248,
   "type": "VEC4",
   "normalized": true
  },
  {
   "bufferView": 44,
   "componentType": 5123,
   "count": 1728,
   "type": "SCALAR"
  },
  {
   "bufferView": 45,
   "componentType": 5126,
   "count": 320,
   "type": "VEC3",
   "min": [
    -22.62734358092938,
    -0.4415425530989807,
    -5.162447569014248
   ],
   "max": [
    22.62734358092938,
    42.21918734469526,
    5.162447569014248
   ]
  },
  {
   "bufferView": 46,
   "componentType": 5126,
   "count": 320,
   "type": "VEC3"
  },
  {
   "bufferView": 47,
   "componentType": 5126,
   "count": 320,
   "type": "VEC2"
  },
  {
   "bufferView": 48,
   "componentType": 5121,
   "count": 320,
   "type": "VEC4",
   "normalized": true
  },
  {
   "bufferView": 49,
   "componentType": 5123,
   "count": 480,
   "type": "SCALAR"
  },
  {
   "bufferView": 50,
   "componentType": 5126,
   "count": 96,
   "type": "VEC3",
   "min": [
    -22.650000000000006,
    29.537999999999997,
    -0.05
   ],
   "max": [
    22.650000000000006,
    32.937999999999995,
    0.05
   ]
  },
  {
   "bufferView": 51,
   "componentType": 5126,
   "count": 96,
   "type": "VEC3"
  },
  {
   "bufferView": 52,
   "componentType": 5126,
   "count": 96,
   "type": "VEC2"
  },
  {
   "bufferView": 53,
   "componentType": 5121,
   "count": 96,
   "type": "VEC4",
   "normalized": true
  },
  {
   "bufferView": 54,
   "componentType": 5123,
   "count": 144,
   "type": "SCALAR"
  }
 ],
 "bufferViews": [
  {
   "buffer": 0,
   "byteOffset": 1447620,
   "byteLength": 211392,
   "target": 34962,
   "byteStride": 12
  },
  {
   "buffer": 0,
   "byteOffset": 1659012,
   "byteLength": 211392,
   "target": 34962,
   "byteStride": 12
  },
  {
   "buffer": 0,
   "byteOffset": 1870404,
   "byteLength": 140928,
   "target": 34962,
   "byteStride": 8
  },
  {
   "buffer": 0,
   "byteOffset": 2011332,
   "byteLength": 70464,
   "target": 34962,
   "byteStride": 4
  },
  {
   "buffer": 0,
   "byteOffset": 2081796,
   "byteLength": 50400,
   "target": 34963
  },
  {
   "buffer": 0,
   "byteOffset": 2132196,
   "byteLength": 317952,
   "target": 34962,
   "byteStride": 12
  },
  {
   "buffer": 0,
   "byteOffset": 2450148,
   "byteLength": 317952,
   "target": 34962,
   "byteStride": 12
  },
  {
   "buffer": 0,
   "byteOffset": 2768100,
   "byteLength": 211968,
   "target": 34962,
   "byteStride": 8
  },
  {
   "buffer": 0,
   "byteOffset": 2980068,
   "byteLength": 105984,
   "target": 34962,
   "byteStride": 4
  },
  {
   "buffer": 0,
   "byteOffset": 3086052,
   "byteLength": 79488,
   "target": 34963
  },
  {
   "buffer": 0,
   "byteOffset": 3165540,
   "byteLength": 1152,
   "target": 34962,
   "byteStride": 12
  },
  {
   "buffer": 0,
   "byteOffset": 3166692,
   "byteLength": 1152,
   "target": 34962,
   "byteStride": 12
  },
  {
   "buffer": 0,
   "byteOffset": 3167844,
   "byteLength": 768,
   "target": 34962,
   "byteStride": 8
  },
  {
   "buffer": 0,
   "byteOffset": 3168612,
   "byteLength": 384,
   "target": 34962,
   "byteStride": 4
  },
  {
   "buffer": 0,
   "byteOffset": 3168996,
   "byteLength": 288,
   "target": 34963
  },
  {
   "buffer": 0,
   "byteOffset": 3169284,
   "byteLength": 3024,
   "target": 34962,
   "byteStride": 12
  },
  {
   "buffer": 0,
   "byteOffset": 3172308,
   "byteLength": 3024,
   "target": 34962,
   "byteStride": 12
  },
  {
   "buffer": 0,
   "byteOffset": 3175332,
   "byteLength": 2016,
   "target": 34962,
   "byteStride": 8
  },
  {
   "buffer": 0,
   "byteOffset": 3177348,
   "byteLength": 1008,
   "target": 34962,
   "byteStride": 4
  },
  {
   "buffer": 0,
   "byteOffset": 3178356,
   "byteLength": 648,
   "target": 34963
  },
  {
   "buffer": 0,
   "byteOffset": 3179004,
   "byteLength": 48,
   "target": 34962,
   "byteStride": 12
  },
  {
   "buffer": 0,
   "byteOffset": 3179052,
   "byteLength": 48,
   "target": 34962,
   "byteStride": 12
  },
  {
   "buffer": 0,
   "byteOffset": 3179100,
   "byteLength": 32,
   "target": 34962,
   "byteStride": 8
  },
  {
   "buffer": 0,
   "byteOffset": 3179132,
   "byteLength": 16,
   "target": 34962,
   "byteStride": 4
  },
  {
   "buffer": 0,
   "byteOffset": 3179148,
   "byteLength": 12,
   "target": 34963
  },
  {
   "buffer": 0,
   "byteOffset": 3179160,
   "byteLength": 29760,
   "target": 34962,
   "byteStride": 12
  },
  {
   "buffer": 0,
   "byteOffset": 3208920,
   "byteLength": 29760,
   "target": 34962,
   "byteStride": 12
  },
  {
   "buffer": 0,
   "byteOffset": 3238680,
   "byteLength": 19840,
   "target": 34962,
   "byteStride": 8
  },
  {
   "buffer": 0,
   "byteOffset": 3258520,
   "byteLength": 9920,
   "target": 34962,
   "byteStride": 4
  },
  {
   "buffer": 0,
   "byteOffset": 3268440,
   "byteLength": 7008,
   "target": 34963
  },
  {
   "buffer": 0,
   "byteOffset": 3275448,
   "byteLength": 73728,
   "target": 34962,
   "byteStride": 12
  },
  {
   "buffer": 0,
   "byteOffset": 3349176,
   "byteLength": 73728,
   "target": 34962,
   "byteStride": 12
  },
  {
   "buffer": 0,
   "byteOffset": 3422904,
   "byteLength": 49152,
   "target": 34962,
   "byteStride": 8
  },
  {
   "buffer": 0,
   "byteOffset": 3472056,
   "byteLength": 24576,
   "target": 34962,
   "byteStride": 4
  },
  {
   "buffer": 0,
   "byteOffset": 3496632,
   "byteLength": 18432,
   "target": 34963
  },
  {
   "buffer": 0,
   "byteOffset": 3515064,
   "byteLength": 1152,
   "target": 34962,
   "byteStride": 12
  },
  {
   "buffer": 0,
   "byteOffset": 3516216,
   "byteLength": 1152,
   "target": 34962,
   "byteStride": 12
  },
  {
   "buffer": 0,
   "byteOffset": 3517368,
   "byteLength": 768,
   "target": 34962,
   "byteStride": 8
  },
  {
   "buffer": 0,
   "byteOffset": 3518136,
   "byteLength": 384,
   "target": 34962,
   "byteStride": 4
  },
  {
   "buffer": 0,
   "byteOffset": 3518520,
   "byteLength": 288,
   "target": 34963
  },
  {
   "buffer": 0,
   "byteOffset": 3518808,
   "byteLength": 14976,
   "target": 34962,
   "byteStride": 12
  },
  {
   "buffer": 0,
   "byteOffset": 3533784,
   "byteLength": 14976,
   "target": 34962,
   "byteStride": 12
  },
  {
   "buffer": 0,
   "byteOffset": 3548760,
   "byteLength": 9984,
   "target": 34962,
   "byteStride": 8
  },
  {
   "buffer": 0,
   "byteOffset": 3558744,
   "byteLength": 4992,
   "target": 34962,
   "byteStride": 4
  },
  {
   "buffer": 0,
   "byteOffset": 3563736,
   "byteLength": 3456,
   "target": 34963
  },
  {
   "buffer": 0,
   "byteOffset": 3567192,
   "byteLength": 3840,
   "target": 34962,
   "byteStride": 12
  },
  {
   "buffer": 0,
   "byteOffset": 3571032,
   "byteLength": 3840,
   "target": 34962,
   "byteStride": 12
  },
  {
   "buffer": 0,
   "byteOffset": 3574872,
   "byteLength": 2560,
   "target": 34962,
   "byteStride": 8
  },
  {
   "buffer": 0,
   "byteOffset": 3577432,
   "byteLength": 1280,
   "target": 34962,
   "byteStride": 4
  },
  {
   "buffer": 0,
   "byteOffset": 3578712,
   "byteLength": 960,
   "target": 34963
  },
  {
   "buffer": 0,
   "byteOffset": 3579672,
   "byteLength": 1152,
   "target": 34962,
   "byteStride": 12
  },
  {
   "buffer": 0,
   "byteOffset": 3580824,
   "byteLength": 1152,
   "target": 34962,
   "byteStride": 12
  },
  {
   "buffer": 0,
   "byteOffset": 3581976,
   "byteLength": 768,
   "target": 34962,
   "byteStride": 8
  },
  {
   "buffer": 0,
   "byteOffset": 3582744,
   "byteLength": 384,
   "target": 34962,
   "byteStride": 4
  },
  {
   "buffer": 0,
   "byteOffset": 3583128,
   "byteLength": 288,
   "target": 34963
  }
 ],
 "buffers": [
  {
   "uri": "einebenenmast_380.bin",
   "byteLength": 3583416
  }
 ]
}
