{
 "asset": {
  "version": "2.0",
  "generator": "tools/pylons/build_pylons.mjs (Connected Rails)",
  "copyright": "Connected Rails, EUPL v. 1.2 — generated by tools/pylons/build_pylons.mjs"
 },
 "scene": 0,
 "scenes": [
  {
   "name": "einebenenmast_110_trag",
   "nodes": [
    0,
    1,
    2,
    3
   ]
  }
 ],
 "nodes": [
  {
   "name": "mast_LOD0",
   "mesh": 0
  },
  {
   "name": "mast_LOD1",
   "mesh": 1
  },
  {
   "name": "mast_LOD2",
   "mesh": 2
  },
  {
   "name": "mast_LOD3",
   "mesh": 3
  }
 ],
 "meshes": [
  {
   "name": "mast_LOD0",
   "primitives": [
    {
     "attributes": {
      "POSITION": 0,
      "NORMAL": 1,
      "TEXCOORD_0": 2,
      "COLOR_0": 3
     },
     "indices": 4,
     "material": 0
    },
    {
     "attributes": {
      "POSITION": 5,
      "NORMAL": 6,
      "TEXCOORD_0": 7,
      "COLOR_0": 8
     },
     "indices": 9,
     "material": 1
    },
    {
     "attributes": {
      "POSITION": 10,
      "NORMAL": 11,
      "TEXCOORD_0": 12,
      "COLOR_0": 13
     },
     "indices": 14,
     "material": 2
    }
   ]
  },
  {
   "name": "mast_LOD1",
   "primitives": [
    {
     "attributes": {
      "POSITION": 15,
      "NORMAL": 16,
      "TEXCOORD_0": 17,
      "COLOR_0": 18
     },
     "indices": 19,
     "material": 0
    },
    {
     "attributes": {
      "POSITION": 20,
      "NORMAL": 21,
      "TEXCOORD_0": 22,
      "COLOR_0": 23
     },
     "indices": 24,
     "material": 1
    },
    {
     "attributes": {
      "POSITION": 25,
      "NORMAL": 26,
      "TEXCOORD_0": 27,
      "COLOR_0": 28
     },
     "indices": 29,
     "material": 2
    }
   ]
  },
  {
   "name": "mast_LOD2",
   "primitives": [
    {
     "attributes": {
      "POSITION": 30,
      "NORMAL": 31,
      "TEXCOORD_0": 32,
      "COLOR_0": 33
     },
     "indices": 34,
     "material": 0
    },
    {
     "attributes": {
      "POSITION": 35,
      "NORMAL": 36,
      "TEXCOORD_0": 37,
      "COLOR_0": 38
     },
     "indices": 39,
     "material": 1
    }
   ]
  },
  {
   "name": "mast_LOD3",
   "primitives": [
    {
     "attributes": {
      "POSITION": 40,
      "NORMAL": 41,
      "TEXCOORD_0": 42,
      "COLOR_0": 43
     },
     "indices": 44,
     "material": 0
    },
    {
     "attributes": {
      "POSITION": 45,
      "NORMAL": 46,
      "TEXCOORD_0": 47,
      "COLOR_0": 48
     },
     "indices": 49,
     "material": 1
    }
   ]
  }
 ],
 "materials": [
  {
   "name": "verzinkt",
   "pbrMetallicRoughness": {
    "baseColorFactor": [
     1,
     1,
     1,
     1
    ],
    "metallicFactor": 1,
    "roughnessFactor": 1,
    "baseColorTexture": {
     "index": 0
    },
    "metallicRoughnessTexture": {
     "index": 1
    }
   },
   "doubleSided": false,
   "occlusionTexture": {
    "index": 1
   },
   "normalTexture": {
    "index": 2,
    "scale": 1
   }
  },
  {
   "name": "isolator",
   "pbrMetallicRoughness": {
    "baseColorFactor": [
     0.4,
     0.3,
     0.24,
     1
    ],
    "metallicFactor": 0,
    "roughnessFactor": 0.24
   },
   "doubleSided": false
  },
  {
   "name": "fundament",
   "pbrMetallicRoughness": {
    "baseColorFactor": [
     1,
     1,
     1,
     1
    ],
    "metallicFactor": 1,
    "roughnessFactor": 1,
    "baseColorTexture": {
     "index": 3
    },
    "metallicRoughnessTexture": {
     "index": 4
    }
   },
   "doubleSided": false,
   "occlusionTexture": {
    "index": 4
   },
   "normalTexture": {
    "index": 5,
    "scale": 1
   }
  }
 ],
 "images": [
  {
   "uri": "verzinkt_colour.png"
  },
  {
   "uri": "verzinkt_orm.png"
  },
  {
   "uri": "verzinkt_normal.png"
  },
  {
   "uri": "beton_colour.png"
  },
  {
   "uri": "beton_orm.png"
  },
  {
   "uri": "beton_normal.png"
  },
  {
   "uri": "holz_colour.png"
  },
  {
   "uri": "holz_orm.png"
  },
  {
   "uri": "holz_normal.png"
  }
 ],
 "textures": [
  {
   "source": 0,
   "sampler": 0
  },
  {
   "source": 1,
   "sampler": 0
  },
  {
   "source": 2,
   "sampler": 0
  },
  {
   "source": 3,
   "sampler": 0
  },
  {
   "source": 4,
   "sampler": 0
  },
  {
   "source": 5,
   "sampler": 0
  },
  {
   "source": 6,
   "sampler": 0
  },
  {
   "source": 7,
   "sampler": 0
  },
  {
   "source": 8,
   "sampler": 0
  }
 ],
 "samplers": [
  {
   "magFilter": 9729,
   "minFilter": 9987,
   "wrapS": 10497,
   "wrapT": 10497
  }
 ],
 "accessors": [
  {
   "bufferView": 0,
   "componentType": 5126,
   "count": 3104,
   "type": "VEC3",
   "min": [
    -9.03,
    -0.045975888225566,
    -3.1546271113882542
   ],
   "max": [
    9.03,
    26.030806161848616,
    3.1546271113882542
   ]
  },
  {
   "bufferView": 1,
   "componentType": 5126,
   "count": 3104,
   "type": "VEC3"
  },
  {
   "bufferView": 2,
   "componentType": 5126,
   "count": 3104,
   "type": "VEC2"
  },
  {
   "bufferView": 3,
   "componentType": 5121,
   "count": 3104,
   "type": "VEC4",
   "normalized": true
  },
  {
   "bufferView": 4,
   "componentType": 5123,
   "count": 4656,
   "type": "SCALAR"
  },
  {
   "bufferView": 5,
   "componentType": 5126,
   "count": 1536,
   "type": "VEC3",
   "min": [
    -9.153,
    18.76,
    -0.1325018867790191
   ],
   "max": [
    9.153,
    22.16,
    0.1325018867790191
   ]
  },
  {
   "bufferView": 6,
   "componentType": 5126,
   "count": 1536,
   "type": "VEC3"
  },
  {
   "bufferView": 7,
   "componentType": 5126,
   "count": 1536,
   "type": "VEC2"
  },
  {
   "bufferView": 8,
   "componentType": 5121,
   "count": 1536,
   "type": "VEC4",
   "normalized": true
  },
  {
   "bufferView": 9,
   "componentType": 5123,
   "count": 2304,
   "type": "SCALAR"
  },
  {
   "bufferView": 10,
   "componentType": 5126,
   "count": 96,
   "type": "VEC3",
   "min": [
    -3.352,
    -0.4,
    -3.352
   ],
   "max": [
    3.352,
    0.45760000000000006,
    3.352
   ]
  },
  {
   "bufferView": 11,
   "componentType": 5126,
   "count": 96,
   "type": "VEC3"
  },
  {
   "bufferView": 12,
   "componentType": 5126,
   "count": 96,
   "type": "VEC2"
  },
  {
   "bufferView": 13,
   "componentType": 5121,
   "count": 96,
   "type": "VEC4",
   "normalized": true
  },
  {
   "bufferView": 14,
   "componentType": 5123,
   "count": 144,
   "type": "SCALAR"
  },
  {
   "bufferView": 15,
   "componentType": 5126,
   "count": 1376,
   "type": "VEC3",
   "min": [
    -9.0345,
    -0.031341981965976866,
    -3.18864507589367
   ],
   "max": [
    9.0345,
    26.03758351745531,
    3.18864507589367
   ]
  },
  {
   "bufferView": 16,
   "componentType": 5126,
   "count": 1376,
   "type": "VEC3"
  },
  {
   "bufferView": 17,
   "componentType": 5126,
   "count": 1376,
   "type": "VEC2"
  },
  {
   "bufferView": 18,
   "componentType": 5121,
   "count": 1376,
   "type": "VEC4",
   "normalized": true
  },
  {
   "bufferView": 19,
   "componentType": 5123,
   "count": 2064,
   "type": "SCALAR"
  },
  {
   "bufferView": 20,
   "componentType": 5126,
   "count": 816,
   "type": "VEC3",
   "min": [
    -9.153,
    18.76,
    -0.1325018867790191
   ],
   "max": [
    9.153,
    22.16,
    0.1325018867790191
   ]
  },
  {
   "bufferView": 21,
   "componentType": 5126,
   "count": 816,
   "type": "VEC3"
  },
  {
   "bufferView": 22,
   "componentType": 5126,
   "count": 816,
   "type": "VEC2"
  },
  {
   "bufferView": 23,
   "componentType": 5121,
   "count": 816,
   "type": "VEC4",
   "normalized": true
  },
  {
   "bufferView": 24,
   "componentType": 5123,
   "count": 1224,
   "type": "SCALAR"
  },
  {
   "bufferView": 25,
   "componentType": 5126,
   "count": 96,
   "type": "VEC3",
   "min": [
    -3.42944,
    -0.4,
    -3.42944
   ],
   "max": [
    3.42944,
    0.558272,
    3.42944
   ]
  },
  {
   "bufferView": 26,
   "componentType": 5126,
   "count": 96,
   "type": "VEC3"
  },
  {
   "bufferView": 27,
   "componentType": 5126,
   "count": 96,
   "type": "VEC2"
  },
  {
   "bufferView": 28,
   "componentType": 5121,
   "count": 96,
   "type": "VEC4",
   "normalized": true
  },
  {
   "bufferView": 29,
   "componentType": 5123,
   "count": 144,
   "type": "SCALAR"
  },
  {
   "bufferView": 30,
   "componentType": 5126,
   "count": 608,
   "type": "VEC3",
   "min": [
    -9.023259246104894,
    -0.019569594816450882,
    -3.1778211780964924
   ],
   "max": [
    9.023259246104894,
    26.03542708612591,
    3.1778211780964924
   ]
  },
  {
   "bufferView": 31,
   "componentType": 5126,
   "count": 608,
   "type": "VEC3"
  },
  {
   "bufferView": 32,
   "componentType": 5126,
   "count": 608,
   "type": "VEC2"
  },
  {
   "bufferView": 33,
   "componentType": 5121,
   "count": 608,
   "type": "VEC4",
   "normalized": true
  },
  {
   "bufferView": 34,
   "componentType": 5123,
   "count": 912,
   "type": "SCALAR"
  },
  {
   "bufferView": 35,
   "componentType": 5126,
   "count": 96,
   "type": "VEC3",
   "min": [
    -9.051,
    18.76,
    -0.051
   ],
   "max": [
    9.051,
    22.16,
    0.051
   ]
  },
  {
   "bufferView": 36,
   "componentType": 5126,
   "count": 96,
   "type": "VEC3"
  },
  {
   "bufferView": 37,
   "componentType": 5126,
   "count": 96,
   "type": "VEC2"
  },
  {
   "bufferView": 38,
   "componentType": 5121,
   "count": 96,
   "type": "VEC4",
   "normalized": true
  },
  {
   "bufferView": 39,
   "componentType": 5123,
   "count": 144,
   "type": "SCALAR"
  },
  {
   "bufferView": 40,
   "componentType": 5126,
   "count": 320,
   "type": "VEC3",
   "min": [
    -9.035572964631015,
    -0.03403407794165371,
    -3.3092542227765085
   ],
   "max": [
    9.035572964631015,
    26.061612323697233,
    3.3092542227765085
   ]
  },
  {
   "bufferView": 41,
   "componentType": 5126,
   "count": 320,
   "type": "VEC3"
  },
  {
   "bufferView": 42,
   "componentType": 5126,
   "count": 320,
   "type": "VEC2"
  },
  {
   "bufferView": 43,
   "componentType": 5121,
   "count": 320,
   "type": "VEC4",
   "normalized": true
  },
  {
   "bufferView": 44,
   "componentType": 5123,
   "count": 480,
   "type": "SCALAR"
  },
  {
   "bufferView": 45,
   "componentType": 5126,
   "count": 96,
   "type": "VEC3",
   "min": [
    -9.17,
    18.76,
    -0.17
   ],
   "max": [
    9.17,
    22.16,
    0.17
   ]
  },
  {
   "bufferView": 46,
   "componentType": 5126,
   "count": 96,
   "type": "VEC3"
  },
  {
   "bufferView": 47,
   "componentType": 5126,
   "count": 96,
   "type": "VEC2"
  },
  {
   "bufferView": 48,
   "componentType": 5121,
   "count": 96,
   "type": "VEC4",
   "normalized": true
  },
  {
   "bufferView": 49,
   "componentType": 5123,
   "count": 144,
   "type": "SCALAR"
  }
 ],
 "bufferViews": [
  {
   "buffer": 0,
   "byteOffset": 0,
   "byteLength": 37248,
   "target": 34962,
   "byteStride": 12
  },
  {
   "buffer": 0,
   "byteOffset": 37248,
   "byteLength": 37248,
   "target": 34962,
   "byteStride": 12
  },
  {
   "buffer": 0,
   "byteOffset": 74496,
   "byteLength": 24832,
   "target": 34962,
   "byteStride": 8
  },
  {
   "buffer": 0,
   "byteOffset": 99328,
   "byteLength": 12416,
   "target": 34962,
   "byteStride": 4
  },
  {
   "buffer": 0,
   "byteOffset": 111744,
   "byteLength": 9312,
   "target": 34963
  },
  {
   "buffer": 0,
   "byteOffset": 121056,
   "byteLength": 18432,
   "target": 34962,
   "byteStride": 12
  },
  {
   "buffer": 0,
   "byteOffset": 139488,
   "byteLength": 18432,
   "target": 34962,
   "byteStride": 12
  },
  {
   "buffer": 0,
   "byteOffset": 157920,
   "byteLength": 12288,
   "target": 34962,
   "byteStride": 8
  },
  {
   "buffer": 0,
   "byteOffset": 170208,
   "byteLength": 6144,
   "target": 34962,
   "byteStride": 4
  },
  {
   "buffer": 0,
   "byteOffset": 176352,
   "byteLength": 4608,
   "target": 34963
  },
  {
   "buffer": 0,
   "byteOffset": 180960,
   "byteLength": 1152,
   "target": 34962,
   "byteStride": 12
  },
  {
   "buffer": 0,
   "byteOffset": 182112,
   "byteLength": 1152,
   "target": 34962,
   "byteStride": 12
  },
  {
   "buffer": 0,
   "byteOffset": 183264,
   "byteLength": 768,
   "target": 34962,
   "byteStride": 8
  },
  {
   "buffer": 0,
   "byteOffset": 184032,
   "byteLength": 384,
   "target": 34962,
   "byteStride": 4
  },
  {
   "buffer": 0,
   "byteOffset": 184416,
   "byteLength": 288,
   "target": 34963
  },
  {
   "buffer": 0,
   "byteOffset": 184704,
   "byteLength": 16512,
   "target": 34962,
   "byteStride": 12
  },
  {
   "buffer": 0,
   "byteOffset": 201216,
   "byteLength": 16512,
   "target": 34962,
   "byteStride": 12
  },
  {
   "buffer": 0,
   "byteOffset": 217728,
   "byteLength": 11008,
   "target": 34962,
   "byteStride": 8
  },
  {
   "buffer": 0,
   "byteOffset": 228736,
   "byteLength": 5504,
   "target": 34962,
   "byteStride": 4
  },
  {
   "buffer": 0,
   "byteOffset": 234240,
   "byteLength": 4128,
   "target": 34963
  },
  {
   "buffer": 0,
   "byteOffset": 238368,
   "byteLength": 9792,
   "target": 34962,
   "byteStride": 12
  },
  {
   "buffer": 0,
   "byteOffset": 248160,
   "byteLength": 9792,
   "target": 34962,
   "byteStride": 12
  },
  {
   "buffer": 0,
   "byteOffset": 257952,
   "byteLength": 6528,
   "target": 34962,
   "byteStride": 8
  },
  {
   "buffer": 0,
   "byteOffset": 264480,
   "byteLength": 3264,
   "target": 34962,
   "byteStride": 4
  },
  {
   "buffer": 0,
   "byteOffset": 267744,
   "byteLength": 2448,
   "target": 34963
  },
  {
   "buffer": 0,
   "byteOffset": 270192,
   "byteLength": 1152,
   "target": 34962,
   "byteStride": 12
  },
  {
   "buffer": 0,
   "byteOffset": 271344,
   "byteLength": 1152,
   "target": 34962,
   "byteStride": 12
  },
  {
   "buffer": 0,
   "byteOffset": 272496,
   "byteLength": 768,
   "target": 34962,
   "byteStride": 8
  },
  {
   "buffer": 0,
   "byteOffset": 273264,
   "byteLength": 384,
   "target": 34962,
   "byteStride": 4
  },
  {
   "buffer": 0,
   "byteOffset": 273648,
   "byteLength": 288,
   "target": 34963
  },
  {
   "buffer": 0,
   "byteOffset": 273936,
   "byteLength": 7296,
   "target": 34962,
   "byteStride": 12
  },
  {
   "buffer": 0,
   "byteOffset": 281232,
   "byteLength": 7296,
   "target": 34962,
   "byteStride": 12
  },
  {
   "buffer": 0,
   "byteOffset": 288528,
   "byteLength": 4864,
   "target": 34962,
   "byteStride": 8
  },
  {
   "buffer": 0,
   "byteOffset": 293392,
   "byteLength": 2432,
   "target": 34962,
   "byteStride": 4
  },
  {
   "buffer": 0,
   "byteOffset": 295824,
   "byteLength": 1824,
   "target": 34963
  },
  {
   "buffer": 0,
   "byteOffset": 297648,
   "byteLength": 1152,
   "target": 34962,
   "byteStride": 12
  },
  {
   "buffer": 0,
   "byteOffset": 298800,
   "byteLength": 1152,
   "target": 34962,
   "byteStride": 12
  },
  {
   "buffer": 0,
   "byteOffset": 299952,
   "byteLength": 768,
   "target": 34962,
   "byteStride": 8
  },
  {
   "buffer": 0,
   "byteOffset": 300720,
   "byteLength": 384,
   "target": 34962,
   "byteStride": 4
  },
  {
   "buffer": 0,
   "byteOffset": 301104,
   "byteLength": 288,
   "target": 34963
  },
  {
   "buffer": 0,
   "byteOffset": 301392,
   "byteLength": 3840,
   "target": 34962,
   "byteStride": 12
  },
  {
   "buffer": 0,
   "byteOffset": 305232,
   "byteLength": 3840,
   "target": 34962,
   "byteStride": 12
  },
  {
   "buffer": 0,
   "byteOffset": 309072,
   "byteLength": 2560,
   "target": 34962,
   "byteStride": 8
  },
  {
   "buffer": 0,
   "byteOffset": 311632,
   "byteLength": 1280,
   "target": 34962,
   "byteStride": 4
  },
  {
   "buffer": 0,
   "byteOffset": 312912,
   "byteLength": 960,
   "target": 34963
  },
  {
   "buffer": 0,
   "byteOffset": 313872,
   "byteLength": 1152,
   "target": 34962,
   "byteStride": 12
  },
  {
   "buffer": 0,
   "byteOffset": 315024,
   "byteLength": 1152,
   "target": 34962,
   "byteStride": 12
  },
  {
   "buffer": 0,
   "byteOffset": 316176,
   "byteLength": 768,
   "target": 34962,
   "byteStride": 8
  },
  {
   "buffer": 0,
   "byteOffset": 316944,
   "byteLength": 384,
   "target": 34962,
   "byteStride": 4
  },
  {
   "buffer": 0,
   "byteOffset": 317328,
   "byteLength": 288,
   "target": 34963
  }
 ],
 "buffers": [
  {
   "uri": "einebenenmast_110.bin",
   "byteLength": 730704
  }
 ]
}
