{
 "asset": {
  "version": "2.0",
  "generator": "tools/pylons/build_pylons.mjs (Connected Rails)",
  "copyright": "Connected Rails, EUPL v. 1.2 — generated by tools/pylons/build_pylons.mjs"
 },
 "scene": 0,
 "scenes": [
  {
   "name": "masttrafo_20kv",
   "nodes": [
    0,
    1,
    2,
    3
   ]
  }
 ],
 "nodes": [
  {
   "name": "mast_LOD0",
   "mesh": 0
  },
  {
   "name": "mast_LOD1",
   "mesh": 1
  },
  {
   "name": "mast_LOD2",
   "mesh": 2
  },
  {
   "name": "mast_LOD3",
   "mesh": 3
  }
 ],
 "meshes": [
  {
   "name": "mast_LOD0",
   "primitives": [
    {
     "attributes": {
      "POSITION": 0,
      "NORMAL": 1,
      "TEXCOORD_0": 2,
      "COLOR_0": 3
     },
     "indices": 4,
     "material": 0
    },
    {
     "attributes": {
      "POSITION": 5,
      "NORMAL": 6,
      "TEXCOORD_0": 7,
      "COLOR_0": 8
     },
     "indices": 9,
     "material": 1
    },
    {
     "attributes": {
      "POSITION": 10,
      "NORMAL": 11,
      "TEXCOORD_0": 12,
      "COLOR_0": 13
     },
     "indices": 14,
     "material": 3
    },
    {
     "attributes": {
      "POSITION": 15,
      "NORMAL": 16,
      "TEXCOORD_0": 17,
      "COLOR_0": 18
     },
     "indices": 19,
     "material": 4
    },
    {
     "attributes": {
      "POSITION": 20,
      "NORMAL": 21,
      "TEXCOORD_0": 22,
      "COLOR_0": 23
     },
     "indices": 24,
     "material": 5
    }
   ]
  },
  {
   "name": "mast_LOD1",
   "primitives": [
    {
     "attributes": {
      "POSITION": 25,
      "NORMAL": 26,
      "TEXCOORD_0": 27,
      "COLOR_0": 28
     },
     "indices": 29,
     "material": 0
    },
    {
     "attributes": {
      "POSITION": 30,
      "NORMAL": 31,
      "TEXCOORD_0": 32,
      "COLOR_0": 33
     },
     "indices": 34,
     "material": 1
    },
    {
     "attributes": {
      "POSITION": 35,
      "NORMAL": 36,
      "TEXCOORD_0": 37,
      "COLOR_0": 38
     },
     "indices": 39,
     "material": 3
    },
    {
     "attributes": {
      "POSITION": 40,
      "NORMAL": 41,
      "TEXCOORD_0": 42,
      "COLOR_0": 43
     },
     "indices": 44,
     "material": 5
    }
   ]
  },
  {
   "name": "mast_LOD2",
   "primitives": [
    {
     "attributes": {
      "POSITION": 45,
      "NORMAL": 46,
      "TEXCOORD_0": 47,
      "COLOR_0": 48
     },
     "indices": 49,
     "material": 0
    },
    {
     "attributes": {
      "POSITION": 50,
      "NORMAL": 51,
      "TEXCOORD_0": 52,
      "COLOR_0": 53
     },
     "indices": 54,
     "material": 1
    },
    {
     "attributes": {
      "POSITION": 55,
      "NORMAL": 56,
      "TEXCOORD_0": 57,
      "COLOR_0": 58
     },
     "indices": 59,
     "material": 3
    }
   ]
  },
  {
   "name": "mast_LOD3",
   "primitives": [
    {
     "attributes": {
      "POSITION": 60,
      "NORMAL": 61,
      "TEXCOORD_0": 62,
      "COLOR_0": 63
     },
     "indices": 64,
     "material": 0
    },
    {
     "attributes": {
      "POSITION": 65,
      "NORMAL": 66,
      "TEXCOORD_0": 67,
      "COLOR_0": 68
     },
     "indices": 69,
     "material": 1
    },
    {
     "attributes": {
      "POSITION": 70,
      "NORMAL": 71,
      "TEXCOORD_0": 72,
      "COLOR_0": 73
     },
     "indices": 74,
     "material": 3
    }
   ]
  }
 ],
 "materials": [
  {
   "name": "schleuderbeton",
   "pbrMetallicRoughness": {
    "baseColorFactor": [
     1,
     1,
     1,
     1
    ],
    "metallicFactor": 1,
    "roughnessFactor": 1,
    "baseColorTexture": {
     "index": 3
    },
    "metallicRoughnessTexture": {
     "index": 4
    }
   },
   "doubleSided": false,
   "occlusionTexture": {
    "index": 4
   },
   "normalTexture": {
    "index": 5,
    "scale": 0.58
   }
  },
  {
   "name": "isolator",
   "pbrMetallicRoughness": {
    "baseColorFactor": [
     0.12,
     0.048,
     0.029,
     1
    ],
    "metallicFactor": 0,
    "roughnessFactor": 0.3
   },
   "doubleSided": false
  },
  {
   "name": "fundament",
   "pbrMetallicRoughness": {
    "baseColorFactor": [
     1,
     1,
     1,
     1
    ],
    "metallicFactor": 1,
    "roughnessFactor": 1,
    "baseColorTexture": {
     "index": 3
    },
    "metallicRoughnessTexture": {
     "index": 4
    }
   },
   "doubleSided": false,
   "occlusionTexture": {
    "index": 4
   },
   "normalTexture": {
    "index": 5,
    "scale": 1
   }
  },
  {
   "name": "beschlaege_verzinkt",
   "pbrMetallicRoughness": {
    "baseColorFactor": [
     1,
     1,
     1,
     1
    ],
    "metallicFactor": 1,
    "roughnessFactor": 1,
    "baseColorTexture": {
     "index": 0
    },
    "metallicRoughnessTexture": {
     "index": 1
    }
   },
   "doubleSided": false,
   "occlusionTexture": {
    "index": 1
   },
   "normalTexture": {
    "index": 2,
    "scale": 0.36
   }
  },
  {
   "name": "warnschild_bedruckt",
   "pbrMetallicRoughness": {
    "baseColorFactor": [
     1,
     1,
     1,
     1
    ],
    "metallicFactor": 1,
    "roughnessFactor": 1,
    "baseColorTexture": {
     "index": 9
    },
    "metallicRoughnessTexture": {
     "index": 10
    }
   },
   "doubleSided": false,
   "occlusionTexture": {
    "index": 10
   },
   "normalTexture": {
    "index": 11,
    "scale": 0.12
   }
  },
  {
   "name": "warnschild_schwarz",
   "pbrMetallicRoughness": {
    "baseColorFactor": [
     0.006,
     0.006,
     0.006,
     1
    ],
    "metallicFactor": 0,
    "roughnessFactor": 0.58
   },
   "doubleSided": false
  }
 ],
 "images": [
  {
   "uri": "verzinkt_colour.png"
  },
  {
   "uri": "verzinkt_orm.png"
  },
  {
   "uri": "verzinkt_normal.png"
  },
  {
   "uri": "beton_colour.png"
  },
  {
   "uri": "beton_orm.png"
  },
  {
   "uri": "beton_normal.png"
  },
  {
   "uri": "holz_colour.png"
  },
  {
   "uri": "holz_orm.png"
  },
  {
   "uri": "holz_normal.png"
  },
  {
   "uri": "warnschild_colour.png"
  },
  {
   "uri": "warnschild_orm.png"
  },
  {
   "uri": "warnschild_normal.png"
  }
 ],
 "textures": [
  {
   "source": 0,
   "sampler": 0
  },
  {
   "source": 1,
   "sampler": 0
  },
  {
   "source": 2,
   "sampler": 0
  },
  {
   "source": 3,
   "sampler": 0
  },
  {
   "source": 4,
   "sampler": 0
  },
  {
   "source": 5,
   "sampler": 0
  },
  {
   "source": 6,
   "sampler": 0
  },
  {
   "source": 7,
   "sampler": 0
  },
  {
   "source": 8,
   "sampler": 0
  },
  {
   "source": 9,
   "sampler": 0
  },
  {
   "source": 10,
   "sampler": 0
  },
  {
   "source": 11,
   "sampler": 0
  }
 ],
 "samplers": [
  {
   "magFilter": 9729,
   "minFilter": 9987,
   "wrapS": 10497,
   "wrapT": 10497
  }
 ],
 "accessors": [
  {
   "bufferView": 0,
   "componentType": 5126,
   "count": 196,
   "type": "VEC3",
   "min": [
    -0.18,
    0,
    -0.18
   ],
   "max": [
    0.18,
    10.5,
    0.18
   ]
  },
  {
   "bufferView": 1,
   "componentType": 5126,
   "count": 196,
   "type": "VEC3"
  },
  {
   "bufferView": 2,
   "componentType": 5126,
   "count": 196,
   "type": "VEC2"
  },
  {
   "bufferView": 3,
   "componentType": 5121,
   "count": 196,
   "type": "VEC4",
   "normalized": true
  },
  {
   "bufferView": 4,
   "componentType": 5123,
   "count": 228,
   "type": "SCALAR"
  },
  {
   "bufferView": 5,
   "componentType": 5126,
   "count": 2748,
   "type": "VEC3",
   "min": [
    -1.3575,
    5.76306,
    -0.1575
   ],
   "max": [
    1.3575,
    10.115,
    0.8468000000000001
   ]
  },
  {
   "bufferView": 6,
   "componentType": 5126,
   "count": 2748,
   "type": "VEC3"
  },
  {
   "bufferView": 7,
   "componentType": 5126,
   "count": 2748,
   "type": "VEC2"
  },
  {
   "bufferView": 8,
   "componentType": 5121,
   "count": 2748,
   "type": "VEC4",
   "normalized": true
  },
  {
   "bufferView": 9,
   "componentType": 5123,
   "count": 3348,
   "type": "SCALAR"
  },
  {
   "bufferView": 10,
   "componentType": 5126,
   "count": 1548,
   "type": "VEC3",
   "min": [
    -1.263,
    1.491,
    -0.17759961779051806
   ],
   "max": [
    1.263,
    9.828000000000001,
    1.3101000000000003
   ]
  },
  {
   "bufferView": 11,
   "componentType": 5126,
   "count": 1548,
   "type": "VEC3"
  },
  {
   "bufferView": 12,
   "componentType": 5126,
   "count": 1548,
   "type": "VEC2"
  },
  {
   "bufferView": 13,
   "componentType": 5121,
   "count": 1548,
   "type": "VEC4",
   "normalized": true
  },
  {
   "bufferView": 14,
   "componentType": 5123,
   "count": 2136,
   "type": "SCALAR"
  },
  {
   "bufferView": 15,
   "componentType": 5126,
   "count": 4,
   "type": "VEC3",
   "min": [
    -0.23,
    2.760150663274188,
    -0.183599484461629
   ],
   "max": [
    0.23,
    3.460135108237132,
    -0.17893292149520937
   ]
  },
  {
   "bufferView": 16,
   "componentType": 5126,
   "count": 4,
   "type": "VEC3"
  },
  {
   "bufferView": 17,
   "componentType": 5126,
   "count": 4,
   "type": "VEC2"
  },
  {
   "bufferView": 18,
   "componentType": 5121,
   "count": 4,
   "type": "VEC4",
   "normalized": true
  },
  {
   "bufferView": 19,
   "componentType": 5123,
   "count": 6,
   "type": "SCALAR"
  },
  {
   "bufferView": 20,
   "componentType": 5126,
   "count": 136,
   "type": "VEC3",
   "min": [
    0.054000000000000006,
    0.1,
    0.179
   ],
   "max": [
    0.106,
    5.273480440227263,
    0.931165524024153
   ]
  },
  {
   "bufferView": 21,
   "componentType": 5126,
   "count": 136,
   "type": "VEC3"
  },
  {
   "bufferView": 22,
   "componentType": 5126,
   "count": 136,
   "type": "VEC2"
  },
  {
   "bufferView": 23,
   "componentType": 5121,
   "count": 136,
   "type": "VEC4",
   "normalized": true
  },
  {
   "bufferView": 24,
   "componentType": 5123,
   "count": 168,
   "type": "SCALAR"
  },
  {
   "bufferView": 25,
   "componentType": 5126,
   "count": 144,
   "type": "VEC3",
   "min": [
    -0.18,
    0,
    -0.18
   ],
   "max": [
    0.18,
    10.5,
    0.18
   ]
  },
  {
   "bufferView": 26,
   "componentType": 5126,
   "count": 144,
   "type": "VEC3"
  },
  {
   "bufferView": 27,
   "componentType": 5126,
   "count": 144,
   "type": "VEC2"
  },
  {
   "bufferView": 28,
   "componentType": 5121,
   "count": 144,
   "type": "VEC4",
   "normalized": true
  },
  {
   "bufferView": 29,
   "componentType": 5123,
   "count": 168,
   "type": "SCALAR"
  },
  {
   "bufferView": 30,
   "componentType": 5126,
   "count": 1908,
   "type": "VEC3",
   "min": [
    -1.3575,
    5.76306,
    -0.1575
   ],
   "max": [
    1.3575,
    10.115,
    0.8468000000000001
   ]
  },
  {
   "bufferView": 31,
   "componentType": 5126,
   "count": 1908,
   "type": "VEC3"
  },
  {
   "bufferView": 32,
   "componentType": 5126,
   "count": 1908,
   "type": "VEC2"
  },
  {
   "bufferView": 33,
   "componentType": 5121,
   "count": 1908,
   "type": "VEC4",
   "normalized": true
  },
  {
   "bufferView": 34,
   "componentType": 5123,
   "count": 2340,
   "type": "SCALAR"
  },
  {
   "bufferView": 35,
   "componentType": 5126,
   "count": 872,
   "type": "VEC3",
   "min": [
    -1.2724499999999999,
    1.491,
    -0.12799999999999997
   ],
   "max": [
    1.2724499999999999,
    9.83745,
    1.3101000000000003
   ]
  },
  {
   "bufferView": 36,
   "componentType": 5126,
   "count": 872,
   "type": "VEC3"
  },
  {
   "bufferView": 37,
   "componentType": 5126,
   "count": 872,
   "type": "VEC2"
  },
  {
   "bufferView": 38,
   "componentType": 5121,
   "count": 872,
   "type": "VEC4",
   "normalized": true
  },
  {
   "bufferView": 39,
   "componentType": 5123,
   "count": 1188,
   "type": "SCALAR"
  },
  {
   "bufferView": 40,
   "componentType": 5126,
   "count": 136,
   "type": "VEC3",
   "min": [
    0.054000000000000006,
    0.1,
    0.179
   ],
   "max": [
    0.106,
    5.273480440227263,
    0.931165524024153
   ]
  },
  {
   "bufferView": 41,
   "componentType": 5126,
   "count": 136,
   "type": "VEC3"
  },
  {
   "bufferView": 42,
   "componentType": 5126,
   "count": 136,
   "type": "VEC2"
  },
  {
   "bufferView": 43,
   "componentType": 5121,
   "count": 136,
   "type": "VEC4",
   "normalized": true
  },
  {
   "bufferView": 44,
   "componentType": 5123,
   "count": 168,
   "type": "SCALAR"
  },
  {
   "bufferView": 45,
   "componentType": 5126,
   "count": 92,
   "type": "VEC3",
   "min": [
    -0.18,
    0,
    -0.18
   ],
   "max": [
    0.18,
    10.5,
    0.18
   ]
  },
  {
   "bufferView": 46,
   "componentType": 5126,
   "count": 92,
   "type": "VEC3"
  },
  {
   "bufferView": 47,
   "componentType": 5126,
   "count": 92,
   "type": "VEC2"
  },
  {
   "bufferView": 48,
   "componentType": 5121,
   "count": 92,
   "type": "VEC4",
   "normalized": true
  },
  {
   "bufferView": 49,
   "componentType": 5123,
   "count": 108,
   "type": "SCALAR"
  },
  {
   "bufferView": 50,
   "componentType": 5126,
   "count": 1224,
   "type": "VEC3",
   "min": [
    -1.3575,
    5.76306,
    -0.1575
   ],
   "max": [
    1.3575,
    10.115,
    0.8468000000000001
   ]
  },
  {
   "bufferView": 51,
   "componentType": 5126,
   "count": 1224,
   "type": "VEC3"
  },
  {
   "bufferView": 52,
   "componentType": 5126,
   "count": 1224,
   "type": "VEC2"
  },
  {
   "bufferView": 53,
   "componentType": 5121,
   "count": 1224,
   "type": "VEC4",
   "normalized": true
  },
  {
   "bufferView": 54,
   "componentType": 5123,
   "count": 1512,
   "type": "SCALAR"
  },
  {
   "bufferView": 55,
   "componentType": 5126,
   "count": 520,
   "type": "VEC3",
   "min": [
    -1.2945,
    4.060914518590064,
    -0.0675
   ],
   "max": [
    1.2945,
    9.8595,
    1.3101000000000003
   ]
  },
  {
   "bufferView": 56,
   "componentType": 5126,
   "count": 520,
   "type": "VEC3"
  },
  {
   "bufferView": 57,
   "componentType": 5126,
   "count": 520,
   "type": "VEC2"
  },
  {
   "bufferView": 58,
   "componentType": 5121,
   "count": 520,
   "type": "VEC4",
   "normalized": true
  },
  {
   "bufferView": 59,
   "componentType": 5123,
   "count": 708,
   "type": "SCALAR"
  },
  {
   "bufferView": 60,
   "componentType": 5126,
   "count": 66,
   "type": "VEC3",
   "min": [
    -0.18,
    0,
    -0.15588457268119893
   ],
   "max": [
    0.18,
    10.5,
    0.15588457268119896
   ]
  },
  {
   "bufferView": 61,
   "componentType": 5126,
   "count": 66,
   "type": "VEC3"
  },
  {
   "bufferView": 62,
   "componentType": 5126,
   "count": 66,
   "type": "VEC2"
  },
  {
   "bufferView": 63,
   "componentType": 5121,
   "count": 66,
   "type": "VEC4",
   "normalized": true
  },
  {
   "bufferView": 64,
   "componentType": 5123,
   "count": 78,
   "type": "SCALAR"
  },
  {
   "bufferView": 65,
   "componentType": 5126,
   "count": 48,
   "type": "VEC3",
   "min": [
    -1.3085,
    9.765,
    -0.1085
   ],
   "max": [
    1.3085,
    10.115,
    0.3905
   ]
  },
  {
   "bufferView": 66,
   "componentType": 5126,
   "count": 48,
   "type": "VEC3"
  },
  {
   "bufferView": 67,
   "componentType": 5126,
   "count": 48,
   "type": "VEC2"
  },
  {
   "bufferView": 68,
   "componentType": 5121,
   "count": 48,
   "type": "VEC4",
   "normalized": true
  },
  {
   "bufferView": 69,
   "componentType": 5123,
   "count": 72,
   "type": "SCALAR"
  },
  {
   "bufferView": 70,
   "componentType": 5126,
   "count": 368,
   "type": "VEC3",
   "min": [
    -1.29954,
    4.060914518590064,
    -0.0711
   ],
   "max": [
    1.29954,
    9.86454,
    1.3101000000000003
   ]
  },
  {
   "bufferView": 71,
   "componentType": 5126,
   "count": 368,
   "type": "VEC3"
  },
  {
   "bufferView": 72,
   "componentType": 5126,
   "count": 368,
   "type": "VEC2"
  },
  {
   "bufferView": 73,
   "componentType": 5121,
   "count": 368,
   "type": "VEC4",
   "normalized": true
  },
  {
   "bufferView": 74,
   "componentType": 5123,
   "count": 504,
   "type": "SCALAR"
  }
 ],
 "bufferViews": [
  {
   "buffer": 0,
   "byteOffset": 0,
   "byteLength": 2352,
   "target": 34962,
   "byteStride": 12
  },
  {
   "buffer": 0,
   "byteOffset": 2352,
   "byteLength": 2352,
   "target": 34962,
   "byteStride": 12
  },
  {
   "buffer": 0,
   "byteOffset": 4704,
   "byteLength": 1568,
   "target": 34962,
   "byteStride": 8
  },
  {
   "buffer": 0,
   "byteOffset": 6272,
   "byteLength": 784,
   "target": 34962,
   "byteStride": 4
  },
  {
   "buffer": 0,
   "byteOffset": 7056,
   "byteLength": 456,
   "target": 34963
  },
  {
   "buffer": 0,
   "byteOffset": 7512,
   "byteLength": 32976,
   "target": 34962,
   "byteStride": 12
  },
  {
   "buffer": 0,
   "byteOffset": 40488,
   "byteLength": 32976,
   "target": 34962,
   "byteStride": 12
  },
  {
   "buffer": 0,
   "byteOffset": 73464,
   "byteLength": 21984,
   "target": 34962,
   "byteStride": 8
  },
  {
   "buffer": 0,
   "byteOffset": 95448,
   "byteLength": 10992,
   "target": 34962,
   "byteStride": 4
  },
  {
   "buffer": 0,
   "byteOffset": 106440,
   "byteLength": 6696,
   "target": 34963
  },
  {
   "buffer": 0,
   "byteOffset": 113136,
   "byteLength": 18576,
   "target": 34962,
   "byteStride": 12
  },
  {
   "buffer": 0,
   "byteOffset": 131712,
   "byteLength": 18576,
   "target": 34962,
   "byteStride": 12
  },
  {
   "buffer": 0,
   "byteOffset": 150288,
   "byteLength": 12384,
   "target": 34962,
   "byteStride": 8
  },
  {
   "buffer": 0,
   "byteOffset": 162672,
   "byteLength": 6192,
   "target": 34962,
   "byteStride": 4
  },
  {
   "buffer": 0,
   "byteOffset": 168864,
   "byteLength": 4272,
   "target": 34963
  },
  {
   "buffer": 0,
   "byteOffset": 173136,
   "byteLength": 48,
   "target": 34962,
   "byteStride": 12
  },
  {
   "buffer": 0,
   "byteOffset": 173184,
   "byteLength": 48,
   "target": 34962,
   "byteStride": 12
  },
  {
   "buffer": 0,
   "byteOffset": 173232,
   "byteLength": 32,
   "target": 34962,
   "byteStride": 8
  },
  {
   "buffer": 0,
   "byteOffset": 173264,
   "byteLength": 16,
   "target": 34962,
   "byteStride": 4
  },
  {
   "buffer": 0,
   "byteOffset": 173280,
   "byteLength": 12,
   "target": 34963
  },
  {
   "buffer": 0,
   "byteOffset": 173292,
   "byteLength": 1632,
   "target": 34962,
   "byteStride": 12
  },
  {
   "buffer": 0,
   "byteOffset": 174924,
   "byteLength": 1632,
   "target": 34962,
   "byteStride": 12
  },
  {
   "buffer": 0,
   "byteOffset": 176556,
   "byteLength": 1088,
   "target": 34962,
   "byteStride": 8
  },
  {
   "buffer": 0,
   "byteOffset": 177644,
   "byteLength": 544,
   "target": 34962,
   "byteStride": 4
  },
  {
   "buffer": 0,
   "byteOffset": 178188,
   "byteLength": 336,
   "target": 34963
  },
  {
   "buffer": 0,
   "byteOffset": 178524,
   "byteLength": 1728,
   "target": 34962,
   "byteStride": 12
  },
  {
   "buffer": 0,
   "byteOffset": 180252,
   "byteLength": 1728,
   "target": 34962,
   "byteStride": 12
  },
  {
   "buffer": 0,
   "byteOffset": 181980,
   "byteLength": 1152,
   "target": 34962,
   "byteStride": 8
  },
  {
   "buffer": 0,
   "byteOffset": 183132,
   "byteLength": 576,
   "target": 34962,
   "byteStride": 4
  },
  {
   "buffer": 0,
   "byteOffset": 183708,
   "byteLength": 336,
   "target": 34963
  },
  {
   "buffer": 0,
   "byteOffset": 184044,
   "byteLength": 22896,
   "target": 34962,
   "byteStride": 12
  },
  {
   "buffer": 0,
   "byteOffset": 206940,
   "byteLength": 22896,
   "target": 34962,
   "byteStride": 12
  },
  {
   "buffer": 0,
   "byteOffset": 229836,
   "byteLength": 15264,
   "target": 34962,
   "byteStride": 8
  },
  {
   "buffer": 0,
   "byteOffset": 245100,
   "byteLength": 7632,
   "target": 34962,
   "byteStride": 4
  },
  {
   "buffer": 0,
   "byteOffset": 252732,
   "byteLength": 4680,
   "target": 34963
  },
  {
   "buffer": 0,
   "byteOffset": 257412,
   "byteLength": 10464,
   "target": 34962,
   "byteStride": 12
  },
  {
   "buffer": 0,
   "byteOffset": 267876,
   "byteLength": 10464,
   "target": 34962,
   "byteStride": 12
  },
  {
   "buffer": 0,
   "byteOffset": 278340,
   "byteLength": 6976,
   "target": 34962,
   "byteStride": 8
  },
  {
   "buffer": 0,
   "byteOffset": 285316,
   "byteLength": 3488,
   "target": 34962,
   "byteStride": 4
  },
  {
   "buffer": 0,
   "byteOffset": 288804,
   "byteLength": 2376,
   "target": 34963
  },
  {
   "buffer": 0,
   "byteOffset": 291180,
   "byteLength": 1632,
   "target": 34962,
   "byteStride": 12
  },
  {
   "buffer": 0,
   "byteOffset": 292812,
   "byteLength": 1632,
   "target": 34962,
   "byteStride": 12
  },
  {
   "buffer": 0,
   "byteOffset": 294444,
   "byteLength": 1088,
   "target": 34962,
   "byteStride": 8
  },
  {
   "buffer": 0,
   "byteOffset": 295532,
   "byteLength": 544,
   "target": 34962,
   "byteStride": 4
  },
  {
   "buffer": 0,
   "byteOffset": 296076,
   "byteLength": 336,
   "target": 34963
  },
  {
   "buffer": 0,
   "byteOffset": 296412,
   "byteLength": 1104,
   "target": 34962,
   "byteStride": 12
  },
  {
   "buffer": 0,
   "byteOffset": 297516,
   "byteLength": 1104,
   "target": 34962,
   "byteStride": 12
  },
  {
   "buffer": 0,
   "byteOffset": 298620,
   "byteLength": 736,
   "target": 34962,
   "byteStride": 8
  },
  {
   "buffer": 0,
   "byteOffset": 299356,
   "byteLength": 368,
   "target": 34962,
   "byteStride": 4
  },
  {
   "buffer": 0,
   "byteOffset": 299724,
   "byteLength": 216,
   "target": 34963
  },
  {
   "buffer": 0,
   "byteOffset": 299940,
   "byteLength": 14688,
   "target": 34962,
   "byteStride": 12
  },
  {
   "buffer": 0,
   "byteOffset": 314628,
   "byteLength": 14688,
   "target": 34962,
   "byteStride": 12
  },
  {
   "buffer": 0,
   "byteOffset": 329316,
   "byteLength": 9792,
   "target": 34962,
   "byteStride": 8
  },
  {
   "buffer": 0,
   "byteOffset": 339108,
   "byteLength": 4896,
   "target": 34962,
   "byteStride": 4
  },
  {
   "buffer": 0,
   "byteOffset": 344004,
   "byteLength": 3024,
   "target": 34963
  },
  {
   "buffer": 0,
   "byteOffset": 347028,
   "byteLength": 6240,
   "target": 34962,
   "byteStride": 12
  },
  {
   "buffer": 0,
   "byteOffset": 353268,
   "byteLength": 6240,
   "target": 34962,
   "byteStride": 12
  },
  {
   "buffer": 0,
   "byteOffset": 359508,
   "byteLength": 4160,
   "target": 34962,
   "byteStride": 8
  },
  {
   "buffer": 0,
   "byteOffset": 363668,
   "byteLength": 2080,
   "target": 34962,
   "byteStride": 4
  },
  {
   "buffer": 0,
   "byteOffset": 365748,
   "byteLength": 1416,
   "target": 34963
  },
  {
   "buffer": 0,
   "byteOffset": 367164,
   "byteLength": 792,
   "target": 34962,
   "byteStride": 12
  },
  {
   "buffer": 0,
   "byteOffset": 367956,
   "byteLength": 792,
   "target": 34962,
   "byteStride": 12
  },
  {
   "buffer": 0,
   "byteOffset": 368748,
   "byteLength": 528,
   "target": 34962,
   "byteStride": 8
  },
  {
   "buffer": 0,
   "byteOffset": 369276,
   "byteLength": 264,
   "target": 34962,
   "byteStride": 4
  },
  {
   "buffer": 0,
   "byteOffset": 369540,
   "byteLength": 156,
   "target": 34963
  },
  {
   "buffer": 0,
   "byteOffset": 369696,
   "byteLength": 576,
   "target": 34962,
   "byteStride": 12
  },
  {
   "buffer": 0,
   "byteOffset": 370272,
   "byteLength": 576,
   "target": 34962,
   "byteStride": 12
  },
  {
   "buffer": 0,
   "byteOffset": 370848,
   "byteLength": 384,
   "target": 34962,
   "byteStride": 8
  },
  {
   "buffer": 0,
   "byteOffset": 371232,
   "byteLength": 192,
   "target": 34962,
   "byteStride": 4
  },
  {
   "buffer": 0,
   "byteOffset": 371424,
   "byteLength": 144,
   "target": 34963
  },
  {
   "buffer": 0,
   "byteOffset": 371568,
   "byteLength": 4416,
   "target": 34962,
   "byteStride": 12
  },
  {
   "buffer": 0,
   "byteOffset": 375984,
   "byteLength": 4416,
   "target": 34962,
   "byteStride": 12
  },
  {
   "buffer": 0,
   "byteOffset": 380400,
   "byteLength": 2944,
   "target": 34962,
   "byteStride": 8
  },
  {
   "buffer": 0,
   "byteOffset": 383344,
   "byteLength": 1472,
   "target": 34962,
   "byteStride": 4
  },
  {
   "buffer": 0,
   "byteOffset": 384816,
   "byteLength": 1008,
   "target": 34963
  }
 ],
 "buffers": [
  {
   "uri": "masttrafo_20kv.bin",
   "byteLength": 385824
  }
 ]
}
